<svg xmlns="http://www.w3.org/2000/svg" xmlns:xlink="http://www.w3.org/1999/xlink" width="1240" height="422" viewBox="0 0 1240 422">
  <defs>
    <clipPath id="clip-path">
      <rect id="Rectángulo_34573" data-name="Rectángulo 34573" width="1240" height="422" transform="translate(180 415)" fill="#ed9aa9"/>
    </clipPath>
    <clipPath id="clip-path-2">
      <path id="Trazado_114144" data-name="Trazado 114144" d="M241.465,0C229.491.139,220.5,6.2,215.939,17.141c-4.39,10.3-4.692,24.992,0,43.167,16.514,62.7,81.177,120.709,119.954,200.992,38.626,80.271,40.136,91.316,40.136,91.316l-3.472,27.57S322.27,358.98,269.1,300.065C215.939,241,116.889,167.545,91.746,147.245s-61.795-34.375-85.567,0C-2.311,159.521-1.4,174.2,4.971,189.808c11.5,28.023,41.041,59.065,66.939,85.126,40.438,40.275,131.01,124.181,154.643,142.972,23.773,18.918,76.927,61.945,88.436,89.968,8.64,20.892,23.784,52.852,26.211,105.7a381.359,381.359,0,0,1-2.88,62.259C326.66,767.92,238.2,735.96,288.185,816.545c50.135,80.411,160.252,161.6,238.538,187.044,68.159,68.159,143.6,239.3,143.6,239.3s62.4,6.2,141.009-26.653c54.211-22.576,116.319-63.92,170.832-138.9a539.342,539.342,0,0,0,40.6-65.128C915.374,933.921,820.412,797.6,820.412,797.6c42.865-99.968,49.368-224,52.248-301.552-13.773-47.859-63.92-92.384-47.1-211.734,18.326-130.859-12.113-124.042-63.3-85.428-1.37,1.068-2.729,2.125-3.937,3.182-48.927,40.751-77.542,137.374-46.349,241.429,0,0-1.37,13.019-9.7,16.2-107.992-2.88-182.051-97.087-224.01-163.876-42.1-66.649-119.64-205.684-176.743-262.635C278.883,10.475,258.107.2,242.336,0Z" transform="translate(0)" fill="none"/>
    </clipPath>
    <linearGradient id="linear-gradient" x1="0.168" y1="0.939" x2="0.176" y2="0.939" gradientUnits="objectBoundingBox">
      <stop offset="0" stop-color="#f8c5a1"/>
      <stop offset="0.699" stop-color="#f9bb9a"/>
      <stop offset="1" stop-color="#fab597"/>
    </linearGradient>
    <clipPath id="clip-path-3">
      <path id="Trazado_114145" data-name="Trazado 114145" d="M126.259,39.467c-1.37,1.068-2.729,2.125-3.937,3.182C163.062,29.48,177.9,38.561,177.9,75.364c0,43.469-43.469,79.667-27.558,104.357,16.05,24.69,52.69,119.35,48.311,207.344-4.251,87.994-2.88,117.538-26.513,179.774-23.772,62.4-30.891,109.363-112.22,162.97,137.815-14.993,187.648,31.356,224.753,68.623,26.211,26.2,49.682,86.171,61.492,119.49a539.337,539.337,0,0,0,40.6-65.128C279.381,774.5,184.419,638.18,184.419,638.18c42.865-99.968,49.368-224,52.248-301.552-13.773-47.859-63.92-92.384-47.1-211.734C201.037,43,193.408,15.021,173.537,15.021c-11.869,0-28.127,10-47.278,24.446" transform="translate(-59.924 -15.021)" fill="none"/>
    </clipPath>
    <linearGradient id="linear-gradient-2" x1="-2.129" y1="1.184" x2="-2.094" y2="1.184" gradientUnits="objectBoundingBox">
      <stop offset="0" stop-color="#f7b08a"/>
      <stop offset="0.394" stop-color="#f0a582"/>
      <stop offset="1" stop-color="#e38c72"/>
    </linearGradient>
    <clipPath id="clip-path-4">
      <path id="Trazado_114146" data-name="Trazado 114146" d="M120.029,145.093c-4.552,3.786-14.7,6.666-28.325,8.78a381.355,381.355,0,0,1-2.88,62.259c-11.66,92.082-100.118,60.122-50.135,140.707,50.135,80.411,160.252,161.6,238.538,187.044,68.159,68.159,143.6,239.3,143.6,239.3s62.4,6.2,141.009-26.653c-83.6-9.546-137.978-40.9-171.459-105.426-41.344-79.668-30.45-156.606-30.45-156.606s-81.479,11.207-173.259-33.017-94.207-125.4-94.207-125.4,48.16-13.785,56.8-42.714c8.78-29.08,20-24.69,35.583-33.772,15.608-9.093,31.971-37.418,27.57-55.14-4.541-17.559-50.437-44.212-50.437-44.212l2.578-44.235-9.093,14.551s-3.774-32.424,10.15-87.251C150.769,95.423,144.1,124.8,120.029,145.093" transform="translate(-23.508 -43.314)" fill="none"/>
    </clipPath>
    <linearGradient id="linear-gradient-3" x1="-0.416" y1="0.992" x2="-0.395" y2="0.992" xlink:href="#linear-gradient-2"/>
    <clipPath id="clip-path-5">
      <path id="Trazado_114147" data-name="Trazado 114147" d="M29.892,88.578C24.886,96.6,11.4,117.971,17.918,136.134c2.729,7.874,10.6,23.482,23.784,39.543,11.66,14.226,27.407,28.615,47.406,38.01a113.5,113.5,0,0,0,32.866,9.384c60.575-8.327,96.472-44.525,96.472-101.013C168.915,127.958,67.3,54.5,67.3,54.5,45.477,61.472,35.025,80.7,29.892,88.578" transform="translate(-16.175 -54.504)" fill="none"/>
    </clipPath>
    <linearGradient id="linear-gradient-4" x1="-0.669" y1="2.511" x2="-0.621" y2="2.511" xlink:href="#linear-gradient"/>
    <clipPath id="clip-path-6">
      <path id="Trazado_114148" data-name="Trazado 114148" d="M44.12,0C32.147.139,23.158,6.2,18.594,17.141,64.641,2.3,108.11,34.561,108.11,75.15c0,46.047,20.288,50.286,38.626,61.945s54.676,42.563,54.676,68.612c0,26.2,23.169.453,38.161,60.436s18.326,34.828,46.349,74.523C313.933,380.186,330.9,432.9,376.343,448.8c45.443,16.05,86.937,33.923,103.452,31.96,16.352-1.974,25.131-21.055,25.131-21.055-107.992-2.88-182.051-97.087-224.01-163.876-42.1-66.649-119.64-205.684-176.743-262.635C81.538,10.475,60.762.2,44.991,0Z" transform="translate(-18.594)" fill="none"/>
    </clipPath>
    <linearGradient id="linear-gradient-5" x1="-0.444" y1="2.576" x2="-0.42" y2="2.576" xlink:href="#linear-gradient-2"/>
    <clipPath id="clip-path-7">
      <path id="Trazado_114149" data-name="Trazado 114149" d="M6.179,31.719C-2.311,43.995-1.4,58.674,4.971,74.282,7.84,39.9,27.373,33.241,50.7,33.241c26.955,0,70.586,30.439,81.63,60.877,11.218,30.45,25.6,50.75,59.518,59.379,33.783,8.78,71.039,41.645,73.919,64.826s68.159,41.041,81.63,73.454c13.646,32.413,25.154-27.117,25.154-27.117S322.27,243.453,269.1,184.539C215.939,125.474,116.889,52.019,91.746,31.719,77.624,20.327,59.89,10.885,42.83,10.885c-13.32,0-26.223,5.76-36.652,20.834" transform="translate(0 -10.885)" fill="none"/>
    </clipPath>
    <linearGradient id="linear-gradient-6" x1="0.006" y1="3.564" x2="0.037" y2="3.564" xlink:href="#linear-gradient-2"/>
    <clipPath id="clip-path-8">
      <path id="Trazado_114150" data-name="Trazado 114150" d="M29.892,88.578C24.886,96.6,11.4,117.971,17.918,136.134c2.729,7.874,10.6,23.482,23.784,39.543,2.265-54.385,21.345-74.825,47.1-66.045,29.521,10.138,64.663,20.149,64.663,42.714,0,18.012-32.25,45.431-64.361,61.342a113.5,113.5,0,0,0,32.866,9.384c60.575-8.327,96.472-44.525,96.472-101.013C168.915,127.958,67.3,54.5,67.3,54.5,45.477,61.472,35.025,80.7,29.892,88.578" transform="translate(-16.175 -54.504)" fill="none"/>
    </clipPath>
    <linearGradient id="linear-gradient-7" x1="-0.884" y1="3.621" x2="-0.828" y2="3.621" xlink:href="#linear-gradient-2"/>
    <clipPath id="clip-path-9">
      <path id="Trazado_114151" data-name="Trazado 114151" d="M51.814,59.8s-27.256,30.45-31.5,46.047c-2.276,7.874-1.823,22.112.906,36.2,2.567,14.087,7.572,27.721,14.691,34.84,10.9,10.893,57.858,43,97.842,60.738,11.962,5.3,23.32,9.233,33.017,11.044a103.031,103.031,0,0,0,67.392-11.509c13.03-7.258,22.425-16.8,26.049-26.955,3.937-10.754,6.364-23.633,2.276-35.293-5.145-14.54-20.741-26.955-56.952-30.3,0-25.735-47.557-39.822-47.557-39.822s8.025-35.9-32.25-60.889c-41.343,0-73.919,15.9-73.919,15.9" transform="translate(-18.86 -43.901)" fill="none"/>
    </clipPath>
    <linearGradient id="linear-gradient-8" x1="-0.602" y1="2.45" x2="-0.565" y2="2.45" xlink:href="#linear-gradient"/>
    <clipPath id="clip-path-10">
      <path id="Trazado_114152" data-name="Trazado 114152" d="M51.814,59.8s-27.256,30.45-31.5,46.047c-2.276,7.874-1.823,22.112.906,36.2,25.433-59.832,43-59.367,67.543-57.1,26.664,2.427,35.595,8.64,44.084,38.173,8.327,29.533,60.436,19.534,60.436,51.8,0,26.049-30.45,50.135-59.53,62.712,11.962,5.3,23.32,9.233,33.017,11.044a103.031,103.031,0,0,0,67.392-11.509c13.03-7.258,22.425-16.8,26.049-26.955,3.937-10.754,6.364-23.633,2.276-35.293-5.145-14.54-20.741-26.955-56.952-30.3,0-25.735-47.557-39.822-47.557-39.822s8.025-35.9-32.25-60.889c-41.343,0-73.919,15.9-73.919,15.9" transform="translate(-18.86 -43.901)" fill="none"/>
    </clipPath>
    <linearGradient id="linear-gradient-9" x1="-0.878" y1="3.507" x2="-0.831" y2="3.507" xlink:href="#linear-gradient-2"/>
    <clipPath id="clip-path-11">
      <path id="Trazado_114153" data-name="Trazado 114153" d="M51.5,66.54s4.529,27.57-14.1,50.89c13.03-7.258,22.425-16.8,26.049-26.954,3.937-10.754,6.364-23.633,2.276-35.293A33.436,33.436,0,0,1,51.5,66.54" transform="translate(-37.4 -55.182)" fill="none"/>
    </clipPath>
    <linearGradient id="linear-gradient-10" x1="-6.473" y1="15.843" x2="-6.293" y2="15.843" xlink:href="#linear-gradient-2"/>
    <clipPath id="clip-path-12">
      <path id="Trazado_114154" data-name="Trazado 114154" d="M123.191,345.762a226,226,0,0,1-8.7-242.173,57.386,57.386,0,0,0-39.88,38.545A226.192,226.192,0,0,1,83.5,45.581a228.747,228.747,0,0,0,39.694,300.181" transform="translate(-44.585 -45.581)" fill="none"/>
    </clipPath>
    <linearGradient id="linear-gradient-11" x1="-2.662" y1="2.28" x2="-2.595" y2="2.28" xlink:href="#linear-gradient-2"/>
    <clipPath id="clip-path-13">
      <rect id="Rectángulo_34590" data-name="Rectángulo 34590" width="1022.751" height="1243.358" fill="none"/>
    </clipPath>
  </defs>
  <g id="Grupo_89" data-name="Grupo 89" transform="translate(-180 -415)" clip-path="url(#clip-path)">
    <g id="Grupo_82200" data-name="Grupo 82200" transform="translate(-19.159 214.394)" opacity="0.07">
      <g id="Grupo_82201" data-name="Grupo 82201" transform="translate(0)">
        <g id="Grupo_82200-2" data-name="Grupo 82200" clip-path="url(#clip-path-2)">
          <rect id="Rectángulo_34579" data-name="Rectángulo 34579" width="1537.947" height="1411.662" transform="matrix(0.367, -0.93, 0.93, 0.367, -428.391, 1081.182)" fill="url(#linear-gradient)"/>
        </g>
      </g>
      <g id="Grupo_82203" data-name="Grupo 82203" transform="translate(695.918 174.444)">
        <g id="Grupo_82202" data-name="Grupo 82202" clip-path="url(#clip-path-3)">
          <rect id="Rectángulo_34580" data-name="Rectángulo 34580" width="326.845" height="902.902" transform="translate(0 0)" fill="url(#linear-gradient-2)"/>
        </g>
      </g>
      <g id="Grupo_82205" data-name="Grupo 82205" transform="translate(273.004 503.02)">
        <g id="Grupo_82204" data-name="Grupo 82204" clip-path="url(#clip-path-4)">
          <rect id="Rectángulo_34581" data-name="Rectángulo 34581" width="573.129" height="746.075" transform="translate(-34.802 0)" fill="url(#linear-gradient-3)"/>
        </g>
      </g>
      <g id="Grupo_82207" data-name="Grupo 82207" transform="translate(187.845 632.973)">
        <g id="Grupo_82206" data-name="Grupo 82206" clip-path="url(#clip-path-5)">
          <rect id="Rectángulo_34582" data-name="Rectángulo 34582" width="245.22" height="261.534" transform="translate(-73.902 132.5) rotate(-62.447)" fill="url(#linear-gradient-4)"/>
        </g>
      </g>
      <g id="Grupo_82209" data-name="Grupo 82209" transform="translate(215.939)">
        <g id="Grupo_82208" data-name="Grupo 82208" clip-path="url(#clip-path-6)">
          <rect id="Rectángulo_34583" data-name="Rectángulo 34583" width="486.331" height="482.72" transform="translate(0)" fill="url(#linear-gradient-5)"/>
        </g>
      </g>
      <g id="Grupo_82211" data-name="Grupo 82211" transform="translate(0 126.411)">
        <g id="Grupo_82210" data-name="Grupo 82210" clip-path="url(#clip-path-7)">
          <rect id="Rectángulo_34584" data-name="Rectángulo 34584" width="374.867" height="313.304" transform="translate(-2.31 0)" fill="url(#linear-gradient-6)"/>
        </g>
      </g>
      <g id="Grupo_82213" data-name="Grupo 82213" transform="translate(187.845 632.973)">
        <g id="Grupo_82212" data-name="Grupo 82212" clip-path="url(#clip-path-8)">
          <rect id="Rectángulo_34585" data-name="Rectángulo 34585" width="207.042" height="168.567" transform="translate(-4.772 0)" fill="url(#linear-gradient-7)"/>
        </g>
      </g>
      <g id="Grupo_82215" data-name="Grupo 82215" transform="translate(219.033 509.837)">
        <g id="Grupo_82214" data-name="Grupo 82214" clip-path="url(#clip-path-9)">
          <rect id="Rectángulo_34586" data-name="Rectángulo 34586" width="310.735" height="322.34" transform="translate(-96.314 147.224) rotate(-57.031)" fill="url(#linear-gradient-8)"/>
        </g>
      </g>
      <g id="Grupo_82217" data-name="Grupo 82217" transform="translate(219.033 509.837)">
        <g id="Grupo_82216" data-name="Grupo 82216" clip-path="url(#clip-path-10)">
          <rect id="Rectángulo_34587" data-name="Rectángulo 34587" width="248.537" height="209.168" transform="translate(-0.818 0)" fill="url(#linear-gradient-9)"/>
        </g>
      </g>
      <g id="Grupo_82219" data-name="Grupo 82219" transform="translate(434.339 640.847)">
        <g id="Grupo_82218" data-name="Grupo 82218" clip-path="url(#clip-path-11)">
          <rect id="Rectángulo_34588" data-name="Rectángulo 34588" width="64.617" height="37.236" transform="matrix(0.079, -0.997, 0.997, 0.079, -4.909, 61.858)" fill="url(#linear-gradient-10)"/>
        </g>
      </g>
      <g id="Grupo_82221" data-name="Grupo 82221" transform="translate(517.786 529.347)">
        <g id="Grupo_82220" data-name="Grupo 82220" clip-path="url(#clip-path-12)">
          <rect id="Rectángulo_34589" data-name="Rectángulo 34589" width="172.16" height="316.282" transform="matrix(0.972, -0.237, 0.237, 0.972, -94.492, 16.823)" fill="url(#linear-gradient-11)"/>
        </g>
      </g>
      <g id="Grupo_82223" data-name="Grupo 82223" transform="translate(0.001)">
        <g id="Grupo_82222" data-name="Grupo 82222" clip-path="url(#clip-path-13)">
          <path id="Trazado_114155" data-name="Trazado 114155" d="M61.26,47.6c3.054-2.439,6.353-4.494,9.593-6.747,3.461-1.788,6.9-3.681,10.464-5.331a92.4,92.4,0,0,1,22.634-6.852,76.413,76.413,0,0,1,23.8-.232c7.827,1.312,15.7,3.658,21.972,8.524a91.714,91.714,0,0,0-22.449-2.718,142.3,142.3,0,0,0-22.112,1.893c-7.363,1.01-14.54,3.054-21.88,4.843Z" transform="translate(650.172 292.996)" fill="#e08172"/>
          <path id="Trazado_114156" data-name="Trazado 114156" d="M33.623,63.789c13.9-4.7,27.477-8.454,40.182-14.18a121.052,121.052,0,0,0,18.372-9.593,64.772,64.772,0,0,0,15.759-13.936c-1.73,7.3-6.712,13.46-12.182,18.523a66.586,66.586,0,0,1-18.918,11.95,92.423,92.423,0,0,1-21.276,6.213l-10.94,1.219c-3.693-.07-7.328.1-11-.2" transform="translate(356.852 276.806)" fill="#e08172"/>
          <path id="Trazado_114157" data-name="Trazado 114157" d="M29.627,55.991c10.464-5.9,20.474-10.94,29.811-17.153a124.336,124.336,0,0,0,25.782-22c-1.1,6-4.39,11.346-8.129,16.119A58.9,58.9,0,0,1,63.6,45.155,66.544,66.544,0,0,1,47.268,52.89a61.676,61.676,0,0,1-17.641,3.1" transform="translate(314.441 178.75)" fill="#e08172"/>
          <path id="Trazado_114158" data-name="Trazado 114158" d="M24.8,39.626c6.074-8.269,14.215-14.308,22.727-19.336,8.664-4.808,17.85-8.791,28.023-10.15-7.676,6.747-15.91,11.788-24.26,16.712-4.262,2.311-8.42,4.75-12.868,6.794A129.623,129.623,0,0,1,24.8,39.626" transform="translate(263.2 107.619)" fill="#e08172"/>
          <path id="Trazado_114159" data-name="Trazado 114159" d="M9.94,73.379c6.109-3.472,12.159-6.329,17.641-10.1a115.407,115.407,0,0,0,15.527-12C52.84,42.557,60.841,32.14,67.949,20.213c-.581,7.026-3.182,13.739-6.562,19.952A62.808,62.808,0,0,1,48.206,56.876c-10.568,9.581-24.33,15.748-38.266,16.5" transform="translate(105.496 214.527)" fill="#e08172"/>
          <path id="Trazado_114160" data-name="Trazado 114160" d="M19.6,90.919c4.3-5.238,8.814-9.825,12.809-14.911,4.03-5.005,8.013-9.976,11.648-15.225,7.56-10.324,14.122-21.194,20.974-32.7A63.479,63.479,0,0,1,60,47.555,83.492,83.492,0,0,1,50.209,65.2C42.335,76.1,31.918,85.507,19.6,90.919" transform="translate(207.979 298.012)" fill="#e08172"/>
          <path id="Trazado_114161" data-name="Trazado 114161" d="M29.627,88.108c1.626-5.005,3.774-9.476,5.656-14.075l5.876-13.495c4.065-8.919,7.862-17.815,12.635-27.047a48.465,48.465,0,0,1-1.01,15.446,69.819,69.819,0,0,1-4.715,14.679C43.8,72.93,37.907,81.71,29.627,88.108" transform="translate(314.441 355.451)" fill="#e08172"/>
          <path id="Trazado_114162" data-name="Trazado 114162" d="M20.9,104.114c-.952-11.729,2.834-23.749,9.43-33.621A57.421,57.421,0,0,1,42.275,57.37a45.283,45.283,0,0,1,15.353-8.605c-7.944,8.582-15.039,16.793-21.02,25.944a142.971,142.971,0,0,0-8.4,14.052c-2.706,4.854-4.669,10.046-7.316,15.353" transform="translate(220.221 517.559)" fill="#e08172"/>
          <path id="Trazado_114163" data-name="Trazado 114163" d="M33.592,109.184c3.24-4.576,6.724-8.5,9.744-12.786C46.39,92.17,49.316,87.955,52,83.588a220.241,220.241,0,0,0,14.61-27.872c.813,5.574-.058,11.172-1.487,16.549a55.419,55.419,0,0,1-6.7,15.318C52.429,97,43.9,105.015,33.592,109.184" transform="translate(356.523 591.332)" fill="#e08172"/>
          <path id="Trazado_114164" data-name="Trazado 114164" d="M26.672,116.219c3.914-4.332,7.746-8.176,11.137-12.449,3.3-4.332,6.713-8.466,9.709-13,6.26-8.873,11.846-18.163,18.3-27.733a56.067,56.067,0,0,1-3.995,16.781,73.048,73.048,0,0,1-8.106,15.283c-6.654,9.372-15.841,17.757-27.047,21.113" transform="translate(283.079 669.085)" fill="#e08172"/>
          <path id="Trazado_114165" data-name="Trazado 114165" d="M17.776,115.937c-.743-11.253,2.636-22.193,7.084-32.169,4.761-9.883,10.673-19.29,19.023-26.8-3.321,10.673-7.769,20.289-12.159,29.974-4.576,9.639-8.919,19.034-13.948,29" transform="translate(187.571 604.588)" fill="#e08172"/>
          <path id="Trazado_114166" data-name="Trazado 114166" d="M46.422,126.392l20.916-10.684c6.794-3.728,13.692-7.165,20.393-11.009,13.6-7.363,26.885-15.19,40.983-22.53a114.254,114.254,0,0,1-17.443,16.154,154.073,154.073,0,0,1-19.894,13.007c-13.913,7.525-29.068,13.413-44.955,15.062" transform="translate(492.692 872.076)" fill="#e08172"/>
          <path id="Trazado_114167" data-name="Trazado 114167" d="M187.341,69.587c-5.33,12.148-14.087,22.658-23.645,31.855a195.939,195.939,0,0,1-31.635,24.225A243.419,243.419,0,0,1,59,155.874c23.761-11.439,47.08-22.855,69.053-36.628,21.868-13.785,43.19-28.789,59.286-49.659" transform="translate(626.208 738.55)" fill="#e08172"/>
        </g>
      </g>
    </g>
  </g>
</svg>
