<svg id="Grupo_896441" data-name="Grupo 896441" xmlns="http://www.w3.org/2000/svg" xmlns:xlink="http://www.w3.org/1999/xlink" width="18.043" height="24" viewBox="0 0 18.043 24">
  <defs>
    <clipPath id="clip-path">
      <rect id="Rectángulo_344336" data-name="Rectángulo 344336" width="18.043" height="24" fill="#ed9aa9"/>
    </clipPath>
  </defs>
  <g id="Grupo_896441-2" data-name="Grupo 896441" clip-path="url(#clip-path)">
    <path id="Trazado_694308" data-name="Trazado 694308" d="M10.553,103.778a3.1,3.1,0,0,0,3.132-.09,3.069,3.069,0,0,0,4.358,1.582c-.043.547-.043,1.051-.128,1.541a7.386,7.386,0,0,1-5.987,6.182,6.819,6.819,0,0,1-1.3.145c-1.2.009-2.4.019-3.594-.04a7.076,7.076,0,0,1-4.54-1.989,7.073,7.073,0,0,1-2.21-3.232,8.577,8.577,0,0,1-.2-3.441,2.93,2.93,0,0,1,2.969-2.524c1.365-.027,2.731-.019,4.1,0a1.872,1.872,0,0,1,1.819,1.44,1.835,1.835,0,0,1-.979,2.07,2.424,2.424,0,0,1-.962.211c-.812.029-1.626,0-2.439.013a.762.762,0,0,0-.724,1.155.682.682,0,0,0,.624.351c1.041,0,2.088.04,3.123-.053a3.237,3.237,0,0,0,2.9-3c.008-.092.023-.183.04-.319" transform="translate(0 -89.144)" fill="#ed9aa9"/>
    <path id="Trazado_694309" data-name="Trazado 694309" d="M15.153,11.224H12.2V10.81q0-4.672,0-9.343A1.44,1.44,0,0,1,13.66,0a1.421,1.421,0,0,1,1.509,1.382q.01,4.828,0,9.656c0,.052-.008.1-.016.187" transform="translate(-10.669 0)" fill="#ed9aa9"/>
    <path id="Trazado_694310" data-name="Trazado 694310" d="M87.171,63c0,.51,0,1.02,0,1.53A1.429,1.429,0,0,1,85.7,65.98a1.445,1.445,0,0,1-1.5-1.46q0-1.53,0-3.06a1.445,1.445,0,0,1,1.5-1.466,1.43,1.43,0,0,1,1.48,1.444c0,.521,0,1.041,0,1.562" transform="translate(-73.658 -52.487)" fill="#ed9aa9"/>
    <path id="Trazado_694311" data-name="Trazado 694311" d="M123.173,74.989c0,.51,0,1.02,0,1.53A1.488,1.488,0,0,1,120.2,76.5q0-1.515,0-3.029a1.488,1.488,0,0,1,2.977-.016c0,.51,0,1.02,0,1.53" transform="translate(-105.156 -62.988)" fill="#ed9aa9"/>
    <path id="Trazado_694312" data-name="Trazado 694312" d="M51.173,50.613c0,.385,0,.77,0,1.155a1.489,1.489,0,0,1-2.977-.012q0-1.14,0-2.279a1.488,1.488,0,0,1,2.977-.019c0,.385,0,.77,0,1.155" transform="translate(-42.165 -41.992)" fill="#ed9aa9"/>
  </g>
</svg>
