<svg xmlns="http://www.w3.org/2000/svg" xmlns:xlink="http://www.w3.org/1999/xlink" width="240" height="197.199" viewBox="0 0 240 197.199">
  <defs>
    <clipPath id="clip-path">
      <rect id="Rectángulo_344540" data-name="Rectángulo 344540" width="240" height="181" transform="translate(1157 1900)" fill="#ffa031" opacity="0.38"/>
    </clipPath>
    <clipPath id="clip-path-2">
      <rect id="Rectángulo_344536" data-name="Rectángulo 344536" width="234" height="194.084" fill="none"/>
    </clipPath>
    <clipPath id="clip-path-3">
      <path id="Trazado_697130" data-name="Trazado 697130" d="M163.091,44.181S142.709,51.4,97.276,90.888c-14.751,9.279-32.17,2.762-47.7-3.754-12.183-5.113-23.2-10.227-30.855-7.71C1.31,83.04.041,112.968.041,112.968S0,113.72,0,115.091v.291c.03,15.932,4.95,105.106,111.713,97.369C237.4,201.711,229.754,102.777,229.754,102.777S232.3,49.7,192.813,40.36a38.554,38.554,0,0,0-9.124-1.07,47.366,47.366,0,0,0-20.6,4.891" transform="translate(0 -39.29)" fill="none"/>
    </clipPath>
    <clipPath id="clip-path-5">
      <rect id="Rectángulo_344538" data-name="Rectángulo 344538" width="169.998" height="141" fill="#ffaeb6"/>
    </clipPath>
    <clipPath id="clip-path-6">
      <path id="Trazado_697133" data-name="Trazado 697133" d="M118.484,42.844S103.677,48.088,70.67,76.776C59.953,83.517,47.3,78.783,36.018,74.048c-8.851-3.715-16.857-7.43-22.416-5.6C.952,71.074.03,92.816.03,92.816S0,93.362,0,94.358v.211c.022,11.575,3.6,76.358,81.158,70.738,91.308-8.02,85.756-79.895,85.756-79.895s1.851-38.559-26.837-45.346a28.009,28.009,0,0,0-6.628-.777,34.411,34.411,0,0,0-14.964,3.554" transform="translate(0 -39.29)" fill="#ffaeb6"/>
    </clipPath>
    <clipPath id="clip-path-8">
      <rect id="Rectángulo_344600" data-name="Rectángulo 344600" width="195.956" height="197.199" fill="none"/>
    </clipPath>
    <clipPath id="clip-path-12">
      <rect id="Rectángulo_344563" data-name="Rectángulo 344563" width="65.882" height="100.763" fill="none"/>
    </clipPath>
    <clipPath id="clip-path-13">
      <rect id="Rectángulo_344565" data-name="Rectángulo 344565" width="13.022" height="4.168" fill="none"/>
    </clipPath>
    <clipPath id="clip-path-14">
      <rect id="Rectángulo_344567" data-name="Rectángulo 344567" width="6.152" height="3.869" fill="none"/>
    </clipPath>
    <clipPath id="clip-path-15">
      <rect id="Rectángulo_344569" data-name="Rectángulo 344569" width="45.878" height="18.07" fill="none"/>
    </clipPath>
    <clipPath id="clip-path-16">
      <rect id="Rectángulo_344571" data-name="Rectángulo 344571" width="33.567" height="8.23" fill="none"/>
    </clipPath>
    <clipPath id="clip-path-17">
      <rect id="Rectángulo_344573" data-name="Rectángulo 344573" width="4.753" height="3.116" fill="none"/>
    </clipPath>
    <clipPath id="clip-path-19">
      <rect id="Rectángulo_344577" data-name="Rectángulo 344577" width="4.41" height="3.101" fill="none"/>
    </clipPath>
    <clipPath id="clip-path-20">
      <rect id="Rectángulo_344579" data-name="Rectángulo 344579" width="6.804" height="50.33" fill="none"/>
    </clipPath>
    <clipPath id="clip-path-22">
      <rect id="Rectángulo_344581" data-name="Rectángulo 344581" width="19.991" height="24.383" fill="none"/>
    </clipPath>
    <clipPath id="clip-path-23">
      <rect id="Rectángulo_344582" data-name="Rectángulo 344582" width="18.154" height="23.177" fill="none"/>
    </clipPath>
    <clipPath id="clip-path-25">
      <rect id="Rectángulo_344584" data-name="Rectángulo 344584" width="5.221" height="2.248" fill="none"/>
    </clipPath>
    <clipPath id="clip-path-26">
      <rect id="Rectángulo_344586" data-name="Rectángulo 344586" width="5.942" height="4.196" fill="none"/>
    </clipPath>
    <clipPath id="clip-path-27">
      <rect id="Rectángulo_344587" data-name="Rectángulo 344587" width="6.039" height="2.193" fill="none"/>
    </clipPath>
    <clipPath id="clip-path-28">
      <rect id="Rectángulo_344588" data-name="Rectángulo 344588" width="2.126" height="4.26" fill="none"/>
    </clipPath>
    <clipPath id="clip-path-30">
      <rect id="Rectángulo_344590" data-name="Rectángulo 344590" width="22.704" height="15.335" fill="none"/>
    </clipPath>
    <clipPath id="clip-path-31">
      <rect id="Rectángulo_344591" data-name="Rectángulo 344591" width="30.011" height="34.27" fill="none"/>
    </clipPath>
    <clipPath id="clip-path-32">
      <rect id="Rectángulo_344592" data-name="Rectángulo 344592" width="38.117" height="35.689" fill="none"/>
    </clipPath>
    <clipPath id="clip-path-33">
      <rect id="Rectángulo_344593" data-name="Rectángulo 344593" width="12.467" height="17.599" fill="none"/>
    </clipPath>
    <clipPath id="clip-path-34">
      <rect id="Rectángulo_344594" data-name="Rectángulo 344594" width="6.247" height="2.89" fill="none"/>
    </clipPath>
    <clipPath id="clip-path-35">
      <rect id="Rectángulo_344595" data-name="Rectángulo 344595" width="6.736" height="4.125" fill="none"/>
    </clipPath>
    <clipPath id="clip-path-36">
      <rect id="Rectángulo_344596" data-name="Rectángulo 344596" width="19.102" height="11.985" fill="none"/>
    </clipPath>
    <clipPath id="clip-path-37">
      <rect id="Rectángulo_344597" data-name="Rectángulo 344597" width="5.001" height="6.936" fill="none"/>
    </clipPath>
    <clipPath id="clip-path-38">
      <rect id="Rectángulo_344598" data-name="Rectángulo 344598" width="6.114" height="6.408" fill="none"/>
    </clipPath>
  </defs>
  <g id="Grupo_952268" data-name="Grupo 952268" transform="translate(-1157 -2599.801)">
    <g id="Enmascarar_grupo_106" data-name="Enmascarar grupo 106" transform="translate(0 716)" clip-path="url(#clip-path)">
      <g id="Grupo_952013" data-name="Grupo 952013" transform="matrix(0.883, 0.469, -0.469, 0.883, 1333.974, -841.734)">
        <g id="Grupo_952008" data-name="Grupo 952008" transform="translate(1156 2427)">
          <g id="Grupo_952007" data-name="Grupo 952007" clip-path="url(#clip-path-2)">
            <path id="Trazado_697129" data-name="Trazado 697129" d="M18.723,79.424c15.71-3.4,52.227,28.024,78.552,11.464C142.709,51.4,163.09,44.181,163.09,44.181s14.012-7.643,29.723-3.821c39.489,9.341,36.941,62.417,36.941,62.417s7.643,98.934-118.041,109.973C-5.479,221.243.041,112.968.041,112.968S2.588,83.245,18.723,79.424" transform="translate(0 -22.607)" fill="#ffdae3"/>
          </g>
        </g>
        <g id="Grupo_952012" data-name="Grupo 952012" transform="translate(1156 2427)">
          <g id="Grupo_952011" data-name="Grupo 952011" clip-path="url(#clip-path-2)">
            <path id="Trazado_697131" data-name="Trazado 697131" d="M18.723,79.424c15.71-3.4,52.227,28.024,78.552,11.464C142.709,51.4,163.09,44.181,163.09,44.181s14.012-7.643,29.723-3.821c39.489,9.341,36.941,62.417,36.941,62.417s7.643,98.934-118.041,109.973C-5.479,221.243.041,112.968.041,112.968S2.588,83.245,18.723,79.424" transform="translate(0 -22.607)" fill="#ffdae3"/>
          </g>
        </g>
      </g>
      <g id="Grupo_952020" data-name="Grupo 952020" transform="matrix(0.616, -0.788, 0.788, 0.616, -1439.092, 1435.922)">
        <g id="Grupo_952015" data-name="Grupo 952015" transform="translate(1156 2427)">
          <g id="Grupo_952014" data-name="Grupo 952014" clip-path="url(#clip-path-5)">
            <path id="Trazado_697132" data-name="Trazado 697132" d="M13.6,68.447c11.414-2.468,37.942,20.359,57.068,8.329,33.007-28.688,47.813-33.932,47.813-33.932s10.18-5.553,21.593-2.776c28.688,6.786,26.837,45.346,26.837,45.346s5.553,71.874-85.756,79.895C-3.981,171.477.029,92.816.029,92.816S1.88,71.223,13.6,68.447" transform="translate(0 -27.17)" fill="#ffaeb6"/>
          </g>
        </g>
        <g id="Grupo_952019" data-name="Grupo 952019" transform="translate(1156 2427)">
          <g id="Grupo_952018" data-name="Grupo 952018" clip-path="url(#clip-path-5)">
            <path id="Trazado_697134" data-name="Trazado 697134" d="M13.6,68.447c11.414-2.468,37.942,20.359,57.068,8.329,33.007-28.688,47.813-33.932,47.813-33.932s10.18-5.553,21.593-2.776c28.688,6.786,26.837,45.346,26.837,45.346s5.553,71.874-85.756,79.895C-3.981,171.477.029,92.816.029,92.816S1.88,71.223,13.6,68.447" transform="translate(0 -27.17)" fill="#ffaeb6"/>
          </g>
        </g>
      </g>
    </g>
    <g id="Grupo_952049" data-name="Grupo 952049" transform="translate(1176.044 2599.801)">
      <g id="Grupo_952132" data-name="Grupo 952132" clip-path="url(#clip-path-8)">
        <path id="Trazado_697267" data-name="Trazado 697267" d="M177.842,411.485v17.2h52.893v-17.2Z" transform="translate(-100.287 -232.041)" fill="#f5f5f5"/>
        <path id="Trazado_697268" data-name="Trazado 697268" d="M172.753,400.458v4.808h56.962v-4.808H172.753Z" transform="translate(-97.417 -225.823)" fill="#e0e0e0"/>
        <path id="Trazado_697269" data-name="Trazado 697269" d="M236.627,422.466h26.632v-17.2h1.849v-4.808H235.518v4.363Z" transform="translate(-132.811 -225.823)" fill="#e0e0e0"/>
        <rect id="Rectángulo_344553" data-name="Rectángulo 344553" width="10.726" height="2.589" transform="translate(84.953 182.218)" fill="#e0e0e0"/>
        <rect id="Rectángulo_344554" data-name="Rectángulo 344554" width="13.773" height="5.467" transform="translate(83.572 188.043)" fill="#fff"/>
        <path id="Trazado_697270" data-name="Trazado 697270" d="M186.881,361.071v17.2h52.893v-17.2Z" transform="translate(-105.384 -203.612)" fill="#f5f5f5"/>
        <path id="Trazado_697271" data-name="Trazado 697271" d="M182.375,350.044v4.809h56.962v-4.809H182.375Z" transform="translate(-102.843 -197.394)" fill="#ebebeb"/>
        <path id="Trazado_697272" data-name="Trazado 697272" d="M245.666,372.052h26.886v-17.2h1.595v-4.808h-29.59v4.363Z" transform="translate(-137.908 -197.394)" fill="#ebebeb"/>
        <rect id="Rectángulo_344555" data-name="Rectángulo 344555" width="10.726" height="2.589" transform="translate(88.894 160.233)" fill="#e0e0e0"/>
        <rect id="Rectángulo_344556" data-name="Rectángulo 344556" width="13.773" height="5.467" transform="translate(87.514 166.058)" fill="#fff"/>
        <rect id="Rectángulo_344557" data-name="Rectángulo 344557" width="64.344" height="93.263" transform="translate(125.397 0.001)" fill="#e0e0e0"/>
        <rect id="Rectángulo_344558" data-name="Rectángulo 344558" width="64.344" height="93.263" transform="translate(122.173 0.001)" fill="#f5f5f5"/>
        <rect id="Rectángulo_344559" data-name="Rectángulo 344559" width="48.355" height="73.061" transform="translate(130.167 10.102)" fill="#fff"/>
        <g id="Grupo_952049-2" data-name="Grupo 952049">
          <g id="Grupo_952048" data-name="Grupo 952048" clip-path="url(#clip-path-8)">
            <path id="Trazado_697273" data-name="Trazado 697273" d="M346.617,96s-.006-.124-.01-.357-.005-.586-.009-1.036c0-.918-.011-2.262-.02-4.007-.01-3.5-.025-8.6-.043-15.05-.019-12.883-.047-31.127-.079-52.611l.161.16-48.35.015h-.006l.175-.175C298.424,50.5,298.411,75.913,298.4,96l-.14-.14,35.2.073,9.724.036,2.552.015c.578.005.883.015.883.015s-.285.01-.853.015l-2.527.016-9.693.036-35.283.073h-.14V96c-.01-20.088-.022-45.5-.035-73.061v-.175h.181l48.35.014h.161v.16c-.032,21.527-.06,39.807-.079,52.716-.018,6.431-.033,11.521-.043,15.014-.008,1.731-.015,3.064-.02,3.975,0,.443-.007.781-.009,1.018s-.01.338-.01.338" transform="translate(-168.095 -12.837)" fill="#e0e0e0"/>
            <path id="Trazado_697274" data-name="Trazado 697274" d="M416.785,0a11.16,11.16,0,0,1-1.147,1.666c-.747,1-1.808,2.359-3.019,3.829s-2.342,2.772-3.18,3.7a11.118,11.118,0,0,1-1.416,1.445,12.043,12.043,0,0,1,1.228-1.606l3.1-3.758,3.095-3.76A12.036,12.036,0,0,1,416.785,0" transform="translate(-230.088 0)" fill="#e0e0e0"/>
            <path id="Trazado_697275" data-name="Trazado 697275" d="M409.937,190.163a59.878,59.878,0,0,0,8.434,10.548" transform="translate(-231.168 -107.235)" fill="#fff"/>
            <path id="Trazado_697276" data-name="Trazado 697276" d="M418.367,200.71a9.6,9.6,0,0,1-1.47-1.337,47.143,47.143,0,0,1-5.982-7.482,9.615,9.615,0,0,1-.981-1.728,13.291,13.291,0,0,1,1.186,1.59c.71,1,1.706,2.358,2.869,3.814s2.273,2.726,3.088,3.637a13.3,13.3,0,0,1,1.29,1.507" transform="translate(-231.164 -107.234)" fill="#e0e0e0"/>
            <path id="Trazado_697277" data-name="Trazado 697277" d="M280.135,200.25l8.428-10.4" transform="translate(-157.971 -107.059)" fill="#fff"/>
            <path id="Trazado_697278" data-name="Trazado 697278" d="M288.56,189.85a64.143,64.143,0,0,1-4.078,5.309,64.307,64.307,0,0,1-4.35,5.089,63.99,63.99,0,0,1,4.078-5.31,64.28,64.28,0,0,1,4.35-5.089" transform="translate(-157.968 -107.058)" fill="#e0e0e0"/>
            <path id="Trazado_697279" data-name="Trazado 697279" d="M280.153,0a58.122,58.122,0,0,1,4.091,4.89A58.221,58.221,0,0,1,288.06,10a58.079,58.079,0,0,1-4.091-4.891A58.194,58.194,0,0,1,280.153,0" transform="translate(-157.98 0)" fill="#e0e0e0"/>
            <rect id="Rectángulo_344560" data-name="Rectángulo 344560" width="16.191" height="45.972" transform="translate(147.266 24.936)" fill="#e0e0e0"/>
          </g>
        </g>
        <g id="Grupo_952051" data-name="Grupo 952051">
          <g id="Grupo_952050" data-name="Grupo 952050" clip-path="url(#clip-path-8)">
            <path id="Trazado_697280" data-name="Trazado 697280" d="M201.97,451.122c0,.063-42.828.113-95.647.113-52.838,0-95.657-.051-95.657-.113s42.819-.113,95.657-.113c52.819,0,95.647.051,95.647.113" transform="translate(-6.015 -254.329)" fill="#263238"/>
          </g>
        </g>
        <g id="Grupo_952080" data-name="Grupo 952080">
          <g id="Grupo_952079" data-name="Grupo 952079" clip-path="url(#clip-path-8)">
            <path id="Trazado_697281" data-name="Trazado 697281" d="M25.773,253.1s7.424,6.243,8.641,6.151a12.455,12.455,0,0,1,2.5.112l-7.977-7.366Z" transform="translate(-14.534 -142.102)" fill="#ad7012"/>
            <path id="Trazado_697282" data-name="Trazado 697282" d="M120.429,131.354l-75.5-3.279a1.759,1.759,0,0,1-1.672-1.822c1.275-41.588,3.339-90.942,4.53-105.529A1.759,1.759,0,0,1,49.607,19.1l75.554,3.281a1.762,1.762,0,0,1,1.671,1.848l-4.578,105.43a1.762,1.762,0,0,1-1.825,1.7" transform="translate(-24.393 -10.769)" fill="#f9a21b"/>
            <path id="Trazado_697283" data-name="Trazado 697283" d="M112.775,123.619,37.363,120.9l-5.942-4.551L35,8.331l78.114,5.328,3.86,4.326Z" transform="translate(-17.719 -4.698)" fill="#fff"/>
            <path id="Trazado_697284" data-name="Trazado 697284" d="M208.9,129.072l-7.019-6.279L207.967,18l5.129,5.437Z" transform="translate(-113.842 -10.151)" fill="#e0e0e0"/>
            <path id="Trazado_697285" data-name="Trazado 697285" d="M102.977,118.3l-76.525-3.323a1.772,1.772,0,0,1-1.7-1.823c1.268-41.589,3.33-90.942,4.529-105.529A1.772,1.772,0,0,1,31.129,6L107.71,9.326a1.774,1.774,0,0,1,1.7,1.849l-4.579,105.43a1.774,1.774,0,0,1-1.849,1.7" transform="translate(-13.96 -3.383)" fill="#f9a21b"/>
            <path id="Trazado_697286" data-name="Trazado 697286" d="M39.814,116.771c-.063,0,.936-24.176,2.231-53.985S44.441,8.8,44.5,8.806s-.936,24.171-2.231,53.99-2.4,53.978-2.458,53.975" transform="translate(-22.45 -4.966)" fill="#263238"/>
            <g id="Grupo_952054" data-name="Grupo 952054" transform="translate(22.537 8.241)" opacity="0.3">
              <g id="Grupo_952053" data-name="Grupo 952053">
                <g id="Grupo_952052" data-name="Grupo 952052" clip-path="url(#clip-path-12)">
                  <path id="Trazado_697287" data-name="Trazado 697287" d="M113.3,119.66l-61.622-2.677L55.939,18.9l61.622,2.677Zm-59.8-4.343,58.136,2.525,4.108-94.6L57.606,20.714Z" transform="translate(-51.679 -18.896)"/>
                </g>
              </g>
            </g>
            <g id="Grupo_952057" data-name="Grupo 952057" transform="translate(46.45 98.506)" opacity="0.3">
              <g id="Grupo_952056" data-name="Grupo 952056">
                <g id="Grupo_952055" data-name="Grupo 952055" clip-path="url(#clip-path-13)">
                  <rect id="Rectángulo_344564" data-name="Rectángulo 344564" width="3.612" height="12.877" transform="translate(0 3.609) rotate(-87.514)"/>
                </g>
              </g>
            </g>
            <g id="Grupo_952060" data-name="Grupo 952060" transform="translate(55.048 15.096)" opacity="0.3">
              <g id="Grupo_952059" data-name="Grupo 952059">
                <g id="Grupo_952058" data-name="Grupo 952058" clip-path="url(#clip-path-14)">
                  <rect id="Rectángulo_344566" data-name="Rectángulo 344566" width="3.612" height="6.001" transform="translate(0 3.609) rotate(-87.513)"/>
                </g>
              </g>
            </g>
            <g id="Grupo_952063" data-name="Grupo 952063" transform="translate(33.524 30.599)" opacity="0.3">
              <g id="Grupo_952062" data-name="Grupo 952062">
                <g id="Grupo_952061" data-name="Grupo 952061" clip-path="url(#clip-path-15)">
                  <rect id="Rectángulo_344568" data-name="Rectángulo 344568" width="16.123" height="45.221" transform="matrix(0.043, -0.999, 0.999, 0.043, 0, 16.108)"/>
                </g>
              </g>
            </g>
            <g id="Grupo_952066" data-name="Grupo 952066" transform="translate(38.138 51.332)" opacity="0.3">
              <g id="Grupo_952065" data-name="Grupo 952065">
                <g id="Grupo_952064" data-name="Grupo 952064" clip-path="url(#clip-path-16)">
                  <rect id="Rectángulo_344570" data-name="Rectángulo 344570" width="6.792" height="33.304" transform="translate(0 6.785) rotate(-87.513)"/>
                </g>
              </g>
            </g>
            <g id="Grupo_952069" data-name="Grupo 952069" transform="translate(14.223 17.757)" opacity="0.3">
              <g id="Grupo_952068" data-name="Grupo 952068">
                <g id="Grupo_952067" data-name="Grupo 952067" clip-path="url(#clip-path-17)">
                  <rect id="Rectángulo_344572" data-name="Rectángulo 344572" width="2.918" height="4.631" transform="translate(0 2.915) rotate(-87.512)"/>
                </g>
              </g>
            </g>
            <g id="Grupo_952072" data-name="Grupo 952072" transform="translate(14.028 22.259)" opacity="0.3">
              <g id="Grupo_952071" data-name="Grupo 952071">
                <g id="Grupo_952070" data-name="Grupo 952070" clip-path="url(#clip-path-17)">
                  <rect id="Rectángulo_344574" data-name="Rectángulo 344574" width="2.918" height="4.631" transform="translate(0 2.915) rotate(-87.512)"/>
                </g>
              </g>
            </g>
            <g id="Grupo_952075" data-name="Grupo 952075" transform="translate(10.987 100.188)" opacity="0.3">
              <g id="Grupo_952074" data-name="Grupo 952074">
                <g id="Grupo_952073" data-name="Grupo 952073" clip-path="url(#clip-path-19)">
                  <rect id="Rectángulo_344576" data-name="Rectángulo 344576" width="2.918" height="4.287" transform="translate(0 2.915) rotate(-87.511)"/>
                </g>
              </g>
            </g>
            <g id="Grupo_952078" data-name="Grupo 952078" transform="translate(11.501 33.229)" opacity="0.3">
              <g id="Grupo_952077" data-name="Grupo 952077">
                <g id="Grupo_952076" data-name="Grupo 952076" clip-path="url(#clip-path-20)">
                  <rect id="Rectángulo_344578" data-name="Rectángulo 344578" width="50.177" height="4.631" transform="translate(0 50.129) rotate(-87.512)"/>
                </g>
              </g>
            </g>
            <path id="Trazado_697288" data-name="Trazado 697288" d="M119.068,26.283s0,.16-.009.47-.027.777-.049,1.379c-.048,1.217-.118,3-.209,5.3-.191,4.609-.468,11.269-.811,19.5-.706,16.466-1.682,39.206-2.76,64.321-.225,5.158-.445,10.215-.655,15.056l0,.112-.112,0L60.33,130.026,44.343,129.3l-4.3-.207-1.114-.058c-.25-.014-.378-.027-.378-.027s.128,0,.379.006l1.115.038,4.305.167,15.991.661,54.131,2.313-.116.107c.21-4.841.429-9.9.652-15.056,1.1-25.114,2.1-47.852,2.827-64.318.372-8.227.674-14.886.883-19.494.109-2.3.194-4.083.252-5.3.031-.6.055-1.063.071-1.378s.032-.469.032-.469" transform="translate(-21.737 -14.821)" fill="#263238"/>
          </g>
        </g>
        <g id="Grupo_952088" data-name="Grupo 952088">
          <g id="Grupo_952087" data-name="Grupo 952087" clip-path="url(#clip-path-8)">
            <path id="Trazado_697289" data-name="Trazado 697289" d="M8.727,151.228c.235.182,38.5-13.483,38.5-13.483l-1.176-3.517L8.486,144.271l-2.055,3.207Z" transform="translate(-3.627 -75.693)" fill="#263238"/>
            <path id="Trazado_697290" data-name="Trazado 697290" d="M26.369,168.733c-.334.112-1.559.087-1.3-1.477s12.071-20.458,13.411-22.21a17.922,17.922,0,0,1,5.766-4.882c2.709-1.514,10.887-4.857,10.887-4.857l1.124,3.361s-8.1,2.275-11.8,4.728-4.712,4.356-7.938,10.04-5.043,12.46-6.657,14.13a3.766,3.766,0,0,1-3.5,1.169" transform="translate(-14.117 -76.301)" fill="#263238"/>
            <path id="Trazado_697291" data-name="Trazado 697291" d="M40.835,132.366a79.377,79.377,0,0,0-13.2.385c-5.232.695-14.757,3.661-23.424,9.073L.362,144.38a.726.726,0,0,0-.324.859l1.719,5.14a.734.734,0,0,0,.556.484A3.89,3.89,0,0,1,4.924,152.9c1.164,2.091,5.587,9.291,9.586,10.589s11.713-.662,15.2-1.827,10.873-4.1,12.635-8.565,1.943-9.949,1.94-12.738.6-3.92,2.668-4.612l-1.305-3.9a31.5,31.5,0,0,1-4.81.524m.582,6.881c1.519,6.9.69,10.612-.381,12.88-1.382,2.925-3.352,5.369-11.55,8.082-8.47,2.8-13.553,2.094-15.466,1.139s-5.377-6.266-7.294-11.157.048-6.664,2.467-8.608c1.75-1.406,6.192-3.2,8.013-3.907.5-.193,1.007-.349,1.514-.521a69.319,69.319,0,0,1,9.618-2.537c2.347-.33,11.562-2.272,13.081,4.627" transform="translate(0 -74.347)" fill="#263238"/>
            <path id="Trazado_697292" data-name="Trazado 697292" d="M48.982,142.1s-.031-.085-.079-.254a5.933,5.933,0,0,0-.243-.737,5.683,5.683,0,0,0-1.717-2.391,8.163,8.163,0,0,0-4.362-1.6,23.443,23.443,0,0,0-6.231.364,54.136,54.136,0,0,0-7.382,1.775c-1.311.386-2.652.834-4.023,1.314-1.36.515-2.744,1.094-4.141,1.73-.7.321-1.4.658-2.088,1.029a12.525,12.525,0,0,0-1.994,1.272,14.555,14.555,0,0,0-1.783,1.634,4.875,4.875,0,0,0-1.156,2.114,5.876,5.876,0,0,0-.025,2.464,12.273,12.273,0,0,0,.741,2.435,39.613,39.613,0,0,0,2.283,4.715,30.6,30.6,0,0,0,2.913,4.346,7.786,7.786,0,0,0,1.836,1.725,7.56,7.56,0,0,0,2.375.714,19.78,19.78,0,0,0,4.887.059,33.458,33.458,0,0,0,4.635-.817c1.491-.361,2.926-.794,4.3-1.27a39.618,39.618,0,0,0,3.934-1.551,19.667,19.667,0,0,0,3.412-1.955,10.2,10.2,0,0,0,2.514-2.581,12.992,12.992,0,0,0,1.451-2.952,13.5,13.5,0,0,0,.61-2.876,22.488,22.488,0,0,0-.044-4.72c-.136-1.292-.312-2.288-.435-2.961l-.146-.765c-.031-.173-.042-.263-.042-.263s.026.086.065.258l.168.761c.137.671.328,1.665.478,2.96a22.166,22.166,0,0,1,.083,4.742,13.555,13.555,0,0,1-.6,2.908,11.109,11.109,0,0,1-.614,1.5,12.51,12.51,0,0,1-.84,1.491,10.343,10.343,0,0,1-2.543,2.633,19.823,19.823,0,0,1-3.438,1.986,39.646,39.646,0,0,1-3.948,1.569c-1.378.481-2.818.919-4.316,1.285a33.538,33.538,0,0,1-4.663.829,19.942,19.942,0,0,1-4.944-.055,7.736,7.736,0,0,1-2.45-.737,7.952,7.952,0,0,1-1.9-1.777,30.744,30.744,0,0,1-2.937-4.378,39.706,39.706,0,0,1-2.295-4.742,12.472,12.472,0,0,1-.753-2.48,6.1,6.1,0,0,1,.031-2.558,4.992,4.992,0,0,1,.467-1.186,6.464,6.464,0,0,1,.739-1.019,14.7,14.7,0,0,1,1.812-1.657,12.658,12.658,0,0,1,2.03-1.291c.7-.373,1.4-.711,2.1-1.032q2.106-.953,4.157-1.726c1.381-.48,2.726-.925,4.04-1.308a53.818,53.818,0,0,1,7.411-1.754,23.409,23.409,0,0,1,6.27-.332A8.213,8.213,0,0,1,47,138.65a5.641,5.641,0,0,1,1.7,2.443,5.232,5.232,0,0,1,.223.748c.041.171.057.259.057.259" transform="translate(-7.565 -77.201)" fill="#fff"/>
            <g id="Grupo_952083" data-name="Grupo 952083" transform="translate(7.134 61.601)" opacity="0.3">
              <g id="Grupo_952082" data-name="Grupo 952082">
                <g id="Grupo_952081" data-name="Grupo 952081" clip-path="url(#clip-path-22)">
                  <path id="Trazado_697293" data-name="Trazado 697293" d="M26.2,143.66c-.519.2-9.772,3.793-9.834,7.356s3.355,10.283,5.288,12.564,7.727,2.35,10.612,1.72,4.09-24.033,4.09-24.033-3.152-.3-10.156,2.393" transform="translate(-16.36 -141.258)" fill="#fff"/>
                </g>
              </g>
            </g>
            <path id="Trazado_697294" data-name="Trazado 697294" d="M66.965,138.6a4.589,4.589,0,0,1-.662.33l-1.831.831a60.794,60.794,0,0,0-5.9,3,18.97,18.97,0,0,0-2.927,2.14,15.5,15.5,0,0,0-1.98,2.2c-.5.685-.876,1.257-1.137,1.654a4.713,4.713,0,0,1-.423.606,4.547,4.547,0,0,1,.348-.652c.238-.412.6-1,1.082-1.7a14.64,14.64,0,0,1,1.968-2.259,18.225,18.225,0,0,1,2.951-2.18,50.426,50.426,0,0,1,5.954-2.95c.779-.34,1.42-.59,1.861-.766a4.58,4.58,0,0,1,.7-.249" transform="translate(-29.382 -78.157)" fill="#455a64"/>
            <path id="Trazado_697295" data-name="Trazado 697295" d="M80.172,143.107a10.407,10.407,0,0,1-1.325.628c-.827.367-1.968.875-3.217,1.459s-2.372,1.133-3.185,1.531a10.306,10.306,0,0,1-1.332.613,8.61,8.61,0,0,1,1.259-.755c.795-.435,1.909-1.008,3.163-1.594s2.407-1.071,3.251-1.4a8.61,8.61,0,0,1,1.387-.48" transform="translate(-40.101 -80.698)" fill="#455a64"/>
            <path id="Trazado_697296" data-name="Trazado 697296" d="M149.108,102.57c-.078.287-38.866,12.388-38.866,12.388l-1.176-3.516,36.049-14.575,3.571,1.326Z" transform="translate(-61.504 -54.624)" fill="#263238"/>
            <path id="Trazado_697297" data-name="Trazado 697297" d="M155.379,134.889c.334-.112,1.3-.868.15-1.962s-21.95-9.082-24.074-9.674a17.92,17.92,0,0,0-7.543-.432c-3.074.42-11.619,2.669-11.619,2.669l1.124,3.36s7.84-3.056,12.27-3.321,6.385.645,12.38,3.245,11.524,6.92,13.817,7.283a3.765,3.765,0,0,0,3.5-1.169" transform="translate(-63.323 -69.144)" fill="#263238"/>
            <path id="Trazado_697298" data-name="Trazado 697298" d="M101.731,110.545l1.305,3.9c2.068-.692,3.23-.15,4.905,2.08s5.12,6.5,9.212,9.009,11.76.407,15.246-.759,10.826-4.24,13.24-7.682,1.615-11.855,1.288-14.225a3.889,3.889,0,0,1,.861-3.2.735.735,0,0,0,.153-.72l-1.719-5.14a.726.726,0,0,0-.776-.491l-4.612.273c-10.179.89-19.573,4.251-24.17,6.842a79.4,79.4,0,0,0-10.777,7.634,31.535,31.535,0,0,1-4.157,2.475m15.5-8.194a69.292,69.292,0,0,1,9.209-3.759c.508-.168,1.008-.349,1.522-.495,1.878-.532,6.507-1.77,8.751-1.7,3.1.1,5.737.332,7.148,5.393s1.839,11.388.884,13.3-4.588,5.537-13.04,8.393c-8.181,2.764-11.225,2-14.089.491-2.221-1.167-5.116-3.634-8.052-10.06s5.593-10.417,7.666-11.566" transform="translate(-57.367 -52.622)" fill="#263238"/>
            <path id="Trazado_697299" data-name="Trazado 697299" d="M126.476,106.225s-.075.05-.228.137l-.681.378c-.6.334-1.483.823-2.556,1.555a13.971,13.971,0,0,0-3.445,3.195,7.109,7.109,0,0,0-.723,1.221,5.673,5.673,0,0,0-.124,4.643,32.846,32.846,0,0,0,1.617,3.258,26.385,26.385,0,0,0,2.165,3.293,15.172,15.172,0,0,0,2.979,2.959,11.808,11.808,0,0,0,1.886,1.126,10.95,10.95,0,0,0,2.109.791,12.2,12.2,0,0,0,4.651.175,30.7,30.7,0,0,0,4.786-1.071,42.628,42.628,0,0,0,9.5-3.992,24.435,24.435,0,0,0,2.186-1.467,15.376,15.376,0,0,0,1.946-1.709,6.8,6.8,0,0,0,1.444-2.057,8.326,8.326,0,0,0,.382-2.457,30.8,30.8,0,0,0-.263-4.9,41.73,41.73,0,0,0-.849-4.633,11.694,11.694,0,0,0-1.658-4.1,4.758,4.758,0,0,0-1.549-1.406,5.826,5.826,0,0,0-1.942-.631,13.971,13.971,0,0,0-3.919-.047c-1.254.168-2.446.423-3.577.684s-2.2.543-3.212.823q-1.5.462-2.81.915c-1.744.607-3.229,1.182-4.434,1.669s-2.128.9-2.746,1.192l-.7.343c-.156.079-.239.115-.239.115s.075-.049.229-.135.384-.208.69-.363c.613-.307,1.532-.729,2.733-1.233s2.683-1.088,4.425-1.708c.872-.308,1.812-.62,2.814-.934,1.009-.286,2.081-.572,3.214-.841s2.328-.528,3.591-.7a14.116,14.116,0,0,1,3.971.034,6.021,6.021,0,0,1,2.007.647,4.957,4.957,0,0,1,1.617,1.459,11.867,11.867,0,0,1,1.7,4.172,41.758,41.758,0,0,1,.86,4.656,30.931,30.931,0,0,1,.27,4.934,8.513,8.513,0,0,1-.394,2.528,6.987,6.987,0,0,1-1.49,2.132,15.6,15.6,0,0,1-1.973,1.735,24.529,24.529,0,0,1-2.207,1.481,42.685,42.685,0,0,1-9.557,4.011,30.851,30.851,0,0,1-4.822,1.073,12.389,12.389,0,0,1-4.73-.188,11.121,11.121,0,0,1-2.147-.809,12.041,12.041,0,0,1-1.914-1.148,15.37,15.37,0,0,1-3.01-3,26.473,26.473,0,0,1-2.169-3.323,32.806,32.806,0,0,1-1.614-3.286,5.809,5.809,0,0,1,.151-4.759,7.216,7.216,0,0,1,.743-1.237,11.251,11.251,0,0,1,1.768-1.884,18.082,18.082,0,0,1,1.73-1.31,28.282,28.282,0,0,1,2.584-1.522l.692-.358c.156-.081.239-.117.239-.117" transform="translate(-66.614 -56.495)" fill="#fff"/>
            <path id="Trazado_697300" data-name="Trazado 697300" d="M120.566,124.433a4.562,4.562,0,0,1,.705-.22c.459-.125,1.121-.311,1.948-.508a50.463,50.463,0,0,1,6.531-1.225,18.221,18.221,0,0,1,3.669-.034,14.639,14.639,0,0,1,2.931.621c.809.27,1.45.522,1.887.708a4.574,4.574,0,0,1,.67.312,4.512,4.512,0,0,1-.7-.229c-.447-.16-1.094-.389-1.9-.637a15.482,15.482,0,0,0-2.9-.566,18.964,18.964,0,0,0-3.625.051,60.819,60.819,0,0,0-6.517,1.155l-1.963.437a4.607,4.607,0,0,1-.727.134" transform="translate(-67.988 -69.005)" fill="#455a64"/>
            <path id="Trazado_697301" data-name="Trazado 697301" d="M118.721,131.451a8.539,8.539,0,0,1,1.4-.451c.873-.244,2.088-.55,3.441-.837s2.588-.5,3.485-.629a8.545,8.545,0,0,1,1.46-.153,10.313,10.313,0,0,1-1.433.312c-.888.171-2.115.407-3.465.693s-2.567.566-3.448.77a10.356,10.356,0,0,1-1.436.3" transform="translate(-66.948 -72.954)" fill="#455a64"/>
            <g id="Grupo_952086" data-name="Grupo 952086" transform="translate(52.611 47.983)" opacity="0.3">
              <g id="Grupo_952085" data-name="Grupo 952085">
                <g id="Grupo_952084" data-name="Grupo 952084" clip-path="url(#clip-path-23)">
                  <path id="Trazado_697302" data-name="Trazado 697302" d="M130.244,111.755c-1.836.536-7.126,3.2-8.72,5.751-.9,1.433-1.352,3.876-.163,5.506s3.888,6.274,7.34,8.473a11.673,11.673,0,0,0,9.563,1.188c1.817-.737-1.481-22.721-2.874-22.643a25.843,25.843,0,0,0-5.146,1.726" transform="translate(-120.643 -110.03)" fill="#fff"/>
                </g>
              </g>
            </g>
          </g>
        </g>
        <g id="Grupo_952102" data-name="Grupo 952102">
          <g id="Grupo_952101" data-name="Grupo 952101" clip-path="url(#clip-path-8)">
            <path id="Trazado_697303" data-name="Trazado 697303" d="M72.211,352.838a3.208,3.208,0,0,1,.224,1.4,4.676,4.676,0,0,1,.635-1.585c.115-.181.3-.375.5-.322s.274.314.282.529a3.437,3.437,0,0,1-.387,1.7,3.8,3.8,0,0,1,1.442-1.117.342.342,0,0,1,.312-.024c.108.068.111.222.093.348a2.918,2.918,0,0,1-1.771,2.252l-.3.044a2.716,2.716,0,0,1-1.948-3.12c.047-.252.191-.546.447-.55.23,0,.386.23.472.444" transform="translate(-40.177 -198.678)" fill="#ff725e"/>
            <path id="Trazado_697304" data-name="Trazado 697304" d="M76.011,370.485a8.785,8.785,0,0,0-2.9-1.169,11.932,11.932,0,0,0,.082-6.41A6.144,6.144,0,0,0,72.11,360.6a3.15,3.15,0,0,0-2.179-1.216,3.06,3.06,0,0,0-2.42,1.121l-1.071,2.476a9.555,9.555,0,0,0-.129,1.088,13.069,13.069,0,0,0,1.563,6.926,7.271,7.271,0,0,0-1.96,5.808H78.628a7.031,7.031,0,0,0-2.617-6.315" transform="translate(-37.133 -202.657)" fill="#455a64"/>
            <path id="Trazado_697305" data-name="Trazado 697305" d="M69.194,384.688c-.005,0,.027-.051.1-.138a3.835,3.835,0,0,1,.315-.365,5.893,5.893,0,0,1,1.409-1.078,6.662,6.662,0,0,1,2.508-.8,6.071,6.071,0,0,1,5.7,2.457,6.644,6.644,0,0,1,1.139,2.373,5.907,5.907,0,0,1,.185,1.764,3.9,3.9,0,0,1-.05.48.549.549,0,0,1-.034.164,7.774,7.774,0,0,0-.232-2.374,6.722,6.722,0,0,0-1.149-2.3,5.987,5.987,0,0,0-5.54-2.388,6.721,6.721,0,0,0-2.461.744,7.745,7.745,0,0,0-1.885,1.461" transform="translate(-39.019 -215.562)" fill="#263238"/>
            <path id="Trazado_697306" data-name="Trazado 697306" d="M66.718,365.706a3.146,3.146,0,0,1-.023-.843,7.333,7.333,0,0,1,.343-2.011,4.139,4.139,0,0,1,1.088-1.73,1.741,1.741,0,0,1,.717-.452c.017.029-.268.184-.621.55a4.545,4.545,0,0,0-1,1.695,9.335,9.335,0,0,0-.389,1.959,4.343,4.343,0,0,1-.113.832" transform="translate(-37.605 -203.385)" fill="#263238"/>
            <path id="Trazado_697307" data-name="Trazado 697307" d="M83.612,392.532a50.552,50.552,0,0,1,2.415-2.387,8.857,8.857,0,0,1-2.415,2.387" transform="translate(-47.149 -220.006)" fill="#263238"/>
            <path id="Trazado_697308" data-name="Trazado 697308" d="M80.346,390.721a8.449,8.449,0,0,1,.6-2.477,8.477,8.477,0,0,1-.6,2.477" transform="translate(-45.3 -218.935)" fill="#263238"/>
            <path id="Trazado_697309" data-name="Trazado 697309" d="M71.7,390.685a5.013,5.013,0,0,1,1.112,2.45,99.61,99.61,0,0,1-1.112-2.45" transform="translate(-40.431 -220.311)" fill="#263238"/>
            <path id="Trazado_697310" data-name="Trazado 697310" d="M81.067,373.868a12.552,12.552,0,0,1,1.874-2.478,12.551,12.551,0,0,1-1.874,2.478" transform="translate(-45.713 -209.43)" fill="#263238"/>
            <path id="Trazado_697311" data-name="Trazado 697311" d="M79.008,363.98a18.033,18.033,0,0,1,2.106-3.074,18.037,18.037,0,0,1-2.106,3.074" transform="translate(-44.552 -203.519)" fill="#263238"/>
            <path id="Trazado_697312" data-name="Trazado 697312" d="M75.672,370.349a9.556,9.556,0,0,1,.169,2.705,9.558,9.558,0,0,1-.169-2.705" transform="translate(-42.647 -208.844)" fill="#263238"/>
            <path id="Trazado_697313" data-name="Trazado 697313" d="M62.631,374.491a8.314,8.314,0,0,1,1.8.921,8.315,8.315,0,0,1,1.645,1.182,14.924,14.924,0,0,1-1.746-1.017,14.829,14.829,0,0,1-1.7-1.086" transform="translate(-35.318 -211.178)" fill="#263238"/>
            <g id="Grupo_952091" data-name="Grupo 952091" transform="translate(30.8 166.22)" opacity="0.3">
              <g id="Grupo_952090" data-name="Grupo 952090">
                <g id="Grupo_952089" data-name="Grupo 952089" clip-path="url(#clip-path-25)">
                  <path id="Trazado_697314" data-name="Trazado 697314" d="M71.718,381.676a4.48,4.48,0,0,1,2.061-.508,2.58,2.58,0,0,1,2.071.584v.027a7.694,7.694,0,0,0-5.22,1.629,2.074,2.074,0,0,1,1.089-1.731" transform="translate(-70.628 -381.16)"/>
                </g>
              </g>
            </g>
            <path id="Trazado_697315" data-name="Trazado 697315" d="M86.474,322.041A2.528,2.528,0,0,1,87.59,322a3.671,3.671,0,0,1-1.18-.646c-.13-.106-.265-.267-.2-.424s.271-.185.44-.17a2.705,2.705,0,0,1,1.3.463,2.986,2.986,0,0,1-.737-1.232.271.271,0,0,1,.01-.246c.063-.078.184-.066.281-.04a2.3,2.3,0,0,1,1.593,1.6l.006.242a2.138,2.138,0,0,1-2.623,1.229c-.193-.061-.409-.2-.388-.4.018-.18.216-.28.391-.327" transform="translate(-48.543 -180.272)" fill="#ff725e"/>
            <path id="Trazado_697316" data-name="Trazado 697316" d="M144.633,287.287a2.527,2.527,0,0,1-.05,1.115,3.67,3.67,0,0,1,.742-1.121c.117-.121.289-.242.44-.168s.161.286.133.452a2.7,2.7,0,0,1-.57,1.252,2.987,2.987,0,0,1,1.29-.631.27.27,0,0,1,.245.031c.072.069.05.189.016.283a2.3,2.3,0,0,1-1.725,1.454l-.242-.014a2.139,2.139,0,0,1-1.005-2.716c.077-.187.234-.39.433-.353.178.034.261.239.293.417" transform="translate(-81.062 -161.766)" fill="#ff725e"/>
            <path id="Trazado_697317" data-name="Trazado 697317" d="M95.817,323.253c.188.007.365.029.545.046.33-3.631-.771-7.319.338-10.79l-.147.189a8.214,8.214,0,0,1-3.985-.358,4.987,4.987,0,0,1-2.883-2.671,3.6,3.6,0,0,1,.614-3.774c1.257-1.314,3.471-1.245,5.048-.34a11.94,11.94,0,0,1,3.591,3.783,6.635,6.635,0,0,1,1.736-1c-1.753-2.413-3.447-4.946-4-7.86-.6-3.188.586-6.966,3.546-8.3a6.589,6.589,0,0,1,7.457,2.007c.139.166.256.345.38.52l-.06-.171a4.59,4.59,0,0,1,2.4-2.524,3.9,3.9,0,0,1,3.44.165,3.394,3.394,0,0,1,1.69,2.953,3.783,3.783,0,0,1-2.189,3.143,5.921,5.921,0,0,1-3.772.349,11.466,11.466,0,0,1-.019,3.387,19.542,19.542,0,0,1-2.869,7.089,6.28,6.28,0,0,1,1.033.854c2.284,2.391,2.431,6.231,1.234,9.313s-4.438,5.356-6.687,7.78h0a14.7,14.7,0,0,1,1.727,5.423,4.936,4.936,0,0,1,4.353-2.794,2.426,2.426,0,0,1,2.385,1.377,2.509,2.509,0,0,1-.768,2.35,6.238,6.238,0,0,1-5.756,1.685l-.025-.6a26.057,26.057,0,0,1-.1,4.144H89.565s-3.876-15.756,6.252-15.381" transform="translate(-50.096 -164.49)" fill="#455a64"/>
            <rect id="Rectángulo_344585" data-name="Rectángulo 344585" width="34.323" height="6.083" transform="translate(22.841 174.143)" fill="#f9a21b"/>
            <path id="Trazado_697318" data-name="Trazado 697318" d="M87.451,410.513l-4.174,18.179H62.821l-4.566-18.179Z" transform="translate(-32.85 -231.493)" fill="#f9a21b"/>
            <path id="Trazado_697319" data-name="Trazado 697319" d="M52.421,413.142c0,.067,7.742.121,17.29.121S87,413.208,87,413.142s-7.741-.121-17.292-.121-17.29.054-17.29.121" transform="translate(-29.561 -232.907)" fill="#263238"/>
            <path id="Trazado_697320" data-name="Trazado 697320" d="M98.672,364.571a1,1,0,0,1,.2-.113,4.4,4.4,0,0,1,.6-.258,5.893,5.893,0,0,1,2.388-.275,7.278,7.278,0,0,1,3.361,1.177,9.02,9.02,0,0,1,2.887,3.266,13.278,13.278,0,0,1,1.382,4.145,22.244,22.244,0,0,1,.233,3.561c-.006,1.015-.038,1.834-.058,2.4-.011.266-.021.482-.028.652a1.038,1.038,0,0,1-.022.227.989.989,0,0,1-.017-.228c0-.17-.005-.386-.008-.653,0-.591,0-1.4,0-2.4a23.549,23.549,0,0,0-.272-3.532,13.392,13.392,0,0,0-1.376-4.083,8.961,8.961,0,0,0-2.816-3.21,7.259,7.259,0,0,0-3.275-1.189,6.111,6.111,0,0,0-2.354.211c-.539.166-.813.322-.824.3" transform="translate(-55.642 -205.209)" fill="#263238"/>
            <path id="Trazado_697321" data-name="Trazado 697321" d="M105.648,337.281a.6.6,0,0,1-.023-.172,4.786,4.786,0,0,1-.02-.5,8.132,8.132,0,0,1,.215-1.816,8.526,8.526,0,0,1,1.008-2.521,6.937,6.937,0,0,1,.973-1.284,5.736,5.736,0,0,1,2.978-1.7,6.694,6.694,0,0,1,1.61-.119,7.891,7.891,0,0,1,2.642.627,8.924,8.924,0,0,1,1.606.875c.181.117.308.228.4.3s.133.11.13.116a5.834,5.834,0,0,1-.57-.348,10.229,10.229,0,0,0-1.616-.812,8.03,8.03,0,0,0-2.6-.576,6.659,6.659,0,0,0-1.562.126,5.7,5.7,0,0,0-1.563.605,5.629,5.629,0,0,0-1.317,1.041,6.894,6.894,0,0,0-.957,1.246,8.722,8.722,0,0,0-1.027,2.46,9.2,9.2,0,0,0-.272,1.786,6.45,6.45,0,0,1-.032.667" transform="translate(-59.551 -185.62)" fill="#263238"/>
            <path id="Trazado_697322" data-name="Trazado 697322" d="M133.163,303.129a6.786,6.786,0,0,1-.123-1.165c-.028-.359-.065-.786-.143-1.252a6.126,6.126,0,0,0-.411-1.472,15.074,15.074,0,0,0-1.325-2.467c-.4-.6-.7-.93-.676-.951s.1.064.239.209a7.044,7.044,0,0,1,.549.663,12.242,12.242,0,0,1,1.392,2.473,5.878,5.878,0,0,1,.408,1.518,10.807,10.807,0,0,1,.1,1.273,7.318,7.318,0,0,1-.014,1.172" transform="translate(-73.581 -166.816)" fill="#263238"/>
            <path id="Trazado_697323" data-name="Trazado 697323" d="M132.331,387.37a7.84,7.84,0,0,1,1.851,1.608,7.839,7.839,0,0,1-1.851-1.608" transform="translate(-74.622 -218.44)" fill="#263238"/>
            <path id="Trazado_697324" data-name="Trazado 697324" d="M135.126,384.239A8.069,8.069,0,0,1,137.6,384a8.072,8.072,0,0,1-2.478.242" transform="translate(-76.199 -216.521)" fill="#263238"/>
            <path id="Trazado_697325" data-name="Trazado 697325" d="M133.005,377.226a220.481,220.481,0,0,1,1.384-1.9,3.742,3.742,0,0,1-1.384,1.9" transform="translate(-75.001 -211.648)" fill="#263238"/>
            <path id="Trazado_697326" data-name="Trazado 697326" d="M128.443,377.435a10.485,10.485,0,0,1-.637,2.767,10.475,10.475,0,0,1,.637-2.767" transform="translate(-72.063 -212.839)" fill="#263238"/>
            <path id="Trazado_697327" data-name="Trazado 697327" d="M126.789,387.33c-.036-.04.194-.3.512-.591s.606-.487.641-.447-.194.3-.512.591-.605.487-.641.447" transform="translate(-71.496 -217.832)" fill="#263238"/>
            <path id="Trazado_697328" data-name="Trazado 697328" d="M115.223,384.633a2.666,2.666,0,0,1,.622-.788c.382-.4.723-.691.761-.655a2.657,2.657,0,0,1-.622.788c-.382.4-.723.692-.761.655" transform="translate(-64.974 -216.083)" fill="#263238"/>
            <path id="Trazado_697329" data-name="Trazado 697329" d="M112.709,373.507a5.741,5.741,0,0,1,1.1-1.788,5.741,5.741,0,0,1-1.1,1.788" transform="translate(-63.554 -209.616)" fill="#263238"/>
            <path id="Trazado_697330" data-name="Trazado 697330" d="M105.247,367.126a7.637,7.637,0,0,1,.032,2.422,7.638,7.638,0,0,1-.032-2.422" transform="translate(-59.304 -207.026)" fill="#263238"/>
            <path id="Trazado_697331" data-name="Trazado 697331" d="M89.894,370.071a40.546,40.546,0,0,1,1.875,2.272,6.611,6.611,0,0,1-1.875-2.272" transform="translate(-50.69 -208.687)" fill="#263238"/>
            <path id="Trazado_697332" data-name="Trazado 697332" d="M87.916,385.227a7.542,7.542,0,0,1,2.365.457,7.574,7.574,0,0,1-2.365-.457" transform="translate(-49.577 -217.223)" fill="#263238"/>
            <path id="Trazado_697333" data-name="Trazado 697333" d="M103.935,387.329a5.318,5.318,0,0,1,1.259-2.482,123.971,123.971,0,0,1-1.259,2.482" transform="translate(-58.605 -217.019)" fill="#263238"/>
            <path id="Trazado_697334" data-name="Trazado 697334" d="M98.448,380.722a5.037,5.037,0,0,1-.044-1.961,5.038,5.038,0,0,1,.044,1.961" transform="translate(-55.448 -213.587)" fill="#263238"/>
            <path id="Trazado_697335" data-name="Trazado 697335" d="M115.84,393.7a3.263,3.263,0,0,1,1.137-1.852,87.31,87.31,0,0,1-1.137,1.852" transform="translate(-65.318 -220.966)" fill="#263238"/>
            <path id="Trazado_697336" data-name="Trazado 697336" d="M96.422,394.615a5.987,5.987,0,0,1-.865-1.961,6,6,0,0,1,.865,1.961" transform="translate(-53.881 -221.421)" fill="#263238"/>
            <path id="Trazado_697337" data-name="Trazado 697337" d="M126,363.228a9.168,9.168,0,0,1,2.653.088,9.2,9.2,0,0,1-2.653-.088" transform="translate(-71.053 -204.793)" fill="#263238"/>
            <path id="Trazado_697338" data-name="Trazado 697338" d="M132.633,349.506a13.857,13.857,0,0,1,2.664-1.888,13.857,13.857,0,0,1-2.664,1.888" transform="translate(-74.793 -196.024)" fill="#263238"/>
            <path id="Trazado_697339" data-name="Trazado 697339" d="M131.946,335.577a688.119,688.119,0,0,0,2.079-1.378,4.1,4.1,0,0,1-2.079,1.378" transform="translate(-74.405 -188.457)" fill="#263238"/>
            <path id="Trazado_697340" data-name="Trazado 697340" d="M124.5,328.256a12.892,12.892,0,0,1,.75-3.056,12.9,12.9,0,0,1-.75,3.056" transform="translate(-70.199 -183.384)" fill="#263238"/>
            <path id="Trazado_697341" data-name="Trazado 697341" d="M112.079,328.53a6.591,6.591,0,0,1,1.093,1.962,6.592,6.592,0,0,1-1.093-1.962" transform="translate(-63.199 -185.261)" fill="#263238"/>
            <path id="Trazado_697342" data-name="Trazado 697342" d="M101.376,353.139c.036-.043.654.43,1.467.93s1.511.844,1.488.9a7.2,7.2,0,0,1-2.955-1.825" transform="translate(-57.166 -199.138)" fill="#263238"/>
            <path id="Trazado_697343" data-name="Trazado 697343" d="M118.736,357.107A6.926,6.926,0,0,1,120.7,355.9a6.924,6.924,0,0,1-1.962,1.209" transform="translate(-66.956 -200.691)" fill="#263238"/>
            <path id="Trazado_697344" data-name="Trazado 697344" d="M121.645,343.616c-.039-.042.45-.523.9-1.224s.7-1.339.759-1.32a4.259,4.259,0,0,1-1.664,2.543" transform="translate(-68.596 -192.334)" fill="#263238"/>
            <path id="Trazado_697345" data-name="Trazado 697345" d="M115.876,341.043a8.032,8.032,0,0,1,.115-2.48,8.032,8.032,0,0,1-.115,2.48" transform="translate(-65.313 -190.919)" fill="#263238"/>
            <path id="Trazado_697346" data-name="Trazado 697346" d="M112.382,352.6a8.488,8.488,0,0,1-.293-2.537,8.488,8.488,0,0,1,.293,2.537" transform="translate(-63.192 -197.407)" fill="#263238"/>
            <path id="Trazado_697347" data-name="Trazado 697347" d="M103.972,320.833a5531.294,5531.294,0,0,0,.81,2.84,5.747,5.747,0,0,1-.81-2.84" transform="translate(-58.62 -180.921)" fill="#263238"/>
            <path id="Trazado_697348" data-name="Trazado 697348" d="M97.795,339.167a9.187,9.187,0,0,1,1.109-.817,9.3,9.3,0,0,1,1.117-.805,5.191,5.191,0,0,1-2.226,1.622" transform="translate(-55.147 -190.344)" fill="#263238"/>
            <path id="Trazado_697349" data-name="Trazado 697349" d="M89.373,334.308a8.558,8.558,0,0,1,1.352-.275,8.559,8.559,0,0,1,1.358-.244,5.449,5.449,0,0,1-2.71.519" transform="translate(-50.398 -188.222)" fill="#263238"/>
            <path id="Trazado_697350" data-name="Trazado 697350" d="M97.569,327.976a1.98,1.98,0,0,1,.773.38c.4.255.7.5.669.543a1.978,1.978,0,0,1-.773-.38c-.4-.255-.7-.5-.669-.543" transform="translate(-55.019 -184.945)" fill="#263238"/>
            <path id="Trazado_697351" data-name="Trazado 697351" d="M93.475,320.41a3.509,3.509,0,0,1,1.479,1.7,81.836,81.836,0,0,1-1.479-1.7" transform="translate(-52.71 -180.681)" fill="#263238"/>
            <path id="Trazado_697352" data-name="Trazado 697352" d="M87.9,327.617a6.982,6.982,0,0,1,1.25.311,6.94,6.94,0,0,1,1.238.358,4.994,4.994,0,0,1-2.487-.669" transform="translate(-49.569 -184.742)" fill="#263238"/>
            <path id="Trazado_697353" data-name="Trazado 697353" d="M126.531,313.613a18.482,18.482,0,0,1,1.1-1.672,18.7,18.7,0,0,1,1.115-1.66,11.064,11.064,0,0,1-2.211,3.331" transform="translate(-71.351 -174.971)" fill="#263238"/>
            <path id="Trazado_697354" data-name="Trazado 697354" d="M124.022,305.4a10.785,10.785,0,0,1,.375-2.852,10.738,10.738,0,0,1-.375,2.852" transform="translate(-69.925 -170.612)" fill="#263238"/>
            <path id="Trazado_697355" data-name="Trazado 697355" d="M115.451,310.463c.057-.01.214.73.584,1.578s.8,1.473.75,1.507a5.129,5.129,0,0,1-1.334-3.085" transform="translate(-65.096 -175.073)" fill="#263238"/>
            <path id="Trazado_697356" data-name="Trazado 697356" d="M105.382,312.6c.044-.035.591.61,1.349,1.319s1.431,1.219,1.4,1.266a7.859,7.859,0,0,1-2.748-2.584" transform="translate(-59.425 -176.277)" fill="#263238"/>
            <path id="Trazado_697357" data-name="Trazado 697357" d="M109.269,294.286c.055-.009.225.8.528,1.775s.615,1.74.564,1.764a8.186,8.186,0,0,1-1.092-3.538" transform="translate(-61.611 -165.951)" fill="#263238"/>
            <path id="Trazado_697358" data-name="Trazado 697358" d="M120.848,288.261a10.636,10.636,0,0,1,.174,2.855,10.638,10.638,0,0,1-.174-2.855" transform="translate(-68.123 -162.554)" fill="#263238"/>
            <path id="Trazado_697359" data-name="Trazado 697359" d="M144.878,303.726a58.075,58.075,0,0,1,2.177.177,3.349,3.349,0,0,1-2.177-.177" transform="translate(-81.698 -171.265)" fill="#263238"/>
            <path id="Trazado_697360" data-name="Trazado 697360" d="M144.17,295.579a15.81,15.81,0,0,1,3.084-1.637,15.847,15.847,0,0,1-3.084,1.637" transform="translate(-81.299 -165.755)" fill="#263238"/>
            <path id="Trazado_697361" data-name="Trazado 697361" d="M137.674,294.52a9.878,9.878,0,0,1,.824-2.627,9.863,9.863,0,0,1-.824,2.627" transform="translate(-77.63 -164.601)" fill="#263238"/>
            <g id="Grupo_952094" data-name="Grupo 952094" transform="translate(46.185 158.376)" opacity="0.3">
              <g id="Grupo_952093" data-name="Grupo 952093">
                <g id="Grupo_952092" data-name="Grupo 952092" clip-path="url(#clip-path-26)">
                  <path id="Trazado_697362" data-name="Trazado 697362" d="M111.849,367.37a4.526,4.526,0,0,0-1.932-3.551,4.311,4.311,0,0,0-4.009-.268,6.2,6.2,0,0,1,3.517,1.213,9.869,9.869,0,0,1,2.424,2.606" transform="translate(-105.907 -363.174)"/>
                </g>
              </g>
            </g>
            <g id="Grupo_952097" data-name="Grupo 952097" transform="translate(50.563 142.679)" opacity="0.3">
              <g id="Grupo_952096" data-name="Grupo 952096">
                <g id="Grupo_952095" data-name="Grupo 952095" clip-path="url(#clip-path-27)">
                  <path id="Trazado_697363" data-name="Trazado 697363" d="M121.985,329.372a3.92,3.92,0,0,0-2.762-2.152,3.732,3.732,0,0,0-3.276,1.173,5.367,5.367,0,0,1,3.213-.252,8.554,8.554,0,0,1,2.826,1.231" transform="translate(-115.946 -327.179)"/>
                </g>
              </g>
            </g>
            <g id="Grupo_952100" data-name="Grupo 952100" transform="translate(57.841 130.137)" opacity="0.3">
              <g id="Grupo_952099" data-name="Grupo 952099">
                <g id="Grupo_952098" data-name="Grupo 952098" clip-path="url(#clip-path-28)">
                  <path id="Trazado_697364" data-name="Trazado 697364" d="M134.355,302.628a3.1,3.1,0,0,0,.189-2.675,2.615,2.615,0,0,0-1.909-1.534,8.086,8.086,0,0,1,1.7,4.261" transform="translate(-132.636 -298.418)"/>
                </g>
              </g>
            </g>
            <path id="Trazado_697365" data-name="Trazado 697365" d="M90.983,367.342c.01.014-.152.14-.391.422a7.625,7.625,0,0,0-.877,1.287,14,14,0,0,0-1.259,4.967,22.656,22.656,0,0,0,.255,5.153c.1.655.2,1.184.269,1.549a3.03,3.03,0,0,1,.088.572,3.01,3.01,0,0,1-.168-.554c-.093-.361-.214-.886-.336-1.542A20.407,20.407,0,0,1,88.244,374a13.212,13.212,0,0,1,1.34-5.023,6.594,6.594,0,0,1,.948-1.27,1.562,1.562,0,0,1,.452-.366" transform="translate(-49.733 -207.148)" fill="#263238"/>
            <path id="Trazado_697366" data-name="Trazado 697366" d="M86.61,399.205a.423.423,0,0,1-.1.01l-.306.01-1.178.018-4.33.031L66.4,399.3l-14.117-.027.069-.069c-.007,1.871-.013,3.39-.017,4.457-.006.515-.011.921-.014,1.212,0,.129-.007.233-.009.315a.445.445,0,0,1-.01.107.476.476,0,0,1-.01-.107c0-.082-.007-.186-.011-.315-.005-.291-.013-.7-.022-1.211-.01-1.067-.026-2.586-.044-4.457v-.069h.07l14.117-.027,14.288.028,4.33.03,1.178.018.306.01a.423.423,0,0,1,.1.01" transform="translate(-29.446 -225.062)" fill="#263238"/>
          </g>
        </g>
        <path id="Trazado_697367" data-name="Trazado 697367" d="M260.995,414.15l-8.861,14.774h63.04L309.3,411.643Z" transform="translate(-142.181 -232.13)" fill="#263238"/>
        <g id="Grupo_952131" data-name="Grupo 952131">
          <g id="Grupo_952130" data-name="Grupo 952130" clip-path="url(#clip-path-8)">
            <path id="Trazado_697368" data-name="Trazado 697368" d="M276.142,314.876l36.839-1.373,13.081-73.254-11.822-5.09s-4.905,2.75-13.994,2.795c-8.917.044-8.76-2.986-8.76-2.986l-7.817,8.421s-9.624,27.382-9.771,27.935,2.245,43.552,2.245,43.552" transform="translate(-154.45 -132.501)" fill="#fff"/>
            <path id="Trazado_697369" data-name="Trazado 697369" d="M352.3,232.861s18.146,3.752,18.3,6.776-7.761,21.759-7.916,22.247-7.129,27.259-7.129,27.259l10.461,36H333.4s2.324-33.955,4.959-49.647,3.243-20.951,4.246-27.151c.4-2.49,2.433-11.031,3.692-16.248a11.575,11.575,0,0,0,.192-4.492l1.548.589Z" transform="translate(-188.007 -128.348)" fill="#455a64"/>
            <path id="Trazado_697370" data-name="Trazado 697370" d="M240.812,343.866c-.174.262-3.487,12.292-4.033,15.778-.463,2.956-1.2,7.758,1.941,12.2s6.375,3.923,9.508,2.79,6.533-7.671,7.143-11.42-2.94-20.244-2.94-20.244Z" transform="translate(-133.285 -193.407)" fill="#455a64"/>
            <path id="Trazado_697371" data-name="Trazado 697371" d="M275.57,229.6l-4.042,5.7s-13.464,1.734-16.564,4-9.365,43.021-9.365,43.021l12.53,6.974-9.682,36.972h12.136s3.008-15.581,2.732-26.774a117.839,117.839,0,0,1,5.231-36.483c3.564-10.739,6.984-29.347,6.984-29.347Z" transform="translate(-138.497 -129.472)" fill="#455a64"/>
            <g id="Grupo_952105" data-name="Grupo 952105" transform="translate(152.036 171.116)" opacity="0.3">
              <g id="Grupo_952104" data-name="Grupo 952104">
                <g id="Grupo_952103" data-name="Grupo 952103" clip-path="url(#clip-path-30)">
                  <path id="Trazado_697372" data-name="Trazado 697372" d="M370.335,404.456l-21.7-12.068a19.045,19.045,0,0,0,8.117,12.458,18.791,18.791,0,0,0,14.587,2.3l-1-2.693" transform="translate(-348.635 -392.388)"/>
                </g>
              </g>
            </g>
            <path id="Trazado_697373" data-name="Trazado 697373" d="M243.994,367.357c.008.041-.515.12-1.286.452a6.5,6.5,0,0,0-3.875,4.9c-.145.826-.1,1.354-.142,1.355a1.05,1.05,0,0,1-.056-.368,5.309,5.309,0,0,1,.039-1.012,6.222,6.222,0,0,1,3.973-5.027,5.322,5.322,0,0,1,.976-.273,1.061,1.061,0,0,1,.371-.031" transform="translate(-134.564 -207.153)" fill="#263238"/>
            <path id="Trazado_697374" data-name="Trazado 697374" d="M247.508,379.133s3.445-1.093,4.682-2.49a10.344,10.344,0,0,0,2.291-4.852c.156-2.075.935-12.979.935-12.979l-9.077-.6-5.578,10.7a8.886,8.886,0,0,0,1.583,8.106,5.559,5.559,0,0,0,5.164,2.113" transform="translate(-135.558 -202)" fill="#ffc09d"/>
            <path id="Trazado_697375" data-name="Trazado 697375" d="M275.373,381.52c-.037-.008.055-.483.126-1.256a13.946,13.946,0,0,0-.74-5.962c-.258-.732-.462-1.17-.429-1.187.014-.007.079.1.185.288a7.958,7.958,0,0,1,.394.842,11.812,11.812,0,0,1,.75,6.037,7.928,7.928,0,0,1-.176.913,1,1,0,0,1-.109.324" transform="translate(-154.695 -210.404)" fill="#263238"/>
            <path id="Trazado_697376" data-name="Trazado 697376" d="M267.015,392.867a2.271,2.271,0,0,1,0,.522,4.813,4.813,0,0,1-.053.61,8.038,8.038,0,0,1-.127.8,11.879,11.879,0,0,1-.593,2.028,12.511,12.511,0,0,1-2.825,4.308,11.88,11.88,0,0,1-1.624,1.352,7.959,7.959,0,0,1-.684.436,4.87,4.87,0,0,1-.538.292,2.3,2.3,0,0,1-.478.207c-.022-.041.65-.361,1.607-1.066a13.17,13.17,0,0,0,1.569-1.369,13.177,13.177,0,0,0,2.78-4.239,13.117,13.117,0,0,0,.63-1.984c.265-1.159.291-1.9.337-1.9" transform="translate(-146.669 -221.542)" fill="#263238"/>
            <path id="Trazado_697377" data-name="Trazado 697377" d="M176.383,231.5a5.874,5.874,0,0,0-3.818,2.244l20.283,28.776,25.323-2.9-.411-25.9s-1.717-2.494-3.382-2.216c-.669.111-22.087,3.458-23.984,8.7,0,0,.223-2.678-1.562-4.016s-12.449-4.693-12.449-4.693" transform="translate(-97.311 -130.537)" fill="#fff"/>
            <path id="Trazado_697378" data-name="Trazado 697378" d="M176.32,231.373s.1.024.3.083l.867.268c.762.24,1.887.6,3.337,1.087s3.226,1.1,5.268,1.9c.508.207,1.034.423,1.568.67a4.271,4.271,0,0,1,2.748,4.707l-.146-.032a5.4,5.4,0,0,1,2.095-2.286,18.561,18.561,0,0,1,2.942-1.563,51.592,51.592,0,0,1,6.88-2.333c2.46-.674,5.065-1.273,7.789-1.813,1.362-.27,2.754-.526,4.175-.758a2.128,2.128,0,0,1,1.119.074,3.831,3.831,0,0,1,.98.544,7.7,7.7,0,0,1,1.547,1.615l.018.025v.034c.108,6.679.225,13.956.347,21.514q.035,2.209.069,4.382l0,.1-.1.012-25.324,2.89-.061.007-.035-.05L172.47,233.639l-.016-.023.016-.022a4.95,4.95,0,0,1,1.454-1.35,6.592,6.592,0,0,1,1.283-.619,5.069,5.069,0,0,1,.827-.226,1.284,1.284,0,0,1,.286-.026,2.3,2.3,0,0,0-.282.046,5.691,5.691,0,0,0-.817.244,6.732,6.732,0,0,0-1.265.632,4.921,4.921,0,0,0-1.421,1.344v-.045l20.334,28.74-.1-.043,25.322-2.911-.1.114q-.035-2.17-.07-4.382c-.118-7.558-.232-14.835-.336-21.514l.019.059a7.517,7.517,0,0,0-1.5-1.567,3.633,3.633,0,0,0-.921-.514,1.9,1.9,0,0,0-1.016-.066c-1.418.23-2.808.484-4.169.751-2.721.535-5.323,1.128-7.779,1.8a51.73,51.73,0,0,0-6.861,2.307,18.453,18.453,0,0,0-2.921,1.539,5.277,5.277,0,0,0-2.043,2.2l-.164.4.018-.435A4.141,4.141,0,0,0,187.6,235.5c-.53-.247-1.052-.466-1.558-.675-2.033-.811-3.806-1.43-5.25-1.933l-3.324-1.125-.86-.287c-.194-.065-.29-.1-.29-.1" transform="translate(-97.249 -130.41)" fill="#263238"/>
            <path id="Trazado_697379" data-name="Trazado 697379" d="M185.154,268.5l-19-32.281a.83.83,0,0,1,1.022-1.191l14.973,5.968a2.005,2.005,0,0,1,1.215,2.3l-.222,1,5.243,1.339.113-.292a3.855,3.855,0,0,1,2.422-2.276l24.123-7.684a2.224,2.224,0,0,1,2.651,1.1L234.8,269.5l-.558,1.562-27.229,6.452h-4.787Z" transform="translate(-93.634 -132.501)" fill="#f9a21b"/>
            <path id="Trazado_697380" data-name="Trazado 697380" d="M185.037,268.381s.1.048.3.147l.868.448,3.356,1.753,12.577,6.608-.032-.008,4.787-.007-.017,0,27.223-6.477-.072.065.556-1.562.006.082-8.85-17.079-4.751-9.173-2.441-4.713-.616-1.19-.309-.6a3.771,3.771,0,0,0-.327-.566,2.117,2.117,0,0,0-2.288-.757l-14.245,4.534-6.854,2.181c-1.12.362-2.253.7-3.336,1.075a3.833,3.833,0,0,0-2.2,2.4l-.029.091-.1-.025L183,244.276l-.1-.025.022-.1.177-.8a2.3,2.3,0,0,0,.084-.772,1.91,1.91,0,0,0-.692-1.316,2.191,2.191,0,0,0-.673-.363l-.739-.3-1.468-.586L173.9,237.74l-5.452-2.178-1.32-.527a.753.753,0,0,0-1.055.365.743.743,0,0,0,.017.6l.342.588.689,1.174,9.515,16.219,6.2,10.594,1.643,2.825.42.73c.094.165.138.252.138.252s-.053-.078-.15-.239l-.433-.718-1.668-2.8-6.25-10.56-9.566-16.208-.692-1.174c-.117-.2-.232-.387-.351-.6a.92.92,0,0,1,.523-1.266.974.974,0,0,1,.748.052l1.32.525,5.455,2.17,5.718,2.275,1.468.584.74.294a2.428,2.428,0,0,1,.727.395,2.117,2.117,0,0,1,.769,1.46,2.525,2.525,0,0,1-.088.835l-.177.8-.077-.126,5.244,1.337-.127.065a4.054,4.054,0,0,1,2.318-2.528c1.113-.382,2.224-.717,3.35-1.082l6.853-2.185,14.248-4.538a2.345,2.345,0,0,1,2.534.839,3.992,3.992,0,0,1,.347.6l.309.6.616,1.19,2.439,4.714,4.747,9.174,8.836,17.086.02.04-.015.042-.559,1.562-.019.052-.054.013-27.235,6.427-.009,0h-.009l-4.787-.007h-.017l-.015-.008-12.56-6.673L186.178,269l-.856-.462c-.191-.1-.286-.161-.286-.161" transform="translate(-93.517 -132.383)" fill="#263238"/>
            <g id="Grupo_952108" data-name="Grupo 952108" transform="translate(75.263 106.906)" opacity="0.3">
              <g id="Grupo_952107" data-name="Grupo 952107">
                <g id="Grupo_952106" data-name="Grupo 952106" clip-path="url(#clip-path-31)">
                  <path id="Trazado_697381" data-name="Trazado 697381" d="M202.221,279.418l-12.447-5.951-17.188-28.319,15.18,5.886-.315.813-12.787-4.959,15.722,25.9,12.212,5.838Z" transform="translate(-172.586 -245.148)"/>
                </g>
              </g>
            </g>
            <g id="Grupo_952111" data-name="Grupo 952111" transform="translate(99.294 107.249)" opacity="0.3">
              <g id="Grupo_952110" data-name="Grupo 952110">
                <g id="Grupo_952109" data-name="Grupo 952109" clip-path="url(#clip-path-32)">
                  <path id="Trazado_697382" data-name="Trazado 697382" d="M243.352,281.621l-15.659-28.263,23.079-7.425L265.81,275.05ZM228.97,253.863l14.807,26.725,20.772-6.078-14.213-27.521Z" transform="translate(-227.693 -245.933)"/>
                </g>
              </g>
            </g>
            <path id="Trazado_697383" data-name="Trazado 697383" d="M234.779,291.071c-.055.03-3.983-7-8.773-15.69s-8.63-15.772-8.575-15.8,3.982,6.994,8.774,15.692,8.629,15.77,8.574,15.8" transform="translate(-122.612 -146.379)" fill="#263238"/>
            <path id="Trazado_697384" data-name="Trazado 697384" d="M205.26,256.348a2.3,2.3,0,0,1,.2.321l.539.94c.465.818,1.127,2.009,1.936,3.485,1.619,2.951,3.815,7.051,6.219,11.589l6.16,11.621,1.872,3.519.5.961a2.429,2.429,0,0,1,.162.342,2.367,2.367,0,0,1-.2-.32l-.539-.94c-.465-.818-1.126-2.009-1.936-3.485-1.619-2.951-3.815-7.051-6.22-11.591L207.8,261.17l-1.872-3.519-.5-.961a2.3,2.3,0,0,1-.162-.342" transform="translate(-115.748 -144.557)" fill="#263238"/>
            <path id="Trazado_697385" data-name="Trazado 697385" d="M211.983,254.225a7.716,7.716,0,0,1,.6-2.567,7.714,7.714,0,0,1-.6,2.567" transform="translate(-119.528 -141.912)" fill="#263238"/>
            <g id="Grupo_952114" data-name="Grupo 952114" transform="translate(95.349 121.037)" opacity="0.3">
              <g id="Grupo_952113" data-name="Grupo 952113">
                <g id="Grupo_952112" data-name="Grupo 952112" clip-path="url(#clip-path-33)">
                  <path id="Trazado_697386" data-name="Trazado 697386" d="M218.645,277.551l9.247,17.135,3.221.464-9.2-17Z" transform="translate(-218.645 -277.551)"/>
                </g>
              </g>
            </g>
            <g id="Grupo_952117" data-name="Grupo 952117" transform="translate(92.06 116.465)" opacity="0.3">
              <g id="Grupo_952116" data-name="Grupo 952116">
                <g id="Grupo_952115" data-name="Grupo 952115" clip-path="url(#clip-path-34)">
                  <path id="Trazado_697387" data-name="Trazado 697387" d="M211.1,267.067l5.123,1.023,1.125,1.866-5.249-1.035-.916-1.578" transform="translate(-211.104 -267.067)"/>
                </g>
              </g>
            </g>
            <g id="Grupo_952120" data-name="Grupo 952120" transform="translate(109.43 112.313)" opacity="0.3">
              <g id="Grupo_952119" data-name="Grupo 952119">
                <g id="Grupo_952118" data-name="Grupo 952118" clip-path="url(#clip-path-35)">
                  <path id="Trazado_697388" data-name="Trazado 697388" d="M251.841,261.669l-.906-2.09,5.736-2.035,1,2.062Z" transform="translate(-250.935 -257.545)"/>
                </g>
              </g>
            </g>
            <g id="Grupo_952123" data-name="Grupo 952123" transform="translate(106.772 115.052)" opacity="0.3">
              <g id="Grupo_952122" data-name="Grupo 952122">
                <g id="Grupo_952121" data-name="Grupo 952121" clip-path="url(#clip-path-36)">
                  <path id="Trazado_697389" data-name="Trazado 697389" d="M248.02,275.813l-3.18-6,16.238-5.985,2.864,5.985Z" transform="translate(-244.84 -263.828)"/>
                </g>
              </g>
            </g>
            <path id="Trazado_697390" data-name="Trazado 697390" d="M348.093,66.784a5.632,5.632,0,0,1,4.792-1.454,3.233,3.233,0,0,0,2.069.036c.444-.238.7-.715,1.038-1.086a2.854,2.854,0,0,1,4.1.089,3.387,3.387,0,0,0,.768.836c1.328.779,2.955-1.7,4.275-.91a3.236,3.236,0,0,0-1.574,1.119,1.466,1.466,0,0,0,.079,1.808c1.219,1.18,3.434-1.22,4.807-.224.74.537.783,1.843,1.661,2.1a3.088,3.088,0,0,0,1.054-.026,2.348,2.348,0,0,1,2.394,2.136c.053,1.015-.515,2.224.209,2.936a2.194,2.194,0,0,0,1.791.344,6.109,6.109,0,0,1-.792,2.644,3.677,3.677,0,0,1,.992,5,7.86,7.86,0,0,1,2.013,2.272,2.734,2.734,0,0,1-.12,2.888,2.484,2.484,0,0,0-.415.553,1.373,1.373,0,0,0-.038.741,12.634,12.634,0,0,1,.443,2.856c-.076.964-.843,1.988-1.8,1.858-.224-.03-.467-.117-.662,0a.639.639,0,0,0-.253.427,6.551,6.551,0,0,0,.038,2.074,2.774,2.774,0,0,1-.409,1.992,1.187,1.187,0,0,1-1.8.129l.668,3.263a1.969,1.969,0,0,1-.262,1.87c-.639.583-1.716.046-2.143-.706s-.507-1.667-.953-2.408a5.163,5.163,0,0,1-.542-.908c-.092-.264-.112-.574-.318-.762-.415-.378-1.111.193-1.079.753a2.964,2.964,0,0,0,.785,1.46,1.428,1.428,0,0,1,.277,1.555c-.15.226-.406.366-.55.6-.5.8.665,1.65.761,2.583a2.263,2.263,0,0,1-.972,1.748c-.628.567-1.809.992-2.149.217a7.8,7.8,0,0,1-.142-.866,2.126,2.126,0,0,0-.628-.8,4.4,4.4,0,0,1-1.2-2.224c.669.914,1.363,2.114.808,3.1a4.685,4.685,0,0,1-.986,1.013c-.676.637-1.119,1.489-1.787,2.136a2.169,2.169,0,0,1-2.522.565,2.091,2.091,0,0,1-3.6,1.905,1.825,1.825,0,0,0-.545-.534,1.494,1.494,0,0,0-.817-.019,4.525,4.525,0,0,1-4.287-1.967l.844-.252a10.53,10.53,0,0,1-4.615-1.6c-1.31-.995-2.1-2.885-1.32-4.334.338-.628.955-1.259.721-1.934a1.767,1.767,0,0,0-1.119-.885l-5.713-2.328a5.451,5.451,0,0,1-2.484-1.6,1.879,1.879,0,0,1,.277-2.644,5.352,5.352,0,0,0-1.909-2.277c-.938-.628-2.052-.942-3.017-1.526a3.051,3.051,0,0,1-1.7-2.716c.126-1.121,1.719-1.915,2.453-1.059-.072-1.7-3.085-1.953-3.263-3.647-.144-1.376,1.638-2,2.589-3.006-.16-.483-.631-.811-.805-1.289-.367-1,.7-1.937,1.687-2.349s2.184-.82,2.468-1.85c.291-1.054-.565-2.3.047-3.209a1.208,1.208,0,0,1,1.607-.317c.87-1.915,4.475-.267,5.634-2.022a.755.755,0,0,0,.148-.467.805.805,0,0,0-.168-.391,8.526,8.526,0,0,0-1.559-1.318,1.655,1.655,0,0,1-.663-1.791c.275-.625,1.483-.546,1.436.136a1.5,1.5,0,0,1,2.267.688,1.624,1.624,0,0,1,2.04-.087,4.738,4.738,0,0,1,1.369,1.725" transform="translate(-185.942 -35.781)" fill="#263238"/>
            <path id="Trazado_697391" data-name="Trazado 697391" d="M376.258,110.365c-.535-2.821-2.546-5.146-4.786-6.942a7.335,7.335,0,0,0-3.156-1.675,3.083,3.083,0,0,0-3.18,1.195l.114,2.011c-.333,3.183,2.062,5.926,3.161,8.932.478,1.307.855,2.873,2.118,3.456a2.993,2.993,0,0,0,2.139.033c2.736-.871,4.126-4.189,3.59-7.01" transform="translate(-205.904 -57.344)" fill="#455a64"/>
            <path id="Trazado_697392" data-name="Trazado 697392" d="M329.262,121.458a6.419,6.419,0,0,0-.486-8.215c1.188-1.462.79-3.739-.388-5.21a12.557,12.557,0,0,0-4.641-3.133,8.64,8.64,0,0,0-10-6.411c-2.2-3.308-6.957-3.872-10.783-2.8a10.149,10.149,0,0,1-2.839.59,16.484,16.484,0,0,1-2.11-.314c-3.876-.561-7.755,2.131-9.3,5.727a7.168,7.168,0,0,1-.841,1.672,9.719,9.719,0,0,1-1.933,1.513,6.2,6.2,0,0,0-2.421,4.558c-.078,1.507.385,3.111-.263,4.473a22.524,22.524,0,0,0-1.16,1.943c-.739,2.063,1.535,4.2,1.088,6.348-.091.437-.293.844-.419,1.273a3.822,3.822,0,0,0,.206,2.675,5.49,5.49,0,0,1,.822,1.931,6.2,6.2,0,0,1-.329,1.565c-.276,1.28,2.443,6.257,3.545,6.966l33.131.633a6.191,6.191,0,0,0,4.845-5.282,2.267,2.267,0,0,1,.321-1.215,2.649,2.649,0,0,1,.911-.578c2.145-1.124,2.432-4.051,2.232-6.464a2.935,2.935,0,0,1,.029-1.011,3.7,3.7,0,0,1,.795-1.234" transform="translate(-158.987 -53.683)" fill="#263238"/>
            <path id="Trazado_697393" data-name="Trazado 697393" d="M323.6,132.31a17.745,17.745,0,0,0-9.248-15.565,21.906,21.906,0,0,0-8.446-2.131,13.421,13.421,0,0,0-7.831,1.559c-1.831.41-8.586,6.471-9,13.117-.461,7.383-.733,16.416.145,21.925,1.765,11.077,10.256,12.482,10.256,12.482,0-.017-.385,8.779-.385,8.779l6.179,11.46,15.937-16.226Z" transform="translate(-162.769 -64.581)" fill="#ffc09d"/>
            <path id="Trazado_697394" data-name="Trazado 697394" d="M321.481,192.058a2.333,2.333,0,0,0-.727-1.481,2.385,2.385,0,0,0-2.88-.322,3.2,3.2,0,0,0-1.375,2.929,2.905,2.905,0,0,0,2.01,1.317,3.524,3.524,0,0,0,.389.034,2.609,2.609,0,0,0,1.793-.6,2.324,2.324,0,0,0,.79-1.876" transform="translate(-178.47 -107.094)" fill="#ff9b6c"/>
            <path id="Trazado_697395" data-name="Trazado 697395" d="M295.3,169.432a1.42,1.42,0,0,0,1.371,1.433,1.359,1.359,0,0,0,1.464-1.281,1.421,1.421,0,0,0-1.369-1.433,1.36,1.36,0,0,0-1.466,1.282" transform="translate(-166.524 -94.821)" fill="#263238"/>
            <path id="Trazado_697396" data-name="Trazado 697396" d="M295.325,156.193c.176.185,1.252-.611,2.781-.609,1.527-.019,2.65.768,2.815.58.082-.083-.1-.417-.587-.773a3.906,3.906,0,0,0-2.254-.693,3.747,3.747,0,0,0-2.213.716c-.47.361-.629.7-.542.779" transform="translate(-166.524 -87.236)" fill="#263238"/>
            <path id="Trazado_697397" data-name="Trazado 697397" d="M310.844,169.327a10.182,10.182,0,0,0-2.483-.446c-.39-.041-.76-.118-.826-.384a1.986,1.986,0,0,1,.26-1.157q.55-1.418,1.153-2.973c1.6-4.233,2.759-7.714,2.588-7.776s-1.607,3.317-3.208,7.55q-.578,1.565-1.1,2.991a2.257,2.257,0,0,0-.2,1.532.979.979,0,0,0,.642.57,2.622,2.622,0,0,0,.663.092,9.923,9.923,0,0,0,2.517,0" transform="translate(-173.091 -88.302)" fill="#263238"/>
            <path id="Trazado_697398" data-name="Trazado 697398" d="M313.264,222.155A28.178,28.178,0,0,0,328.1,218.19s-3.915,7.96-15,6.93Z" transform="translate(-176.558 -123.04)" fill="#ff9b6c"/>
            <path id="Trazado_697399" data-name="Trazado 697399" d="M319.9,188.218c-.249-.014-.251,1.645-1.671,2.824s-3.186,1-3.2,1.229c-.023.1.394.322,1.14.342a4.132,4.132,0,0,0,2.671-.932,3.6,3.6,0,0,0,1.294-2.368c.063-.693-.123-1.1-.236-1.1" transform="translate(-177.649 -106.138)" fill="#263238"/>
            <path id="Trazado_697400" data-name="Trazado 697400" d="M296.725,143.279c.257.373,1.428.123,2.8.236,1.371.069,2.5.472,2.8.136.134-.164-.016-.528-.49-.9a4.347,4.347,0,0,0-4.51-.3c-.517.31-.71.65-.6.831" transform="translate(-167.309 -80.05)" fill="#263238"/>
            <path id="Trazado_697401" data-name="Trazado 697401" d="M329.321,170.858a1.421,1.421,0,0,1-1.422,1.382,1.359,1.359,0,0,1-1.416-1.334,1.421,1.421,0,0,1,1.42-1.382,1.359,1.359,0,0,1,1.418,1.334" transform="translate(-184.107 -95.596)" fill="#263238"/>
            <path id="Trazado_697402" data-name="Trazado 697402" d="M336.068,157.411c-.183.179-1.229-.657-2.757-.71-1.525-.074-2.676.671-2.835.477-.078-.085.114-.413.614-.751a3.9,3.9,0,0,1,2.278-.611,3.747,3.747,0,0,1,2.186.8c.457.378.6.718.514.8" transform="translate(-186.35 -87.865)" fill="#263238"/>
            <path id="Trazado_697403" data-name="Trazado 697403" d="M336.786,145.53c-.314.336-1.479-.068-2.9-.137-1.414-.113-2.626.136-2.889-.237-.115-.181.087-.521.624-.83a4.378,4.378,0,0,1,2.376-.482,4.326,4.326,0,0,1,2.285.783c.488.375.639.739.5.9" transform="translate(-186.638 -81.11)" fill="#263238"/>
            <path id="Trazado_697404" data-name="Trazado 697404" d="M364.612,175.5c0-.825.954-2.77,1.768-2.9,2.176-.341,6.1-.168,6.137,5.357.054,7.553-7.54,6.049-7.555,5.833-.011-.169-.355-5.443-.35-8.292" transform="translate(-205.609 -97.271)" fill="#ffc09d"/>
            <path id="Trazado_697405" data-name="Trazado 697405" d="M370.138,184.294c.033-.024.132.091.355.191a1.315,1.315,0,0,0,.984.013,3.255,3.255,0,0,0,1.486-2.931,4.351,4.351,0,0,0-.382-1.882,1.518,1.518,0,0,0-1-1,.67.67,0,0,0-.774.365c-.1.212-.051.363-.091.375-.021.02-.163-.125-.1-.437a.838.838,0,0,1,.294-.476.992.992,0,0,1,.726-.2,1.85,1.85,0,0,1,1.383,1.161,4.468,4.468,0,0,1,.471,2.1c-.038,1.522-.806,2.952-1.9,3.275a1.411,1.411,0,0,1-1.2-.191c-.235-.184-.276-.353-.25-.367" transform="translate(-208.721 -100.55)" fill="#ff9b6c"/>
            <path id="Trazado_697406" data-name="Trazado 697406" d="M285.674,124.724a4.393,4.393,0,0,0,2.405-4.048c1.012.3,2.039-1,2.63-1.877s1.313-1.317,1.268-2.372a1.193,1.193,0,0,1,.076-.613c.153-.29.512-.384.825-.481a5.06,5.06,0,0,0,3.332-3.516,10.7,10.7,0,0,0,5.176.855,4.09,4.09,0,0,0,6.922-.3,3.664,3.664,0,0,0,2.454,1.81,10.866,10.866,0,0,0,3.132.171,4.331,4.331,0,0,0,2.85,4.906c.269.082.58.164.7.416a1.093,1.093,0,0,1-.116.842,3.409,3.409,0,0,0,2.283,4.341,2.542,2.542,0,0,0,.229,3.983c.274.166.633.366.591.684a.717.717,0,0,1-.166.322,4.949,4.949,0,0,0-1.191,2.5,1.826,1.826,0,0,0,1.5,2.02,2.42,2.42,0,0,0-.96,1.654c-.011.656.653,1.325,1.265,1.088.26-.1,4.022-.839,4.187-1.064,2.137-2.9-.55-6.107-.761-9.7a23.423,23.423,0,0,0-3.263-10.2,17.14,17.14,0,0,0-2.682-3.64,22.8,22.8,0,0,0-4.152-3.058,20.819,20.819,0,0,0-6.059-2.89c-4.075-.962-8.311.518-12.112,2.274a17.721,17.721,0,0,0-4.1,2.418,16.071,16.071,0,0,0-3.457,4.514,20.025,20.025,0,0,0-2.735,7.731" transform="translate(-161.095 -59.911)" fill="#263238"/>
            <path id="Trazado_697407" data-name="Trazado 697407" d="M282.279,115.714a2.892,2.892,0,0,1,.408-.81c.16-.251.387-.543.6-.918a3.516,3.516,0,0,0,.425-1.41,11.013,11.013,0,0,0-.031-1.869,8.305,8.305,0,0,1,.062-2.242,6.294,6.294,0,0,1,1-2.378,6.163,6.163,0,0,1,.93-1.068,9.279,9.279,0,0,1,1.194-.886,4.682,4.682,0,0,0,1.149-.989,6.124,6.124,0,0,0,.718-1.421,10.134,10.134,0,0,1,4.768-5.165,9.017,9.017,0,0,1,1.819-.681,8.148,8.148,0,0,1,1.985-.222,9.329,9.329,0,0,1,1.017.083c.338.053.671.125,1,.184a4.857,4.857,0,0,0,2.018,0c.676-.132,1.34-.375,2.038-.547a13.253,13.253,0,0,1,4.355-.392,11.5,11.5,0,0,1,2.215.411,7.448,7.448,0,0,1,3.8,2.515l.28.372-.12-.048a8.763,8.763,0,0,1,10.136,6.5l-.06-.076a23.986,23.986,0,0,1,2.645,1.4A7.977,7.977,0,0,1,328.79,108a5.177,5.177,0,0,1,.978,2.608,3.567,3.567,0,0,1-.726,2.552l-.007-.126a6.249,6.249,0,0,1,1.732,3.88,6.4,6.4,0,0,1-.792,3.752,6.125,6.125,0,0,1-.5.747,8.242,8.242,0,0,0-.521.673,1.617,1.617,0,0,0-.27.74,4.615,4.615,0,0,0,.02.784,12.382,12.382,0,0,1-.085,2.867,6.007,6.007,0,0,1-.747,2.18,3.7,3.7,0,0,1-1.177,1.223c-.39.256-.735.356-.927.5a1.67,1.67,0,0,0-.275.228.871.871,0,0,1,.259-.252c.191-.15.536-.26.912-.519a3.689,3.689,0,0,0,1.136-1.219,5.951,5.951,0,0,0,.712-2.154,12.386,12.386,0,0,0,.061-2.839,4.7,4.7,0,0,1-.025-.808,1.755,1.755,0,0,1,.286-.8,8.11,8.11,0,0,1,.526-.689,6.01,6.01,0,0,0,.485-.73,6.258,6.258,0,0,0,.754-3.661,6.083,6.083,0,0,0-1.694-3.763l-.061-.06.054-.066a3.377,3.377,0,0,0,.676-2.418,4.987,4.987,0,0,0-.947-2.5,7.771,7.771,0,0,0-2.107-1.88,23.878,23.878,0,0,0-2.625-1.385l-.048-.023-.011-.053a8.549,8.549,0,0,0-9.873-6.322l-.072.017-.048-.064-.27-.359a7.222,7.222,0,0,0-3.684-2.437,11.3,11.3,0,0,0-2.168-.4,13.053,13.053,0,0,0-4.281.381c-.686.168-1.354.412-2.051.548a5.185,5.185,0,0,1-1.057.107,6.2,6.2,0,0,1-1.041-.116c-.339-.061-.67-.133-1-.186a9.133,9.133,0,0,0-.988-.082,7.9,7.9,0,0,0-1.933.211,8.811,8.811,0,0,0-1.779.661,9.968,9.968,0,0,0-4.695,5.053,6.252,6.252,0,0,1-.747,1.456,4.837,4.837,0,0,1-1.193,1.02,9.134,9.134,0,0,0-1.181.866,6.063,6.063,0,0,0-.914,1.037,6.179,6.179,0,0,0-.99,2.32,8.219,8.219,0,0,0-.079,2.211,10.874,10.874,0,0,1,.01,1.884,3.567,3.567,0,0,1-.454,1.435c-.224.377-.456.664-.621.91a4.433,4.433,0,0,0-.347.577c-.068.136-.093.21-.1.208" transform="translate(-159.18 -53.544)" fill="#455a64"/>
            <path id="Trazado_697408" data-name="Trazado 697408" d="M332.006,97.641c-.012.017-.2-.115-.566-.3a5.083,5.083,0,0,0-1.646-.484,4.769,4.769,0,0,0-2.483.356,4.926,4.926,0,0,0-2.264,2.041,4.177,4.177,0,0,0-.378.854.945.945,0,0,0,.053.8l.184.257-.3-.087a3.126,3.126,0,0,0-2.336.273,3.014,3.014,0,0,0-1.284,1.395,3.292,3.292,0,0,0-.3,1.244c-.011.3.013.468,0,.471s-.018-.04-.034-.119a2.072,2.072,0,0,1-.038-.353,3.153,3.153,0,0,1,1.564-2.805,3.288,3.288,0,0,1,2.491-.318l-.121.17a1.153,1.153,0,0,1-.09-.985,4.349,4.349,0,0,1,.4-.905,5.059,5.059,0,0,1,2.378-2.121,4.824,4.824,0,0,1,2.587-.323,4.723,4.723,0,0,1,1.666.565,3.311,3.311,0,0,1,.4.263c.086.067.13.105.125.112" transform="translate(-180.793 -54.501)" fill="#455a64"/>
            <path id="Trazado_697409" data-name="Trazado 697409" d="M361.759,118.868c.009.01-.081.109-.265.27a4.888,4.888,0,0,1-.856.591,3.609,3.609,0,0,1-1.508.449,2.7,2.7,0,0,1-1.874-.571l.167-.025-.222.309c-.081.1-.171.2-.259.3a4.571,4.571,0,0,1-1.89,1.17,4.683,4.683,0,0,1-1.8.222,4.168,4.168,0,0,1-1.19-.274,1.5,1.5,0,0,1-.393-.212,6.538,6.538,0,0,0,1.592.324,4.787,4.787,0,0,0,1.724-.26,4.506,4.506,0,0,0,1.792-1.128c.082-.1.168-.185.244-.28l.211-.291.075-.1.093.078a2.541,2.541,0,0,0,1.72.544,3.629,3.629,0,0,0,1.448-.382c.771-.387,1.164-.76,1.189-.727" transform="translate(-198.311 -67.03)" fill="#455a64"/>
            <path id="Trazado_697410" data-name="Trazado 697410" d="M368.815,134.055c.007,0,0,.049-.019.139a1.289,1.289,0,0,1-.169.365,2.012,2.012,0,0,1-1.218.806,3.844,3.844,0,0,1-2.157-.239,12.261,12.261,0,0,1-1.191-.473,2.066,2.066,0,0,1-1.041-.953l-.047-.122.178.055a8.651,8.651,0,0,1-2.243,1.34,3.893,3.893,0,0,1-2.122.214,2.8,2.8,0,0,1-1.305-.6,1.724,1.724,0,0,1-.273-.28c-.054-.071-.079-.11-.073-.116s.134.132.4.327a2.918,2.918,0,0,0,1.279.509,3.838,3.838,0,0,0,2.02-.252,8.863,8.863,0,0,0,2.177-1.325l.121-.094.058.149.039.1a1.87,1.87,0,0,0,.931.844c.384.188.787.334,1.162.475a3.8,3.8,0,0,0,2.051.28,2,2,0,0,0,1.183-.7,3.285,3.285,0,0,0,.26-.453" transform="translate(-201.392 -75.203)" fill="#455a64"/>
            <path id="Trazado_697411" data-name="Trazado 697411" d="M391.484,73.128c0,.015-.13,0-.359.063a1.724,1.724,0,0,0-.843.542,2.353,2.353,0,0,0-.572,1.442,6.9,6.9,0,0,0,.278,2.061l.03.121-.126,0a4.3,4.3,0,0,0-2.614.793,3.34,3.34,0,0,0-1.436,2.641,3.1,3.1,0,0,0,1.093,2.518l.254.2-.323,0A3.9,3.9,0,0,0,384,84.755a3.737,3.737,0,0,0-.97,2.317,4.062,4.062,0,0,0,.25,1.669c.142.372.26.558.244.568s-.038-.041-.1-.129a2.718,2.718,0,0,1-.218-.411,3.894,3.894,0,0,1-.321-1.7,3.835,3.835,0,0,1,.969-2.436,4.063,4.063,0,0,1,3.009-1.345l-.069.2a3.3,3.3,0,0,1-1.186-2.7,3.394,3.394,0,0,1,.45-1.626,3.821,3.821,0,0,1,1.087-1.186,4.459,4.459,0,0,1,2.749-.807l-.1.117a6.855,6.855,0,0,1-.247-2.116,2.441,2.441,0,0,1,.645-1.5,1.7,1.7,0,0,1,.911-.524,1.067,1.067,0,0,1,.277-.02c.063,0,.095.009.095.014" transform="translate(-215.915 -41.229)" fill="#455a64"/>
            <path id="Trazado_697412" data-name="Trazado 697412" d="M407.332,108.64a.446.446,0,0,1-.123.072,3.879,3.879,0,0,1-.378.172,5.355,5.355,0,0,1-1.522.342,5.976,5.976,0,0,1-2.372-.29,5.717,5.717,0,0,1-2.544-1.672l.172-.014a4.806,4.806,0,0,1-3.4,2.324,3.645,3.645,0,0,1-3.758-2.007l.2-.008a3.024,3.024,0,0,1-.911,1.28,4.034,4.034,0,0,1-1.24.7,5.548,5.548,0,0,1-2.3.237,10.96,10.96,0,0,1-1.483-.243,2.8,2.8,0,0,1-.517-.143,3.539,3.539,0,0,1,.53.075,14.009,14.009,0,0,0,1.479.182,5.567,5.567,0,0,0,2.231-.275,3.272,3.272,0,0,0,2.012-1.882l.09-.253.106.246a3.446,3.446,0,0,0,3.537,1.866,4.625,4.625,0,0,0,3.251-2.208l.076-.124.1.111a5.6,5.6,0,0,0,2.439,1.64,6,6,0,0,0,2.306.329,7.015,7.015,0,0,0,2.031-.457" transform="translate(-218.317 -60.348)" fill="#455a64"/>
            <path id="Trazado_697413" data-name="Trazado 697413" d="M400.542,127.326s-.012.059-.089.137a.771.771,0,0,1-.428.19,3.488,3.488,0,0,1-1.668-.281,4.094,4.094,0,0,1-1.918-1.609,4.194,4.194,0,0,1-.551-3l0-.023.163.125a4.911,4.911,0,0,1-3.027.411,5.46,5.46,0,0,1-2.293-.994,6.081,6.081,0,0,1-1.206-1.173,2.273,2.273,0,0,1-.337-.516,9.112,9.112,0,0,0,1.636,1.558,5.473,5.473,0,0,0,2.235.918,4.778,4.778,0,0,0,2.89-.408l.2-.1-.04.226,0,.022a3.976,3.976,0,0,0,2.31,4.421,3.649,3.649,0,0,0,1.594.341.775.775,0,0,0,.528-.239" transform="translate(-219.469 -68)" fill="#455a64"/>
            <path id="Trazado_697414" data-name="Trazado 697414" d="M364.083,73.7a6.424,6.424,0,0,0-.346,2.319,5.088,5.088,0,0,0,3.023,4.422,5.171,5.171,0,0,0,1.726.449l.14.011-.041.132a6.612,6.612,0,0,0-.281,2.439,6.749,6.749,0,0,0,.427,1.917,4.833,4.833,0,0,0,.307.675.566.566,0,0,0,.4.308.374.374,0,0,0,.3-.092c.054-.053.063-.1.072-.094s.009.049-.042.12a.4.4,0,0,1-.338.143.644.644,0,0,1-.487-.324,4.516,4.516,0,0,1-.347-.683,6.566,6.566,0,0,1-.486-1.955,6.641,6.641,0,0,1,.261-2.52l.1.143a5.3,5.3,0,0,1-1.8-.463,5.363,5.363,0,0,1-2.378-2.116,5.288,5.288,0,0,1-.711-2.505,5.1,5.1,0,0,1,.245-1.739A3.772,3.772,0,0,1,364,73.85c.048-.1.076-.148.083-.145" transform="translate(-205.023 -41.563)" fill="#455a64"/>
            <path id="Trazado_697415" data-name="Trazado 697415" d="M320.207,165.383v-1.2l-12.1-3.893h0c-4.31-1.846-10.464-.779-14.075,1.449l-3.138.083.032-.045c-3.587-2.83-9.638-3.4-14.331-1.358l.115.5,0,0c.01.031.028.106.053.212l.1.45c.632,2.779,1.379,5.727,2.124,6.514.5.532,2.2.823,3.567.974.525.058,1,.1,1.348.119.417.028,4.092.257,4.721-.307.683-.612,1.849-5.1,2.19-6.467l3.217-.071c.382,1.076,1.036,5.908,2.581,6.88,1.608,1.012,8.312.679,9.079-.452a51.426,51.426,0,0,0,2.858-7.036l.068-.131Zm-31.945,3.04c-.683.54-8.006.16-8.873-.757-.734-.776-1.636-4.741-1.975-6.234,0-.023-.009-.041-.014-.062,4.186-1.593,9.639-1.084,12.761,1.314-.607,2.361-1.506,5.387-1.9,5.738m16.971,0c-.481.708-6.734,1.283-8.328.28-1.1-.695-1.691-4.066-2.19-6,3.527-2.112,9.557-3,13.387-1.1a41.236,41.236,0,0,1-2.869,6.823" transform="translate(-155.976 -89.772)" fill="#263238"/>
            <g id="Grupo_952126" data-name="Grupo 952126" transform="translate(139.383 71.346)" opacity="0.3">
              <g id="Grupo_952125" data-name="Grupo 952125">
                <g id="Grupo_952124" data-name="Grupo 952124" clip-path="url(#clip-path-37)">
                  <path id="Trazado_697416" data-name="Trazado 697416" d="M319.621,165.585s.658,4.731,2.018,4.95,2.983-6.932,2.983-6.932-4.138.821-5,1.982" transform="translate(-319.621 -163.603)" fill="#fff"/>
                </g>
              </g>
            </g>
            <g id="Grupo_952129" data-name="Grupo 952129" transform="translate(121.962 70.997)" opacity="0.3">
              <g id="Grupo_952128" data-name="Grupo 952128">
                <g id="Grupo_952127" data-name="Grupo 952127" clip-path="url(#clip-path-38)">
                  <path id="Trazado_697417" data-name="Trazado 697417" d="M279.672,163.617s.658,5.37,2.018,5.589,4.1-6.328,4.1-6.328-5.251-.421-6.114.739" transform="translate(-279.672 -162.803)" fill="#fff"/>
                </g>
              </g>
            </g>
            <path id="Trazado_697418" data-name="Trazado 697418" d="M358.767,302.362c-1.441-1.513-6.017-5.323-7.369-5.86s-5.56,9.35-5.829,11.944,1.2,5.989,3.019,8.262c2.6,3.243,8.891,7.224,11.27,8.332,2.4,1.119,9.153,4.984,13.259-3.733s3.576-8.648,4.728-12.238c1.788-5.566,3.265-16.537,4.161-23.213a108.985,108.985,0,0,0,.745-18.4c-.288-5.4-1.8-10.268-5.435-13.612-3.052-2.811-13.24,21.837-13.24,22.053s-4.692,26.41-4.692,26.41" transform="translate(-194.852 -143.02)" fill="#455a64"/>
            <path id="Trazado_697419" data-name="Trazado 697419" d="M291.1,289.341s-.976-1.675,2.558-2.2a14.336,14.336,0,0,1,6.874.406,30.193,30.193,0,0,1,5.582,5.334,86.247,86.247,0,0,1,2.566,8.786l2.18,3.086-5.124,9.194a15.388,15.388,0,0,0-1.532-1.543c-.766-.643-3.074-1.414-3.539-3.343a23.058,23.058,0,0,0-1.88-4.5s-8.6-1.865-9.365-2.25-.707-1.543-.707-1.543a22.161,22.161,0,0,1-2.678-.466,1.388,1.388,0,0,1,.263-2.564c1.826-.836,7.892-1.279,8.717-1.279s4.771.515,4.771.515-5.179-1.171-6.769-1.3-5.176-.048-5.751-.181a1.372,1.372,0,0,1,.151-2.47,15.854,15.854,0,0,1,4.829-1,63.608,63.608,0,0,1,7.81.763l-1.987-2.211a34.743,34.743,0,0,0-4.9-.538,3.65,3.65,0,0,1-2.071-.7" transform="translate(-160.87 -161.805)" fill="#ffc09d"/>
            <path id="Trazado_697420" data-name="Trazado 697420" d="M326.774,330.4l14.412,21.572s6.086-7.453,6.551-12.877l.267-2.666-16.127-15.709Z" transform="translate(-184.271 -180.859)" fill="#ffc09d"/>
            <path id="Trazado_697421" data-name="Trazado 697421" d="M303.489,317.939a15.545,15.545,0,0,1-1.564-.172c-.962-.114-2.3-.232-3.775-.255a37.731,37.731,0,0,0-3.781.14,15.433,15.433,0,0,1-1.568.125,1.556,1.556,0,0,1,.411-.105c.267-.055.657-.117,1.14-.179a27.312,27.312,0,0,1,7.6.116c.481.077.868.151,1.134.214a1.546,1.546,0,0,1,.408.118" transform="translate(-165.114 -178.918)" fill="#ff9b6c"/>
            <path id="Trazado_697422" data-name="Trazado 697422" d="M378.955,352.018a3.329,3.329,0,0,1-.531-.344l-1.4-1c-1.173-.856-2.785-2.052-4.557-3.383a15.084,15.084,0,0,0-2.6-1.679,6.821,6.821,0,0,0-1.266-.447,6.035,6.035,0,0,0-1.153-.193,2.668,2.668,0,0,0-1.61.375c-.336.215-.485.39-.5.373s.028-.05.1-.132a1.939,1.939,0,0,1,.353-.315,2.65,2.65,0,0,1,1.665-.461,5.868,5.868,0,0,1,1.191.171,6.791,6.791,0,0,1,1.308.44,14.455,14.455,0,0,1,2.65,1.688c1.772,1.331,3.368,2.547,4.517,3.436l1.354,1.062a3.356,3.356,0,0,1,.478.414" transform="translate(-206.019 -194.439)" fill="#263238"/>
            <path id="Trazado_697423" data-name="Trazado 697423" d="M396.795,354.258c-.032.029-.536-.556-1.473-1.367a17.21,17.21,0,0,0-1.732-1.31,16.891,16.891,0,0,0-4.82-2.192,17.25,17.25,0,0,0-2.126-.444c-1.226-.173-2-.168-2-.212a2.481,2.481,0,0,1,.542-.031,6.267,6.267,0,0,1,.636.015c.248.017.531.024.841.068a15.179,15.179,0,0,1,2.16.4,15.783,15.783,0,0,1,4.882,2.22,15.177,15.177,0,0,1,1.722,1.364c.237.2.429.413.6.589a6.317,6.317,0,0,1,.429.47,2.507,2.507,0,0,1,.333.428" transform="translate(-216.906 -196.636)" fill="#263238"/>
            <path id="Trazado_697424" data-name="Trazado 697424" d="M397.236,254.48a4.409,4.409,0,0,1-.5.516c-.169.158-.372.355-.594.6s-.492.5-.754.819-.567.652-.858,1.041c-.307.376-.6.806-.909,1.252a22.327,22.327,0,0,0-2.966,6.409c-.137.527-.278,1.027-.366,1.5-.109.473-.178.919-.238,1.328s-.1.779-.137,1.105-.059.608-.07.839a4.4,4.4,0,0,1-.068.717,4.353,4.353,0,0,1-.021-.721c0-.232,0-.516.032-.845s.041-.706.1-1.117.111-.864.213-1.343c.08-.483.216-.989.349-1.522a21.194,21.194,0,0,1,2.994-6.47c.321-.447.618-.877.935-1.251.3-.387.6-.726.886-1.032s.55-.569.784-.8.445-.423.624-.572a4.4,4.4,0,0,1,.563-.451" transform="translate(-219.785 -143.504)" fill="#263238"/>
            <path id="Trazado_697425" data-name="Trazado 697425" d="M358.767,302.362c-1.441-1.513-6.017-5.323-7.369-5.86s-5.56,9.35-5.829,11.944,1.2,5.989,3.019,8.262c2.6,3.243,8.891,7.224,11.27,8.332,2.4,1.119,9.153,4.984,13.259-3.733s3.576-8.648,4.728-12.238c1.788-5.566,3.265-16.537,4.161-23.213a108.985,108.985,0,0,0,.745-18.4c-.288-5.4-1.8-10.268-5.435-13.612-3.052-2.811-13.24,21.837-13.24,22.053s-4.692,26.41-4.692,26.41" transform="translate(-194.852 -143.02)" fill="#455a64"/>
            <path id="Trazado_697426" data-name="Trazado 697426" d="M291.1,289.341s-.976-1.675,2.558-2.2a14.336,14.336,0,0,1,6.874.406,30.193,30.193,0,0,1,5.582,5.334,86.247,86.247,0,0,1,2.566,8.786l2.18,3.086-5.124,9.194a15.388,15.388,0,0,0-1.532-1.543c-.766-.643-3.074-1.414-3.539-3.343a23.058,23.058,0,0,0-1.88-4.5s-8.6-1.865-9.365-2.25-.707-1.543-.707-1.543a22.161,22.161,0,0,1-2.678-.466,1.388,1.388,0,0,1,.263-2.564c1.826-.836,7.892-1.279,8.717-1.279s4.771.515,4.771.515-5.179-1.171-6.769-1.3-5.176-.048-5.751-.181a1.372,1.372,0,0,1,.151-2.47,15.854,15.854,0,0,1,4.829-1,63.608,63.608,0,0,1,7.81.763l-1.987-2.211a34.743,34.743,0,0,0-4.9-.538,3.65,3.65,0,0,1-2.071-.7" transform="translate(-160.87 -161.805)" fill="#ffc09d"/>
            <path id="Trazado_697427" data-name="Trazado 697427" d="M326.774,330.4l14.412,21.572s6.086-7.453,6.551-12.877l.267-2.666-16.127-15.709Z" transform="translate(-184.271 -180.859)" fill="#ffc09d"/>
            <path id="Trazado_697428" data-name="Trazado 697428" d="M303.489,317.939a15.545,15.545,0,0,1-1.564-.172c-.962-.114-2.3-.232-3.775-.255a37.731,37.731,0,0,0-3.781.14,15.433,15.433,0,0,1-1.568.125,1.556,1.556,0,0,1,.411-.105c.267-.055.657-.117,1.14-.179a27.312,27.312,0,0,1,7.6.116c.481.077.868.151,1.134.214a1.546,1.546,0,0,1,.408.118" transform="translate(-165.114 -178.918)" fill="#ff9b6c"/>
            <path id="Trazado_697429" data-name="Trazado 697429" d="M378.955,352.018a3.329,3.329,0,0,1-.531-.344l-1.4-1c-1.173-.856-2.785-2.052-4.557-3.383a15.084,15.084,0,0,0-2.6-1.679,6.821,6.821,0,0,0-1.266-.447,6.035,6.035,0,0,0-1.153-.193,2.668,2.668,0,0,0-1.61.375c-.336.215-.485.39-.5.373s.028-.05.1-.132a1.939,1.939,0,0,1,.353-.315,2.65,2.65,0,0,1,1.665-.461,5.868,5.868,0,0,1,1.191.171,6.791,6.791,0,0,1,1.308.44,14.455,14.455,0,0,1,2.65,1.688c1.772,1.331,3.368,2.547,4.517,3.436l1.354,1.062a3.356,3.356,0,0,1,.478.414" transform="translate(-206.019 -194.439)" fill="#263238"/>
            <path id="Trazado_697430" data-name="Trazado 697430" d="M384.512,304.7a2.042,2.042,0,0,1-.023.352q-.041.376-.109,1c-.108.894-.26,2.146-.446,3.685l-1.556,12.145c-.125.953-.248,1.887-.365,2.781l-.112-.126a21.51,21.51,0,0,1,10.03,2.307,11.457,11.457,0,0,1,2.492,1.781,6.739,6.739,0,0,1,.57.6,1.491,1.491,0,0,1,.182.221c-.017.016-.276-.281-.806-.759a12.19,12.19,0,0,0-2.508-1.71,21.881,21.881,0,0,0-9.959-2.213h-.128l.017-.127c.116-.894.239-1.829.362-2.781l1.622-12.136c.216-1.535.392-2.784.517-3.675l.152-1a2.062,2.062,0,0,1,.068-.346" transform="translate(-215.287 -171.825)" fill="#263238"/>
            <path id="Trazado_697431" data-name="Trazado 697431" d="M397.236,254.48a4.409,4.409,0,0,1-.5.516c-.169.158-.372.355-.594.6s-.492.5-.754.819-.567.652-.858,1.041c-.307.376-.6.806-.909,1.252a22.327,22.327,0,0,0-2.966,6.409c-.137.527-.278,1.027-.366,1.5-.109.473-.178.919-.238,1.328s-.1.779-.137,1.105-.059.608-.07.839a4.4,4.4,0,0,1-.068.717,4.353,4.353,0,0,1-.021-.721c0-.232,0-.516.032-.845s.041-.706.1-1.117.111-.864.213-1.343c.08-.483.216-.989.349-1.522a21.194,21.194,0,0,1,2.994-6.47c.321-.447.618-.877.935-1.251.3-.387.6-.726.886-1.032s.55-.569.784-.8.445-.423.624-.572a4.4,4.4,0,0,1,.563-.451" transform="translate(-219.785 -143.504)" fill="#263238"/>
            <path id="Trazado_697432" data-name="Trazado 697432" d="M229.21,313.417s-3.695-9.132-2.976-12.2a.841.841,0,0,1,1.564-.191l4.811,9.252a4.418,4.418,0,0,1,2.018-2.286,45.865,45.865,0,0,1,4.469-1.4l4.336.542a.912.912,0,0,1,.548,1.535,3.933,3.933,0,0,1-2.613,1.061c-3.144.262-3.965.986-3.965.986l-1.569,2.7s3.313-2.266,4.359-2.354c.815-.068,5.328-.163,7.284-.2A1.7,1.7,0,0,1,249.141,312c.2.621.061,1.33-1.334,1.678,0,0,1.529.792-.55,1.83a28.845,28.845,0,0,1-3.925,1.57l-2.964,2L235.4,322.57l-5.841-4.01s-2.078-2.207-.786-4.049a4.787,4.787,0,0,0,.437-1.095" transform="translate(-127.524 -169.496)" fill="#ffc09d"/>
            <path id="Trazado_697433" data-name="Trazado 697433" d="M254.23,336.755s2.781,2.373,3.391,3.855,1.137,2.988.178,6.562-8.949,0-8.949,0c-.222-1.463-2.013-3.226-4.009-5.029l7.467-5.519Z" transform="translate(-138.068 -189.826)" fill="#ffc09d"/>
            <path id="Trazado_697434" data-name="Trazado 697434" d="M238.664,319.851a4.31,4.31,0,0,1-.452.73c-.29.44-.676,1.06-1.1,1.749a18.516,18.516,0,0,1-1.6,2.455,3.436,3.436,0,0,1,.372-.776c.253-.466.611-1.1,1.032-1.8a10.117,10.117,0,0,1,1.741-2.361" transform="translate(-132.81 -180.366)" fill="#ff9b6c"/>
            <path id="Trazado_697435" data-name="Trazado 697435" d="M262.559,330.391a1.711,1.711,0,0,1-.443.068c-.286.029-.7.063-1.213.1-1.023.077-2.444.157-4,.251a5.624,5.624,0,0,0-3.477,1.677,12.972,12.972,0,0,1-1.291,1.048,1.753,1.753,0,0,1,.3-.331c.2-.2.5-.493.884-.839a11.776,11.776,0,0,1,1.429-1.123,3.828,3.828,0,0,1,.986-.472,6.022,6.022,0,0,1,1.149-.187c1.57-.094,2.984-.148,4.012-.184.513-.017.929-.027,1.217-.028a1.7,1.7,0,0,1,.448.02" transform="translate(-142.18 -186.299)" fill="#ff9b6c"/>
            <path id="Trazado_697436" data-name="Trazado 697436" d="M247.427,330.063c.04.052-.221.308-.48.665s-.43.679-.491.657.024-.406.308-.792.629-.58.663-.53" transform="translate(-138.969 -186.122)" fill="#ff9b6c"/>
            <path id="Trazado_697437" data-name="Trazado 697437" d="M267.073,335.266a2.7,2.7,0,0,1-.752.366c-.478.193-1.15.424-1.884.688-1.475.515-2.618,1.06-2.647,1a9.8,9.8,0,0,1,2.571-1.218c.74-.266,1.418-.473,1.907-.626a3.56,3.56,0,0,1,.805-.215" transform="translate(-147.625 -189.057)" fill="#ff9b6c"/>
          </g>
        </g>
      </g>
    </g>
  </g>
</svg>
