<svg xmlns="http://www.w3.org/2000/svg" xmlns:xlink="http://www.w3.org/1999/xlink" width="243.763" height="216.677" viewBox="0 0 243.763 216.677">
  <defs>
    <clipPath id="clip-path">
      <rect id="Rectángulo_344769" data-name="Rectángulo 344769" width="210.846" height="202.059" fill="none"/>
    </clipPath>
    <filter id="Rectángulo_344755" x="35.943" y="18.299" width="78.668" height="78.668" filterUnits="userSpaceOnUse">
      <feOffset dy="3" input="SourceAlpha"/>
      <feGaussianBlur stdDeviation="3" result="blur"/>
      <feFlood flood-opacity="0.161"/>
      <feComposite operator="in" in2="blur"/>
      <feComposite in="SourceGraphic"/>
    </filter>
    <clipPath id="clip-path-6">
      <rect id="Rectángulo_344761" data-name="Rectángulo 344761" width="5.173" height="30.828" fill="none"/>
    </clipPath>
    <clipPath id="clip-path-7">
      <rect id="Rectángulo_344762" data-name="Rectángulo 344762" width="17.299" height="18.374" fill="none"/>
    </clipPath>
    <clipPath id="clip-path-8">
      <rect id="Rectángulo_344763" data-name="Rectángulo 344763" width="36.825" height="49.37" fill="none"/>
    </clipPath>
    <clipPath id="clip-path-9">
      <rect id="Rectángulo_344764" data-name="Rectángulo 344764" width="12.598" height="16.4" fill="none"/>
    </clipPath>
    <clipPath id="clip-path-10">
      <rect id="Rectángulo_344765" data-name="Rectángulo 344765" width="10.111" height="10.529" fill="none"/>
    </clipPath>
  </defs>
  <g id="Grupo_952326" data-name="Grupo 952326" transform="translate(-1009.577 -3071.575)">
    <g id="Grupo_952325" data-name="Grupo 952325" transform="translate(182.034 -58.191)">
      <path id="Trazado_113636" data-name="Trazado 113636" d="M216.678,257.357A108.339,108.339,0,1,1,108.339,149.018,108.339,108.339,0,0,1,216.678,257.357" transform="translate(846.768 2980.748)" fill="#4db1f0"/>
      <path id="Trazado_113639" data-name="Trazado 113639" d="M627.881,671.772a38.308,38.308,0,1,1-38.308-38.308,38.308,38.308,0,0,1,38.308,38.308" transform="translate(409.143 2596.167)" fill="#fff"/>
      <path id="Trazado_113665" data-name="Trazado 113665" d="M128.318,380.549a2.421,2.421,0,1,1-2.421-2.421,2.421,2.421,0,0,1,2.421,2.421" transform="translate(748.746 2798.868)" fill="#fff"/>
      <path id="Trazado_113666" data-name="Trazado 113666" d="M179.993,380.549a2.421,2.421,0,1,1-2.421-2.421,2.421,2.421,0,0,1,2.421,2.421" transform="translate(707.723 2798.868)" fill="#fff"/>
      <path id="Trazado_113667" data-name="Trazado 113667" d="M231.668,380.549a2.421,2.421,0,1,1-2.421-2.421,2.421,2.421,0,0,1,2.421,2.421" transform="translate(666.7 2798.868)" fill="#fff"/>
      <path id="Trazado_113668" data-name="Trazado 113668" d="M283.343,380.549a2.421,2.421,0,1,1-2.421-2.421,2.421,2.421,0,0,1,2.421,2.421" transform="translate(625.678 2798.868)" fill="#fff"/>
      <path id="Trazado_113669" data-name="Trazado 113669" d="M335.018,380.549a2.421,2.421,0,1,1-2.421-2.421,2.421,2.421,0,0,1,2.421,2.421" transform="translate(584.656 2798.868)" fill="#fff"/>
      <path id="Trazado_113670" data-name="Trazado 113670" d="M128.318,429.875a2.421,2.421,0,1,1-2.421-2.421,2.421,2.421,0,0,1,2.421,2.421" transform="translate(748.746 2759.709)" fill="#fff"/>
      <path id="Trazado_113671" data-name="Trazado 113671" d="M179.993,429.875a2.421,2.421,0,1,1-2.421-2.421,2.421,2.421,0,0,1,2.421,2.421" transform="translate(707.723 2759.709)" fill="#fff"/>
      <path id="Trazado_113672" data-name="Trazado 113672" d="M231.668,429.875a2.421,2.421,0,1,1-2.421-2.421,2.421,2.421,0,0,1,2.421,2.421" transform="translate(666.7 2759.709)" fill="#fff"/>
      <path id="Trazado_113673" data-name="Trazado 113673" d="M283.343,429.875a2.421,2.421,0,1,1-2.421-2.421,2.421,2.421,0,0,1,2.421,2.421" transform="translate(625.678 2759.709)" fill="#fff"/>
      <path id="Trazado_113674" data-name="Trazado 113674" d="M335.018,429.875a2.421,2.421,0,1,1-2.421-2.421,2.421,2.421,0,0,1,2.421,2.421" transform="translate(584.656 2759.709)" fill="#fff"/>
      <path id="Trazado_113675" data-name="Trazado 113675" d="M128.318,479.2a2.421,2.421,0,1,1-2.421-2.421,2.421,2.421,0,0,1,2.421,2.421" transform="translate(748.746 2720.551)" fill="#fff"/>
      <path id="Trazado_113676" data-name="Trazado 113676" d="M179.993,479.2a2.421,2.421,0,1,1-2.421-2.421,2.421,2.421,0,0,1,2.421,2.421" transform="translate(707.723 2720.551)" fill="#fff"/>
      <path id="Trazado_113677" data-name="Trazado 113677" d="M231.668,479.2a2.421,2.421,0,1,1-2.421-2.421,2.421,2.421,0,0,1,2.421,2.421" transform="translate(666.7 2720.551)" fill="#fff"/>
      <path id="Trazado_113678" data-name="Trazado 113678" d="M283.343,479.2a2.421,2.421,0,1,1-2.421-2.421,2.421,2.421,0,0,1,2.421,2.421" transform="translate(625.678 2720.551)" fill="#fff"/>
      <path id="Trazado_113679" data-name="Trazado 113679" d="M335.018,479.2a2.421,2.421,0,1,1-2.421-2.421,2.421,2.421,0,0,1,2.421,2.421" transform="translate(584.656 2720.551)" fill="#fff"/>
      <path id="Trazado_113680" data-name="Trazado 113680" d="M128.318,528.528a2.421,2.421,0,1,1-2.421-2.421,2.421,2.421,0,0,1,2.421,2.421" transform="translate(748.746 2681.394)" fill="#fff"/>
      <path id="Trazado_113681" data-name="Trazado 113681" d="M179.993,528.528a2.421,2.421,0,1,1-2.421-2.421,2.421,2.421,0,0,1,2.421,2.421" transform="translate(707.723 2681.394)" fill="#fff"/>
      <path id="Trazado_113682" data-name="Trazado 113682" d="M231.668,528.528a2.421,2.421,0,1,1-2.421-2.421,2.421,2.421,0,0,1,2.421,2.421" transform="translate(666.7 2681.394)" fill="#fff"/>
      <path id="Trazado_113683" data-name="Trazado 113683" d="M283.343,528.528a2.421,2.421,0,1,1-2.421-2.421,2.421,2.421,0,0,1,2.421,2.421" transform="translate(625.678 2681.394)" fill="#fff"/>
      <path id="Trazado_113684" data-name="Trazado 113684" d="M335.018,528.528a2.421,2.421,0,1,1-2.421-2.421,2.421,2.421,0,0,1,2.421,2.421" transform="translate(584.656 2681.394)" fill="#fff"/>
      <path id="Trazado_113685" data-name="Trazado 113685" d="M128.318,577.854a2.421,2.421,0,1,1-2.421-2.421,2.421,2.421,0,0,1,2.421,2.421" transform="translate(748.746 2642.236)" fill="#fff"/>
      <path id="Trazado_113686" data-name="Trazado 113686" d="M179.993,577.854a2.421,2.421,0,1,1-2.421-2.421,2.421,2.421,0,0,1,2.421,2.421" transform="translate(707.723 2642.236)" fill="#fff"/>
      <path id="Trazado_113687" data-name="Trazado 113687" d="M231.668,577.854a2.421,2.421,0,1,1-2.421-2.421,2.421,2.421,0,0,1,2.421,2.421" transform="translate(666.7 2642.236)" fill="#fff"/>
      <path id="Trazado_113688" data-name="Trazado 113688" d="M283.343,577.854a2.421,2.421,0,1,1-2.421-2.421,2.421,2.421,0,0,1,2.421,2.421" transform="translate(625.678 2642.236)" fill="#fff"/>
      <path id="Trazado_113689" data-name="Trazado 113689" d="M335.018,577.854a2.421,2.421,0,1,1-2.421-2.421,2.421,2.421,0,0,1,2.421,2.421" transform="translate(584.656 2642.236)" fill="#fff"/>
      <path id="Trazado_113690" data-name="Trazado 113690" d="M177.376,0h28.251a4.862,4.862,0,0,1,4.862,4.862v9.691a4.862,4.862,0,0,1-4.862,4.862H177.376a4.862,4.862,0,0,1-4.862-4.862V4.864A4.862,4.862,0,0,1,177.376,0" transform="translate(860.817 3182.757)" fill="#eb9ba8"/>
      <path id="Trazado_113691" data-name="Trazado 113691" d="M210.4,38a2.362,2.362,0,1,1-2.362-2.362A2.362,2.362,0,0,1,210.4,38" transform="translate(834.494 3154.469)" fill="#fff"/>
      <path id="Trazado_113692" data-name="Trazado 113692" d="M257.888,38a2.362,2.362,0,1,1-2.362-2.362A2.362,2.362,0,0,1,257.888,38" transform="translate(796.791 3154.469)" fill="#fff"/>
      <path id="Trazado_113693" data-name="Trazado 113693" d="M305.38,38a2.362,2.362,0,1,1-2.362-2.362A2.362,2.362,0,0,1,305.38,38" transform="translate(759.089 3154.469)" fill="#fff"/>
    </g>
    <g id="Grupo_952324" data-name="Grupo 952324" transform="translate(1009.577 3079)">
      <g id="Grupo_952323" data-name="Grupo 952323" clip-path="url(#clip-path)">
        <rect id="Rectángulo_344738" data-name="Rectángulo 344738" width="42.724" height="44.536" transform="translate(157.517 68.292)" fill="#e0e0e0"/>
        <rect id="Rectángulo_344739" data-name="Rectángulo 344739" width="42.724" height="44.536" transform="translate(154.624 68.292)" fill="#fafafa"/>
        <path id="Trazado_697748" data-name="Trazado 697748" d="M377.269,192.291H334.518V147.728h42.751Zm-42.724-.026h42.7v-44.51h-42.7Z" transform="translate(-179.907 -79.45)" fill="#e0e0e0"/>
        <rect id="Rectángulo_344740" data-name="Rectángulo 344740" width="31.238" height="32.562" transform="translate(160.367 74.279)" fill="#fafafa"/>
        <g id="Grupo_952299" data-name="Grupo 952299">
          <g id="Grupo_952298" data-name="Grupo 952298" clip-path="url(#clip-path)">
            <path id="Trazado_697749" data-name="Trazado 697749" d="M340.338,231.63a5.123,5.123,0,0,1-.771.9c-.5.526-1.2,1.239-1.986,2.013s-1.508,1.464-2.041,1.954a4.986,4.986,0,0,1-.9.752,4.986,4.986,0,0,1,.767-.892c.5-.526,1.2-1.241,1.99-2.017s1.512-1.467,2.044-1.957a4.906,4.906,0,0,1,.9-.748" transform="translate(-179.971 -124.572)" fill="#e0e0e0"/>
            <path id="Trazado_697750" data-name="Trazado 697750" d="M414.557,231.457a5.1,5.1,0,0,1,.9.771c.526.5,1.239,1.2,2.013,1.986s1.464,1.508,1.953,2.041a4.988,4.988,0,0,1,.752.9,4.943,4.943,0,0,1-.892-.766c-.526-.5-1.241-1.2-2.017-1.99s-1.467-1.512-1.957-2.045a4.9,4.9,0,0,1-.748-.9" transform="translate(-222.952 -124.48)" fill="#e0e0e0"/>
            <path id="Trazado_697751" data-name="Trazado 697751" d="M414.372,154.364a5.124,5.124,0,0,1,.771-.9c.5-.526,1.2-1.239,1.986-2.013s1.508-1.464,2.041-1.954a4.978,4.978,0,0,1,.9-.752,4.986,4.986,0,0,1-.767.892c-.5.526-1.2,1.241-1.99,2.017s-1.512,1.467-2.045,1.957a4.9,4.9,0,0,1-.9.748" transform="translate(-222.853 -79.998)" fill="#e0e0e0"/>
            <path id="Trazado_697752" data-name="Trazado 697752" d="M340.253,154.438a5.1,5.1,0,0,1-.9-.771c-.526-.5-1.239-1.2-2.013-1.986s-1.464-1.508-1.954-2.041a4.992,4.992,0,0,1-.752-.9,4.97,4.97,0,0,1,.892.766c.526.5,1.241,1.2,2.017,1.99s1.467,1.512,1.957,2.045a4.875,4.875,0,0,1,.748.9" transform="translate(-179.972 -79.992)" fill="#e0e0e0"/>
            <path id="Trazado_697753" data-name="Trazado 697753" d="M377.964,193.112a1.473,1.473,0,0,1-.007-.158c0-.111,0-.261-.007-.455,0-.408-.008-1-.014-1.758-.007-1.542-.018-3.787-.031-6.636-.015-5.7-.036-13.828-.061-23.555l.121.12-31.149.018h0l.138-.138c-.007,11.952-.014,23.133-.019,32.562l-.119-.119,22.556.061,6.336.031,1.676.014.433.007a1.442,1.442,0,0,1,.151.006.954.954,0,0,1-.138.007l-.42.006-1.654.014-6.309.031-22.632.061h-.119v-.119c-.006-9.43-.012-20.61-.019-32.562v-.138h.141l31.149.018h.121v.121c-.025,9.76-.047,17.911-.061,23.633-.014,2.838-.024,5.073-.032,6.609q-.009,1.129-.014,1.735c0,.188-.006.334-.007.441a1.065,1.065,0,0,1-.007.145" transform="translate(-186.445 -86.271)" fill="#e0e0e0"/>
            <rect id="Rectángulo_344741" data-name="Rectángulo 344741" width="10.423" height="10.423" transform="translate(170.774 85.348)" fill="#ebebeb"/>
            <path id="Trazado_697754" data-name="Trazado 697754" d="M68.943,339.4c-.041.05-.378-.153-.754-.454s-.648-.586-.608-.637.379.153.755.454.648.587.608.637" transform="translate(-36.343 -181.941)" fill="#e0e0e0"/>
            <path id="Trazado_697755" data-name="Trazado 697755" d="M79.89,299.071a11.873,11.873,0,0,0-.35-4.264,3.749,3.749,0,0,0-7.051-.856,11.81,11.81,0,0,0-1.473,4.646,164.038,164.038,0,0,0-2.011,33.725l6.561.92c2.881-11.773,3.8-22.063,4.324-34.172" transform="translate(-37.028 -156.954)" fill="#ebebeb"/>
            <path id="Trazado_697756" data-name="Trazado 697756" d="M78.106,291.867a.382.382,0,0,1-.03.1l-.109.3-.437,1.133c-.092.247-.213.514-.311.82l-.318.994-.367,1.141-.339,1.3a57.082,57.082,0,0,0-1.267,6.492c-.355,2.467-.588,5.2-.771,8.071-.336,5.748-.388,10.966-.536,14.739-.07,1.887-.135,3.413-.207,4.467q-.052.767-.082,1.213c-.011.127-.02.23-.027.315a.369.369,0,0,1-.017.107.363.363,0,0,1-.007-.108c0-.085,0-.189,0-.316.009-.3.022-.7.038-1.215.044-1.054.084-2.581.132-4.468.106-3.772.132-8.99.468-14.748.183-2.876.423-5.615.791-8.087a54.373,54.373,0,0,1,1.321-6.5l.356-1.3q.205-.6.386-1.14l.338-.99c.1-.3.232-.57.331-.815l.479-1.119.13-.288a.356.356,0,0,1,.051-.095" transform="translate(-39.411 -156.969)" fill="#e0e0e0"/>
            <path id="Trazado_697757" data-name="Trazado 697757" d="M83.248,291.875a4.692,4.692,0,0,1,.8,1.357,10.045,10.045,0,0,1,.6,4.244c-.175,3.625-.5,8.62-.93,14.136s-.915,10.5-1.3,14.107c-.194,1.8-.361,3.259-.485,4.266q-.094.731-.149,1.158c-.018.12-.032.219-.044.3a.329.329,0,0,1-.023.1.345.345,0,0,1,0-.1c.006-.082.013-.182.022-.3q.039-.429.1-1.162c.1-1.031.239-2.485.41-4.272.345-3.608.8-8.594,1.233-14.109s.782-10.509,1-14.123a10.269,10.269,0,0,0-.517-4.2,8.851,8.851,0,0,0-.717-1.391" transform="translate(-43.945 -156.974)" fill="#e0e0e0"/>
            <path id="Trazado_697758" data-name="Trazado 697758" d="M92.075,327.59a7.041,7.041,0,0,1-2.408-.864,7.042,7.042,0,0,1,2.408.864" transform="translate(-48.224 -175.709)" fill="#e0e0e0"/>
            <path id="Trazado_697759" data-name="Trazado 697759" d="M93.722,314.133a7.809,7.809,0,0,1-2.462,1.1,7.821,7.821,0,0,1,2.462-1.1" transform="translate(-49.08 -168.939)" fill="#e0e0e0"/>
            <path id="Trazado_697760" data-name="Trazado 697760" d="M93.443,302.1a4.091,4.091,0,0,1-1.94-.134,4.091,4.091,0,0,1,1.94.134" transform="translate(-49.211 -162.366)" fill="#e0e0e0"/>
            <path id="Trazado_697761" data-name="Trazado 697761" d="M79.78,292.764c-.055.035-.342-.324-.642-.8s-.5-.89-.443-.924.342.324.642.8a2.321,2.321,0,0,1,.443.924" transform="translate(-42.318 -156.523)" fill="#e0e0e0"/>
            <path id="Trazado_697762" data-name="Trazado 697762" d="M74.05,301.751a3.739,3.739,0,0,1-1.859-.04,3.754,3.754,0,0,1,1.859.04" transform="translate(-38.825 -162.21)" fill="#e0e0e0"/>
            <path id="Trazado_697763" data-name="Trazado 697763" d="M70.556,315.3a2.278,2.278,0,0,1-.98-.269c-.518-.208-.917-.427-.893-.487a2.283,2.283,0,0,1,.98.269c.518.208.917.426.893.486" transform="translate(-36.938 -169.157)" fill="#e0e0e0"/>
            <path id="Trazado_697764" data-name="Trazado 697764" d="M70.367,328.171c.013.063-.361.2-.835.295s-.869.129-.883.066.361-.2.835-.295.869-.129.883-.066" transform="translate(-36.92 -176.476)" fill="#e0e0e0"/>
            <path id="Trazado_697765" data-name="Trazado 697765" d="M68.62,347.818c.012.064-.385.188-.886.278a1.912,1.912,0,0,1-.928.047c-.012-.064.385-.188.886-.278a1.913,1.913,0,0,1,.928-.047" transform="translate(-35.929 -187.041)" fill="#e0e0e0"/>
            <path id="Trazado_697766" data-name="Trazado 697766" d="M67.794,358.693c.03.057-.3.292-.739.524s-.818.373-.849.316.3-.292.739-.524.819-.373.849-.316" transform="translate(-35.606 -192.902)" fill="#e0e0e0"/>
            <path id="Trazado_697767" data-name="Trazado 697767" d="M77.229,368.815c-.056.032-.345-.366-.644-.889a2.639,2.639,0,0,1-.44-1.005c.056-.032.344.366.644.889a2.639,2.639,0,0,1,.441,1.005" transform="translate(-40.946 -197.333)" fill="#e0e0e0"/>
            <path id="Trazado_697768" data-name="Trazado 697768" d="M79.193,350.555c.045.046-.276.434-.717.867s-.836.746-.881.7.276-.434.717-.868.836-.746.881-.7" transform="translate(-41.729 -188.53)" fill="#e0e0e0"/>
            <path id="Trazado_697769" data-name="Trazado 697769" d="M79.136,338.363c-.048.044-.346-.2-.666-.546s-.541-.661-.494-.705.346.2.666.546.541.661.494.705" transform="translate(-41.933 -181.3)" fill="#e0e0e0"/>
            <path id="Trazado_697770" data-name="Trazado 697770" d="M80.648,326.1c.048.043-.22.421-.6.843s-.724.729-.772.686.22-.421.6-.843.724-.729.772-.686" transform="translate(-42.633 -175.38)" fill="#e0e0e0"/>
            <path id="Trazado_697771" data-name="Trazado 697771" d="M81.483,314.427c-.045.046-.419-.247-.834-.655s-.715-.777-.67-.823.419.247.835.656.715.776.67.823" transform="translate(-43.011 -168.305)" fill="#e0e0e0"/>
            <path id="Trazado_697772" data-name="Trazado 697772" d="M83.962,302.695a2.291,2.291,0,0,1-.419.931c-.287.482-.565.844-.62.811a2.3,2.3,0,0,1,.419-.931c.287-.481.565-.844.62-.811" transform="translate(-44.591 -162.791)" fill="#e0e0e0"/>
            <path id="Trazado_697773" data-name="Trazado 697773" d="M87.723,290.224a2.225,2.225,0,0,1-.37.932c-.262.484-.52.851-.577.82a2.22,2.22,0,0,1,.37-.932c.262-.484.52-.851.577-.82" transform="translate(-46.663 -156.085)" fill="#e0e0e0"/>
            <path id="Trazado_697774" data-name="Trazado 697774" d="M91.5,295.87c.028.058-.234.242-.586.41s-.66.257-.687.2.234-.242.586-.41.66-.257.687-.2" transform="translate(-48.525 -159.113)" fill="#e0e0e0"/>
            <path id="Trazado_697775" data-name="Trazado 697775" d="M90.3,339.478a4,4,0,0,1-2.4-1.022,6.433,6.433,0,0,1,1.2.5,6.494,6.494,0,0,1,1.191.526" transform="translate(-47.272 -182.021)" fill="#e0e0e0"/>
            <path id="Trazado_697776" data-name="Trazado 697776" d="M89.284,350.122c.012.063-.383.193-.882.29a1.911,1.911,0,0,1-.927.059c-.012-.063.383-.193.883-.289a1.914,1.914,0,0,1,.927-.06" transform="translate(-47.045 -188.281)" fill="#e0e0e0"/>
            <path id="Trazado_697777" data-name="Trazado 697777" d="M87.4,364.039a3.72,3.72,0,0,1-1.626-2.05,258.852,258.852,0,0,0,1.626,2.05" transform="translate(-46.128 -194.681)" fill="#e0e0e0"/>
            <path id="Trazado_697778" data-name="Trazado 697778" d="M66.485,372.52c-.042-.049.225-.346.6-.663s.706-.534.748-.485-.225.346-.6.663-.705.534-.747.485" transform="translate(-35.754 -199.724)" fill="#e0e0e0"/>
            <path id="Trazado_697779" data-name="Trazado 697779" d="M53.961,334.982c-.427-1.333-1.229-2.888-2.628-2.908a2.326,2.326,0,0,0-1.968,1.317,4.862,4.862,0,0,0-.532,2.414,62.9,62.9,0,0,0,3.009,17.474h5.122a60.858,60.858,0,0,0-3-18.3" transform="translate(-26.261 -178.593)" fill="#ebebeb"/>
            <path id="Trazado_697780" data-name="Trazado 697780" d="M29.646,314.907a5.694,5.694,0,0,0-5.333-4.554c-2.264.4-3.142,2.626-3.411,4.909a16.246,16.246,0,0,0,1.14,6.744L28.785,343.1l6.372-.7c-2.017-9.418-3.175-18.148-5.511-27.492" transform="translate(-11.21 -166.911)" fill="#ebebeb"/>
            <path id="Trazado_697781" data-name="Trazado 697781" d="M53.248,332.075a5.427,5.427,0,0,0-.434.725,4.783,4.783,0,0,0-.24,2.265c.1.973.211,2.146.374,3.431s.4,2.7.687,4.168c.579,2.943,1.231,5.583,1.646,7.508.21.962.368,1.743.468,2.285l.107.625a.811.811,0,0,1,.022.221.8.8,0,0,1-.068-.211c-.041-.167-.09-.371-.15-.616l-.54-2.267c-.455-1.913-1.133-4.548-1.714-7.5-.288-1.476-.515-2.891-.671-4.186-.081-.647-.135-1.264-.188-1.841s-.11-1.111-.137-1.605a4.652,4.652,0,0,1,.322-2.314,2.026,2.026,0,0,1,.517-.687" transform="translate(-28.176 -178.594)" fill="#e0e0e0"/>
            <path id="Trazado_697782" data-name="Trazado 697782" d="M26.3,309.961a8.452,8.452,0,0,0-.77,1.035,7.273,7.273,0,0,0-.97,3.334,15.431,15.431,0,0,0,.788,5.13l1.818,6.162,3.262,11.211c.4,1.419.728,2.576.963,3.4l.251.929a1.879,1.879,0,0,1,.072.328,1.788,1.788,0,0,1-.117-.315l-.293-.917-1.034-3.384-3.327-11.192-1.8-6.169a15.236,15.236,0,0,1-.746-5.2,7.145,7.145,0,0,1,1.058-3.372,3.931,3.931,0,0,1,.847-.986" transform="translate(-13.108 -166.7)" fill="#e0e0e0"/>
            <path id="Trazado_697783" data-name="Trazado 697783" d="M37.413,341.657a1.807,1.807,0,0,1-.144-.306c-.084-.2-.22-.5-.363-.9-.3-.783-.693-1.937-1.1-3.384s-.8-3.192-1.188-5.139l-1.2-6.339c-.443-2.243-.936-4.365-1.51-6.26a34.844,34.844,0,0,0-1.858-4.91,26.092,26.092,0,0,0-1.718-3.1c-.219-.357-.418-.615-.537-.8a1.792,1.792,0,0,1-.178-.287,1.865,1.865,0,0,1,.216.259c.131.177.343.428.575.778a23.127,23.127,0,0,1,1.791,3.074,33.249,33.249,0,0,1,1.915,4.919,62.988,62.988,0,0,1,1.533,6.277c.419,2.249.818,4.391,1.182,6.343s.752,3.69,1.136,5.138.745,2.605,1.022,3.4c.13.4.252.7.321.91a1.847,1.847,0,0,1,.1.323" transform="translate(-14.855 -166.85)" fill="#e0e0e0"/>
            <path id="Trazado_697784" data-name="Trazado 697784" d="M21.816,333.254c.015.063-.331.2-.774.308s-.814.144-.83.081.331-.2.774-.308.814-.144.83-.081" transform="translate(-10.87 -179.211)" fill="#e0e0e0"/>
            <path id="Trazado_697785" data-name="Trazado 697785" d="M19.714,323.738a3.155,3.155,0,0,1-1.075.116,3.154,3.154,0,0,1-1.081-.032,2.206,2.206,0,0,1,1.071-.2,2.2,2.2,0,0,1,1.084.118" transform="translate(-9.443 -174.044)" fill="#e0e0e0"/>
            <path id="Trazado_697786" data-name="Trazado 697786" d="M22.147,313.9c-.042.049-.388-.176-.773-.5s-.663-.632-.622-.681.388.176.773.5.664.631.622.681" transform="translate(-11.159 -168.18)" fill="#e0e0e0"/>
            <path id="Trazado_697787" data-name="Trazado 697787" d="M27.751,307.329c.065.015.047.324.037.7s-.012.685-.077.7-.169-.3-.157-.7.135-.707.2-.692" transform="translate(-14.818 -165.285)" fill="#e0e0e0"/>
            <path id="Trazado_697788" data-name="Trazado 697788" d="M35.531,311.074c.053.037-.1.351-.348.7s-.487.6-.54.567.1-.351.348-.7.487-.6.54-.567" transform="translate(-18.626 -167.297)" fill="#e0e0e0"/>
            <path id="Trazado_697789" data-name="Trazado 697789" d="M40.334,320.747c.024.06-.306.251-.737.427s-.8.27-.825.21.305-.251.737-.427.8-.27.825-.21" transform="translate(-20.851 -172.491)" fill="#e0e0e0"/>
            <path id="Trazado_697790" data-name="Trazado 697790" d="M43.08,330.72a2.94,2.94,0,0,1-2.112.479,4.214,4.214,0,0,1,1.05-.267,4.193,4.193,0,0,1,1.062-.212" transform="translate(-22.033 -177.857)" fill="#e0e0e0"/>
            <path id="Trazado_697791" data-name="Trazado 697791" d="M29.97,326.332c-.062-.019-.017-.338.1-.711s.262-.66.324-.641.017.337-.1.711-.262.66-.324.641" transform="translate(-16.103 -174.777)" fill="#e0e0e0"/>
            <path id="Trazado_697792" data-name="Trazado 697792" d="M32.152,338.3a2.209,2.209,0,0,1,.288-.958c.218-.5.444-.89.5-.865a2.2,2.2,0,0,1-.288.958c-.219.5-.444.89-.5.864" transform="translate(-17.284 -180.96)" fill="#e0e0e0"/>
            <path id="Trazado_697793" data-name="Trazado 697793" d="M24.736,343.165a2.316,2.316,0,0,1-.917-.2c-.489-.153-.883-.293-.869-.357a1.722,1.722,0,0,1,.939.134c.5.156.872.367.848.425" transform="translate(-12.342 -184.242)" fill="#e0e0e0"/>
            <path id="Trazado_697794" data-name="Trazado 697794" d="M28.321,354.042c.037.053-.235.312-.61.579s-.709.441-.746.388.235-.312.61-.579.709-.441.746-.388" transform="translate(-14.5 -190.403)" fill="#e0e0e0"/>
            <path id="Trazado_697795" data-name="Trazado 697795" d="M30.557,364.19c.015.063-.322.2-.754.3s-.794.139-.809.076.322-.2.754-.3.795-.139.81-.076" transform="translate(-15.593 -195.849)" fill="#e0e0e0"/>
            <path id="Trazado_697796" data-name="Trazado 697796" d="M44.091,339.221c.033.054-.256.285-.677.442s-.789.177-.8.114.318-.182.718-.334.726-.28.759-.223" transform="translate(-22.918 -182.429)" fill="#e0e0e0"/>
            <path id="Trazado_697797" data-name="Trazado 697797" d="M46.055,354.26c-.028.059-.372-.045-.768-.232s-.7-.385-.669-.444.372.045.769.232.7.385.668.444" transform="translate(-23.995 -190.153)" fill="#e0e0e0"/>
            <path id="Trazado_697798" data-name="Trazado 697798" d="M48.854,365.488a2.429,2.429,0,0,1-1.015-.272c-.537-.21-.953-.43-.929-.49a2.43,2.43,0,0,1,1.015.272,2.429,2.429,0,0,1,.929.49" transform="translate(-25.229 -196.145)" fill="#e0e0e0"/>
            <path id="Trazado_697799" data-name="Trazado 697799" d="M32.918,373.639c-.032-.059.386-.34.869-.721s.856-.718.906-.673-.258.464-.761.858a2.106,2.106,0,0,1-1.014.537" transform="translate(-17.703 -200.195)" fill="#e0e0e0"/>
            <path id="Trazado_697800" data-name="Trazado 697800" d="M41.179,367.73c-.067.008-.157-.344-.317-.753s-.326-.731-.272-.77.321.243.49.685.16.832.1.837" transform="translate(-21.825 -196.949)" fill="#e0e0e0"/>
            <path id="Trazado_697801" data-name="Trazado 697801" d="M38.266,354.987c-.038.053-.305-.075-.6-.284s-.5-.422-.46-.475.305.075.6.285.5.422.46.475" transform="translate(-20.009 -190.501)" fill="#e0e0e0"/>
            <path id="Trazado_697802" data-name="Trazado 697802" d="M58.859,334.524c.038.052-.222.309-.581.575s-.683.439-.721.386.222-.309.582-.575.682-.438.721-.386" transform="translate(-30.953 -179.906)" fill="#e0e0e0"/>
            <path id="Trazado_697803" data-name="Trazado 697803" d="M61.462,342.883c.006.063-.4.148-.906.093s-.885-.224-.866-.284.411,0,.891.051.876.074.881.14" transform="translate(-32.102 -184.289)" fill="#e0e0e0"/>
            <path id="Trazado_697804" data-name="Trazado 697804" d="M47.993,345.021c.014.062-.364.2-.851.229s-.88-.051-.874-.114.39-.088.859-.12.853-.06.867.005" transform="translate(-24.883 -185.535)" fill="#e0e0e0"/>
            <path id="Trazado_697805" data-name="Trazado 697805" d="M49.506,336.166c0,.062-.386.072-.8-.121s-.66-.487-.615-.531.332.146.713.318.714.268.706.334" transform="translate(-25.859 -180.439)" fill="#e0e0e0"/>
            <path id="Trazado_697806" data-name="Trazado 697806" d="M62.8,351.173c-.035.055-.425-.129-.873-.411s-.782-.555-.748-.609.425.129.873.411.782.555.748.609" transform="translate(-32.9 -188.311)" fill="#e0e0e0"/>
            <rect id="Rectángulo_344742" data-name="Rectángulo 344742" width="33.35" height="5.911" transform="translate(11.8 174.018)" fill="#e0e0e0"/>
            <path id="Trazado_697807" data-name="Trazado 697807" d="M30.919,386.761l4.055,17.663H54.851l4.437-17.663Z" transform="translate(-16.629 -208.004)" fill="#e0e0e0"/>
            <path id="Trazado_697808" data-name="Trazado 697808" d="M58.548,389.177c0,.065-7.523.117-16.8.117s-16.8-.053-16.8-.117,7.521-.117,16.8-.117,16.8.053,16.8.117" transform="translate(-13.416 -209.241)" fill="#ebebeb"/>
            <path id="Trazado_697809" data-name="Trazado 697809" d="M56.552,343.816c-.055.034-.283-.231-.509-.593s-.365-.684-.311-.718.283.231.509.593.365.683.31.717" transform="translate(-29.967 -184.202)" fill="#e0e0e0"/>
            <path id="Trazado_697810" data-name="Trazado 697810" d="M57.521,353.631c-.061-.02.017-.422.175-.9s.336-.844.4-.824-.017.422-.175.9-.336.844-.4.824" transform="translate(-30.924 -189.261)" fill="#e0e0e0"/>
            <path id="Trazado_697811" data-name="Trazado 697811" d="M60,364.243c-.058.028-.307-.371-.556-.892a2.431,2.431,0,0,1-.345-.992c.058-.028.307.371.556.891a2.43,2.43,0,0,1,.345.993" transform="translate(-31.779 -194.88)" fill="#e0e0e0"/>
            <path id="Trazado_697812" data-name="Trazado 697812" d="M53.437,373.693c-.049-.043.15-.352.445-.691s.572-.58.621-.537-.15.352-.445.691-.572.58-.621.537" transform="translate(-28.735 -200.313)" fill="#e0e0e0"/>
            <path id="Trazado_697813" data-name="Trazado 697813" d="M50.226,359.009c-.012.064-.333.061-.717-.007s-.687-.175-.676-.238.332-.06.716.007.687.175.677.238" transform="translate(-26.263 -192.922)" fill="#e0e0e0"/>
            <rect id="Rectángulo_344743" data-name="Rectángulo 344743" width="5.325" height="26.493" transform="translate(175.573 9.908) rotate(-0.308)" fill="#e0e0e0"/>
            <rect id="Rectángulo_344744" data-name="Rectángulo 344744" width="13.788" height="14.626" transform="translate(129.448 10.022) rotate(-0.307)" fill="#ebebeb"/>
            <rect id="Rectángulo_344745" data-name="Rectángulo 344745" width="13.788" height="14.626" transform="translate(143.171 9.949) rotate(-0.307)" fill="#f5f5f5"/>
            <path id="Trazado_697814" data-name="Trazado 697814" d="M279.981,29.912c9.163.076,18.348.022,27.51-.127a.147.147,0,0,0,0-.293c-9.163-.05-18.348-.006-27.51.168a.126.126,0,0,0,0,.251" transform="translate(-150.511 -15.851)" fill="#e0e0e0"/>
            <rect id="Rectángulo_344746" data-name="Rectángulo 344746" width="25.051" height="11.919" transform="translate(120.852 24.464) rotate(-0.307)" fill="#ebebeb"/>
            <rect id="Rectángulo_344747" data-name="Rectángulo 344747" width="25.051" height="11.919" transform="translate(145.783 24.331) rotate(-0.307)" fill="#f5f5f5"/>
            <path id="Trazado_697815" data-name="Trazado 697815" d="M261.374,59.422c16.642.189,33.341.019,49.982-.247a.147.147,0,0,0,0-.293c-16.643-.088-33.343-.078-49.982.289a.126.126,0,0,0,0,.251" transform="translate(-140.504 -31.643)" fill="#e0e0e0"/>
            <rect id="Rectángulo_344748" data-name="Rectángulo 344748" width="97.052" height="4.27" transform="translate(111.502 36.383)" fill="#e0e0e0"/>
            <rect id="Rectángulo_344749" data-name="Rectángulo 344749" width="3.94" height="14.571" transform="translate(127.391 38.437)" fill="#e0e0e0"/>
            <rect id="Rectángulo_344750" data-name="Rectángulo 344750" width="3.94" height="14.571" transform="translate(186.204 38.437)" fill="#e0e0e0"/>
            <rect id="Rectángulo_344751" data-name="Rectángulo 344751" width="5.324" height="36.438" transform="translate(180.769 0.028) rotate(-0.308)" fill="#ebebeb"/>
            <rect id="Rectángulo_344752" data-name="Rectángulo 344752" width="8.273" height="29.529" transform="matrix(1, -0.005, 0.005, 1, 186.14, 6.827)" fill="#f5f5f5"/>
            <path id="Trazado_697816" data-name="Trazado 697816" d="M410.887,26.816a30,30,0,0,1-4.136.143,30,30,0,0,1-4.137-.143,59.786,59.786,0,0,1,8.273,0" transform="translate(-216.53 -14.345)" fill="#e0e0e0"/>
            <path id="Trazado_697817" data-name="Trazado 697817" d="M410.887,24.133a29.862,29.862,0,0,1-4.136.144,29.869,29.869,0,0,1-4.137-.144,59.978,59.978,0,0,1,8.273,0" transform="translate(-216.53 -12.902)" fill="#e0e0e0"/>
            <path id="Trazado_697818" data-name="Trazado 697818" d="M410.887,68.783a59.785,59.785,0,0,1-8.273,0,59.785,59.785,0,0,1,8.273,0" transform="translate(-216.53 -36.915)" fill="#e0e0e0"/>
            <path id="Trazado_697819" data-name="Trazado 697819" d="M410.887,66.1a59.785,59.785,0,0,1-8.273,0,59.785,59.785,0,0,1,8.273,0" transform="translate(-216.53 -35.472)" fill="#e0e0e0"/>
            <path id="Trazado_697820" data-name="Trazado 697820" d="M411.686,44.927c-.079,0-.143-2.979-.143-6.653s.064-6.654.143-6.654.143,2.978.143,6.654-.064,6.653-.143,6.653" transform="translate(-221.332 -17.006)" fill="#e0e0e0"/>
            <rect id="Rectángulo_344753" data-name="Rectángulo 344753" width="9.005" height="22.288" transform="translate(194.447 14.033)" fill="#ebebeb"/>
            <path id="Trazado_697821" data-name="Trazado 697821" d="M396.456,11.679a1.53,1.53,0,1,1-1.53-1.53,1.53,1.53,0,0,1,1.53,1.53" transform="translate(-211.572 -5.458)" fill="#e0e0e0"/>
            <rect id="Rectángulo_344754" data-name="Rectángulo 344754" width="0.946" height="21.676" transform="translate(182.88 10.429)" fill="#e0e0e0"/>
            <g transform="matrix(1, 0, 0, 1, 0, -7.43)" filter="url(#Rectángulo_344755)">
              <rect id="Rectángulo_344755-2" data-name="Rectángulo 344755" width="60.668" height="60.668" transform="translate(44.94 24.3)" fill="#fafafa"/>
            </g>
            <path id="Trazado_697822" data-name="Trazado 697822" d="M120.469,98.473c-.046,0-.083-11.771-.083-26.288s.037-26.29.083-26.29.083,11.768.083,26.29-.037,26.288-.083,26.288" transform="translate(-64.745 -24.683)" fill="#e0e0e0"/>
            <path id="Trazado_697823" data-name="Trazado 697823" d="M113.352,55.568a12.482,12.482,0,0,1-2.878,0,12.484,12.484,0,0,1,2.878,0" transform="translate(-59.414 -29.84)" fill="#e0e0e0"/>
            <path id="Trazado_697824" data-name="Trazado 697824" d="M113.592,49.452a12.484,12.484,0,0,1-2.878,0,12.483,12.483,0,0,1,2.878,0" transform="translate(-59.543 -26.551)" fill="#e0e0e0"/>
            <path id="Trazado_697825" data-name="Trazado 697825" d="M113.352,62.161a12.484,12.484,0,0,1-2.878,0,12.482,12.482,0,0,1,2.878,0" transform="translate(-59.414 -33.386)" fill="#e0e0e0"/>
            <path id="Trazado_697826" data-name="Trazado 697826" d="M113.352,68.754a12.482,12.482,0,0,1-2.878,0,12.484,12.484,0,0,1,2.878,0" transform="translate(-59.414 -36.932)" fill="#e0e0e0"/>
            <path id="Trazado_697827" data-name="Trazado 697827" d="M113.352,75.347a12.482,12.482,0,0,1-2.878,0,12.484,12.484,0,0,1,2.878,0" transform="translate(-59.414 -40.478)" fill="#e0e0e0"/>
            <path id="Trazado_697828" data-name="Trazado 697828" d="M113.352,81.94a12.484,12.484,0,0,1-2.878,0,12.482,12.482,0,0,1,2.878,0" transform="translate(-59.414 -44.024)" fill="#e0e0e0"/>
            <path id="Trazado_697829" data-name="Trazado 697829" d="M113.352,88.533a12.482,12.482,0,0,1-2.878,0,12.484,12.484,0,0,1,2.878,0" transform="translate(-59.414 -47.569)" fill="#e0e0e0"/>
            <path id="Trazado_697830" data-name="Trazado 697830" d="M113.352,95.126a12.484,12.484,0,0,1-2.878,0,12.484,12.484,0,0,1,2.878,0" transform="translate(-59.414 -51.115)" fill="#e0e0e0"/>
            <path id="Trazado_697831" data-name="Trazado 697831" d="M113.352,101.719a12.482,12.482,0,0,1-2.878,0,12.484,12.484,0,0,1,2.878,0" transform="translate(-59.414 -54.661)" fill="#e0e0e0"/>
            <path id="Trazado_697832" data-name="Trazado 697832" d="M113.352,108.312a12.484,12.484,0,0,1-2.878,0,12.482,12.482,0,0,1,2.878,0" transform="translate(-59.414 -58.207)" fill="#e0e0e0"/>
            <path id="Trazado_697833" data-name="Trazado 697833" d="M113.352,114.905a12.482,12.482,0,0,1-2.878,0,12.482,12.482,0,0,1,2.878,0" transform="translate(-59.414 -61.753)" fill="#e0e0e0"/>
            <path id="Trazado_697834" data-name="Trazado 697834" d="M113.352,121.5a12.484,12.484,0,0,1-2.878,0,12.482,12.482,0,0,1,2.878,0" transform="translate(-59.414 -65.298)" fill="#e0e0e0"/>
            <path id="Trazado_697835" data-name="Trazado 697835" d="M113.352,128.091a12.484,12.484,0,0,1-2.878,0,12.484,12.484,0,0,1,2.878,0" transform="translate(-59.414 -68.844)" fill="#e0e0e0"/>
            <path id="Trazado_697836" data-name="Trazado 697836" d="M113.352,134.684a12.484,12.484,0,0,1-2.878,0,12.481,12.481,0,0,1,2.878,0" transform="translate(-59.414 -72.39)" fill="#e0e0e0"/>
            <path id="Trazado_697837" data-name="Trazado 697837" d="M113.352,141.277a12.484,12.484,0,0,1-2.878,0,12.484,12.484,0,0,1,2.878,0" transform="translate(-59.414 -75.936)" fill="#e0e0e0"/>
            <path id="Trazado_697838" data-name="Trazado 697838" d="M113.352,147.869a12.484,12.484,0,0,1-2.878,0,12.481,12.481,0,0,1,2.878,0" transform="translate(-59.414 -79.481)" fill="#e0e0e0"/>
            <path id="Trazado_697839" data-name="Trazado 697839" d="M132.965,55.179c0,.046-1.672.083-3.734.083s-3.734-.037-3.734-.083,1.671-.083,3.734-.083,3.734.037,3.734.083" transform="translate(-67.494 -29.631)" fill="#e0e0e0"/>
            <path id="Trazado_697840" data-name="Trazado 697840" d="M132.965,147.831c0,.025-1.672.044-3.734.044s-3.734-.019-3.734-.044,1.671-.044,3.734-.044,3.734.019,3.734.044" transform="translate(-67.494 -79.481)" fill="#e0e0e0"/>
            <path id="Trazado_697841" data-name="Trazado 697841" d="M147.9,68.754c0,.046-3.128.083-6.986.083s-6.987-.037-6.987-.083,3.128-.083,6.987-.083,6.986.037,6.986.083" transform="translate(-72.027 -36.932)" fill="#e0e0e0"/>
            <path id="Trazado_697842" data-name="Trazado 697842" d="M182.856,68.754c0,.046-3.128.083-6.986.083s-6.987-.037-6.987-.083,3.128-.083,6.987-.083,6.986.037,6.986.083" transform="translate(-90.827 -36.932)" fill="#e0e0e0"/>
            <path id="Trazado_697843" data-name="Trazado 697843" d="M161.793,75.347c0,.046-4.61.083-10.3.083s-10.3-.037-10.3-.083,4.609-.083,10.3-.083,10.3.037,10.3.083" transform="translate(-75.939 -40.478)" fill="#e0e0e0"/>
            <path id="Trazado_697844" data-name="Trazado 697844" d="M161.793,81.94c0,.046-4.61.083-10.3.083s-10.3-.037-10.3-.083,4.609-.083,10.3-.083,10.3.037,10.3.083" transform="translate(-75.939 -44.024)" fill="#e0e0e0"/>
            <path id="Trazado_697845" data-name="Trazado 697845" d="M192.461,101.719c0,.046-4.61.083-10.3.083s-10.3-.037-10.3-.083,4.609-.083,10.3-.083,10.3.037,10.3.083" transform="translate(-92.433 -54.661)" fill="#e0e0e0"/>
            <path id="Trazado_697846" data-name="Trazado 697846" d="M179.228,88.533c0,.046-4.61.083-10.3.083s-10.3-.037-10.3-.083,4.609-.083,10.3-.083,10.3.037,10.3.083" transform="translate(-85.316 -47.569)" fill="#e0e0e0"/>
            <path id="Trazado_697847" data-name="Trazado 697847" d="M132.965,62.161c0,.046-1.672.083-3.734.083s-3.734-.037-3.734-.083,1.671-.083,3.734-.083,3.734.037,3.734.083" transform="translate(-67.494 -33.386)" fill="#e0e0e0"/>
            <path id="Trazado_697848" data-name="Trazado 697848" d="M132.965,141.277c0,.046-1.672.083-3.734.083s-3.734-.037-3.734-.083,1.671-.083,3.734-.083,3.734.037,3.734.083" transform="translate(-67.494 -75.936)" fill="#e0e0e0"/>
            <path id="Trazado_697849" data-name="Trazado 697849" d="M140.97,88.533c0,.046-1.672.083-3.734.083s-3.734-.037-3.734-.083,1.671-.083,3.734-.083,3.734.037,3.734.083" transform="translate(-71.799 -47.569)" fill="#e0e0e0"/>
            <path id="Trazado_697850" data-name="Trazado 697850" d="M147.9,114.866c0,.046-3.128.083-6.986.083s-6.987-.037-6.987-.083,3.128-.083,6.987-.083,6.986.037,6.986.083" transform="translate(-72.027 -61.732)" fill="#e0e0e0"/>
            <path id="Trazado_697851" data-name="Trazado 697851" d="M182.856,114.866c0,.046-3.128.083-6.986.083s-6.987-.037-6.987-.083,3.128-.083,6.987-.083,6.986.037,6.986.083" transform="translate(-90.827 -61.732)" fill="#e0e0e0"/>
            <path id="Trazado_697852" data-name="Trazado 697852" d="M161.793,121.459c0,.046-4.61.083-10.3.083s-10.3-.037-10.3-.083,4.609-.083,10.3-.083,10.3.037,10.3.083" transform="translate(-75.939 -65.277)" fill="#e0e0e0"/>
            <path id="Trazado_697853" data-name="Trazado 697853" d="M161.793,128.052c0,.046-4.61.083-10.3.083s-10.3-.037-10.3-.083,4.609-.083,10.3-.083,10.3.037,10.3.083" transform="translate(-75.939 -68.823)" fill="#e0e0e0"/>
            <path id="Trazado_697854" data-name="Trazado 697854" d="M179.228,134.645c0,.046-4.61.083-10.3.083s-10.3-.037-10.3-.083,4.609-.083,10.3-.083,10.3.037,10.3.083" transform="translate(-85.316 -72.369)" fill="#e0e0e0"/>
            <path id="Trazado_697855" data-name="Trazado 697855" d="M140.97,134.645c0,.046-1.672.083-3.734.083s-3.734-.037-3.734-.083,1.671-.083,3.734-.083,3.734.037,3.734.083" transform="translate(-71.799 -72.369)" fill="#e0e0e0"/>
            <path id="Trazado_697856" data-name="Trazado 697856" d="M113.352,154.745a12.484,12.484,0,0,1-2.878,0,12.484,12.484,0,0,1,2.878,0" transform="translate(-59.414 -83.179)" fill="#e0e0e0"/>
            <path id="Trazado_697857" data-name="Trazado 697857" d="M113.352,167.931a12.484,12.484,0,0,1-2.878,0,12.484,12.484,0,0,1,2.878,0" transform="translate(-59.414 -90.27)" fill="#e0e0e0"/>
            <path id="Trazado_697858" data-name="Trazado 697858" d="M161.793,154.707c0,.046-4.61.083-10.3.083s-10.3-.037-10.3-.083,4.609-.083,10.3-.083,10.3.037,10.3.083" transform="translate(-75.939 -83.158)" fill="#e0e0e0"/>
            <path id="Trazado_698536" data-name="Trazado 698536" d="M0,0H32.252V32.252H0Z" transform="translate(4.837 6.776)" fill="#fafafa"/>
            <path id="Trazado_697859" data-name="Trazado 697859" d="M22.813,47.6c-.024,0-.044-6.258-.044-13.975s.02-13.977.044-13.977.044,6.257.044,13.977S22.838,47.6,22.813,47.6" transform="translate(-12.245 -10.567)" fill="#e0e0e0"/>
            <path id="Trazado_697860" data-name="Trazado 697860" d="M19.03,24.791a3.336,3.336,0,0,1-.765.044,3.336,3.336,0,0,1-.765-.044,3.336,3.336,0,0,1,.765-.044,3.336,3.336,0,0,1,.765.044" transform="translate(-9.412 -13.309)" fill="#e0e0e0"/>
            <path id="Trazado_697861" data-name="Trazado 697861" d="M19.157,21.54a3.342,3.342,0,0,1-.765.044,3.336,3.336,0,0,1-.765-.044,3.353,3.353,0,0,1,.765-.044,3.359,3.359,0,0,1,.765.044" transform="translate(-9.48 -11.561)" fill="#e0e0e0"/>
            <path id="Trazado_697862" data-name="Trazado 697862" d="M19.03,28.3a3.336,3.336,0,0,1-.765.044A3.336,3.336,0,0,1,17.5,28.3a3.336,3.336,0,0,1,.765-.044,3.336,3.336,0,0,1,.765.044" transform="translate(-9.412 -15.194)" fill="#e0e0e0"/>
            <path id="Trazado_697863" data-name="Trazado 697863" d="M19.03,31.8a3.336,3.336,0,0,1-.765.044A3.336,3.336,0,0,1,17.5,31.8a3.353,3.353,0,0,1,.765-.044,3.353,3.353,0,0,1,.765.044" transform="translate(-9.412 -17.08)" fill="#e0e0e0"/>
            <path id="Trazado_697864" data-name="Trazado 697864" d="M19.03,35.306a3.337,3.337,0,0,1-.765.044,3.337,3.337,0,0,1-.765-.044,3.336,3.336,0,0,1,.765-.044,3.336,3.336,0,0,1,.765.044" transform="translate(-9.412 -18.964)" fill="#e0e0e0"/>
            <path id="Trazado_697865" data-name="Trazado 697865" d="M19.03,38.811a3.353,3.353,0,0,1-.765.044,3.353,3.353,0,0,1-.765-.044,3.336,3.336,0,0,1,.765-.044,3.336,3.336,0,0,1,.765.044" transform="translate(-9.412 -20.849)" fill="#e0e0e0"/>
            <path id="Trazado_697866" data-name="Trazado 697866" d="M19.03,42.316a3.336,3.336,0,0,1-.765.044,3.336,3.336,0,0,1-.765-.044,3.336,3.336,0,0,1,.765-.044,3.336,3.336,0,0,1,.765.044" transform="translate(-9.412 -22.734)" fill="#e0e0e0"/>
            <path id="Trazado_697867" data-name="Trazado 697867" d="M19.03,45.82a3.337,3.337,0,0,1-.765.044,3.337,3.337,0,0,1-.765-.044,3.336,3.336,0,0,1,.765-.044,3.336,3.336,0,0,1,.765.044" transform="translate(-9.412 -24.619)" fill="#e0e0e0"/>
            <path id="Trazado_697868" data-name="Trazado 697868" d="M19.03,49.325a3.336,3.336,0,0,1-.765.044,3.336,3.336,0,0,1-.765-.044,3.336,3.336,0,0,1,.765-.044,3.336,3.336,0,0,1,.765.044" transform="translate(-9.412 -26.504)" fill="#e0e0e0"/>
            <path id="Trazado_697869" data-name="Trazado 697869" d="M19.03,52.83a3.336,3.336,0,0,1-.765.044,3.336,3.336,0,0,1-.765-.044,3.336,3.336,0,0,1,.765-.044,3.336,3.336,0,0,1,.765.044" transform="translate(-9.412 -28.389)" fill="#e0e0e0"/>
            <path id="Trazado_697870" data-name="Trazado 697870" d="M19.03,56.335a3.336,3.336,0,0,1-.765.044,3.336,3.336,0,0,1-.765-.044,3.336,3.336,0,0,1,.765-.044,3.336,3.336,0,0,1,.765.044" transform="translate(-9.412 -30.274)" fill="#e0e0e0"/>
            <path id="Trazado_697871" data-name="Trazado 697871" d="M19.03,59.84a3.336,3.336,0,0,1-.765.044,3.336,3.336,0,0,1-.765-.044,3.336,3.336,0,0,1,.765-.044,3.336,3.336,0,0,1,.765.044" transform="translate(-9.412 -32.159)" fill="#e0e0e0"/>
            <path id="Trazado_697872" data-name="Trazado 697872" d="M19.03,63.346a3.336,3.336,0,0,1-.765.044,3.336,3.336,0,0,1-.765-.044,3.353,3.353,0,0,1,.765-.044,3.353,3.353,0,0,1,.765.044" transform="translate(-9.412 -34.045)" fill="#e0e0e0"/>
            <path id="Trazado_697873" data-name="Trazado 697873" d="M19.03,66.85a3.337,3.337,0,0,1-.765.044,3.337,3.337,0,0,1-.765-.044,3.336,3.336,0,0,1,.765-.044,3.336,3.336,0,0,1,.765.044" transform="translate(-9.412 -35.929)" fill="#e0e0e0"/>
            <path id="Trazado_697874" data-name="Trazado 697874" d="M19.03,70.355a3.336,3.336,0,0,1-.765.044,3.336,3.336,0,0,1-.765-.044,3.336,3.336,0,0,1,.765-.044,3.336,3.336,0,0,1,.765.044" transform="translate(-9.412 -37.814)" fill="#e0e0e0"/>
            <path id="Trazado_697875" data-name="Trazado 697875" d="M19.03,73.861a3.336,3.336,0,0,1-.765.044,3.336,3.336,0,0,1-.765-.044,3.353,3.353,0,0,1,.765-.044,3.353,3.353,0,0,1,.765.044" transform="translate(-9.412 -39.7)" fill="#e0e0e0"/>
            <path id="Trazado_697876" data-name="Trazado 697876" d="M29.457,24.584c0,.024-.889.044-1.985.044s-1.985-.02-1.985-.044.889-.044,1.985-.044,1.985.02,1.985.044" transform="translate(-13.707 -13.198)" fill="#e0e0e0"/>
            <path id="Trazado_697877" data-name="Trazado 697877" d="M29.457,73.84c0,.013-.889.024-1.985.024s-1.985-.011-1.985-.024.889-.024,1.985-.024,1.985.011,1.985.024" transform="translate(-13.707 -39.699)" fill="#e0e0e0"/>
            <path id="Trazado_697878" data-name="Trazado 697878" d="M37.4,31.8c0,.024-1.663.044-3.714.044s-3.714-.02-3.714-.044,1.662-.044,3.714-.044,3.714.019,3.714.044" transform="translate(-16.117 -17.08)" fill="#e0e0e0"/>
            <path id="Trazado_697879" data-name="Trazado 697879" d="M55.979,31.8c0,.024-1.663.044-3.714.044s-3.714-.02-3.714-.044,1.662-.044,3.714-.044,3.714.019,3.714.044" transform="translate(-26.111 -17.08)" fill="#e0e0e0"/>
            <path id="Trazado_697880" data-name="Trazado 697880" d="M44.782,35.306c0,.024-2.451.044-5.473.044s-5.474-.02-5.474-.044,2.451-.044,5.474-.044,5.473.02,5.473.044" transform="translate(-18.197 -18.964)" fill="#e0e0e0"/>
            <path id="Trazado_697881" data-name="Trazado 697881" d="M44.782,38.811c0,.024-2.451.044-5.473.044s-5.474-.019-5.474-.044,2.451-.044,5.474-.044,5.473.02,5.473.044" transform="translate(-18.197 -20.849)" fill="#e0e0e0"/>
            <path id="Trazado_697882" data-name="Trazado 697882" d="M61.085,49.325c0,.024-2.451.044-5.473.044s-5.474-.02-5.474-.044,2.451-.044,5.474-.044,5.473.02,5.473.044" transform="translate(-26.965 -26.504)" fill="#e0e0e0"/>
            <path id="Trazado_697883" data-name="Trazado 697883" d="M54.051,42.316c0,.024-2.451.044-5.473.044s-5.474-.02-5.474-.044,2.45-.044,5.474-.044,5.473.02,5.473.044" transform="translate(-23.182 -22.734)" fill="#e0e0e0"/>
            <path id="Trazado_697884" data-name="Trazado 697884" d="M29.457,28.3c0,.024-.889.044-1.985.044s-1.985-.02-1.985-.044.889-.044,1.985-.044,1.985.02,1.985.044" transform="translate(-13.707 -15.194)" fill="#e0e0e0"/>
            <path id="Trazado_697885" data-name="Trazado 697885" d="M29.457,70.355c0,.024-.889.044-1.985.044s-1.985-.02-1.985-.044.889-.044,1.985-.044,1.985.02,1.985.044" transform="translate(-13.707 -37.814)" fill="#e0e0e0"/>
            <path id="Trazado_697886" data-name="Trazado 697886" d="M33.712,42.316c0,.024-.889.044-1.985.044s-1.985-.02-1.985-.044.889-.044,1.985-.044,1.985.02,1.985.044" transform="translate(-15.996 -22.734)" fill="#e0e0e0"/>
            <path id="Trazado_697887" data-name="Trazado 697887" d="M37.4,56.315c0,.024-1.663.044-3.714.044s-3.714-.02-3.714-.044,1.662-.044,3.714-.044,3.714.02,3.714.044" transform="translate(-16.117 -30.263)" fill="#e0e0e0"/>
            <path id="Trazado_697888" data-name="Trazado 697888" d="M55.979,56.315c0,.024-1.663.044-3.714.044s-3.714-.02-3.714-.044,1.662-.044,3.714-.044,3.714.02,3.714.044" transform="translate(-26.111 -30.263)" fill="#e0e0e0"/>
            <path id="Trazado_697889" data-name="Trazado 697889" d="M44.782,59.82c0,.024-2.451.044-5.473.044s-5.474-.02-5.474-.044,2.451-.044,5.474-.044,5.473.02,5.473.044" transform="translate(-18.197 -32.148)" fill="#e0e0e0"/>
            <path id="Trazado_697890" data-name="Trazado 697890" d="M44.782,63.325c0,.025-2.451.045-5.473.045s-5.474-.02-5.474-.045,2.451-.044,5.474-.044,5.473.02,5.473.044" transform="translate(-18.197 -34.033)" fill="#e0e0e0"/>
            <path id="Trazado_697891" data-name="Trazado 697891" d="M54.051,66.83c0,.024-2.451.044-5.473.044s-5.474-.02-5.474-.044,2.45-.044,5.474-.044,5.473.019,5.473.044" transform="translate(-23.182 -35.918)" fill="#e0e0e0"/>
            <path id="Trazado_697892" data-name="Trazado 697892" d="M33.712,66.83c0,.024-.889.044-1.985.044s-1.985-.02-1.985-.044.889-.044,1.985-.044,1.985.019,1.985.044" transform="translate(-15.996 -35.918)" fill="#e0e0e0"/>
            <path id="Trazado_697893" data-name="Trazado 697893" d="M19.03,77.515a3.335,3.335,0,0,1-.765.044,3.335,3.335,0,0,1-.765-.044,3.337,3.337,0,0,1,.765-.044,3.337,3.337,0,0,1,.765.044" transform="translate(-9.412 -41.665)" fill="#e0e0e0"/>
            <path id="Trazado_697894" data-name="Trazado 697894" d="M19.03,84.525a3.337,3.337,0,0,1-.765.044,3.337,3.337,0,0,1-.765-.044,3.335,3.335,0,0,1,.765-.044,3.335,3.335,0,0,1,.765.044" transform="translate(-9.412 -45.435)" fill="#e0e0e0"/>
            <path id="Trazado_697895" data-name="Trazado 697895" d="M44.782,77.5c0,.024-2.451.044-5.473.044s-5.474-.02-5.474-.044,2.451-.044,5.474-.044,5.473.02,5.473.044" transform="translate(-18.197 -41.654)" fill="#e0e0e0"/>
          </g>
        </g>
        <path id="Trazado_697896" data-name="Trazado 697896" d="M90.507,101.191H16.158v74.349H65.235l13.1,11.727.341-11.727H90.507Z" transform="translate(-8.69 -54.421)" fill="#fafafa"/>
        <g id="Grupo_952301" data-name="Grupo 952301">
          <g id="Grupo_952300" data-name="Grupo 952300" clip-path="url(#clip-path)">
            <path id="Trazado_697897" data-name="Trazado 697897" d="M42.471,175.98c-.046,0-.083-13.089-.083-29.231s.037-29.233.083-29.233.083,13.086.083,29.233-.037,29.231-.083,29.231" transform="translate(-22.797 -63.201)" fill="#263238"/>
            <path id="Trazado_697898" data-name="Trazado 697898" d="M35.354,127.188a6.308,6.308,0,0,1-1.439.083,6.3,6.3,0,0,1-1.439-.083,6.3,6.3,0,0,1,1.439-.083,6.307,6.307,0,0,1,1.439.083" transform="translate(-17.466 -68.358)" fill="#263238"/>
            <path id="Trazado_697899" data-name="Trazado 697899" d="M35.594,121.072a6.307,6.307,0,0,1-1.439.083,6.3,6.3,0,0,1-1.439-.083,6.3,6.3,0,0,1,1.439-.083,6.308,6.308,0,0,1,1.439.083" transform="translate(-17.595 -65.069)" fill="#263238"/>
            <path id="Trazado_697900" data-name="Trazado 697900" d="M35.354,133.781a6.307,6.307,0,0,1-1.439.083,6.3,6.3,0,0,1-1.439-.083,6.3,6.3,0,0,1,1.439-.083,6.308,6.308,0,0,1,1.439.083" transform="translate(-17.466 -71.904)" fill="#263238"/>
            <path id="Trazado_697901" data-name="Trazado 697901" d="M35.354,140.374a6.306,6.306,0,0,1-1.439.083,6.3,6.3,0,0,1-1.439-.083,6.3,6.3,0,0,1,1.439-.083,6.307,6.307,0,0,1,1.439.083" transform="translate(-17.466 -75.45)" fill="#263238"/>
            <path id="Trazado_697902" data-name="Trazado 697902" d="M35.354,146.967a6.308,6.308,0,0,1-1.439.083,6.3,6.3,0,0,1-1.439-.083,6.3,6.3,0,0,1,1.439-.083,6.308,6.308,0,0,1,1.439.083" transform="translate(-17.466 -78.996)" fill="#263238"/>
            <path id="Trazado_697903" data-name="Trazado 697903" d="M35.354,153.56a6.305,6.305,0,0,1-1.439.083,6.3,6.3,0,0,1-1.439-.083,6.3,6.3,0,0,1,1.439-.083,6.308,6.308,0,0,1,1.439.083" transform="translate(-17.466 -82.542)" fill="#263238"/>
            <path id="Trazado_697904" data-name="Trazado 697904" d="M35.354,160.153a6.308,6.308,0,0,1-1.439.083,6.3,6.3,0,0,1-1.439-.083,6.3,6.3,0,0,1,1.439-.083,6.307,6.307,0,0,1,1.439.083" transform="translate(-17.466 -86.087)" fill="#263238"/>
            <path id="Trazado_697905" data-name="Trazado 697905" d="M35.354,166.746a6.307,6.307,0,0,1-1.439.083,6.3,6.3,0,0,1-1.439-.083,6.3,6.3,0,0,1,1.439-.083,6.308,6.308,0,0,1,1.439.083" transform="translate(-17.466 -89.633)" fill="#263238"/>
            <path id="Trazado_697906" data-name="Trazado 697906" d="M35.354,173.339a6.307,6.307,0,0,1-1.439.083,6.3,6.3,0,0,1-1.439-.083,6.3,6.3,0,0,1,1.439-.083,6.306,6.306,0,0,1,1.439.083" transform="translate(-17.466 -93.179)" fill="#263238"/>
            <path id="Trazado_697907" data-name="Trazado 697907" d="M35.354,179.932a6.307,6.307,0,0,1-1.439.083,6.3,6.3,0,0,1-1.439-.083,6.3,6.3,0,0,1,1.439-.083,6.307,6.307,0,0,1,1.439.083" transform="translate(-17.466 -96.725)" fill="#263238"/>
            <path id="Trazado_697908" data-name="Trazado 697908" d="M35.354,186.525a6.306,6.306,0,0,1-1.439.083,6.3,6.3,0,0,1-1.439-.083,6.3,6.3,0,0,1,1.439-.083,6.307,6.307,0,0,1,1.439.083" transform="translate(-17.466 -100.271)" fill="#263238"/>
            <path id="Trazado_697909" data-name="Trazado 697909" d="M35.354,193.118a6.308,6.308,0,0,1-1.439.083,6.3,6.3,0,0,1-1.439-.083,6.3,6.3,0,0,1,1.439-.083,6.307,6.307,0,0,1,1.439.083" transform="translate(-17.466 -103.816)" fill="#263238"/>
            <path id="Trazado_697910" data-name="Trazado 697910" d="M35.354,199.711a6.307,6.307,0,0,1-1.439.083,6.3,6.3,0,0,1-1.439-.083,6.3,6.3,0,0,1,1.439-.083,6.307,6.307,0,0,1,1.439.083" transform="translate(-17.466 -107.362)" fill="#263238"/>
            <path id="Trazado_697911" data-name="Trazado 697911" d="M35.354,206.3a6.308,6.308,0,0,1-1.439.083,6.3,6.3,0,0,1-1.439-.083,6.3,6.3,0,0,1,1.439-.083,6.306,6.306,0,0,1,1.439.083" transform="translate(-17.466 -110.908)" fill="#263238"/>
            <path id="Trazado_697912" data-name="Trazado 697912" d="M35.354,212.9a6.307,6.307,0,0,1-1.439.083,6.3,6.3,0,0,1-1.439-.083,6.3,6.3,0,0,1,1.439-.083,6.308,6.308,0,0,1,1.439.083" transform="translate(-17.466 -114.454)" fill="#263238"/>
            <path id="Trazado_697913" data-name="Trazado 697913" d="M35.354,219.49a6.309,6.309,0,0,1-1.439.083,6.305,6.305,0,0,1-1.439-.083,6.3,6.3,0,0,1,1.439-.083,6.305,6.305,0,0,1,1.439.083" transform="translate(-17.466 -117.999)" fill="#263238"/>
            <path id="Trazado_697914" data-name="Trazado 697914" d="M54.968,126.8c0,.046-1.672.083-3.734.083s-3.734-.037-3.734-.083,1.672-.083,3.734-.083,3.734.037,3.734.083" transform="translate(-25.546 -68.15)" fill="#263238"/>
            <path id="Trazado_697915" data-name="Trazado 697915" d="M54.968,219.451c0,.025-1.672.044-3.734.044s-3.734-.019-3.734-.044,1.672-.044,3.734-.044,3.734.019,3.734.044" transform="translate(-25.546 -117.999)" fill="#263238"/>
            <path id="Trazado_697916" data-name="Trazado 697916" d="M69.9,140.374c0,.046-3.128.083-6.986.083s-6.987-.037-6.987-.083,3.128-.083,6.987-.083,6.986.037,6.986.083" transform="translate(-30.079 -75.45)" fill="#ff725e"/>
            <path id="Trazado_697917" data-name="Trazado 697917" d="M104.858,140.374c0,.046-3.128.083-6.986.083s-6.987-.037-6.987-.083,3.128-.083,6.987-.083,6.986.037,6.986.083" transform="translate(-48.879 -75.45)" fill="#263238"/>
            <path id="Trazado_697918" data-name="Trazado 697918" d="M83.8,146.967c0,.046-4.61.083-10.3.083s-10.3-.037-10.3-.083,4.609-.083,10.3-.083,10.3.037,10.3.083" transform="translate(-33.992 -78.996)" fill="#263238"/>
            <path id="Trazado_697919" data-name="Trazado 697919" d="M83.8,153.56c0,.046-4.61.083-10.3.083s-10.3-.037-10.3-.083,4.609-.083,10.3-.083,10.3.037,10.3.083" transform="translate(-33.992 -82.542)" fill="#ff725e"/>
            <path id="Trazado_697920" data-name="Trazado 697920" d="M114.464,173.339c0,.046-4.61.083-10.3.083s-10.3-.037-10.3-.083,4.609-.083,10.3-.083,10.3.037,10.3.083" transform="translate(-50.485 -93.179)" fill="#ff725e"/>
            <path id="Trazado_697921" data-name="Trazado 697921" d="M101.23,160.153c0,.046-4.61.083-10.3.083s-10.3-.037-10.3-.083,4.609-.083,10.3-.083,10.3.037,10.3.083" transform="translate(-43.368 -86.087)" fill="#263238"/>
            <path id="Trazado_697922" data-name="Trazado 697922" d="M136.74,146.967c0,.046-4.61.083-10.3.083s-10.3-.037-10.3-.083,4.609-.083,10.3-.083,10.3.037,10.3.083" transform="translate(-62.466 -78.996)" fill="#263238"/>
            <path id="Trazado_697923" data-name="Trazado 697923" d="M54.968,133.781c0,.046-1.672.083-3.734.083s-3.734-.037-3.734-.083,1.672-.083,3.734-.083,3.734.037,3.734.083" transform="translate(-25.546 -71.904)" fill="#ff725e"/>
            <path id="Trazado_697924" data-name="Trazado 697924" d="M54.968,212.9c0,.046-1.672.083-3.734.083s-3.734-.037-3.734-.083,1.672-.083,3.734-.083,3.734.037,3.734.083" transform="translate(-25.546 -114.454)" fill="#263238"/>
            <path id="Trazado_697925" data-name="Trazado 697925" d="M62.972,160.153c0,.046-1.672.083-3.734.083s-3.734-.037-3.734-.083,1.671-.083,3.734-.083,3.734.037,3.734.083" transform="translate(-29.851 -86.087)" fill="#263238"/>
            <path id="Trazado_697926" data-name="Trazado 697926" d="M69.9,186.486c0,.046-3.128.083-6.986.083s-6.987-.037-6.987-.083,3.128-.083,6.987-.083,6.986.037,6.986.083" transform="translate(-30.079 -100.25)" fill="#ff725e"/>
            <path id="Trazado_697927" data-name="Trazado 697927" d="M104.858,186.486c0,.046-3.128.083-6.986.083s-6.987-.037-6.987-.083,3.128-.083,6.987-.083,6.986.037,6.986.083" transform="translate(-48.879 -100.25)" fill="#263238"/>
            <path id="Trazado_697928" data-name="Trazado 697928" d="M83.8,193.079c0,.046-4.61.083-10.3.083s-10.3-.037-10.3-.083S67.813,193,73.5,193s10.3.037,10.3.083" transform="translate(-33.992 -103.795)" fill="#263238"/>
            <path id="Trazado_697929" data-name="Trazado 697929" d="M83.8,199.672c0,.046-4.61.083-10.3.083s-10.3-.037-10.3-.083,4.609-.083,10.3-.083,10.3.037,10.3.083" transform="translate(-33.992 -107.341)" fill="#ff725e"/>
            <path id="Trazado_697930" data-name="Trazado 697930" d="M101.23,206.265c0,.046-4.61.083-10.3.083s-10.3-.037-10.3-.083,4.609-.083,10.3-.083,10.3.037,10.3.083" transform="translate(-43.368 -110.887)" fill="#263238"/>
            <path id="Trazado_697931" data-name="Trazado 697931" d="M136.74,193.079c0,.046-4.61.083-10.3.083s-10.3-.037-10.3-.083,4.609-.083,10.3-.083,10.3.037,10.3.083" transform="translate(-62.466 -103.795)" fill="#263238"/>
            <path id="Trazado_697932" data-name="Trazado 697932" d="M62.972,206.265c0,.046-1.672.083-3.734.083s-3.734-.037-3.734-.083,1.671-.083,3.734-.083,3.734.037,3.734.083" transform="translate(-29.851 -110.887)" fill="#263238"/>
            <path id="Trazado_697933" data-name="Trazado 697933" d="M35.354,226.366a6.305,6.305,0,0,1-1.439.083,6.3,6.3,0,0,1-1.439-.083,6.3,6.3,0,0,1,1.439-.083,6.308,6.308,0,0,1,1.439.083" transform="translate(-17.466 -121.697)" fill="#263238"/>
            <path id="Trazado_697934" data-name="Trazado 697934" d="M35.354,232.959a6.308,6.308,0,0,1-1.439.083,6.3,6.3,0,0,1-1.439-.083,6.3,6.3,0,0,1,1.439-.083,6.307,6.307,0,0,1,1.439.083" transform="translate(-17.466 -125.243)" fill="#263238"/>
            <path id="Trazado_697935" data-name="Trazado 697935" d="M35.354,239.552a6.307,6.307,0,0,1-1.439.083,6.3,6.3,0,0,1-1.439-.083,6.3,6.3,0,0,1,1.439-.083,6.308,6.308,0,0,1,1.439.083" transform="translate(-17.466 -128.789)" fill="#263238"/>
            <path id="Trazado_697936" data-name="Trazado 697936" d="M54.968,239.552c0,.046-1.672.083-3.734.083s-3.734-.037-3.734-.083,1.672-.083,3.734-.083,3.734.037,3.734.083" transform="translate(-25.546 -128.789)" fill="#ff725e"/>
            <path id="Trazado_697937" data-name="Trazado 697937" d="M83.8,226.327c0,.046-4.61.083-10.3.083s-10.3-.037-10.3-.083,4.609-.083,10.3-.083,10.3.037,10.3.083" transform="translate(-33.992 -121.677)" fill="#ff725e"/>
            <path id="Trazado_697938" data-name="Trazado 697938" d="M101.23,232.92c0,.046-4.61.083-10.3.083s-10.3-.037-10.3-.083,4.609-.083,10.3-.083,10.3.037,10.3.083" transform="translate(-43.368 -125.222)" fill="#263238"/>
            <path id="Trazado_697939" data-name="Trazado 697939" d="M62.972,232.92c0,.046-1.672.083-3.734.083s-3.734-.037-3.734-.083,1.671-.083,3.734-.083,3.734.037,3.734.083" transform="translate(-29.851 -125.222)" fill="#263238"/>
            <rect id="Rectángulo_344758" data-name="Rectángulo 344758" width="74.349" height="4.119" transform="translate(7.468 46.769)" fill="#f9a21b"/>
            <path id="Trazado_697940" data-name="Trazado 697940" d="M90.367,101.072s.007.453.012,1.343.006,2.216.012,3.942c.006,3.464.015,8.544.026,15.026.013,12.987.031,31.584.053,54.039v.1h-.1l-11.834.005.107-.1c-.105,3.673-.22,7.657-.337,11.727l-.006.24-.179-.16-13.1-11.723.077.03-41.133,0H15.9v-.12c.006-27.3.012-52.725.018-74.349v-.1h.1L70,101.022l15.061.027,3.956.012c.893,0,1.349.012,1.349.012s-.471.007-1.371.012l-3.976.012-15.084.027-53.918.052.1-.1c.005,21.624.012,47.046.018,74.349l-.12-.12h7.944l41.133,0h.045l.033.03,13.093,11.73-.186.08c.12-4.07.237-8.053.345-11.726l0-.1h.1l11.834.005-.1.1c.022-22.428.04-41,.053-53.974.011-6.491.02-11.58.026-15.049.005-1.734.009-3.062.012-3.961s.012-1.365.012-1.365" transform="translate(-8.55 -54.302)" fill="#263238"/>
            <path id="Trazado_697941" data-name="Trazado 697941" d="M20.884,105.166a.615.615,0,1,1-.615-.615.615.615,0,0,1,.615.615" transform="translate(-10.57 -56.229)" fill="#263238"/>
            <path id="Trazado_697942" data-name="Trazado 697942" d="M24.642,105.166a.615.615,0,1,1-.615-.615.615.615,0,0,1,.615.615" transform="translate(-12.591 -56.229)" fill="#263238"/>
            <path id="Trazado_697943" data-name="Trazado 697943" d="M28.214,105.166a.615.615,0,1,1-.615-.615.615.615,0,0,1,.615.615" transform="translate(-14.512 -56.229)" fill="#263238"/>
            <path id="Trazado_697944" data-name="Trazado 697944" d="M90.367,101.072s.007.453.012,1.343.006,2.216.012,3.942c.006,3.464.015,8.544.026,15.026.013,12.987.031,31.584.053,54.039v.1h-.1l-11.834.005.107-.1c-.105,3.673-.22,7.657-.337,11.727l-.006.24-.179-.16-13.1-11.723.077.03-41.133,0H15.9v-.12c.006-27.3.012-52.725.018-74.349v-.1h.1L70,101.022l15.061.027,3.956.012c.893,0,1.349.012,1.349.012s-.471.007-1.371.012l-3.976.012-15.084.027-53.918.052.1-.1c.005,21.624.012,47.046.018,74.349l-.12-.12h7.944l41.133,0h.045l.033.03,13.093,11.73-.186.08c.12-4.07.237-8.053.345-11.726l0-.1h.1l11.834.005-.1.1c.022-22.428.04-41,.053-53.974.011-6.491.02-11.58.026-15.049.005-1.734.009-3.062.012-3.961s.012-1.365.012-1.365" transform="translate(-8.55 -54.302)" fill="#263238"/>
          </g>
        </g>
        <path id="Trazado_697945" data-name="Trazado 697945" d="M144.422,374.686l3.345,23.3h12.173l3.058-23.3Z" transform="translate(-77.672 -201.51)" fill="#455a64"/>
        <g id="Grupo_952303" data-name="Grupo 952303">
          <g id="Grupo_952302" data-name="Grupo 952302" clip-path="url(#clip-path)">
            <path id="Trazado_697946" data-name="Trazado 697946" d="M141.524,370.165a4.786,4.786,0,0,1,1.616-3.885h18.3c1,.76,1.311,2.235,1.445,3.885Z" transform="translate(-76.113 -196.989)" fill="#455a64"/>
            <path id="Trazado_697947" data-name="Trazado 697947" d="M147.562,363.634l1.547-2.274h12.683l1.35,2.274Z" transform="translate(-79.36 -194.343)" fill="#455a64"/>
            <path id="Trazado_697948" data-name="Trazado 697948" d="M164,365.973c0,.067-3.931.12-8.78.12s-8.781-.054-8.781-.12,3.93-.12,8.781-.12,8.78.054,8.78.12" transform="translate(-78.759 -196.76)" fill="#263238"/>
            <path id="Trazado_697949" data-name="Trazado 697949" d="M163.107,374.546c0,.067-4.74.12-10.586.12s-10.586-.054-10.586-.12,4.739-.12,10.586-.12,10.586.054,10.586.12" transform="translate(-76.334 -201.37)" fill="#263238"/>
            <path id="Trazado_697950" data-name="Trazado 697950" d="M146.057,386.068h17.131l-1,7.634H147.153Z" transform="translate(-78.551 -207.632)" fill="#263238"/>
          </g>
        </g>
        <path id="Trazado_697951" data-name="Trazado 697951" d="M172.386,256.444l2.024,25.244,2.776.406-1.935-26.259Z" transform="translate(-92.711 -137.591)" fill="#263238"/>
        <g id="Grupo_952320" data-name="Grupo 952320">
          <g id="Grupo_952319" data-name="Grupo 952319" clip-path="url(#clip-path)">
            <path id="Trazado_697952" data-name="Trazado 697952" d="M164.661,260.3l8.539,2.044,7.53,7.188-3,3.573-6.775-7.638s-7.482-1.893-6.3-5.168" transform="translate(-88.488 -139.993)" fill="#ba7e6d"/>
            <path id="Trazado_697953" data-name="Trazado 697953" d="M182.691,279.2c.006-.023.016-.041.02-.065l-1.927-5.638-6.9-3.217a4.536,4.536,0,0,0-.877,1.107,11.362,11.362,0,0,0-2.993-2.718l-1.381-.864a2.4,2.4,0,0,0-2.642,3.826,1.933,1.933,0,0,0-.3,3.394,2.555,2.555,0,0,0-.279,3.9,1.785,1.785,0,0,0-.486,1.84,4.389,4.389,0,0,0,1.087,1.737A15.319,15.319,0,0,0,168.6,284.8a3.067,3.067,0,0,0,1.073.523,1.112,1.112,0,0,0,1.082-.5,1.1,1.1,0,0,0,.4-1.062l4.2,3.025,3.716,7.805,9.493-5.782Z" transform="translate(-88.542 -143.955)" fill="#ba7e6d"/>
            <path id="Trazado_697954" data-name="Trazado 697954" d="M176.362,277.2a.847.847,0,0,1-.213-.1,4.026,4.026,0,0,1-.567-.367,5.449,5.449,0,0,1-1.546-1.936,5.649,5.649,0,0,1-.453-3.631,9.91,9.91,0,0,1,.316-1.018,1.121,1.121,0,0,0-.029-.967,2.808,2.808,0,0,0-.857-.666,4.628,4.628,0,0,1-1.584-1.791c-.177-.356-.3-.717-.488-1.022a1.46,1.46,0,0,0-.773-.647c-.32-.124-.673-.193-1-.292a10.337,10.337,0,0,1-3.36-1.492,2.816,2.816,0,0,1-1.295-2.068c0-.144.005-.275.007-.394l.064-.281a.844.844,0,0,1,.068-.225.909.909,0,0,1-.02.234l-.04.278q.006.173.015.38a2.763,2.763,0,0,0,1.3,1.939,10.492,10.492,0,0,0,3.319,1.415c.329.1.674.158,1.029.292a1.7,1.7,0,0,1,.89.737c.208.335.332.7.5,1.039a4.419,4.419,0,0,0,1.5,1.7,2.932,2.932,0,0,1,.924.739,1.345,1.345,0,0,1,.049,1.163,9.95,9.95,0,0,0-.319,1,5.551,5.551,0,0,0,.391,3.509,5.638,5.638,0,0,0,1.451,1.935c.443.372.736.516.721.541" transform="translate(-88.475 -139.993)" fill="#875149"/>
            <path id="Trazado_697955" data-name="Trazado 697955" d="M173.846,276.122a1.672,1.672,0,0,1,.307.363,5.947,5.947,0,0,1,.67,1.115,1.722,1.722,0,0,1,.172.911,2.349,2.349,0,0,1-.394.985,1.587,1.587,0,0,1-.946.721,2.114,2.114,0,0,1-1.235-.265,12.4,12.4,0,0,1-3.5-2.441,10.273,10.273,0,0,1-.861-.967,1.664,1.664,0,0,1-.265-.4c.032-.026.45.5,1.244,1.24a13.688,13.688,0,0,0,3.484,2.346,1.925,1.925,0,0,0,1.094.251,1.39,1.39,0,0,0,.8-.614,2.192,2.192,0,0,0,.379-.886,1.584,1.584,0,0,0-.132-.819,7.653,7.653,0,0,0-.591-1.128,1.975,1.975,0,0,1-.229-.415" transform="translate(-90.24 -148.501)" fill="#875149"/>
            <path id="Trazado_697956" data-name="Trazado 697956" d="M172.146,283.88a2.294,2.294,0,0,1,.467.309,5.607,5.607,0,0,1,1.112,1.057,3.1,3.1,0,0,1,.5.953,2.124,2.124,0,0,1,.027,1.248,1.753,1.753,0,0,1-.88,1.071,1.81,1.81,0,0,1-1.482-.044,12.427,12.427,0,0,1-3.96-3.1,10.973,10.973,0,0,1-.912-1.224,2.234,2.234,0,0,1-.272-.49c.037-.025.454.656,1.313,1.6a13.277,13.277,0,0,0,3.923,2.992,1.587,1.587,0,0,0,1.29.055,1.541,1.541,0,0,0,.77-.924,1.943,1.943,0,0,0-.006-1.125,3.017,3.017,0,0,0-.446-.909,6.533,6.533,0,0,0-1.033-1.085,2.745,2.745,0,0,1-.408-.382" transform="translate(-89.677 -152.554)" fill="#875149"/>
            <path id="Trazado_697957" data-name="Trazado 697957" d="M173.476,292.522c.012-.009.125.1.29.336a2.518,2.518,0,0,1,.453,1.133,1.743,1.743,0,0,1-.125.857,1.33,1.33,0,0,1-.7.721,1.745,1.745,0,0,1-1.1.037,5.386,5.386,0,0,1-1.069-.424,19.993,19.993,0,0,1-3.383-2.079c-.4-.31-.717-.576-.927-.767s-.319-.306-.308-.318c.024-.028.51.367,1.336.947a24.825,24.825,0,0,0,3.387,2,5.437,5.437,0,0,0,1.021.412,1.544,1.544,0,0,0,.961-.014,1.135,1.135,0,0,0,.6-.6,1.6,1.6,0,0,0,.138-.762,2.687,2.687,0,0,0-.363-1.1,2.368,2.368,0,0,1-.211-.386" transform="translate(-89.601 -157.05)" fill="#875149"/>
            <path id="Trazado_697958" data-name="Trazado 697958" d="M175.943,298.7a2.781,2.781,0,0,1,.332.586,5.749,5.749,0,0,1,.3.676,1.7,1.7,0,0,1,.072.937,1.428,1.428,0,0,1-.477.823,1.2,1.2,0,0,1-.729.27c-.461.006-.668-.237-.643-.249a1.857,1.857,0,0,0,.631.079,1.118,1.118,0,0,0,.6-.269,1.284,1.284,0,0,0,.385-.7,2.644,2.644,0,0,0-.292-1.5c-.154-.385-.212-.646-.177-.655" transform="translate(-94.007 -160.645)" fill="#875149"/>
            <path id="Trazado_697959" data-name="Trazado 697959" d="M179.849,302.275l-.082-2.839a2.318,2.318,0,0,1-1.982.038,4.516,4.516,0,0,1,.291,2.131l-.164,1.041Z" transform="translate(-95.615 -161.04)" fill="#263238"/>
            <path id="Trazado_697960" data-name="Trazado 697960" d="M157.857,209.861c-.593-7.876,1.436-13.9,4.457-14.86.407-.129,1.976-.89,2.383-.76,2.95.941,5.079,7.145,5.6,14.065.443,5.877.061,11.547-1.99,14.007-.7.836-2.285.921-3.157,1.03-3.435.43-6.7-5.607-7.294-13.482" transform="translate(-84.842 -104.457)" fill="#455a64"/>
            <path id="Trazado_697961" data-name="Trazado 697961" d="M167.292,194.308c-3.64.8-5.936,7.513-5.361,15.055.674,8.843,3.958,13.853,7.393,13.424a3.867,3.867,0,0,0,1.209-.578c2.041-2.467,2.421-8.126,1.979-13.992-.52-6.9-2.284-12.939-5.22-13.909" transform="translate(-87.041 -104.501)" fill="#fff"/>
            <path id="Trazado_697962" data-name="Trazado 697962" d="M177.9,208.637c.442,5.867-.091,11.4-2.131,13.865,2.793-1.6,4.693-7.539,4.168-14.513-.593-7.875-4.014-14.184-7.45-13.754-.108.013-.139.228-.245.254,2.936.97,5.138,7.249,5.658,14.149" transform="translate(-92.636 -104.451)" fill="#263238"/>
            <path id="Trazado_697963" data-name="Trazado 697963" d="M161.873,209.239a.914.914,0,0,1,.027.171c.014.126.032.293.055.505.054.444.127,1.1.269,1.934a28.951,28.951,0,0,0,.662,3.013,20.865,20.865,0,0,0,1.444,3.81,12.355,12.355,0,0,0,1.255,2,5.785,5.785,0,0,0,1.91,1.641,2.831,2.831,0,0,0,2.573.022,5.207,5.207,0,0,0,1.994-2.015,16.333,16.333,0,0,0,1.915-5.91,30.527,30.527,0,0,0,.214-6.717,29.544,29.544,0,0,0-1.233-6.606,14.255,14.255,0,0,0-2.926-5.459,4,4,0,0,0-2.456-1.332,3.152,3.152,0,0,0-2.412.964,7.386,7.386,0,0,0-1.467,2.069,13.9,13.9,0,0,0-.868,2.2,26.07,26.07,0,0,0-1,7.076c-.014.847.011,1.506.024,1.952.009.213.016.381.021.507a.923.923,0,0,1,0,.174.922.922,0,0,1-.024-.172c-.011-.126-.025-.294-.044-.507-.029-.446-.07-1.105-.07-1.956a25.372,25.372,0,0,1,.934-7.124,13.968,13.968,0,0,1,.864-2.233,7.535,7.535,0,0,1,1.5-2.131,3.353,3.353,0,0,1,2.566-1.03,4.2,4.2,0,0,1,2.6,1.388,14.426,14.426,0,0,1,2.992,5.542,29.592,29.592,0,0,1,1.248,6.66,30.531,30.531,0,0,1-.221,6.77,16.478,16.478,0,0,1-1.959,5.991,5.4,5.4,0,0,1-2.09,2.088,2.977,2.977,0,0,1-1.405.316,3.224,3.224,0,0,1-1.349-.348,5.956,5.956,0,0,1-1.968-1.705,12.47,12.47,0,0,1-1.261-2.038,20.615,20.615,0,0,1-1.422-3.851,27.672,27.672,0,0,1-.625-3.034c-.128-.841-.187-1.5-.225-1.944-.013-.214-.024-.382-.032-.508a.915.915,0,0,1,0-.174" transform="translate(-86.983 -104.377)" fill="#263238"/>
            <path id="Trazado_697964" data-name="Trazado 697964" d="M174.706,222.575c.064.018-.495,2.215-1.248,4.906s-1.416,4.859-1.48,4.841.495-2.214,1.248-4.906,1.416-4.859,1.48-4.841" transform="translate(-92.489 -119.703)" fill="#263238"/>
            <path id="Trazado_697965" data-name="Trazado 697965" d="M175.358,213.049c.064.018-.5,2.215-1.248,4.906s-1.416,4.859-1.48,4.841.495-2.214,1.248-4.906,1.416-4.859,1.48-4.841" transform="translate(-92.84 -114.58)" fill="#263238"/>
            <path id="Trazado_697966" data-name="Trazado 697966" d="M296.161,153.687l-44.254,7.691q.212,1.044.427,2.071l-.109-.281c1.8,8.263,3.565,17.113.443,24.972-1.029,2.59-2.591,5.1-2.579,7.884.005,1.312.366,2.6.434,3.909a4.243,4.243,0,0,1-1.252,3.576c-1.1.885-2.952,1.032-3.357,2.384a2.925,2.925,0,0,0,.993,2.594,20.2,20.2,0,0,0,6.266,4.725,9.935,9.935,0,0,0,2.082,4.628l8.574-4.03-.526-2.785a4.153,4.153,0,0,0,2.894,2.341,10.507,10.507,0,0,0,4.906-.405,139.249,139.249,0,0,0,27-9.866c1.148-.56,6.949-.987,6.949-.987.984-14.687-3.434-34.749-8.892-48.42" transform="translate(-132.219 -82.655)" fill="#263238"/>
            <path id="Trazado_697967" data-name="Trazado 697967" d="M301.478,127.5c-3.073-6.422-6.246-13.114-12.755-16-5.8-2.57-11.582-2.234-17.662-.422a22.449,22.449,0,0,0-8.315,5.311c-3.1,2.959-3.577,7.495-4.367,11.7-1.583,8.434,1.445,18.545,4.53,20.788l35.764,8.68c4.849-4.319,8.242-6.62,8.172-13.114-.048-4.422-3.456-12.96-5.365-16.949" transform="translate(-138.725 -58.97)" fill="#263238"/>
            <path id="Trazado_697968" data-name="Trazado 697968" d="M291.772,126.549l-21.337-.836c-6.632.686-9.255,9.585-8.289,16.182,1.074,7.329,2.674,16.234,4.673,21.449,4.018,10.487,12.627,10.109,12.627,10.109-.006-.037.06.157.8,3.367l1.526,7.259c4.588,8.209,13.263,5.2,23.392-1.8L296.006,129.7a3.9,3.9,0,0,0-4.234-3.149" transform="translate(-140.881 -67.61)" fill="#ba7e6d"/>
            <path id="Trazado_697969" data-name="Trazado 697969" d="M271.614,176.148a1.422,1.422,0,0,0,1.639,1.12,1.361,1.361,0,0,0,1.169-1.559,1.422,1.422,0,0,0-1.637-1.121,1.361,1.361,0,0,0-1.171,1.559" transform="translate(-146.067 -93.886)" fill="#263238"/>
            <path id="Trazado_697970" data-name="Trazado 697970" d="M269.115,169.757c.211.145,1.1-.858,2.6-1.171,1.492-.334,2.754.2,2.878-.013.063-.1-.183-.389-.734-.636a3.9,3.9,0,0,0-2.351-.214,3.749,3.749,0,0,0-2.021,1.159c-.386.451-.472.812-.37.875" transform="translate(-144.712 -90.155)" fill="#263238"/>
            <path id="Trazado_697971" data-name="Trazado 697971" d="M301.816,168.855a1.422,1.422,0,0,0,1.638,1.12,1.361,1.361,0,0,0,1.169-1.558,1.423,1.423,0,0,0-1.638-1.121,1.36,1.36,0,0,0-1.17,1.559" transform="translate(-162.309 -89.964)" fill="#263238"/>
            <path id="Trazado_697972" data-name="Trazado 697972" d="M300.559,162.2c.211.145,1.1-.858,2.6-1.17,1.492-.334,2.754.2,2.878-.014.062-.1-.181-.389-.735-.635a3.893,3.893,0,0,0-2.351-.214,3.749,3.749,0,0,0-2.02,1.159c-.385.451-.472.812-.371.875" transform="translate(-161.623 -86.09)" fill="#263238"/>
            <path id="Trazado_697973" data-name="Trazado 697973" d="M289.183,175.5a10.162,10.162,0,0,0-2.525.075c-.391.042-.769.042-.888-.205a1.989,1.989,0,0,1,.016-1.187q.246-1.5.515-3.151c.693-4.478,1.109-8.128.929-8.153s-.889,3.581-1.583,8.06q-.243,1.653-.464,3.158a2.262,2.262,0,0,0,.119,1.543.982.982,0,0,0,.747.426,2.666,2.666,0,0,0,.668-.047,9.95,9.95,0,0,0,2.466-.518" transform="translate(-153.332 -87.598)" fill="#263238"/>
            <path id="Trazado_697974" data-name="Trazado 697974" d="M299.8,220.915a28.217,28.217,0,0,0,13.713-6.95s-1.987,8.353-13.062,9.635Z" transform="translate(-161.237 -115.073)" fill="#875149"/>
            <path id="Trazado_697975" data-name="Trazado 697975" d="M301.347,193.288a2.039,2.039,0,0,0-1.85-.553,2.649,2.649,0,0,0-2.116,1.671,1.647,1.647,0,0,0,.141,1.186c.128.179.041.1.223.2a4.632,4.632,0,0,0,2.1.758,1.99,1.99,0,0,0,1.9-1.192,2.032,2.032,0,0,0-.393-2.071" transform="translate(-159.901 -103.636)" fill="#875149"/>
            <path id="Trazado_697976" data-name="Trazado 697976" d="M299.94,190.4c-.246.036.085,1.664-1.071,3.105s-2.925,1.619-2.891,1.848c0,.107.452.237,1.188.106a4.135,4.135,0,0,0,2.432-1.451,3.6,3.6,0,0,0,.794-2.583c-.078-.693-.342-1.059-.452-1.027" transform="translate(-159.18 -102.4)" fill="#263238"/>
            <path id="Trazado_697977" data-name="Trazado 697977" d="M296.96,152.872c.212.389,1.693-.036,3.5-.092,1.807-.092,3.318.21,3.5-.2.078-.193-.23-.542-.87-.852a6.09,6.09,0,0,0-5.331.219c-.611.361-.891.735-.8.92" transform="translate(-159.699 -81.329)" fill="#263238"/>
            <path id="Trazado_697978" data-name="Trazado 697978" d="M267.453,161.682c.41.207,1.362-.576,2.664-1.132,1.285-.6,2.507-.782,2.624-1.223.045-.209-.263-.459-.873-.563a4.359,4.359,0,0,0-2.393.372,4.309,4.309,0,0,0-1.868,1.527c-.326.521-.342.915-.154,1.021" transform="translate(-143.774 -85.362)" fill="#263238"/>
            <path id="Trazado_697979" data-name="Trazado 697979" d="M279.238,118.666a24.619,24.619,0,0,0,4.927,12.392,9.031,9.031,0,0,0,2.738,2.555,4.039,4.039,0,0,0,3.624.241,15,15,0,0,1-5.036-7.612c2.042,2.736,4.133,5.52,6.924,7.487s6.45,3.017,9.677,1.9l-.772-2.16a7.892,7.892,0,0,0,3.64,3.466A4.028,4.028,0,0,0,309.6,135.9c-2.449-5.113-.6-11.779-3.936-16.363-2.31-3.175-6.5-4.378-10.415-4.626a31.291,31.291,0,0,0-16.034,3.3" transform="translate(-150.168 -61.767)" fill="#263238"/>
            <path id="Trazado_697980" data-name="Trazado 697980" d="M280.274,123.054c0,.082.006.164.008.246l.041.006q-.024-.126-.049-.252" transform="translate(-150.734 -66.18)" fill="#263238"/>
            <path id="Trazado_697981" data-name="Trazado 697981" d="M267.8,122.876l-.721-.109c-2.289-.545-3.915-1.4-6.38,2.17a20.061,20.061,0,0,0-2.823,7.167,25.7,25.7,0,0,0-.762,7.157,29.551,29.551,0,0,0,1.818,8.314c1.526-1.662,1.925-4.059,1.987-6.314s-.14-4.555.452-6.731a17.171,17.171,0,0,0,1.023,5.533,2.335,2.335,0,0,0,.926,1.2.979.979,0,0,0,1.337-.33,12.112,12.112,0,0,1-1.59-6.478,34.4,34.4,0,0,1,.931-6.684,33.208,33.208,0,0,0,3.124,10.846,2.881,2.881,0,0,0,.971,1.279,2.642,2.642,0,0,0,2.342-.09,5.54,5.54,0,0,1,2.315-.68,31.874,31.874,0,0,1-4.951-16.252" transform="translate(-138.255 -65.756)" fill="#263238"/>
            <path id="Trazado_697982" data-name="Trazado 697982" d="M293.622,234.811l33.454,1.719-21.5,26.9-8.833,4.155-7.835-1.872-1.8-5.7Z" transform="translate(-154.407 -126.284)" fill="#ba7e6d"/>
            <path id="Trazado_697983" data-name="Trazado 697983" d="M371,249.055a4.092,4.092,0,0,1-.688.072,17.284,17.284,0,0,0-1.86.229,8.566,8.566,0,0,0-2.59.923,12.211,12.211,0,0,0-2.707,2.011,13.33,13.33,0,0,0-1.959,2.756A23.991,23.991,0,0,0,360,257.558c-.3.734-.518,1.339-.669,1.756a3.951,3.951,0,0,1-.251.645,3.66,3.66,0,0,1,.161-.673c.124-.428.318-1.044.6-1.79A21.4,21.4,0,0,1,361,254.94a12.99,12.99,0,0,1,1.98-2.816,11.946,11.946,0,0,1,2.776-2.039,8.35,8.35,0,0,1,2.665-.9,13.158,13.158,0,0,1,1.885-.155,3.532,3.532,0,0,1,.692.021" transform="translate(-193.118 -133.932)" fill="#263238"/>
            <path id="Trazado_697984" data-name="Trazado 697984" d="M192.132,293.409s12.419,24.087,14.5,26.775c4.925,6.346,16.153,4.324,17.765.845,2.78-6,11.624-26.07,11.624-26.07l-2.924-7.211-9.846-20.355L213.6,300.8l-12.5-15.83Z" transform="translate(-103.331 -143.807)" fill="#12263f"/>
            <path id="Trazado_697985" data-name="Trazado 697985" d="M329.711,288.516s-1.119-33.954-2.548-38.646-3.175-7.272-6.707-9.555c-4.023-2.6-8.3-3.355-8.784-3.785,0,0-12.229,13.578-18.349,21.33s-14.076,8.16-15.708,6.12-2.856-6.208-1.428-12.794a136.03,136.03,0,0,0,2.032-16.375l-1.423.158a20.853,20.853,0,0,0-17.586,14q-.147.444-.281.9c-2.867,9.812,8.377,23.921,8.376,23.3a36.1,36.1,0,0,0,.721,7.74c1.633,6.531,15.913,17.489,16.729,20.68s1.494,23.631,1.494,23.631,24.761.05,34.741,0c8.112-.04,25.929,0,25.929,0Z" transform="translate(-139.003 -126.284)" fill="#12263f"/>
            <path id="Trazado_697986" data-name="Trazado 697986" d="M275.588,263.9a2.58,2.58,0,0,1,.13.387,11.444,11.444,0,0,1,.3,1.133,22.157,22.157,0,0,1,.514,4.278,55.787,55.787,0,0,1-.226,6.385c-.187,2.4-.477,5.022-.615,7.786a39.629,39.629,0,0,0,.259,7.776,22.788,22.788,0,0,0,1.742,6.089,21.963,21.963,0,0,0,2.153,3.7c.3.408.552.711.712.926a2.62,2.62,0,0,1,.238.332,2.609,2.609,0,0,1-.276-.3c-.171-.205-.437-.5-.75-.9a20.535,20.535,0,0,1-2.232-3.685,22.425,22.425,0,0,1-1.807-6.127,38.858,38.858,0,0,1-.28-7.821c.138-2.774.435-5.4.634-7.792a59.1,59.1,0,0,0,.277-6.362,23.948,23.948,0,0,0-.436-4.264c-.084-.5-.2-.878-.256-1.139a2.644,2.644,0,0,1-.084-.4" transform="translate(-148.101 -141.929)" fill="#263238"/>
            <g id="Grupo_952306" data-name="Grupo 952306" transform="translate(125.174 126.24)" opacity="0.3">
              <g id="Grupo_952305" data-name="Grupo 952305">
                <g id="Grupo_952304" data-name="Grupo 952304" clip-path="url(#clip-path-6)">
                  <path id="Trazado_697987" data-name="Trazado 697987" d="M276,303.964c-2.948-1.959-4.555-5.484-5.007-8.995a37.273,37.273,0,0,1,.659-10.559c.616-3.881,1.642-7.393,2.258-11.275.4,5.377-.2,10.074-.59,15.305s-.192,10.825,2.677,15.216" transform="translate(-270.828 -273.136)"/>
                </g>
              </g>
            </g>
            <path id="Trazado_697988" data-name="Trazado 697988" d="M232.716,332.184c-.052.042-4.706-5.7-10.394-12.828s-10.259-12.937-10.207-12.979,4.705,5.7,10.4,12.828,10.257,12.936,10.206,12.978" transform="translate(-114.078 -164.773)" fill="#263238"/>
            <g id="Grupo_952309" data-name="Grupo 952309" transform="translate(158.137 112.139)" opacity="0.3">
              <g id="Grupo_952308" data-name="Grupo 952308">
                <g id="Grupo_952307" data-name="Grupo 952307" clip-path="url(#clip-path-7)">
                  <path id="Trazado_697989" data-name="Trazado 697989" d="M342.149,258.037a9.3,9.3,0,0,0,2.281,2.374,3.157,3.157,0,0,0,3.141.289c1.157-.639,1.54-2.081,1.905-3.351a28.848,28.848,0,0,1,9.972-14.723,49.505,49.505,0,0,0-10.215,5.079,16.646,16.646,0,0,0-6.756,8.939" transform="translate(-342.149 -242.626)"/>
                </g>
              </g>
            </g>
            <path id="Trazado_697990" data-name="Trazado 697990" d="M310.779,330.6a1.776,1.776,0,0,1-.33.078l-.957.177c-.415.077-.925.164-1.52.246s-1.269.193-2.02.274c-1.5.19-3.292.353-5.287.471s-4.193.156-6.5.109-4.5-.209-6.49-.4-3.771-.452-5.261-.71c-.747-.115-1.416-.255-2.006-.366s-1.095-.22-1.507-.315l-.948-.22a1.788,1.788,0,0,1-.327-.093,1.848,1.848,0,0,1,.337.045l.956.176c.414.081.921.177,1.512.274s1.261.226,2.008.33c1.49.236,3.272.461,5.256.657s4.173.327,6.473.384,4.491,0,6.482-.089,3.781-.25,5.28-.418c.751-.07,1.426-.167,2.021-.238s1.106-.143,1.523-.205l.963-.132a1.783,1.783,0,0,1,.339-.03" transform="translate(-149.311 -177.395)" fill="#fff"/>
            <path id="Trazado_697991" data-name="Trazado 697991" d="M312.8,292.176a2.292,2.292,0,0,1-.3.243l-.888.661-.646.474c-.242.165-.518.323-.807.5a21.881,21.881,0,0,1-2.012,1.158l-1.2.613c-.421.209-.881.377-1.346.579a32.1,32.1,0,0,1-3.04,1.1,33.534,33.534,0,0,1-14.668,1.072,32.093,32.093,0,0,1-3.167-.645c-.489-.131-.969-.231-1.416-.377l-1.281-.431a22.038,22.038,0,0,1-2.159-.853c-.313-.137-.609-.254-.872-.382l-.708-.374-.975-.525a2.32,2.32,0,0,1-.331-.2,2.307,2.307,0,0,1,.354.154l.993.484.715.354c.265.121.563.232.877.362.634.248,1.337.577,2.161.815l1.278.415c.446.14.924.234,1.411.361.971.272,2.037.426,3.151.619a34.08,34.08,0,0,0,14.572-1.065c1.075-.354,2.107-.66,3.027-1.071.464-.2.923-.359,1.343-.562l1.2-.6a23.029,23.029,0,0,0,2.02-1.121c.292-.175.57-.327.815-.486l.655-.454.912-.623a2.354,2.354,0,0,1,.329-.2" transform="translate(-148.961 -157.135)" fill="#fff"/>
            <path id="Trazado_697992" data-name="Trazado 697992" d="M214.235,329.726a2.042,2.042,0,0,1-.321.39c-.217.241-.544.578-.96.983a34.829,34.829,0,0,1-7.269,5.387c-.508.28-.925.5-1.219.633a2.057,2.057,0,0,1-.466.194c-.018-.034.61-.379,1.6-.974s2.336-1.454,3.752-2.5,2.629-2.086,3.486-2.861,1.37-1.275,1.4-1.248" transform="translate(-109.713 -177.33)" fill="#fff"/>
            <path id="Trazado_697993" data-name="Trazado 697993" d="M236.028,353.275a3.527,3.527,0,0,1-.2.635c-.07.2-.162.448-.287.727s-.25.6-.428.942a21.254,21.254,0,0,1-1.329,2.344,21.907,21.907,0,0,1-4.393,4.9,21.153,21.153,0,0,1-2.184,1.579c-.318.213-.626.376-.89.528s-.5.272-.691.364a3.537,3.537,0,0,1-.608.269,3.552,3.552,0,0,1,.564-.352c.186-.1.413-.233.667-.4s.555-.334.865-.555a24.117,24.117,0,0,0,2.134-1.606,23.49,23.49,0,0,0,4.35-4.857,24.046,24.046,0,0,0,1.363-2.3c.185-.333.323-.649.456-.921s.239-.51.323-.707a3.545,3.545,0,0,1,.288-.6" transform="translate(-121.017 -189.995)" fill="#fff"/>
            <path id="Trazado_697994" data-name="Trazado 697994" d="M257.979,340.9a4.775,4.775,0,0,1-.438-.635c-.264-.419-.665-1.014-1.18-1.735s-1.158-1.555-1.913-2.449-1.639-1.829-2.616-2.761-1.97-1.752-2.895-2.468-1.8-1.309-2.546-1.782-1.362-.845-1.794-1.087a4.672,4.672,0,0,1-.657-.4,4.782,4.782,0,0,1,.7.322c.447.217,1.078.565,1.84,1.025s1.644,1.048,2.59,1.75a32.926,32.926,0,0,1,5.545,5.263c.75.908,1.387,1.756,1.883,2.495s.88,1.348,1.12,1.784a4.725,4.725,0,0,1,.358.685" transform="translate(-131.194 -176.176)" fill="#fff"/>
            <path id="Trazado_697995" data-name="Trazado 697995" d="M262.912,302.065c-.026.03-.575-.438-1.508-1.131a30.652,30.652,0,0,0-7.961-4.284c-1.093-.4-1.785-.6-1.775-.635a2.08,2.08,0,0,1,.5.094c.319.073.774.2,1.331.38a25.583,25.583,0,0,1,8.01,4.309c.456.366.814.675,1.051.9a2.047,2.047,0,0,1,.354.366" transform="translate(-135.35 -159.198)" fill="#fff"/>
            <path id="Trazado_697996" data-name="Trazado 697996" d="M267.553,273.648a9.871,9.871,0,0,1-1.223-.63c-.747-.4-1.789-.933-2.972-1.453s-2.282-.924-3.083-1.2a10.023,10.023,0,0,1-1.293-.472,6.422,6.422,0,0,1,1.345.31,26.523,26.523,0,0,1,6.088,2.668,6.493,6.493,0,0,1,1.139.778" transform="translate(-139.283 -145.148)" fill="#fff"/>
            <path id="Trazado_697997" data-name="Trazado 697997" d="M284.016,251.884c-.017.034-.6-.24-1.566-.636a33.589,33.589,0,0,0-7.82-2.169c-1.03-.158-1.673-.224-1.67-.262a1.675,1.675,0,0,1,.456-.007c.293.009.715.043,1.236.1a26.332,26.332,0,0,1,7.865,2.182c.476.219.855.408,1.112.551a1.671,1.671,0,0,1,.387.241" transform="translate(-146.801 -133.809)" fill="#fff"/>
            <path id="Trazado_697998" data-name="Trazado 697998" d="M321.921,365.083a3.735,3.735,0,0,1-.678.093c-.438.046-1.072.093-1.858.136-1.57.086-3.746.124-6.144.012s-4.562-.358-6.118-.592c-.777-.116-1.405-.223-1.836-.31a3.686,3.686,0,0,1-.666-.156,3.773,3.773,0,0,1,.681.064l1.844.234c1.558.19,3.715.406,6.106.52s4.558.1,6.127.058l1.858-.059a3.681,3.681,0,0,1,.684,0" transform="translate(-163.829 -195.904)" fill="#fff"/>
            <path id="Trazado_697999" data-name="Trazado 697999" d="M375.165,407.224a.583.583,0,0,1-.131.052l-.392.131-1.515.48c-.657.21-1.464.458-2.41.716s-2.015.581-3.214.873c-1.2.307-2.506.639-3.924.947-1.412.336-2.935.629-4.535.95-3.208.6-6.753,1.16-10.5,1.585-3.746.41-7.329.645-10.591.767-1.632.04-3.182.09-4.633.073-1.451.012-2.8-.023-4.036-.059-1.234-.02-2.348-.1-3.327-.143s-1.821-.108-2.509-.168l-1.583-.135-.411-.041a.607.607,0,0,1-.139-.022.6.6,0,0,1,.141,0l.413.017,1.585.09c.688.046,1.53.1,2.509.127s2.092.1,3.325.107c1.232.026,2.582.051,4.031.03,1.449.008,3-.05,4.626-.1,3.256-.134,6.832-.376,10.572-.784,3.736-.425,7.277-.978,10.482-1.565,1.6-.315,3.121-.6,4.532-.926,1.418-.3,2.729-.621,3.925-.917,1.2-.281,2.273-.588,3.22-.838s1.758-.48,2.42-.676l1.527-.437.4-.108a.614.614,0,0,1,.138-.029" transform="translate(-172.809 -219.009)" fill="#fff"/>
            <path id="Trazado_698000" data-name="Trazado 698000" d="M402.948,380.645c.007.066-4.663.611-10.43,1.217s-10.449,1.044-10.456.978,4.662-.611,10.431-1.217,10.448-1.044,10.455-.978" transform="translate(-205.478 -204.712)" fill="#fff"/>
            <path id="Trazado_698001" data-name="Trazado 698001" d="M399.392,351.574c.017.064-2.331.724-5.243,1.473s-5.286,1.3-5.3,1.24,2.33-.724,5.244-1.473,5.286-1.3,5.3-1.24" transform="translate(-209.126 -189.078)" fill="#fff"/>
            <path id="Trazado_698002" data-name="Trazado 698002" d="M400.729,325.1a49.949,49.949,0,0,1-6.723,1.682,50,50,0,0,1,6.723-1.682" transform="translate(-211.901 -174.837)" fill="#fff"/>
            <g id="Grupo_952312" data-name="Grupo 952312" transform="translate(146.981 145.344)" opacity="0.3">
              <g id="Grupo_952311" data-name="Grupo 952311">
                <g id="Grupo_952310" data-name="Grupo 952310" clip-path="url(#clip-path-8)">
                  <path id="Trazado_698003" data-name="Trazado 698003" d="M318.011,361.261c5.741,1.152,10.988,3.091,16.808,2.451s11.711-3.377,14.714-8.4c2.23-3.733,2.638-8.24,2.992-12.574q1.155-14.133,2.311-28.266l-11.9,33.012-5.71,8.707Z" transform="translate(-318.011 -314.468)"/>
                </g>
              </g>
            </g>
            <path id="Trazado_698004" data-name="Trazado 698004" d="M270.7,315.646l32.992-5.636s6.9-41.743,7.089-42.486,2.5-13.741,9.04-14.855,12.5,1.485,12.887,7.8c.307,5.05-7.018,41.313-11.636,58.106-1.328,4.83-6.622,9.106-11.8,9.2-13.49.255-38.44,0-38.44,0Z" transform="translate(-145.584 -135.753)" fill="#12263f"/>
            <path id="Trazado_698005" data-name="Trazado 698005" d="M310.641,276.889l-6.992,42.5-.011.069-.069.012-32.988,5.654.1-.116c.043,3.862.089,7.957.136,12.132l-.118-.118,12.489.087c6.985.032,13.805.04,20.391-.012l4.894-.061a11.494,11.494,0,0,0,4.641-.88,13.919,13.919,0,0,0,6.778-5.994l.267-.494.222-.513a8.76,8.76,0,0,0,.381-1.044c.214-.71.39-1.435.584-2.145.388-1.422.734-2.834,1.087-4.223q1.04-4.171,1.942-8.111c1.209-5.244,2.271-10.143,3.212-14.622,1.86-8.962,3.239-16.241,4.047-21.295.2-1.263.382-2.385.508-3.362l.184-1.35q.064-.619.116-1.123a13.7,13.7,0,0,0,.1-1.527c.012-.345.024-.522.024-.522s0,.177,0,.522a12.578,12.578,0,0,1-.079,1.531q-.047.5-.105,1.125l-.173,1.353c-.119.978-.29,2.1-.486,3.368-.781,5.061-2.135,12.346-3.973,21.315-.93,4.482-1.983,9.385-3.184,14.632q-.9,3.936-1.931,8.117c-.351,1.39-.7,2.8-1.082,4.228-.195.712-.367,1.432-.584,2.151a9.071,9.071,0,0,1-.388,1.067l-.227.524-.271.5a14.139,14.139,0,0,1-6.885,6.1,11.732,11.732,0,0,1-4.724.9l-4.9.064c-6.588.055-13.408.049-20.394.017l-12.49-.088h-.117v-.117c-.045-4.175-.089-8.27-.131-12.132v-.1l.1-.017,32.995-5.617-.08.081c2.156-12.894,3.932-23.513,5.17-30.915.631-3.692,1.125-6.582,1.462-8.553.174-.979.307-1.729.4-2.239s.155-.763.155-.763" transform="translate(-145.447 -145.119)" fill="#263238"/>
            <path id="Trazado_698006" data-name="Trazado 698006" d="M371.89,319.008a4.706,4.706,0,0,1-.765-.073l-2.073-.258c-1.751-.21-4.176-.454-6.863-.6s-5.125-.159-6.888-.137l-2.09.036a4.683,4.683,0,0,1-.768-.009,4.666,4.666,0,0,1,.764-.084c.492-.04,1.206-.08,2.09-.112,1.766-.066,4.211-.077,6.906.067s5.123.416,6.872.671c.874.127,1.58.242,2.066.335a4.69,4.69,0,0,1,.75.165" transform="translate(-189.548 -170.875)" fill="#fff"/>
            <path id="Trazado_698007" data-name="Trazado 698007" d="M379.588,281.164a4.525,4.525,0,0,1-.744-.144c-.473-.112-1.163-.256-2.018-.411a37.361,37.361,0,0,0-13.5.021c-.855.158-1.544.3-2.017.417a4.6,4.6,0,0,1-.744.146,4.507,4.507,0,0,1,.721-.237c.467-.142,1.153-.313,2.007-.494a33.748,33.748,0,0,1,13.566-.02c.855.177,1.541.346,2.009.487a4.532,4.532,0,0,1,.721.235" transform="translate(-193.915 -150.46)" fill="#fff"/>
            <path id="Trazado_698008" data-name="Trazado 698008" d="M364.091,360.859a4.442,4.442,0,0,1-.624-.408c-.194-.14-.434-.307-.723-.485s-.605-.4-.982-.6a23.467,23.467,0,0,0-2.677-1.345,23.286,23.286,0,0,0-7.091-1.766,23.575,23.575,0,0,0-3-.068c-.428,0-.812.049-1.15.073s-.629.057-.867.089a4.37,4.37,0,0,1-.742.068,4.442,4.442,0,0,1,.729-.16c.236-.047.526-.1.866-.13s.725-.1,1.155-.11a21.4,21.4,0,0,1,3.022.017,22.08,22.08,0,0,1,7.161,1.784,21.381,21.381,0,0,1,2.677,1.4c.373.215.686.447.969.639s.517.369.7.521a4.46,4.46,0,0,1,.568.483" transform="translate(-186.211 -191.443)" fill="#fff"/>
            <path id="Trazado_698009" data-name="Trazado 698009" d="M354.712,391.915a4.443,4.443,0,0,1-.394-.633c-.237-.416-.589-1.014-1.035-1.744a55.646,55.646,0,0,0-8.245-10.486c-.605-.605-1.1-1.088-1.451-1.417a4.5,4.5,0,0,1-.523-.532,4.4,4.4,0,0,1,.585.463c.369.307.885.773,1.508,1.364a47.6,47.6,0,0,1,8.273,10.521c.428.744.758,1.356.971,1.786a4.415,4.415,0,0,1,.311.678" transform="translate(-184.503 -202.809)" fill="#fff"/>
            <path id="Trazado_698010" data-name="Trazado 698010" d="M306.032,398.995a2.507,2.507,0,0,1-.042-.56c-.012-.41-.026-.921-.043-1.525-.036-1.288-.106-3.065-.252-5.024s-.341-3.728-.5-5.007c-.073-.6-.135-1.107-.184-1.515a2.5,2.5,0,0,1-.041-.56,2.521,2.521,0,0,1,.134.546c.072.354.161.868.261,1.506.2,1.275.42,3.047.568,5.012s.19,3.749.182,5.04c0,.645-.016,1.167-.034,1.528a2.5,2.5,0,0,1-.051.56" transform="translate(-164.015 -206.952)" fill="#fff"/>
            <path id="Trazado_698011" data-name="Trazado 698011" d="M382.645,256.134c0,.067-3.392-.065-7.567-.294s-7.558-.468-7.554-.535,3.391.066,7.567.294,7.557.468,7.554.534" transform="translate(-197.658 -137.297)" fill="#fff"/>
            <g id="Grupo_952315" data-name="Grupo 952315" transform="translate(148.222 157.857)" opacity="0.3">
              <g id="Grupo_952314" data-name="Grupo 952314">
                <g id="Grupo_952313" data-name="Grupo 952313" clip-path="url(#clip-path-9)">
                  <path id="Trazado_698012" data-name="Trazado 698012" d="M330.578,357.941a33.29,33.29,0,0,1-9.883-7.08,16.012,16.012,0,0,1,4.1.961,4.775,4.775,0,0,0,4.067-.352,5.737,5.737,0,0,0,1.622-2.426,58.634,58.634,0,0,0,2.809-7.5c-.793,5.241-1.661,11.184-2.715,16.4" transform="translate(-320.695 -341.541)"/>
                </g>
              </g>
            </g>
            <g id="Grupo_952318" data-name="Grupo 952318" transform="translate(110.354 156.711)" opacity="0.3">
              <g id="Grupo_952317" data-name="Grupo 952317">
                <g id="Grupo_952316" data-name="Grupo 952316" clip-path="url(#clip-path-10)">
                  <path id="Trazado_698013" data-name="Trazado 698013" d="M238.764,339.062a34.421,34.421,0,0,1,9.87,9.506c.171.249.341.582.171.831-.208.3-.705.206-1-.014-3.076-2.306-6.648-6.983-9.04-10.323" transform="translate(-238.764 -339.062)"/>
                </g>
              </g>
            </g>
            <path id="Trazado_698014" data-name="Trazado 698014" d="M340.953,159.208l-9.238-16.8-9.652,1.058c-.688,7.486,6.268,13.926,6.122,21.442-.06,3.1-1.346,6.144-.94,9.216.384,2.9,2.233,5.441,2.641,8.336.484,3.422-1.091,6.75-2.335,9.974s-2.151,7-.465,10.016c3.579,1.613,5.057,1.7,8.444,2.4,2.585-2.414,3.539-7.818,7.331-11.593,0,0,4.784-5.861,8.9-4.045,0,0,4.73-2.682-5.276-16.7-2.288-3.206-4.31-9.133-5.531-13.3" transform="translate(-173.183 -76.588)" fill="#263238"/>
            <path id="Trazado_698015" data-name="Trazado 698015" d="M196.66,385.077l6.92-5.168a3.575,3.575,0,0,1,2.381-.656l5.544.467,12.958,5.613,6.317-.844.1,11.009a55.611,55.611,0,0,1-7.839-.064,18.59,18.59,0,0,1-5.307-2.345,2.47,2.47,0,0,1,.37,1.975c-.37.864-3.332,2.222-3.332,2.222s-2.1.74-2.469-.741c0,0-3.7.494-4.073-2.468,0,0-5.659-.96-4.853-3.564.6-1.935,1.209-3.348,1.209-3.348l1.669-3.7-1.875-.325s-3.392,2.531-4.872,2.778a4.113,4.113,0,0,1-2.847-.838" transform="translate(-105.766 -203.96)" fill="#ba7e6d"/>
            <path id="Trazado_698016" data-name="Trazado 698016" d="M223.121,392.814c.024.04-.517.308-1.2.97a6.277,6.277,0,0,0-1.771,3.167,6.876,6.876,0,0,0,.031,2.022c.092.623.215,1.18.326,1.645a13.323,13.323,0,0,1,.349,1.516,1.4,1.4,0,0,1-.166-.386c-.091-.253-.214-.623-.348-1.087a14.836,14.836,0,0,1-.381-1.655,6.663,6.663,0,0,1-.049-2.1,6.057,6.057,0,0,1,1.892-3.251,5.268,5.268,0,0,1,.933-.672,1.221,1.221,0,0,1,.384-.173" transform="translate(-118.237 -211.259)" fill="#875149"/>
            <path id="Trazado_698017" data-name="Trazado 698017" d="M230.125,399.427a2.955,2.955,0,0,1-.392.011,2.078,2.078,0,0,0-.972.346,2.628,2.628,0,0,0-.971,1.166,3.88,3.88,0,0,0-.226,1.866,11.03,11.03,0,0,0,.4,1.891c.158.58.308,1.1.451,1.528.282.861.524,1.369.49,1.386a1.173,1.173,0,0,1-.212-.338,9.431,9.431,0,0,1-.439-.991c-.165-.427-.334-.946-.5-1.524a10.028,10.028,0,0,1-.431-1.929,3.951,3.951,0,0,1,.263-1.978,2.709,2.709,0,0,1,1.085-1.222,1.989,1.989,0,0,1,1.059-.3.82.82,0,0,1,.394.083" transform="translate(-122.244 -214.771)" fill="#875149"/>
            <path id="Trazado_698018" data-name="Trazado 698018" d="M238.161,408.794c-.025-.015.021-.148.183-.292a1.451,1.451,0,0,1,.755-.33,1.073,1.073,0,0,1,.816.179c.176.147.2.3.172.3s-.108-.083-.266-.163a1.19,1.19,0,0,0-.69-.083,3.092,3.092,0,0,0-.97.384" transform="translate(-128.082 -219.512)" fill="#875149"/>
            <path id="Trazado_698019" data-name="Trazado 698019" d="M238.637,404.73c.024-.021.135.075.209.28a1.98,1.98,0,0,1,.1.818,1.589,1.589,0,0,1-.253.791c-.129.182-.269.233-.282.208s.062-.12.134-.293a2.289,2.289,0,0,0,.161-.726,3.485,3.485,0,0,0-.021-.755c-.026-.192-.073-.3-.044-.323" transform="translate(-128.216 -217.667)" fill="#875149"/>
            <path id="Trazado_698020" data-name="Trazado 698020" d="M211.188,394a1.78,1.78,0,0,1,.133-.45c.1-.284.252-.691.445-1.193.385-1,.933-2.384,1.552-3.9l.64-1.557.008-.019.012-.013a3.4,3.4,0,0,1,1.459-.951,3.49,3.49,0,0,1,1.36-.179,3.011,3.011,0,0,1,.878.187.872.872,0,0,1,.287.148,5.917,5.917,0,0,0-1.17-.19,3.466,3.466,0,0,0-2.639,1.137l.02-.032-.63,1.561c-.619,1.519-1.192,2.889-1.617,3.876-.213.494-.389.892-.516,1.165a1.781,1.781,0,0,1-.22.415" transform="translate(-113.578 -207.45)" fill="#875149"/>
          </g>
        </g>
        <g id="Grupo_952322" data-name="Grupo 952322">
          <g id="Grupo_952321" data-name="Grupo 952321" clip-path="url(#clip-path)">
            <path id="Trazado_698021" data-name="Trazado 698021" d="M80.271,310.99,103.2,362.3h53.411a4.584,4.584,0,0,0-4.462-3.691l-45.882-.334L84.183,309.235a2.144,2.144,0,0,0-3.912,1.755" transform="translate(-43.07 -165.63)" fill="#e0e0e0"/>
            <path id="Trazado_698022" data-name="Trazado 698022" d="M80.255,310.954a1.828,1.828,0,0,1-.1-.264,2.023,2.023,0,0,1-.086-.833,2.162,2.162,0,0,1,2.269-1.95,2.191,2.191,0,0,1,1.891,1.318l1.184,2.612,2.928,6.464,18.012,39.89-.1-.063,24.053.165,13.029.092,6.712.048,1.7.012a5.379,5.379,0,0,1,1.717.207,4.715,4.715,0,0,1,2.7,2.124,4.616,4.616,0,0,1,.4.878,3.832,3.832,0,0,1,.13.464l.028.117c-.237.29-.074.08-.131.145H143.313l-14.194,0-25.935-.012h-.068l-.028-.062L86.509,325.1l-4.634-10.441L80.661,311.9l-.308-.708c-.068-.159-.1-.242-.1-.242s.041.078.114.235l.323.7,1.242,2.742,4.687,10.417,16.658,37.168-.1-.061,25.935-.012,14.194,0h13.269c-.049.064.129-.142-.1.143l-.027-.111a3.581,3.581,0,0,0-.124-.44,4.366,4.366,0,0,0-.376-.833,4.477,4.477,0,0,0-2.56-2.015,5.141,5.141,0,0,0-1.65-.2l-1.7-.012-6.712-.049-13.029-.1-24.053-.185h-.069l-.028-.062L88.22,318.354l-2.9-6.476-1.171-2.618a2.116,2.116,0,0,0-4.05.6,2.059,2.059,0,0,0,.068.825c.053.179.094.267.088.269" transform="translate(-43.054 -165.594)" fill="#263238"/>
            <path id="Trazado_698023" data-name="Trazado 698023" d="M133.039,416.8a8.5,8.5,0,0,1-1.5,1.934,23.552,23.552,0,0,1-1.675,1.772,8.488,8.488,0,0,1,1.5-1.933,23.627,23.627,0,0,1,1.674-1.772" transform="translate(-69.842 -224.16)" fill="#263238"/>
            <path id="Trazado_698024" data-name="Trazado 698024" d="M141.361,420c0-.012.05-.047.16-.048a.66.66,0,0,1,.425.171.764.764,0,0,1,.267.641.768.768,0,0,1-1.389.286.765.765,0,0,1-.007-.694.664.664,0,0,1,.323-.325c.1-.042.164-.032.166-.019.016.036-.224.1-.332.41a.619.619,0,0,0,.041.515.562.562,0,0,0,.978-.2.616.616,0,0,0-.165-.489c-.223-.245-.468-.207-.467-.246" transform="translate(-75.69 -225.854)" fill="#263238"/>
            <path id="Trazado_698025" data-name="Trazado 698025" d="M146.668,420c0-.012.05-.047.16-.048a.66.66,0,0,1,.425.171.764.764,0,0,1,.267.641.768.768,0,0,1-1.389.286.765.765,0,0,1-.007-.694.664.664,0,0,1,.323-.325c.1-.042.164-.032.166-.019.016.036-.224.1-.332.41a.619.619,0,0,0,.041.515.562.562,0,0,0,.979-.2.618.618,0,0,0-.166-.489c-.223-.245-.468-.207-.467-.246" transform="translate(-78.544 -225.854)" fill="#263238"/>
          </g>
        </g>
        <rect id="Rectángulo_344768" data-name="Rectángulo 344768" width="210.845" height="5.726" transform="translate(0 196.333)" fill="#263238"/>
      </g>
    </g>
  </g>
</svg>
