<svg xmlns="http://www.w3.org/2000/svg" width="85" height="79" viewBox="0 0 85 79">
  <g id="Grupo_990684" data-name="Grupo 990684" transform="translate(-180 -874)">
    <g id="Grupo_951685" data-name="Grupo 951685" transform="translate(180 871)">
      <rect id="Rectángulo_33792" data-name="Rectángulo 33792" width="85" height="79" rx="5" transform="translate(0 3)" fill="#7fcbf3"/>
      <g id="apoyo_2_" data-name="apoyo (2)" transform="translate(18 17)">
        <path id="Trazado_676805" data-name="Trazado 676805" d="M339.565,8.533h-11.7a3.6,3.6,0,0,0-3.6,3.6v9a3.6,3.6,0,0,0,3.6,3.6h2.7v4.5l4.5-4.5h4.5a3.6,3.6,0,0,0,3.6-3.6v-9A3.6,3.6,0,0,0,339.565,8.533Z" transform="translate(-290.072 -7.633)" fill="#f0e4d6"/>
        <path id="Trazado_676806" data-name="Trazado 676806" d="M351.953,13.466A27.08,27.08,0,0,1,336.06,28.244a3.566,3.566,0,0,0,2.356.9h2.7v4.5l4.5-4.5h4.5a3.6,3.6,0,0,0,3.6-3.6v-9A3.586,3.586,0,0,0,351.953,13.466Z" transform="translate(-300.621 -12.046)" fill="#ebdcca"/>
        <path id="Trazado_676807" data-name="Trazado 676807" d="M45.427,275.363l9-17.1h-7.2l-4.5,8.1v-7.2a5.4,5.4,0,0,0-5.4-5.4h-5.4a2.7,2.7,0,0,1-2.7-2.7v-3.6h-7.2v3.6a2.7,2.7,0,0,1-2.7,2.7h-5.4a5.4,5.4,0,0,0-5.4,5.4v16.2Z" transform="translate(-7.632 -221.371)" fill="#fec9a3"/>
        <g id="Grupo_951647" data-name="Grupo 951647" transform="translate(4.5 40.409)">
          <path id="Trazado_676808" data-name="Trazado 676808" d="M46.237,396.781h-1.8v-2.393a8.969,8.969,0,0,1-.372-10.153l.658-1.037,1.52.965-.658,1.036a7.169,7.169,0,0,0,.454,8.32.9.9,0,0,1,.2.562v2.7Z" transform="translate(-42.669 -383.198)" fill="#f5b789"/>
          <path id="Trazado_676809" data-name="Trazado 676809" d="M266.578,396.781h-1.8v-2.7a.9.9,0,0,1,.2-.562,7.167,7.167,0,0,0,.454-8.319l-.658-1.037,1.52-.965.658,1.037a8.969,8.969,0,0,1-.372,10.153Z" transform="translate(-241.35 -383.198)" fill="#f5b789"/>
        </g>
        <path id="Trazado_676810" data-name="Trazado 676810" d="M76.4,30.13v-9a12.6,12.6,0,0,0-12.6-12.6h0a12.6,12.6,0,0,0-12.6,12.6v9a5.4,5.4,0,0,0,5.4,5.4H71A5.4,5.4,0,0,0,76.4,30.13Z" transform="translate(-45.801 -7.633)" fill="#645e39"/>
        <path id="Trazado_676811" data-name="Trazado 676811" d="M140.133,8.533a12.6,12.6,0,0,0-3.6.528,12.6,12.6,0,0,1,9,12.07v9a5.4,5.4,0,0,1-5.4,5.4h7.2a5.4,5.4,0,0,0,5.4-5.4v-9A12.6,12.6,0,0,0,140.133,8.533Z" transform="translate(-122.136 -7.633)" fill="#4f4a26"/>
        <path id="Trazado_676812" data-name="Trazado 676812" d="M383.566,304.066h-8.1a5.4,5.4,0,0,1,5.4-5.4h8.1A5.4,5.4,0,0,1,383.566,304.066Z" transform="translate(-335.873 -267.172)" fill="#fec9a3"/>
        <g id="Grupo_951648" data-name="Grupo 951648" transform="translate(37.794 4.499)">
          <rect id="Rectángulo_337407" data-name="Rectángulo 337407" width="6.299" height="1.8" transform="translate(0)" fill="#ccbfb0"/>
          <rect id="Rectángulo_337408" data-name="Rectángulo 337408" width="3.599" height="1.8" transform="translate(8.099)" fill="#ccbfb0"/>
          <rect id="Rectángulo_337409" data-name="Rectángulo 337409" width="11.698" height="1.8" transform="translate(0 3.599)" fill="#ccbfb0"/>
          <rect id="Rectángulo_337410" data-name="Rectángulo 337410" width="6.299" height="1.8" transform="translate(0 7.199)" fill="#ccbfb0"/>
        </g>
        <path id="Trazado_676813" data-name="Trazado 676813" d="M143.737,251.112v-3.645h-7.2v3.645a8.034,8.034,0,0,0,7.208,0Z" transform="translate(-122.136 -221.371)" fill="#f7c097"/>
        <path id="Trazado_676814" data-name="Trazado 676814" d="M93.867,90.2v3.875a8.1,8.1,0,0,0,16.2,0v-7.2a8.055,8.055,0,0,0-.969-3.842Z" transform="translate(-83.968 -74.274)" fill="#fec9a3"/>
        <rect id="Rectángulo_337411" data-name="Rectángulo 337411" width="12.598" height="9.899" transform="translate(11.698 37.794)" fill="#13c6cc"/>
        <path id="Trazado_676815" data-name="Trazado 676815" d="M47.227,311.7l-4.5,8.1v-7.2a5.4,5.4,0,0,0-5.4-5.4h-2.88L25.63,318.9l-8.369-11.7h-3.33a5.4,5.4,0,0,0-5.4,5.4v16.2H45.428l9-17.1Z" transform="translate(-7.633 -274.805)" fill="#a19e9e"/>
        <path id="Trazado_676816" data-name="Trazado 676816" d="M169.379,311.989h-7.2l-4.5,8.1v-7.2a5.4,5.4,0,0,0-4.806-5.365c-1.62,12.57-9.17,18.645-15.838,21.563H160.38Z" transform="translate(-122.586 -275.095)" fill="#afafaf"/>
        <g id="Grupo_951649" data-name="Grupo 951649" transform="translate(4.5 40.409)">
          <path id="Trazado_676817" data-name="Trazado 676817" d="M46.237,396.781h-1.8v-2.393a8.969,8.969,0,0,1-.372-10.153l.658-1.037,1.52.965-.658,1.036a7.169,7.169,0,0,0,.454,8.32.9.9,0,0,1,.2.562v2.7Z" transform="translate(-42.669 -383.198)" fill="#3685ba"/>
          <path id="Trazado_676818" data-name="Trazado 676818" d="M266.578,396.781h-1.8v-2.7a.9.9,0,0,1,.2-.562,7.167,7.167,0,0,0,.454-8.319l-.658-1.037,1.52-.965.658,1.037a8.969,8.969,0,0,1-.372,10.153Z" transform="translate(-241.35 -383.198)" fill="#3685ba"/>
        </g>
        <path id="Trazado_676819" data-name="Trazado 676819" d="M178.766,94.07v-7.2a8.055,8.055,0,0,0-.969-3.842L175.513,84.1a12.542,12.542,0,0,1,.553,3.668v9a5.4,5.4,0,0,1-5.4,5.4,8.1,8.1,0,0,0,8.1-8.1Z" transform="translate(-152.67 -74.273)" fill="#f7c097"/>
        <path id="Trazado_676820" data-name="Trazado 676820" d="M63.363,27.9h-.9v1.8h.9a6.306,6.306,0,0,0,6.3-6.3V13.5a13.5,13.5,0,0,0-27,0v9.9a6.306,6.306,0,0,0,6.3,6.3h.9V27.9h-.9a4.5,4.5,0,0,1-4.5-4.5V13.5a11.7,11.7,0,0,1,23.4,0v9.9A4.5,4.5,0,0,1,63.363,27.9Z" transform="translate(-38.167 0)"/>
        <path id="Trazado_676821" data-name="Trazado 676821" d="M46.242,384.163l-1.52-.965-.658,1.037a8.969,8.969,0,0,0,.372,10.153v2.393h1.8v-2.7a.9.9,0,0,0-.2-.562,7.169,7.169,0,0,1-.454-8.32Z" transform="translate(-38.168 -342.789)"/>
        <path id="Trazado_676822" data-name="Trazado 676822" d="M331.931,0h-11.7a4.5,4.5,0,0,0-4.5,4.5v9a4.5,4.5,0,0,0,4.5,4.5h1.8v3.6a.9.9,0,0,0,.555.831.9.9,0,0,0,.981-.2L327.8,18h4.127a4.5,4.5,0,0,0,4.5-4.5v-9A4.5,4.5,0,0,0,331.931,0Zm2.7,13.5a2.7,2.7,0,0,1-2.7,2.7h-4.5a.9.9,0,0,0-.636.264l-2.963,2.963V17.1a.9.9,0,0,0-.9-.9h-2.7a2.7,2.7,0,0,1-2.7-2.7v-9a2.7,2.7,0,0,1,2.7-2.7h11.7a2.7,2.7,0,0,1,2.7,2.7Z" transform="translate(-282.438 0)"/>
        <rect id="Rectángulo_337412" data-name="Rectángulo 337412" width="6.299" height="1.8" transform="translate(37.794 4.499)"/>
        <rect id="Rectángulo_337413" data-name="Rectángulo 337413" width="3.599" height="1.8" transform="translate(45.893 4.499)"/>
        <rect id="Rectángulo_337414" data-name="Rectángulo 337414" width="11.698" height="1.8" transform="translate(37.794 8.099)"/>
        <rect id="Rectángulo_337415" data-name="Rectángulo 337415" width="6.299" height="1.8" transform="translate(37.794 11.698)"/>
        <path id="Trazado_676823" data-name="Trazado 676823" d="M264.778,394.081v2.7h1.8v-2.393a8.969,8.969,0,0,0,.372-10.153l-.658-1.037-1.52.965.658,1.037a7.168,7.168,0,0,1-.454,8.319A.9.9,0,0,0,264.778,394.081Z" transform="translate(-236.851 -342.789)"/>
        <path id="Trazado_676824" data-name="Trazado 676824" d="M1.8,104.442a4.5,4.5,0,0,1,4.5-4.5H9.163l8.1,11.322a.9.9,0,0,0,.72.376H18a.9.9,0,0,0,.72-.36l8.549-11.338H29.7a4.5,4.5,0,0,1,4.5,4.5v7.2a.9.9,0,0,0,1.686.436l4.242-7.635h5.159l-8.774,16.2h2.047l8.777-16.2h.36a6.306,6.306,0,0,0,6.3-6.3.9.9,0,0,0-.9-.9h-8.1a6.3,6.3,0,0,0-6.286,6.043l-2.712,4.883v-3.727a6.306,6.306,0,0,0-6.3-6.3H26.407l-.024-.019-.016.019H24.3a1.8,1.8,0,0,1-1.8-1.8V94.226A9,9,0,0,0,27,86.444v-7.2a9.013,9.013,0,0,0-1.08-4.271.9.9,0,0,0-1.17-.387L9.515,81.754A.9.9,0,0,0,9,82.569v3.876a9,9,0,0,0,4.5,7.781v2.117a1.8,1.8,0,0,1-1.8,1.8H6.3a6.306,6.306,0,0,0-6.3,6.3v16.2H1.8Zm43.194-5.4H52.1a4.507,4.507,0,0,1-4.409,3.6H40.584A4.507,4.507,0,0,1,44.993,99.043ZM18.016,109.222l-2.777-3.88h5.7ZM10.8,86.444v-3.3L24.693,76.6a7.2,7.2,0,0,1,.5,2.644v7.2a7.2,7.2,0,1,1-14.4,0Zm.9,13.5a3.6,3.6,0,0,0,3.6-3.6V95.028a8.987,8.987,0,0,0,5.4,0v1.315a3.6,3.6,0,0,0,3.6,3.6h.72l-2.714,3.6H13.948l-2.576-3.6Z" transform="translate(0 -66.647)"/>
      </g>
    </g>
  </g>
</svg>
