<svg xmlns="http://www.w3.org/2000/svg" xmlns:xlink="http://www.w3.org/1999/xlink" width="250" height="250" viewBox="0 0 250 250">
  <defs>
    <clipPath id="clip-path">
      <rect id="Rectángulo_344488" data-name="Rectángulo 344488" width="250" height="250" fill="none"/>
    </clipPath>
    <filter id="Rectángulo_344460" x="38.432" y="184.323" width="48.693" height="29.68" filterUnits="userSpaceOnUse">
      <feOffset dy="3" input="SourceAlpha"/>
      <feGaussianBlur stdDeviation="3" result="blur"/>
      <feFlood flood-opacity="0.161"/>
      <feComposite operator="in" in2="blur"/>
      <feComposite in="SourceGraphic"/>
    </filter>
    <filter id="Trazado_696857" x="153.422" y="13.569" width="34.531" height="34.531" filterUnits="userSpaceOnUse">
      <feOffset dy="3" input="SourceAlpha"/>
      <feGaussianBlur stdDeviation="3" result="blur-2"/>
      <feFlood flood-opacity="0.161"/>
      <feComposite operator="in" in2="blur-2"/>
      <feComposite in="SourceGraphic"/>
    </filter>
    <filter id="Rectángulo_344472" x="36.489" y="36.539" width="27.334" height="27.334" filterUnits="userSpaceOnUse">
      <feOffset dy="3" input="SourceAlpha"/>
      <feGaussianBlur stdDeviation="3" result="blur-3"/>
      <feFlood flood-opacity="0.161"/>
      <feComposite operator="in" in2="blur-3"/>
      <feComposite in="SourceGraphic"/>
    </filter>
    <filter id="Rectángulo_344473" x="137.911" y="9.303" width="26.534" height="26.534" filterUnits="userSpaceOnUse">
      <feOffset dy="3" input="SourceAlpha"/>
      <feGaussianBlur stdDeviation="3" result="blur-4"/>
      <feFlood flood-opacity="0.161"/>
      <feComposite operator="in" in2="blur-4"/>
      <feComposite in="SourceGraphic"/>
    </filter>
    <clipPath id="clip-path-4">
      <rect id="Rectángulo_344481" data-name="Rectángulo 344481" width="0.089" height="1.89" fill="none"/>
    </clipPath>
    <clipPath id="clip-path-6">
      <rect id="Rectángulo_344519" data-name="Rectángulo 344519" width="202" height="211" transform="translate(1170 2250)" fill="#7e2736" opacity="0.47"/>
    </clipPath>
    <clipPath id="clip-path-7">
      <rect id="Rectángulo_344513" data-name="Rectángulo 344513" width="136.707" height="187.871" fill="none"/>
    </clipPath>
    <clipPath id="clip-path-9">
      <rect id="Rectángulo_344510" data-name="Rectángulo 344510" width="13.843" height="138.971" fill="none"/>
    </clipPath>
    <clipPath id="clip-path-10">
      <rect id="Rectángulo_34575" data-name="Rectángulo 34575" width="19.286" height="22.121" fill="none"/>
    </clipPath>
    <clipPath id="clip-path-11">
      <rect id="Rectángulo_344520" data-name="Rectángulo 344520" width="20.685" height="22.452" fill="none"/>
    </clipPath>
    <clipPath id="clip-path-12">
      <rect id="Rectángulo_344518" data-name="Rectángulo 344518" width="133.178" height="371.955" fill="none"/>
    </clipPath>
    <clipPath id="clip-path-14">
      <rect id="Rectángulo_344514" data-name="Rectángulo 344514" width="44.405" height="3.941" fill="none"/>
    </clipPath>
    <clipPath id="clip-path-15">
      <rect id="Rectángulo_344515" data-name="Rectángulo 344515" width="43.171" height="14.232" transform="translate(0)" fill="none"/>
    </clipPath>
    <clipPath id="clip-path-16">
      <rect id="Rectángulo_344516" data-name="Rectángulo 344516" width="19.632" height="42.166" transform="translate(0)" fill="none"/>
    </clipPath>
  </defs>
  <g id="Grupo_952048" data-name="Grupo 952048" transform="translate(-1146 -2236)">
    <g id="Grupo_951957" data-name="Grupo 951957" transform="translate(1146 2236)">
      <g id="Grupo_951916" data-name="Grupo 951916" clip-path="url(#clip-path)">
        <g id="Grupo_951890" data-name="Grupo 951890">
          <g id="Grupo_951889" data-name="Grupo 951889" clip-path="url(#clip-path)">
            <path id="Trazado_696828" data-name="Trazado 696828" d="M1261.188,1236.569a45.97,45.97,0,0,1,14.487,9.769,70.143,70.143,0,0,1,10.4,12.959,39.107,39.107,0,0,1-24.891-22.728" transform="translate(-1117.871 -1096.05)" fill="#f0f2f5"/>
            <path id="Trazado_696829" data-name="Trazado 696829" d="M1330.35,1449.757a26.358,26.358,0,0,1,11.307,3.132,26.549,26.549,0,0,1-22.858-1.079,26.356,26.356,0,0,1,11.551-2.052" transform="translate(-1168.935 -1284.985)" fill="#f0f2f5"/>
            <path id="Trazado_696830" data-name="Trazado 696830" d="M1505.063,1264.1a26.523,26.523,0,0,1-5.343,22.251,26.551,26.551,0,0,1,5.343-22.251" transform="translate(-1328.777 -1120.449)" fill="#f0f2f5"/>
            <path id="Trazado_696831" data-name="Trazado 696831" d="M1391.012,1607.411c-4.721-2.622-5.582-5.57-3.331-8.993a26.379,26.379,0,0,1,8.452-8.137,23.457,23.457,0,0,1-4.118,10.987c-1.885,2.65-2.187,4.6-1,6.144" transform="translate(-1228.937 -1409.567)" fill="#f0f2f5"/>
            <path id="Trazado_696832" data-name="Trazado 696832" d="M1361.9,1005.741c.109-.031.217-.062.327-.089l.56-.147c.187-.047.375-.09.563-.135l.282-.067.283-.06.566-.119q1.136-.223,2.283-.383a40.837,40.837,0,0,1,4.615-.335,32.363,32.363,0,0,1,4.571.223l-.1-.137q-1.546-2.046-3.193-4.012t-3.393-3.845q-.869-.943-1.768-1.858c-.6-.61-1.205-1.213-1.831-1.8.63.578,1.24,1.177,1.844,1.783s1.2,1.221,1.781,1.846q1.751,1.875,3.4,3.839t3.2,4.007q.431.569.855,1.143a13.536,13.536,0,0,1,.27-1.53q.186-.776.436-1.535c.171-.5.354-1,.56-1.494s.427-.974.676-1.444c-.111.241-.22.483-.323.728s-.205.49-.3.736c-.194.494-.378.991-.543,1.5s-.316,1.012-.451,1.525l-.1.386c-.031.129-.055.259-.084.389-.059.246-.094.5-.142.744.733.992,1.45,2,2.14,3.02.244.352.476.71.71,1.068s.473.713.7,1.077l.682,1.086.661,1.1c.109.184.222.366.329.551l.318.557.318.557c.106.186.214.37.314.559l.611,1.128.152.282.146.286.292.571c.4.757.758,1.533,1.13,2.3.182.387.352.779.528,1.169l.262.585c.087.2.166.394.248.592l.489,1.186.455,1.2.227.6.209.606.266.774h.051q-.047-1.577-.109-3.154-.158-4.052-.409-8.1t-.6-8.087q-.207-2.406-.453-4.808a7.391,7.391,0,0,1-1.589.8,12.265,12.265,0,0,1-7.408-.224,15.876,15.876,0,0,1,8.6-4.307l-.175-1.547-.247-2.012c-.018-.154-.039-.308-.058-.461a23.206,23.206,0,0,1-6.85,5.038,26.381,26.381,0,0,1,4.785-10.712,8.457,8.457,0,0,1,1.095-1.215l-.105-.678-.157-1-.168-1-.168-1c-.056-.333-.111-.667-.173-1l-.363-1.994c-.059-.333-.125-.664-.19-1l-.2-.994-.2-.995c-.066-.331-.14-.661-.209-.992l-.038-.177a23.471,23.471,0,0,1-10.005-6.109c-2.248-2.349-4.111-3.015-5.845-2.141,3.463-4.143,6.52-4.435,9.459-1.58a26.379,26.379,0,0,1,6.38,9.774l-.374-1.75q-.537-2.408-1.15-4.8l-.02.013.013-.043c-.259-1.015-.525-2.028-.805-3.038a70.144,70.144,0,0,1-8.73-14.141,45.971,45.971,0,0,1-4.357-16.921,39.106,39.106,0,0,1,13.086,31.062c.282,1,.551,2.006.813,3.012a47.4,47.4,0,0,1,4.537-10.062,30.728,30.728,0,0,1,7.734-8.752,26.139,26.139,0,0,1-12.258,18.863q.621,2.391,1.172,4.8l.428,1.982c.07.331.144.66.21.992l.2.994.2.994c.066.331.132.663.192,1l.366,1.994q.412,2.317.773,4.642c2.252-1.993,4.986-1.681,8.447,1.339-1.849-.592-3.586.357-5.438,3.029a21.968,21.968,0,0,1-2.031,2.5q.262,2.034.493,4.071a15.688,15.688,0,0,1,4.275-.067,16.741,16.741,0,0,1-3.884,3.764q.243,2.421.45,4.845.339,4.041.585,8.09c.226,3.749.4,7.5.492,11.256h.1l.055-.956.02-.349.01-.174.016-.174.064-.7.064-.7.032-.348.043-.347.172-1.388.022-.173.027-.173.054-.345.108-.691.108-.691.127-.687c.087-.458.166-.917.258-1.374l.29-1.368a94.621,94.621,0,0,1,3.077-10.747q.929-2.638,1.976-5.232t2.214-5.135c1.028-2.246,2.113-4.468,3.273-6.649a26.52,26.52,0,0,1-11.169-19.937,26.546,26.546,0,0,1,11.192,19.895q.875-1.643,1.81-3.253c-.469.8-.917,1.623-1.357,2.444-.152.284-.3.569-.45.854,0,.006,0,.012,0,.018h0l-.008-.006q-.421.8-.831,1.615-1.262,2.494-2.418,5.04-.878,1.933-1.692,3.893a33.122,33.122,0,0,1,4.36-1.4,42.035,42.035,0,0,1,4.539-.885q1.147-.148,2.3-.235l.577-.035.289-.017.289-.011c.193-.007.385-.016.578-.02l.578-.008c.193,0,.385,0,.578,0s.385,0,.578.008c.385.016.771.023,1.155.052.77.044,1.536.135,2.3.234a26.522,26.522,0,0,1,22.765,2.33c.163,0-6.609,3.651-11.637,3.167-6.284-.6-11.127-5.5-11.127-5.5-.765-.087-1.532-.166-2.3-.2-.384-.026-.77-.032-1.154-.046-.192-.005-.385,0-.578-.005s-.385,0-.578,0l-.577.011c-.192.006-.385.016-.577.023l-.288.012-.288.018-.576.038q-1.151.092-2.3.246a41.967,41.967,0,0,0-4.537.86c-.747.185-1.49.39-2.226.618s-1.442.459-2.145.736q-.258.62-.51,1.244-1.045,2.592-1.964,5.233a94.529,94.529,0,0,0-3.1,10.734l-.292,1.366c-.094.456-.174.915-.261,1.373l-.128.687-.109.69-.11.69-.055.345-.027.172-.023.173-.181,1.386-.045.346-.034.348-.068.7-.068.7-.017.174-.011.174-.022.349-.061.956s10.645-1.211,14.194,0,0,4.845,0,4.845v23.6h-28.443v-28.443h14.068l-.271-.771-.213-.6-.231-.6-.463-1.2-.5-1.182c-.084-.2-.163-.4-.25-.59l-.263-.584c-.177-.389-.348-.781-.531-1.167-.374-.769-.736-1.543-1.135-2.3l-.293-.57-.147-.285-.153-.282-.614-1.126c-.1-.189-.209-.373-.315-.558l-.319-.556-.319-.556c-.107-.185-.22-.366-.329-.55l-.663-1.1-.684-1.084c-.225-.363-.465-.717-.7-1.075s-.468-.715-.712-1.066c-.921-1.371-1.888-2.711-2.881-4.031-.751-.087-1.505-.131-2.26-.158-.77-.03-1.541-.034-2.311-.019-.8.016-1.6.058-2.4.122a16.327,16.327,0,0,0-1.247,1.273c-.3.336-.584.679-.858,1.034a13.269,13.269,0,0,1,6,9.7,13.258,13.258,0,0,1-6.029-9.667q-.142.184-.278.373c-.094.122-.182.249-.271.375s-.18.25-.263.38l-.252.387c-.043.064-.083.13-.122.2l-.12.2c-.325.524-.608,1.073-.888,1.623l.194-.421c.065-.14.128-.281.2-.417l.216-.41c.07-.138.153-.269.229-.4a17.153,17.153,0,0,1,1.018-1.551,17.353,17.353,0,0,1,1.179-1.432c.209-.228.425-.449.646-.666.207-.2.417-.389.637-.57q-1.1.089-2.2.235-1.145.155-2.281.37l-.566.116-.283.059-.281.065c-.187.044-.375.086-.562.131l-.56.144c-.1.025-.2.052-.3.08a13.255,13.255,0,0,1-10.965,3.136,13.272,13.272,0,0,1,10.927-3.173" transform="translate(-1197.451 -829.734)" fill="#f0f2f5"/>
            <path id="Trazado_696833" data-name="Trazado 696833" d="M1817.39,1112.249a39.106,39.106,0,0,1-17.765,28.644,70.144,70.144,0,0,1,6.484-15.3,45.971,45.971,0,0,1,11.281-13.343" transform="translate(-1595.122 -985.857)" fill="#f0f2f5"/>
            <path id="Trazado_696834" data-name="Trazado 696834" d="M1773.3,1356.123a26.522,26.522,0,0,1,21.7-7.26,26.55,26.55,0,0,1-21.7,7.26" transform="translate(-1571.789 -1195.402)" fill="#f0f2f5"/>
            <path id="Trazado_696835" data-name="Trazado 696835" d="M1793.985,1476.961a13.188,13.188,0,0,1,2.8-5.111c-.36-.266-.731-.518-1.107-.761a16.152,16.152,0,0,0-1.607-.916c.285.12.56.262.834.4s.54.3.8.465a17.338,17.338,0,0,1,1.524,1.058,17.115,17.115,0,0,1,1.4,1.215c.11.109.225.212.33.326l.319.336c.108.111.207.23.308.347l.3.352c-.419-.454-.841-.9-1.3-1.321l-.169-.157c-.056-.053-.112-.105-.171-.155l-.348-.3c-.115-.1-.238-.2-.356-.295s-.238-.2-.362-.287-.244-.19-.369-.283a13.257,13.257,0,0,1-3.171,10.943,13.188,13.188,0,0,1,.336-5.856" transform="translate(-1589.663 -1303.108)" fill="#f0f2f5"/>
            <path id="Trazado_696836" data-name="Trazado 696836" d="M1859.612,1524.888c.721-1.8-.1-3.6-2.637-5.639a23.459,23.459,0,0,1-6.953-9.451,26.38,26.38,0,0,1,10.348,5.53c3.1,2.682,3.071,5.753-.758,9.56" transform="translate(-1639.792 -1338.23)" fill="#f0f2f5"/>
            <rect id="Rectángulo_344450" data-name="Rectángulo 344450" width="28.36" height="13.604" transform="translate(75.344 211.564)" fill="#fff"/>
            <path id="Trazado_696994" data-name="Trazado 696994" d="M0,0H35.752V13.6H0Z" transform="translate(39.592 211.564)" fill="#e0e0e0"/>
            <rect id="Rectángulo_344452" data-name="Rectángulo 344452" width="29.273" height="1.118" transform="translate(75.344 211.564)" fill="#f0f2f5"/>
            <rect id="Rectángulo_344453" data-name="Rectángulo 344453" width="13.127" height="0.279" transform="translate(91.012 215.195)" fill="#f0f2f5"/>
            <rect id="Rectángulo_344454" data-name="Rectángulo 344454" width="29.273" height="1.118" transform="translate(75.344 224.05)" fill="#f0f2f5"/>
            <rect id="Rectángulo_344455" data-name="Rectángulo 344455" width="2.636" height="13.604" transform="translate(43.195 211.564)" fill="#fff"/>
            <rect id="Rectángulo_344456" data-name="Rectángulo 344456" width="0.659" height="13.604" transform="translate(70.544 211.564)" fill="#fff"/>
            <rect id="Rectángulo_344457" data-name="Rectángulo 344457" width="0.659" height="13.604" transform="translate(68.331 211.564)" fill="#fff"/>
            <path id="Trazado_696837" data-name="Trazado 696837" d="M866.294,1901.134h-2.96l-2.752-4.962h2.96Z" transform="translate(-762.788 -1680.698)" fill="#f0f2f5"/>
            <rect id="Rectángulo_344459" data-name="Rectángulo 344459" width="24.347" height="11.679" transform="translate(78.125 190.323)" fill="#fff"/>
            <g transform="matrix(1, 0, 0, 1, 0, 0)" filter="url(#Rectángulo_344460)">
              <rect id="Rectángulo_344460-2" data-name="Rectángulo 344460" width="30.694" height="11.679" transform="translate(47.43 190.32)" fill="#e0e0e0"/>
            </g>
            <rect id="Rectángulo_344461" data-name="Rectángulo 344461" width="25.131" height="0.96" transform="translate(78.125 190.323)" fill="#f0f2f5"/>
            <rect id="Rectángulo_344462" data-name="Rectángulo 344462" width="11.27" height="0.24" transform="translate(91.576 193.44)" fill="#f0f2f5"/>
            <rect id="Rectángulo_344463" data-name="Rectángulo 344463" width="25.131" height="0.96" transform="translate(78.125 201.043)" fill="#f0f2f5"/>
            <rect id="Rectángulo_344464" data-name="Rectángulo 344464" width="2.263" height="8.322" transform="translate(50.525 192.002)" fill="#fff"/>
            <rect id="Rectángulo_344465" data-name="Rectángulo 344465" width="15.168" height="8.322" transform="translate(58.146 192.002)" fill="#fff"/>
            <path id="Trazado_696844" data-name="Trazado 696844" d="M862.007,1708.645h-2.541l-2.362-4.26h2.542Z" transform="translate(-759.705 -1510.705)" fill="#f0f2f5"/>
            <path id="Trazado_696845" data-name="Trazado 696845" d="M498.2,1787.185H458.725a4.735,4.735,0,0,1-4.735-4.735v-.091a4.735,4.735,0,0,1,4.735-4.735H498.2Z" transform="translate(-402.4 -1575.62)" fill="#e0e0e0"/>
            <path id="Trazado_696846" data-name="Trazado 696846" d="M695.049,1792.526H679.111a4,4,0,0,1,0-7.99h15.938Z" transform="translate(-598.398 -1581.748)" fill="#fff"/>
            <rect id="Rectángulo_344466" data-name="Rectángulo 344466" width="20.574" height="0.786" transform="translate(76.718 202.003)" fill="#f0f2f5"/>
            <rect id="Rectángulo_344467" data-name="Rectángulo 344467" width="9.226" height="0.196" transform="translate(87.73 204.554)" fill="#f0f2f5"/>
            <rect id="Rectángulo_344468" data-name="Rectángulo 344468" width="20.574" height="0.786" transform="translate(76.718 210.779)" fill="#f0f2f5"/>
            <path id="Trazado_696847" data-name="Trazado 696847" d="M489.9,1798.008H472.892a3.189,3.189,0,0,1,0-6.379H489.9a4.07,4.07,0,0,0-.418.364,3.995,3.995,0,0,0,.42,6.015" transform="translate(-416.328 -1588.035)" fill="#fff"/>
            <path id="Trazado_696848" data-name="Trazado 696848" d="M613.026,1794.743a.211.211,0,0,1-.128-.043,4.542,4.542,0,0,1-.477-6.839,4.633,4.633,0,0,1,.475-.414.212.212,0,0,1,.257.339,4.216,4.216,0,0,0-.431.376,4.118,4.118,0,0,0,.433,6.2.212.212,0,0,1-.128.382" transform="translate(-541.649 -1584.29)" fill="#f0f2f5"/>
            <g transform="matrix(1, 0, 0, 1, 0, 0)" filter="url(#Trazado_696857)">
              <path id="Trazado_696857-2" data-name="Trazado 696857" d="M1445.842,180.474a8.265,8.265,0,1,1-8.266-8.265,8.265,8.265,0,0,1,8.266,8.265" transform="translate(-1266.89 -152.64)" fill="#fff"/>
            </g>
            <path id="Trazado_696858" data-name="Trazado 696858" d="M1462.641,222.211l-3.5-3.228,1.137-1.231,2.318,2.14,5.138-5.1,1.18,1.189Z" transform="translate(-1293.333 -190.386)" fill="#f0f2f5"/>
            <rect id="Rectángulo_344469" data-name="Rectángulo 344469" width="4.311" height="4.311" transform="translate(196.549 26.945) rotate(-22.387)" fill="#f0f2f5"/>
            <rect id="Rectángulo_344470" data-name="Rectángulo 344470" width="10.5" height="10.5" transform="translate(40.196 136.998) rotate(-69.244)" fill="#f0f2f5"/>
            <rect id="Rectángulo_344471" data-name="Rectángulo 344471" width="10.5" height="10.5" transform="matrix(0.354, -0.935, 0.935, 0.354, 208.385, 54.031)" fill="#f0f2f5"/>
            <g transform="matrix(1, 0, 0, 1, 0, 0)" filter="url(#Rectángulo_344472)">
              <rect id="Rectángulo_344472-2" data-name="Rectángulo 344472" width="6.618" height="6.618" transform="translate(45.49 46.86) rotate(-40.78)" fill="#f0f2f5"/>
            </g>
            <g transform="matrix(1, 0, 0, 1, 0, 0)" filter="url(#Rectángulo_344473)">
              <rect id="Rectángulo_344473-2" data-name="Rectángulo 344473" width="6.618" height="6.618" transform="matrix(0.35, -0.94, 0.94, 0.35, 146.91, 21.49)" fill="#fff"/>
            </g>
            <rect id="Rectángulo_344474" data-name="Rectángulo 344474" width="6.618" height="6.618" transform="matrix(0.354, -0.935, 0.935, 0.354, 218.001, 113.156)" fill="#f0f2f5"/>
            <rect id="Rectángulo_344475" data-name="Rectángulo 344475" width="3.685" height="3.685" transform="translate(104.422 20.344) rotate(-12.141)" fill="#f0f2f5"/>
            <rect id="Rectángulo_344476" data-name="Rectángulo 344476" width="3.685" height="3.685" transform="translate(24.147 115.594) rotate(-12.141)" fill="#f0f2f5"/>
            <rect id="Rectángulo_344509" data-name="Rectángulo 344509" width="31" height="29" transform="translate(176 196)" fill="#fff"/>
          </g>
        </g>
        <g id="Grupo_951913" data-name="Grupo 951913">
          <g id="Grupo_951912" data-name="Grupo 951912" clip-path="url(#clip-path)">
            <path id="Trazado_696905" data-name="Trazado 696905" d="M1345.863,964.039c.361.329.7.68,1.022,1.038.165.177.321.362.482.543l.467.555q.461.56.891,1.145c.287.39.565.787.817,1.206-.361-.329-.7-.679-1.023-1.037s-.643-.723-.949-1.1l-.453-.567c-.146-.193-.3-.382-.438-.579-.287-.39-.565-.787-.817-1.206" transform="translate(-1192.924 -854.489)" fill="#fff"/>
            <path id="Trazado_696906" data-name="Trazado 696906" d="M1154.518,1202.763c-.329.361-.679.7-1.038,1.022-.177.166-.362.322-.543.482l-.555.467q-.56.461-1.145.891c-.39.287-.787.565-1.206.817.329-.361.679-.7,1.037-1.023s.724-.643,1.1-.949l.567-.453c.193-.146.382-.3.579-.438.39-.287.787-.565,1.206-.817" transform="translate(-1019.347 -1066.085)" fill="#fff"/>
            <path id="Trazado_696907" data-name="Trazado 696907" d="M1527.424,1122.728c-.329.361-.68.7-1.038,1.022-.177.165-.362.321-.543.482l-.555.467q-.56.461-1.145.891c-.39.287-.787.565-1.206.817.329-.361.679-.7,1.037-1.023s.723-.643,1.1-.949l.567-.453c.193-.146.382-.3.579-.438.39-.287.787-.565,1.206-.817" transform="translate(-1349.877 -995.145)" fill="#fff"/>
            <path id="Trazado_696909" data-name="Trazado 696909" d="M1047.289,1648.153c.361.329.7.68,1.022,1.038.165.177.322.362.482.543l.467.555q.461.56.891,1.145c.287.39.565.787.817,1.206-.362-.329-.7-.679-1.023-1.037s-.643-.723-.949-1.1l-.453-.567c-.146-.193-.3-.382-.438-.579-.287-.39-.565-.787-.817-1.206" transform="translate(-928.279 -1460.863)" fill="#fff"/>
            <path id="Trazado_696911" data-name="Trazado 696911" d="M796.393,1833.39c-.329.361-.68.7-1.038,1.022-.177.165-.362.322-.543.482l-.555.467q-.56.461-1.145.891c-.39.287-.787.565-1.206.817.329-.361.679-.7,1.037-1.023s.723-.643,1.1-.949l.567-.453c.193-.146.382-.3.579-.438.39-.287.787-.565,1.206-.817" transform="translate(-701.918 -1625.05)" fill="#fff"/>
            <path id="Trazado_696912" data-name="Trazado 696912" d="M1120.516,1916.026c.048-.486.128-.965.22-1.44.043-.238.1-.474.147-.711l.165-.706c.115-.47.245-.936.385-1.4s.293-.924.478-1.376c-.047.486-.128.965-.22,1.44s-.2.948-.312,1.417l-.183.7c-.067.232-.129.466-.2.7-.141.463-.293.924-.477,1.376" transform="translate(-993.185 -1693.304)" fill="#fff"/>
            <path id="Trazado_696913" data-name="Trazado 696913" d="M771.165,1594.026c.47-.135.944-.236,1.42-.326.237-.048.477-.084.715-.125l.718-.107c.479-.066.96-.117,1.442-.158s.967-.068,1.455-.063c-.47.135-.944.237-1.42.326s-.953.168-1.432.232l-.72.088c-.241.023-.481.052-.722.069-.483.04-.967.068-1.455.063" transform="translate(-683.533 -1412.196)" fill="#fff"/>
            <path id="Trazado_696914" data-name="Trazado 696914" d="M1429.8,1314.944c-.365-.325-.7-.671-1.035-1.025-.167-.175-.326-.358-.488-.537l-.474-.549q-.468-.554-.9-1.135c-.292-.386-.575-.78-.831-1.2.365.325.7.671,1.035,1.025s.651.716.962,1.087l.459.561c.149.191.3.378.445.573.292.386.575.78.832,1.2" transform="translate(-1264.018 -1161.581)" fill="#fff"/>
            <g id="Grupo_951902" data-name="Grupo 951902" transform="translate(153.519 138.517)" opacity="0.4" style="mix-blend-mode: multiply;isolation: isolate">
              <g id="Grupo_951901" data-name="Grupo 951901">
                <g id="Grupo_951900" data-name="Grupo 951900" clip-path="url(#clip-path-4)">
                  <path id="Trazado_696918" data-name="Trazado 696918" d="M1350.966,1220.842q.039-.925.089-1.891s-.057.694-.089,1.891" transform="translate(-1350.967 -1218.952)" fill="#a65b3c"/>
                </g>
              </g>
            </g>
            <path id="Trazado_696954" data-name="Trazado 696954" d="M1407.922,1538.657a5.691,5.691,0,0,1,.878-.016c.293.014.585.04.876.081a11.44,11.44,0,0,1,1.719.381,13.845,13.845,0,0,1,1.652.616,15.912,15.912,0,0,1,1.563.817c.507.3.989.636,1.463.982.231.182.467.356.69.548l.338.282.326.3a20.016,20.016,0,0,1,2.374,2.584,27.87,27.87,0,0,0-2.492-2.451,19.875,19.875,0,0,0-2.815-2.046,15.822,15.822,0,0,0-3.152-1.459,12.925,12.925,0,0,0-1.684-.44,8.646,8.646,0,0,0-1.736-.175" transform="translate(-1247.931 -1363.787)" fill="#ff9b6c"/>
          </g>
        </g>
        <path id="Trazado_696963" data-name="Trazado 696963" d="M0,0H192.034V.341H0Z" transform="translate(28.983 224.998)" fill="#14122c"/>
      </g>
    </g>
    <g id="Grupo_952133" data-name="Grupo 952133">
      <g id="Enmascarar_grupo_103" data-name="Enmascarar grupo 103" clip-path="url(#clip-path-6)">
        <g id="Grupo_951977" data-name="Grupo 951977">
          <g id="Grupo_951960" data-name="Grupo 951960" transform="translate(1170.234 2262)">
            <g id="Grupo_951962" data-name="Grupo 951962" clip-path="url(#clip-path-7)">
              <g id="Grupo_951961" data-name="Grupo 951961">
                <g id="Grupo_951960-2" data-name="Grupo 951960" clip-path="url(#clip-path-7)">
                  <path id="Trazado_696995" data-name="Trazado 696995" d="M3.046,16.09H29.734a2.261,2.261,0,0,0,2.259-2.37L31.452,2.413A2.262,2.262,0,0,0,29.192.26H2.5A2.262,2.262,0,0,0,.246,2.63L.787,13.937A2.262,2.262,0,0,0,3.046,16.09" transform="translate(104.583 -0.123)" fill="#fafafa"/>
                  <path id="Trazado_696996" data-name="Trazado 696996" d="M2.9,15.967a2.793,2.793,0,0,1-.881-.209,2.251,2.251,0,0,1-1.33-2.048C.593,11.415.45,8.118.274,4.05c.008-1-.329-2.167.418-3.012A2.129,2.129,0,0,1,2.076.268C2.623.227,3.235.259,3.828.25l7.663.013L29.048.274A2.137,2.137,0,0,1,30.866,1.3a2.167,2.167,0,0,1,.308,1.025q.028.572.055,1.14.11,2.273.216,4.475t.21,4.319q.026.529.052,1.052a2.634,2.634,0,0,1-.068.991,2.141,2.141,0,0,1-1.252,1.385,2.336,2.336,0,0,1-.938.157h-.992l-1.946,0-3.719.007-6.676.017-9.667.044-2.628.026-.683.013a1.468,1.468,0,0,0-.233.014,1.467,1.467,0,0,0,.233.014l.683.013,2.628.026,9.667.044,6.676.017,3.719.007,1.946,0h.992a2.588,2.588,0,0,0,1.032-.172,2.393,2.393,0,0,0,1.4-1.547,2.883,2.883,0,0,0,.08-1.076q-.024-.523-.049-1.052-.1-2.117-.2-4.319T31.5,3.45q-.028-.567-.055-1.14A2.4,2.4,0,0,0,29.048,0L11.491.011,3.828.023C3.223.035,2.652,0,2.047.05A2.343,2.343,0,0,0,.528.9,2.378,2.378,0,0,0,0,2.494q.04.8.078,1.565c.213,4.066.386,7.361.506,9.655a2.325,2.325,0,0,0,.52,1.426A2.271,2.271,0,0,0,2,15.808a2.3,2.3,0,0,0,.668.16c.155,0,.234,0,.234,0" transform="translate(104.726 0)" fill="#263238"/>
                  <path id="Trazado_696997" data-name="Trazado 696997" d="M223.075,21.538l-1.142-7.146-4.868-2.828-4,4.285,1.2,7.328Z" transform="translate(-198.472 -5.48)" fill="#f9a21b"/>
                  <path id="Trazado_696998" data-name="Trazado 696998" d="M52.792,36.473,58.7,166.124l95.258-2.707,5.668-9.9-10.245-120.5L60.728,27.153Z" transform="translate(-50.693 -12.867)" fill="#e0e0e0"/>
                  <g id="Grupo_951959" data-name="Grupo 951959" transform="translate(2.098 14.286)" opacity="0.3">
                    <g id="Grupo_951958" data-name="Grupo 951958" transform="translate(0)">
                      <g id="Grupo_951957-2" data-name="Grupo 951957" clip-path="url(#clip-path-9)">
                        <path id="Trazado_696999" data-name="Trazado 696999" d="M235.437,166.124l7.936-9.32L237.466,27.154l-7.936,9.319Z" transform="translate(-229.53 -27.153)"/>
                      </g>
                    </g>
                  </g>
                  <path id="Trazado_697000" data-name="Trazado 697000" d="M52.792,25.973,58.7,155.624l92.989-3.288L144.654,24.661Z" transform="translate(-42.757 -11.686)" fill="#fafafa"/>
                  <path id="Trazado_697001" data-name="Trazado 697001" d="M52.517,25.871l91.864-1.2-.113-.1c1.958,35.678,4.384,79.873,7.008,127.676l.132-.145-1.535.054L58.42,155.4l.129.119C54.986,78.95,52.569,26.977,52.517,25.871c.049,1.106,2.368,53.084,5.782,129.657l.005.123.124,0,91.455-3.221,1.535-.054.14-.005-.008-.139c-2.643-47.8-5.087-92-7.06-127.673l-.006-.107-.106,0L52.517,25.871" transform="translate(-42.482 -11.584)" fill="#263238"/>
                  <path id="Trazado_697002" data-name="Trazado 697002" d="M118,80.76l-32.474.952a1.235,1.235,0,0,1-1.27-1.2L84.224,79.3a1.235,1.235,0,0,1,1.2-1.271l32.473-.952a1.235,1.235,0,0,1,1.271,1.2l.036,1.217A1.235,1.235,0,0,1,118,80.76" transform="translate(-26.81 -36.522)" fill="#e0e0e0"/>
                  <path id="Trazado_697003" data-name="Trazado 697003" d="M117.409,94.306l-32.473.953a1.236,1.236,0,0,1-1.271-1.2l-.036-1.217a1.234,1.234,0,0,1,1.2-1.271L117.3,90.62a1.234,1.234,0,0,1,1.27,1.2l.036,1.217a1.234,1.234,0,0,1-1.2,1.27" transform="translate(-25.902 -42.941)" fill="#e0e0e0"/>
                  <path id="Trazado_697004" data-name="Trazado 697004" d="M116.814,107.851,84.34,108.8a1.235,1.235,0,0,1-1.27-1.2l-.036-1.217a1.235,1.235,0,0,1,1.2-1.271l32.473-.952a1.235,1.235,0,0,1,1.271,1.2l.036,1.217a1.235,1.235,0,0,1-1.2,1.271" transform="translate(-24.994 -49.359)" fill="#e0e0e0"/>
                  <path id="Trazado_697005" data-name="Trazado 697005" d="M116.219,121.4l-32.474.952a1.235,1.235,0,0,1-1.27-1.2l-.036-1.217a1.235,1.235,0,0,1,1.2-1.271l32.474-.952a1.234,1.234,0,0,1,1.27,1.2l.036,1.217a1.235,1.235,0,0,1-1.2,1.271" transform="translate(-24.086 -55.778)" fill="#e0e0e0"/>
                  <path id="Trazado_697006" data-name="Trazado 697006" d="M115.624,134.943,83.15,135.9a1.235,1.235,0,0,1-1.27-1.2l-.036-1.217a1.235,1.235,0,0,1,1.2-1.271l32.473-.952a1.235,1.235,0,0,1,1.271,1.2l.036,1.217a1.235,1.235,0,0,1-1.2,1.271" transform="translate(-23.178 -62.197)" fill="#e0e0e0"/>
                  <path id="Trazado_697007" data-name="Trazado 697007" d="M115.029,148.489l-32.474.952a1.235,1.235,0,0,1-1.27-1.2l-.036-1.217a1.235,1.235,0,0,1,1.2-1.271l32.474-.952a1.235,1.235,0,0,1,1.27,1.2l.036,1.217a1.235,1.235,0,0,1-1.2,1.271" transform="translate(-22.27 -68.616)" fill="#e0e0e0"/>
                  <path id="Trazado_697008" data-name="Trazado 697008" d="M114.434,162.035l-32.474.952a1.234,1.234,0,0,1-1.27-1.2l-.036-1.217a1.235,1.235,0,0,1,1.2-1.271l32.474-.952a1.235,1.235,0,0,1,1.27,1.2l.036,1.217a1.235,1.235,0,0,1-1.2,1.271" transform="translate(-21.361 -75.035)" fill="#e0e0e0"/>
                  <path id="Trazado_697009" data-name="Trazado 697009" d="M188.232,150.515l-32.474.952a1.234,1.234,0,0,1-1.27-1.2l-.036-1.217a1.235,1.235,0,0,1,1.2-1.271l32.474-.952a1.235,1.235,0,0,1,1.27,1.2l.036,1.217a1.235,1.235,0,0,1-1.2,1.271" transform="translate(-133.988 -69.576)" fill="#e0e0e0"/>
                  <path id="Trazado_697010" data-name="Trazado 697010" d="M187.637,164.061l-32.473.952a1.235,1.235,0,0,1-1.271-1.2l-.036-1.217a1.235,1.235,0,0,1,1.2-1.271l32.474-.952a1.235,1.235,0,0,1,1.27,1.2l.036,1.217a1.235,1.235,0,0,1-1.2,1.271" transform="translate(-133.08 -75.995)" fill="#e0e0e0"/>
                  <path id="Trazado_697011" data-name="Trazado 697011" d="M186.919,178.345l-32.473.952a1.234,1.234,0,0,1-1.271-1.2l-.036-1.217a1.235,1.235,0,0,1,1.2-1.271l32.474-.952a1.235,1.235,0,0,1,1.27,1.2l.036,1.217a1.235,1.235,0,0,1-1.2,1.271" transform="translate(-131.984 -82.764)" fill="#e0e0e0"/>
                  <path id="Trazado_697012" data-name="Trazado 697012" d="M186.2,192.629l-32.473.952a1.235,1.235,0,0,1-1.271-1.2l-.036-1.217a1.235,1.235,0,0,1,1.2-1.271l32.474-.952a1.235,1.235,0,0,1,1.27,1.2l.036,1.217a1.235,1.235,0,0,1-1.2,1.271" transform="translate(-130.887 -89.532)" fill="#e0e0e0"/>
                  <path id="Trazado_697013" data-name="Trazado 697013" d="M185.482,206.914l-32.474.952a1.235,1.235,0,0,1-1.27-1.2l-.036-1.217a1.235,1.235,0,0,1,1.2-1.271l32.474-.952a1.235,1.235,0,0,1,1.27,1.2l.036,1.217a1.235,1.235,0,0,1-1.2,1.271" transform="translate(-129.791 -96.301)" fill="#e0e0e0"/>
                  <path id="Trazado_697014" data-name="Trazado 697014" d="M184.764,221.2l-32.474.952a1.234,1.234,0,0,1-1.27-1.2l-.036-1.217a1.235,1.235,0,0,1,1.2-1.271l32.474-.952a1.235,1.235,0,0,1,1.27,1.2l.036,1.217a1.235,1.235,0,0,1-1.2,1.271" transform="translate(-128.695 -103.07)" fill="#e0e0e0"/>
                  <path id="Trazado_697015" data-name="Trazado 697015" d="M184.046,235.482l-32.474.952a1.234,1.234,0,0,1-1.27-1.2l-.036-1.217a1.235,1.235,0,0,1,1.2-1.271l32.474-.952a1.235,1.235,0,0,1,1.27,1.2l.036,1.217a1.235,1.235,0,0,1-1.2,1.271" transform="translate(-127.599 -109.838)" fill="#e0e0e0"/>
                  <path id="Trazado_697016" data-name="Trazado 697016" d="M147.572,246.13l-71.67,2.1a1.235,1.235,0,0,1-1.271-1.2l-.036-1.217a1.235,1.235,0,0,1,1.2-1.271l71.67-2.1a1.234,1.234,0,0,1,1.27,1.2l.036,1.217a1.235,1.235,0,0,1-1.2,1.271" transform="translate(-51.311 -114.884)" fill="#e0e0e0"/>
                  <path id="Trazado_697017" data-name="Trazado 697017" d="M108.5,63.122l-21.9.642a1.234,1.234,0,0,1-1.27-1.2l-.036-1.217a1.235,1.235,0,0,1,1.2-1.271l21.9-.642a1.235,1.235,0,0,1,1.27,1.2l.036,1.217a1.234,1.234,0,0,1-1.2,1.27" transform="translate(-17.864 -28.164)" fill="#e0e0e0"/>
                  <path id="Trazado_697018" data-name="Trazado 697018" d="M158.9,165.293s-.153.014-.452.028l-1.333.057-5.145.195-19.1.673-64.509,2.179-.138,0-.007-.138c-.244-5.127-.5-10.5-.758-15.975-1.377-29.4-2.623-56.021-3.526-75.294C63.5,67.393,63.143,59.6,62.9,54.2c-.116-2.69-.206-4.779-.267-6.2q-.041-1.057-.063-1.614c-.012-.364-.012-.55-.012-.55s.019.186.041.549.051.909.09,1.613c.074,1.425.182,3.514.32,6.2.266,5.393.651,13.186,1.126,22.814.924,19.272,2.2,45.886,3.608,75.289.259,5.472.513,10.848.756,15.976l-.145-.134,64.512-2.085,19.1-.588,5.147-.146,1.333-.032c.3-.005.454,0,.454,0" transform="translate(-55.105 -21.72)" fill="#263238"/>
                  <path id="Trazado_697019" data-name="Trazado 697019" d="M169.38,171.128s-.144.014-.427.028l-1.257.057-4.86.2-18.069.691-61.3,2.248-.137.005-.007-.137c-.326-6.186-.666-12.62-1.013-19.2C80.8,126.01,79.429,99.747,78.438,80.73c-.481-9.5-.871-17.193-1.141-22.515-.128-2.654-.228-4.716-.3-6.122q-.046-1.043-.07-1.593c-.014-.359-.014-.543-.014-.543s.019.183.043.541.055.9.1,1.591c.08,1.406.2,3.467.349,6.12.291,5.321.711,13.01,1.231,22.51,1.012,19.016,2.41,45.277,3.955,74.289.346,6.575.683,13.009,1.009,19.2l-.144-.132,61.3-2.152,18.072-.607,4.862-.15,1.259-.033c.283-.006.428,0,.428,0" transform="translate(-73.142 -23.673)" fill="#263238"/>
                  <path id="Trazado_697020" data-name="Trazado 697020" d="M154.4,22.768,153,21.394l-16.746.082-.811,1.531Z" transform="translate(-88.956 -10.138)" fill="#263238"/>
                  <rect id="Rectángulo_344511" data-name="Rectángulo 344511" width="7.979" height="18.963" transform="translate(46.585 20.848) rotate(-90.722)" fill="#263238"/>
                  <path id="Trazado_697021" data-name="Trazado 697021" d="M133.966,39.066l0-.275a.659.659,0,0,1,.651-.667l18.96-.239a.659.659,0,0,1,.667.651l0,.275a.659.659,0,0,1-.65.667l-18.961.238a.658.658,0,0,1-.667-.65" transform="translate(-88.02 -17.952)" fill="#263238"/>
                  <path id="Trazado_697022" data-name="Trazado 697022" d="M144.742,21.8h.009l8.339-.105a.735.735,0,0,0,.681-.992l-2.457-6.606a4.356,4.356,0,1,0-5.079.084l-2.192,6.653a.735.735,0,0,0,.7.965M148.717,6.77c.034,0,.068,0,.1,0a3.889,3.889,0,0,1,3.728,3.885,3.833,3.833,0,0,1-1.695,3.121l-.172.116,2.6,6.989a.209.209,0,0,1-.023.192.206.206,0,0,1-.17.09l-8.34.105a.2.2,0,0,1-.172-.085.209.209,0,0,1-.031-.189l2.321-7.04-.175-.109a3.828,3.828,0,0,1,2.028-7.075" transform="translate(-92.879 -2.958)" fill="#455a64"/>
                  <path id="Trazado_697023" data-name="Trazado 697023" d="M135.472,38.107a.922.922,0,0,1,.191-.011l.544-.014,2-.042,6.615-.108,6.616-.074,2.005-.006.546.006a.9.9,0,0,1,.19.013.887.887,0,0,1-.19.018l-.545.023-2,.055c-1.693.04-4.031.084-6.616.12s-4.922.058-6.615.063c-.847,0-1.532,0-2.006-.008-.237-.005-.42-.007-.547-.015a.859.859,0,0,1-.189-.021" transform="translate(-88.754 -17.936)" fill="#455a64"/>
                  <path id="Trazado_697024" data-name="Trazado 697024" d="M135.987,23.919a1.011,1.011,0,0,1,.191-.011l.544-.014,2-.042,6.615-.108,6.616-.074,2.006-.006.545.006a.9.9,0,0,1,.19.013.887.887,0,0,1-.19.018l-.545.023-2,.056c-1.693.039-4.031.083-6.616.119s-4.922.058-6.615.063c-.847,0-1.532,0-2.006-.008-.237-.005-.42-.007-.546-.015a.8.8,0,0,1-.189-.021" transform="translate(-89.54 -11.214)" fill="#455a64"/>
                  <path id="Trazado_697025" data-name="Trazado 697025" d="M84.909,205.733l22.908-.671a4.7,4.7,0,0,0,4.556-4.832l-.587-20a4.7,4.7,0,0,0-4.831-4.556l-22.908.671a4.7,4.7,0,0,0-4.556,4.832l.586,20a4.7,4.7,0,0,0,4.832,4.556" transform="translate(-17.491 -83.242)" fill="#ebebeb"/>
                  <path id="Trazado_697028" data-name="Trazado 697028" d="M164.23,111.152l22.908-.671a4.7,4.7,0,0,0,4.557-4.832l-.587-20a4.7,4.7,0,0,0-4.831-4.556l-22.908.671a4.7,4.7,0,0,0-4.556,4.832l.586,20a4.7,4.7,0,0,0,4.832,4.556" transform="translate(-138.546 -38.424)" fill="#ebebeb"/>
                  <path id="Trazado_697031" data-name="Trazado 697031" d="M101.881,107.324a1.384,1.384,0,0,0,.424-.118,2.335,2.335,0,0,0,.963-.814,2.735,2.735,0,0,0,.47-1.93,3.842,3.842,0,0,0-1.277-2.305,6.705,6.705,0,0,0-2.876-1.414,15.816,15.816,0,0,0-3.648-.471,16.071,16.071,0,0,0-8.1,2.054,5.909,5.909,0,0,0-1.716,1.44,3.573,3.573,0,0,0-.771,2.047,2.733,2.733,0,0,0,.769,1.966,4.519,4.519,0,0,0,1.71,1.073,11.589,11.589,0,0,0,3.634.587,20.631,20.631,0,0,0,3.2-.138,20.022,20.022,0,0,0,4.493-1.084c.512-.189.9-.355,1.163-.478a2.5,2.5,0,0,0,.391-.2,2.7,2.7,0,0,0-.412.147c-.266.106-.661.255-1.176.428a21.389,21.389,0,0,1-4.48.992,20.993,20.993,0,0,1-3.166.1,11.506,11.506,0,0,1-3.553-.6,4.285,4.285,0,0,1-1.609-1.017,2.472,2.472,0,0,1-.691-1.779,3.311,3.311,0,0,1,.718-1.888,5.664,5.664,0,0,1,1.639-1.371,15.967,15.967,0,0,1,7.957-2.038,15.788,15.788,0,0,1,3.594.439,6.554,6.554,0,0,1,2.8,1.339,3.7,3.7,0,0,1,1.255,2.182,2.647,2.647,0,0,1-.407,1.85,2.387,2.387,0,0,1-.9.823c-.255.125-.405.154-.4.168" transform="translate(-11.963 -47.513)" fill="#263238"/>
                  <path id="Trazado_697032" data-name="Trazado 697032" d="M127.727,247.019a1.365,1.365,0,0,0,.424-.118,2.332,2.332,0,0,0,.963-.813,2.739,2.739,0,0,0,.47-1.93,3.845,3.845,0,0,0-1.277-2.306,6.71,6.71,0,0,0-2.877-1.414,15.809,15.809,0,0,0-3.647-.472,16.07,16.07,0,0,0-8.1,2.054,5.926,5.926,0,0,0-1.716,1.44,3.578,3.578,0,0,0-.77,2.048,2.734,2.734,0,0,0,.769,1.966,4.507,4.507,0,0,0,1.71,1.073,11.574,11.574,0,0,0,3.634.588,20.828,20.828,0,0,0,3.2-.138A20.079,20.079,0,0,0,125,247.912c.512-.189.9-.355,1.163-.479a2.533,2.533,0,0,0,.391-.2,2.726,2.726,0,0,0-.413.147c-.266.107-.662.255-1.177.429a21.408,21.408,0,0,1-4.48.992,21.066,21.066,0,0,1-3.166.1,11.506,11.506,0,0,1-3.553-.6,4.276,4.276,0,0,1-1.609-1.016,2.473,2.473,0,0,1-.691-1.779,3.312,3.312,0,0,1,.718-1.888,5.654,5.654,0,0,1,1.639-1.37,15.966,15.966,0,0,1,7.957-2.038,15.781,15.781,0,0,1,3.594.439,6.554,6.554,0,0,1,2.8,1.339,3.7,3.7,0,0,1,1.255,2.182,2.648,2.648,0,0,1-.407,1.85,2.388,2.388,0,0,1-.9.823c-.255.126-.405.154-.4.168" transform="translate(-51.408 -113.709)" fill="#263238"/>
                  <path id="Trazado_697033" data-name="Trazado 697033" d="M97.725,61.575a1.37,1.37,0,0,0,.424-.118,2.339,2.339,0,0,0,.963-.814,2.738,2.738,0,0,0,.47-1.93,3.842,3.842,0,0,0-1.277-2.305,6.7,6.7,0,0,0-2.877-1.414,15.808,15.808,0,0,0-3.647-.471,16.064,16.064,0,0,0-8.1,2.054,5.926,5.926,0,0,0-1.716,1.44,3.572,3.572,0,0,0-.77,2.047,2.733,2.733,0,0,0,.769,1.966,4.515,4.515,0,0,0,1.71,1.073,11.587,11.587,0,0,0,3.634.587,20.688,20.688,0,0,0,3.2-.138A20.02,20.02,0,0,0,95,62.468c.512-.189.9-.355,1.163-.478a2.556,2.556,0,0,0,.391-.2,2.7,2.7,0,0,0-.412.147c-.266.106-.662.255-1.176.428a21.388,21.388,0,0,1-4.48.992,21,21,0,0,1-3.166.1,11.492,11.492,0,0,1-3.553-.6,4.277,4.277,0,0,1-1.609-1.016,2.471,2.471,0,0,1-.691-1.779,3.314,3.314,0,0,1,.718-1.888,5.654,5.654,0,0,1,1.639-1.37,15.966,15.966,0,0,1,7.957-2.038,15.781,15.781,0,0,1,3.594.439,6.554,6.554,0,0,1,2.8,1.339,3.7,3.7,0,0,1,1.255,2.182,2.647,2.647,0,0,1-.407,1.85,2.39,2.39,0,0,1-.9.823c-.255.125-.405.154-.4.168" transform="translate(-5.621 -25.835)" fill="#263238"/>
                  <path id="Trazado_697034" data-name="Trazado 697034" d="M248.043,208.238l-7.234.18-3.451,4.448,3.715,4.532,7.423-.218Z" transform="translate(-236.672 -98.675)" fill="#f9a21b"/>
                  <path id="Trazado_697035" data-name="Trazado 697035" d="M249.345,184.121l-7.234.18-3.451,4.448,3.715,4.532,7.423-.218Z" transform="translate(-238.66 -87.247)" fill="#455a64"/>
                  <path id="Trazado_697036" data-name="Trazado 697036" d="M8.427,10.715H31.31a.272.272,0,0,1,.271.272V11.1a.272.272,0,0,1-.271.272H8.427a.272.272,0,0,1-.271-.272v-.113a.272.272,0,0,1,.271-.272" transform="translate(100.834 -5.077)" fill="#e0e0e0"/>
                  <path id="Trazado_697037" data-name="Trazado 697037" d="M8.427,14.679H31.31a.272.272,0,0,1,.271.272v.113a.272.272,0,0,1-.271.272H8.427a.272.272,0,0,1-.271-.272v-.113a.272.272,0,0,1,.271-.272" transform="translate(100.834 -6.956)" fill="#e0e0e0"/>
                  <path id="Trazado_697038" data-name="Trazado 697038" d="M8.427,18.643H31.31a.271.271,0,0,1,.271.271v.114a.272.272,0,0,1-.271.272H8.427a.272.272,0,0,1-.271-.272v-.114a.271.271,0,0,1,.271-.271" transform="translate(100.834 -8.834)" fill="#e0e0e0"/>
                  <path id="Trazado_697039" data-name="Trazado 697039" d="M76.752,14.414c-.061-.046-3.7,4.669-8.132,10.529s-7.974,10.65-7.914,10.7,3.7-4.668,8.133-10.53,7.973-10.649,7.913-10.695" transform="translate(28.015 -6.83)" fill="#263238"/>
                  <path id="Trazado_697040" data-name="Trazado 697040" d="M58.758,12.807a.891.891,0,1,0,.891-.891.891.891,0,0,0-.891.891" transform="translate(45.252 -5.646)" fill="#263238"/>
                  <path id="Trazado_697041" data-name="Trazado 697041" d="M55.343,342.577H82.031a2.261,2.261,0,0,0,2.259-2.37L83.749,328.9a2.262,2.262,0,0,0-2.259-2.153H54.8a2.262,2.262,0,0,0-2.259,2.37l.542,11.307a2.261,2.261,0,0,0,2.259,2.154" transform="translate(24.771 -154.832)" fill="#fafafa"/>
                  <path id="Trazado_697042" data-name="Trazado 697042" d="M55.2,342.454a2.789,2.789,0,0,1-.88-.209,2.249,2.249,0,0,1-1.33-2.048c-.1-2.294-.243-5.591-.419-9.659.008-1-.329-2.166.418-3.012a2.131,2.131,0,0,1,1.384-.771c.548-.041,1.16-.009,1.753-.017l7.662.013,17.557.011a2.137,2.137,0,0,1,1.818,1.024,2.167,2.167,0,0,1,.308,1.025q.028.572.055,1.14.11,2.273.217,4.475t.21,4.318q.026.53.052,1.053a2.634,2.634,0,0,1-.068.991,2.141,2.141,0,0,1-1.252,1.385,2.337,2.337,0,0,1-.938.157h-.992l-1.945,0-3.72.007-6.676.017-9.667.044-2.628.025-.683.014a.117.117,0,1,0,0,.028l.683.014,2.628.025,9.667.044,6.676.017,3.72.007,1.945,0h.992a2.588,2.588,0,0,0,1.032-.172,2.393,2.393,0,0,0,1.4-1.547,2.881,2.881,0,0,0,.08-1.075q-.024-.524-.049-1.053-.1-2.117-.2-4.319t-.212-4.475q-.027-.568-.054-1.14a2.442,2.442,0,0,0-.347-1.154,2.412,2.412,0,0,0-2.052-1.156l-17.557.011-7.662.013c-.606.012-1.176-.021-1.782.027a2.343,2.343,0,0,0-1.519.854,2.378,2.378,0,0,0-.526,1.589q.04.8.078,1.565c.213,4.066.386,7.361.506,9.655a2.325,2.325,0,0,0,.52,1.426,2.243,2.243,0,0,0,1.563.828c.155,0,.234,0,.234,0" transform="translate(24.913 -154.708)" fill="#263238"/>
                  <path id="Trazado_697043" data-name="Trazado 697043" d="M60.724,337.2H83.607a.272.272,0,0,1,.271.272v.113a.272.272,0,0,1-.271.272H60.724a.272.272,0,0,1-.272-.272v-.113a.272.272,0,0,1,.272-.272" transform="translate(21.022 -159.786)" fill="#e0e0e0"/>
                  <path id="Trazado_697044" data-name="Trazado 697044" d="M60.724,341.166H83.607a.271.271,0,0,1,.271.271v.114a.272.272,0,0,1-.271.272H60.724a.272.272,0,0,1-.272-.272v-.114a.272.272,0,0,1,.272-.271" transform="translate(21.022 -161.664)" fill="#e0e0e0"/>
                  <path id="Trazado_697045" data-name="Trazado 697045" d="M60.724,345.13H83.607a.272.272,0,0,1,.271.272v.113a.272.272,0,0,1-.271.272H60.724a.272.272,0,0,1-.272-.272V345.4a.272.272,0,0,1,.272-.272" transform="translate(21.022 -163.543)" fill="#e0e0e0"/>
                  <path id="Trazado_697046" data-name="Trazado 697046" d="M90.071,256.326c-.067.035,4.2,8.358,9.53,18.588s9.707,18.5,9.774,18.463-4.2-8.356-9.531-18.59-9.706-18.5-9.773-18.462" transform="translate(-20.059 -121.462)" fill="#263238"/>
                  <path id="Trazado_697047" data-name="Trazado 697047" d="M88.378,325.945a.891.891,0,1,0,.891-.891.891.891,0,0,0-.891.891" transform="translate(0.047 -154.029)" fill="#263238"/>
                  <g id="Grupo_951979" data-name="Grupo 951979" transform="translate(24.88 46.984)" opacity="0.4">
                    <g id="Grupo_82194" data-name="Grupo 82194" clip-path="url(#clip-path-10)">
                      <path id="Trazado_114040" data-name="Trazado 114040" d="M20.072,3.374c-.382,0-.751.341-1.012.935a35.131,35.131,0,0,0-1.405,5.2,11.068,11.068,0,0,1-.443,4.962,1.406,1.406,0,0,1-1.23.755,1.275,1.275,0,0,1-1.056-.544,4.3,4.3,0,0,1-.385-1.331,3.882,3.882,0,0,1-.329,1.056,1.506,1.506,0,0,1-1.317.809h0a1.364,1.364,0,0,1-1.13-.582,13.66,13.66,0,0,1-.645-5.419c-.218-.826-.395-1.78-.568-2.718-.192-1.04-.391-2.115-.639-2.957C9.593,2.448,9,2.059,8.562,2.059a.867.867,0,0,0-.629.283,1.861,1.861,0,0,0-.421,1.37c.02.6.16,1.872.322,3.342.636,5.76.83,8.526.213,8.669-.724.167-1.892-.607-3.474-2.3a1.724,1.724,0,0,0-1.251-.489,1.31,1.31,0,0,0-1.162.522.991.991,0,0,0,.109,1.008l.137.236c3.236,5.577,5.826,8.559,7.7,8.862a14.922,14.922,0,0,0,2.376.189c3.609,0,7.573-1.362,7.749-4.354.141-2.389.378-7.8.535-11.385.073-1.669.131-2.988.153-3.4a1.327,1.327,0,0,0-.32-.986.729.729,0,0,0-.525-.244M11.836,21.341a.108.108,0,0,1-.107.092h-.016a.108.108,0,0,1-.091-.123,4.543,4.543,0,0,0-1.89-4.34.108.108,0,1,1,.122-.178,4.763,4.763,0,0,1,1.981,4.55m5.508-5.224a14.139,14.139,0,0,1-3.177.7q-.274.02-.541.02a5.615,5.615,0,0,1-2.657-.61.108.108,0,0,1,.1-.19,5.659,5.659,0,0,0,3.081.565,13.949,13.949,0,0,0,3.128-.688.108.108,0,0,1,.065.206" transform="translate(-1.849 -1.843)" fill="#d6d6d6"/>
                      <path id="Trazado_114041" data-name="Trazado 114041" d="M18.223,1.315c-.277,0-.8.138-1.21,1.064a32.524,32.524,0,0,0-1.345,4.892c-.008-.013-.015-.028-.023-.039a2.681,2.681,0,0,0-1.976-.9,1.154,1.154,0,0,0-.815.269.774.774,0,0,0-.151.222.667.667,0,0,0-.035-.06,2.879,2.879,0,0,0-2.121-.968,1.235,1.235,0,0,0-.872.288,1.449,1.449,0,0,0-.32.731c-.161-.691-.3-1.449-.439-2.2-.193-1.045-.393-2.126-.644-2.979C7.971.611,7.388,0,6.713,0a1.092,1.092,0,0,0-.784.349,2.07,2.07,0,0,0-.482,1.527c.02.611.161,1.884.324,3.358.2,1.819.428,3.88.532,5.552.166,2.672-.1,2.87-.152,2.883a.7.7,0,0,1-.158.017c-.458,0-1.37-.391-3.11-2.256a1.916,1.916,0,0,0-1.409-.557,1.52,1.52,0,0,0-1.349.63,1.166,1.166,0,0,0,.11,1.224l.137.235c1.219,2.1,4.928,8.494,7.851,8.966a15.137,15.137,0,0,0,2.411.192c3.707,0,7.78-1.426,7.964-4.557.141-2.39.378-7.805.535-11.388.073-1.669.131-2.987.153-3.4a1.542,1.542,0,0,0-.379-1.146.942.942,0,0,0-.682-.311m.845,1.445c-.022.417-.08,1.736-.153,3.4-.157,3.583-.395,9-.535,11.385-.176,2.992-4.14,4.354-7.749,4.354a14.924,14.924,0,0,1-2.377-.189c-1.872-.3-4.462-3.284-7.7-8.862L.42,12.619A.991.991,0,0,1,.311,11.61a1.311,1.311,0,0,1,1.162-.522,1.724,1.724,0,0,1,1.251.489c1.582,1.695,2.751,2.469,3.474,2.3.617-.142.422-2.909-.213-8.669-.162-1.47-.3-2.739-.322-3.342A1.861,1.861,0,0,1,6.084.5.867.867,0,0,1,6.713.216C7.156.216,7.744.6,8.065,1.7c.248.843.447,1.918.639,2.957.173.938.35,1.893.568,2.718a13.66,13.66,0,0,0,.645,5.419,1.364,1.364,0,0,0,1.13.582h0a1.506,1.506,0,0,0,1.317-.809,3.883,3.883,0,0,0,.329-1.056,4.3,4.3,0,0,0,.385,1.331,1.275,1.275,0,0,0,1.056.544h0a1.406,1.406,0,0,0,1.229-.755,11.062,11.062,0,0,0,.443-4.962,35.13,35.13,0,0,1,1.405-5.2c.261-.594.63-.935,1.012-.935a.729.729,0,0,1,.525.244,1.328,1.328,0,0,1,.32.986M10.548,6.009a2.678,2.678,0,0,1,1.943.874c.469.683.249,4.59-.314,5.574a1.3,1.3,0,0,1-1.129.7,1.148,1.148,0,0,1-.952-.488c-.445-.648-1.055-5.681-.27-6.432a1.029,1.029,0,0,1,.723-.228m3.122.537a2.479,2.479,0,0,1,1.8.808c.434.633.23,4.255-.292,5.168a1.2,1.2,0,0,1-1.042.646,1.059,1.059,0,0,1-.878-.45A6.428,6.428,0,0,1,12.81,10.8a11.6,11.6,0,0,0,0-3.693A.856.856,0,0,1,13,6.755a.949.949,0,0,1,.666-.209" transform="translate(0)" fill="#707070"/>
                      <path id="Trazado_114042" data-name="Trazado 114042" d="M122.166,66.687a6.424,6.424,0,0,0,.446,1.914,1.059,1.059,0,0,0,.878.45,1.2,1.2,0,0,0,1.042-.646c.522-.913.726-4.535.292-5.168a2.479,2.479,0,0,0-1.8-.808.948.948,0,0,0-.666.209.854.854,0,0,0-.191.356,11.61,11.61,0,0,1,0,3.693" transform="translate(-109.356 -55.883)" fill="#ebebeb"/>
                      <path id="Trazado_114043" data-name="Trazado 114043" d="M90.74,63.971a1.148,1.148,0,0,0,.952.488h0a1.3,1.3,0,0,0,1.129-.7c.563-.984.783-4.891.314-5.574a2.679,2.679,0,0,0-1.943-.874,1.029,1.029,0,0,0-.723.228c-.785.751-.175,5.784.27,6.432" transform="translate(-80.645 -51.302)" fill="#ebebeb"/>
                      <path id="Trazado_114044" data-name="Trazado 114044" d="M74.911,142.4a.108.108,0,1,0-.122.178,4.543,4.543,0,0,1,1.89,4.34.108.108,0,0,0,.091.123h.016a.108.108,0,0,0,.107-.092,4.763,4.763,0,0,0-1.981-4.55" transform="translate(-66.905 -127.454)" fill="#b9b9b9"/>
                      <path id="Trazado_114045" data-name="Trazado 114045" d="M92.8,134.129a13.95,13.95,0,0,1-3.128.688,5.659,5.659,0,0,1-3.081-.565.108.108,0,0,0-.1.19,5.615,5.615,0,0,0,2.657.61q.267,0,.541-.02a14.14,14.14,0,0,0,3.177-.7.108.108,0,1,0-.065-.206" transform="translate(-77.368 -120.06)" fill="#707070"/>
                      <path id="Trazado_114046" data-name="Trazado 114046" d="M91.192,57.311a1.029,1.029,0,0,0-.723.228c-.785.751-.175,5.784.27,6.432a1.148,1.148,0,0,0,.952.488h0a1.21,1.21,0,0,0,.4-.07l-.048-.049a4.926,4.926,0,0,1-1.051-3.409,14.747,14.747,0,0,1,.421-3.607,2.109,2.109,0,0,0-.221-.013" transform="translate(-80.645 -51.302)" fill="#e2e2e2"/>
                      <path id="Trazado_114047" data-name="Trazado 114047" d="M123.478,62.481a2.2,2.2,0,0,0-.453-.052.948.948,0,0,0-.666.209.855.855,0,0,0-.191.356,11.607,11.607,0,0,1,0,3.693,6.424,6.424,0,0,0,.446,1.914,1.059,1.059,0,0,0,.878.45,1.117,1.117,0,0,0,.59-.167c-.211-.4-.5-.782-.679-1.2a4.8,4.8,0,0,1-.275-1.023,9.584,9.584,0,0,1-.214-2.254,4.025,4.025,0,0,1,.566-1.929" transform="translate(-109.356 -55.883)" fill="#d6d6d6"/>
                      <path id="Trazado_114048" data-name="Trazado 114048" d="M13.261,116.133c-.225-.178-.486-.308-.7-.5a.875.875,0,0,1-.339-.751,2.416,2.416,0,0,1,.251-.562,2.541,2.541,0,0,0-.142-1.721,1.8,1.8,0,0,1,.113-1.686c.433-.5,1.208-.417,1.864-.353a5.758,5.758,0,0,0,2.745-.293,1.624,1.624,0,0,0,.708-.491.764.764,0,0,0,.09-.819,1.929,1.929,0,0,0-.369-.379,1.745,1.745,0,0,1-.437-.707,1.363,1.363,0,0,1-1.062.513,1.275,1.275,0,0,1-1.056-.544,4.3,4.3,0,0,1-.385-1.331,3.883,3.883,0,0,1-.329,1.056,1.506,1.506,0,0,1-1.317.809h0a1.364,1.364,0,0,1-1.13-.582,3.263,3.263,0,0,1-.324-.973,4.882,4.882,0,0,1-.517,1.656c-.31.491-.851,1-.623,1.538-.3.091-.545-.337-.85-.289s-.33.5-.2.787c.2.441.533.8.769,1.224a1.4,1.4,0,0,1,.112,1.375,1.458,1.458,0,0,1-1.531.476c-1.7-.307-2.926-1.8-3.8-3.291a21.177,21.177,0,0,1-1.869-4.166,1.122,1.122,0,0,0-.768.482.991.991,0,0,0,.109,1.008l.137.236c3.236,5.577,5.826,8.559,7.7,8.862a14.921,14.921,0,0,0,2.376.189,14.424,14.424,0,0,0,1.476-.077,8.083,8.083,0,0,0-.7-.7m-2.337-6.9a.108.108,0,0,1,.146-.044,5.658,5.658,0,0,0,3.081.565,13.942,13.942,0,0,0,3.128-.688.108.108,0,0,1,.065.206,14.14,14.14,0,0,1-3.177.7q-.274.02-.541.02a5.615,5.615,0,0,1-2.657-.61.108.108,0,0,1-.044-.146m.912,5.262a.108.108,0,0,1-.107.092h-.016a.108.108,0,0,1-.091-.123,4.543,4.543,0,0,0-1.89-4.34.108.108,0,1,1,.122-.178,4.763,4.763,0,0,1,1.981,4.55" transform="translate(-1.849 -95.001)" fill="#e0e0e0"/>
                      <path id="Trazado_114049" data-name="Trazado 114049" d="M125.992,14.61a.625.625,0,0,0-.088-.007c-.382,0-.751.341-1.012.935a35.129,35.129,0,0,0-1.405,5.2,11.065,11.065,0,0,1-.443,4.962,1.406,1.406,0,0,1-1.229.755,1.275,1.275,0,0,1-1.056-.544,4.3,4.3,0,0,1-.385-1.331q-.037.187-.079.354a3.939,3.939,0,0,0,.439,1.221,4.588,4.588,0,0,0,1.148,1.244l.094.073c.386-.1.766-.216,1.135-.332a.108.108,0,0,1,.065.206c-.316.1-.64.2-.97.287a1.557,1.557,0,0,0,.469.207.841.841,0,0,0,.838-.229,1.277,1.277,0,0,0,.2-.785l.066-1.866a8.83,8.83,0,0,1,.093-1.162c.148-.872.554-1.677.785-2.531a18.545,18.545,0,0,0,.394-3.373,6.881,6.881,0,0,1,.908-3.242c.009-.015.02-.029.031-.044" transform="translate(-107.681 -13.072)" fill="#ebebeb"/>
                      <path id="Trazado_114050" data-name="Trazado 114050" d="M54.526,15.752c-.021,0-.044.006-.066.01.021,0,.041,0,.062-.005.425-.057.676-.5.819-.9a12.8,12.8,0,0,0,.125-6.019l-.493-3.545a7.934,7.934,0,0,1,0-3.2.877.877,0,0,0-.562.279,1.861,1.861,0,0,0-.421,1.37c.02.6.16,1.872.322,3.342.636,5.76.83,8.526.213,8.669" transform="translate(-48.328 -1.874)" fill="#b9b7b7"/>
                      <path id="Trazado_114051" data-name="Trazado 114051" d="M15.638,110.154a1.318,1.318,0,0,0-.874-.322.069.069,0,0,0-.018.136,2.07,2.07,0,0,1,.829.407c.174.144.32.4.551.444a.045.045,0,0,0,.054-.054c-.035-.256-.347-.468-.541-.61" transform="translate(-13.155 -98.312)" fill="#fff9df"/>
                      <path id="Trazado_114052" data-name="Trazado 114052" d="M30.324,121.44a.442.442,0,0,0-.185-.2,1.884,1.884,0,0,1-.224-.192.076.076,0,0,0-.119.092,1.243,1.243,0,0,0,.2.248.351.351,0,0,0,.27.13c.038,0,.078-.038.062-.081" transform="translate(-26.662 -108.339)" fill="#fff9df"/>
                      <path id="Trazado_114053" data-name="Trazado 114053" d="M66.483,5.875c-.04-.027-.072.029-.047.061a5.85,5.85,0,0,1,.523.728c.152.269.2.574.342.842a.064.064,0,0,0,.119-.032,2.194,2.194,0,0,0-.937-1.6" transform="translate(-59.462 -5.253)" fill="#fff9df"/>
                      <path id="Trazado_114054" data-name="Trazado 114054" d="M115.769,81a.051.051,0,0,0-.094.025c.085.829-.206,1.61-.16,2.431.006.1.165.136.189.026A4.11,4.11,0,0,0,115.769,81" transform="translate(-103.397 -72.485)" fill="#fff9df"/>
                      <path id="Trazado_114055" data-name="Trazado 114055" d="M112.819,107.541a1.232,1.232,0,0,0-.193.813c.008.047.07.044.092.012a1.942,1.942,0,0,0,.27-.754.093.093,0,0,0-.17-.072" transform="translate(-100.806 -96.224)" fill="#fff9df"/>
                      <path id="Trazado_114056" data-name="Trazado 114056" d="M143.377,90.051a.056.056,0,0,0-.107.03,5.878,5.878,0,0,1-.031,1.954c0,.031.043.041.057.015a2.682,2.682,0,0,0,.081-2" transform="translate(-128.219 -80.573)" fill="#fff9df"/>
                      <path id="Trazado_114057" data-name="Trazado 114057" d="M177.172,26.134c0-.465,0-.929-.011-1.394a.03.03,0,0,0-.061,0c-.044.465-.088.929-.122,1.394a3.387,3.387,0,0,0,.005,1.207.046.046,0,0,0,.088,0,3.443,3.443,0,0,0,.1-1.207" transform="translate(-158.373 -22.119)" fill="#fff9df"/>
                      <path id="Trazado_114058" data-name="Trazado 114058" d="M176.409,53.635c0-.082-.117-.078-.125,0a1.309,1.309,0,0,0,.069.737c.018.037.065.014.069-.019a6.62,6.62,0,0,0-.013-.719" transform="translate(-157.782 -47.957)" fill="#fff9df"/>
                      <path id="Trazado_114059" data-name="Trazado 114059" d="M164.508,156.712a5.387,5.387,0,0,1-.327,1.264,4.693,4.693,0,0,0-.407,1.117.073.073,0,0,0,.124.051,3.013,3.013,0,0,0,.526-1.1,4.444,4.444,0,0,0,.235-1.331c0-.1-.142-.1-.152,0" transform="translate(-146.601 -140.214)" fill="#fff9df"/>
                      <path id="Trazado_114060" data-name="Trazado 114060" d="M156.229,184.069a2.039,2.039,0,0,0-.322.327.955.955,0,0,0-.239.392c-.008.054.033.116.1.1a.91.91,0,0,0,.339-.292,2.079,2.079,0,0,0,.283-.4.1.1,0,0,0-.156-.121" transform="translate(-139.345 -164.746)" fill="#fff9df"/>
                      <path id="Trazado_114061" data-name="Trazado 114061" d="M149.988,133.682a.049.049,0,0,0-.083-.035c-.5.493-.452,1.434-1.163,1.759-.023.01-.007.046.017.04a1.336,1.336,0,0,0,.733-.639,2.1,2.1,0,0,0,.5-1.125" transform="translate(-133.136 -119.621)" fill="#b9b9b9"/>
                      <path id="Trazado_114062" data-name="Trazado 114062" d="M162.412,131.725c-.023-.077-.156-.066-.146.02a2.3,2.3,0,0,1,.014.306c0,.11-.047.211,0,.316.01.024.041.047.067.027.179-.136.125-.481.069-.669" transform="translate(-145.245 -117.867)" fill="#b9b9b9"/>
                      <path id="Trazado_114063" data-name="Trazado 114063" d="M164.746,76.447a5.058,5.058,0,0,0-.177.955c0,.032.049.048.063.017a5.067,5.067,0,0,0,.261-.932c.021-.1-.124-.136-.146-.04" transform="translate(-147.313 -68.383)" fill="#b9b9b9"/>
                      <path id="Trazado_114064" data-name="Trazado 114064" d="M52.234,166.085c-.274-.086-.579-.036-.863-.095a2.02,2.02,0,0,1-.94-.488.029.029,0,0,0-.04.041c.37.446,1.271,1.055,1.857.643a.056.056,0,0,0-.013-.1" transform="translate(-45.1 -148.141)" fill="#b9b9b9"/>
                      <path id="Trazado_114065" data-name="Trazado 114065" d="M65.361,167.72a6.445,6.445,0,0,1-.724.017.061.061,0,0,0-.043.1.64.64,0,0,0,.821.009.076.076,0,0,0-.054-.13" transform="translate(-57.804 -150.134)" fill="#b9b9b9"/>
                      <path id="Trazado_114066" data-name="Trazado 114066" d="M117.567,201.43a1.371,1.371,0,0,0-.412-.062,2.683,2.683,0,0,0-.474.019c-.029,0-.03.045-.008.059a1,1,0,0,0,.414.13,2.289,2.289,0,0,0,.268.012.639.639,0,0,0,.22-.086c.032-.014.02-.062-.009-.071" transform="translate(-104.426 -180.251)" fill="#fcca92"/>
                    </g>
                  </g>
                  <g id="Grupo_951981" data-name="Grupo 951981" transform="matrix(0.978, 0.208, -0.208, 0.978, 73.629, 95.834)">
                    <g id="Grupo_951980" data-name="Grupo 951980" transform="translate(0 0)" clip-path="url(#clip-path-11)">
                      <path id="Trazado_697104" data-name="Trazado 697104" d="M10.656,13.892,3.82,15.641l-.331,2.092a4.318,4.318,0,0,0,0,1.658,1.333,1.333,0,0,0,.963,1.031,5.7,5.7,0,0,0,1.986-.143l.135.528L.135,22.452,0,21.924a2.971,2.971,0,0,0,1.491-1.3A11.855,11.855,0,0,0,2.4,17.281L5.372.069,5.643,0,16.681,14.084a9.958,9.958,0,0,0,2.367,2.42,2.312,2.312,0,0,0,1.5.164l.136.528L11.323,19.59l-.135-.528.385-.1a3.029,3.029,0,0,0,1.5-.719.787.787,0,0,0,.146-.737A1.8,1.8,0,0,0,13,17q-.062-.121-.7-.96ZM9.9,12.96,5.314,7.033,4.05,14.457Z" transform="translate(0 0)" fill="#e0e0e0"/>
                    </g>
                  </g>
                </g>
              </g>
            </g>
          </g>
          <g id="Grupo_951961-2" data-name="Grupo 951961" transform="translate(1238.588 2258)">
            <g id="Grupo_951975" data-name="Grupo 951975" clip-path="url(#clip-path-12)">
              <g id="Grupo_951974" data-name="Grupo 951974">
                <g id="Grupo_951973" data-name="Grupo 951973" clip-path="url(#clip-path-12)">
                  <path id="Trazado_697048" data-name="Trazado 697048" d="M8.279,104.18s7.363,40.957,7.007,44.786-2.313,9.922-6.755,10.967a19.953,19.953,0,0,1-8.53,0l5.332-50.307Z" transform="translate(117.88 0)" fill="#ffc09d"/>
                  <path id="Trazado_697049" data-name="Trazado 697049" d="M62.749,69.193l.516-42.323C63.736,16.346,58,7.3,47.471,7.121l-.974.04A18.832,18.832,0,0,0,28.453,25.236c-.358,9.124-.636,19.21-.374,24.086C28.621,59.416,38.787,60.57,38.787,60.57c.023,0,.063,6.144.057,9.111l8.129,11.278v.6Z" transform="translate(41.91 0)" fill="#ffc09d"/>
                  <path id="Trazado_697050" data-name="Trazado 697050" d="M39.492,60.57a24.412,24.412,0,0,0,12.989-4.431s-2.85,7.724-12.965,7.231Z" transform="translate(41.205 0)" fill="#ff9b6c"/>
                  <path id="Trazado_697051" data-name="Trazado 697051" d="M56.716,33.949a1.443,1.443,0,0,0,1.451,1.4A1.38,1.38,0,0,0,59.6,33.985a1.443,1.443,0,0,0-1.449-1.4,1.381,1.381,0,0,0-1.434,1.363" transform="translate(16.863 0)" fill="#263238"/>
                  <path id="Trazado_697052" data-name="Trazado 697052" d="M54.813,29.608c.186.181,1.247-.673,2.8-.733,1.551-.083,2.722.669,2.882.472.08-.087-.116-.42-.627-.76a3.959,3.959,0,0,0-2.318-.611,3.806,3.806,0,0,0-2.216.818c-.462.387-.611.733-.519.814" transform="translate(17.882 0)" fill="#263238"/>
                  <path id="Trazado_697053" data-name="Trazado 697053" d="M42.853,33.949a1.444,1.444,0,0,0,1.451,1.4,1.38,1.38,0,0,0,1.433-1.362,1.445,1.445,0,0,0-1.45-1.4,1.382,1.382,0,0,0-1.434,1.363" transform="translate(44.588 0)" fill="#263238"/>
                  <path id="Trazado_697054" data-name="Trazado 697054" d="M39.583,29.339c.187.181,1.248-.673,2.8-.733,1.549-.082,2.721.669,2.882.472.079-.087-.116-.419-.629-.76a3.965,3.965,0,0,0-2.316-.611,3.815,3.815,0,0,0-2.218.819c-.461.386-.609.733-.518.813" transform="translate(48.341 0)" fill="#263238"/>
                  <path id="Trazado_697055" data-name="Trazado 697055" d="M54.136,41.5a10.339,10.339,0,0,0-2.54-.351c-.4-.024-.776-.087-.854-.355a2.024,2.024,0,0,1,.216-1.186q.5-1.461,1.047-3.066c1.451-4.364,2.483-7.945,2.307-8s-1.5,3.435-2.945,7.8c-.348,1.077-.681,2.1-1,3.083a2.3,2.3,0,0,0-.142,1.564.992.992,0,0,0,.676.552,2.662,2.662,0,0,0,.677.066,10.051,10.051,0,0,0,2.555-.1" transform="translate(28.712 0)" fill="#263238"/>
                  <path id="Trazado_697056" data-name="Trazado 697056" d="M38.88,24.5c.227.387,1.716-.091,3.548-.206,1.83-.153,3.372.1,3.541-.311.073-.2-.251-.542-.91-.836a6.181,6.181,0,0,0-5.4.394c-.608.386-.88.774-.778.959" transform="translate(48.34 0)" fill="#263238"/>
                  <path id="Trazado_697057" data-name="Trazado 697057" d="M54.552,25.047c.332.344,1.587-.055,3.107-.113,1.517-.1,2.814.163,3.1-.214.125-.182-.087-.53-.658-.849a4.9,4.9,0,0,0-2.541-.511,4.813,4.813,0,0,0-2.46.774c-.528.377-.7.745-.548.913" transform="translate(17.883 0)" fill="#263238"/>
                  <path id="Trazado_697058" data-name="Trazado 697058" d="M21.6,34.383c.169-.081,6.855-2.339,6.919,4.575s-6.89,5.552-6.9,5.354-.015-9.929-.015-9.929" transform="translate(83.06 0)" fill="#ffc09d"/>
                  <path id="Trazado_697059" data-name="Trazado 697059" d="M23.36,41.673c.03-.022.121.083.326.175a1.209,1.209,0,0,0,.9.01,2.981,2.981,0,0,0,1.354-2.687,3.982,3.982,0,0,0-.353-1.721,1.393,1.393,0,0,0-.915-.916.613.613,0,0,0-.708.337c-.09.194-.045.331-.082.344-.019.017-.149-.115-.1-.4a.766.766,0,0,1,.268-.436.907.907,0,0,1,.664-.182,1.693,1.693,0,0,1,1.268,1.06,4.083,4.083,0,0,1,.436,1.923c-.031,1.394-.732,2.7-1.729,3a1.288,1.288,0,0,1-1.1-.172c-.216-.169-.254-.323-.23-.336" transform="translate(83.403 0)" fill="#ff9b6c"/>
                  <path id="Trazado_697060" data-name="Trazado 697060" d="M49.9,42.456c-.238-.015-.248,1.573-1.612,2.694s-3.053.938-3.067,1.16c-.022.1.376.31,1.09.333a3.959,3.959,0,0,0,2.56-.879,3.441,3.441,0,0,0,1.249-2.259c.064-.664-.111-1.058-.22-1.049" transform="translate(37.822 0)" fill="#263238"/>
                  <path id="Trazado_697061" data-name="Trazado 697061" d="M17.672,16.14a1.636,1.636,0,0,1,.759-.965,5.041,5.041,0,0,1,2.581-.45,14.559,14.559,0,0,0,6.308-1.66,7.214,7.214,0,0,1-1.875-1.285,4.342,4.342,0,0,1-1.3-4.3.964.964,0,0,1,.535-.667c.448-.143.846.294,1.163.64A3.735,3.735,0,0,0,29.379,8.9,6.123,6.123,0,0,0,32,8.094c.03-.031.056-.066.086-.1.355-.375.7-.734,1.044-1.081l0,0v0C35.7,4.306,37.917,2.493,40.21,1.54A23.48,23.48,0,0,1,52.739.411c3.531.883,6.724,3.7,7.254,7.3C61.948,6.023,64.911,6,67.326,6.942l.06-.027c2.688.924,4.241,3.735,5.062,6.456.045.149.084.3.127.45A10.613,10.613,0,0,0,76.217,17.3c.261.148.56.329.6.627s-.212.542-.452.718a5.33,5.33,0,0,1-2.156.924,11.928,11.928,0,0,0,.909,1.872c.308.508.674,1.117.416,1.652a1.129,1.129,0,0,1-1.176.528A3.3,3.3,0,0,1,73.1,23.07q.461,1.067.92,2.134a6.318,6.318,0,0,1-2.914-.161c-.54,2.56-.913,7.293-1.551,9.031-1.835.053-2.283-.142-3.205.176-1.193.411-.712,2.525-2.277,1.94-.8-.3-2.048-3.289-2.323-4.094a39.475,39.475,0,0,1-1.9-16.691A12.7,12.7,0,0,0,55.9,12.621l.121.107c-2.838-.95-6.047-1.879-8.714-.522-2.068,1.053-3.267,3.226-4.8,4.967a14.474,14.474,0,0,1-10.621,5.318c-.361,3.057-.422,8.05-.539,10.9l-2.5-5.673v.023c-.2-.332-.367-.667-.527-1l-.055-.1v-.013a17.838,17.838,0,0,0-.82-1.611l-.027.025a1.779,1.779,0,0,1-2.627-2.35,4.031,4.031,0,0,1,.85-.875,2.814,2.814,0,0,1-2.673.726,2.207,2.207,0,0,1-1.587-2.167,1.878,1.878,0,0,1,1.1-1.519,6.348,6.348,0,0,1-3.617-.754c-.717-.4-1.423-1.059-1.192-1.958" transform="translate(38.736 0)" fill="#263238"/>
                  <path id="Trazado_697062" data-name="Trazado 697062" d="M22.586,8.912a8.735,8.735,0,0,1,1.026.917A7.274,7.274,0,0,1,25.2,13.171a12.814,12.814,0,0,1,.288,2.568c.014.932-.049,1.93-.109,2.983a26.784,26.784,0,0,0-.038,3.319,11.825,11.825,0,0,0,.248,1.748,3.65,3.65,0,0,0,.734,1.69,1.527,1.527,0,0,0,1.433.463,2.272,2.272,0,0,0,1.277-.74,5.249,5.249,0,0,0,.945-2.584l-.212.028a8.473,8.473,0,0,0,1.256,2.106A3.011,3.011,0,0,0,33,25.8a1.939,1.939,0,0,0,1.041-.194,1.685,1.685,0,0,0,.7-.706,1.74,1.74,0,0,0,.205-.9,1.26,1.26,0,0,0-.334-.783l-.106.1A6.516,6.516,0,0,0,36.7,24.921a5.84,5.84,0,0,0,.676.254,1.128,1.128,0,0,0,.242.057,1.181,1.181,0,0,0-.229-.1c-.151-.06-.376-.148-.656-.286A6.714,6.714,0,0,1,34.62,23.22l-.106.1a1.3,1.3,0,0,1,.084,1.5,1.517,1.517,0,0,1-.634.625,1.761,1.761,0,0,1-.944.165,2.826,2.826,0,0,1-1.838-1,8.33,8.33,0,0,1-1.209-2.061l-.15-.323-.063.352a5.067,5.067,0,0,1-.9,2.468,2.041,2.041,0,0,1-1.142.662,1.287,1.287,0,0,1-1.219-.393,3.45,3.45,0,0,1-.677-1.581,11.642,11.642,0,0,1-.247-1.711,27.234,27.234,0,0,1,.025-3.291c.053-1.052.11-2.055.087-3a12.707,12.707,0,0,0-.321-2.6,7.155,7.155,0,0,0-1.687-3.367,4.092,4.092,0,0,0-1.093-.854" transform="translate(72.972 0)" fill="#455a64"/>
                  <path id="Trazado_697063" data-name="Trazado 697063" d="M37.977,19.113a.376.376,0,0,0,.082.068l.255.182a3.377,3.377,0,0,0,.431.269,5.519,5.519,0,0,0,.62.318,8.981,8.981,0,0,0,4.34.729,11.464,11.464,0,0,0,6.081-2.324,19.863,19.863,0,0,0,5.177-6.107c.722-1.233,1.308-2.5,1.956-3.664a13.431,13.431,0,0,1,2.226-3.106,6.909,6.909,0,0,1,2.9-1.8,4.948,4.948,0,0,1,1.536-.194,5.446,5.446,0,0,1,1.41.254A5.847,5.847,0,0,1,68.269,6.45a7.054,7.054,0,0,1,.54,1.511.354.354,0,0,0-.009-.106l-.052-.309a5.07,5.07,0,0,0-.4-1.139A5.775,5.775,0,0,0,67.2,4.884a5.932,5.932,0,0,0-2.162-1.308A5.579,5.579,0,0,0,63.583,3.3a5.083,5.083,0,0,0-1.6.188,7.075,7.075,0,0,0-3,1.836,13.522,13.522,0,0,0-2.275,3.149c-.656,1.176-1.242,2.436-1.957,3.658a19.873,19.873,0,0,1-5.1,6.05,11.408,11.408,0,0,1-5.964,2.333,9.112,9.112,0,0,1-4.29-.648,14.1,14.1,0,0,1-1.425-.752" transform="translate(26.39 0)" fill="#455a64"/>
                  <path id="Trazado_697064" data-name="Trazado 697064" d="M59.055,14.677a1.649,1.649,0,0,0,.367.249,7.805,7.805,0,0,0,1.081.533A10.341,10.341,0,0,0,62.21,16a11.858,11.858,0,0,0,2.178.264,11.949,11.949,0,0,0,2.19-.173,10.525,10.525,0,0,0,1.727-.469,7.842,7.842,0,0,0,1.1-.488,1.637,1.637,0,0,0,.376-.233c-.021-.04-.576.254-1.531.563a11.992,11.992,0,0,1-1.712.412,13.026,13.026,0,0,1-2.146.152,12.963,12.963,0,0,1-2.138-.241,11.936,11.936,0,0,1-1.693-.482c-.942-.348-1.485-.665-1.508-.626" transform="translate(4.34 0)" fill="#455a64"/>
                  <path id="Trazado_697065" data-name="Trazado 697065" d="M43.179,335.933l1,22.856s-22.9,8.692-23.123,12.934l44.386-.346-.1-35.677Z" transform="translate(46.682 0)" fill="#455a64"/>
                  <path id="Trazado_697066" data-name="Trazado 697066" d="M29.458,356.758a1.814,1.814,0,0,1,1.27,2.059,1.743,1.743,0,0,1-2.03,1.276,1.911,1.911,0,0,1-1.333-2.187,1.806,1.806,0,0,1,2.258-1.093" transform="translate(75.112 0)" fill="#e0e0e0"/>
                  <g id="Grupo_951966" data-name="Grupo 951966" transform="translate(67.718 367.781)" opacity="0.6">
                    <g id="Grupo_951965" data-name="Grupo 951965">
                      <g id="Grupo_951964" data-name="Grupo 951964" clip-path="url(#clip-path-14)">
                        <path id="Trazado_697067" data-name="Trazado 697067" d="M65.46,371.377l-.15-3.6-42.5,1.676s-1.969.876-1.735,2.266Z" transform="translate(-21.055 -367.781)" fill="#fff"/>
                      </g>
                    </g>
                  </g>
                  <path id="Trazado_697068" data-name="Trazado 697068" d="M38.976,358.568c.009.217,1.093.307,2.165.995,1.09.661,1.647,1.6,1.846,1.508.2-.044-.134-1.337-1.446-2.148s-2.614-.554-2.565-.355" transform="translate(51.163 0)" fill="#263238"/>
                  <path id="Trazado_697069" data-name="Trazado 697069" d="M44.717,360.53c-.048.21.893.572,1.637,1.483.77.889.963,1.878,1.179,1.867.2.033.344-1.238-.6-2.353s-2.211-1.2-2.214-1" transform="translate(40.781 0)" fill="#263238"/>
                  <path id="Trazado_697070" data-name="Trazado 697070" d="M51.79,366.123c.2.045.49-1.041-.076-2.223s-1.582-1.647-1.673-1.466c-.121.179.542.811.992,1.789.472.967.542,1.88.757,1.9" transform="translate(31.108 0)" fill="#263238"/>
                  <path id="Trazado_697071" data-name="Trazado 697071" d="M38.08,353.334c.092.2,1.085-.11,2.31-.036,1.228.048,2.184.452,2.3.265.124-.157-.813-.952-2.258-1.019s-2.456.62-2.348.79" transform="translate(52.409 0)" fill="#263238"/>
                  <path id="Trazado_697072" data-name="Trazado 697072" d="M64.982,353.076a37.157,37.157,0,0,0-.061,5.5l.177-.271c-2.592.984-6.04,2.312-9.7,4.039a52.062,52.062,0,0,0-9.836,5.665,10.518,10.518,0,0,0-2.433,2.478c-.462.712-.4,1.258-.328,1.231a3.1,3.1,0,0,1,.566-1.066,12.363,12.363,0,0,1,2.512-2.224,64.445,64.445,0,0,1,9.834-5.411c3.638-1.716,7.048-3.1,9.592-4.192l.188-.081-.011-.191a37.12,37.12,0,0,0-.5-5.481" transform="translate(24.938 0)" fill="#263238"/>
                  <path id="Trazado_697073" data-name="Trazado 697073" d="M67.513,176.554v20.714l-8.171,66.148s2.59,31.021,4.18,48.531c1.381,15.208-.876,41.691-.876,41.691H38.42l-8.668-88.323-5.38-55.083L14.614,177.6Z" transform="translate(51.051 0)" fill="#263238"/>
                  <path id="Trazado_697074" data-name="Trazado 697074" d="M40.7,331.967l6.345,21.98s-20.211,13.832-19.434,18.008l43.061-10.772-8.481-34.654Z" transform="translate(34.915 0)" fill="#455a64"/>
                  <path id="Trazado_697075" data-name="Trazado 697075" d="M38.42,348.75a1.811,1.811,0,0,1,1.718,1.7,1.743,1.743,0,0,1-1.673,1.718,1.913,1.913,0,0,1-1.81-1.813,1.808,1.808,0,0,1,1.938-1.593" transform="translate(56.389 0)" fill="#e0e0e0"/>
                  <g id="Grupo_951969" data-name="Grupo 951969" transform="translate(62.417 357.724)" opacity="0.6">
                    <g id="Grupo_951968" data-name="Grupo 951968" transform="translate(0)">
                      <g id="Grupo_951967" data-name="Grupo 951967" transform="translate(0)" clip-path="url(#clip-path-15)">
                        <path id="Trazado_697076" data-name="Trazado 697076" d="M70.761,361.183l-.991-3.459L28.854,369.345s-1.708,1.314-1.153,2.61Z" transform="translate(-27.59 -357.723)" fill="#fff"/>
                      </g>
                    </g>
                  </g>
                  <path id="Trazado_697077" data-name="Trazado 697077" d="M47.457,353.9c.059.209,1.135.041,2.338.458,1.215.386,1.976,1.164,2.149,1.032.183-.09-.445-1.268-1.911-1.748s-2.67.076-2.576.258" transform="translate(33.751 0)" fill="#263238"/>
                  <path id="Trazado_697078" data-name="Trazado 697078" d="M52.42,356.9c0,.216,1,.345,1.939,1.056.958.683,1.379,1.6,1.586,1.538.206-.016.043-1.284-1.138-2.145s-2.433-.65-2.387-.449" transform="translate(24.74 0)" fill="#263238"/>
                  <path id="Trazado_697079" data-name="Trazado 697079" d="M59.685,362.948c.2,0,.232-1.127-.6-2.143s-1.926-1.229-1.971-1.031c-.076.2.717.66,1.384,1.505.687.829.969,1.7,1.183,1.669" transform="translate(16.262 0)" fill="#263238"/>
                  <path id="Trazado_697080" data-name="Trazado 697080" d="M48.342,348.733c.136.169,1.028-.362,2.237-.578,1.2-.242,2.229-.074,2.293-.282.084-.182-1.014-.735-2.434-.46s-2.241,1.181-2.1,1.32" transform="translate(31.976 0)" fill="#263238"/>
                  <path id="Trazado_697081" data-name="Trazado 697081" d="M29.186,177.968l-1.112,11.266,1.343,81.806L48.59,336.756l4.645,15.937,24.747-4.66L58.907,177.991Z" transform="translate(27.123 0)" fill="#263238"/>
                  <path id="Trazado_697082" data-name="Trazado 697082" d="M27.805,272.754s.026.133.094.388l.312,1.136c.287,1.014.705,2.489,1.247,4.4,1.108,3.854,2.72,9.457,4.751,16.521L50.9,352.754l.055.189.194-.036L75.9,348.258l.227-.042-.043-.227c-1.263-6.668-2.582-13.637-3.928-20.741L61.09,269.014v.071c4.1-25.726,7.366-46.242,9.243-58.021l-.011.031c1.8-3.274,3.187-5.8,4.133-7.519q.69-1.272,1.054-1.944c.234-.438.343-.668.343-.668s-.138.213-.387.643-.618,1.083-1.1,1.92L70.156,211l-.008.015,0,.017c-1.921,11.771-5.267,32.275-9.463,57.985l-.006.036.007.036,11.011,58.243c1.347,7.1,2.668,14.073,3.933,20.741l.183-.269-24.744,4.673.249.153c-6.855-23.4-12.708-43.369-16.85-57.507-2.083-7.049-3.734-12.64-4.87-16.486-.571-1.9-1.011-3.372-1.314-4.381l-.347-1.126c-.08-.252-.129-.378-.129-.378" transform="translate(29.251 0)" fill="#455a64"/>
                  <path id="Trazado_697083" data-name="Trazado 697083" d="M58.96,184.677a7.778,7.778,0,0,0,1.347,1.977,18.224,18.224,0,0,0,9.745,5.938,7.728,7.728,0,0,0,2.374.29,26.681,26.681,0,0,1-7.481-2.875,26.731,26.731,0,0,1-5.985-5.33" transform="translate(1.794 0)" fill="#455a64"/>
                  <path id="Trazado_697084" data-name="Trazado 697084" d="M113.062,61.237a1.046,1.046,0,0,1,.233-1.443.516.516,0,0,1,.371-.109c.5.082,1.8,1.034,2.8,1.051s2.711-.291,3.715.641,3.451,6.044,3.762,7.153,1.4,10.858,1.4,10.858Z" transform="translate(-105.041 0)" fill="#ffc09d"/>
                  <path id="Trazado_697085" data-name="Trazado 697085" d="M114.008,59.959c.054.061,12.01,5.338,17.261,7.654a1.784,1.784,0,0,1,.511,2.929,1.867,1.867,0,0,1-2.137.332l-17.158-8.36-1.414-2.149Z" transform="translate(-110.229 0)" fill="#263238"/>
                  <path id="Trazado_697086" data-name="Trazado 697086" d="M127.076,70.718l-3.811-2.808-5.034-7.3s-2.061-1.224-3.129-.453-1.416,1.663-.92,2.661c0,0-2.843.679-3.047,1.631a10.877,10.877,0,0,0,.411,3.269,5.741,5.741,0,0,0-.021,2.721,4.375,4.375,0,0,1,.359,1.756s-1.842,2.254-1.05,4.559,4.113,7.448,5.89,8.778a38.622,38.622,0,0,0,5.14,2.923l2.2,4.6,9.117-8.254Z" transform="translate(-110.636 0)" fill="#ffc09d"/>
                  <path id="Trazado_697087" data-name="Trazado 697087" d="M117.915,60.921a2.114,2.114,0,0,0,.228.394l.68,1.034c.58.869,1.392,2.062,2.3,3.372l1.286,1.845a4.591,4.591,0,0,0,.654.751,3.174,3.174,0,0,0,.731.474,6.042,6.042,0,0,0,1.181.4,2.058,2.058,0,0,0,.448.082,2.31,2.31,0,0,0-.429-.152,7.451,7.451,0,0,1-1.142-.444c-.983-.413-1.636-1.786-2.576-3.058-.907-1.311-1.736-2.492-2.344-3.342l-.728-1a2.183,2.183,0,0,0-.288-.353" transform="translate(-110.158 0)" fill="#ff9b6c"/>
                  <path id="Trazado_697088" data-name="Trazado 697088" d="M129.693,68.517a28.078,28.078,0,0,0-1.469-2.871,27.85,27.85,0,0,0-1.632-2.781,28.2,28.2,0,0,0,1.469,2.871,28,28,0,0,0,1.632,2.781" transform="translate(-123.107 0)" fill="#ff9b6c"/>
                  <path id="Trazado_697089" data-name="Trazado 697089" d="M125.744,73.082c.029,0,.043-.163.136-.4a1.682,1.682,0,0,1,.593-.762,1.718,1.718,0,0,1,.923-.294c.255-.008.414.034.423,0s-.142-.109-.419-.137a1.582,1.582,0,0,0-1.033.273,1.55,1.55,0,0,0-.612.875c-.068.27-.032.442-.011.441" transform="translate(-120.357 0)" fill="#ff9b6c"/>
                  <path id="Trazado_697090" data-name="Trazado 697090" d="M129.369,74.449c.018.02.159-.085.376-.258a4.476,4.476,0,0,1,.891-.582,1.707,1.707,0,0,1,1.006-.164,1.02,1.02,0,0,1,.377.192c.027,0-.042-.22-.341-.319a1.591,1.591,0,0,0-1.119.122,3.134,3.134,0,0,0-.9.653c-.2.2-.306.338-.289.356" transform="translate(-128.214 0)" fill="#ff9b6c"/>
                  <path id="Trazado_697091" data-name="Trazado 697091" d="M132.219,70.607a7.965,7.965,0,0,0-.836-1.494,7.874,7.874,0,0,0-.993-1.395,8,8,0,0,0,.836,1.494,7.98,7.98,0,0,0,.993,1.4" transform="translate(-129.431 0)" fill="#ff9b6c"/>
                  <path id="Trazado_697092" data-name="Trazado 697092" d="M121.263,70.943c.029,0,.025-.158.1-.385a1.433,1.433,0,0,1,.515-.736,1.476,1.476,0,0,1,.86-.265c.239,0,.386.05.4.023s-.126-.117-.387-.154a1.378,1.378,0,0,0-.979.245,1.351,1.351,0,0,0-.534.857c-.042.26.012.419.033.415" transform="translate(-111.167 0)" fill="#ff9b6c"/>
                  <path id="Trazado_697093" data-name="Trazado 697093" d="M112.715,70.917c.021-.025-.165-.167-.329-.484a1.648,1.648,0,0,1-.089-1.325,1.74,1.74,0,0,1,.948-.939c.33-.137.564-.132.563-.164a.923.923,0,0,0-.608.04,1.734,1.734,0,0,0-1.077,1,1.654,1.654,0,0,0,.149,1.457c.21.327.435.436.443.419" transform="translate(-92.648 0)" fill="#455a64"/>
                  <path id="Trazado_697094" data-name="Trazado 697094" d="M104.382,93.991l-14.46,12.376L72.171,79.849,60.629,86.657S77.928,126.478,82.616,130s8.644,2.606,14.676-.179S124.808,105.4,124.808,105.4Z" transform="translate(-52.259 0)" fill="#ffc09d"/>
                  <path id="Trazado_697095" data-name="Trazado 697095" d="M95.986,117.372c.142-.022-.252-2.522-.077-5.611.155-3.091.813-5.535.675-5.571a15.048,15.048,0,0,0-1.14,5.546,15.086,15.086,0,0,0,.542,5.636" transform="translate(-58.837 0)" fill="#ff9b6c"/>
                  <path id="Trazado_697096" data-name="Trazado 697096" d="M12.479,73.736S.186,73.914.007,89.236s3.13,35.819,3.13,35.819l31.377-5.53S30.622,91,27.3,82.785c-3.344-8.268-9.732-10.442-14.82-9.049" transform="translate(98.664 0)" fill="#455a64"/>
                  <path id="Trazado_697097" data-name="Trazado 697097" d="M59.883,62.707l.391,2.5s16.77,11.081,17.718,13.941c1.471,4.434-1.736,41.892-3.151,52.508s-1.7,34.014-1.7,34.014c1.029,2.755,2.2,5.242,2.586,9.087.384,3.813-2.586,7.293-2.586,7.293-17.994,5.872-39.975,1.364-63.755-4.058l.224-6.741,7.774-73.231a49.112,49.112,0,0,1-.243-5.1c-.021-5.722.959-15.7,7.263-19.44,1.02-.6,9.12-5.207,9.12-5.207Z" transform="translate(45.425 0)" fill="#455a64"/>
                  <g id="Grupo_951972" data-name="Grupo 951972" transform="translate(58.71 94.452)" opacity="0.3">
                    <g id="Grupo_951971" data-name="Grupo 951971" transform="translate(0)">
                      <g id="Grupo_951970" data-name="Grupo 951970" transform="translate(0)" clip-path="url(#clip-path-16)">
                        <path id="Trazado_697098" data-name="Trazado 697098" d="M74.469,94.452a56.785,56.785,0,0,1-5.525,22.589,66.928,66.928,0,0,1-14.107,19.577l2.516-21.912Z" transform="translate(-54.837 -94.452)"/>
                      </g>
                    </g>
                  </g>
                  <path id="Trazado_697099" data-name="Trazado 697099" d="M75.827,75.964c2.94-2.379,8.408-3.672,11.528-1.533a9.4,9.4,0,0,1,3.785,4.66c2.663,7.787,1.071,16.159-1.06,22.373s-12.428,18.182-12.428,18.182L52.209,104.2S69.238,83.563,71.014,81.431a44.939,44.939,0,0,1,4.813-5.467" transform="translate(-11.568 0)" fill="#455a64"/>
                  <path id="Trazado_697100" data-name="Trazado 697100" d="M75.964,75.964a4.428,4.428,0,0,0-.538.43,18.514,18.514,0,0,0-1.4,1.425c-1.179,1.3-2.733,3.323-4.832,5.789L52.184,104.07l-.155.186.208.127L76.276,119l1.392.845.17.1.127-.151c2.845-3.363,5.489-6.743,7.862-10.144a54.241,54.241,0,0,0,3.245-5.172,21.563,21.563,0,0,0,1.253-2.7c.341-.919.614-1.841.883-2.755,2.125-7.307,2.179-14.475.241-19.928a8.146,8.146,0,0,0-8.461-5.842,11.748,11.748,0,0,0-2.634.45,12.5,12.5,0,0,0-3.366,1.487,6.036,6.036,0,0,0-1.024.772c.02.027.35-.271,1.073-.693A13.1,13.1,0,0,1,80.4,73.877a11.752,11.752,0,0,1,2.6-.4,8.452,8.452,0,0,1,3.071.4A9.147,9.147,0,0,1,91.141,79.2c1.871,5.392,1.787,12.466-.342,19.706-.27.9-.545,1.825-.883,2.725a20.965,20.965,0,0,1-1.233,2.639,54.221,54.221,0,0,1-3.229,5.124c-2.365,3.378-5.011,6.753-7.842,10.1l.3-.047-1.392-.845L52.455,104.024l.053.313L69.383,83.769c2.072-2.49,3.6-4.546,4.74-5.863.567-.661,1.028-1.147,1.35-1.463s.5-.466.491-.479" transform="translate(-11.705 0)" fill="#263238"/>
                  <path id="Trazado_697101" data-name="Trazado 697101" d="M12.664,87.627a1.633,1.633,0,0,0-.073.444c-.032.345-.07.767-.117,1.277-.086,1.183-.2,2.772-.341,4.705-.256,4.039-.6,9.495-.985,15.525-.4,6.063-.813,11.546-1.173,15.51-.179,1.928-.327,3.514-.436,4.693-.045.51-.082.932-.112,1.278a1.642,1.642,0,0,0-.007.449,1.619,1.619,0,0,0,.1-.438c.054-.342.119-.761.2-1.267.161-1.1.368-2.7.584-4.683.444-3.959.913-9.445,1.31-15.512s.668-11.559.849-15.537c.079-1.936.144-3.528.193-4.712.012-.513.022-.936.03-1.283a1.638,1.638,0,0,0-.021-.449" transform="translate(111.083 0)" fill="#263238"/>
                  <path id="Trazado_697102" data-name="Trazado 697102" d="M17.611,176.554a1.936,1.936,0,0,0,.471.147l1.373.334c.6.147,1.331.3,2.188.46s1.83.357,2.915.519c2.163.373,4.76.675,7.649.957,2.891.242,6.079.42,9.428.462,3.351.024,6.542-.091,9.438-.283,2.893-.234,5.5-.5,7.663-.848,1.088-.15,2.064-.33,2.92-.494s1.594-.3,2.19-.45l1.374-.33a2.03,2.03,0,0,0,.471-.146,1.948,1.948,0,0,0-.492.054l-1.389.244c-.6.12-1.339.242-2.2.371s-1.835.3-2.922.424c-2.165.31-4.762.537-7.646.747-2.887.167-6.066.269-9.4.245-3.337-.042-6.513-.206-9.4-.424-2.88-.257-5.473-.525-7.636-.854-1.085-.141-2.061-.306-2.918-.45s-1.6-.262-2.2-.382l-1.389-.248a1.986,1.986,0,0,0-.492-.055" transform="translate(49.876 0)" fill="#263238"/>
                </g>
              </g>
            </g>
          </g>
        </g>
      </g>
      <g id="Grupo_951978" data-name="Grupo 951978">
        <g id="Grupo_951976" data-name="Grupo 951976" transform="translate(1171 2277.507)">
          <path id="Trazado_696960" data-name="Trazado 696960" d="M1495.61,554.181q-1.159-.01-2.317-.051c-.772-.025-1.543-.059-2.315-.1s-1.542-.08-2.313-.131-1.541-.106-2.311-.174q1.159.011,2.317.052c.772.025,1.543.059,2.314.1s1.543.08,2.313.131,1.541.106,2.311.175" transform="translate(-1317.45 -479.915)" fill="#1b1a2e"/>
          <g id="Grupo_951958-2" data-name="Grupo 951958" transform="translate(168.904 45.026)">
            <path id="Trazado_696958" data-name="Trazado 696958" d="M1521.435,402.5a17.435,17.435,0,0,0-29.345,17.543l-5.737,5.424,9.255.453a17.432,17.432,0,0,0,25.827-23.419" transform="translate(-1486.353 -396.675)" fill="#fff"/>
            <path id="Trazado_696959" data-name="Trazado 696959" d="M1486.353,529.48q.685-.712,1.392-1.4c.469-.461.945-.915,1.422-1.369s.96-.9,1.446-1.343.978-.882,1.477-1.311q-.686.711-1.392,1.4c-.469.461-.945.915-1.422,1.369s-.959.9-1.446,1.343-.977.882-1.477,1.311" transform="translate(-1486.353 -500.691)" fill="#1b1a2e"/>
            <path id="Trazado_696961" data-name="Trazado 696961" d="M1513.152,419.6a17.467,17.467,0,0,1-1.022-6.3,17.491,17.491,0,0,1,22.569-16.309,17.307,17.307,0,0,1,5.695,2.961,17.871,17.871,0,0,1,2.346,2.211,17.1,17.1,0,0,1,1.908,2.6,17.486,17.486,0,0,1-27.978,20.716,17.44,17.44,0,0,0,17.539,5.019,17.474,17.474,0,0,0,10.01-7.449,17.174,17.174,0,0,0,2.353-5.887,17.362,17.362,0,0,0-2.127-12.278,16.976,16.976,0,0,0-1.879-2.567,17.652,17.652,0,0,0-2.312-2.186,17.088,17.088,0,0,0-5.617-2.933,17.394,17.394,0,0,0-22.448,16.1,17.44,17.44,0,0,0,.964,6.3" transform="translate(-1507.415 -396.233)" fill="#1b1a2e"/>
            <path id="Trazado_697103" data-name="Trazado 697103" d="M2255.453,77.216h8.166V74.4c-.249-.036-.365-.127-.384-.255l1.706-.109v3.181h8.032v1.2h-3.7l.787.236a20.454,20.454,0,0,1-4.774,7.489,21.786,21.786,0,0,0,7.861,3.709,5.673,5.673,0,0,0-.749,1.108,23,23,0,0,1-8.088-3.945,19.823,19.823,0,0,1-8.168,3.964,5.868,5.868,0,0,0-.919-1.218,19.365,19.365,0,0,0,8.031-3.654,18.714,18.714,0,0,1-4.638-7.253c-.269,0-.422-.055-.478-.183.133-.054.269-.09.767-.254h-3.451Zm4.427,1.2a17.3,17.3,0,0,0,4.353,6.834,17.711,17.711,0,0,0,4.5-6.834Z" transform="translate(-2243.475 14.075) rotate(-2)" fill="#afafaf"/>
          </g>
        </g>
      </g>
    </g>
  </g>
</svg>
