<svg xmlns="http://www.w3.org/2000/svg" xmlns:xlink="http://www.w3.org/1999/xlink" width="247" height="206" viewBox="0 0 247 206">
  <defs>
    <clipPath id="clip-path">
      <rect id="Rectángulo_344652" data-name="Rectángulo 344652" width="240" height="181" transform="translate(1157 1900)" fill="#ffa031" opacity="0.38"/>
    </clipPath>
    <clipPath id="clip-path-2">
      <rect id="Rectángulo_344648" data-name="Rectángulo 344648" width="234" height="194.084" fill="none"/>
    </clipPath>
    <clipPath id="clip-path-3">
      <path id="Trazado_697621" data-name="Trazado 697621" d="M163.091,44.181S142.709,51.4,97.276,90.888c-14.751,9.279-32.17,2.762-47.7-3.754-12.183-5.113-23.2-10.227-30.855-7.71C1.31,83.04.041,112.968.041,112.968S0,113.72,0,115.091v.291c.03,15.932,4.95,105.106,111.713,97.369C237.4,201.711,229.754,102.777,229.754,102.777S232.3,49.7,192.813,40.36a38.554,38.554,0,0,0-9.124-1.07,47.366,47.366,0,0,0-20.6,4.891" transform="translate(0 -39.29)" fill="none"/>
    </clipPath>
    <clipPath id="clip-path-5">
      <rect id="Rectángulo_344650" data-name="Rectángulo 344650" width="169.998" height="141" fill="#ffaeb6"/>
    </clipPath>
    <clipPath id="clip-path-6">
      <path id="Trazado_697624" data-name="Trazado 697624" d="M118.484,42.844S103.677,48.088,70.67,76.776C59.953,83.517,47.3,78.783,36.018,74.048c-8.851-3.715-16.857-7.43-22.416-5.6C.952,71.074.03,92.816.03,92.816S0,93.362,0,94.358v.211c.022,11.575,3.6,76.358,81.158,70.738,91.308-8.02,85.756-79.895,85.756-79.895s1.851-38.559-26.837-45.346a28.009,28.009,0,0,0-6.628-.777,34.411,34.411,0,0,0-14.964,3.554" transform="translate(0 -39.29)" fill="#ffaeb6"/>
    </clipPath>
    <clipPath id="clip-path-8">
      <rect id="Rectángulo_344722" data-name="Rectángulo 344722" width="244" height="206" transform="translate(1150 3292)" fill="#ffa031" opacity="0.46"/>
    </clipPath>
    <clipPath id="clip-path-9">
      <rect id="Rectángulo_344721" data-name="Rectángulo 344721" width="331" height="331" transform="translate(0.113 -0.164)" fill="none"/>
    </clipPath>
    <filter id="Rectángulo_344699" x="7.747" y="152.394" width="58.677" height="33.479" filterUnits="userSpaceOnUse">
      <feOffset dy="3" input="SourceAlpha"/>
      <feGaussianBlur stdDeviation="3" result="blur"/>
      <feFlood flood-opacity="0.161"/>
      <feComposite operator="in" in2="blur"/>
      <feComposite in="SourceGraphic"/>
    </filter>
    <filter id="Trazado_697642" x="160.14" y="-73.901" width="39.908" height="39.908" filterUnits="userSpaceOnUse">
      <feOffset dy="3" input="SourceAlpha"/>
      <feGaussianBlur stdDeviation="3" result="blur-2"/>
      <feFlood flood-opacity="0.161"/>
      <feComposite operator="in" in2="blur-2"/>
      <feComposite in="SourceGraphic"/>
    </filter>
    <filter id="Rectángulo_344711" x="5.173" y="-43.461" width="30.37" height="30.37" filterUnits="userSpaceOnUse">
      <feOffset dy="3" input="SourceAlpha"/>
      <feGaussianBlur stdDeviation="3" result="blur-3"/>
      <feFlood flood-opacity="0.161"/>
      <feComposite operator="in" in2="blur-3"/>
      <feComposite in="SourceGraphic"/>
    </filter>
    <filter id="Rectángulo_344712" x="139.584" y="-79.556" width="29.31" height="29.31" filterUnits="userSpaceOnUse">
      <feOffset dy="3" input="SourceAlpha"/>
      <feGaussianBlur stdDeviation="3" result="blur-4"/>
      <feFlood flood-opacity="0.161"/>
      <feComposite operator="in" in2="blur-4"/>
      <feComposite in="SourceGraphic"/>
    </filter>
    <clipPath id="clip-path-12">
      <rect id="Rectángulo_344718" data-name="Rectángulo 344718" width="0.117" height="2.505" fill="none"/>
    </clipPath>
    <clipPath id="clip-path-14">
      <rect id="Rectángulo_344730" data-name="Rectángulo 344730" width="175.69" height="193" fill="none"/>
    </clipPath>
    <clipPath id="clip-path-16">
      <rect id="Rectángulo_344723" data-name="Rectángulo 344723" width="16.43" height="34.853" fill="none"/>
    </clipPath>
    <clipPath id="clip-path-17">
      <rect id="Rectángulo_344724" data-name="Rectángulo 344724" width="22.557" height="39.839" fill="none"/>
    </clipPath>
    <clipPath id="clip-path-18">
      <rect id="Rectángulo_344725" data-name="Rectángulo 344725" width="16.413" height="26.643" fill="none"/>
    </clipPath>
    <clipPath id="clip-path-19">
      <rect id="Rectángulo_344726" data-name="Rectángulo 344726" width="16.996" height="30.619" fill="none"/>
    </clipPath>
    <clipPath id="clip-path-20">
      <rect id="Rectángulo_344727" data-name="Rectángulo 344727" width="25.071" height="11.111" fill="none"/>
    </clipPath>
    <clipPath id="clip-path-21">
      <rect id="Rectángulo_344728" data-name="Rectángulo 344728" width="23.819" height="11.831" fill="none"/>
    </clipPath>
  </defs>
  <g id="Grupo_952266" data-name="Grupo 952266" transform="translate(-1150 -3292)">
    <g id="Enmascarar_grupo_115" data-name="Enmascarar grupo 115" transform="translate(0 1415)" clip-path="url(#clip-path)">
      <g id="Grupo_952225" data-name="Grupo 952225" transform="matrix(0.883, 0.469, -0.469, 0.883, 1333.974, -841.734)">
        <g id="Grupo_952220" data-name="Grupo 952220" transform="translate(1156 2427)">
          <g id="Grupo_952219" data-name="Grupo 952219" clip-path="url(#clip-path-2)">
            <path id="Trazado_697620" data-name="Trazado 697620" d="M18.723,79.424c15.71-3.4,52.227,28.024,78.552,11.464C142.709,51.4,163.09,44.181,163.09,44.181s14.012-7.643,29.723-3.821c39.489,9.341,36.941,62.417,36.941,62.417s7.643,98.934-118.041,109.973C-5.479,221.243.041,112.968.041,112.968S2.588,83.245,18.723,79.424" transform="translate(0 -22.607)" fill="#ffdae3"/>
          </g>
        </g>
        <g id="Grupo_952224" data-name="Grupo 952224" transform="translate(1156 2427)">
          <g id="Grupo_952223" data-name="Grupo 952223" clip-path="url(#clip-path-2)">
            <path id="Trazado_697622" data-name="Trazado 697622" d="M18.723,79.424c15.71-3.4,52.227,28.024,78.552,11.464C142.709,51.4,163.09,44.181,163.09,44.181s14.012-7.643,29.723-3.821c39.489,9.341,36.941,62.417,36.941,62.417s7.643,98.934-118.041,109.973C-5.479,221.243.041,112.968.041,112.968S2.588,83.245,18.723,79.424" transform="translate(0 -22.607)" fill="#ffdae3"/>
          </g>
        </g>
      </g>
      <g id="Grupo_952232" data-name="Grupo 952232" transform="matrix(0.616, -0.788, 0.788, 0.616, -1439.092, 1435.922)">
        <g id="Grupo_952227" data-name="Grupo 952227" transform="translate(1156 2427)">
          <g id="Grupo_952226" data-name="Grupo 952226" clip-path="url(#clip-path-5)">
            <path id="Trazado_697623" data-name="Trazado 697623" d="M13.6,68.447c11.414-2.468,37.942,20.359,57.068,8.329,33.007-28.688,47.813-33.932,47.813-33.932s10.18-5.553,21.593-2.776c28.688,6.786,26.837,45.346,26.837,45.346s5.553,71.874-85.756,79.895C-3.981,171.477.029,92.816.029,92.816S1.88,71.223,13.6,68.447" transform="translate(0 -27.17)" fill="#ffaeb6"/>
          </g>
        </g>
        <g id="Grupo_952231" data-name="Grupo 952231" transform="translate(1156 2427)">
          <g id="Grupo_952230" data-name="Grupo 952230" clip-path="url(#clip-path-5)">
            <path id="Trazado_697625" data-name="Trazado 697625" d="M13.6,68.447c11.414-2.468,37.942,20.359,57.068,8.329,33.007-28.688,47.813-33.932,47.813-33.932s10.18-5.553,21.593-2.776c28.688,6.786,26.837,45.346,26.837,45.346s5.553,71.874-85.756,79.895C-3.981,171.477.029,92.816.029,92.816S1.88,71.223,13.6,68.447" transform="translate(0 -27.17)" fill="#ffaeb6"/>
          </g>
        </g>
      </g>
    </g>
    <g id="Enmascarar_grupo_116" data-name="Enmascarar grupo 116" clip-path="url(#clip-path-8)">
      <g id="Grupo_952243" data-name="Grupo 952243" transform="translate(1103.887 3198.164)">
        <g id="Grupo_952242" data-name="Grupo 952242" clip-path="url(#clip-path-9)">
          <g id="Grupo_952234" data-name="Grupo 952234">
            <g id="Grupo_952233" data-name="Grupo 952233" clip-path="url(#clip-path-9)">
              <path id="Trazado_697626" data-name="Trazado 697626" d="M1261.188,1236.569a60.92,60.92,0,0,1,19.2,12.946,92.954,92.954,0,0,1,13.788,17.174,51.828,51.828,0,0,1-32.987-30.121" transform="translate(-1071.255 -1050.344)" fill="#f0f2f5"/>
              <path id="Trazado_697627" data-name="Trazado 697627" d="M1334.107,1449.767a34.93,34.93,0,0,1,14.985,4.15,35.184,35.184,0,0,1-30.293-1.43,34.928,34.928,0,0,1,15.308-2.72" transform="translate(-1120.19 -1231.4)" fill="#f0f2f5"/>
              <path id="Trazado_697628" data-name="Trazado 697628" d="M1506.992,1264.1a35.15,35.15,0,0,1-7.081,29.489,35.187,35.187,0,0,1,7.081-29.489" transform="translate(-1273.366 -1073.725)" fill="#f0f2f5"/>
              <path id="Trazado_697629" data-name="Trazado 697629" d="M1392.482,1612.984c-6.256-3.474-7.4-7.381-4.415-11.918a34.959,34.959,0,0,1,11.2-10.784,31.086,31.086,0,0,1-5.457,14.56c-2.5,3.511-2.9,6.1-1.329,8.142" transform="translate(-1177.689 -1350.787)" fill="#f0f2f5"/>
              <path id="Trazado_697630" data-name="Trazado 697630" d="M1365.452,1028.39c.144-.041.288-.082.433-.118l.742-.195c.248-.062.5-.119.746-.178l.373-.089.375-.08.75-.158q1.505-.3,3.025-.507a54.116,54.116,0,0,1,6.115-.443,42.882,42.882,0,0,1,6.058.3l-.136-.182q-2.049-2.711-4.232-5.318t-4.5-5.1q-1.151-1.25-2.343-2.462c-.794-.808-1.6-1.608-2.427-2.38.834.766,1.644,1.56,2.443,2.363s1.587,1.618,2.36,2.447q2.321,2.484,4.511,5.087t4.247,5.31q.572.754,1.133,1.515a17.923,17.923,0,0,1,.358-2.028q.246-1.028.578-2.034c.227-.667.47-1.329.742-1.979s.566-1.291.9-1.913c-.147.32-.292.641-.427.965s-.272.649-.4.976c-.258.654-.5,1.314-.72,1.982s-.419,1.342-.6,2.021l-.127.512c-.041.171-.073.344-.111.515-.079.326-.125.657-.188.986.972,1.315,1.921,2.646,2.835,4,.323.466.631.942.941,1.416s.626.945.923,1.428l.9,1.44.876,1.457c.145.244.294.485.436.73l.422.738.422.738c.14.246.284.491.416.741l.81,1.495.2.374.194.379.387.757c.527,1,1,2.032,1.5,3.052.241.513.467,1.033.7,1.549l.348.776c.115.259.219.522.329.784l.648,1.571.6,1.589.3.795.277.8.352,1.026h.068q-.062-2.091-.144-4.18-.209-5.37-.542-10.734t-.791-10.718q-.274-3.188-.6-6.372a9.8,9.8,0,0,1-2.105,1.063c-4.722,1.631-9.817-.3-9.817-.3a21.039,21.039,0,0,1,11.395-5.708l-.232-2.05-.327-2.667c-.024-.2-.051-.408-.077-.612a30.755,30.755,0,0,1-9.078,6.676,34.966,34.966,0,0,1,6.342-14.2,11.211,11.211,0,0,1,1.451-1.61l-.139-.9-.208-1.327-.223-1.325-.223-1.325c-.075-.442-.147-.884-.229-1.324l-.481-2.643c-.078-.441-.165-.88-.252-1.319l-.26-1.318-.26-1.318c-.087-.439-.185-.876-.277-1.315l-.05-.235a31.106,31.106,0,0,1-13.26-8.1c-2.979-3.113-5.449-4-7.747-2.837,4.59-5.491,8.641-5.877,12.536-2.094a34.957,34.957,0,0,1,8.455,12.953l-.5-2.319q-.712-3.192-1.524-6.36l-.027.017.017-.057c-.344-1.345-.7-2.688-1.067-4.026a92.96,92.96,0,0,1-11.569-18.741,60.928,60.928,0,0,1-5.774-22.425,51.824,51.824,0,0,1,17.343,41.166c.374,1.327.73,2.658,1.077,3.992a62.8,62.8,0,0,1,6.012-13.335,40.722,40.722,0,0,1,10.25-11.6,34.64,34.64,0,0,1-16.245,25q.823,3.168,1.553,6.36l.567,2.627c.093.438.191.875.279,1.314l.262,1.318.262,1.318c.088.439.176.878.254,1.319l.486,2.643q.546,3.07,1.025,6.152c2.984-2.641,6.608-2.228,11.2,1.775-2.451-.784-4.752.473-7.207,4.014a29.111,29.111,0,0,1-2.691,3.319q.347,2.7.654,5.4a20.794,20.794,0,0,1,5.666-.089,22.186,22.186,0,0,1-5.147,4.988q.322,3.209.6,6.421.449,5.356.775,10.721c.3,4.968.527,9.942.652,14.917h.137l.072-1.267.026-.462.014-.231.021-.231.085-.922.085-.922.042-.461.057-.46.228-1.839.029-.23.036-.229.072-.458.143-.915.143-.915.168-.911c.115-.607.22-1.216.342-1.821l.384-1.813a125.328,125.328,0,0,1,4.078-14.243q1.23-3.5,2.619-6.933t2.935-6.8c1.363-2.976,2.8-5.921,4.338-8.811a35.147,35.147,0,0,1-14.8-26.422,35.181,35.181,0,0,1,14.832,26.366q1.16-2.178,2.4-4.312c-.622,1.067-1.215,2.151-1.8,3.239-.2.376-.4.754-.6,1.132,0,.008,0,.016,0,.024h0l-.011-.008q-.558,1.066-1.1,2.14-1.672,3.305-3.2,6.679-1.163,2.561-2.243,5.159a43.906,43.906,0,0,1,5.778-1.854,55.713,55.713,0,0,1,6.015-1.173q1.521-.2,3.05-.311l.765-.047.383-.022.383-.014c.255-.009.51-.021.766-.027l.766-.011c.255-.006.511,0,.766,0s.511,0,.766.011c.51.021,1.021.03,1.531.069,1.02.059,2.036.179,3.048.31a35.149,35.149,0,0,1,30.17,3.087c.216,0-8.758,4.839-15.423,4.2-8.328-.8-14.747-7.285-14.747-7.285-1.014-.116-2.031-.22-3.051-.264-.509-.035-1.02-.043-1.53-.061-.255-.007-.51,0-.765-.007s-.51,0-.765,0l-.765.015c-.255.007-.51.021-.765.031l-.382.016-.382.024-.763.051q-1.526.122-3.043.326a55.622,55.622,0,0,0-6.012,1.14c-.99.246-1.975.516-2.95.818-.958.293-1.91.608-2.843.976q-.342.822-.676,1.648-1.385,3.435-2.6,6.935a125.276,125.276,0,0,0-4.106,14.225l-.388,1.811c-.124.6-.23,1.213-.346,1.819l-.17.91-.145.914-.145.914-.073.457-.036.229-.03.229-.24,1.836-.06.459-.046.461-.09.922-.091.922-.022.23-.015.231-.029.462-.08,1.266s14.108-1.605,18.811,0,0,6.421,0,6.421v31.274h-37.7v-37.7h18.643l-.358-1.022-.282-.8-.306-.793-.614-1.585-.658-1.566c-.111-.26-.215-.524-.331-.782l-.349-.775c-.235-.515-.461-1.035-.7-1.547-.5-1.019-.975-2.045-1.5-3.047l-.389-.755-.194-.378-.2-.373-.813-1.492c-.133-.25-.277-.494-.417-.74l-.423-.737-.423-.737c-.142-.245-.291-.486-.437-.729l-.879-1.454-.907-1.437c-.3-.482-.617-.95-.926-1.424s-.621-.948-.944-1.413c-1.22-1.817-2.5-3.593-3.819-5.343-.995-.115-1.995-.173-2.995-.209-1.021-.04-2.042-.045-3.063-.025-1.063.021-2.126.077-3.186.162a21.635,21.635,0,0,0-1.653,1.687c-.393.445-.774.9-1.138,1.37a17.585,17.585,0,0,1,7.957,12.854,17.571,17.571,0,0,1-7.99-12.811q-.188.244-.368.494c-.125.161-.241.329-.358.5s-.239.332-.348.5l-.334.513c-.057.085-.111.172-.162.26l-.159.262c-.431.695-.806,1.422-1.177,2.151l.257-.557c.087-.186.17-.373.267-.553l.286-.544c.093-.183.2-.356.3-.535a22.741,22.741,0,0,1,1.349-2.055,23,23,0,0,1,1.562-1.9c.277-.3.563-.6.856-.882.274-.26.552-.516.844-.755q-1.459.118-2.912.311-1.517.2-3.022.491l-.75.154-.375.078-.373.086c-.249.058-.5.114-.746.174l-.742.191c-.134.033-.267.069-.4.106a17.567,17.567,0,0,1-14.531,4.156,17.59,17.59,0,0,1,14.482-4.2" transform="translate(-1147.516 -795.133)" fill="#f0f2f5"/>
              <path id="Trazado_697631" data-name="Trazado 697631" d="M1823.169,1112.249a51.827,51.827,0,0,1-23.544,37.961,92.954,92.954,0,0,1,8.593-20.279,60.921,60.921,0,0,1,14.951-17.683" transform="translate(-1528.604 -944.746)" fill="#f0f2f5"/>
              <path id="Trazado_697632" data-name="Trazado 697632" d="M1773.3,1358.551a35.149,35.149,0,0,1,28.76-9.621,35.186,35.186,0,0,1-28.76,9.621" transform="translate(-1506.244 -1145.552)" fill="#f0f2f5"/>
              <path id="Trazado_697633" data-name="Trazado 697633" d="M1794.155,1479.169a17.479,17.479,0,0,1,3.713-6.773c-.477-.353-.968-.687-1.467-1.008a21.432,21.432,0,0,0-2.13-1.214c.377.159.742.347,1.1.536s.715.4,1.064.616a22.969,22.969,0,0,1,2.02,1.4,22.682,22.682,0,0,1,1.857,1.61c.146.145.3.281.437.432l.423.445c.143.147.274.3.408.459l.4.467c-.555-.6-1.114-1.2-1.718-1.75l-.225-.209c-.074-.07-.149-.14-.227-.206l-.462-.4c-.152-.136-.315-.26-.472-.39s-.316-.259-.48-.38-.324-.252-.489-.375a17.569,17.569,0,0,1-4.2,14.5,17.479,17.479,0,0,1,.445-7.761" transform="translate(-1523.373 -1248.767)" fill="#f0f2f5"/>
              <path id="Trazado_697634" data-name="Trazado 697634" d="M1862.731,1529.8c.955-2.389-.136-4.774-3.5-7.473a31.09,31.09,0,0,1-9.214-12.526,34.959,34.959,0,0,1,13.713,7.328c4.105,3.554,4.071,7.624-1,12.67" transform="translate(-1571.411 -1282.425)" fill="#f0f2f5"/>
              <rect id="Rectángulo_344691" data-name="Rectángulo 344691" width="37.585" height="18.029" transform="translate(99.851 280.379)" fill="#fff"/>
              <path id="Trazado_697635" data-name="Trazado 697635" d="M0,0H47.381V18.029H0Z" transform="translate(52.47 280.379)" fill="#e0e0e0"/>
              <rect id="Rectángulo_344692" data-name="Rectángulo 344692" width="38.795" height="1.481" transform="translate(99.851 280.379)" fill="#f0f2f5"/>
              <rect id="Rectángulo_344693" data-name="Rectángulo 344693" width="17.397" height="0.37" transform="translate(120.616 285.191)" fill="#f0f2f5"/>
              <rect id="Rectángulo_344694" data-name="Rectángulo 344694" width="38.795" height="1.481" transform="translate(99.851 296.927)" fill="#f0f2f5"/>
              <rect id="Rectángulo_344695" data-name="Rectángulo 344695" width="3.494" height="18.029" transform="translate(57.245 280.379)" fill="#fff"/>
              <rect id="Rectángulo_344696" data-name="Rectángulo 344696" width="0.873" height="18.029" transform="translate(93.489 280.379)" fill="#fff"/>
              <rect id="Rectángulo_344697" data-name="Rectángulo 344697" width="0.873" height="18.029" transform="translate(90.556 280.379)" fill="#fff"/>
              <path id="Trazado_697636" data-name="Trazado 697636" d="M868.152,1902.748h-3.923l-3.647-6.575H864.5Z" transform="translate(-730.979 -1610.612)" fill="#f0f2f5"/>
              <rect id="Rectángulo_344698" data-name="Rectángulo 344698" width="32.267" height="15.478" transform="translate(103.537 252.229)" fill="#fff"/>
              <g transform="matrix(1, 0, 0, 1, 46.11, 93.84)" filter="url(#Rectángulo_344699)">
                <rect id="Rectángulo_344699-2" data-name="Rectángulo 344699" width="40.677" height="15.478" transform="translate(16.75 158.39)" fill="#e0e0e0"/>
              </g>
              <rect id="Rectángulo_344700" data-name="Rectángulo 344700" width="33.306" height="1.272" transform="translate(103.537 252.229)" fill="#f0f2f5"/>
              <rect id="Rectángulo_344701" data-name="Rectángulo 344701" width="14.935" height="0.318" transform="translate(121.363 256.36)" fill="#f0f2f5"/>
              <rect id="Rectángulo_344702" data-name="Rectángulo 344702" width="33.306" height="1.272" transform="translate(103.537 266.436)" fill="#f0f2f5"/>
              <rect id="Rectángulo_344703" data-name="Rectángulo 344703" width="2.999" height="11.029" transform="translate(66.959 254.454)" fill="#fff"/>
              <rect id="Rectángulo_344704" data-name="Rectángulo 344704" width="20.101" height="11.029" transform="translate(77.059 254.454)" fill="#fff"/>
              <path id="Trazado_697637" data-name="Trazado 697637" d="M863.6,1710.031h-3.368l-3.131-5.645h3.368Z" transform="translate(-728.025 -1447.708)" fill="#f0f2f5"/>
              <path id="Trazado_697638" data-name="Trazado 697638" d="M512.576,1790.295H460.265a6.276,6.276,0,0,1-6.275-6.276v-.121a6.275,6.275,0,0,1,6.275-6.275h52.311Z" transform="translate(-385.62 -1509.916)" fill="#e0e0e0"/>
              <path id="Trazado_697639" data-name="Trazado 697639" d="M701.532,1795.125H680.411a5.295,5.295,0,0,1,0-10.589h21.121Z" transform="translate(-573.445 -1515.787)" fill="#fff"/>
              <rect id="Rectángulo_344705" data-name="Rectángulo 344705" width="27.266" height="1.041" transform="translate(101.672 267.707)" fill="#f0f2f5"/>
              <rect id="Rectángulo_344706" data-name="Rectángulo 344706" width="12.227" height="0.26" transform="translate(116.266 271.089)" fill="#f0f2f5"/>
              <rect id="Rectángulo_344707" data-name="Rectángulo 344707" width="27.266" height="1.041" transform="translate(101.672 279.338)" fill="#f0f2f5"/>
              <path id="Trazado_697640" data-name="Trazado 697640" d="M496.474,1800.083H473.929a4.227,4.227,0,0,1,0-8.454h22.542a5.4,5.4,0,0,0-.554.483,5.294,5.294,0,0,0,.556,7.971" transform="translate(-398.966 -1521.812)" fill="#fff"/>
              <path id="Trazado_697641" data-name="Trazado 697641" d="M613.656,1797.131a.28.28,0,0,1-.169-.057,6.02,6.02,0,0,1-.632-9.063,6.11,6.11,0,0,1,.629-.549.281.281,0,0,1,.34.448,5.586,5.586,0,0,0-.571.5,5.457,5.457,0,0,0,.573,8.217.281.281,0,0,1-.17.506" transform="translate(-519.062 -1518.224)" fill="#f0f2f5"/>
              <g transform="matrix(1, 0, 0, 1, 46.11, 93.84)" filter="url(#Trazado_697642)">
                <path id="Trazado_697642-2" data-name="Trazado 697642" d="M1451.219,183.163a10.954,10.954,0,1,1-10.954-10.954,10.954,10.954,0,0,1,10.954,10.954" transform="translate(-1260.17 -240.11)" fill="#fff"/>
              </g>
              <path id="Trazado_697643" data-name="Trazado 697643" d="M1463.778,224.624l-4.633-4.278,1.506-1.631,3.071,2.836,6.809-6.757,1.564,1.576Z" transform="translate(-1239.4 -182.446)" fill="#f0f2f5"/>
              <rect id="Rectángulo_344708" data-name="Rectángulo 344708" width="5.714" height="5.714" transform="translate(260.48 35.709) rotate(-22.387)" fill="#f0f2f5"/>
              <rect id="Rectángulo_344709" data-name="Rectángulo 344709" width="13.915" height="13.915" transform="translate(53.271 181.559) rotate(-69.244)" fill="#f0f2f5"/>
              <rect id="Rectángulo_344710" data-name="Rectángulo 344710" width="13.915" height="13.915" transform="matrix(0.354, -0.935, 0.935, 0.354, 276.165, 71.606)" fill="#f0f2f5"/>
              <g transform="matrix(1, 0, 0, 1, 46.11, 93.84)" filter="url(#Rectángulo_344711)">
                <rect id="Rectángulo_344711-2" data-name="Rectángulo 344711" width="8.771" height="8.771" transform="translate(14.17 -31.73) rotate(-40.78)" fill="#f0f2f5"/>
              </g>
              <g transform="matrix(1, 0, 0, 1, 46.11, 93.84)" filter="url(#Rectángulo_344712)">
                <rect id="Rectángulo_344712-2" data-name="Rectángulo 344712" width="8.771" height="8.771" transform="matrix(0.35, -0.94, 0.94, 0.35, 148.58, -65.35)" fill="#fff"/>
              </g>
              <rect id="Rectángulo_344713" data-name="Rectángulo 344713" width="8.771" height="8.771" transform="matrix(0.354, -0.935, 0.935, 0.354, 288.91, 149.963)" fill="#f0f2f5"/>
              <rect id="Rectángulo_344714" data-name="Rectángulo 344714" width="4.884" height="4.884" transform="translate(138.387 26.962) rotate(-12.141)" fill="#f0f2f5"/>
              <rect id="Rectángulo_344715" data-name="Rectángulo 344715" width="4.884" height="4.884" transform="translate(32.001 153.193) rotate(-12.141)" fill="#f0f2f5"/>
              <rect id="Rectángulo_344716" data-name="Rectángulo 344716" width="41" height="38" transform="translate(233.113 259.836)" fill="#fff"/>
            </g>
          </g>
          <g id="Grupo_952239" data-name="Grupo 952239">
            <g id="Grupo_952238" data-name="Grupo 952238" clip-path="url(#clip-path-9)">
              <path id="Trazado_697644" data-name="Trazado 697644" d="M1345.863,964.039c.479.436.923.9,1.355,1.375.219.234.426.479.639.719l.619.735q.611.742,1.181,1.518c.381.517.749,1.043,1.083,1.6-.479-.436-.923-.9-1.355-1.375s-.852-.959-1.257-1.455l-.6-.751c-.194-.255-.393-.506-.58-.767-.381-.517-.749-1.043-1.083-1.6" transform="translate(-1143.178 -818.856)" fill="#fff"/>
              <path id="Trazado_697645" data-name="Trazado 697645" d="M1155.978,1202.763c-.436.479-.9.923-1.375,1.355-.234.219-.479.426-.719.639l-.735.619q-.742.611-1.518,1.181c-.516.381-1.043.749-1.6,1.083.436-.479.9-.923,1.375-1.355s.959-.852,1.455-1.257l.751-.6c.255-.194.506-.393.767-.58.517-.381,1.043-.749,1.6-1.083" transform="translate(-976.839 -1021.629)" fill="#fff"/>
              <path id="Trazado_697646" data-name="Trazado 697646" d="M1528.884,1122.728c-.436.479-.9.923-1.375,1.355-.234.219-.479.426-.719.639l-.735.619q-.742.611-1.518,1.181c-.516.381-1.043.749-1.6,1.083.436-.479.9-.923,1.375-1.355s.959-.852,1.455-1.257l.751-.6c.255-.194.506-.393.767-.58.516-.381,1.043-.749,1.6-1.083" transform="translate(-1293.586 -953.647)" fill="#fff"/>
              <path id="Trazado_697647" data-name="Trazado 697647" d="M1047.289,1648.153c.479.436.923.9,1.355,1.375.219.234.426.479.639.719l.619.735q.611.742,1.181,1.518c.38.516.749,1.043,1.083,1.6-.479-.436-.923-.9-1.355-1.375s-.852-.958-1.257-1.455l-.6-.751c-.194-.255-.393-.506-.58-.767-.381-.517-.749-1.043-1.083-1.6" transform="translate(-889.569 -1399.943)" fill="#fff"/>
              <path id="Trazado_697648" data-name="Trazado 697648" d="M797.853,1833.39c-.436.479-.9.923-1.375,1.355-.234.219-.479.426-.719.639l-.735.619q-.742.611-1.518,1.181c-.516.381-1.043.749-1.6,1.083.436-.479.9-.923,1.375-1.355s.959-.852,1.455-1.257l.751-.6c.255-.194.506-.393.767-.58.516-.381,1.043-.749,1.6-1.083" transform="translate(-672.647 -1557.284)" fill="#fff"/>
              <path id="Trazado_697649" data-name="Trazado 697649" d="M1120.516,1917.858c.063-.645.17-1.278.292-1.908.057-.316.129-.628.195-.942l.219-.936c.153-.622.324-1.24.51-1.854s.388-1.224.633-1.824c-.063.645-.169,1.279-.291,1.908s-.259,1.256-.414,1.878l-.243.93c-.089.308-.17.618-.268.924-.187.614-.388,1.224-.633,1.824" transform="translate(-951.768 -1622.691)" fill="#fff"/>
              <path id="Trazado_697650" data-name="Trazado 697650" d="M771.165,1594.28c.622-.178,1.251-.313,1.881-.432.315-.063.632-.111.947-.166l.951-.141c.635-.087,1.272-.156,1.911-.209s1.281-.091,1.929-.083c-.622.179-1.251.314-1.881.433s-1.263.222-1.9.307l-.954.117c-.319.031-.637.069-.957.092-.64.053-1.281.091-1.929.084" transform="translate(-655.029 -1353.306)" fill="#fff"/>
              <path id="Trazado_697651" data-name="Trazado 697651" d="M1431.018,1316.389c-.484-.43-.933-.89-1.371-1.359-.222-.232-.432-.474-.647-.712l-.628-.728q-.62-.734-1.2-1.5c-.387-.512-.761-1.034-1.1-1.585.484.43.934.889,1.372,1.358s.863.948,1.275,1.44l.609.744c.2.253.4.5.59.76.387.512.761,1.034,1.1,1.585" transform="translate(-1211.307 -1113.142)" fill="#fff"/>
              <g id="Grupo_952237" data-name="Grupo 952237" transform="translate(203.454 183.572)" opacity="0.4" style="mix-blend-mode: multiply;isolation: isolate">
                <g id="Grupo_952236" data-name="Grupo 952236">
                  <g id="Grupo_952235" data-name="Grupo 952235" clip-path="url(#clip-path-12)">
                    <path id="Trazado_697652" data-name="Trazado 697652" d="M1350.966,1221.457q.051-1.226.118-2.505s-.075.92-.118,2.505" transform="translate(-1350.967 -1218.952)" fill="#a65b3c"/>
                  </g>
                </g>
              </g>
              <path id="Trazado_697653" data-name="Trazado 697653" d="M1407.922,1538.666a7.545,7.545,0,0,1,1.163-.021c.388.019.776.054,1.161.108a15.171,15.171,0,0,1,2.279.5,18.347,18.347,0,0,1,2.189.816,21.093,21.093,0,0,1,2.072,1.082c.672.4,1.311.842,1.939,1.3.306.241.62.472.914.726l.448.374.432.392a26.535,26.535,0,0,1,3.146,3.425,36.986,36.986,0,0,0-3.3-3.249,26.33,26.33,0,0,0-3.731-2.711,20.972,20.972,0,0,0-4.177-1.933,17.135,17.135,0,0,0-2.232-.583,11.462,11.462,0,0,0-2.3-.232" transform="translate(-1195.891 -1306.916)" fill="#ff9b6c"/>
            </g>
          </g>
          <path id="Trazado_697654" data-name="Trazado 697654" d="M0,0H254.5V.452H0Z" transform="translate(38.41 298.182)" fill="#14122c"/>
        </g>
      </g>
    </g>
    <g id="Grupo_952265" data-name="Grupo 952265" transform="translate(1183.155 3303)">
      <g id="Grupo_952264" data-name="Grupo 952264" clip-path="url(#clip-path-14)">
        <g id="Grupo_952263" data-name="Grupo 952263">
          <g id="Grupo_952262" data-name="Grupo 952262" clip-path="url(#clip-path-14)">
            <path id="Trazado_697655" data-name="Trazado 697655" d="M193.776,128.39a28.258,28.258,0,0,1,13.309,17.192c3.46,12.392,14.054,44.666,14.054,44.666s6.054,7.121,6.7,12.4-.648,18.031-2.594,20.409a5.482,5.482,0,0,1-4.721,1.985l-25.481-2.417-10.034-67.184Z" transform="translate(-52.32 -36.308)" fill="#455a64"/>
            <path id="Trazado_697656" data-name="Trazado 697656" d="M70.771,123.209s-18.219,5.715-22.76,10.687L62.93,203.3l-.238,21.9H149.07c0-1.081.775-72.707.775-72.707l5.189-28.107-30.7-5.4-6.054-4.757-34.161,1.73-5.189,5.189Z" transform="translate(-13.577 -32.301)" fill="#455a64"/>
            <g id="Grupo_952246" data-name="Grupo 952246" transform="translate(49.175 149.738)" opacity="0.3">
              <g id="Grupo_952245" data-name="Grupo 952245">
                <g id="Grupo_952244" data-name="Grupo 952244" clip-path="url(#clip-path-16)">
                  <path id="Trazado_697657" data-name="Trazado 697657" d="M83.5,210.16c-.266-.589-.647-1.225-1.279-1.356-1.041-.214-1.736,1.016-2.09,2.017a91.245,91.245,0,0,1-11.348,22.155l-.222,10.656c5.035-4.238,10-8.776,13.211-14.522s4.438-12.954,1.728-18.951" transform="translate(-68.565 -208.78)"/>
                </g>
              </g>
            </g>
            <path id="Trazado_697658" data-name="Trazado 697658" d="M34.434,141.654s-6,8.184-8.5,13.526S2.789,205.4,1.543,210.025s-4.452,19.231,4.986,22.614H25.938l19.481-39.393,1-45.723Z" transform="translate(0 -40.059)" fill="#455a64"/>
            <path id="Trazado_697659" data-name="Trazado 697659" d="M28.577,227.6c-.026.029-.432-.382-1.326-.89a14.889,14.889,0,0,0-4.074-1.475,19.516,19.516,0,0,0-2.97-.417,11.8,11.8,0,0,0-3.4.222,12.692,12.692,0,0,0-6.534,4.1,17.714,17.714,0,0,0-3.7,6.879A34.263,34.263,0,0,0,5.4,242.37c-.181,1.835-.25,3.331-.313,4.362-.03.483-.055.876-.075,1.189a1.751,1.751,0,0,1-.051.414,1.768,1.768,0,0,1-.024-.417c0-.313,0-.707,0-1.191.019-1.034.047-2.532.2-4.381a32.825,32.825,0,0,1,1.1-6.423,17.766,17.766,0,0,1,3.75-7.029,12.9,12.9,0,0,1,6.739-4.19,11.97,11.97,0,0,1,3.5-.2,19.121,19.121,0,0,1,3.008.469,14.015,14.015,0,0,1,4.089,1.608,6.967,6.967,0,0,1,.963.714,1.776,1.776,0,0,1,.289.3" transform="translate(-1.397 -63.477)" fill="#263238"/>
            <path id="Trazado_697660" data-name="Trazado 697660" d="M25.065,217.842a2.239,2.239,0,0,1,.653-.1,11.074,11.074,0,0,1,1.8-.025,14.889,14.889,0,0,1,2.647.392,15.752,15.752,0,0,1,5.889,2.809,14.82,14.82,0,0,1,1.97,1.812,11.087,11.087,0,0,1,1.114,1.414,2.224,2.224,0,0,1,.329.573c-.057.04-.584-.737-1.635-1.806a16.977,16.977,0,0,0-1.985-1.718,18.643,18.643,0,0,0-2.753-1.651,18.544,18.544,0,0,0-3.014-1.1,16.972,16.972,0,0,0-2.584-.462c-1.492-.144-2.428-.063-2.432-.133" transform="translate(-7.088 -61.561)" fill="#263238"/>
            <path id="Trazado_697661" data-name="Trazado 697661" d="M40.712,214.594a4.189,4.189,0,0,1-.9-.068c-.572-.074-1.4-.158-2.431-.234a41.433,41.433,0,0,0-15.875,1.9c-.98.316-1.769.594-2.307.8a4.152,4.152,0,0,1-.856.278,4.172,4.172,0,0,1,.8-.412c.524-.249,1.3-.566,2.278-.917a36.7,36.7,0,0,1,15.984-1.912c1.031.11,1.862.235,2.43.353a4.179,4.179,0,0,1,.876.212" transform="translate(-5.187 -60.473)" fill="#263238"/>
            <path id="Trazado_697662" data-name="Trazado 697662" d="M116.576,150.812a1.258,1.258,0,0,1-.2-.234l-.529-.709-1.951-2.7-6.76-9.538.3-.043c-1.046,3.072-2.2,6.46-3.415,10.026l-.077.226-.2-.126-.4-.26a20.706,20.706,0,0,1-4.226-3.568,25.16,25.16,0,0,1-3.017-4.173,34.815,34.815,0,0,1-3.321-8.028,54.241,54.241,0,0,1-1.257-5.718l-.272-1.564c-.032-.179-.069-.31-.091-.4a.453.453,0,0,1-.045-.133,6.549,6.549,0,0,1,.551,2.071c.279,1.351.668,3.311,1.368,5.671a35.606,35.606,0,0,0,3.364,7.928,25.154,25.154,0,0,0,2.991,4.1,20.539,20.539,0,0,0,4.155,3.5l.4.255-.273.1c1.225-3.562,2.389-6.948,3.445-10.016l.11-.32.191.278,6.649,9.616,1.872,2.758.486.74a1.262,1.262,0,0,1,.152.265" transform="translate(-25.768 -35.029)" fill="#263238"/>
            <g id="Grupo_952249" data-name="Grupo 952249" transform="translate(113.108 148.914)" opacity="0.3">
              <g id="Grupo_952248" data-name="Grupo 952248">
                <g id="Grupo_952247" data-name="Grupo 952247" clip-path="url(#clip-path-17)">
                  <path id="Trazado_697663" data-name="Trazado 697663" d="M157.895,207.631a39.237,39.237,0,0,0,4.991,23.275c4.019,6.99,9.908,13.22,17.246,16.565.237-7.123-.105-15.512.132-22.636Z" transform="translate(-157.707 -207.631)"/>
                </g>
              </g>
            </g>
            <path id="Trazado_697664" data-name="Trazado 697664" d="M156.182,187.855s-3.138.871-.785,7.3,3.138,6.039,4.706,12.053,3.4,11.5,6.145,14.9,12.942,10.328,12.942,10.328l9.152-8.628s-1.508-6.431-1.147-10.8,1.277-15.088,1.147-16.917-2.092-6.276-2.092-6.276v-3.04L181.543,172.3s-2.614-1.177-3.529,3.007l-1.569-4.44s-2.484-.4-3.137,4.7.523,12.158.523,12.158l-1.307,8.89-1.961,6.014-1.7.261s-2.558-.7-3.959-5.513-5.192-10.567-8.722-9.521" transform="translate(-43.698 -48.317)" fill="#ffbe9d"/>
            <path id="Trazado_697665" data-name="Trazado 697665" d="M193.384,219.075a1.4,1.4,0,0,1-.042-.33c-.017-.249-.039-.566-.066-.957-.047-.877-.113-2.09-.194-3.6-.141-3.122-.337-7.466-.566-12.537l.042.105a1.836,1.836,0,0,0-1.853-.483,2.7,2.7,0,0,0-1.7,1.244c-.8,1.286-.843,2.962-1.093,4.58-.5,3.664-.969,7.153-1.4,10.333-.218,1.589-.448,3.1-.757,4.5a29.367,29.367,0,0,1-1.135,3.813,32.157,32.157,0,0,0-.985,3.1,9.536,9.536,0,0,0-.3,2.421,7.573,7.573,0,0,0,.362,2.051,2.922,2.922,0,0,1-.219-.5,5.663,5.663,0,0,1-.288-1.543,9.252,9.252,0,0,1,.237-2.474,30.1,30.1,0,0,1,.938-3.144,30.022,30.022,0,0,0,1.082-3.793c.293-1.388.511-2.891.719-4.479.422-3.181.884-6.671,1.371-10.336.115-.818.2-1.624.346-2.429a6.374,6.374,0,0,1,.807-2.3,3.069,3.069,0,0,1,1.925-1.4,2.185,2.185,0,0,1,2.2.607l.039.047,0,.058c.174,5.074.323,9.419.431,12.542.039,1.512.07,2.726.093,3.6,0,.393.007.71.01.96a1.456,1.456,0,0,1-.016.332" transform="translate(-51.805 -56.799)" fill="#eb996e"/>
            <path id="Trazado_697666" data-name="Trazado 697666" d="M189.683,198.369a3.7,3.7,0,0,1-.386-.818,20.849,20.849,0,0,1-.766-2.343,23.644,23.644,0,0,1-.658-3.6,10.527,10.527,0,0,1-.039-2.183,4.665,4.665,0,0,1,.789-2.241,3.2,3.2,0,0,1,1.673-1.256l.141-.041.072.126c1.325,2.338,2.477,4.4,3.286,5.887l.938,1.754a3.006,3.006,0,0,1,.3.658,3.052,3.052,0,0,1-.414-.593l-1.034-1.7c-.866-1.452-2.057-3.493-3.4-5.824l.212.085a2.853,2.853,0,0,0-1.472,1.119,4.355,4.355,0,0,0-.731,2.066,10.5,10.5,0,0,0,.018,2.11,26.522,26.522,0,0,0,.571,3.572c.231,1.006.476,1.806.647,2.358a4.807,4.807,0,0,1,.249.867" transform="translate(-53.107 -52.567)" fill="#eb996e"/>
            <path id="Trazado_697667" data-name="Trazado 697667" d="M187.226,196.592a3.61,3.61,0,0,1-.085-.833c-.025-.617-.056-1.377-.093-2.276-.062-1.922-.121-4.577-.164-7.51a64.486,64.486,0,0,1,.116-7.524,11.517,11.517,0,0,1,.491-2.239,2.8,2.8,0,0,1,.336-.771,21.143,21.143,0,0,0-.564,3.038c-.182,1.9-.027,4.557-.005,7.491.042,2.933.06,5.588.054,7.511-.01.9-.019,1.66-.026,2.277a3.628,3.628,0,0,1-.061.836" transform="translate(-52.837 -49.613)" fill="#eb996e"/>
            <path id="Trazado_697668" data-name="Trazado 697668" d="M176.589,232.706c-.053-.044.52-.718,1.228-1.94a16.159,16.159,0,0,0,1.064-2.232,15.97,15.97,0,0,0,1.069-5.923,16.081,16.081,0,0,0-.217-2.464c-.236-1.392-.537-2.224-.472-2.246a1.983,1.983,0,0,1,.26.566,10.4,10.4,0,0,1,.47,1.632,14.024,14.024,0,0,1,.3,2.506,14.872,14.872,0,0,1-1.094,6.056,14.063,14.063,0,0,1-1.158,2.243,10.378,10.378,0,0,1-1.012,1.363c-.266.3-.422.456-.442.44" transform="translate(-49.937 -61.621)" fill="#eb996e"/>
            <path id="Trazado_697669" data-name="Trazado 697669" d="M196.14,232.273l7.942,2.756s7.583-3.922,12.812,0,9.771,14.259,8.333,18.442c0,0-3.609,4.455-6.354,5.109s-13.418-1.932-17.858-2.867-12.1-5.912-12.1-5.912Z" transform="translate(-53.425 -65.685)" fill="#ffbe9d"/>
            <path id="Trazado_697670" data-name="Trazado 697670" d="M200.178,241.523a2.606,2.606,0,0,1-.085-.7c-.032-.538-.07-1.176-.113-1.919-.084-1.621-.194-3.861-.227-6.34a63.1,63.1,0,0,1,.184-6.351c.07-.81.158-1.465.24-1.913a2.582,2.582,0,0,1,.165-.689c.058.009-.065,1-.141,2.621s-.11,3.854-.073,6.327c.045,2.423.085,4.615.117,6.336.009.812.007,1.47-.006,1.924a2.6,2.6,0,0,1-.06.706" transform="translate(-56.486 -63.235)" fill="#eb996e"/>
            <path id="Trazado_697671" data-name="Trazado 697671" d="M228.334,233.452a25.1,25.1,0,0,0-2.641-2.381,14.528,14.528,0,0,0-16.1-.887,25.065,25.065,0,0,0-2.886,2.076,3.963,3.963,0,0,1,.654-.709,12.891,12.891,0,0,1,2.1-1.594,14.275,14.275,0,0,1,16.392.9,12.891,12.891,0,0,1,1.909,1.815,3.974,3.974,0,0,1,.573.777" transform="translate(-58.456 -64.419)" fill="#263238"/>
            <path id="Trazado_697672" data-name="Trazado 697672" d="M226.367,225.263a15.6,15.6,0,0,0-3.3-1.822,14.624,14.624,0,0,0-8.941-.268A20.824,20.824,0,0,0,209.5,225.1a22,22,0,0,0-3.349,2.366c-.891.761-1.573,1.424-2.04,1.887a5.889,5.889,0,0,1-.747.7,5.015,5.015,0,0,1,.642-.8,25.04,25.04,0,0,1,1.972-1.985,20.573,20.573,0,0,1,3.351-2.465,20.114,20.114,0,0,1,4.7-1.986,14.339,14.339,0,0,1,9.137.382,10.492,10.492,0,0,1,2.444,1.379,6.68,6.68,0,0,1,.582.494c.128.118.191.184.182.194" transform="translate(-57.509 -62.851)" fill="#263238"/>
            <path id="Trazado_697673" data-name="Trazado 697673" d="M225.837,217.949c-.02.074-1.409-.351-3.714-.663a29.821,29.821,0,0,0-4.071-.258,29.562,29.562,0,0,0-9.794,1.723,29.9,29.9,0,0,0-3.738,1.632c-2.061,1.081-3.221,1.954-3.265,1.891a5.22,5.22,0,0,1,.795-.636,11.273,11.273,0,0,1,.986-.673c.4-.245.836-.546,1.358-.814a26.945,26.945,0,0,1,3.747-1.723,28.043,28.043,0,0,1,9.911-1.744,26.993,26.993,0,0,1,4.109.341c.583.074,1.1.207,1.555.3a11.068,11.068,0,0,1,1.157.3,5.261,5.261,0,0,1,.965.326" transform="translate(-56.913 -61.277)" fill="#263238"/>
            <path id="Trazado_697674" data-name="Trazado 697674" d="M142.99,120.524a6.632,6.632,0,0,1,.55,2.111,20.6,20.6,0,0,1-.3,6.16,36.7,36.7,0,0,1-1.026,4.294,32.575,32.575,0,0,1-2.086,4.77c-1.711,3.3-3.863,6.9-6.356,10.731l-.291.448V148.5c0-2.535-.008-5.2-.012-7.958l.279.133-6.7,5.406.058-.085a70.538,70.538,0,0,0-2.979,16.1c-.655,8.728-.127,17.077.285,24.65.353,7.584.583,14.414.82,20.148s.435,10.374.607,13.579c.094,1.588.167,2.827.218,3.689.027.408.049.727.064.959.012.216.009.328.009.328s-.022-.109-.047-.324c-.024-.232-.057-.549-.1-.957-.08-.841-.182-2.083-.288-3.686-.217-3.2-.465-7.842-.727-13.576s-.561-12.564-.9-20.143c-.43-7.567-.971-15.933-.313-24.7a70.385,70.385,0,0,1,3.009-16.182l.016-.052.042-.034,6.709-5.393.28-.225v.359c0,2.763-.009,5.424-.012,7.958l-.292-.088c4.926-7.641,8.934-14.28,9.551-19.652a21.226,21.226,0,0,0,.387-6.116,10.354,10.354,0,0,0-.294-1.589c-.113-.349-.159-.534-.159-.534" transform="translate(-34.91 -34.083)" fill="#263238"/>
            <path id="Trazado_697675" data-name="Trazado 697675" d="M131.883,249.516l-.256-.009a2.021,2.021,0,1,0,.256.009" transform="translate(-36.668 -70.559)" fill="#fff"/>
            <path id="Trazado_697676" data-name="Trazado 697676" d="M131.883,210.975l-.256-.009a2.021,2.021,0,1,0,.256.009" transform="translate(-36.668 -59.66)" fill="#fff"/>
            <path id="Trazado_697677" data-name="Trazado 697677" d="M131.615,174.9a2.023,2.023,0,0,0,.268-4.036l-.256-.009a2.023,2.023,0,0,0-.012,4.044" transform="translate(-36.668 -48.318)" fill="#fff"/>
            <path id="Trazado_697678" data-name="Trazado 697678" d="M85.516,54.052a50.244,50.244,0,0,1-6.884-8.871,16.878,16.878,0,0,1-2.319-10.795c.354-2.165,1.274-4.227,1.421-6.415.2-3.012-1.065-6.159,0-8.983,1.669-4.412,7.609-5.094,11.21-8.142,2.8-2.374,4.17-6.228,7.255-8.224,2.7-1.744,6.158-1.706,9.336-1.257s6.377,1.252,9.558.824A63.062,63.062,0,0,0,121.72.416c2.221-.55,4.7-.695,6.678.455s3.09,3.958,1.792,5.843c3.686-1.7,8.37,1.173,9.378,5.107s-1.011,8.18-4.135,10.774-7.164,3.8-11.153,4.551c-11.3,2.129-23.547.927-33.28-5.185" transform="translate(-21.533 0)" fill="#263238"/>
            <path id="Trazado_697679" data-name="Trazado 697679" d="M128.21,95.522c-.552-4.275-1-7.843-1.031-8.286,0,0,14.288-3.211,13.5-17.658-.381-6.982-2.335-21.3-4.253-34.23a26.951,26.951,0,0,0-28.464-22.919l-1.393.093C91.61,14.4,84.851,28.161,87.146,43.063l8.071,49.968S98.662,104.085,106.03,106l9.3,13.283,1.536-5.718,6.931-6.034a27.306,27.306,0,0,0,3.417-5.086,11.132,11.132,0,0,0,1-6.922" transform="translate(-24.521 -3.498)" fill="#ffbe9d"/>
            <path id="Trazado_697680" data-name="Trazado 697680" d="M135.589,114.851a33.642,33.642,0,0,1-19.177-4.09s5.144,10.091,19.461,7.828Z" transform="translate(-32.921 -31.323)" fill="#eb996e"/>
            <path id="Trazado_697681" data-name="Trazado 697681" d="M147.937,61.034a2.065,2.065,0,0,1-1.848,2.213,1.977,1.977,0,0,1-2.25-1.716,2.068,2.068,0,0,1,1.847-2.214,1.977,1.977,0,0,1,2.251,1.718" transform="translate(-40.674 -16.77)" fill="#263238"/>
            <path id="Trazado_697682" data-name="Trazado 697682" d="M149.152,53.824c-.237.285-1.876-.766-4.1-.611-2.218.122-3.769,1.372-4.027,1.117-.127-.113.1-.615.775-1.178a5.663,5.663,0,0,1,3.2-1.226,5.439,5.439,0,0,1,3.282.822c.717.478.98.948.863,1.077" transform="translate(-39.873 -14.681)" fill="#263238"/>
            <path id="Trazado_697683" data-name="Trazado 697683" d="M118.719,63.123a2.067,2.067,0,0,1-1.849,2.213,1.977,1.977,0,0,1-2.25-1.716,2.068,2.068,0,0,1,1.848-2.214,1.979,1.979,0,0,1,2.251,1.718" transform="translate(-32.411 -17.361)" fill="#263238"/>
            <path id="Trazado_697684" data-name="Trazado 697684" d="M118.787,56.434c-.238.286-1.879-.765-4.1-.611-2.218.123-3.77,1.373-4.029,1.117-.126-.112.1-.615.777-1.178a5.663,5.663,0,0,1,3.2-1.227,5.447,5.447,0,0,1,3.282.822c.715.478.98.949.863,1.077" transform="translate(-31.285 -15.419)" fill="#263238"/>
            <path id="Trazado_697685" data-name="Trazado 697685" d="M133.868,72.113a14.688,14.688,0,0,1,3.559-.891c.562-.1,1.091-.245,1.16-.638a2.884,2.884,0,0,0-.491-1.653q-.936-2-1.963-4.2c-2.738-5.985-4.759-10.922-4.518-11.031s2.657,4.655,5.394,10.641q.993,2.216,1.9,4.232a3.289,3.289,0,0,1,.443,2.2,1.424,1.424,0,0,1-.876.891,3.854,3.854,0,0,1-.953.2,14.454,14.454,0,0,1-3.652.25" transform="translate(-37.215 -15.185)" fill="#263238"/>
            <path id="Trazado_697686" data-name="Trazado 697686" d="M118.025,44.461c-.179.618-2.413.48-4.994.968-2.592.435-4.64,1.338-5.021.82-.171-.249.157-.841.966-1.482a8.844,8.844,0,0,1,7.63-1.362c.981.321,1.494.762,1.419,1.055" transform="translate(-30.532 -12.178)" fill="#263238"/>
            <path id="Trazado_697687" data-name="Trazado 697687" d="M147.643,44.892c-.356.53-1.92.109-3.759.207-1.842.034-3.371.566-3.765.062-.174-.245.037-.766.685-1.289a5.451,5.451,0,0,1,6.063-.217c.684.475.932.979.776,1.236" transform="translate(-39.608 -12.115)" fill="#263238"/>
            <path id="Trazado_697688" data-name="Trazado 697688" d="M86.329,69.855c-.253-.09-10.115-2.27-9.139,7.578s11.648,6.638,11.637,6.354-2.5-13.932-2.5-13.932" transform="translate(-21.809 -19.679)" fill="#ffbe9d"/>
            <path id="Trazado_697689" data-name="Trazado 697689" d="M85.468,81.873c-.047-.027-.16.137-.437.3a1.722,1.722,0,0,1-1.28.153c-1.078-.279-2.118-1.843-2.342-3.613a5.705,5.705,0,0,1,.237-2.5,1.99,1.99,0,0,1,1.16-1.444.878.878,0,0,1,1.059.37c.159.262.116.465.17.477.03.022.2-.186.075-.585a1.1,1.1,0,0,0-.448-.578,1.3,1.3,0,0,0-.974-.157,2.425,2.425,0,0,0-1.641,1.7,5.86,5.86,0,0,0-.323,2.8c.26,1.978,1.46,3.734,2.924,4a1.847,1.847,0,0,0,1.543-.416c.281-.274.311-.5.275-.514" transform="translate(-22.815 -21)" fill="#eb996e"/>
            <path id="Trazado_697690" data-name="Trazado 697690" d="M135.071,20.9c-.676,3.92-8.627,7.512-15.219,7.32-6.077-.177-9.078-3.192-13.494-5.335-2.795-1.356-2.795-1.356-6.588-.74-3.066.5-4.658,4.117-6.38,6.7,3.28,7.149,1.954,15.464.564,23.206a3.93,3.93,0,0,1-1,2.353c-1.107.976-2.9.392-3.991-.605-1.743-1.6-2.536-3.963-3.108-6.255a40.687,40.687,0,0,1-.975-16.014,27.7,27.7,0,0,1,6.662-14.459,26.246,26.246,0,0,1,17.9-8.17,32.231,32.231,0,0,1,19.1,5.421,18.884,18.884,0,0,1,6.527,6.576" transform="translate(-23.89 -2.508)" fill="#263238"/>
            <path id="Trazado_697691" data-name="Trazado 697691" d="M133.676,85.314l-5.02-2.341a1.686,1.686,0,0,0-.912-.23,1.458,1.458,0,0,0-.869.59,4.669,4.669,0,0,0-.556,5.129,3.92,3.92,0,0,0,4.711,1.732c1.779-.737,2.643-2.8,2.782-4.724Z" transform="translate(-35.573 -23.397)" fill="#eb996e"/>
            <path id="Trazado_697692" data-name="Trazado 697692" d="M130.948,90.3c.014.043-.232.188-.734.293a4.343,4.343,0,0,1-2.16-.159,4.5,4.5,0,0,1-2.493-2.071,4.63,4.63,0,0,1-.306-3.959,4.845,4.845,0,0,1,1.165-1.756,4.5,4.5,0,0,1,.814-.615,1.216,1.216,0,0,1,1.162-.072,7.209,7.209,0,0,1,.782.444l.685.42,1.222.765a10.961,10.961,0,0,1,2.332,1.663,10.976,10.976,0,0,1-2.6-1.207l-1.268-.686-.7-.387a7.781,7.781,0,0,0-.71-.374.529.529,0,0,0-.549.052,3.933,3.933,0,0,0-.661.523,4.269,4.269,0,0,0-.976,1.5,4.055,4.055,0,0,0,.212,3.362,4.144,4.144,0,0,0,2.074,1.907,4.911,4.911,0,0,0,1.944.364c.478-.011.749-.058.765,0" transform="translate(-35.334 -23.145)" fill="#263238"/>
            <path id="Trazado_697693" data-name="Trazado 697693" d="M122.922,57.949a17.768,17.768,0,0,0-.392-2.494,10.247,10.247,0,0,0-3.75-5.576,10.123,10.123,0,0,0-9.588-1.428,10.149,10.149,0,0,0-4.69,3.527,10.062,10.062,0,0,0,0,11.941,10.133,10.133,0,0,0,4.691,3.527,10.2,10.2,0,0,0,13.337-7,17.752,17.752,0,0,0,.392-2.493.557.557,0,0,1,.011.167c0,.133,0,.294-.006.491a4.723,4.723,0,0,1-.062.8,7.271,7.271,0,0,1-.193,1.074,9.721,9.721,0,0,1-1.112,2.776,10.386,10.386,0,0,1-6.994,4.95,10.456,10.456,0,0,1-5.489-.433,10.446,10.446,0,0,1-4.868-3.635,10.4,10.4,0,0,1,0-12.374,10.454,10.454,0,0,1,4.868-3.634,10.453,10.453,0,0,1,5.488-.433,10.382,10.382,0,0,1,6.994,4.949,9.712,9.712,0,0,1,1.113,2.776,7.271,7.271,0,0,1,.193,1.074,4.731,4.731,0,0,1,.062.8c0,.2.005.358.006.491a.557.557,0,0,1-.011.167" transform="translate(-28.892 -13.437)" fill="#263238"/>
            <path id="Trazado_697694" data-name="Trazado 697694" d="M157.376,56.706a17.738,17.738,0,0,0-.384-2.429,9.989,9.989,0,0,0-3.654-5.431A9.858,9.858,0,0,0,144,47.456a9.867,9.867,0,0,0-4.568,3.435,9.8,9.8,0,0,0,0,11.63A9.882,9.882,0,0,0,144,65.957a9.936,9.936,0,0,0,12.993-6.821,17.738,17.738,0,0,0,.384-2.429,4.08,4.08,0,0,1,.005.641,4.61,4.61,0,0,1-.06.776,7.057,7.057,0,0,1-.188,1.047,10.088,10.088,0,0,1-7.9,7.532,10.188,10.188,0,0,1-5.351-.422,10.19,10.19,0,0,1-4.746-3.543,10.136,10.136,0,0,1,0-12.063,10.192,10.192,0,0,1,4.745-3.542,10.185,10.185,0,0,1,5.35-.422,10.09,10.09,0,0,1,7.9,7.531,7.065,7.065,0,0,1,.188,1.048,4.61,4.61,0,0,1,.06.776,4.08,4.08,0,0,1-.005.641" transform="translate(-38.784 -13.16)" fill="#263238"/>
            <path id="Trazado_697695" data-name="Trazado 697695" d="M135.43,57.107c-.04.042-.278-.158-.714-.364a4.109,4.109,0,0,0-1.806-.4,4.057,4.057,0,0,0-1.791.459c-.427.223-.656.433-.7.393s.132-.314.56-.618a3.543,3.543,0,0,1,3.864-.067c.439.286.618.565.585.595" transform="translate(-36.881 -15.829)" fill="#263238"/>
            <path id="Trazado_697696" data-name="Trazado 697696" d="M99.659,60.025a44.35,44.35,0,0,1-4.495,3.588,44.387,44.387,0,0,1-4.718,3.29,44.31,44.31,0,0,1,4.495-3.589,44.354,44.354,0,0,1,4.718-3.289" transform="translate(-25.577 -16.974)" fill="#263238"/>
            <g id="Grupo_952252" data-name="Grupo 952252" transform="translate(65.435 89.73)" opacity="0.3">
              <g id="Grupo_952251" data-name="Grupo 952251">
                <g id="Grupo_952250" data-name="Grupo 952250" clip-path="url(#clip-path-18)">
                  <path id="Trazado_697697" data-name="Trazado 697697" d="M91.4,125.11c-1,9.734,2.7,20.007,10.51,25.905a2.374,2.374,0,0,0,2.1.661,2.317,2.317,0,0,0,1.089-1.124,19.016,19.016,0,0,0,2.327-12.507c-1.236,3.255-2.3,6.451-3.545,9.856-6.8-4.13-11.043-12.912-12.485-22.792" transform="translate(-91.236 -125.11)"/>
                </g>
              </g>
            </g>
            <g id="Grupo_952255" data-name="Grupo 952255" transform="translate(92.024 88.839)" opacity="0.3">
              <g id="Grupo_952254" data-name="Grupo 952254">
                <g id="Grupo_952253" data-name="Grupo 952253" clip-path="url(#clip-path-19)">
                  <path id="Trazado_697698" data-name="Trazado 697698" d="M128.309,146.89l5.728-2.092.949,9.689s6.182-11.267,8.74-16.407,1.242-14.212,1.242-14.212.915,7.9-5.279,17.981l-4.675,7.6V141.49Z" transform="translate(-128.309 -123.868)"/>
                </g>
              </g>
            </g>
            <g id="Grupo_952258" data-name="Grupo 952258" transform="translate(5.18 159.915)" opacity="0.3">
              <g id="Grupo_952257" data-name="Grupo 952257">
                <g id="Grupo_952256" data-name="Grupo 952256" clip-path="url(#clip-path-20)">
                  <path id="Trazado_697699" data-name="Trazado 697699" d="M27.425,224.157a15.312,15.312,0,0,0-8.3-1.041,16.006,16.006,0,0,0-8.261,3.126,9.217,9.217,0,0,0-3.607,7.8l.287.041c2-5.41,5.974-9.347,11.1-9.822a16.841,16.841,0,0,1,13.649,5.563c-.342-2.8-2.314-4.457-4.868-5.663" transform="translate(-7.222 -222.969)"/>
                </g>
              </g>
            </g>
            <g id="Grupo_952261" data-name="Grupo 952261" transform="translate(149.046 162.59)" opacity="0.3">
              <g id="Grupo_952260" data-name="Grupo 952260">
                <g id="Grupo_952259" data-name="Grupo 952259" clip-path="url(#clip-path-21)">
                  <path id="Trazado_697700" data-name="Trazado 697700" d="M229.017,230.744a13.123,13.123,0,0,0-7.4-3.812,16.628,16.628,0,0,0-13.8,4l1.093-.887a17.414,17.414,0,0,1,9.192-2.5,13.3,13.3,0,0,1,8.763,3.5c2.141,2.04,3.428,4.8,4.656,7.486a9.382,9.382,0,0,0-2.5-7.786" transform="translate(-207.814 -226.699)"/>
                </g>
              </g>
            </g>
            <path id="Trazado_697701" data-name="Trazado 697701" d="M185.887,161.882a3.491,3.491,0,0,1,.257-.783l.815-2.085c.694-1.757,1.646-4.186,2.651-6.887s1.872-5.162,2.5-6.946l.746-2.11a3.5,3.5,0,0,1,.317-.76,3.514,3.514,0,0,1-.179.8c-.138.511-.354,1.246-.634,2.149-.559,1.807-1.389,4.287-2.4,6.994s-2,5.124-2.757,6.858c-.379.866-.695,1.564-.924,2.04a3.528,3.528,0,0,1-.391.726" transform="translate(-52.567 -40.245)" fill="#263238"/>
            <path id="Trazado_697702" data-name="Trazado 697702" d="M58.585,164.539c-.1.021-.881-3.392-1.741-7.622s-1.476-7.677-1.375-7.7.88,3.392,1.741,7.623,1.476,7.676,1.375,7.7" transform="translate(-15.683 -42.198)" fill="#263238"/>
            <path id="Trazado_697703" data-name="Trazado 697703" d="M56.895,211.645c.227.115-2.628-22.35-2.628-22.35s1.8-17.047,2.814-17.836l.026-6.014s2.788-1.689,3.537,1.038c0,0,2.472-2.147,2.9,2.964s.523,10.332.523,10.332l5.5,13.76.906.458s1.182-10.779,1.87-12.365,1.159-5.444,3.767-4.865,2.826,2.737,2.357,6.254-1.053,7.147-.836,9.418,1.249,7.271.932,11.242-2.492,8.163-4.775,11.1-6.644,9.025-9.015,10.859c-.828.64-7.886-14-7.886-14" transform="translate(-15.346 -46.641)" fill="#ffbe9d"/>
            <path id="Trazado_697704" data-name="Trazado 697704" d="M60.831,196.055a4.7,4.7,0,0,1,.015-.962c.047-.69.108-1.565.179-2.609.168-2.2.425-5.242.733-8.6.159-1.673.309-3.267.448-4.729a8.434,8.434,0,0,0,.025-2.028,2.88,2.88,0,0,0-.686-1.55,3.09,3.09,0,0,0-2.246-.986,5.919,5.919,0,0,0-.937.12c-.005-.011.071-.052.223-.118a2.461,2.461,0,0,1,.709-.148,3.158,3.158,0,0,1,2.445.952,3.124,3.124,0,0,1,.8,1.682,8.469,8.469,0,0,1,.011,2.107c-.129,1.462-.27,3.057-.418,4.732-.308,3.355-.607,6.39-.842,8.586-.119,1.041-.219,1.912-.3,2.6a4.769,4.769,0,0,1-.16.948" transform="translate(-16.504 -49.331)" fill="#eb996e"/>
            <path id="Trazado_697705" data-name="Trazado 697705" d="M64.681,191.767a7.764,7.764,0,0,0-.974,1.774,29.959,29.959,0,0,0-.915,4.848c-.3,1.921-.585,3.656-.813,4.909a11.3,11.3,0,0,1-.445,2.017,11.326,11.326,0,0,1,.184-2.057c.161-1.264.408-3.005.705-4.926a23.148,23.148,0,0,1,1.037-4.888,4.653,4.653,0,0,1,.8-1.31c.241-.272.413-.381.425-.367" transform="translate(-17.397 -54.23)" fill="#eb996e"/>
            <path id="Trazado_697706" data-name="Trazado 697706" d="M63.1,166.683a2.775,2.775,0,0,1,.191.706c.1.459.225,1.127.361,1.957.275,1.657.574,3.961.765,6.519s.23,4.882.2,6.562c-.014.84-.039,1.519-.071,1.988a2.746,2.746,0,0,1-.085.727,23.9,23.9,0,0,1-.108-2.714c-.039-1.675-.123-3.987-.31-6.535s-.447-4.847-.653-6.509a23.862,23.862,0,0,1-.292-2.7" transform="translate(-17.842 -47.137)" fill="#eb996e"/>
            <path id="Trazado_697707" data-name="Trazado 697707" d="M83.933,195.65a2,2,0,0,1-1.853.157c-1.053-.314-1.543-1.124-1.45-1.164a10.487,10.487,0,0,0,1.559.807,10.446,10.446,0,0,0,1.744.2" transform="translate(-22.798 -55.042)" fill="#eb996e"/>
            <path id="Trazado_697708" data-name="Trazado 697708" d="M44.979,226.171,30.442,232.28H21.781s-8.566,2.673-9.885,10.7-1.506,12.164,2.259,13.156,14.4,1.1,19.676-.646S52.913,242.6,52.913,242.6l1.331-8.061Z" transform="translate(-3.121 -63.96)" fill="#ffbe9d"/>
            <path id="Trazado_697709" data-name="Trazado 697709" d="M61.385,233.341c-.019.017-.164-.118-.413-.379a8.947,8.947,0,0,1-.945-1.2,16.423,16.423,0,0,1-2.03-4.6,27.2,27.2,0,0,1-.9-4.94,9.244,9.244,0,0,1-.057-2.077,14.929,14.929,0,0,1,.318,2.047,36.987,36.987,0,0,0,.993,4.868,19.213,19.213,0,0,0,1.895,4.559c.653,1.086,1.186,1.675,1.134,1.721" transform="translate(-16.123 -62.256)" fill="#eb996e"/>
            <path id="Trazado_697710" data-name="Trazado 697710" d="M69.339,234.246a15,15,0,0,0,.828-3.116,10.04,10.04,0,0,0-1.953-7.295c-.883-1.238-1.876-2.315-2.712-3.358a15.557,15.557,0,0,1-1.965-2.971,7.79,7.79,0,0,1-.729-2.293,2.643,2.643,0,0,1-.025-.881,9.957,9.957,0,0,0,.989,3.054,16.67,16.67,0,0,0,2,2.872c.843,1.021,1.848,2.094,2.751,3.359a10.471,10.471,0,0,1,1.813,3.977,10.137,10.137,0,0,1,.1,3.57,9.212,9.212,0,0,1-.666,2.309,5.209,5.209,0,0,1-.293.583c-.075.129-.119.194-.131.188" transform="translate(-17.749 -60.612)" fill="#eb996e"/>
            <path id="Trazado_697711" data-name="Trazado 697711" d="M38.023,188.144A72.581,72.581,0,0,1,34.48,181.7a72.392,72.392,0,0,1-3.211-6.617,72.515,72.515,0,0,1,3.543,6.446,72.552,72.552,0,0,1,3.21,6.616" transform="translate(-8.842 -49.512)" fill="#fff"/>
            <path id="Trazado_697712" data-name="Trazado 697712" d="M73.464,152.627a45.127,45.127,0,0,1,2.19-5.373,45.1,45.1,0,0,1,2.53-5.222,45.124,45.124,0,0,1-2.19,5.374,45.192,45.192,0,0,1-2.53,5.221" transform="translate(-20.773 -40.166)" fill="#fff"/>
            <path id="Trazado_697713" data-name="Trazado 697713" d="M103.079,177.485a32.761,32.761,0,0,1-3.294-3.686,32.83,32.83,0,0,1-3.007-3.925,32.776,32.776,0,0,1,3.295,3.687,32.764,32.764,0,0,1,3.007,3.925" transform="translate(-27.367 -48.039)" fill="#fff"/>
            <path id="Trazado_697714" data-name="Trazado 697714" d="M98.178,210.194a27.128,27.128,0,0,1,2.482-3.741,27.079,27.079,0,0,1,2.786-3.523,27.076,27.076,0,0,1-2.483,3.742,27.135,27.135,0,0,1-2.785,3.522" transform="translate(-27.763 -57.387)" fill="#fff"/>
            <path id="Trazado_697715" data-name="Trazado 697715" d="M86.487,254.947a6.951,6.951,0,0,1-.842-1.441c-.471-.915-1.082-2.2-1.7-3.645s-1.115-2.777-1.447-3.751a6.962,6.962,0,0,1-.453-1.607,7.941,7.941,0,0,1,.7,1.513l1.544,3.7c.591,1.368,1.127,2.606,1.591,3.679a7.922,7.922,0,0,1,.6,1.553" transform="translate(-23.201 -69.144)" fill="#fff"/>
            <path id="Trazado_697716" data-name="Trazado 697716" d="M113.075,238.84a26.067,26.067,0,0,1-4.354-.653,26.091,26.091,0,0,1-4.283-1.019,26.068,26.068,0,0,1,4.354.653,26.13,26.13,0,0,1,4.283,1.019" transform="translate(-29.534 -67.064)" fill="#fff"/>
            <path id="Trazado_697717" data-name="Trazado 697717" d="M138.383,192.871a53.334,53.334,0,0,1,4.152-4.752,53.326,53.326,0,0,1,4.426-4.5,53.515,53.515,0,0,1-4.153,4.752,53.518,53.518,0,0,1-4.425,4.5" transform="translate(-39.133 -51.926)" fill="#fff"/>
            <path id="Trazado_697718" data-name="Trazado 697718" d="M156.447,249.03c-.08.065-2.4-2.619-5.18-5.994s-4.972-6.167-4.892-6.232,2.4,2.618,5.18,5.994,4.971,6.167,4.891,6.232" transform="translate(-41.393 -66.966)" fill="#fff"/>
            <path id="Trazado_697719" data-name="Trazado 697719" d="M20.33,229.413c.053.1-2.066,1.178-4.375,2.95s-3.916,3.518-4,3.44a5.41,5.41,0,0,1,.976-1.218,23.2,23.2,0,0,1,5.967-4.553,5.431,5.431,0,0,1,1.433-.619" transform="translate(-3.38 -64.875)" fill="#fff"/>
            <path id="Trazado_697720" data-name="Trazado 697720" d="M30.419,207.317a14.912,14.912,0,0,1-1.685,2.87,14.968,14.968,0,0,1-2,2.664,14.915,14.915,0,0,1,1.685-2.87,14.92,14.92,0,0,1,2-2.664" transform="translate(-7.56 -58.627)" fill="#fff"/>
            <path id="Trazado_697721" data-name="Trazado 697721" d="M49.848,226.6a9.481,9.481,0,0,1-1.393-6.13c.111,0,.148,1.416.538,3.1s.955,2.981.855,3.029" transform="translate(-13.675 -62.348)" fill="#fff"/>
            <path id="Trazado_697722" data-name="Trazado 697722" d="M50.988,160.08a10.825,10.825,0,0,1-2.763.582,10.82,10.82,0,0,1-2.816.212,10.753,10.753,0,0,1,2.763-.582,10.815,10.815,0,0,1,2.816-.212" transform="translate(-12.841 -45.258)" fill="#fff"/>
            <path id="Trazado_697723" data-name="Trazado 697723" d="M65.152,135.366a11.206,11.206,0,0,1-2.419,1.554,11.242,11.242,0,0,1-2.6,1.227,11.16,11.16,0,0,1,2.419-1.554,11.126,11.126,0,0,1,2.6-1.227" transform="translate(-17.005 -38.278)" fill="#fff"/>
            <path id="Trazado_697724" data-name="Trazado 697724" d="M104.274,143.1a25.138,25.138,0,0,1-2.766-3.324,25.2,25.2,0,0,1-2.47-3.551,25.049,25.049,0,0,1,2.767,3.324,25.178,25.178,0,0,1,2.469,3.551" transform="translate(-28.006 -38.524)" fill="#fff"/>
            <path id="Trazado_697725" data-name="Trazado 697725" d="M154.4,167.93a17.568,17.568,0,0,1-4.339-6.974c.1-.044.874,1.629,2.073,3.547s2.35,3.355,2.266,3.427" transform="translate(-42.433 -45.517)" fill="#fff"/>
            <path id="Trazado_697726" data-name="Trazado 697726" d="M173.805,176.942a21.5,21.5,0,0,1-1.478,3.71,21.432,21.432,0,0,1-1.819,3.555,42.616,42.616,0,0,1,3.3-7.265" transform="translate(-48.216 -50.038)" fill="#fff"/>
            <path id="Trazado_697727" data-name="Trazado 697727" d="M175.02,147.713a39.678,39.678,0,0,1-3.623-4.062,39.738,39.738,0,0,1-3.336-4.3,39.854,39.854,0,0,1,3.623,4.063,39.82,39.82,0,0,1,3.336,4.3" transform="translate(-47.525 -39.407)" fill="#fff"/>
            <path id="Trazado_697728" data-name="Trazado 697728" d="M148.6,127.2a16.411,16.411,0,0,1-.324-3.476,16.5,16.5,0,0,1,.049-3.491,16.423,16.423,0,0,1,.324,3.476,16.445,16.445,0,0,1-.049,3.49" transform="translate(-41.92 -34.002)" fill="#fff"/>
            <path id="Trazado_697729" data-name="Trazado 697729" d="M168.894,128.625a27.216,27.216,0,0,1-4.428.78,27.242,27.242,0,0,1-4.478.411,27.152,27.152,0,0,1,4.429-.781,27.174,27.174,0,0,1,4.478-.41" transform="translate(-45.244 -36.366)" fill="#fff"/>
            <path id="Trazado_697730" data-name="Trazado 697730" d="M207.695,151.936a44.032,44.032,0,0,1-2.664-5.079,44.168,44.168,0,0,1-2.329-5.242,44.152,44.152,0,0,1,2.665,5.079,44.192,44.192,0,0,1,2.328,5.241" transform="translate(-57.321 -40.048)" fill="#fff"/>
            <path id="Trazado_697731" data-name="Trazado 697731" d="M203.385,176.464a22.95,22.95,0,0,1,.625-4.082,22.923,22.923,0,0,1,.991-4.009,22.959,22.959,0,0,1-.625,4.082,22.948,22.948,0,0,1-.991,4.009" transform="translate(-57.51 -47.615)" fill="#fff"/>
            <path id="Trazado_697732" data-name="Trazado 697732" d="M219.134,193.905a46.648,46.648,0,0,1-2.127-5.511,46.655,46.655,0,0,1-1.774-5.634,46.951,46.951,0,0,1,2.127,5.511,46.771,46.771,0,0,1,1.774,5.634" transform="translate(-60.864 -51.683)" fill="#fff"/>
            <path id="Trazado_697733" data-name="Trazado 697733" d="M215.631,207.774a12.605,12.605,0,0,1-6.687-3.623c.073-.086,1.395,1.007,3.242,2s3.477,1.515,3.445,1.623" transform="translate(-59.087 -57.731)" fill="#fff"/>
            <path id="Trazado_697734" data-name="Trazado 697734" d="M239.523,232.093a20.281,20.281,0,0,1-2.231-5.015,20.211,20.211,0,0,1,2.231,5.015" transform="translate(-67.101 -64.216)" fill="#fff"/>
            <path id="Trazado_697735" data-name="Trazado 697735" d="M109.338,266.227a27.848,27.848,0,0,1-.744-6.395,27.848,27.848,0,0,1,.744,6.395" transform="translate(-30.698 -73.479)" fill="#fff"/>
            <path id="Trazado_697736" data-name="Trazado 697736" d="M177.567,264.612a26.388,26.388,0,0,1,1.3-6.134,26.364,26.364,0,0,1-1.3,6.134" transform="translate(-50.208 -73.096)" fill="#fff"/>
          </g>
        </g>
      </g>
    </g>
  </g>
</svg>
