<svg xmlns="http://www.w3.org/2000/svg" xmlns:xlink="http://www.w3.org/1999/xlink" width="627.899" height="377.645" viewBox="0 0 627.899 377.645">
  <defs>
    <clipPath id="clip-path">
      <rect id="Rectángulo_344031" data-name="Rectángulo 344031" width="0.095" height="0.173" fill="none"/>
    </clipPath>
    <clipPath id="clip-path-2">
      <rect id="Rectángulo_344031-2" data-name="Rectángulo 344031" width="0.095" height="0.173" transform="translate(0)" fill="none"/>
    </clipPath>
    <clipPath id="clip-path-3">
      <rect id="Rectángulo_344028" data-name="Rectángulo 344028" width="78.86" height="140.382" fill="none"/>
    </clipPath>
    <clipPath id="clip-path-4">
      <rect id="Rectángulo_344029" data-name="Rectángulo 344029" width="18.827" height="10.3" fill="none"/>
    </clipPath>
    <clipPath id="clip-path-5">
      <rect id="Rectángulo_344030" data-name="Rectángulo 344030" width="17.684" height="58.835" fill="none"/>
    </clipPath>
    <clipPath id="clip-path-6">
      <rect id="Rectángulo_344033" data-name="Rectángulo 344033" width="11.086" height="68.457" fill="none"/>
    </clipPath>
    <clipPath id="clip-path-7">
      <rect id="Rectángulo_344034" data-name="Rectángulo 344034" width="32.65" height="25.813" fill="none"/>
    </clipPath>
    <clipPath id="clip-path-8">
      <rect id="Rectángulo_344036" data-name="Rectángulo 344036" width="3.965" height="54.817" fill="none"/>
    </clipPath>
    <clipPath id="clip-path-9">
      <rect id="Rectángulo_344037" data-name="Rectángulo 344037" width="15.567" height="23.186" fill="none"/>
    </clipPath>
    <clipPath id="clip-path-10">
      <rect id="Rectángulo_344035" data-name="Rectángulo 344035" width="30.333" height="23.833" fill="none"/>
    </clipPath>
    <clipPath id="clip-path-11">
      <rect id="Rectángulo_344032" data-name="Rectángulo 344032" width="0.008" height="0.138" fill="none"/>
    </clipPath>
    <filter id="Trazado_691541" x="438.976" y="94.115" width="109.023" height="110.372" filterUnits="userSpaceOnUse">
      <feOffset dy="3" input="SourceAlpha"/>
      <feGaussianBlur stdDeviation="3" result="blur"/>
      <feFlood flood-opacity="0.161"/>
      <feComposite operator="in" in2="blur"/>
      <feComposite in="SourceGraphic"/>
    </filter>
    <filter id="Trazado_691542" x="545.374" y="68.321" width="82.525" height="83.482" filterUnits="userSpaceOnUse">
      <feOffset dy="3" input="SourceAlpha"/>
      <feGaussianBlur stdDeviation="3" result="blur-2"/>
      <feFlood flood-opacity="0.161"/>
      <feComposite operator="in" in2="blur-2"/>
      <feComposite in="SourceGraphic"/>
    </filter>
    <filter id="Trazado_691543" x="423.483" y="10.636" width="76.334" height="77.199" filterUnits="userSpaceOnUse">
      <feOffset dy="3" input="SourceAlpha"/>
      <feGaussianBlur stdDeviation="3" result="blur-3"/>
      <feFlood flood-opacity="0.161"/>
      <feComposite operator="in" in2="blur-3"/>
      <feComposite in="SourceGraphic"/>
    </filter>
    <filter id="Trazado_691542-2" x="0" y="68.304" width="82.525" height="83.482" filterUnits="userSpaceOnUse">
      <feOffset dy="3" input="SourceAlpha"/>
      <feGaussianBlur stdDeviation="3" result="blur-4"/>
      <feFlood flood-opacity="0.161"/>
      <feComposite operator="in" in2="blur-4"/>
      <feComposite in="SourceGraphic"/>
    </filter>
    <filter id="Trazado_691543-2" x="127.981" y="10.635" width="76.334" height="77.199" filterUnits="userSpaceOnUse">
      <feOffset dy="3" input="SourceAlpha"/>
      <feGaussianBlur stdDeviation="3" result="blur-5"/>
      <feFlood flood-opacity="0.161"/>
      <feComposite operator="in" in2="blur-5"/>
      <feComposite in="SourceGraphic"/>
    </filter>
    <clipPath id="clip-path-12">
      <path id="Trazado_697747" data-name="Trazado 697747" d="M0,0H53.631V59.133H0Z" transform="translate(355 2579.261)" fill="#fff" stroke="#707070" stroke-width="1" opacity="0.45"/>
    </clipPath>
    <clipPath id="clip-path-13">
      <rect id="Rectángulo_344735" data-name="Rectángulo 344735" width="57.701" height="75.666" transform="translate(0 -2)" fill="none"/>
    </clipPath>
    <clipPath id="clip-path-14">
      <rect id="Rectángulo_344734" data-name="Rectángulo 344734" width="57.7" height="76.666" transform="translate(0 -3)" fill="none"/>
    </clipPath>
  </defs>
  <g id="Grupo_952293" data-name="Grupo 952293" transform="translate(-276.101 -2532.305)">
    <g id="Grupo_952273" data-name="Grupo 952273" transform="translate(126.059 0.001)">
      <rect id="Rectángulo_343993" data-name="Rectángulo 343993" width="123.185" height="25.71" transform="translate(628.756 2870.319)" fill="#f0f2f5"/>
      <rect id="Rectángulo_343994" data-name="Rectángulo 343994" width="2.518" height="25.71" transform="translate(639.109 2870.319)" fill="#fff"/>
      <rect id="Rectángulo_343995" data-name="Rectángulo 343995" width="123.808" height="13.92" transform="translate(619.997 2896.029)" fill="#e1e6eb"/>
      <rect id="Rectángulo_343996" data-name="Rectángulo 343996" width="7.735" height="13.92" transform="translate(708.921 2896.029)" fill="#fff"/>
      <rect id="Rectángulo_343997" data-name="Rectángulo 343997" width="3.868" height="13.92" transform="translate(700.488 2896.029)" fill="#fff"/>
      <rect id="Rectángulo_343998" data-name="Rectángulo 343998" width="131.156" height="9.375" transform="translate(612.648 2840.146)" fill="#f0f2f5"/>
      <rect id="Rectángulo_343999" data-name="Rectángulo 343999" width="111.09" height="20.798" transform="translate(623.955 2849.521)" fill="#f0f2f5"/>
      <rect id="Rectángulo_344000" data-name="Rectángulo 344000" width="50.869" height="2.8" transform="translate(619.997 2867.52)" fill="#e1e6eb"/>
      <rect id="Rectángulo_344001" data-name="Rectángulo 344001" width="50.869" height="2.8" transform="translate(619.997 2849.521)" fill="#e1e6eb"/>
      <rect id="Rectángulo_344002" data-name="Rectángulo 344002" width="66.979" height="20.798" transform="translate(670.866 2849.521)" fill="#e1e6eb"/>
      <rect id="Rectángulo_344004" data-name="Rectángulo 344004" width="63.518" height="14.394" transform="translate(678.7 2825.753)" fill="#f0f2f5"/>
      <rect id="Rectángulo_344006" data-name="Rectángulo 344006" width="52.245" height="1.736" transform="translate(691.56 2825.753)" fill="#e1e6eb"/>
      <rect id="Rectángulo_344007" data-name="Rectángulo 344007" width="52.245" height="1.736" transform="translate(691.56 2838.411)" fill="#e1e6eb"/>
      <path id="Trazado_691544" data-name="Trazado 691544" d="M1820.283,1530.2v4.292l-115.049-4.292Z" transform="translate(-1076.479 1309.947)" fill="#d2d9e1"/>
      <path id="Trazado_691545" data-name="Trazado 691545" d="M1705.235,1664.188v9.375l109.089-9.375Z" transform="translate(-1076.479 1206.132)" fill="#d2d9e1"/>
    </g>
    <g id="Grupo_952279" data-name="Grupo 952279" transform="translate(600 2825.754)">
      <rect id="Rectángulo_343993-2" data-name="Rectángulo 343993" width="123.185" height="25.71" transform="translate(0 44.566)" fill="#f0f2f5"/>
      <rect id="Rectángulo_343994-2" data-name="Rectángulo 343994" width="2.518" height="25.71" transform="translate(110.314 44.566)" fill="#fff"/>
      <rect id="Rectángulo_343995-2" data-name="Rectángulo 343995" width="123.808" height="13.92" transform="translate(8.137 70.276)" fill="#e1e6eb"/>
      <rect id="Rectángulo_343996-2" data-name="Rectángulo 343996" width="7.735" height="13.92" transform="translate(35.285 70.276)" fill="#fff"/>
      <rect id="Rectángulo_343997-2" data-name="Rectángulo 343997" width="3.868" height="13.92" transform="translate(47.586 70.276)" fill="#fff"/>
      <rect id="Rectángulo_343998-2" data-name="Rectángulo 343998" width="131.156" height="9.375" transform="translate(8.137 14.394)" fill="#f0f2f5"/>
      <rect id="Rectángulo_343999-2" data-name="Rectángulo 343999" width="111.09" height="20.798" transform="translate(16.896 23.768)" fill="#f0f2f5"/>
      <rect id="Rectángulo_344000-2" data-name="Rectángulo 344000" width="50.869" height="2.8" transform="translate(81.075 41.766)" fill="#e1e6eb"/>
      <rect id="Rectángulo_344001-2" data-name="Rectángulo 344001" width="50.869" height="2.8" transform="translate(81.075 23.768)" fill="#e1e6eb"/>
      <rect id="Rectángulo_344002-2" data-name="Rectángulo 344002" width="66.979" height="20.798" transform="translate(14.096 23.768)" fill="#e1e6eb"/>
      <rect id="Rectángulo_344004-2" data-name="Rectángulo 344004" width="63.518" height="14.394" transform="translate(9.724 0)" fill="#f0f2f5"/>
      <rect id="Rectángulo_344006-2" data-name="Rectángulo 344006" width="52.245" height="1.736" transform="translate(8.136 0)" fill="#e1e6eb"/>
      <rect id="Rectángulo_344007-2" data-name="Rectángulo 344007" width="52.245" height="1.736" transform="translate(8.136 12.658)" fill="#e1e6eb"/>
      <path id="Trazado_691544-2" data-name="Trazado 691544" d="M1705.235,1530.2v4.292l115.048-4.292Z" transform="translate(-1697.098 -1515.806)" fill="#d2d9e1"/>
      <path id="Trazado_691545-2" data-name="Trazado 691545" d="M1814.324,1664.188v9.375l-109.089-9.375Z" transform="translate(-1691.139 -1619.621)" fill="#d2d9e1"/>
    </g>
    <g id="Grupo_952280" data-name="Grupo 952280" transform="translate(10)">
      <rect id="Rectángulo_344010" data-name="Rectángulo 344010" width="123.185" height="25.71" transform="translate(286.22 2869.982)" fill="#f0f2f5"/>
      <rect id="Rectángulo_344012" data-name="Rectángulo 344012" width="123.808" height="13.92" transform="translate(294.357 2895.692)" fill="#e1e6eb"/>
      <rect id="Rectángulo_344013" data-name="Rectángulo 344013" width="7.735" height="13.92" transform="translate(321.505 2895.692)" fill="#fff"/>
      <rect id="Rectángulo_344014" data-name="Rectángulo 344014" width="3.868" height="13.92" transform="translate(333.806 2895.692)" fill="#fff"/>
      <rect id="Rectángulo_344015" data-name="Rectángulo 344015" width="131.156" height="9.375" transform="translate(294.357 2839.81)" fill="#f0f2f5"/>
      <rect id="Rectángulo_344016" data-name="Rectángulo 344016" width="111.09" height="20.798" transform="translate(303.116 2849.185)" fill="#f0f2f5"/>
      <rect id="Rectángulo_344017" data-name="Rectángulo 344017" width="50.869" height="2.8" transform="translate(367.295 2867.183)" fill="#e1e6eb"/>
      <rect id="Rectángulo_344018" data-name="Rectángulo 344018" width="50.869" height="2.8" transform="translate(367.295 2849.185)" fill="#e1e6eb"/>
      <rect id="Rectángulo_344019" data-name="Rectángulo 344019" width="66.979" height="20.798" transform="translate(300.316 2849.185)" fill="#e1e6eb"/>
      <rect id="Rectángulo_344020" data-name="Rectángulo 344020" width="5.946" height="15.198" transform="translate(352.715 2851.985)" fill="#fff"/>
      <rect id="Rectángulo_344021" data-name="Rectángulo 344021" width="63.518" height="14.394" transform="translate(295.944 2825.416)" fill="#f0f2f5"/>
      <rect id="Rectángulo_344022" data-name="Rectángulo 344022" width="62.803" height="14.394" transform="translate(346.602 2825.416)" fill="#e1e6eb"/>
      <rect id="Rectángulo_344023" data-name="Rectángulo 344023" width="52.245" height="1.736" transform="translate(294.357 2825.416)" fill="#e1e6eb"/>
      <rect id="Rectángulo_344024" data-name="Rectángulo 344024" width="52.245" height="1.736" transform="translate(294.357 2838.074)" fill="#e1e6eb"/>
      <rect id="Rectángulo_344025" data-name="Rectángulo 344025" width="0.81" height="14.394" transform="translate(393.418 2825.416)" fill="#fff"/>
      <path id="Trazado_691546" data-name="Trazado 691546" d="M383.871,1530.2v4.292L498.92,1530.2Z" transform="translate(-89.514 1309.61)" fill="#d2d9e1"/>
      <path id="Trazado_691547" data-name="Trazado 691547" d="M519.423,1664.188v9.375l-109.089-9.375Z" transform="translate(-110.018 1205.795)" fill="#d2d9e1"/>
      <g id="Grupo_895597" data-name="Grupo 895597" transform="translate(395.314 2853.63)" clip-path="url(#clip-path)">
        <path id="Trazado_691552" data-name="Trazado 691552" d="M832.285,1591.572c-.032.057-.063.115-.095.173,0,0,.034-.059.095-.173" transform="translate(-832.19 -1591.572)" fill="#a65b3c"/>
      </g>
    </g>
    <g id="Grupo_952281" data-name="Grupo 952281" transform="translate(440.707 2825.416)">
      <rect id="Rectángulo_344010-2" data-name="Rectángulo 344010" width="123.185" height="25.71" transform="translate(16.108 44.566)" fill="#f0f2f5"/>
      <rect id="Rectángulo_344012-2" data-name="Rectángulo 344012" width="123.808" height="13.92" transform="translate(7.349 70.276)" fill="#e1e6eb"/>
      <rect id="Rectángulo_344013-2" data-name="Rectángulo 344013" width="7.735" height="13.92" transform="translate(96.273 70.276)" fill="#fff"/>
      <rect id="Rectángulo_344014-2" data-name="Rectángulo 344014" width="3.868" height="13.92" transform="translate(87.84 70.276)" fill="#fff"/>
      <rect id="Rectángulo_344015-2" data-name="Rectángulo 344015" width="131.156" height="9.375" transform="translate(0 14.394)" fill="#f0f2f5"/>
      <rect id="Rectángulo_344016-2" data-name="Rectángulo 344016" width="111.09" height="20.798" transform="translate(11.307 23.768)" fill="#f0f2f5"/>
      <rect id="Rectángulo_344017-2" data-name="Rectángulo 344017" width="50.869" height="2.8" transform="translate(7.349 41.766)" fill="#e1e6eb"/>
      <rect id="Rectángulo_344018-2" data-name="Rectángulo 344018" width="50.869" height="2.8" transform="translate(7.349 23.768)" fill="#e1e6eb"/>
      <rect id="Rectángulo_344019-2" data-name="Rectángulo 344019" width="66.979" height="20.798" transform="translate(58.218 23.768)" fill="#e1e6eb"/>
      <rect id="Rectángulo_344020-2" data-name="Rectángulo 344020" width="5.946" height="15.198" transform="translate(66.852 26.569)" fill="#fff"/>
      <rect id="Rectángulo_344021-2" data-name="Rectángulo 344021" width="63.518" height="14.394" transform="translate(66.052 0)" fill="#f0f2f5"/>
      <rect id="Rectángulo_344022-2" data-name="Rectángulo 344022" width="62.803" height="14.394" transform="translate(16.108 0)" fill="#e1e6eb"/>
      <rect id="Rectángulo_344023-2" data-name="Rectángulo 344023" width="52.245" height="1.736" transform="translate(78.912 0)" fill="#e1e6eb"/>
      <rect id="Rectángulo_344024-2" data-name="Rectángulo 344024" width="52.245" height="1.736" transform="translate(78.912 12.658)" fill="#e1e6eb"/>
      <rect id="Rectángulo_344025-2" data-name="Rectángulo 344025" width="0.81" height="14.394" transform="translate(31.286 0)" fill="#fff"/>
      <path id="Trazado_691546-2" data-name="Trazado 691546" d="M498.92,1530.2v4.292L383.871,1530.2Z" transform="translate(-367.763 -1515.806)" fill="#d2d9e1"/>
      <path id="Trazado_691547-2" data-name="Trazado 691547" d="M410.334,1664.188v9.375l109.089-9.375Z" transform="translate(-394.226 -1619.621)" fill="#d2d9e1"/>
      <g id="Grupo_895597-2" data-name="Grupo 895597" transform="translate(30.104 28.214)" clip-path="url(#clip-path-2)">
        <path id="Trazado_691552-2" data-name="Trazado 691552" d="M832.19,1591.572c.032.057.063.115.095.173,0,0-.034-.059-.095-.173" transform="translate(-832.19 -1591.572)" fill="#a65b3c"/>
      </g>
    </g>
    <path id="Trazado_697737" data-name="Trazado 697737" d="M0,0H577.3V.676H0Z" transform="translate(301.533 2909.274)" fill="#1b1a2e"/>
    <g id="Grupo_952276" data-name="Grupo 952276" transform="translate(41.162 -28.937)">
      <rect id="Rectángulo_344003" data-name="Rectángulo 344003" width="6.44" height="16.459" transform="translate(708.35 2876.477)" fill="#fff"/>
      <rect id="Rectángulo_344005" data-name="Rectángulo 344005" width="68.015" height="15.588" transform="translate(653.395 2847.703)" fill="#e1e6eb"/>
      <rect id="Rectángulo_344008" data-name="Rectángulo 344008" width="0.877" height="15.588" transform="translate(669.832 2847.703)" fill="#fff"/>
      <rect id="Rectángulo_344009" data-name="Rectángulo 344009" width="0.877" height="15.588" transform="translate(663.97 2847.703)" fill="#fff"/>
      <rect id="Rectángulo_344011" data-name="Rectángulo 344011" width="2.727" height="27.843" transform="translate(441.8 2895.967)" fill="#fff"/>
      <rect id="Rectángulo_344026" data-name="Rectángulo 344026" width="0.877" height="15.588" transform="translate(444.287 2847.703)" fill="#fff"/>
      <path id="Trazado_691548" data-name="Trazado 691548" d="M873.616,1129.7s-.94,19.983-23.743,14.106c0,0-32.041,4.107-60.237-31.938,0,0,0,0,0,0s-.009-.009-.016-.018a141.979,141.979,0,0,1-17.668-30.105s-2.2,27.245-10.706,45.844v35.609H572.507v-35.651s-9.068-32.1-8.18-62.973c0-.069,0-.12,0-.155-.066,1.126-1.353,20.679-11.186,38.338a.017.017,0,0,0,0,.006c-4.56,8.186-10.957,15.966-19.921,21.312,0,0-18.121,34.723-44.855,30.55-20.888-3.262-29.739-35.023-23-59.557l-.14-12a19.257,19.257,0,0,1,6.2-14.377l14.7-13.555,24.941-43.156,13.759,6.282,31.55-51.307a14.664,14.664,0,0,1,10.075-6.784l38.707-6.471,1.951-.326,3.2-3.94a12.4,12.4,0,0,1,11.359-4.466l32.447,4.557,10.8,1.516,42.72-5.94a12.188,12.188,0,0,1,12.313,6.118c.093.165.182.333.269.5l1.529,3.053.265.531.133.266,3.964.569,40.556,5.813a17.757,17.757,0,0,1,11.808,7.086l28.948,39.549,9.108-4.9a6.306,6.306,0,0,1,8.091,1.856L845.233,1034a14.175,14.175,0,0,1,2.558,10.286l-.5,3.6s32.443,35.736,26.33,81.814" transform="translate(-112.667 1775.698)" fill="#f9a21b"/>
      <g id="Grupo_895588" data-name="Grupo 895588" transform="translate(481.684 2720.535)" clip-path="url(#clip-path-3)">
        <path id="Trazado_691549" data-name="Trazado 691549" d="M1069.8,998.731a43.661,43.661,0,0,0,5.111-7.049,37.91,37.91,0,0,0,3.613-8.04,28.058,28.058,0,0,0,.963-4.362,27.778,27.778,0,0,0,.284-4.491,19.864,19.864,0,0,0-2.215-8.64,35.649,35.649,0,0,0-4.966-7.237,43.648,43.648,0,0,0-6.433-5.908c-1.7-1.247-3.455-2.4-5.246-3.489l-32.448-4.557a12.4,12.4,0,0,0-11.359,4.466l-3.2,3.94-1.951.327a21.951,21.951,0,0,0,3.691.918c-12.515,10.824-10.935,23.45-10.935,23.45-13.824,27.647,16.875,22.2,19.481,21.7a18.948,18.948,0,0,0-1.773,3.489,25.286,25.286,0,0,0-1.751,7.882,16.44,16.44,0,0,0,.251,4.093,22.416,22.416,0,0,0,3.14,7.5,19.917,19.917,0,0,0,2.458,3.2,14.58,14.58,0,0,0,3.237,2.551,14.32,14.32,0,0,0,3.882,1.531,21.811,21.811,0,0,0,4.093.511,43.274,43.274,0,0,0,8.013-.487c4.964-.749,9.684-1.871,14.65-2.162-3.675,17.439-20.359,16.268-27.614,27.012s3.08,19.6,3.08,19.6a15.324,15.324,0,0,1,.191-7.637c-.956,7.351,4.008,9.164,4.008,9.164a17.691,17.691,0,0,1,.287-6.778c1.909,12.408,9.546,11.36,9.546,11.36-2.578-3.531-2.2-11.36-2.2-11.36,2.578,19.188,16.9,15.75,16.9,15.75a11.224,11.224,0,0,1-2.482-2.386c10.882,4.964,12.751-7.711,12.751-7.711-7.207,4.786-10.158,1.935-11.306-2.113a14.412,14.412,0,0,1,2.884-12.95c8.762-10.791,6.737-20.7,6.737-20.7,16.833-22.513-2.735-38.923-2.735-38.923Zm-35.785,29.078a15.493,15.493,0,0,1-3.6-.756,10.282,10.282,0,0,1-5.64-4.764,12.127,12.127,0,0,1-1.3-3.571,23,23,0,0,1-.378-3.751c-.018-.644-.031-1.291-.034-1.94.647,7.306,4.115,14.244,14.264,14.913a25.225,25.225,0,0,1-3.313-.131m36.043-69.3c.564.418,1.147.827,1.687,1.271a14.493,14.493,0,0,1,4.76,6.8,22.318,22.318,0,0,1,.834,8.164,35.5,35.5,0,0,1-1.591,8.057c-.758,2.538-1.662,5.062-2.677,7.571,2.575-8.3,4.4-21.406-4.015-32.549.333.226.667.455,1,.682" transform="translate(-1001.15 -944.838)" fill="#a65b3c"/>
      </g>
      <g id="Grupo_895591" data-name="Grupo 895591" transform="translate(573.936 2764.894)" clip-path="url(#clip-path-4)">
        <path id="Trazado_691550" data-name="Trazado 691550" d="M1379.425,1137.03l4.7-5.054,1.55-1.455s3.4-4.2,5.728-3.759a3.56,3.56,0,0,1,2.837,2.381s1.081,2.091,1.877,3.485a20.61,20.61,0,0,0,2.129,2.89s-8.307-8.407-18.825,1.512" transform="translate(-1379.424 -1126.729)" fill="#a65b3c"/>
      </g>
      <g id="Grupo_895594" data-name="Grupo 895594" transform="translate(659.281 2828.721)" clip-path="url(#clip-path-5)">
        <path id="Trazado_691551" data-name="Trazado 691551" d="M1747.055,1447.284s-.008-.009-.015-.018a142,142,0,0,1-17.668-30.106s1.042-14.543,1.5-28.712c.46,15.424,3.351,40.8,16.188,58.835" transform="translate(-1729.372 -1388.449)" fill="#a65b3c"/>
      </g>
      <g id="Grupo_895603" data-name="Grupo 895603" transform="translate(440.581 2809.802)" clip-path="url(#clip-path-6)">
        <path id="Trazado_691554" data-name="Trazado 691554" d="M843.7,1341.125c0-11.212-.276-22.248-.542-30.255.931,45.761-9.407,66.338-10.544,68.457,9.738-17.61,11.017-37.028,11.084-38.151,0-.033,0-.051,0-.051" transform="translate(-832.611 -1310.87)" fill="#a65b3c"/>
      </g>
      <g id="Grupo_895606" data-name="Grupo 895606" transform="translate(701.201 2825.323)" clip-path="url(#clip-path-7)">
        <path id="Trazado_691555" data-name="Trazado 691555" d="M1933.913,1374.517s-7.618,18.666-32.65,25.813c0,0,4.679-.943,10.163-2.382a27.657,27.657,0,0,0,16.872-12.818,112.116,112.116,0,0,0,5.615-10.613" transform="translate(-1901.262 -1374.517)" fill="#a65b3c"/>
      </g>
      <g id="Grupo_895612" data-name="Grupo 895612" transform="translate(570.468 2884.069)" clip-path="url(#clip-path-8)">
        <path id="Trazado_691557" data-name="Trazado 691557" d="M1365.2,1670.218s1.861-34.2.722-54.817l3.245,54.817Z" transform="translate(-1365.198 -1615.4)" fill="#a65b3c"/>
      </g>
      <g id="Grupo_895615" data-name="Grupo 895615" transform="translate(692.531 2883.089)" clip-path="url(#clip-path-9)">
        <path id="Trazado_691558" data-name="Trazado 691558" d="M1865.713,1611.38s5.81,15.221,15.566,23.186l-4.951-3.18a18.241,18.241,0,0,1-7.6-10.056Z" transform="translate(-1865.712 -1611.38)" fill="#a65b3c"/>
      </g>
      <path id="Trazado_691559" data-name="Trazado 691559" d="M1761.52,1302.706c.3,2,.671,3.984,1.085,5.96.2.989.429,1.973.642,2.96l.708,2.944q1.477,5.874,3.438,11.609l.491,1.432c.163.477.324.956.509,1.425l1.074,2.831c.172.475.374.937.569,1.4l.587,1.4.587,1.4c.193.466.419.917.627,1.377l1.273,2.747,1.388,2.691.691,1.348.755,1.313,1.513,2.625-1.565-2.6-.781-1.3-.718-1.335c-.474-.893-.955-1.782-1.421-2.679l-1.306-2.737c-.214-.458-.445-.908-.643-1.373l-.593-1.4-.593-1.4c-.2-.466-.4-.928-.576-1.4l-1.087-2.832c-.187-.47-.349-.948-.515-1.426l-.5-1.433c-1.294-3.83-2.442-7.712-3.389-11.643a114.546,114.546,0,0,1-2.254-11.909" transform="translate(-1094.399 1505.104)" fill="#a65b3c"/>
      <path id="Trazado_691560" data-name="Trazado 691560" d="M1833.25,1506.681c.466,2.242,1.023,4.463,1.618,6.673s1.229,4.41,1.921,6.591a130.867,130.867,0,0,0,4.771,12.863c.906,2.1,1.873,4.174,2.935,6.2s2.183,4.02,3.421,5.942a52.88,52.88,0,0,0,4.027,5.547,40.657,40.657,0,0,0,4.79,4.9,40.7,40.7,0,0,1-4.881-4.827,52.774,52.774,0,0,1-4.093-5.522,68.2,68.2,0,0,1-3.46-5.941c-1.071-2.028-2.047-4.1-2.961-6.205s-1.757-4.235-2.538-6.389-1.52-4.324-2.188-6.516a129.465,129.465,0,0,1-3.361-13.319" transform="translate(-1148.635 1350.875)" fill="#a65b3c"/>
      <path id="Trazado_691561" data-name="Trazado 691561" d="M1865.334,1610.544c.036.757.076,1.512.139,2.267s.121,1.508.2,2.26c.156,1.5.342,3.005.589,4.5.22,1.5.536,2.975.875,4.447l.272,1.1c.091.367.207.727.308,1.091.186.734.454,1.442.675,2.167a34.749,34.749,0,0,1-1.437-4.314c-.377-1.469-.694-2.955-.933-4.454s-.419-3.006-.535-4.518-.182-3.028-.151-4.544" transform="translate(-1172.889 1272.341)" fill="#a65b3c"/>
      <path id="Trazado_691562" data-name="Trazado 691562" d="M1885.048,1374.517a35.888,35.888,0,0,1-3.707,6.348,48.965,48.965,0,0,1-4.759,5.618,52.424,52.424,0,0,1-11.727,8.863,58.827,58.827,0,0,1-13.678,5.4c-.6.149-1.188.313-1.786.45l-1.8.377-.9.188c-.3.061-.605.1-.908.154l-1.817.3c-.6.109-1.217.16-1.826.234l-1.829.209c-1.223.105-2.447.179-3.67.27,1.222-.111,2.445-.2,3.664-.329l1.823-.239c.607-.085,1.217-.146,1.819-.264l1.811-.313c.3-.054.6-.1.9-.162l.9-.2,1.8-.392c.6-.142,1.185-.311,1.777-.465,1.19-.292,2.351-.683,3.522-1.042l.438-.137.432-.156.863-.312c.573-.215,1.158-.4,1.719-.646l1.7-.7c.565-.235,1.112-.512,1.668-.765l.832-.388c.274-.137.543-.282.815-.422.54-.287,1.09-.557,1.622-.859a52.956,52.956,0,0,0,11.713-8.781,49.091,49.091,0,0,0,4.8-5.557,35.784,35.784,0,0,0,3.8-6.277" transform="translate(-1151.196 1450.806)" fill="#a65b3c"/>
      <path id="Trazado_691563" data-name="Trazado 691563" d="M1730.626,1232.159c.136,2.783.238,5.568.323,8.354l.095,4.179.064,4.18q.1,8.36-.016,16.722-.141,8.36-.558,16.713l-.217,4.175-.27,4.172-.146,2.085-.175,2.083-.354,4.165.295-4.17.146-2.085.116-2.086.247-4.172.2-4.174q.363-8.351.477-16.709.155-8.357.1-16.716l-.044-4.18-.072-4.179c-.046-2.786-.108-5.572-.2-8.357" transform="translate(-1070.091 1558.446)" fill="#a65b3c"/>
      <path id="Trazado_691564" data-name="Trazado 691564" d="M1322.991,1389.489c.2-3.053.328-6.11.461-9.166s.224-6.114.309-9.172.129-6.116.158-9.175l.04-4.588.014-4.589c-.008-12.235-.383-24.475-1.307-36.678s-2.284-24.372-4.359-36.429c-.236-1.511-.547-3.009-.823-4.513s-.559-3.007-.885-4.5-.619-3-.948-4.488l-1.055-4.464c-1.477-5.935-3.183-11.814-5.2-17.591l.023-.008a206.8,206.8,0,0,1,9.125,35.524l.752,4.529.668,4.542c.232,1.513.421,3.032.613,4.549s.4,3.034.561,4.556l.5,4.563.43,4.57c.151,1.523.267,3.048.386,4.574s.253,3.049.344,4.577c.452,6.1.708,12.219.957,18.333s.372,12.234.4,18.354c.01,3.06.019,6.12-.028,9.18s-.114,6.119-.2,9.177c-.19,6.117-.448,12.233-.913,18.335Z" transform="translate(-752.536 1549.396)" fill="#a65b3c"/>
      <path id="Trazado_691565" data-name="Trazado 691565" d="M1272.21,1386.75c-.022-3.061-.086-6.122-.135-9.183s-.119-6.121-.193-9.181-.166-6.12-.264-9.18l-.3-9.179q-.323-9.178-.782-18.351c-.3-6.115-.706-12.225-1.146-18.331s-.955-12.207-1.523-18.3-1.186-12.186-1.925-18.263-1.521-12.149-2.469-18.2-2.008-12.078-3.259-18.072l.024-.005c1.332,5.977,2.432,12,3.41,18.05s1.81,12.115,2.53,18.2c1.451,12.162,2.531,24.366,3.345,36.585.214,3.054.4,6.11.587,9.166l.518,9.17q.508,9.171.875,18.349c.115,3.059.239,6.119.321,9.179s.158,6.121.221,9.182c.123,6.122.213,12.245.186,18.369Z" transform="translate(-715.353 1552.137)" fill="#a65b3c"/>
      <path id="Trazado_691566" data-name="Trazado 691566" d="M1070.266,1041.651c-.12-2.422-.358-4.837-.627-7.246-.149-1.2-.286-2.407-.453-3.608l-.259-1.8c-.086-.6-.169-1.2-.274-1.8-.2-1.194-.386-2.393-.6-3.585l-.669-3.573-.758-3.556-.189-.889-.214-.883-.428-1.767-.423-1.768c-.145-.588-.313-1.171-.468-1.756-.319-1.169-.626-2.341-.955-3.507l-1.061-3.477c-.183-.578-.34-1.163-.544-1.734l-.585-1.721-.585-1.721-.293-.86c-.094-.288-.2-.574-.308-.855l-1.3-3.4c-.22-.565-.419-1.138-.655-1.7l-.714-1.672-1.428-3.346a138.991,138.991,0,0,1,5.46,13.486l.6,1.718c.207.571.365,1.157.551,1.735l1.073,3.478c.333,1.167.644,2.34.967,3.509.157.586.327,1.169.474,1.757l.428,1.769.423,1.771.211.885.187.891.748,3.563.658,3.58c.216,1.194.387,2.4.58,3.593.1.6.177,1.2.257,1.8l.243,1.8c.156,1.2.283,2.41.419,3.615.23,2.415.428,4.834.509,7.258" transform="translate(-561.299 1744.997)" fill="#a65b3c"/>
      <path id="Trazado_691567" data-name="Trazado 691567" d="M1113.022,1158.712c1.222-.371,2.422-.812,3.6-1.3s2.341-1.013,3.478-1.59a43.331,43.331,0,0,0,6.5-4c.516-.373,1.01-.775,1.508-1.171.483-.415.975-.819,1.436-1.258.476-.423.917-.882,1.37-1.329.428-.471.877-.924,1.282-1.415a28.337,28.337,0,0,0,4.154-6.394l-.4.873-.2.436-.224.424c-.15.282-.3.567-.45.847l-.493.824a26.986,26.986,0,0,1-2.248,3.111c-.4.5-.843.965-1.273,1.44-.453.453-.895.918-1.371,1.346-.462.445-.955.855-1.439,1.275-.5.4-.993.81-1.511,1.188a41.771,41.771,0,0,1-6.567,3.969,40.285,40.285,0,0,1-7.161,2.724" transform="translate(-604.055 1627.937)" fill="#a65b3c"/>
      <path id="Trazado_691568" data-name="Trazado 691568" d="M1208.693,1140.256a37.9,37.9,0,0,1,7.836,4.438c1.225.875,2.4,1.821,3.534,2.81s2.228,2.028,3.267,3.118,2.033,2.224,2.966,3.4,1.828,2.393,2.66,3.648c.407.633.823,1.26,1.2,1.911.192.323.39.643.577.97l.546.987c.372.654.69,1.336,1.034,2s.634,1.363.949,2.045a60.341,60.341,0,0,0-4.463-7.813c-.2-.316-.431-.614-.646-.921s-.427-.617-.656-.914c-.452-.6-.9-1.2-1.376-1.779-.463-.59-.958-1.153-1.445-1.722-.247-.281-.5-.555-.754-.833s-.508-.551-.769-.819a51.236,51.236,0,0,0-6.735-5.945q-1.807-1.339-3.739-2.5a33.161,33.161,0,0,0-3.987-2.087" transform="translate(-676.394 1627.937)" fill="#a65b3c"/>
      <path id="Trazado_691569" data-name="Trazado 691569" d="M1527.76,1043.326c.351-1.1.628-2.219.881-3.343s.469-2.257.659-3.394q.579-3.407.864-6.856a95.8,95.8,0,0,0,.136-13.809,104.812,104.812,0,0,0-1.741-13.7l-.334-1.7c-.116-.564-.248-1.125-.372-1.688-.239-1.128-.529-2.243-.809-3.361l-.209-.839-.23-.833-.459-1.667c-.318-1.108-.667-2.207-1-3.312.351,1.1.719,2.192,1.056,3.295l.489,1.66.245.83.224.836c.294,1.116.592,2.23.843,3.357.13.563.267,1.123.39,1.687l.35,1.7.175.848.153.852.3,1.7.261,1.712c.088.57.174,1.141.24,1.715l.216,1.718.176,1.723c.063.574.11,1.149.151,1.725s.1,1.151.125,1.727a93.262,93.262,0,0,1-.193,13.841q-.317,3.449-.933,6.86c-.209,1.135-.445,2.265-.718,3.386s-.569,2.237-.939,3.329" transform="translate(-915.671 1742.437)" fill="#a65b3c"/>
      <path id="Trazado_691570" data-name="Trazado 691570" d="M1463.524,1155.081a40.306,40.306,0,0,1-7.161-2.724,41.724,41.724,0,0,1-6.567-3.969c-.518-.378-1.011-.786-1.511-1.187-.484-.42-.977-.83-1.439-1.274-.477-.429-.918-.893-1.371-1.346-.431-.475-.875-.937-1.273-1.44a27.047,27.047,0,0,1-2.248-3.112l-.492-.824c-.154-.28-.3-.565-.45-.847l-.224-.424-.2-.436-.4-.873a28.345,28.345,0,0,0,4.154,6.394c.4.492.854.944,1.282,1.415.453.447.894.906,1.37,1.33.461.439.953.843,1.436,1.258.5.4.992.8,1.508,1.171a43.342,43.342,0,0,0,6.5,4q1.705.865,3.479,1.59c1.178.489,2.377.93,3.6,1.3" transform="translate(-851.435 1630.682)" fill="#a65b3c"/>
      <path id="Trazado_691571" data-name="Trazado 691571" d="M1413.635,1128.9a4.833,4.833,0,0,0-.73-1.146,3.285,3.285,0,0,0-1.037-.835,2.752,2.752,0,0,0-1.275-.288,3.573,3.573,0,0,0-1.289.3,8.35,8.35,0,0,0-2.268,1.452c-.177.141-.345.3-.512.45s-.334.309-.494.473c-.334.311-.639.652-.962.977a15.879,15.879,0,0,1,1.844-2.041,6.218,6.218,0,0,1,.524-.451l.272-.215.285-.2a6.287,6.287,0,0,1,1.22-.673,3.792,3.792,0,0,1,1.375-.291,2.745,2.745,0,0,1,1.365.345,3.845,3.845,0,0,1,1.679,2.147" transform="translate(-824.878 1638.405)" fill="#a65b3c"/>
      <path id="Trazado_691576" data-name="Trazado 691576" d="M1009.135,1733.782a91.135,91.135,0,0,1-9.566-1.132q-4.753-.8-9.417-2.056a78.569,78.569,0,0,1-9.133-3.081c-1.488-.61-2.945-1.292-4.38-2.014-1.427-.739-2.817-1.548-4.171-2.41a58.459,58.459,0,0,0,8.622,4.25,82.262,82.262,0,0,0,9.127,3.02c3.091.852,6.228,1.535,9.384,2.107q2.367.431,4.752.76c1.589.226,3.182.422,4.782.556" transform="translate(-497.779 1187.244)" fill="#a65b3c"/>
      <path id="Trazado_691577" data-name="Trazado 691577" d="M1603.741,1719.633c-1.072.684-2.188,1.3-3.318,1.884s-2.291,1.111-3.459,1.617-2.369.937-3.58,1.331a31.757,31.757,0,0,1-3.7.952c.609-.185,1.228-.328,1.829-.534.3-.1.608-.182.908-.285l.9-.31c1.193-.429,2.383-.869,3.545-1.378,1.172-.485,2.325-1.015,3.471-1.56q.859-.41,1.708-.841c.57-.281,1.131-.578,1.693-.875" transform="translate(-964.472 1189.856)" fill="#a65b3c"/>
      <path id="Trazado_691578" data-name="Trazado 691578" d="M871.675,1244.629q-.038-3.839-.119-7.677l-.144-7.676q-.167-7.676-.443-15.348-.228-7.673-.575-15.343l-.177-3.834-.2-3.833c-.113-2.557-.271-5.111-.4-7.667.173,2.553.37,5.105.523,7.66l.222,3.833.2,3.834q.388,7.669.656,15.343.233,7.675.361,15.352.063,3.839.1,7.678c.01,2.56.015,5.119,0,7.678" transform="translate(-420.007 1595.427)" fill="#a65b3c"/>
      <path id="Trazado_691579" data-name="Trazado 691579" d="M1290.914,1293.179a4.385,4.385,0,1,1-4.386-4.385,4.386,4.386,0,0,1,4.386,4.385" transform="translate(-731.931 1515.623)" fill="#1f4168"/>
      <path id="Trazado_691580" data-name="Trazado 691580" d="M1324.17,1534.053a4.385,4.385,0,1,1-4.385-4.386,4.385,4.385,0,0,1,4.385,4.386" transform="translate(-757.076 1333.494)" fill="#1f4168"/>
      <path id="Trazado_691581" data-name="Trazado 691581" d="M1328.108,1779.457a4.385,4.385,0,1,1-4.385-4.385,4.385,4.385,0,0,1,4.385,4.385" transform="translate(-760.055 1147.938)" fill="#1f4168"/>
      <path id="Trazado_691582" data-name="Trazado 691582" d="M1442.052,1341.96l6.78-.454,6.782-.429,13.566-.819,13.568-.763,6.786-.361,6.787-.336-6.78.455-6.782.429-13.566.819-13.569.762-6.786.361Z" transform="translate(-852.841 1477.815)" fill="#a65b3c"/>
      <path id="Trazado_691583" data-name="Trazado 691583" d="M1444.644,1386.454l6.78-.454,6.782-.429,13.566-.819,13.569-.762,6.786-.361,6.787-.336-6.78.455-6.782.429-13.566.818-13.569.762-6.785.361Z" transform="translate(-854.801 1444.172)" fill="#a65b3c"/>
      <path id="Trazado_691584" data-name="Trazado 691584" d="M1469.444,1410.206l-8.532-3.534-8.517-3.569-2.129-.892a20.188,20.188,0,0,1-2.113-.956,7.388,7.388,0,0,1-3.646-5.69c-.066-.775-.1-1.538-.149-2.308l-.279-4.609-1.034-18.441-.516-9.22-.477-9.223.6,9.216.558,9.218,1.115,18.436.259,4.61c.047.766.077,1.542.138,2.3a7.189,7.189,0,0,0,3.527,5.554,20.031,20.031,0,0,0,2.087.955l2.125.9,8.5,3.608Z" transform="translate(-852.842 1468.011)" fill="#a65b3c"/>
      <path id="Trazado_691585" data-name="Trazado 691585" d="M1581.251,1338.8l.645,10.052.607,10.053,1.213,20.108.142,2.514c.023.419.052.836.054,1.265a7.557,7.557,0,0,1-.122,1.271,7.422,7.422,0,0,1-2.5,4.336,5.9,5.9,0,0,1-.5.391,6.291,6.291,0,0,1-.535.347c-.364.216-.731.415-1.1.624l-2.194,1.237-4.386,2.474-8.774,4.947-2.2,1.228c-.367.2-.729.415-1.107.605a8,8,0,0,1-1.178.455,7.343,7.343,0,0,1-4.938-.3,7.314,7.314,0,0,0,4.922.244,7.92,7.92,0,0,0,1.162-.465c.37-.192.731-.409,1.1-.616l2.184-1.255,8.752-4.984,4.376-2.492,2.188-1.246c.363-.209.733-.412,1.09-.626.176-.109.354-.214.519-.34a5.7,5.7,0,0,0,.489-.382,7.21,7.21,0,0,0,2.417-4.221,7.307,7.307,0,0,0,.113-1.232c0-.411-.034-.832-.059-1.25l-.151-2.513-1.131-20.112-.564-10.056Z" transform="translate(-937.771 1477.814)" fill="#a65b3c"/>
      <path id="Trazado_691586" data-name="Trazado 691586" d="M1148.36,957.109l21.772-23.389.473-4.482a7.33,7.33,0,0,1,2.383-4.668c4.436-4.005,14.787-14.638,19.168-30.037l-.1-.051a21.384,21.384,0,0,1-11.4-18.913V864.529h-69v9.3c-.348,10.268-5.005,17.525-15.255,19.943,0,0,34.942,23.178,51.954,63.336" transform="translate(-591.491 1836.42)" fill="#ffc89f"/>
      <path id="Trazado_691587" data-name="Trazado 691587" d="M1462.833,661.8s-2.359,12.379-14.927,6.749c0,0,4.424-1.408,6.636-4.524,0,0-9.149,8.9-22.823.477l21.251-72.259s28.759,31.605,9.863,69.558" transform="translate(-845.029 2042.304)" fill="#1b1a2e"/>
      <rect id="Rectángulo_344038" data-name="Rectángulo 344038" width="67.463" height="73.322" transform="translate(521.807 2675.734)" fill="#ffc89f"/>
      <path id="Trazado_691588" data-name="Trazado 691588" d="M1164.682,505.8h0a44.929,44.929,0,0,1-44.93-44.929V405.981a44.929,44.929,0,0,1,89.859,0v54.887a44.929,44.929,0,0,1-44.929,44.929" transform="translate(-609.145 2217.11)" fill="#ffc89f"/>
      <path id="Trazado_691589" data-name="Trazado 691589" d="M1184.239,886.487a40.3,40.3,0,0,1-11.585-1.129c-.951-.22-1.881-.525-2.82-.795-.474-.124-.923-.32-1.384-.482l-1.376-.507c-.465-.154-.9-.383-1.348-.577l-1.337-.606c-.452-.188-.871-.446-1.306-.668l-1.295-.691-.323-.175-.31-.2-.621-.391-1.242-.782c-.21-.126-.41-.266-.606-.412l-.595-.43-1.187-.862c-.772-.6-1.506-1.247-2.26-1.868-.73-.649-1.421-1.342-2.126-2.016a40.107,40.107,0,0,1-6.9-9.373,51.639,51.639,0,0,0,7.431,8.833l1.074.959c.361.316.7.655,1.076.954.755.592,1.489,1.21,2.259,1.779.79.542,1.552,1.125,2.356,1.645l1.222.756.611.378.305.189.317.17a47.5,47.5,0,0,0,10.578,4.439,51.816,51.816,0,0,0,11.392,1.858" transform="translate(-628.7 1836.421)" fill="#ff9b6c"/>
      <path id="Trazado_691590" data-name="Trazado 691590" d="M1403.376,853.181q-.372.856-.764,1.709l-.4.852-.458.819-.94,1.629-1.065,1.552c-.181.257-.351.522-.541.771l-.589.735c-.4.484-.775.99-1.195,1.457l-1.276,1.387c-.423.464-.891.884-1.335,1.329l-.682.649-.711.617c-.479.405-.935.838-1.438,1.214s-.986.776-1.492,1.146-1.019.73-1.538,1.082-1.048.687-1.583,1.012-1.074.643-1.627.936-1.1.588-1.672.853a15.368,15.368,0,0,1-1.73.721c.552-.289,1.075-.627,1.6-.956l.783-.5.77-.521c.518-.338,1.017-.708,1.525-1.06l1.494-1.1,1.461-1.14c.484-.382.949-.788,1.425-1.181s.93-.809,1.394-1.214l.691-.614.662-.644a51.866,51.866,0,0,0,5-5.431l1.145-1.456,1.06-1.52.538-.758.485-.793q.488-.792,1-1.58" transform="translate(-807.697 1845.001)" fill="#ff9b6c"/>
      <path id="Trazado_691591" data-name="Trazado 691591" d="M1087.853,664.942h1.451a8.8,8.8,0,0,0,8.8-8.8V642.105a8.8,8.8,0,0,0-8.8-8.8h-1.451a8.8,8.8,0,0,0-8.8,8.8v14.035a8.8,8.8,0,0,0,8.8,8.8" transform="translate(-578.369 2011.254)" fill="#ffc89f"/>
      <path id="Trazado_691592" data-name="Trazado 691592" d="M1098.407,669.617a3.306,3.306,0,0,0-2.017,1.644,7.551,7.551,0,0,0-.849,2.493,11.655,11.655,0,0,0-.14,2.65,10.636,10.636,0,0,0,.443,2.6,6.6,6.6,0,0,0,1.159,2.276,2.856,2.856,0,0,0,.88.768c.149.056.212.063.29.023a.815.815,0,0,0,.277-.367,5.109,5.109,0,0,0,.319-1.24c.07-.442.1-.895.134-1.35.057-.911.064-1.832.063-2.758a18.991,18.991,0,0,1,.39,2.757,12.619,12.619,0,0,1,.019,1.411,4.968,4.968,0,0,1-.248,1.456,1.549,1.549,0,0,1-.516.742,1,1,0,0,1-.531.184,1.259,1.259,0,0,1-.5-.085,2.6,2.6,0,0,1-.708-.43,5.355,5.355,0,0,1-.546-.523,6.918,6.918,0,0,1-1.4-2.579,10.792,10.792,0,0,1-.133-5.69,7.162,7.162,0,0,1,1.2-2.606,4.029,4.029,0,0,1,1.07-.97,2.741,2.741,0,0,1,1.349-.4" transform="translate(-590.028 1983.797)" fill="#ff9b6c"/>
      <path id="Trazado_691593" data-name="Trazado 691593" d="M1111.249,669.189c-.1-.567-.149-1.1-.2-1.632s-.083-1.043-.155-1.532a3.451,3.451,0,0,0-.385-1.3,1.112,1.112,0,0,0-.46-.42,2.55,2.55,0,0,0-.757-.2,1.562,1.562,0,0,1,.854-.264,1.416,1.416,0,0,1,.925.372,2.749,2.749,0,0,1,.783,1.679,5.407,5.407,0,0,1-.047,1.709,4.929,4.929,0,0,1-.563,1.593" transform="translate(-601.238 1988.168)" fill="#ff9b6c"/>
      <path id="Trazado_691594" data-name="Trazado 691594" d="M1394.181,635.566a4.044,4.044,0,1,1-4.045-4.044,4.045,4.045,0,0,1,4.045,4.044" transform="translate(-810.529 2012.602)" fill="#1b1a2e"/>
      <path id="Trazado_691595" data-name="Trazado 691595" d="M1385.15,610.2a11.961,11.961,0,0,0-1.881-1.236,13.019,13.019,0,0,0-2.048-.908,12.348,12.348,0,0,0-4.385-.717,12.992,12.992,0,0,0-4.371.821,19.464,19.464,0,0,0-4,2.04c.3-.225.6-.453.914-.668s.63-.419.958-.608.657-.378,1-.533l.513-.247.527-.216a12.026,12.026,0,0,1,8.929-.1,11.735,11.735,0,0,1,3.844,2.376" transform="translate(-797.198 2031.129)" fill="#1b1a2e"/>
      <path id="Trazado_691596" data-name="Trazado 691596" d="M1220.139,635.566a4.044,4.044,0,1,1-4.045-4.044,4.045,4.045,0,0,1,4.045,4.044" transform="translate(-678.932 2012.602)" fill="#1b1a2e"/>
      <path id="Trazado_691597" data-name="Trazado 691597" d="M1211.107,610.2a11.953,11.953,0,0,0-1.881-1.236,13.008,13.008,0,0,0-2.048-.908,12.347,12.347,0,0,0-4.385-.717,12.992,12.992,0,0,0-4.371.821,19.476,19.476,0,0,0-4,2.04c.3-.225.6-.453.914-.668s.63-.419.958-.608.657-.378,1-.533l.513-.247.527-.216a12.026,12.026,0,0,1,8.929-.1,11.731,11.731,0,0,1,3.844,2.376" transform="translate(-665.6 2031.129)" fill="#1b1a2e"/>
      <path id="Trazado_691598" data-name="Trazado 691598" d="M1326.4,690.447c.31,1.723.585,3.45.854,5.179s.512,3.46.77,5.191c.056.436.125.86.165,1.308a7.8,7.8,0,0,1,.008,1.335,7.079,7.079,0,0,1-.665,2.573,4.581,4.581,0,0,1-1.738,1.993c-.767.423-1.53.849-2.3,1.261.735-.474,1.484-.929,2.221-1.4a4.4,4.4,0,0,0,1.594-1.962,7.336,7.336,0,0,0,.6-2.489,11.074,11.074,0,0,0-.2-2.578c-.231-1.734-.477-3.465-.695-5.2s-.431-3.472-.609-5.213" transform="translate(-763.195 1968.047)" fill="#1b1a2e"/>
      <path id="Trazado_691599" data-name="Trazado 691599" d="M1281.013,793.787a8.21,8.21,0,0,1-.689,1.538,11.012,11.012,0,0,1-.953,1.329c-.185.2-.375.4-.569.6a4.717,4.717,0,0,1-.618.549c-.216.176-.442.34-.669.5s-.482.3-.731.438a9.86,9.86,0,0,1-1.593.7,10.056,10.056,0,0,1-1.76.391,9.448,9.448,0,0,1-3.7-.24,9.971,9.971,0,0,1-7.053-7.075,9.284,9.284,0,0,1-.262-1.622,6.046,6.046,0,0,1,.091-1.691c.522.262.989.511,1.436.753l1.289.693c.089.049.178.1.267.145.224.122.442.238.658.351.482.251.944.484,1.384.7a20.507,20.507,0,0,0,3.842,1.491,13.952,13.952,0,0,0,1.824.358c.32.058.662.064,1.011.113.356,0,.727.056,1.118.045.2,0,.4.02.6.013s.416-.009.629-.009l.327,0c.109,0,.218-.011.331-.011l.687-.02c.322-.007.649-.027.991-.035.16-.007.318-.011.482-.007h.011a13.133,13.133,0,0,1,1.625-.007" transform="translate(-716.998 1893.373)" fill="#e43f5a"/>
      <path id="Trazado_691600" data-name="Trazado 691600" d="M1289.006,798.727a6.916,6.916,0,0,1-1.627,1.342,8.133,8.133,0,0,1-1.431.7,8.913,8.913,0,0,1-1.611.4,8.331,8.331,0,0,1-3.42-.194,8.685,8.685,0,0,1-3.027-1.482,8.4,8.4,0,0,1-2.1-2.349,7.972,7.972,0,0,1-.678-1.415c.224.122.442.238.658.351.482.251.944.484,1.384.7a20.513,20.513,0,0,0,3.842,1.491,13.914,13.914,0,0,0,1.824.358c.32.058.662.065,1.011.113.355,0,.727.056,1.118.044.2,0,.4.02.6.013s.416-.009.629-.009l.327,0c.109,0,.218-.011.331-.011l.687-.02c.322-.007.649-.026.991-.036.16-.007.318-.011.482-.007Z" transform="translate(-726.615 1888.439)" fill="#fff"/>
      <path id="Trazado_691601" data-name="Trazado 691601" d="M1385.15,556.465l-2.473-.209c-.748-.066-1.451-.106-2.112-.147-1.328-.07-2.508-.11-3.694-.081-.593.014-1.188.022-1.8.063-.309,0-.62.044-.942.051-.318.035-.65.036-.985.072-.168.016-.341.022-.515.033s-.348.034-.528.045c-.361.018-.728.058-1.113.08s-.776.064-1.2.07a11.622,11.622,0,0,1-1.324.024,6.855,6.855,0,0,1,.551-1.24,8.941,8.941,0,0,1,.746-1.079,8.651,8.651,0,0,1,.9-.941c.162-.146.331-.284.5-.425s.356-.255.539-.376a9.3,9.3,0,0,1,1.155-.653c.2-.092.41-.177.618-.258l.314-.121.323-.1a9.57,9.57,0,0,1,7.852,1.025,8.134,8.134,0,0,1,1.978,1.765,6.992,6.992,0,0,1,.734,1.115,4.613,4.613,0,0,1,.476,1.285" transform="translate(-797.198 2073.595)" fill="#1b1a2e"/>
      <path id="Trazado_691602" data-name="Trazado 691602" d="M1211.107,556.465l-2.473-.209c-.748-.066-1.451-.106-2.112-.147-1.328-.07-2.508-.11-3.694-.081-.593.014-1.188.022-1.8.063-.309,0-.62.044-.942.051-.318.035-.65.036-.985.072-.168.016-.341.022-.515.033s-.348.034-.528.045c-.361.018-.728.058-1.113.08s-.776.064-1.2.07a11.622,11.622,0,0,1-1.324.024,6.889,6.889,0,0,1,.551-1.24,8.928,8.928,0,0,1,.746-1.079,8.687,8.687,0,0,1,.9-.941c.162-.146.331-.284.5-.425s.355-.255.539-.376a9.307,9.307,0,0,1,1.155-.653c.2-.092.41-.177.618-.258l.314-.121.323-.1a9.569,9.569,0,0,1,7.851,1.025,8.126,8.126,0,0,1,1.978,1.765,6.952,6.952,0,0,1,.734,1.115,4.614,4.614,0,0,1,.476,1.285" transform="translate(-665.6 2073.595)" fill="#1b1a2e"/>
      <path id="Trazado_691603" data-name="Trazado 691603" d="M1459.583,664.942h1.451a8.8,8.8,0,0,0,8.8-8.8V642.105a8.8,8.8,0,0,0-8.8-8.8h-1.451a8.8,8.8,0,0,0-8.8,8.8v14.035a8.8,8.8,0,0,0,8.8,8.8" transform="translate(-859.443 2011.254)" fill="#ffc89f"/>
      <path id="Trazado_691604" data-name="Trazado 691604" d="M1486.283,664.606a7.778,7.778,0,0,1,4.945,1.328,8.012,8.012,0,0,1,1.926,1.8,8.724,8.724,0,0,1,.732,1.106l.292.6c.1.2.162.412.245.618a8.183,8.183,0,0,1,.468,2.6c.019.445-.008.858-.01,1.289s-.017.853-.03,1.28c-.048,1.707-.118,3.413-.253,5.12-.134-1.707-.2-3.413-.252-5.12-.036-.849-.023-1.716-.067-2.55a7.8,7.8,0,0,0-.466-2.407c-.075-.191-.126-.391-.22-.574l-.263-.556a9.391,9.391,0,0,0-.663-1.037,8.16,8.16,0,0,0-1.73-1.755,8.98,8.98,0,0,0-2.182-1.2,10.224,10.224,0,0,0-2.472-.542" transform="translate(-886.286 1987.599)" fill="#ff9b6c"/>
      <path id="Trazado_691605" data-name="Trazado 691605" d="M1493.171,722.515a4.358,4.358,0,0,1-1.071-1.069,5.629,5.629,0,0,1-1.048-2.831,4.352,4.352,0,0,1,.119-1.51l.378,1.421c.13.46.278.908.44,1.351s.344.879.544,1.313Z" transform="translate(-889.877 1947.891)" fill="#ff9b6c"/>
      <path id="Trazado_691606" data-name="Trazado 691606" d="M1092.783,333.559c-22.334-55.143-63.371-39.251-63.371-39.251-25.957-8.289-43.634,4.09-56.254,21.815h0l0,0c-1.347,1.784-2.6,3.614-3.9,5.416-1.327,1.781-2.572,3.607-3.91,5.372-2.6,3.577-5.3,7.076-7.932,10.656-1.315,1.789-2.61,3.611-3.85,5.475l-1.826,2.835-1.711,2.928c-.529,1-1.046,2.015-1.558,3.026-.471,1.034-.908,2.086-1.337,3.136-.408,1.059-.72,2.156-1.066,3.233a16.043,16.043,0,0,0-.43,1.642l-.383,1.65c-.3,1.089-.405,2.216-.61,3.319l-.278,1.658c-.075.555-.13,1.112-.2,1.667-.1,1.114-.309,2.215-.39,3.328s-.18,2.223-.291,3.334c-.236,2.221-.362,4.464-.4,6.721a36.692,36.692,0,0,0,.459,6.795,27.151,27.151,0,0,0,1.949,6.6c.238.526.465,1.056.742,1.565.26.516.529,1.027.831,1.521a26.724,26.724,0,0,0,1.971,2.852,22.689,22.689,0,0,0,2.354,2.537,20.423,20.423,0,0,0,2.69,2.152,17.718,17.718,0,0,0,6.123,2.742c-.836.756-5.93,5.566-12.288,15.934-6.963,11.352,5.3,16.8,5.3,16.8-6.357-11.049,6.054-29.363,6.054-29.363-17.255,36.628,12.914,40.529,12.914,40.529-12.514,10.823-10.935,23.449-10.935,23.449-13.823,27.646,16.875,22.2,19.483,21.7a18.826,18.826,0,0,0-1.773,3.49,25.217,25.217,0,0,0-1.751,7.881,16.5,16.5,0,0,0,.25,4.093,22.433,22.433,0,0,0,3.14,7.5,19.95,19.95,0,0,0,2.459,3.2,14.649,14.649,0,0,0,3.236,2.551,14.368,14.368,0,0,0,3.883,1.53,21.808,21.808,0,0,0,4.093.511,43.287,43.287,0,0,0,8.011-.485c4.964-.749,9.684-1.871,14.652-2.164-3.676,17.44-20.359,16.269-27.615,27.012s3.079,19.6,3.079,19.6a15.341,15.341,0,0,1,.191-7.637c-.955,7.35,4.009,9.164,4.009,9.164a17.716,17.716,0,0,1,.287-6.778c1.909,12.41,9.546,11.36,9.546,11.36-2.577-3.532-2.2-11.36-2.2-11.36,2.577,19.188,16.9,15.751,16.9,15.751a11.292,11.292,0,0,1-2.482-2.387c10.883,4.964,12.75-7.712,12.75-7.712-7.206,4.786-10.156,1.936-11.305-2.112a14.411,14.411,0,0,1,2.885-12.951c8.762-10.792,6.737-20.7,6.737-20.7,16.831-22.512-2.735-38.922-2.735-38.922,8.416,3.471,11.993,17.778,11.993,17.778,5.307-9.814-11.047-18.435-12.63-19.241a43.6,43.6,0,0,0,5.111-7.048,37.84,37.84,0,0,0,3.613-8.039,29.185,29.185,0,0,0,1.247-8.853,19.855,19.855,0,0,0-2.216-8.641,35.627,35.627,0,0,0-4.967-7.237,43.688,43.688,0,0,0-6.433-5.909,79.522,79.522,0,0,0-7.27-4.692,69.851,69.851,0,0,0-6.879-3.485c-16.162-10.174-19.443-25.27-19.22-36.523a43.483,43.483,0,0,1,5.5-19.9,50.709,50.709,0,0,0,5.763-23.206c3.631-3.8,8.056-11.062,13.535-32.188,4.416-17.025,13.064-18.714,15.122-18.562l.1.009a31.534,31.534,0,0,1,9.954,3.943q1.139.7,2.211,1.5t2.078,1.664a43.443,43.443,0,0,1,3.755,3.785,42.7,42.7,0,0,1,3.31,4.279,29.8,29.8,0,0,1,2.563,4.844c.187.419.337.854.487,1.288s.307.866.439,1.306c.235.89.513,1.762.7,2.669.421,1.8.73,3.625,1.009,5.453s.505,3.664.768,5.493l.805,5.491c.271,1.834.551,3.672.869,5.515s.7,3.689,1.2,5.528a29.22,29.22,0,0,0,2.022,5.431,18.438,18.438,0,0,0,1.54,2.549,14.168,14.168,0,0,0,2.037,2.226,12.657,12.657,0,0,0,5.248,2.716,18.192,18.192,0,0,0,5.533.494c.092.021.143.03.143.03,13.337,25.114,20.078,52.553,15.267,62.568-4.259,8.867-17.967,12.064-17.967,12.064,4.5,6.687,12.86-1.479,12.86-1.479-2.057,4.823-9.143,7.009-9.143,7.009,24.949,5.024,38.075-69.693,15.741-124.836M950.72,399.6a26.771,26.771,0,0,1-1.653-2.732c-.265-.461-.5-.94-.724-1.423-.242-.474-.436-.972-.642-1.464a47.556,47.556,0,0,1-1.016-32.1,57.058,57.058,0,0,1,5.552-11.789c2.276-3.713,4.969-7.206,7.521-10.837.359-.507.711-1.02,1.067-1.53-4.186,8.86-7.587,17.628-10.5,24.882-10.657,26.553,6.148,42.347,9.457,45.123a25.65,25.65,0,0,1-9.063-8.131m77.571,57.756a14.48,14.48,0,0,1,4.759,6.8,22.287,22.287,0,0,1,.833,8.164,35.445,35.445,0,0,1-1.589,8.058c-.758,2.538-1.662,5.062-2.679,7.57,2.575-8.3,4.4-21.4-4.016-32.55.334.228.667.458,1.005.684.563.417,1.146.826,1.687,1.271m-34.417,68.159a25.38,25.38,0,0,1-3.313-.132,15.454,15.454,0,0,1-3.6-.754,10.285,10.285,0,0,1-5.639-4.764,12.114,12.114,0,0,1-1.3-3.572,23,23,0,0,1-.377-3.75q-.028-.968-.034-1.939c.648,7.306,4.117,14.244,14.264,14.912M1070.8,376.4a14.226,14.226,0,0,1-2.294-1.267,12.369,12.369,0,0,1-1.927-1.675c-2.3-2.511-3.408-5.932-4.285-9.41-.868-3.5-1.584-7.124-2.338-10.754-.374-1.817-.748-3.639-1.188-5.451s-.942-3.611-1.452-5.4l-1.567-5.366-.806-2.684c-.315-.881-.576-1.779-.9-2.658-.166-.438-.311-.884-.468-1.326s-.35-.871-.514-1.312c-.314-.89-.731-1.737-1.093-2.616a30.86,30.86,0,0,0-2.856-4.961,22.1,22.1,0,0,0-2.367-2.754c7.528,5.342,14.606,14.759,14.857,31.207.293,19.176,8.068,25.449,12.079,27.414a20.273,20.273,0,0,1-2.882-.982" transform="translate(-475.558 2269.567)" fill="#1b1a2e"/>
      <path id="Trazado_691607" data-name="Trazado 691607" d="M1479.841,646.594c1.784,3.207,3.433,6.49,5,9.811q2.323,5,4.327,10.134a133.813,133.813,0,0,1,6.36,21.1,71.648,71.648,0,0,1,1.389,10.958,35.911,35.911,0,0,1-.2,5.54,15.764,15.764,0,0,1-1.5,5.358,16.229,16.229,0,0,1-3.394,4.4,25.039,25.039,0,0,1-4.457,3.279,36.9,36.9,0,0,1-4.973,2.392,37.611,37.611,0,0,1-5.249,1.663A40.044,40.044,0,0,0,1487.2,716.9a24.909,24.909,0,0,0,4.338-3.3,15.776,15.776,0,0,0,3.232-4.324,5.631,5.631,0,0,0,.275-.614c.084-.208.175-.413.252-.623l.2-.644a5.894,5.894,0,0,0,.182-.651c.1-.441.222-.875.284-1.325s.158-.891.2-1.344a35.415,35.415,0,0,0,.167-5.45,71.358,71.358,0,0,0-1.434-10.853c-.724-3.585-1.634-7.134-2.676-10.644s-2.247-6.971-3.514-10.409-2.665-6.829-4.151-10.18c-1.468-3.36-3.057-6.667-4.713-9.942" transform="translate(-879.373 2001.206)" fill="#1f4068"/>
      <path id="Trazado_691608" data-name="Trazado 691608" d="M1101.876,584.412a54,54,0,0,1-1.023,9.767l-.538,2.4-.668,2.371c-.491,1.567-1.025,3.121-1.662,4.635a80.487,80.487,0,0,1-4.4,8.781c-1.607,2.849-3.313,5.642-5.027,8.426s-3.457,5.549-5.088,8.37q-1.231,2.112-2.3,4.3c-.356.729-.676,1.475-1.02,2.21-.293.755-.615,1.5-.881,2.263a28.8,28.8,0,0,0-1.779,9.485,29.713,29.713,0,0,0,1.581,9.581l-.061.022a27.249,27.249,0,0,1-2.025-9.6l.011-1.238c0-.206,0-.413.01-.619l.056-.617.113-1.234c.036-.412.13-.815.192-1.224s.127-.818.223-1.219l.306-1.2.153-.6c.053-.2.125-.393.187-.59l.384-1.177a49.37,49.37,0,0,1,4.328-8.85c1.675-2.82,3.5-5.533,5.315-8.253s3.571-5.474,5.142-8.337a71.944,71.944,0,0,0,4.088-8.878,64.685,64.685,0,0,0,2.878-9.315,71.29,71.29,0,0,0,1.448-9.664Z" transform="translate(-576.801 2048.224)" fill="#1f4068"/>
      <path id="Trazado_691609" data-name="Trazado 691609" d="M1058.1,530.087a60.154,60.154,0,0,1-10.089,17.086c-2.137,2.546-4.461,4.919-6.809,7.256s-4.733,4.638-7.11,6.945-4.756,4.608-7.088,6.952-4.582,4.763-6.722,7.273a86,86,0,0,0-6.009,7.857,83.311,83.311,0,0,0-5.042,8.531l-.058-.027a68.865,68.865,0,0,1,10.583-16.807c2.144-2.542,4.45-4.937,6.819-7.259s4.817-4.558,7.274-6.779,4.888-4.47,7.2-6.835a96.3,96.3,0,0,0,6.541-7.449,85.235,85.235,0,0,0,5.747-8.049,78.355,78.355,0,0,0,4.7-8.721Z" transform="translate(-525.53 2089.318)" fill="#1f4068"/>
      <path id="Trazado_691610" data-name="Trazado 691610" d="M1018.419,573.853a48.152,48.152,0,0,0-1.6,9.222,41.712,41.712,0,0,0,.431,9.3,42.516,42.516,0,0,0,2.463,8.985,43.575,43.575,0,0,0,1.94,4.255,33.306,33.306,0,0,0,2.423,4.014,33.028,33.028,0,0,1-4.83-8.077,39.529,39.529,0,0,1-1.6-4.452,40.676,40.676,0,0,1-1.032-4.623,37.55,37.55,0,0,1-.294-9.446,38.237,38.237,0,0,1,2.1-9.181" transform="translate(-530.81 2056.207)" fill="#1f4068"/>
      <path id="Trazado_691611" data-name="Trazado 691611" d="M1017.592,1045.981q.122.566.231,1.128l.106.562.052.281.076.276.293,1.1c.054.182.086.369.151.547l.188.536.373,1.069.452,1.037a10.208,10.208,0,0,0,.493,1.015c.182.329.33.677.544.987l.59.962.66.916a21.235,21.235,0,0,0,1.453,1.731,18.945,18.945,0,0,0,3.466,2.944,13.131,13.131,0,0,1-3.822-2.588,16.24,16.24,0,0,1-2.9-3.636c-.217-.325-.366-.686-.55-1.03a8.76,8.76,0,0,1-.49-1.058l-.423-1.087c-.122-.368-.218-.745-.323-1.118a17.461,17.461,0,0,1-.461-2.272l-.044-.286-.02-.289-.037-.577q-.035-.577-.054-1.151" transform="translate(-531.898 1699.22)" fill="#1f4068"/>
      <path id="Trazado_691612" data-name="Trazado 691612" d="M1117.844,1137.6a27.438,27.438,0,0,0,3.422,7.5,30.593,30.593,0,0,0,2.472,3.292,35.213,35.213,0,0,0,2.849,2.974,47.651,47.651,0,0,0,6.506,5.073q1.732,1.132,3.543,2.146t3.7,1.884a39.945,39.945,0,0,1-7.512-3.6c-1.194-.719-2.348-1.505-3.468-2.338s-2.184-1.741-3.21-2.69a30.62,30.62,0,0,1-5.305-6.471,24.127,24.127,0,0,1-1.855-3.753l-.356-.984c-.114-.329-.2-.667-.3-1-.219-.661-.33-1.352-.483-2.027" transform="translate(-607.701 1629.943)" fill="#1f4068"/>
      <path id="Trazado_691613" data-name="Trazado 691613" d="M1104.029,486.269l-1.092,1.211c-.362.4-.741.794-1.091,1.209l-1.051,1.243c-.352.413-.7.826-1.031,1.259-.67.853-1.36,1.688-1.985,2.574l-.956,1.313-.907,1.348a62.923,62.923,0,0,0-6.1,11.424,57.858,57.858,0,0,0-3.583,12.437,52.045,52.045,0,0,0-.7,6.451,38.212,38.212,0,0,0,.173,6.5,41.94,41.94,0,0,1,.038-13.026,50.452,50.452,0,0,1,1.368-6.4,56.131,56.131,0,0,1,2.109-6.2c.2-.51.435-1,.652-1.5s.44-1,.688-1.487l.722-1.47.777-1.442c.131-.239.256-.482.392-.719l.416-.705c.279-.469.551-.943.835-1.408.6-.913,1.161-1.849,1.813-2.725l.95-1.331,1-1.3c.654-.873,1.366-1.7,2.068-2.531.347-.419.718-.818,1.089-1.217l1.108-1.2c.751-.786,1.536-1.541,2.308-2.3" transform="translate(-583.022 2122.43)" fill="#1f4068"/>
      <path id="Trazado_691614" data-name="Trazado 691614" d="M1214.309,351.641l-.835-.1c-.278-.034-.553-.082-.833-.093-.558-.038-1.113-.089-1.67-.077a20.285,20.285,0,0,0-3.315.209,20.04,20.04,0,0,0-6.269,2.029,21.184,21.184,0,0,0-2.826,1.723,26.7,26.7,0,0,0-2.581,2.089,30.568,30.568,0,0,0-2.329,2.387,25.721,25.721,0,0,0-2.06,2.644,22.6,22.6,0,0,1,4.04-5.4,22.006,22.006,0,0,1,5.462-4.022,20.074,20.074,0,0,1,3.16-1.283,18.127,18.127,0,0,1,10.057-.111" transform="translate(-663.462 2224.721)" fill="#1f4068"/>
      <path id="Trazado_691615" data-name="Trazado 691615" d="M1394.052,389.817a33.111,33.111,0,0,0-2.88-7.767,28.862,28.862,0,0,0-2.228-3.47,27.021,27.021,0,0,0-2.726-3.087,29.934,29.934,0,0,0-6.664-4.831,33.815,33.815,0,0,0-3.768-1.723,27.759,27.759,0,0,0-3.97-1.242,26.656,26.656,0,0,1,7.968,2.516,27.315,27.315,0,0,1,6.884,4.816,26.566,26.566,0,0,1,2.766,3.186,26.24,26.24,0,0,1,2.185,3.6,27.058,27.058,0,0,1,2.432,8" transform="translate(-799.736 2212.087)" fill="#1f4068"/>
      <path id="Trazado_691616" data-name="Trazado 691616" d="M1472.736,587.7a13.7,13.7,0,0,1-6.341.18,15.7,15.7,0,0,1-5.845-2.615,22.512,22.512,0,0,1-4.587-4.453,24.657,24.657,0,0,1-3.26-5.453,30.611,30.611,0,0,0,1.716,2.654c.606.859,1.255,1.684,1.934,2.48a25.9,25.9,0,0,0,4.571,4.245,18.079,18.079,0,0,0,2.672,1.583,15.018,15.018,0,0,0,2.913,1.069,16.1,16.1,0,0,0,6.227.309" transform="translate(-860.895 2055.065)" fill="#1f4068"/>
      <path id="Trazado_691617" data-name="Trazado 691617" d="M1492.309,625.964q-.3.365-.61.726l-.314.359c-.112.112-.232.216-.348.326l-.712.639c-.255.191-.518.372-.778.559-.131.091-.258.19-.394.274l-.416.238c-.281.152-.551.328-.843.461l-.876.394c-.294.128-.6.223-.9.335a16.764,16.764,0,0,1-3.736.8,14.373,14.373,0,0,1-3.794-.1,29.541,29.541,0,0,0,3.728-.4,23.878,23.878,0,0,0,3.594-.911,17.825,17.825,0,0,0,3.368-1.515l.8-.476.758-.54c.127-.09.259-.175.384-.269l.357-.3c.24-.2.484-.4.733-.6" transform="translate(-880.468 2016.803)" fill="#1f4068"/>
      <path id="Trazado_691618" data-name="Trazado 691618" d="M1129.183,693.28l-.618,2.014c-.2.672-.435,1.335-.613,2.014l-.558,2.029-.279,1.014-.243,1.024-.5,2.043c-.168.68-.292,1.371-.441,2.055s-.3,1.369-.414,2.061l-.357,2.071c-.129.688-.218,1.383-.313,2.077s-.206,1.385-.293,2.08c-.145,1.392-.335,2.78-.422,4.178-.245,2.789-.318,5.591-.3,8.388a90.134,90.134,0,0,0,1.623,16.691,80.929,80.929,0,0,0,1.993,8.16,57.6,57.6,0,0,0,2.916,7.886,64.522,64.522,0,0,1-5.4-15.948,79.553,79.553,0,0,1-1.3-8.348c-.29-2.8-.47-5.618-.483-8.437s.093-5.637.359-8.442c.1-1.406.3-2.8.454-4.2.094-.7.206-1.393.313-2.089s.215-1.392.359-2.081l.4-2.073c.129-.692.308-1.373.459-2.06s.3-1.374.486-2.053l.546-2.038.279-1.017.314-1.007.628-2.013c.431-1.337.925-2.655,1.393-3.978" transform="translate(-611.743 1965.905)" fill="#1f4068"/>
      <path id="Trazado_691619" data-name="Trazado 691619" d="M1245.918,1249.921a14.27,14.27,0,0,1,6.211.634,10.566,10.566,0,0,1,2.78,1.558,9.78,9.78,0,0,1,2.129,2.384,13.977,13.977,0,0,1,1.981,5.981,20.028,20.028,0,0,1-.3,6.238,27.012,27.012,0,0,0-.2-6.17,14.841,14.841,0,0,0-2.025-5.7,9.383,9.383,0,0,0-1.972-2.261,10.865,10.865,0,0,0-2.576-1.562,17.07,17.07,0,0,0-6.028-1.1" transform="translate(-704.54 1545.085)" fill="#1f4068"/>
      <path id="Trazado_691620" data-name="Trazado 691620" d="M1098.456,997.29a52.518,52.518,0,0,0-6.419,9.82,27.541,27.541,0,0,0-2,5.476c-.1.475-.217.946-.286,1.426-.039.239-.087.477-.119.717l-.087.721a18.836,18.836,0,0,0-.069,2.9,18.164,18.164,0,0,0,4.307,10.64,24.756,24.756,0,0,0,1.984,2.164c.707.678,1.446,1.323,2.208,1.939a41.1,41.1,0,0,0,4.85,3.317,81.264,81.264,0,0,0,10.586,5.1c1.813.742,3.661,1.416,5.483,2.192a56.371,56.371,0,0,1,5.33,2.592,49.181,49.181,0,0,1,5.033,3.14,40.729,40.729,0,0,1,4.557,3.8,29.528,29.528,0,0,1,3.836,4.522,21,21,0,0,1,1.507,2.553,13.718,13.718,0,0,1,1.066,2.76l-.063.015a13.594,13.594,0,0,0-1.186-2.679,24.579,24.579,0,0,0-1.595-2.459,31.036,31.036,0,0,0-3.917-4.344,40.15,40.15,0,0,0-4.569-3.657,53.371,53.371,0,0,0-4.991-3.068q-2.578-1.4-5.275-2.565c-1.787-.787-3.629-1.482-5.447-2.249a71.675,71.675,0,0,1-10.535-5.364,48.44,48.44,0,0,1-4.812-3.437c-.762-.626-1.5-1.283-2.2-1.972a27.069,27.069,0,0,1-2.023-2.16,21.684,21.684,0,0,1-3.187-4.991,17.139,17.139,0,0,1-1.481-5.76,19.231,19.231,0,0,1,.548-5.935,28.069,28.069,0,0,1,2.106-5.56,45.1,45.1,0,0,1,6.814-9.643Z" transform="translate(-585.816 1736.068)" fill="#1f4068"/>
      <path id="Trazado_691621" data-name="Trazado 691621" d="M1207.5,1147.051a37.561,37.561,0,0,1,7.355,3.768,36.324,36.324,0,0,1,6.347,5.339,35.319,35.319,0,0,1,4.953,6.653,28.241,28.241,0,0,1,3.119,7.647,28.82,28.82,0,0,0-1.565-3.8,40.627,40.627,0,0,0-1.987-3.586c-.726-1.156-1.5-2.283-2.334-3.36a36.735,36.735,0,0,0-2.656-3.108c-.458-.505-.952-.976-1.434-1.457-.5-.462-.995-.933-1.516-1.373-1.019-.908-2.109-1.732-3.212-2.537a51.151,51.151,0,0,0-7.07-4.182" transform="translate(-675.489 1622.799)" fill="#1f4068"/>
      <path id="Trazado_691622" data-name="Trazado 691622" d="M1172.614,1337.333a26.114,26.114,0,0,0-2.185,1.9,22.4,22.4,0,0,0-1.938,2.125,22.291,22.291,0,0,0-2.964,4.886,26.55,26.55,0,0,0-1.736,5.459c-.19.941-.339,1.891-.439,2.85a23.608,23.608,0,0,0-.156,2.894,20.4,20.4,0,0,1,.1-5.832,22.355,22.355,0,0,1,1.643-5.635,22.854,22.854,0,0,1,1.4-2.595,20.115,20.115,0,0,1,1.774-2.35,18.523,18.523,0,0,1,4.507-3.7" transform="translate(-641.868 1478.922)" fill="#1f4068"/>
      <path id="Trazado_691623" data-name="Trazado 691623" d="M1157.037,1346.437a20.542,20.542,0,0,0-1.993,1.391,19.75,19.75,0,0,0-1.785,1.621,24.676,24.676,0,0,0-2.981,3.772,35.516,35.516,0,0,0-2.34,4.224,46.173,46.173,0,0,0-1.842,4.5,23.089,23.089,0,0,1,1.38-4.7c.3-.763.651-1.506,1.022-2.24s.8-1.44,1.239-2.134a19.769,19.769,0,0,1,3.172-3.781,15.462,15.462,0,0,1,1.95-1.516,13.324,13.324,0,0,1,2.178-1.135" transform="translate(-629.063 1472.038)" fill="#1f4068"/>
      <path id="Trazado_691624" data-name="Trazado 691624" d="M1242.956,1252.8a10.74,10.74,0,0,1,2.957,2.633,9.955,9.955,0,0,1,1.707,3.619,12.521,12.521,0,0,1,.3,4.005,17.188,17.188,0,0,1-.81,3.927,22.62,22.62,0,0,1-3.838,6.967,20.887,20.887,0,0,1-5.968,5.177,22.358,22.358,0,0,0,3.009-2.529,26.281,26.281,0,0,0,4.648-6.249,22.011,22.011,0,0,0,1.537-3.568,17.074,17.074,0,0,0,.815-3.778,12.708,12.708,0,0,0-.185-3.839,10.164,10.164,0,0,0-1.474-3.55,11.479,11.479,0,0,0-2.7-2.815" transform="translate(-698.029 1542.84)" fill="#1f4068"/>
      <path id="Trazado_691625" data-name="Trazado 691625" d="M1140.148,859.1a32.741,32.741,0,0,0,4.216,7.97,73.715,73.715,0,0,0,5.738,6.988c2.022,2.247,4.1,4.452,6.208,6.632s4.235,4.338,6.252,6.61a51.133,51.133,0,0,1,5.5,7.275,35.144,35.144,0,0,1,3.8,8.321l.577,2.222.41,2.258c.088.759.157,1.521.236,2.28l.029.285.008.286.015.573.03,1.145a39.778,39.778,0,0,1-1.1,9.038l-.063-.013a46.915,46.915,0,0,0,.662-9.015,33.064,33.064,0,0,0-1.458-8.86,37.466,37.466,0,0,0-3.66-8.206,60.334,60.334,0,0,0-5.249-7.36c-1.923-2.334-4-4.545-6.133-6.693s-4.352-4.218-6.452-6.413a53.371,53.371,0,0,1-5.757-7.072,28.166,28.166,0,0,1-3.864-8.235Z" transform="translate(-624.519 1840.522)" fill="#1f4068"/>
      <path id="Trazado_691626" data-name="Trazado 691626" d="M1491.3,531.512c1.786,2.275,3.511,4.6,5.127,7,.4.6.808,1.2,1.2,1.809l1.154,1.84.577.921.552.936,1.1,1.871c.7,1.269,1.431,2.521,2.078,3.818l.993,1.934.946,1.957c1.246,2.617,2.418,5.27,3.477,7.969s2.024,5.434,2.883,8.2,1.656,5.556,2.306,8.381a93.35,93.35,0,0,1,2.544,17.162c-.236-2.883-.664-5.743-1.184-8.584s-1.129-5.664-1.844-8.46a138.084,138.084,0,0,0-12.631-32.138l-1.062-1.886-.531-.944-.556-.928-1.113-1.858-1.159-1.829c-.754-1.233-1.574-2.422-2.375-3.625-.394-.607-.824-1.187-1.24-1.778Z" transform="translate(-890.08 2088.221)" fill="#1f4068"/>
      <path id="Trazado_691627" data-name="Trazado 691627" d="M1493.4,746.481a4.728,4.728,0,1,1-4.727-4.728,4.727,4.727,0,0,1,4.727,4.728" transform="translate(-884.518 1929.253)" fill="#f9a21b"/>
      <path id="Trazado_691628" data-name="Trazado 691628" d="M677.715,910.692s-18.684-27.739-18.109-49.585l13.068-26.666a41.475,41.475,0,0,1,8.969-12.092l.2-.184a42.479,42.479,0,0,0,12.482-21.673c.856-3.767,1.726-7.556,2.3-10.061a26.421,26.421,0,0,1,1.985-5.624l6.719-13.829a20.716,20.716,0,0,0,1.59-13.54l-1.7-7.681a3.65,3.65,0,0,1,4.743-4.244c6.481,2.2,15.107,10,7.881,37.056,0,0,19.644-1.865,31.864.013a7.649,7.649,0,0,1,6.5,7.309l0,.11a7.248,7.248,0,0,1-2.541,5.765l-.831.708a8.346,8.346,0,0,1,4.381,6.909,6.782,6.782,0,0,1-3.269,6.166l-2.394,1.442a3.81,3.81,0,0,1,3.17,3.715,7.834,7.834,0,0,1-2.717,6.018l-3.175,2.738,1.5.534a4.051,4.051,0,0,1,2.557,2.79,7.285,7.285,0,0,1-1.533,6.6,47.148,47.148,0,0,1-14.456,11.5s-14.531,3.781-24.021,3.04c0,0-10.543,19.523-12.3,39.713a64.977,64.977,0,0,1-22.854,23.052" transform="translate(-261.206 1926.561)" fill="#ffc89f"/>
      <path id="Trazado_691629" data-name="Trazado 691629" d="M854.857,898.076c-.593.082-1.186.158-1.777.249s-1.183.168-1.773.261c-1.181.184-2.361.366-3.534.59q-1.763.313-3.509.714c-.291.064-.58.14-.87.209s-.579.145-.866.227c-.581.142-1.147.33-1.722.5a28.367,28.367,0,0,1,3.414-1.116c1.16-.3,2.334-.544,3.51-.771,1.18-.2,2.364-.39,3.552-.535s2.38-.264,3.576-.325" transform="translate(-398.225 1811.055)" fill="#ff9b6c"/>
      <path id="Trazado_691630" data-name="Trazado 691630" d="M989.7,954.992c-.705.026-1.41.049-2.115.086s-1.409.065-2.112.106c-1.407.082-2.814.169-4.218.293-1.406.1-2.807.253-4.207.409-.7.079-1.4.164-2.1.265-.7.08-1.395.206-2.1.3q2.068-.455,4.169-.749c1.4-.2,2.8-.346,4.212-.466,1.409-.1,2.818-.2,4.23-.237s2.824-.056,4.235-.005" transform="translate(-498.068 1768.043)" fill="#ff9b6c"/>
      <path id="Trazado_691631" data-name="Trazado 691631" d="M923.7,928.881a7.625,7.625,0,0,1-.09-2.719,6.923,6.923,0,0,1,.322-1.332,5.229,5.229,0,0,1,.613-1.219,10.407,10.407,0,0,0-.694,2.586c-.064.441-.1.886-.128,1.334s-.033.9-.023,1.351" transform="translate(-460.773 1791.747)" fill="#ff9b6c"/>
      <path id="Trazado_691632" data-name="Trazado 691632" d="M960.745,1115.746a2.942,2.942,0,0,1-.694-.335,4.037,4.037,0,0,1-.607-.478,3.4,3.4,0,0,1-.5-.6,2.412,2.412,0,0,1-.318-.7c.159.2.3.4.471.59s.331.367.512.536c.355.345.737.661,1.132.989" transform="translate(-487.317 1648.068)" fill="#ff9b6c"/>
      <path id="Trazado_691633" data-name="Trazado 691633" d="M933.522,994.946a8.04,8.04,0,0,1-.646-1.427,9.608,9.608,0,0,1-.4-1.521,7.944,7.944,0,0,1-.122-1.57,6.224,6.224,0,0,1,.224-1.552c-.007.262-.053.517-.042.777,0,.129-.011.258-.009.386l.015.386a12.412,12.412,0,0,0,.175,1.53c.086.507.2,1.008.335,1.507.067.249.14.5.221.743s.161.493.247.739" transform="translate(-467.448 1742.398)" fill="#ff9b6c"/>
      <path id="Trazado_691634" data-name="Trazado 691634" d="M947.07,1056.271a8.072,8.072,0,0,1-.958-1.239,9.631,9.631,0,0,1-.737-1.389,7.956,7.956,0,0,1-.481-1.5,6.23,6.23,0,0,1-.14-1.562c.054.257.068.515.138.766.028.126.049.253.081.378l.1.372a12.48,12.48,0,0,0,.523,1.449c.2.473.431.934.674,1.389.123.227.251.452.386.672s.27.442.411.662" transform="translate(-476.822 1695.74)" fill="#ff9b6c"/>
      <path id="Trazado_691635" data-name="Trazado 691635" d="M849.306,1158.544c-.8-.044-1.605-.14-2.4-.254s-1.591-.263-2.379-.436a19.9,19.9,0,0,1-2.33-.659,7.858,7.858,0,0,1-2.163-1.078l.533.281.553.233c.375.139.751.277,1.136.386.767.227,1.542.43,2.325.6s1.568.336,2.356.49q.591.116,1.185.22Z" transform="translate(-397.639 1615.944)" fill="#ff9b6c"/>
      <path id="Trazado_691636" data-name="Trazado 691636" d="M1002.762,1014.613a21.776,21.776,0,0,1-2.693.577c-.907.145-1.822.237-2.737.32-.917.054-1.835.109-2.753.106-.459.006-.918-.012-1.377-.019s-.917-.045-1.374-.079c.917-.032,1.832-.046,2.747-.09s1.828-.088,2.739-.161,1.822-.158,2.73-.262q.682-.075,1.361-.177c.454-.06.905-.134,1.357-.215" transform="translate(-512.417 1722.937)" fill="#ff9b6c"/>
      <path id="Trazado_691637" data-name="Trazado 691637" d="M1003.566,1065.748c-.245.215-.51.4-.775.593s-.545.356-.825.523a15.364,15.364,0,0,1-1.739.89,15.192,15.192,0,0,1-1.835.669c-.311.1-.628.172-.944.249s-.639.125-.959.177c.62-.2,1.239-.378,1.845-.6s1.206-.456,1.8-.714,1.171-.538,1.746-.83,1.137-.612,1.69-.953" transform="translate(-515.942 1684.274)" fill="#ff9b6c"/>
      <path id="Trazado_691638" data-name="Trazado 691638" d="M1608.716,884.488s18.684-27.739,18.109-49.585l-13.068-26.666a41.468,41.468,0,0,0-8.969-12.092l-.2-.184a42.481,42.481,0,0,1-12.482-21.673c-.856-3.767-1.726-7.556-2.3-10.061a26.428,26.428,0,0,0-1.985-5.624l-6.719-13.83a20.715,20.715,0,0,1-1.591-13.54l1.7-7.681a3.65,3.65,0,0,0-4.743-4.244c-6.481,2.2-15.107,10-7.881,37.056,0,0-19.644-1.865-31.865.013a7.65,7.65,0,0,0-6.5,7.309l0,.11a7.247,7.247,0,0,0,2.541,5.765l.831.708a8.345,8.345,0,0,0-4.381,6.908,6.78,6.78,0,0,0,3.269,6.166l2.394,1.442a3.811,3.811,0,0,0-3.171,3.715,7.835,7.835,0,0,0,2.717,6.018l3.175,2.738-1.5.534a4.051,4.051,0,0,0-2.557,2.79,7.283,7.283,0,0,0,1.533,6.6,47.136,47.136,0,0,0,14.456,11.5s14.531,3.781,24.021,3.04c0,0,10.543,19.523,12.3,39.713a64.977,64.977,0,0,0,22.854,23.052" transform="translate(-918.74 1946.374)" fill="#ffc89f"/>
      <path id="Trazado_691640" data-name="Trazado 691640" d="M1547.21,928.788c1.411-.05,2.823-.036,4.235.005s2.821.133,4.23.237c1.407.12,2.813.271,4.212.466s2.79.445,4.169.749c-.7-.092-1.394-.219-2.095-.3-.7-.1-1.4-.185-2.1-.264-1.4-.156-2.8-.308-4.208-.409-1.4-.125-2.811-.212-4.218-.293q-1.056-.061-2.113-.106c-.7-.038-1.409-.06-2.115-.086" transform="translate(-932.354 1787.856)" fill="#ff9b6c"/>
      <path id="Trazado_691641" data-name="Trazado 691641" d="M1662.288,902.677c.01-.454,0-.9-.023-1.351s-.064-.893-.128-1.334a10.422,10.422,0,0,0-.694-2.586,5.233,5.233,0,0,1,.613,1.219,6.9,6.9,0,0,1,.322,1.332,7.624,7.624,0,0,1-.09,2.719" transform="translate(-1018.728 1811.561)" fill="#ff9b6c"/>
      <path id="Trazado_691642" data-name="Trazado 691642" d="M1621.832,1089.542c.394-.329.776-.643,1.131-.989.182-.168.347-.352.512-.536s.311-.386.47-.59a2.4,2.4,0,0,1-.318.7,3.409,3.409,0,0,1-.5.6,4.037,4.037,0,0,1-.607.478,2.938,2.938,0,0,1-.694.335" transform="translate(-988.778 1667.882)" fill="#ff9b6c"/>
      <path id="Trazado_691643" data-name="Trazado 691643" d="M1651.989,968.742c.087-.246.176-.49.248-.739s.154-.494.221-.743c.131-.5.249-1,.335-1.507a12.456,12.456,0,0,0,.175-1.53l.015-.386c0-.129-.007-.257-.009-.386.011-.26-.035-.515-.042-.777a6.252,6.252,0,0,1,.224,1.552,8,8,0,0,1-.123,1.57,9.659,9.659,0,0,1-.4,1.521,8.056,8.056,0,0,1-.647,1.427" transform="translate(-1011.579 1762.211)" fill="#ff9b6c"/>
      <path id="Trazado_691644" data-name="Trazado 691644" d="M1634.871,1030.068c.141-.22.283-.436.411-.662s.263-.445.386-.673c.243-.455.473-.916.674-1.389a12.541,12.541,0,0,0,.523-1.449l.1-.372c.031-.125.052-.252.081-.378.07-.25.083-.509.138-.766a6.225,6.225,0,0,1-.139,1.562,7.96,7.96,0,0,1-.481,1.5,9.618,9.618,0,0,1-.737,1.388,8.02,8.02,0,0,1-.958,1.239" transform="translate(-998.636 1715.552)" fill="#ff9b6c"/>
      <path id="Trazado_691645" data-name="Trazado 691645" d="M1711.068,1132.34l1.187-.218q.594-.1,1.185-.22c.788-.154,1.575-.312,2.356-.49s1.559-.374,2.326-.6c.386-.109.761-.247,1.136-.386l.554-.233.533-.281a7.849,7.849,0,0,1-2.163,1.078,19.9,19.9,0,0,1-2.33.66c-.788.173-1.58.326-2.379.436s-1.6.209-2.4.253" transform="translate(-1056.251 1635.757)" fill="#ff9b6c"/>
      <path id="Trazado_691646" data-name="Trazado 691646" d="M1552.468,988.41c.452.081.9.155,1.358.215s.906.127,1.361.177c.909.1,1.818.2,2.73.263s1.825.125,2.739.161,1.83.058,2.747.09c-.457.034-.916.058-1.375.079s-.918.024-1.377.018c-.919,0-1.837-.051-2.754-.105-.915-.083-1.83-.175-2.737-.32a21.8,21.8,0,0,1-2.693-.577" transform="translate(-936.33 1742.75)" fill="#ff9b6c"/>
      <path id="Trazado_691647" data-name="Trazado 691647" d="M1563.626,1039.545c.553.341,1.117.656,1.69.953s1.153.577,1.746.829,1.189.5,1.8.714,1.225.407,1.845.6c-.32-.052-.641-.106-.959-.177s-.633-.153-.944-.249a15.813,15.813,0,0,1-3.574-1.559q-.419-.25-.825-.523c-.264-.191-.53-.378-.775-.593" transform="translate(-944.766 1704.086)" fill="#ff9b6c"/>
      <path id="Trazado_691665" data-name="Trazado 691665" d="M388.633,869h0a6.531,6.531,0,0,1,11.15,4.618,6.531,6.531,0,1,1,11.15,4.618l-11.15,11.15-11.15-11.15a6.531,6.531,0,0,1,0-9.237" transform="translate(-54.882 1834.499)" fill="#fff"/>
      <g id="Grupo_952275" data-name="Grupo 952275" transform="translate(360.721 2814.201)">
        <g id="Grupo_895609" data-name="Grupo 895609" transform="translate(21.101 27.407)" clip-path="url(#clip-path-10)">
          <path id="Trazado_691556" data-name="Trazado 691556" d="M577.642,1441.289a53.894,53.894,0,0,0,30.333,23.833s-5.072-1.321-10.747-3.367a29.767,29.767,0,0,1-16.01-13.685c-1.227-2.237-2.5-4.624-3.576-6.782" transform="translate(-577.642 -1441.289)" fill="#a65b3c"/>
        </g>
        <path id="Trazado_691572" data-name="Trazado 691572" d="M790.986,1328.909c-.167,2.281-.388,4.557-.63,6.831s-.536,4.543-.847,6.808-.664,4.526-1.042,6.782-.787,4.507-1.24,6.75c-.915,4.482-1.962,8.941-3.257,13.331-.657,2.191-1.345,4.375-2.143,6.519s-1.671,4.26-2.654,6.325c.947-2.082,1.781-4.211,2.541-6.366s1.441-4.337,2.076-6.532c1.256-4.393,2.3-8.845,3.2-13.326.914-4.478,1.669-8.988,2.336-13.51q.5-3.391.914-6.8c.281-2.269.542-4.54.748-6.817" transform="translate(-708.922 -1328.909)" fill="#a65b3c"/>
        <path id="Trazado_691573" data-name="Trazado 691573" d="M562.537,1409.558a41.993,41.993,0,0,0,3.386,7.109,53.806,53.806,0,0,0,9.811,12.259c.489.437.962.893,1.464,1.316l1.512,1.261,1.565,1.195.391.3.4.281.81.559.807.563c.274.18.554.351.831.527l.833.525c.279.172.551.357.841.511l1.715.967c.283.167.577.312.871.458l.881.44.881.441c.292.15.6.269.9.405l1.8.792c.61.243,1.227.469,1.84.7l.921.349c.309.112.624.205.935.308l1.875.606c.628.192,1.267.346,1.9.52l.952.255.476.126.482.1,1.927.414c.322.067.64.149.964.2l.972.163,1.945.327c.323.061.651.092.977.132l.979.115,1.959.231-1.963-.2-.982-.1c-.327-.035-.655-.06-.98-.117l-1.951-.3-.976-.149c-.325-.05-.646-.127-.969-.189l-1.933-.4-.484-.1-.478-.124-.955-.25c-.635-.172-1.277-.323-1.908-.512l-1.883-.6c-.313-.1-.629-.194-.94-.3l-.925-.346c-.616-.233-1.236-.456-1.849-.7l-1.814-.785c-.3-.135-.609-.253-.9-.4l-.886-.437-.886-.438c-.3-.145-.592-.289-.877-.455l-1.727-.962c-.291-.154-.566-.337-.847-.509l-.839-.522c-.279-.175-.561-.346-.838-.525l-.813-.562-.811-.566-.4-.284-.392-.3-1.565-1.208-1.511-1.274c-.5-.427-.975-.887-1.463-1.329a54.15,54.15,0,0,1-5.342-5.816,47.345,47.345,0,0,1-7.717-13.7" transform="translate(-545.119 -1389.89)" fill="#a65b3c"/>
        <path id="Trazado_691574" data-name="Trazado 691574" d="M498.813,1506.821a9.255,9.255,0,0,1-1.976-1.441,14.386,14.386,0,0,1-1.64-1.827,18.571,18.571,0,0,1-2.36-4.3l-.424-1.154-.336-1.181-.168-.591-.125-.6-.242-1.2c-.046-.2-.065-.4-.091-.606l-.075-.608-.149-1.216c-.036-.817-.08-1.632-.108-2.446.083.812.15,1.624.226,2.434l.183,1.207.091.6c.031.2.056.4.107.6l.263,1.19.13.6.172.584.344,1.168.43,1.138a19.223,19.223,0,0,0,2.284,4.277,14.472,14.472,0,0,0,1.572,1.853,9.861,9.861,0,0,0,1.893,1.527" transform="translate(-491.119 -1450.446)" fill="#a65b3c"/>
        <path id="Trazado_691575" data-name="Trazado 691575" d="M723.922,1556.994c-.752,3.667-1.69,7.3-2.743,10.89-.523,1.8-1.1,3.582-1.694,5.357s-1.228,3.54-1.9,5.286-1.392,3.479-2.165,5.186-1.57,3.4-2.464,5.051-1.814,3.28-2.849,4.844a47.287,47.287,0,0,1-3.355,4.5,47.251,47.251,0,0,0,3.255-4.566c1.011-1.573,1.915-3.212,2.783-4.867a100,100,0,0,0,4.568-10.238c1.362-3.483,2.55-7.033,3.647-10.608q.82-2.684,1.55-5.393c.491-1.805.96-3.617,1.372-5.443" transform="translate(-654.161 -1501.369)" fill="#a65b3c"/>
      </g>
      <g id="Grupo_895600" data-name="Grupo 895600" transform="translate(450.638 2797.682)" clip-path="url(#clip-path-11)">
        <path id="Trazado_691553" data-name="Trazado 691553" d="M873.857,1261.317c0-.058-.006-.106-.008-.139,0,.047,0,.092.008.139" transform="translate(-873.849 -1261.178)" fill="#a65b3c"/>
      </g>
    </g>
    <g id="Grupo_952277" data-name="Grupo 952277" transform="translate(708.584 2548.941)">
      <g transform="matrix(1, 0, 0, 1, -432.48, -16.64)" filter="url(#Trazado_691541)">
        <path id="Trazado_691541-2" data-name="Trazado 691541" d="M1715.737,586.852l-.456,55.705a8.562,8.562,0,0,0,8.66,8.453l24.976.279,8.48,17.9a3.236,3.236,0,0,0,5.748.064l8.878-17.7,24.976.279a8.562,8.562,0,0,0,8.847-8.258l.456-55.7a8.562,8.562,0,0,0-8.66-8.453l-73.059-.815a8.562,8.562,0,0,0-8.847,8.258" transform="translate(-1267.3 -478.48)" fill="#dee4f0"/>
      </g>
      <g transform="matrix(1, 0, 0, 1, -432.48, -16.64)" filter="url(#Trazado_691542)">
        <path id="Trazado_691542-3" data-name="Trazado 691542" d="M2150.916,478.917l-.323,39.489a6.069,6.069,0,0,0,6.139,5.992l17.706.2,6.012,12.686a2.294,2.294,0,0,0,4.075.045l6.293-12.549,17.706.2a6.069,6.069,0,0,0,6.271-5.854l.323-39.489a6.07,6.07,0,0,0-6.139-5.992l-51.791-.578a6.07,6.07,0,0,0-6.272,5.854" transform="translate(-1596.22 -398.74)" fill="#dee4f0"/>
      </g>
      <g transform="matrix(1, 0, 0, 1, -432.48, -16.64)" filter="url(#Trazado_691543)">
        <path id="Trazado_691543-3" data-name="Trazado 691543" d="M1652.186,242.339l-.292,35.7a5.487,5.487,0,0,0,5.55,5.417l16.007.179,5.435,11.469a2.074,2.074,0,0,0,3.684.041l5.689-11.345,16.007.179a5.487,5.487,0,0,0,5.669-5.292l.292-35.7a5.488,5.488,0,0,0-5.551-5.418l-46.822-.522a5.488,5.488,0,0,0-5.67,5.292" transform="translate(-1219.41 -220.41)" fill="#b0c0d2"/>
      </g>
      <path id="Trazado_691639" data-name="Trazado 691639" d="M1690.711,871.873c1.2.061,2.392.182,3.584.325s2.377.331,3.56.536c1.178.228,2.356.468,3.518.773a28.46,28.46,0,0,1,3.421,1.119c-.576-.169-1.144-.357-1.726-.5-.288-.082-.576-.16-.868-.227s-.58-.146-.872-.21q-1.749-.4-3.517-.715c-1.175-.224-2.359-.406-3.542-.591q-.886-.14-1.777-.262c-.592-.091-1.187-.167-1.781-.249" transform="translate(-1681.224 -716.711)" fill="#ff9b6c"/>
      <path id="Trazado_691648" data-name="Trazado 691648" d="M1970.373,679.327h-13.251V667.495h8.781Z" transform="translate(-1882.519 -562.286)" fill="#112e4c"/>
      <path id="Trazado_691649" data-name="Trazado 691649" d="M1821.745,334.9l-.47,57.413a8.825,8.825,0,0,0,8.926,8.712l25.741.287,8.741,18.444a3.335,3.335,0,0,0,5.924.066l9.15-18.245,25.742.287a8.825,8.825,0,0,0,9.118-8.511l.469-57.412a8.824,8.824,0,0,0-8.926-8.712l-75.3-.84a8.824,8.824,0,0,0-9.118,8.511" transform="translate(-1779.875 -304.555)" fill="#112e4c"/>
      <path id="Trazado_691650" data-name="Trazado 691650" d="M1767.538,334.9l-.47,57.413a8.824,8.824,0,0,0,8.926,8.712l25.742.287,8.741,18.444a3.335,3.335,0,0,0,5.924.066l9.15-18.245,25.742.287a8.824,8.824,0,0,0,9.118-8.511l.47-57.412a8.824,8.824,0,0,0-8.926-8.712l-75.3-.84a8.825,8.825,0,0,0-9.118,8.511" transform="translate(-1738.917 -304.555)" fill="#1f4168"/>
      <path id="Trazado_691653" data-name="Trazado 691653" d="M2166.989,1038.45h-8.456v-7.55h5.6Z" transform="translate(-2034.701 -836.869)" fill="#112e4c"/>
      <path id="Trazado_691654" data-name="Trazado 691654" d="M2072.147,818.668l-.3,36.636a5.631,5.631,0,0,0,5.7,5.559l16.426.183,5.578,11.77a2.129,2.129,0,0,0,3.781.042l5.838-11.642,16.426.183a5.632,5.632,0,0,0,5.819-5.431l.3-36.636a5.632,5.632,0,0,0-5.7-5.559l-48.049-.536a5.631,5.631,0,0,0-5.818,5.431" transform="translate(-1969.203 -672.406)" fill="#112e4c"/>
      <path id="Trazado_691655" data-name="Trazado 691655" d="M2037.555,818.668l-.3,36.636a5.631,5.631,0,0,0,5.7,5.559l16.426.183,5.578,11.77a2.128,2.128,0,0,0,3.78.042l5.839-11.642L2091,861.4a5.631,5.631,0,0,0,5.818-5.431l.3-36.636a5.631,5.631,0,0,0-5.7-5.559l-48.05-.536a5.631,5.631,0,0,0-5.818,5.431" transform="translate(-1943.066 -672.406)" fill="#1f4168"/>
      <path id="Trazado_691656" data-name="Trazado 691656" d="M2130.421,869h0a15.8,15.8,0,0,1-22.349,0,6.545,6.545,0,0,0,0,9.257l11.174,11.174,11.174-11.174a6.545,6.545,0,0,0,0-9.257" transform="translate(-1995.125 -713.082)" fill="#fff"/>
      <path id="Trazado_697738" data-name="Trazado 697738" d="M336.551,746.425l-18.482-17.065,6.009-6.508,12.253,11.314L363.5,707.21l6.239,6.287Z" transform="translate(-260.753 -667.618)" fill="#fff"/>
    </g>
    <g id="Grupo_952282" data-name="Grupo 952282" transform="translate(285 2548.941)">
      <path id="Trazado_691541-3" data-name="Trazado 691541" d="M1805.848,586.852l.456,55.705a8.562,8.562,0,0,1-8.66,8.453l-24.976.279-8.48,17.9a3.236,3.236,0,0,1-5.748.064l-8.878-17.7-24.976.279a8.562,8.562,0,0,1-8.847-8.258l-.456-55.705a8.562,8.562,0,0,1,8.66-8.453l73.059-.815a8.562,8.562,0,0,1,8.847,8.258" transform="translate(-1635.381 -495.115)" fill="#dee4f0"/>
      <g transform="matrix(1, 0, 0, 1, -8.9, -16.64)" filter="url(#Trazado_691542-2)">
        <path id="Trazado_691542-4" data-name="Trazado 691542" d="M2214.8,478.917l.323,39.489a6.069,6.069,0,0,1-6.139,5.992l-17.706.2-6.012,12.686a2.294,2.294,0,0,1-4.075.045l-6.293-12.549-17.706.2a6.069,6.069,0,0,1-6.271-5.854l-.323-39.489a6.07,6.07,0,0,1,6.139-5.992l51.791-.578a6.07,6.07,0,0,1,6.272,5.854" transform="translate(-2141.59 -398.76)" fill="#dee4f0"/>
      </g>
      <g transform="matrix(1, 0, 0, 1, -8.9, -16.64)" filter="url(#Trazado_691543-2)">
        <path id="Trazado_691543-4" data-name="Trazado 691543" d="M1709.936,242.339l.292,35.7a5.487,5.487,0,0,1-5.55,5.417l-16.007.179-5.435,11.469a2.074,2.074,0,0,1-3.684.041l-5.689-11.345-16.007.179a5.487,5.487,0,0,1-5.669-5.292l-.292-35.7a5.488,5.488,0,0,1,5.551-5.418l46.822-.522a5.488,5.488,0,0,1,5.67,5.292" transform="translate(-1514.91 -220.41)" fill="#b0c0d2"/>
      </g>
      <path id="Trazado_691639-2" data-name="Trazado 691639" d="M1704.793,871.873c-1.2.061-2.392.182-3.584.325s-2.377.331-3.56.536c-1.178.228-2.356.468-3.518.773a28.46,28.46,0,0,0-3.421,1.119c.576-.169,1.144-.357,1.726-.5.288-.082.576-.16.868-.227s.58-.146.872-.21q1.749-.4,3.517-.715c1.175-.224,2.359-.406,3.542-.591q.886-.14,1.777-.262c.592-.091,1.187-.167,1.781-.249" transform="translate(-1527.864 -716.711)" fill="#ff9b6c"/>
      <path id="Trazado_691648-2" data-name="Trazado 691648" d="M1957.122,679.327h13.251V667.495h-8.781Z" transform="translate(-1858.56 -562.286)" fill="#112e4c"/>
      <path id="Trazado_691649-2" data-name="Trazado 691649" d="M1914.618,334.9l.47,57.413a8.825,8.825,0,0,1-8.926,8.712l-25.741.287-8.741,18.444a3.335,3.335,0,0,1-5.924.066l-9.15-18.245-25.742.287a8.825,8.825,0,0,1-9.118-8.511l-.469-57.413a8.824,8.824,0,0,1,8.926-8.712l75.3-.84a8.824,8.824,0,0,1,9.118,8.511" transform="translate(-1770.072 -304.556)" fill="#112e4c"/>
      <path id="Trazado_691650-2" data-name="Trazado 691650" d="M1860.411,334.9l.47,57.413a8.824,8.824,0,0,1-8.926,8.712l-25.742.287-8.741,18.444a3.335,3.335,0,0,1-5.924.066l-9.15-18.245-25.742.287a8.824,8.824,0,0,1-9.118-8.511l-.47-57.413a8.824,8.824,0,0,1,8.926-8.712l75.3-.84a8.825,8.825,0,0,1,9.118,8.511" transform="translate(-1702.615 -304.556)" fill="#1f4168"/>
      <path id="Trazado_691653-2" data-name="Trazado 691653" d="M2158.533,1038.45h8.456v-7.55h-5.6Z" transform="translate(-2104.404 -836.869)" fill="#112e4c"/>
      <path id="Trazado_691654-2" data-name="Trazado 691654" d="M2131.41,818.668l.3,36.636a5.631,5.631,0,0,1-5.7,5.559l-16.426.183-5.578,11.77a2.129,2.129,0,0,1-3.781.042l-5.838-11.642-16.426.183a5.632,5.632,0,0,1-5.819-5.431l-.3-36.636a5.632,5.632,0,0,1,5.7-5.559l48.049-.536a5.631,5.631,0,0,1,5.818,5.431" transform="translate(-2047.938 -672.406)" fill="#112e4c"/>
      <path id="Trazado_691655-2" data-name="Trazado 691655" d="M2096.819,818.668l.3,36.636a5.631,5.631,0,0,1-5.7,5.559l-16.426.183-5.578,11.77a2.128,2.128,0,0,1-3.78.042l-5.839-11.642-16.426.183a5.631,5.631,0,0,1-5.818-5.431l-.3-36.636a5.631,5.631,0,0,1,5.7-5.559l48.05-.536a5.631,5.631,0,0,1,5.818,5.431" transform="translate(-2004.892 -672.406)" fill="#1f4168"/>
      <path id="Trazado_691656-2" data-name="Trazado 691656" d="M2108.073,869h0a15.8,15.8,0,0,0,22.349,0,6.545,6.545,0,0,1,0,9.257l-11.174,11.175-11.174-11.175a6.545,6.545,0,0,1,0-9.257" transform="translate(-2056.952 -713.082)" fill="#fff"/>
      <g id="Enmascarar_grupo_117" data-name="Enmascarar grupo 117" transform="translate(-277.815 -2550.563)" clip-path="url(#clip-path-12)">
        <g id="Grupo_952292" data-name="Grupo 952292" transform="translate(359.147 2581.849)">
          <g id="Grupo_952291" data-name="Grupo 952291" clip-path="url(#clip-path-13)">
            <g id="Grupo_952290" data-name="Grupo 952290">
              <g id="Grupo_952289" data-name="Grupo 952289" clip-path="url(#clip-path-14)">
                <path id="Trazado_697739" data-name="Trazado 697739" d="M67.9,84.926l-1.808,2.85c-1.374.948-2.682.428-3.532-1.334L43.015,56.689l4.762-3.028,21.59,28.532A2.842,2.842,0,0,1,67.9,84.926" transform="translate(-11.685 -14.578)" fill="#f5f5f5"/>
                <path id="Trazado_697740" data-name="Trazado 697740" d="M12.328,40.689A21.757,21.757,0,1,1,42.784,12.6,21.754,21.754,0,0,1,12.328,40.689M33.044,4.1a20.286,20.286,0,1,0,8.418,9.117A20.292,20.292,0,0,0,33.044,4.1" transform="translate(-0.346 0)" fill="#ec99a8" stroke="#f5f5f5" stroke-width="1.5"/>
                <path id="Trazado_697741" data-name="Trazado 697741" d="M46.869,23.35a2.088,2.088,0,0,1-.022-.358c-.017-.234.01-.579-.042-1.02a15.558,15.558,0,0,0-.72-3.673,19.7,19.7,0,0,0-.953-2.4,21.023,21.023,0,0,0-1.489-2.568A20.009,20.009,0,0,0,41.6,10.762a19.249,19.249,0,0,0-2.612-2.355A17.906,17.906,0,0,0,35.976,6.6a19.4,19.4,0,0,0-3.085-1.1,18.445,18.445,0,0,0-5.509-.559,17.665,17.665,0,0,0-3.7.575c-.433.1-.755.227-.981.285a2.064,2.064,0,0,1-.347.092,2.041,2.041,0,0,1,.331-.135c.222-.074.54-.217.972-.328a16.514,16.514,0,0,1,3.717-.652,18.19,18.19,0,0,1,5.573.515,19.254,19.254,0,0,1,3.127,1.1A17.9,17.9,0,0,1,39.128,8.22a19.151,19.151,0,0,1,2.639,2.387,19.9,19.9,0,0,1,2.055,2.6,20.671,20.671,0,0,1,1.484,2.605,19.131,19.131,0,0,1,.936,2.439,14.692,14.692,0,0,1,.654,3.716,9.5,9.5,0,0,1,0,1.027,2.093,2.093,0,0,1-.025.357" transform="translate(-6.072 -1.285)" fill="#fff"/>
                <path id="Trazado_697742" data-name="Trazado 697742" d="M24.838,52.892c.015-.054,1.009.316,2.685.545l.658.079c.229.026.47.026.717.042.5.04,1.025.014,1.583,0A18.479,18.479,0,0,0,34.06,53a18.526,18.526,0,0,0,3.377-1.312c.488-.271.96-.515,1.368-.8.206-.138.414-.259.6-.4l.529-.4c1.334-1.04,2.007-1.859,2.048-1.82a4.609,4.609,0,0,1-.475.567,6.356,6.356,0,0,1-.607.621,10.5,10.5,0,0,1-.864.761l-.526.416c-.184.143-.393.269-.6.412a15.792,15.792,0,0,1-1.374.827,17.777,17.777,0,0,1-3.417,1.347,17.8,17.8,0,0,1-3.629.551,15.622,15.622,0,0,1-1.6-.025c-.251-.02-.493-.025-.725-.055L27.5,53.6a10.7,10.7,0,0,1-1.129-.224,6.347,6.347,0,0,1-.837-.232,4.425,4.425,0,0,1-.7-.252" transform="translate(-6.747 -13.113)" fill="#fff"/>
                <path id="Trazado_699242" data-name="Trazado 699242" d="M5.3.26A5.168,5.168,0,0,1,3.458-.065a4.437,4.437,0,0,1-1.482-.91A4.236,4.236,0,0,1,1-2.34,4.134,4.134,0,0,1,.65-4.056a3.78,3.78,0,0,1,.429-1.781,4.084,4.084,0,0,1,1.2-1.391,5.929,5.929,0,0,1,1.833-.9,8,8,0,0,1,2.34-.325,10.083,10.083,0,0,1,1.781.156,7.255,7.255,0,0,1,1.547.442v-.78a2.731,2.731,0,0,0-.767-2.08,3.189,3.189,0,0,0-2.275-.728,6.026,6.026,0,0,0-2.132.39A9.9,9.9,0,0,0,2.47-9.906L1.4-12.116a10.059,10.059,0,0,1,5.668-1.742,6.641,6.641,0,0,1,4.563,1.443A5.287,5.287,0,0,1,13.26-8.242V-4a1.224,1.224,0,0,0,.195.78.855.855,0,0,0,.637.26V0a7.757,7.757,0,0,1-1.534.182A2.323,2.323,0,0,1,11.037-.26a1.9,1.9,0,0,1-.663-1.17L10.3-2.184a6.03,6.03,0,0,1-2.21,1.82A6.346,6.346,0,0,1,5.3.26Zm.988-2.548A4.539,4.539,0,0,0,7.969-2.6,3.044,3.044,0,0,0,9.2-3.432a1.252,1.252,0,0,0,.572-.988V-5.98a8.53,8.53,0,0,0-1.352-.377A7.282,7.282,0,0,0,7.02-6.5a3.722,3.722,0,0,0-2.21.611,1.835,1.835,0,0,0-.858,1.547,1.861,1.861,0,0,0,.676,1.469A2.454,2.454,0,0,0,6.292-2.288ZM24.258.26a5.484,5.484,0,0,1-2.782-.7,5.126,5.126,0,0,1-1.924-1.924V0H16.51V-18.98h3.484v7.748a5.255,5.255,0,0,1,1.911-1.937,5.4,5.4,0,0,1,2.769-.689,5.131,5.131,0,0,1,2.418.572,6.073,6.073,0,0,1,1.885,1.534A6.929,6.929,0,0,1,30.2-9.49a8.655,8.655,0,0,1,.429,2.73A7.74,7.74,0,0,1,30.147-4a6.923,6.923,0,0,1-1.339,2.223,6.293,6.293,0,0,1-2.028,1.5A5.89,5.89,0,0,1,24.258.26ZM23.3-2.7a3.606,3.606,0,0,0,1.534-.325,3.672,3.672,0,0,0,1.2-.871,3.939,3.939,0,0,0,.767-1.274,4.406,4.406,0,0,0,.273-1.56,4.831,4.831,0,0,0-.26-1.586,4.129,4.129,0,0,0-.741-1.326,3.691,3.691,0,0,0-1.131-.91,3.053,3.053,0,0,0-1.43-.338,3.186,3.186,0,0,0-2.093.767,5.09,5.09,0,0,0-1.417,1.885v3.25a2.95,2.95,0,0,0,.533.936,3.874,3.874,0,0,0,.793.715,3.808,3.808,0,0,0,.962.468A3.271,3.271,0,0,0,23.3-2.7Z" transform="translate(7.719 31.077)" fill="#e8e8e8" opacity="0.55"/>
                <path id="Trazado_697744" data-name="Trazado 697744" d="M33.638,35.54a1.35,1.35,0,0,1-.207-.2l-.558-.608-2.028-2.256c-1.71-1.908-4.08-4.536-6.729-7.41s-5.078-5.449-6.841-7.309l-2.085-2.2-.561-.605a1.307,1.307,0,0,1-.184-.223,1.358,1.358,0,0,1,.218.189l.592.575c.511.5,1.242,1.238,2.138,2.154,1.794,1.83,4.241,4.39,6.893,7.265s5,5.523,6.682,7.459c.84.968,1.513,1.756,1.973,2.307l.525.637a1.374,1.374,0,0,1,.171.232" transform="translate(-3.924 -3.999)" fill="#fff"/>
                <path id="Trazado_697743" data-name="Trazado 697743" d="M40.731,30.689c-.046.045-2.883-2.795-6.334-6.341s-6.214-6.459-6.168-6.5,2.882,2.794,6.335,6.342,6.213,6.458,6.168,6.5" transform="translate(-7.669 -4.847)" fill="#fff"/>
              </g>
            </g>
          </g>
        </g>
      </g>
    </g>
  </g>
</svg>
