<svg xmlns="http://www.w3.org/2000/svg" xmlns:xlink="http://www.w3.org/1999/xlink" width="281" height="216.677" viewBox="0 0 281 216.677">
  <defs>
    <clipPath id="clip-path">
      <rect id="Rectángulo_344817" data-name="Rectángulo 344817" width="205.77" height="136.314" fill="none"/>
    </clipPath>
    <clipPath id="clip-path-3">
      <rect id="Rectángulo_344888" data-name="Rectángulo 344888" width="281" height="201" transform="translate(345 3097)" fill="#fff" opacity="0.85"/>
    </clipPath>
    <clipPath id="clip-path-4">
      <rect id="Rectángulo_344848" data-name="Rectángulo 344848" width="246.96" height="294.215" fill="none"/>
    </clipPath>
    <clipPath id="clip-path-6">
      <rect id="Rectángulo_344845" data-name="Rectángulo 344845" width="35.286" height="19.61" fill="none"/>
    </clipPath>
    <clipPath id="clip-path-7">
      <rect id="Rectángulo_344846" data-name="Rectángulo 344846" width="38.903" height="3.152" fill="none"/>
    </clipPath>
    <clipPath id="clip-path-8">
      <rect id="Rectángulo_344890" data-name="Rectángulo 344890" width="78.249" height="62.011" fill="none"/>
    </clipPath>
  </defs>
  <g id="Grupo_952393" data-name="Grupo 952393" transform="translate(-342 -3090.798)">
    <g id="Grupo_952325" data-name="Grupo 952325" transform="translate(-464.424 -38.968)">
      <path id="Trazado_113636" data-name="Trazado 113636" d="M216.678,257.357A108.339,108.339,0,1,1,108.339,149.018,108.339,108.339,0,0,1,216.678,257.357" transform="translate(846.768 2980.748)" fill="#4db1f0"/>
      <path id="Trazado_113639" data-name="Trazado 113639" d="M627.881,671.772a38.308,38.308,0,1,1-38.308-38.308,38.308,38.308,0,0,1,38.308,38.308" transform="translate(409.143 2596.167)" fill="#fff"/>
      <path id="Trazado_113665" data-name="Trazado 113665" d="M128.318,380.549a2.421,2.421,0,1,1-2.421-2.421,2.421,2.421,0,0,1,2.421,2.421" transform="translate(748.746 2798.868)" fill="#fff"/>
      <path id="Trazado_113666" data-name="Trazado 113666" d="M179.993,380.549a2.421,2.421,0,1,1-2.421-2.421,2.421,2.421,0,0,1,2.421,2.421" transform="translate(707.723 2798.868)" fill="#fff"/>
      <path id="Trazado_113667" data-name="Trazado 113667" d="M231.668,380.549a2.421,2.421,0,1,1-2.421-2.421,2.421,2.421,0,0,1,2.421,2.421" transform="translate(666.7 2798.868)" fill="#fff"/>
      <path id="Trazado_113668" data-name="Trazado 113668" d="M283.343,380.549a2.421,2.421,0,1,1-2.421-2.421,2.421,2.421,0,0,1,2.421,2.421" transform="translate(625.678 2798.868)" fill="#fff"/>
      <path id="Trazado_113669" data-name="Trazado 113669" d="M335.018,380.549a2.421,2.421,0,1,1-2.421-2.421,2.421,2.421,0,0,1,2.421,2.421" transform="translate(584.656 2798.868)" fill="#fff"/>
      <path id="Trazado_113670" data-name="Trazado 113670" d="M128.318,429.875a2.421,2.421,0,1,1-2.421-2.421,2.421,2.421,0,0,1,2.421,2.421" transform="translate(748.746 2759.709)" fill="#fff"/>
      <path id="Trazado_113671" data-name="Trazado 113671" d="M179.993,429.875a2.421,2.421,0,1,1-2.421-2.421,2.421,2.421,0,0,1,2.421,2.421" transform="translate(707.723 2759.709)" fill="#fff"/>
      <path id="Trazado_113672" data-name="Trazado 113672" d="M231.668,429.875a2.421,2.421,0,1,1-2.421-2.421,2.421,2.421,0,0,1,2.421,2.421" transform="translate(666.7 2759.709)" fill="#fff"/>
      <path id="Trazado_113673" data-name="Trazado 113673" d="M283.343,429.875a2.421,2.421,0,1,1-2.421-2.421,2.421,2.421,0,0,1,2.421,2.421" transform="translate(625.678 2759.709)" fill="#fff"/>
      <path id="Trazado_113674" data-name="Trazado 113674" d="M335.018,429.875a2.421,2.421,0,1,1-2.421-2.421,2.421,2.421,0,0,1,2.421,2.421" transform="translate(584.656 2759.709)" fill="#fff"/>
      <path id="Trazado_113675" data-name="Trazado 113675" d="M128.318,479.2a2.421,2.421,0,1,1-2.421-2.421,2.421,2.421,0,0,1,2.421,2.421" transform="translate(748.746 2720.551)" fill="#fff"/>
      <path id="Trazado_113676" data-name="Trazado 113676" d="M179.993,479.2a2.421,2.421,0,1,1-2.421-2.421,2.421,2.421,0,0,1,2.421,2.421" transform="translate(707.723 2720.551)" fill="#fff"/>
      <path id="Trazado_113677" data-name="Trazado 113677" d="M231.668,479.2a2.421,2.421,0,1,1-2.421-2.421,2.421,2.421,0,0,1,2.421,2.421" transform="translate(666.7 2720.551)" fill="#fff"/>
      <path id="Trazado_113678" data-name="Trazado 113678" d="M283.343,479.2a2.421,2.421,0,1,1-2.421-2.421,2.421,2.421,0,0,1,2.421,2.421" transform="translate(625.678 2720.551)" fill="#fff"/>
      <path id="Trazado_113679" data-name="Trazado 113679" d="M335.018,479.2a2.421,2.421,0,1,1-2.421-2.421,2.421,2.421,0,0,1,2.421,2.421" transform="translate(584.656 2720.551)" fill="#fff"/>
      <path id="Trazado_113680" data-name="Trazado 113680" d="M128.318,528.528a2.421,2.421,0,1,1-2.421-2.421,2.421,2.421,0,0,1,2.421,2.421" transform="translate(748.746 2681.394)" fill="#fff"/>
      <path id="Trazado_113681" data-name="Trazado 113681" d="M179.993,528.528a2.421,2.421,0,1,1-2.421-2.421,2.421,2.421,0,0,1,2.421,2.421" transform="translate(707.723 2681.394)" fill="#fff"/>
      <path id="Trazado_113682" data-name="Trazado 113682" d="M231.668,528.528a2.421,2.421,0,1,1-2.421-2.421,2.421,2.421,0,0,1,2.421,2.421" transform="translate(666.7 2681.394)" fill="#fff"/>
      <path id="Trazado_113683" data-name="Trazado 113683" d="M283.343,528.528a2.421,2.421,0,1,1-2.421-2.421,2.421,2.421,0,0,1,2.421,2.421" transform="translate(625.678 2681.394)" fill="#fff"/>
      <path id="Trazado_113684" data-name="Trazado 113684" d="M335.018,528.528a2.421,2.421,0,1,1-2.421-2.421,2.421,2.421,0,0,1,2.421,2.421" transform="translate(584.656 2681.394)" fill="#fff"/>
      <path id="Trazado_113685" data-name="Trazado 113685" d="M128.318,577.854a2.421,2.421,0,1,1-2.421-2.421,2.421,2.421,0,0,1,2.421,2.421" transform="translate(748.746 2642.236)" fill="#fff"/>
      <path id="Trazado_113686" data-name="Trazado 113686" d="M179.993,577.854a2.421,2.421,0,1,1-2.421-2.421,2.421,2.421,0,0,1,2.421,2.421" transform="translate(707.723 2642.236)" fill="#fff"/>
      <path id="Trazado_113687" data-name="Trazado 113687" d="M231.668,577.854a2.421,2.421,0,1,1-2.421-2.421,2.421,2.421,0,0,1,2.421,2.421" transform="translate(666.7 2642.236)" fill="#fff"/>
      <path id="Trazado_113688" data-name="Trazado 113688" d="M283.343,577.854a2.421,2.421,0,1,1-2.421-2.421,2.421,2.421,0,0,1,2.421,2.421" transform="translate(625.678 2642.236)" fill="#fff"/>
      <path id="Trazado_113689" data-name="Trazado 113689" d="M335.018,577.854a2.421,2.421,0,1,1-2.421-2.421,2.421,2.421,0,0,1,2.421,2.421" transform="translate(584.656 2642.236)" fill="#fff"/>
      <path id="Trazado_113690" data-name="Trazado 113690" d="M177.376,0h28.251a4.862,4.862,0,0,1,4.862,4.862v9.691a4.862,4.862,0,0,1-4.862,4.862H177.376a4.862,4.862,0,0,1-4.862-4.862V4.864A4.862,4.862,0,0,1,177.376,0" transform="translate(860.817 3182.757)" fill="#eb9ba8"/>
      <path id="Trazado_113691" data-name="Trazado 113691" d="M210.4,38a2.362,2.362,0,1,1-2.362-2.362A2.362,2.362,0,0,1,210.4,38" transform="translate(834.494 3154.469)" fill="#fff"/>
      <path id="Trazado_113692" data-name="Trazado 113692" d="M257.888,38a2.362,2.362,0,1,1-2.362-2.362A2.362,2.362,0,0,1,257.888,38" transform="translate(796.791 3154.469)" fill="#fff"/>
      <path id="Trazado_113693" data-name="Trazado 113693" d="M305.38,38a2.362,2.362,0,1,1-2.362-2.362A2.362,2.362,0,0,1,305.38,38" transform="translate(759.089 3154.469)" fill="#fff"/>
    </g>
    <g id="Grupo_952354" data-name="Grupo 952354" transform="translate(350 3099)">
      <path id="Trazado_698185" data-name="Trazado 698185" d="M7.52,41.549H56.848V113.07H7.856Z" transform="translate(-3.483 -19.246)" fill="#e0e0e0"/>
      <rect id="Rectángulo_344815" data-name="Rectángulo 344815" width="48.879" height="70.848" transform="translate(0.336 22.64)" fill="#fff"/>
      <path id="Trazado_698186" data-name="Trazado 698186" d="M.672,42.221H48.88V112.4H.672ZM0,113.07H49.551V41.548H0Z" transform="translate(0 -19.245)" fill="#e0e0e0"/>
      <rect id="Rectángulo_344816" data-name="Rectángulo 344816" width="36.734" height="55.502" transform="translate(6.409 30.313)" fill="#fff"/>
      <g id="Grupo_952355" data-name="Grupo 952355">
        <g id="Grupo_952354-2" data-name="Grupo 952354" clip-path="url(#clip-path)">
          <path id="Trazado_698187" data-name="Trazado 698187" d="M11.8,56.349s.006.1.01.274.005.449.009.789c0,.7.011,1.724.019,3.048.01,2.666.025,6.542.043,11.438.019,9.787.047,23.641.079,39.953l-.161-.16,36.729-.015h0l-.175.175c.013-20.937.026-40.24.035-55.5l.14.14-26.727-.074-7.391-.035-1.942-.016c-.44,0-.674-.015-.674-.015s.214-.01.645-.015l1.916-.016,7.359-.035,26.814-.074h.14v.14c.01,15.262.022,34.565.035,55.5v.175h-.179L11.8,112.012h-.161v-.16c.032-16.355.06-30.246.079-40.059.018-4.879.033-8.743.043-11.4.009-1.31.015-2.321.02-3.016,0-.332.007-.587.009-.771s.01-.255.01-.255" transform="translate(-5.391 -26.036)" fill="#e0e0e0"/>
          <path id="Trazado_698188" data-name="Trazado 698188" d="M.367,167.538a5.966,5.966,0,0,1,.789-1.218c.523-.725,1.266-1.712,2.118-2.777s1.66-2,2.265-2.664a5.754,5.754,0,0,1,1.038-1.015c.074.066-1.331,1.769-3.03,3.9a38.641,38.641,0,0,1-3.18,3.777" transform="translate(-0.169 -74.05)" fill="#e0e0e0"/>
          <path id="Trazado_698189" data-name="Trazado 698189" d="M.623,42.174A34.376,34.376,0,0,1,3.8,45.9a34.229,34.229,0,0,1,2.9,3.945,34.311,34.311,0,0,1-3.174-3.728,34.384,34.384,0,0,1-2.9-3.945" transform="translate(-0.287 -19.534)" fill="#e0e0e0"/>
          <path id="Trazado_698190" data-name="Trazado 698190" d="M86.173,42.28l-6.4,7.9" transform="translate(-36.951 -19.584)" fill="#fff"/>
          <path id="Trazado_698191" data-name="Trazado 698191" d="M79.768,50.178a37.089,37.089,0,0,1,3.065-4.06,37.113,37.113,0,0,1,3.337-3.84,37.037,37.037,0,0,1-3.065,4.06,37.137,37.137,0,0,1-3.337,3.839" transform="translate(-36.948 -19.583)" fill="#e0e0e0"/>
          <path id="Trazado_698192" data-name="Trazado 698192" d="M86.5,167.606a33.626,33.626,0,0,1-3.141-3.689,33.669,33.669,0,0,1-2.866-3.906,33.669,33.669,0,0,1,3.141,3.689,33.661,33.661,0,0,1,2.866,3.906" transform="translate(-37.283 -74.118)" fill="#e0e0e0"/>
          <path id="Trazado_698193" data-name="Trazado 698193" d="M40.832,98.055H34.368L33.6,99.836a3.968,3.968,0,0,0-.378,1.471,1.221,1.221,0,0,0,.621,1.134,5.214,5.214,0,0,0,1.794.324v.5H29.55v-.5a2.726,2.726,0,0,0,1.62-.816,10.882,10.882,0,0,0,1.565-2.76l6.545-14.6h.257l6.6,15.007a9.114,9.114,0,0,0,1.552,2.685,2.117,2.117,0,0,0,1.3.486v.5H40.131v-.5h.364a2.773,2.773,0,0,0,1.5-.3.72.72,0,0,0,.3-.621,1.66,1.66,0,0,0-.081-.5q-.027-.122-.405-1.012Zm-.459-1-2.726-6.3-2.807,6.3Z" transform="translate(-13.688 -39.181)" fill="#e0e0e0"/>
        </g>
      </g>
      <rect id="Rectángulo_344818" data-name="Rectángulo 344818" width="176.397" height="136.049" transform="translate(29.2 0.14)" fill="#fff"/>
      <rect id="Rectángulo_344819" data-name="Rectángulo 344819" width="151.525" height="4.561" transform="translate(39.564 86.2)" fill="#ebebeb"/>
      <rect id="Rectángulo_344820" data-name="Rectángulo 344820" width="151.525" height="4.561" transform="translate(39.491 80.152)" fill="#ebebeb"/>
      <rect id="Rectángulo_344821" data-name="Rectángulo 344821" width="151.525" height="4.561" transform="translate(39.491 74.021)" fill="#ebebeb"/>
      <rect id="Rectángulo_344822" data-name="Rectángulo 344822" width="151.525" height="4.56" transform="translate(39.491 67.891)" fill="#ebebeb"/>
      <rect id="Rectángulo_344823" data-name="Rectángulo 344823" width="151.525" height="4.56" transform="translate(39.564 92.468)" fill="#ebebeb"/>
      <rect id="Rectángulo_344824" data-name="Rectángulo 344824" width="151.525" height="4.561" transform="translate(39.564 98.375)" fill="#ebebeb"/>
      <rect id="Rectángulo_344825" data-name="Rectángulo 344825" width="151.525" height="4.561" transform="translate(39.564 104.525)" fill="#ebebeb"/>
      <rect id="Rectángulo_344826" data-name="Rectángulo 344826" width="151.525" height="4.56" transform="translate(39.564 110.375)" fill="#ebebeb"/>
      <rect id="Rectángulo_344827" data-name="Rectángulo 344827" width="151.525" height="4.56" transform="translate(39.564 115.995)" fill="#ebebeb"/>
      <rect id="Rectángulo_344828" data-name="Rectángulo 344828" width="151.525" height="4.561" transform="translate(39.564 122.383)" fill="#ebebeb"/>
      <path id="Trazado_698469" data-name="Trazado 698469" d="M0,0H176.57V10.126H0Z" transform="translate(29.2 0.002)" fill="#f9a21b"/>
      <path id="Trazado_698194" data-name="Trazado 698194" d="M76.451,38.043H75.359v-.4h2.635v.4H76.9v2.79h-.45Z" transform="translate(-34.907 -17.439)" fill="#263238"/>
      <g id="Grupo_952357" data-name="Grupo 952357">
        <g id="Grupo_952356" data-name="Grupo 952356" clip-path="url(#clip-path)">
          <path id="Trazado_698195" data-name="Trazado 698195" d="M80.186,40.275a1.254,1.254,0,1,1,1.256,1.234,1.2,1.2,0,0,1-1.256-1.234m2.066,0a.813.813,0,1,0-.81.851.791.791,0,0,0,.81-.851" transform="translate(-37.143 -18.086)" fill="#263238"/>
          <path id="Trazado_698196" data-name="Trazado 698196" d="M87.875,39.356a.3.3,0,0,1,.31-.309.3.3,0,0,1,.3.309.3.3,0,0,1-.3.314.308.308,0,0,1-.31-.314m0,1.839a.3.3,0,0,1,.31-.31.3.3,0,0,1,.3.31.3.3,0,0,1-.3.314.308.308,0,0,1-.31-.314" transform="translate(-40.704 -18.087)" fill="#263238"/>
          <path id="Trazado_698197" data-name="Trazado 698197" d="M73.711,70.759l.166-.352a1.621,1.621,0,0,0,1.04.365c.545,0,.779-.211.779-.486,0-.77-1.909-.284-1.909-1.455,0-.486.378-.9,1.207-.9a1.855,1.855,0,0,1,1.013.279l-.149.36a1.631,1.631,0,0,0-.864-.257c-.536,0-.765.225-.765.5,0,.77,1.909.288,1.909,1.446,0,.482-.387.9-1.22.9a1.871,1.871,0,0,1-1.207-.4" transform="translate(-34.144 -31.466)" fill="#263238"/>
          <path id="Trazado_698198" data-name="Trazado 698198" d="M81.54,69.424v2.387h-.41v-.36a.97.97,0,0,1-.81.387.938.938,0,0,1-1.027-1.04V69.424h.432v1.324c0,.468.234.7.644.7a.7.7,0,0,0,.739-.793V69.424Z" transform="translate(-36.729 -32.158)" fill="#263238"/>
          <path id="Trazado_698199" data-name="Trazado 698199" d="M87.479,69.794a1.162,1.162,0,0,1-1.207,1.22,1.008,1.008,0,0,1-.851-.405v.378h-.414V67.646h.433v1.315a1.016,1.016,0,0,1,.833-.383,1.158,1.158,0,0,1,1.207,1.216m-.437,0a.8.8,0,1,0-.806.842.787.787,0,0,0,.806-.842" transform="translate(-39.376 -31.334)" fill="#263238"/>
          <path id="Trazado_698200" data-name="Trazado 698200" d="M89.187,71.685l.14-.333a.547.547,0,0,0,.351.112c.23,0,.356-.144.356-.419v-2.5h.432v2.5a.712.712,0,0,1-.761.792.848.848,0,0,1-.518-.144m.77-3.882a.285.285,0,0,1,.293-.283.28.28,0,0,1,.293.274.293.293,0,0,1-.586.009" transform="translate(-41.312 -31.276)" fill="#263238"/>
          <path id="Trazado_698201" data-name="Trazado 698201" d="M95.061,70.742H93.124a.809.809,0,0,0,.865.7.894.894,0,0,0,.689-.288l.238.279a1.3,1.3,0,0,1-2.224-.833,1.169,1.169,0,0,1,1.2-1.216,1.151,1.151,0,0,1,1.18,1.229c0,.036,0,.09-.009.13m-1.937-.31h1.531a.771.771,0,0,0-1.531,0" transform="translate(-42.936 -32.138)" fill="#263238"/>
          <path id="Trazado_698202" data-name="Trazado 698202" d="M97.821,70.6a1.192,1.192,0,0,1,1.261-1.216,1.063,1.063,0,0,1,.972.509l-.329.211a.744.744,0,0,0-.648-.342.84.84,0,0,0,0,1.68.743.743,0,0,0,.648-.342l.329.207a1.066,1.066,0,0,1-.972.513,1.2,1.2,0,0,1-1.261-1.22" transform="translate(-45.312 -32.138)" fill="#263238"/>
          <path id="Trazado_698203" data-name="Trazado 698203" d="M104.122,71.221a.816.816,0,0,1-.522.166.681.681,0,0,1-.756-.747V69.329h-.406v-.356h.406v-.522h.432v.522h.684v.356h-.684v1.293a.352.352,0,0,0,.374.4.545.545,0,0,0,.338-.113Z" transform="translate(-47.45 -31.707)" fill="#263238"/>
          <path id="Trazado_698204" data-name="Trazado 698204" d="M108.326,69.71a.3.3,0,0,1,.307-.307.3.3,0,0,1,.3.307.3.3,0,0,1-.3.311.305.305,0,0,1-.307-.311m0,1.819a.3.3,0,0,1,.307-.307.3.3,0,0,1,.3.307.3.3,0,0,1-.3.31.3.3,0,0,1-.307-.31" transform="translate(-50.178 -32.148)" fill="#263238"/>
          <path id="Trazado_698205" data-name="Trazado 698205" d="M64.074,8.491a1.1,1.1,0,1,1-1.1-1.1,1.1,1.1,0,0,1,1.1,1.1" transform="translate(-28.664 -3.425)" fill="#fff"/>
          <path id="Trazado_698206" data-name="Trazado 698206" d="M71.343,8.491a1.1,1.1,0,1,1-1.1-1.1,1.1,1.1,0,0,1,1.1,1.1" transform="translate(-32.031 -3.425)" fill="#fff"/>
          <path id="Trazado_698207" data-name="Trazado 698207" d="M78.612,8.491a1.1,1.1,0,1,1-1.1-1.1,1.1,1.1,0,0,1,1.1,1.1" transform="translate(-35.398 -3.425)" fill="#fff"/>
          <path id="Trazado_698208" data-name="Trazado 698208" d="M103.725,103.145a.857.857,0,0,1-.008-.127c0-.094,0-.213-.008-.361q-.007-.5-.019-1.384c-.011-1.213-.026-2.959-.045-5.161l.08.08-31.65.06h0c.279-.279.077-.076.14-.138v1.794q0,.893,0,1.774,0,1.761,0,3.464l-.137-.137,22.535.062,6.673.039,1.806.019.472.009a1.272,1.272,0,0,1,.166.009.837.837,0,0,1-.149.009l-.455.009-1.776.018-6.641.039-22.632.062h-.137v-.138q0-1.7,0-3.464,0-.881,0-1.774V96.113c.063-.063-.14.138.14-.141h0l31.65.059h.081v.08c-.019,2.222-.034,3.985-.045,5.209q-.012.877-.019,1.366c0,.143-.006.257-.008.346a.53.53,0,0,1-.008.112" transform="translate(-33.315 -44.455)" fill="#263238"/>
          <path id="Trazado_698209" data-name="Trazado 698209" d="M152.493,103.118a.844.844,0,0,1-.01-.134c0-.1-.006-.223-.011-.372q-.009-.519-.024-1.409c-.013-1.232-.031-2.974-.053-5.119l.1.1-17.323.041c-.126.125.169-.17.138-.139V97q0,.457,0,.91,0,.905,0,1.789c0,1.176,0,2.319,0,3.416l-.134-.134,12.384.063,3.615.038.976.017a3.041,3.041,0,0,1,.348.017,2.126,2.126,0,0,1-.316.017l-.947.017-3.585.038-12.475.063h-.134v-.134c0-1.1,0-2.24,0-3.416q0-.882,0-1.789,0-.452,0-.91v-.918c-.031.03.265-.265.141-.14l17.323.041h.1v.1c-.022,2.17-.04,3.932-.053,5.179l-.024,1.387a3.9,3.9,0,0,1-.021.468" transform="translate(-62.546 -44.428)" fill="#263238"/>
          <path id="Trazado_698210" data-name="Trazado 698210" d="M77.278,100.736H76.139v-.413h2.747v.413H77.748v2.908h-.47Z" transform="translate(-35.268 -46.471)" fill="#263238"/>
          <path id="Trazado_698211" data-name="Trazado 698211" d="M81.83,100.119a.3.3,0,0,1,.308-.3.3.3,0,1,1-.308.3m.081.778h.455v2.514h-.455Z" transform="translate(-37.904 -46.237)" fill="#263238"/>
          <path id="Trazado_698212" data-name="Trazado 698212" d="M85.548,103.717a.86.86,0,0,1-.55.176.718.718,0,0,1-.8-.788v-1.38h-.427v-.375H84.2V100.8h.455v.551h.721v.375h-.721v1.362a.371.371,0,0,0,.394.421.572.572,0,0,0,.356-.118Z" transform="translate(-38.805 -46.691)" fill="#263238"/>
          <rect id="Rectángulo_344830" data-name="Rectángulo 344830" width="0.455" height="3.52" transform="translate(47.293 53.653)" fill="#263238"/>
          <path id="Trazado_698213" data-name="Trazado 698213" d="M92.63,103.215H90.59a.852.852,0,0,0,.911.735.935.935,0,0,0,.725-.3l.252.294a1.371,1.371,0,0,1-2.344-.878,1.231,1.231,0,0,1,1.261-1.281,1.212,1.212,0,0,1,1.243,1.295c0,.038,0,.1-.01.138m-2.04-.327H92.2a.811.811,0,0,0-1.613,0" transform="translate(-41.751 -47.146)" fill="#263238"/>
          <path id="Trazado_698214" data-name="Trazado 698214" d="M121.777,102.222h3.015l-1.507,1.507Z" transform="translate(-56.408 -47.35)" fill="#263238"/>
          <path id="Trazado_698215" data-name="Trazado 698215" d="M157.414,102.222h3.015l-1.507,1.507Z" transform="translate(-72.916 -47.35)" fill="#263238"/>
          <path id="Trazado_698216" data-name="Trazado 698216" d="M230.51,171.626c0-.823-.04-31.349-.1-81.721l.1.1-164.19.036h-.012l.14-.14c0,28.806-.005,56.454-.008,81.721l-.132-.132,164.2.132-164.2.132h-.132v-.132c0-25.267,0-52.915-.008-81.721v-.14h.152l164.19.036h.1v.1c-.064,50.372-.1,80.9-.1,81.721" transform="translate(-30.65 -41.58)" fill="#e0e0e0"/>
          <path id="Trazado_698217" data-name="Trazado 698217" d="M230.3,72.032s-.007-.317-.011-.927-.007-1.515-.012-2.7c-.008-2.369-.018-5.856-.031-10.349l.054.054L65.854,58.2h-.009l.14-.14c0,4.787,0,9.531,0,13.975l-.139-.14,116.731.059,34.948.042,9.466.019,2.461.01c.555,0,.844.01.844.01s-.276.006-.825.01l-2.443.01-9.434.019-34.916.042-116.833.059h-.14v-.14c0-4.445,0-9.188,0-13.975v-.14h.149L230.3,58h.054v.054c-.013,4.506-.024,8-.031,10.38-.006,1.179-.01,2.078-.013,2.688s-.011.908-.011.908" transform="translate(-30.435 -26.828)" fill="#e0e0e0"/>
          <path id="Trazado_698218" data-name="Trazado 698218" d="M230.3,40.5s-.007-.317-.011-.926-.007-1.515-.012-2.7c-.008-2.369-.018-5.856-.031-10.348l.054.054-164.442.085h-.009l.14-.139c0,4.787,0,9.53,0,13.975l-.139-.14c46.055.024,87.148.045,116.731.059l34.948.042,9.466.019,2.461.01c.555,0,.844.009.844.009s-.276.006-.825.01l-2.443.01-9.434.019-34.916.042-116.833.06h-.14V40.5c0-4.445,0-9.188,0-13.975v-.14h.149l164.442.086h.054v.054c-.013,4.506-.024,8-.031,10.379-.006,1.179-.01,2.079-.013,2.688s-.011.908-.011.908" transform="translate(-30.435 -12.22)" fill="#e0e0e0"/>
          <path id="Trazado_698219" data-name="Trazado 698219" d="M291.792,97.4a1,1,0,0,0-1.038.926h0v3.638h.007a1.468,1.468,0,0,0,2.892,0h.007V99.032h-.283v2.81a1.174,1.174,0,0,1-2.34,0V98.358a.76.76,0,0,1,1.515,0v2.954h0a.439.439,0,0,1-.84-.006V99.032h-.283v2.174h0v.106h.011a.709.709,0,0,0,1.385,0h.007v-.059c0-.016.005-.032.005-.048h-.005v-2.88h0a1.006,1.006,0,0,0-1.039-.926" transform="translate(-134.679 -45.117)" fill="#263238"/>
          <rect id="Rectángulo_344831" data-name="Rectángulo 344831" width="4.139" height="0.656" transform="translate(114.662 53.889)" fill="#263238"/>
          <rect id="Rectángulo_344832" data-name="Rectángulo 344832" width="4.139" height="0.656" transform="translate(114.662 56.275)" fill="#263238"/>
          <rect id="Rectángulo_344833" data-name="Rectángulo 344833" width="2.069" height="0.656" transform="translate(114.662 55.124)" fill="#263238"/>
          <rect id="Rectángulo_344834" data-name="Rectángulo 344834" width="4.139" height="0.656" transform="translate(130.202 53.889)" fill="#263238"/>
          <rect id="Rectángulo_344835" data-name="Rectángulo 344835" width="4.139" height="0.656" transform="translate(130.202 56.275)" fill="#263238"/>
          <rect id="Rectángulo_344836" data-name="Rectángulo 344836" width="2.069" height="0.656" transform="translate(132.271 55.124)" fill="#263238"/>
          <rect id="Rectángulo_344837" data-name="Rectángulo 344837" width="4.139" height="0.656" transform="translate(122.54 53.889)" fill="#263238"/>
          <rect id="Rectángulo_344838" data-name="Rectángulo 344838" width="4.139" height="0.656" transform="translate(122.54 56.275)" fill="#263238"/>
          <rect id="Rectángulo_344839" data-name="Rectángulo 344839" width="4.139" height="0.656" transform="translate(122.54 55.124)" fill="#263238"/>
          <path id="Trazado_698220" data-name="Trazado 698220" d="M266.656,103.255h-3.384v-2.78h1.753v.586h-1.166v1.607h2.212v-.585h.586Z" transform="translate(-121.95 -46.541)" fill="#263238"/>
          <path id="Trazado_698221" data-name="Trazado 698221" d="M270.292,103.255H268.85v-.586h.857v-1.607h-2.212v.749h-.587v-1.335h3.384Z" transform="translate(-123.634 -46.541)" fill="#263238"/>
          <path id="Trazado_698222" data-name="Trazado 698222" d="M275.766,102.653h1.806l-.9.84Z" transform="translate(-127.737 -47.55)" fill="#263238"/>
          <path id="Trazado_698223" data-name="Trazado 698223" d="M199.833,101.84v-1.559h.513v1.54c0,.568.257.813.7.813s.7-.245.7-.813v-1.54h.505v1.559a1.21,1.21,0,1,1-2.42,0" transform="translate(-92.564 -46.451)" fill="#263238"/>
          <path id="Trazado_698224" data-name="Trazado 698224" d="M190.619,99.7h.461l-.646,3.228h-.461Z" transform="translate(-87.997 -46.183)" fill="#263238"/>
          <path id="Trazado_698225" data-name="Trazado 698225" d="M180.437,102.045c0,.558-.461.885-1.328.885h-1.743V99.7h1.651c.849,0,1.264.346,1.264.844a.763.763,0,0,1-.433.7.815.815,0,0,1,.59.8m-2.167-1.683v.623h.627c.3,0,.461-.106.461-.313s-.157-.309-.461-.309Zm1.245,1.582c0-.222-.166-.327-.48-.327h-.765v.655h.765c.314,0,.48-.106.48-.327" transform="translate(-82.157 -46.183)" fill="#263238"/>
          <path id="Trazado_698226" data-name="Trazado 698226" d="M208.821,103.293a24.752,24.752,0,0,1-.14-3.71,24.747,24.747,0,0,1,.14-3.71,24.74,24.74,0,0,1,.14,3.71,24.746,24.746,0,0,1-.14,3.71" transform="translate(-96.663 -44.409)" fill="#e0e0e0"/>
          <path id="Trazado_698227" data-name="Trazado 698227" d="M254.648,103.293a24.746,24.746,0,0,1-.14-3.71,24.74,24.74,0,0,1,.14-3.71,24.743,24.743,0,0,1,.14,3.71,24.749,24.749,0,0,1-.14,3.71" transform="translate(-117.89 -44.409)" fill="#e0e0e0"/>
          <path id="Trazado_698228" data-name="Trazado 698228" d="M282.369,103.573a24.741,24.741,0,0,1-.14-3.71,24.736,24.736,0,0,1,.14-3.71,24.745,24.745,0,0,1,.14,3.71,24.751,24.751,0,0,1-.14,3.71" transform="translate(-130.731 -44.538)" fill="#e0e0e0"/>
          <path id="Trazado_698229" data-name="Trazado 698229" d="M303.4,103.161a24.734,24.734,0,0,1-.14-3.71,24.738,24.738,0,0,1,.14-3.71,24.743,24.743,0,0,1,.14,3.71,24.739,24.739,0,0,1-.14,3.71" transform="translate(-140.474 -44.348)" fill="#e0e0e0"/>
          <path id="Trazado_698230" data-name="Trazado 698230" d="M202.516,106.075a10,10,0,0,1-3.33,0,10,10,0,0,1,3.33,0" transform="translate(-92.265 -49.07)" fill="#263238"/>
          <path id="Trazado_698231" data-name="Trazado 698231" d="M143.747,99.7v3.228h-.456V100.1h-.729v-.4Z" transform="translate(-66.036 -46.183)" fill="#263238"/>
          <path id="Trazado_698232" data-name="Trazado 698232" d="M148.218,102.5v.4H145.9v-.313l1.314-1.268c.341-.332.406-.535.406-.738,0-.332-.235-.535-.687-.535a1.015,1.015,0,0,0-.826.351l-.313-.272a1.49,1.49,0,0,1,1.18-.489c.674,0,1.107.346,1.107.9a1.307,1.307,0,0,1-.53,1.015l-.987.95Z" transform="translate(-67.532 -46.151)" fill="#263238"/>
          <path id="Trazado_698233" data-name="Trazado 698233" d="M230.395,116.077c0,.078-36.822.14-82.234.14-45.428,0-82.242-.062-82.242-.14s36.814-.139,82.242-.139c45.411,0,82.234.062,82.234.139" transform="translate(-30.534 -53.703)" fill="#e0e0e0"/>
          <path id="Trazado_698234" data-name="Trazado 698234" d="M224.543,131.245c0,.077-33.438.14-74.677.14s-74.684-.063-74.684-.14,33.431-.14,74.684-.14,74.677.062,74.677.14" transform="translate(-34.825 -60.729)" fill="#263238"/>
          <path id="Trazado_698235" data-name="Trazado 698235" d="M224.543,142.52c0,.077-33.438.14-74.677.14s-74.684-.062-74.684-.14,33.431-.14,74.684-.14,74.677.062,74.677.14" transform="translate(-34.825 -65.952)" fill="#263238"/>
          <path id="Trazado_698236" data-name="Trazado 698236" d="M224.543,153.795c0,.077-33.438.14-74.677.14s-74.684-.062-74.684-.14,33.431-.14,74.684-.14,74.677.062,74.677.14" transform="translate(-34.825 -71.174)" fill="#263238"/>
          <path id="Trazado_698237" data-name="Trazado 698237" d="M224.543,165.069c0,.077-33.438.14-74.677.14s-74.684-.062-74.684-.14,33.431-.14,74.684-.14,74.677.062,74.677.14" transform="translate(-34.825 -76.396)" fill="#263238"/>
          <path id="Trazado_698238" data-name="Trazado 698238" d="M224.543,176.344c0,.077-33.438.14-74.677.14s-74.684-.062-74.684-.14,33.431-.14,74.684-.14,74.677.062,74.677.14" transform="translate(-34.825 -81.619)" fill="#263238"/>
          <path id="Trazado_698239" data-name="Trazado 698239" d="M224.543,187.619c0,.077-33.438.14-74.677.14s-74.684-.062-74.684-.14,33.431-.14,74.684-.14,74.677.062,74.677.14" transform="translate(-34.825 -86.842)" fill="#263238"/>
          <path id="Trazado_698240" data-name="Trazado 698240" d="M224.543,198.894c0,.077-33.438.14-74.677.14s-74.684-.062-74.684-.14,33.431-.14,74.684-.14,74.677.062,74.677.14" transform="translate(-34.825 -92.065)" fill="#263238"/>
          <path id="Trazado_698241" data-name="Trazado 698241" d="M224.743,209.766c0,.077-33.438.14-74.677.14s-74.684-.062-74.684-.14,33.431-.14,74.684-.14,74.677.062,74.677.14" transform="translate(-34.918 -97.101)" fill="#263238"/>
          <path id="Trazado_698242" data-name="Trazado 698242" d="M224.944,220.638c0,.077-33.438.14-74.677.14s-74.684-.062-74.684-.14,33.431-.14,74.684-.14,74.677.062,74.677.14" transform="translate(-35.011 -102.137)" fill="#263238"/>
          <path id="Trazado_698243" data-name="Trazado 698243" d="M75.785,231.511c0-.077,33.438-.14,74.677-.14s74.684.062,74.684.14-33.431.14-74.684.14-74.677-.062-74.677-.14" transform="translate(-35.104 -107.173)" fill="#263238"/>
          <path id="Trazado_698244" data-name="Trazado 698244" d="M230.674,136.189c0-.958-.046-53.87-.115-136.049l.115.115L54.292.28h-.015l.14-.14c-.005,49.008-.01,95.377-.014,136.049l-.126-.126,176.4.126-176.4.126h-.126v-.126c0-40.673-.009-87.041-.014-136.049V0h.155L230.674.024h.115V.14c-.07,82.18-.114,135.092-.115,136.049" transform="translate(-25.077)" fill="#263238"/>
          <g id="Grupo_952368" data-name="Grupo 952368" transform="translate(123.184 17.585)">
            <path id="Trazado_698245" data-name="Trazado 698245" d="M254.55,75.522v11.7a3.908,3.908,0,0,0,3.908,3.907h14.3a1.359,1.359,0,0,1,1.069.52l3.51,7.651,4.232-7.529a1.362,1.362,0,0,1,1.013-.453h15.01a3.908,3.908,0,0,0,3.908-3.908V75.45a3.908,3.908,0,0,0-3.915-3.907l-39.134.072a3.907,3.907,0,0,0-3.9,3.907" transform="translate(-254.55 -71.543)" fill="#f9a21b"/>
            <path id="Trazado_698246" data-name="Trazado 698246" d="M270.737,90.357h-2.448V88.05l5.635-6.155.113-.031a1.852,1.852,0,0,1,1.826.26,2.349,2.349,0,0,1,.5,1.987l-.02.115Zm-1.638-.809h1.281l5.2-5.688a1.477,1.477,0,0,0-.262-1.139,1.044,1.044,0,0,0-.954-.1L269.1,88.364Z" transform="translate(-260.914 -76.271)" fill="#fff"/>
            <path id="Trazado_698247" data-name="Trazado 698247" d="M298.534,90.046v.8h-4.652v-6.41h4.524v.8H294.8V87.2h3.214v.778H294.8v2.069Z" transform="translate(-272.769 -77.513)" fill="#fff"/>
            <path id="Trazado_698248" data-name="Trazado 698248" d="M309.154,83.715v6.8h-.843v-.77a2.05,2.05,0,0,1-1.731.825,2.477,2.477,0,0,1,0-4.955,2.066,2.066,0,0,1,1.694.778V83.715Zm-.87,4.368a1.636,1.636,0,1,0-1.63,1.712,1.6,1.6,0,0,0,1.63-1.712" transform="translate(-277.514 -77.181)" fill="#fff"/>
            <path id="Trazado_698249" data-name="Trazado 698249" d="M316.314,84.037a.579.579,0,0,1,.6-.578.573.573,0,1,1-.6.578m.156,1.5h.879v4.854h-.879Z" transform="translate(-283.16 -77.062)" fill="#fff"/>
            <path id="Trazado_698250" data-name="Trazado 698250" d="M323.5,90.985a1.657,1.657,0,0,1-1.062.339,1.385,1.385,0,0,1-1.539-1.52V87.139h-.823v-.724h.823V85.354h.879v1.062h1.392v.724h-1.392v2.628a.716.716,0,0,0,.761.815,1.107,1.107,0,0,0,.687-.229Z" transform="translate(-284.9 -77.94)" fill="#fff"/>
          </g>
        </g>
      </g>
    </g>
    <g id="Grupo_952392" data-name="Grupo 952392">
      <g id="Enmascarar_grupo_119" data-name="Enmascarar grupo 119" transform="translate(-3 2)" clip-path="url(#clip-path-3)">
        <g id="Grupo_952367" data-name="Grupo 952367" transform="translate(371.133 3148.486)">
          <g id="Grupo_952366" data-name="Grupo 952366" clip-path="url(#clip-path-4)">
            <g id="Grupo_952365" data-name="Grupo 952365">
              <g id="Grupo_952364" data-name="Grupo 952364" clip-path="url(#clip-path-4)">
                <path id="Trazado_698251" data-name="Trazado 698251" d="M257.02,235.947s-19.567,8.931-38.6,8.931c-17.628,0-37.345-8.873-37.345-8.873Z" transform="translate(-24.121 -31.43)" fill="#e0e0e0"/>
                <rect id="Rectángulo_344841" data-name="Rectángulo 344841" width="7.549" height="79.07" transform="translate(192.305 205.367)" fill="#e0e0e0"/>
                <rect id="Rectángulo_344842" data-name="Rectángulo 344842" width="66.999" height="4.636" transform="translate(162.236 281.163)" fill="#e0e0e0"/>
                <path id="Trazado_698252" data-name="Trazado 698252" d="M255.4,331.238a5.113,5.113,0,1,0,5.113-5.113,5.113,5.113,0,0,0-5.113,5.113" transform="translate(-34.022 -43.443)" fill="#263238"/>
                <path id="Trazado_698253" data-name="Trazado 698253" d="M221.056,331.238a5.113,5.113,0,1,0,5.113-5.113,5.113,5.113,0,0,0-5.113,5.113" transform="translate(-29.447 -43.443)" fill="#263238"/>
                <path id="Trazado_698254" data-name="Trazado 698254" d="M181.27,331.238a5.113,5.113,0,1,0,5.113-5.113,5.113,5.113,0,0,0-5.113,5.113" transform="translate(-24.147 -43.443)" fill="#263238"/>
                <rect id="Rectángulo_344843" data-name="Rectángulo 344843" width="10.268" height="4.249" transform="translate(194.297 233.826)" fill="#e0e0e0"/>
                <rect id="Rectángulo_344844" data-name="Rectángulo 344844" width="3.739" height="10.198" transform="translate(202.696 230.851)" fill="#e0e0e0"/>
                <path id="Trazado_698255" data-name="Trazado 698255" d="M176.315,234.2H261.82a5.675,5.675,0,1,0,0-11.35H176.315a5.675,5.675,0,0,0,0,11.35" transform="translate(-22.731 -29.686)" fill="#455a64"/>
                <path id="Trazado_698256" data-name="Trazado 698256" d="M259.3,55.081s6.881-2.684,6.6-8.553-8.191-11.673-7.721-20.485c.441-8.263-11.4-32.818-28.312-24.257a23.282,23.282,0,0,0-8.5.466c-5.45,1.558-7.15,6.777-10.378,11.95-4.973,7.971-8.356,14.25-5.957,19.808s3.409,7.187,1.545,11.931c-2.432,6.19-4.913,4.395-4.1,9.8l14.751.24,1.395-3.6.159,3.9,8.673-.117Z" transform="translate(-26.951 0)" fill="#263238"/>
                <path id="Trazado_698257" data-name="Trazado 698257" d="M218.557,12.064c.179,2.276-1.314,4.318-2.821,6.034s-3.183,3.5-3.5,5.766c-.56,4.008,3.38,7.707,2.591,11.675-.422,2.128-2.153,3.843-2.453,5.991-.289,2.078.834,4.1,2.221,5.677s3.075,2.883,4.3,4.583c0,0,2.561,4.155,10.366,1.447" transform="translate(-28.265 -1.607)" fill="#263238"/>
                <path id="Trazado_698258" data-name="Trazado 698258" d="M225.7,8.713l19.446,4.12a3.631,3.631,0,0,1,3.389,3.555L248.3,58.472a13.054,13.054,0,0,1-2.741,7.935L243.7,68.8a9.6,9.6,0,0,1-16.023-1.194,4.6,4.6,0,0,1-.447-1.1,8.88,8.88,0,0,1-.184-.95l-.37-4.1c-.19-3.748-.216-7.555-.217-7.52,0,0-7.958-1.005-10-11.259-1.014-5.1-1.083-13.522-.917-20.416C215.7,16.053,219.5,8.3,225.7,8.713" transform="translate(-28.704 -1.158)" fill="#ffbe9d"/>
                <path id="Trazado_698259" data-name="Trazado 698259" d="M218.973,33.261a1.323,1.323,0,0,0,1.328,1.285,1.266,1.266,0,0,0,1.317-1.246,1.324,1.324,0,0,0-1.326-1.286,1.266,1.266,0,0,0-1.318,1.246" transform="translate(-29.169 -4.265)" fill="#263238"/>
                <path id="Trazado_698260" data-name="Trazado 698260" d="M217.857,29.078c.171.166,1.144-.615,2.568-.667,1.422-.071,2.495.621,2.643.44.073-.081-.107-.385-.574-.7a3.64,3.64,0,0,0-2.125-.566,3.5,3.5,0,0,0-2.036.745c-.424.354-.561.671-.477.745" transform="translate(-29.017 -3.674)" fill="#263238"/>
                <path id="Trazado_698261" data-name="Trazado 698261" d="M233.7,32.892a1.324,1.324,0,0,0,1.328,1.285,1.266,1.266,0,0,0,1.317-1.246,1.324,1.324,0,0,0-1.326-1.286,1.266,1.266,0,0,0-1.318,1.246" transform="translate(-31.13 -4.216)" fill="#263238"/>
                <path id="Trazado_698262" data-name="Trazado 698262" d="M233.455,28.678c.172.166,1.146-.615,2.569-.666,1.422-.072,2.495.62,2.643.439.072-.081-.1-.385-.575-.7a3.631,3.631,0,0,0-2.124-.566,3.493,3.493,0,0,0-2.036.746c-.424.353-.561.671-.478.745" transform="translate(-31.095 -3.621)" fill="#263238"/>
                <path id="Trazado_698263" data-name="Trazado 698263" d="M227.967,39.574a9.443,9.443,0,0,0-2.328-.328c-.365-.023-.713-.082-.784-.328a1.858,1.858,0,0,1,.2-1.087q.462-1.34.968-2.811c1.339-4,2.294-7.283,2.133-7.335s-1.379,3.146-2.719,7.147q-.482,1.478-.921,2.825a2.1,2.1,0,0,0-.133,1.435A.913.913,0,0,0,225,39.6a2.445,2.445,0,0,0,.621.062,9.257,9.257,0,0,0,2.344-.088" transform="translate(-29.879 -3.688)" fill="#263238"/>
                <path id="Trazado_698264" data-name="Trazado 698264" d="M228.151,60.234a26.26,26.26,0,0,0,13.674-4.222s-3.2,7.277-13.56,6.712Z" transform="translate(-30.392 -7.461)" fill="#eb996e"/>
                <path id="Trazado_698265" data-name="Trazado 698265" d="M229.359,45.172a2.569,2.569,0,0,1,2.263-1.043,2.349,2.349,0,0,1,1.651.805,1.487,1.487,0,0,1,.179,1.693,1.723,1.723,0,0,1-1.848.544,5.394,5.394,0,0,1-1.863-1.015,1.583,1.583,0,0,1-.422-.406.475.475,0,0,1-.019-.53" transform="translate(-30.535 -5.878)" fill="#eb996e"/>
                <path id="Trazado_698266" data-name="Trazado 698266" d="M232.734,42.35c-.232,0-.175,1.541-1.455,2.69s-2.931,1.042-2.935,1.259c-.018.1.378.286,1.074.277a3.85,3.85,0,0,0,2.454-.963,3.356,3.356,0,0,0,1.122-2.251c.034-.648-.153-1.025-.259-1.012" transform="translate(-30.417 -5.641)" fill="#263238"/>
                <path id="Trazado_698267" data-name="Trazado 698267" d="M233.55,23.851c.155.381,1.57.143,3.248.279,1.682.1,3.048.54,3.256.184.092-.17-.157-.525-.716-.878a5.664,5.664,0,0,0-4.955-.354c-.6.271-.9.588-.833.769" transform="translate(-31.11 -3.02)" fill="#263238"/>
                <path id="Trazado_698268" data-name="Trazado 698268" d="M218.053,21.865c.263.313,1.231-.061,2.41-.122,1.176-.1,2.187.133,2.4-.214.094-.168-.075-.486-.524-.775a3.492,3.492,0,0,0-3.878.27c-.4.348-.528.687-.412.841" transform="translate(-29.041 -2.703)" fill="#263238"/>
                <path id="Trazado_698269" data-name="Trazado 698269" d="M255.156,11.661c-1.442-4.237-7.245-8.882-12.712-10.977a10.373,10.373,0,0,0-9.408,1.106L226.094,6.38a9.62,9.62,0,0,0,6.67,7.226c1.772.5,3.9.606,4.974,2.1,1.1,1.526.521,3.79,1.548,5.366,1.423,2.183,5.193,2,6.276,4.375.473,1.036.262,2.289.753,3.316.655,1.369,4.187,3.05,5.624,2.563s1.392-2.95,1.839-4.25a6.827,6.827,0,0,0,.118-4.583c-.688-2.9,2.222-8.007,1.26-10.833" transform="translate(-30.118 -0.003)" fill="#263238"/>
                <path id="Trazado_698270" data-name="Trazado 698270" d="M251.014,37.193c-.028-.768.79-2.614,1.544-2.762,2.014-.394,5.672-.373,5.906,4.772.32,7.032-6.807,5.9-6.829,5.7-.016-.157-.524-5.057-.621-7.71" transform="translate(-33.437 -4.567)" fill="#ffbe9d"/>
                <path id="Trazado_698271" data-name="Trazado 698271" d="M254.07,42.486c.029-.023.127.08.337.166a1.225,1.225,0,0,0,.917-.023,3.033,3.033,0,0,0,1.279-2.783,4.051,4.051,0,0,0-.423-1.739,1.415,1.415,0,0,0-.964-.9.625.625,0,0,0-.708.368c-.085.2-.034.34-.071.354-.018.018-.156-.111-.113-.4a.792.792,0,0,1,.257-.453.927.927,0,0,1,.67-.21A1.722,1.722,0,0,1,256.58,37.9a4.16,4.16,0,0,1,.514,1.941c.019,1.419-.646,2.778-1.649,3.118a1.31,1.31,0,0,1-1.129-.135c-.225-.163-.27-.319-.246-.333" transform="translate(-33.844 -4.91)" fill="#eb996e"/>
                <path id="Trazado_698272" data-name="Trazado 698272" d="M192.427,98.872l-12.436,32.443-23.4,1.487-3.621,10.173,30.9,5.989s9.292,2.7,14.589-9.091l9.056-32.271Z" transform="translate(-20.377 -13.171)" fill="#ffbe9d"/>
                <path id="Trazado_698273" data-name="Trazado 698273" d="M130.861,141.663a1.544,1.544,0,0,0,1.49.868,1.776,1.776,0,0,0,.387-.078c.885-.284.8-2.086.8-2.086l4.241-.693s5.515,3.556,7.477,5.913,6.967.448,6.967.448L153.961,137l-7.806-7.059s.479.42-.059-.9-2.991-.822-2.991-.822c-.381-.653-1.984-.887-1.984-.887l-6.847.79a4.693,4.693,0,0,0-3.431,2.156l-2.9,4.583s-1.529,3.3-1.284,4.067a1.371,1.371,0,0,0,1.6.9s.336,2.17.907,2.245a4.691,4.691,0,0,0,1.695-.407" transform="translate(-16.869 -16.961)" fill="#ffbe9d"/>
                <path id="Trazado_698274" data-name="Trazado 698274" d="M143.729,144.1a2.416,2.416,0,0,1-.407-.31l-1.147-.921a47.376,47.376,0,0,0-4.5-3.1l.1.018-4.237.721.146-.179a4.713,4.713,0,0,1-.079,1.036,1.921,1.921,0,0,1-.481,1.019,1.051,1.051,0,0,1-.562.258,1.483,1.483,0,0,1-.6.036,1.794,1.794,0,0,1-1.239-.835l-.039-.068-.019-.035-.01-.017v0c-.055-.021.472.172.248.091l0,0-.01,0-.133.055q-.269.107-.547.194a4.753,4.753,0,0,1-.582.145,2.142,2.142,0,0,1-.316.035.725.725,0,0,1-.392-.076,1.263,1.263,0,0,1-.416-.561,4.552,4.552,0,0,1-.21-.582,10.178,10.178,0,0,1-.273-1.2l.249.172a1.609,1.609,0,0,1-1.58-.538,1.306,1.306,0,0,1-.292-.854,3.776,3.776,0,0,1,.152-.82,22.594,22.594,0,0,1,1.168-3.049l0-.011.01-.014,1.543-2.445.979-1.549a8.307,8.307,0,0,1,1.074-1.5,4.555,4.555,0,0,1,1.537-1.021,5.94,5.94,0,0,1,1.746-.362l6.454-.725.028,0,.024,0a6.072,6.072,0,0,1,1.132.3,1.932,1.932,0,0,1,.982.688l-.237-.075a2.364,2.364,0,0,1,2.2.123,2.761,2.761,0,0,1,1.088,1.734l-.051-.089c2.242,2.015,4.07,3.66,5.379,4.838l1.449,1.335a3.788,3.788,0,0,1,.485.49,3.827,3.827,0,0,1-.547-.42l-1.506-1.27-5.475-4.73-.037-.032-.015-.057a2.448,2.448,0,0,0-.96-1.506,2.017,2.017,0,0,0-1.854-.081l-.15.063-.088-.137a1.607,1.607,0,0,0-.8-.519,5.633,5.633,0,0,0-1.055-.269h.05l-6.451.762a5.517,5.517,0,0,0-1.633.34,4.118,4.118,0,0,0-1.389.927,8.093,8.093,0,0,0-1.015,1.429l-.977,1.55c-.53.837-1.054,1.665-1.546,2.444l.013-.024a22.7,22.7,0,0,0-1.15,2.979,3.354,3.354,0,0,0-.139.723.885.885,0,0,0,.2.581,1.2,1.2,0,0,0,1.159.389l.214-.035.035.206a9.745,9.745,0,0,0,.254,1.148,2.078,2.078,0,0,0,.443.916.4.4,0,0,0,.172.019,1.83,1.83,0,0,0,.259-.027,4.31,4.31,0,0,0,.531-.129c.177-.054.351-.114.521-.18l.127-.05.007,0,0,0c-.224-.082.305.11.252.091v0l.007.014.016.027.029.054a1.412,1.412,0,0,0,.144.2,1.354,1.354,0,0,0,.818.464,1.128,1.128,0,0,0,.465-.027.694.694,0,0,0,.388-.162,2.66,2.66,0,0,0,.463-1.771v-.157l.145-.023,4.246-.663.055-.009.042.028a40.637,40.637,0,0,1,4.451,3.224c.491.415.86.749,1.1.982a2.534,2.534,0,0,1,.354.371" transform="translate(-16.837 -16.931)" fill="#eb996e"/>
                <path id="Trazado_698275" data-name="Trazado 698275" d="M142.217,131.133a8.21,8.21,0,0,1-2.2.656,21.957,21.957,0,0,1-5.647.409l.225-.153c-.115.337-.238.693-.382,1.046a16.885,16.885,0,0,1-3.477,5.384,14.146,14.146,0,0,1-1.442,1.305c-.367.277-.582.413-.6.389-.048-.058.739-.7,1.808-1.91a18.822,18.822,0,0,0,3.292-5.336c.141-.344.262-.69.376-1.018l.058-.165.168.01a26.378,26.378,0,0,0,5.568-.257c1.4-.212,2.233-.424,2.25-.361" transform="translate(-17.143 -17.467)" fill="#eb996e"/>
                <path id="Trazado_698276" data-name="Trazado 698276" d="M136.074,135.738a10.917,10.917,0,0,1-4.709,6.757c-.088-.106,1.353-1.3,2.646-3.176,1.31-1.861,1.933-3.628,2.063-3.582" transform="translate(-17.498 -18.081)" fill="#eb996e"/>
                <path id="Trazado_698277" data-name="Trazado 698277" d="M154.735,144.249c.005.012-.069.055-.218.127a5,5,0,0,1-.677.26,7.332,7.332,0,0,1-2.7.311,7.453,7.453,0,0,1-3.881-1.405,7.781,7.781,0,0,1-2.932-4.308l.251.161a17.611,17.611,0,0,1-4.955.234,17.36,17.36,0,0,1-1.827-.274,5.6,5.6,0,0,1-1.747-.574,1.377,1.377,0,0,1-.659-.747,1.267,1.267,0,0,1,.88-1.587l.791-.2c2.08-.5,3.975-.864,5.573-1.116s2.9-.4,3.8-.478a7.674,7.674,0,0,1,1.4-.066,9.256,9.256,0,0,1-1.383.24c-.892.133-2.182.329-3.766.618s-3.463.681-5.526,1.2l-.78.2a.841.841,0,0,0-.5.4.83.83,0,0,0-.071.645.943.943,0,0,0,.471.5,5.233,5.233,0,0,0,1.608.512,17.226,17.226,0,0,0,1.78.264,17.592,17.592,0,0,0,4.831-.211l.2-.037.049.2a7.487,7.487,0,0,0,2.733,4.114,7.322,7.322,0,0,0,3.682,1.431,7.925,7.925,0,0,0,2.633-.179c.6-.146.921-.276.934-.245" transform="translate(-18.029 -17.927)" fill="#eb996e"/>
                <path id="Trazado_698278" data-name="Trazado 698278" d="M147.921,278.961a1.724,1.724,0,0,1,.023-.775,5.113,5.113,0,0,1,.783-1.971,2.774,2.774,0,0,1,.467-.569.884.884,0,0,1,.876-.2.628.628,0,0,1,.388.39.841.841,0,0,1-.018.525,5.368,5.368,0,0,1-.408.791c-.3.511-.555,1.021-.943,1.6a1.121,1.121,0,0,1-1.041.469,2.242,2.242,0,0,1-1-.446,8.689,8.689,0,0,1-1.478-1.362,8.856,8.856,0,0,1-.582-.758,2.513,2.513,0,0,1-.438-.87.825.825,0,0,1,.444-.949.986.986,0,0,1,.936.212,5.752,5.752,0,0,1,.986,1.118,7.455,7.455,0,0,1,.967,1.877,1.976,1.976,0,0,1,.169.754,14.986,14.986,0,0,0-1.4-2.437,5.9,5.9,0,0,0-.947-1,.626.626,0,0,0-.556-.146.416.416,0,0,0-.181.488,2.183,2.183,0,0,0,.382.7,8.679,8.679,0,0,0,.562.712,8.561,8.561,0,0,0,1.405,1.283,1.818,1.818,0,0,0,.787.364.653.653,0,0,0,.631-.291c.323-.47.634-1.05.932-1.533a5.428,5.428,0,0,0,.39-.706c.079-.222.036-.365-.119-.426-.355-.146-.7.254-.94.595a7.42,7.42,0,0,0-1.075,2.559" transform="translate(-19.252 -36.604)" fill="#263238"/>
                <path id="Trazado_698279" data-name="Trazado 698279" d="M171.62,278.462l9.975,21.619,16.1-7.436-10.317-26.756Z" transform="translate(-22.861 -35.419)" fill="#ffbe9d"/>
                <path id="Trazado_698280" data-name="Trazado 698280" d="M179.757,302.27l5.828,11.114s-14.918,15.424-13.518,18.873l35.07-16.815L197.5,293.15Z" transform="translate(-22.909 -39.05)" fill="#455a64"/>
                <path id="Trazado_698281" data-name="Trazado 698281" d="M199.156,308.738a1.588,1.588,0,0,1,1.773,1.16,1.526,1.526,0,0,1-1.134,1.768,1.675,1.675,0,0,1-1.872-1.238,1.583,1.583,0,0,1,1.383-1.708" transform="translate(-26.364 -41.124)" fill="#e0e0e0"/>
                <g id="Grupo_952360" data-name="Grupo 952360" transform="translate(148.943 273.596)" opacity="0.6">
                  <g id="Grupo_952359" data-name="Grupo 952359">
                    <g id="Grupo_952358" data-name="Grupo 952358" clip-path="url(#clip-path-6)">
                      <path id="Trazado_698282" data-name="Trazado 698282" d="M207.119,318.438l-1.459-2.8L172.581,332.81s-1.235,1.428-.531,2.443Z" transform="translate(-171.833 -315.643)" fill="#fff"/>
                    </g>
                  </g>
                </g>
                <path id="Trazado_698283" data-name="Trazado 698283" d="M186.922,316.493c.088.169.981-.164,2.088-.017,1.11.118,1.9.651,2.025.508.142-.109-.6-1.011-1.947-1.165s-2.279.535-2.166.674" transform="translate(-24.898 -42.067)" fill="#263238"/>
                <path id="Trazado_698284" data-name="Trazado 698284" d="M183.519,320.344c.041.185.921.12,1.851.566.942.418,1.464,1.13,1.631,1.041.173-.05-.189-1.109-1.354-1.642s-2.2-.13-2.128.035" transform="translate(-24.446 -42.632)" fill="#263238"/>
                <path id="Trazado_698285" data-name="Trazado 698285" d="M183.121,326.261c.172-.038,0-1.008-.889-1.735s-1.869-.716-1.873-.538c-.029.187.732.441,1.453,1.049.735.59,1.13,1.289,1.31,1.225" transform="translate(-24.025 -43.144)" fill="#263238"/>
                <path id="Trazado_698286" data-name="Trazado 698286" d="M184.989,311.39c.146.121.819-.491,1.819-.889.992-.419,1.9-.455,1.919-.645.04-.172-1-.452-2.17.033s-1.716,1.407-1.568,1.5" transform="translate(-24.639 -41.244)" fill="#263238"/>
                <path id="Trazado_698287" data-name="Trazado 698287" d="M173.122,283.974l-26.293-65.8s.591-11.227,2.658-14.773,64.705-24.226,64.705-24.226,15.954-3.842,26.591,0,21.778,7.7,20.585,15.14c-1.745,10.867-11.16,22.194-11.16,22.194l-46.061,1.369-25.1,9.159,16.907,48.454Z" transform="translate(-19.559 -23.64)" fill="#263238"/>
                <path id="Trazado_698288" data-name="Trazado 698288" d="M150.091,247.8l-.593,23.8,17.726.433,2.554-28.562Z" transform="translate(-19.914 -32.433)" fill="#ffbe9d"/>
                <path id="Trazado_698289" data-name="Trazado 698289" d="M145.186,273.418l.323,12.545s-20.2,7.255-20.461,10.968l38.89.394,1.2-24.255Z" transform="translate(-16.658 -36.375)" fill="#455a64"/>
                <path id="Trazado_698290" data-name="Trazado 698290" d="M162.253,286.13a1.589,1.589,0,0,1,1.08,1.824,1.528,1.528,0,0,1-1.8,1.086A1.675,1.675,0,0,1,160.4,287.1a1.584,1.584,0,0,1,2-.922" transform="translate(-21.359 -38.106)" fill="#e0e0e0"/>
                <g id="Grupo_952363" data-name="Grupo 952363" transform="translate(108.378 257.797)" opacity="0.6">
                  <g id="Grupo_952362" data-name="Grupo 952362">
                    <g id="Grupo_952361" data-name="Grupo 952361" clip-path="url(#clip-path-7)">
                      <path id="Trazado_698291" data-name="Trazado 698291" d="M163.938,300.569l-.076-3.153-37.258.8s-1.74.736-1.557,1.957Z" transform="translate(-125.034 -297.416)" fill="#fff"/>
                    </g>
                  </g>
                </g>
                <path id="Trazado_698292" data-name="Trazado 698292" d="M147.929,287.683c0,.19.953.286,1.881.906.945.6,1.418,1.423,1.594,1.35.175-.035-.1-1.173-1.233-1.9s-2.281-.526-2.242-.352" transform="translate(-19.705 -38.299)" fill="#263238"/>
                <path id="Trazado_698293" data-name="Trazado 698293" d="M143.2,289.6c-.045.184.773.515,1.41,1.324.661.791.814,1.662,1,1.655.178.032.32-1.079-.491-2.071s-1.918-1.09-1.923-.908" transform="translate(-19.076 -38.567)" fill="#263238"/>
                <path id="Trazado_698294" data-name="Trazado 698294" d="M140.245,294.707c.173.042.446-.9-.031-1.949s-1.361-1.468-1.443-1.311c-.108.155.462.719.841,1.583.4.855.446,1.656.634,1.676" transform="translate(-18.484 -38.819)" fill="#263238"/>
                <path id="Trazado_698295" data-name="Trazado 698295" d="M148.377,282.323c.078.174.952-.079,2.025,0,1.074.062,1.905.431,2.007.269.111-.136-.7-.847-1.962-.928s-2.161.505-2.069.655" transform="translate(-19.764 -37.519)" fill="#263238"/>
                <path id="Trazado_698296" data-name="Trazado 698296" d="M159.95,172.2s-10.62-.849-11.8,10.674-2.342,65.3-2.342,65.3l24.818,2.068,3.841-54.954,39.592-16.842s-47.015-7.72-54.106-6.243" transform="translate(-19.423 -22.914)" fill="#263238"/>
                <path id="Trazado_698297" data-name="Trazado 698297" d="M211.8,154.292s-6.445,18.071-5.218,20.085,17.8,10.3,17.8,10.3l41.474,15.929a34.761,34.761,0,0,0,4.259-17.184c0-10.408-14.426-29.131-14.426-29.131Z" transform="translate(-27.498 -20.553)" fill="#263238"/>
                <path id="Trazado_698298" data-name="Trazado 698298" d="M216.018,178.369a.937.937,0,0,1-.2.1l-.589.273-2.3,1.022-8.621,3.755-29.764,12.813.134-.189c-.376,5.429-.784,11.291-1.2,17.356-1.009,14.179-1.939,27.252-2.675,37.6l-.013.188-.186-.016-18.08-1.587-4.978-.465-1.3-.135a2.778,2.778,0,0,1-.443-.064,2.6,2.6,0,0,1,.447.009l1.305.082,4.987.365L170.64,250.9l-.2.172c.71-10.345,1.607-23.421,2.58-37.6.427-6.065.84-11.928,1.222-17.355l.01-.135.125-.054,29.829-12.66,8.672-3.637c.994-.409,1.772-.728,2.326-.954l.6-.238a1,1,0,0,1,.21-.069" transform="translate(-19.423 -23.76)" fill="#455a64"/>
                <path id="Trazado_698299" data-name="Trazado 698299" d="M260.293,179.717a6.022,6.022,0,0,1-1.164-.318l-3.123-1.006a68.037,68.037,0,0,0-10.451-2.641,30.619,30.619,0,0,0-10.7.138,43.009,43.009,0,0,0-4.288,1.242,5.117,5.117,0,0,1,1.079-.546,19.148,19.148,0,0,1,3.138-1.016,28.745,28.745,0,0,1,10.838-.276,58.028,58.028,0,0,1,10.486,2.788c1.307.464,2.357.862,3.078,1.147a5.991,5.991,0,0,1,1.1.488" transform="translate(-30.714 -23.3)" fill="#455a64"/>
                <path id="Trazado_698300" data-name="Trazado 698300" d="M254.521,169.41a30.911,30.911,0,0,0-3.627-.02c-1.116.078-2.446.25-3.926.42s-3.1.375-4.779.693a22.249,22.249,0,0,0-8.127,3.015,25.235,25.235,0,0,0-2.818,2.271,3.191,3.191,0,0,1,.6-.78,12.347,12.347,0,0,1,2.033-1.762,20.814,20.814,0,0,1,8.223-3.2c1.7-.322,3.335-.51,4.818-.662s2.821-.286,3.956-.323a14.905,14.905,0,0,1,2.683.12,3.156,3.156,0,0,1,.96.227" transform="translate(-30.804 -22.519)" fill="#455a64"/>
                <path id="Trazado_698301" data-name="Trazado 698301" d="M194.908,91.176s7.419-12.37,9.477-14.872a16.515,16.515,0,0,1,6.077-4.456,12.6,12.6,0,0,1,2.887-.854l10.669-2.362s.019,7.282,7.649,7.733,14.055-10.178,14.055-10.178S258.049,68.093,261,69.61s7.584,3.444,10.135,16.216l1.79,12.494-21.254,1.964-2.034,31.582-10.54,7.341s-29.222,7.6-31.089,8.1-2.486-47.023-2.486-47.023-7.506-4.853-10.612-9.108" transform="translate(-25.963 -8.817)" fill="#12263f"/>
                <path id="Trazado_698302" data-name="Trazado 698302" d="M210.5,88.888a4.423,4.423,0,0,0-.41.911c-.244.6-.553,1.473-.9,2.569a50.289,50.289,0,0,0-2.173,17.751c.07,1.148.159,2.074.251,2.71a4.509,4.509,0,0,0,.179.984,4.47,4.47,0,0,0-.013-1c-.042-.639-.085-1.565-.116-2.707a59.093,59.093,0,0,1,2.161-17.654c.306-1.1.571-1.989.765-2.6a4.48,4.48,0,0,0,.254-.966" transform="translate(-27.566 -11.841)" fill="#263238"/>
                <path id="Trazado_698303" data-name="Trazado 698303" d="M261.069,88.024a3.96,3.96,0,0,1,.019.965q-.043,1.075-.106,2.619c-.109,2.318-.25,5.319-.406,8.636-.159,3.374-.335,6.429-.5,8.638-.085,1.1-.162,2-.229,2.613a3.953,3.953,0,0,1-.147.954,3.952,3.952,0,0,1-.028-.966q.035-1.074.085-2.619c.1-2.319.228-5.32.371-8.641.16-3.374.354-6.427.538-8.634.092-1.1.177-2,.249-2.612a3.974,3.974,0,0,1,.156-.953" transform="translate(-34.59 -11.726)" fill="#263238"/>
                <path id="Trazado_698304" data-name="Trazado 698304" d="M211.816,142.585l40.017-8.71,1.85-28.6,17.8-1.645s-1.252,19.514-1.343,25.367c-.263,16.871-5.926,19.77-8.818,22.049s-51.3,1.252-51.3,1.252Z" transform="translate(-27.976 -13.804)" fill="#ffbe9d"/>
                <path id="Trazado_698305" data-name="Trazado 698305" d="M185.238,152.35a1.544,1.544,0,0,0,1.49.868,1.775,1.775,0,0,0,.387-.078c.885-.284.8-2.086.8-2.086l4.241-.693s5.515,3.556,7.477,5.913,6.967.448,6.967.448l1.735-9.039-7.806-7.059s.479.42-.059-.9-2.991-.822-2.991-.822c-.381-.653-1.984-.887-1.984-.887l-6.847.79a4.693,4.693,0,0,0-3.431,2.156l-2.9,4.583s-1.529,3.3-1.284,4.067a1.371,1.371,0,0,0,1.6.9s.336,2.17.907,2.245a4.691,4.691,0,0,0,1.695-.407" transform="translate(-24.113 -18.385)" fill="#ffbe9d"/>
                <path id="Trazado_698306" data-name="Trazado 698306" d="M200.676,147.023c-.007.072-.918-.012-2.38.051a20.739,20.739,0,0,0-5.587,1.046,19.791,19.791,0,0,0-2.881,1.231c-.828.466-1.69.849-1.955,1.452a.831.831,0,0,0,.075.816,1.157,1.157,0,0,0,.517.437,1.823,1.823,0,0,0,.6.088c.016.01-.212.188-.656.072a1.279,1.279,0,0,1-.66-.456,1.1,1.1,0,0,1-.162-1.072,2.191,2.191,0,0,1,.852-.962c.373-.244.764-.494,1.2-.728a17.933,17.933,0,0,1,8.653-2.232,7.894,7.894,0,0,1,2.387.257" transform="translate(-24.978 -19.551)" fill="#eb996e"/>
                <path id="Trazado_698307" data-name="Trazado 698307" d="M201.343,152.056c-.008.129-2.795.013-6.217.214s-6.18.619-6.2.491a6.8,6.8,0,0,1,1.783-.433,40.08,40.08,0,0,1,8.817-.5,6.834,6.834,0,0,1,1.82.229" transform="translate(-25.166 -20.217)" fill="#eb996e"/>
                <path id="Trazado_698308" data-name="Trazado 698308" d="M185.914,152.76a3.145,3.145,0,0,1-.086-.73,15.81,15.81,0,0,1,0-2,8.533,8.533,0,0,1,.191-1.389,4.251,4.251,0,0,1,.673-1.492,9.355,9.355,0,0,1,2.566-2.627,12.886,12.886,0,0,1,3.275-1.656,11.846,11.846,0,0,1,2.957-.45c.847-.029,1.529-.011,2,.006a2.418,2.418,0,0,1,.732.075,22.211,22.211,0,0,1-2.712.227,12.862,12.862,0,0,0-2.856.526,13.411,13.411,0,0,0-3.147,1.631,9.367,9.367,0,0,0-2.482,2.5,5.194,5.194,0,0,0-.888,2.679c-.164,1.658-.122,2.71-.217,2.708" transform="translate(-24.749 -18.969)" fill="#eb996e"/>
                <path id="Trazado_698309" data-name="Trazado 698309" d="M195.445,140.011c0,.066-1.025.093-2.661.282-1.575.241-4.1.355-5.532,2.528a23.265,23.265,0,0,0-3.456,5.371,13.888,13.888,0,0,0-.648,2.563,1.9,1.9,0,0,1-.04-.727,6.912,6.912,0,0,1,.4-1.943,20.332,20.332,0,0,1,3.4-5.536,7.409,7.409,0,0,1,1.331-1.345,4.816,4.816,0,0,1,1.611-.757,14.628,14.628,0,0,1,2.9-.461,10.48,10.48,0,0,1,2.69.026" transform="translate(-24.391 -18.64)" fill="#eb996e"/>
                <path id="Trazado_698310" data-name="Trazado 698310" d="M198.105,154.786a2.481,2.481,0,0,1-.407-.31l-1.147-.921a47.408,47.408,0,0,0-4.5-3.1l.1.018-4.237.721.146-.179a4.663,4.663,0,0,1-.079,1.036,1.921,1.921,0,0,1-.481,1.019,1.051,1.051,0,0,1-.563.258,1.478,1.478,0,0,1-.6.036,1.739,1.739,0,0,1-1.055-.584,1.806,1.806,0,0,1-.184-.251l-.039-.068-.019-.035-.01-.017v0c-.055-.021.473.172.249.091l0,0-.01,0-.133.055c-.179.071-.361.136-.548.194a4.7,4.7,0,0,1-.581.145,2.143,2.143,0,0,1-.315.035.726.726,0,0,1-.393-.076,1.264,1.264,0,0,1-.416-.561,4.694,4.694,0,0,1-.21-.582,10.011,10.011,0,0,1-.273-1.2l.248.172a1.608,1.608,0,0,1-1.579-.538,1.306,1.306,0,0,1-.292-.854,3.775,3.775,0,0,1,.151-.82,22.826,22.826,0,0,1,1.168-3.049l.005-.011.009-.014,1.544-2.445.979-1.549a8.35,8.35,0,0,1,1.074-1.5,4.564,4.564,0,0,1,1.537-1.021,5.94,5.94,0,0,1,1.746-.362l6.454-.726.028,0,.023,0a6.036,6.036,0,0,1,1.132.3,1.931,1.931,0,0,1,.983.688l-.238-.075a2.365,2.365,0,0,1,2.2.123,2.764,2.764,0,0,1,1.088,1.734l-.051-.089,5.379,4.838,1.449,1.335a3.713,3.713,0,0,1,.485.49,3.8,3.8,0,0,1-.546-.42l-1.506-1.27-5.475-4.73-.037-.032-.015-.057a2.448,2.448,0,0,0-.96-1.506,2.017,2.017,0,0,0-1.854-.081l-.15.063-.088-.137a1.615,1.615,0,0,0-.8-.519,5.635,5.635,0,0,0-1.055-.269h.05l-6.451.762a5.529,5.529,0,0,0-1.634.34,4.132,4.132,0,0,0-1.389.927A8.045,8.045,0,0,0,185,141.637q-.486.768-.979,1.55l-1.545,2.444.013-.024a22.7,22.7,0,0,0-1.151,2.979,3.458,3.458,0,0,0-.138.723.88.88,0,0,0,.2.581,1.194,1.194,0,0,0,1.16.389l.213-.035.035.206a9.752,9.752,0,0,0,.254,1.148,2.069,2.069,0,0,0,.443.916.4.4,0,0,0,.173.019,1.828,1.828,0,0,0,.259-.027,4.35,4.35,0,0,0,.531-.129c.176-.054.351-.114.521-.18l.127-.05.007,0,0,0c-.223-.082.306.11.252.091v0l.008.014.015.027.029.054a1.412,1.412,0,0,0,.144.2,1.354,1.354,0,0,0,.817.464,1.133,1.133,0,0,0,.466-.027.692.692,0,0,0,.387-.162,2.656,2.656,0,0,0,.464-1.771v-.157l.145-.023,4.246-.663.055-.009.042.028a40.726,40.726,0,0,1,4.451,3.224c.491.415.86.749,1.1.982a2.428,2.428,0,0,1,.353.371" transform="translate(-24.081 -18.355)" fill="#eb996e"/>
                <path id="Trazado_698311" data-name="Trazado 698311" d="M243.472,171.627h-6.733v1.487l14.739,143.735h7.858Z" transform="translate(-31.536 -22.862)" fill="#455a64"/>
                <path id="Trazado_698312" data-name="Trazado 698312" d="M243.462,171.617s.017.263.066.758.126,1.239.224,2.2c.2,1.935.5,4.768.886,8.419.783,7.312,1.914,17.885,3.316,30.987,2.837,26.183,6.768,62.461,11.148,102.887l.225-.251h-7.858l.225.2C244.754,249.159,238.819,191.923,236.8,173.1v.007c0-.691,0-1.1-.006-1.487l-.063.064,5.08-.036,1.24-.015c.274,0,.413-.013.413-.013s-.125-.008-.393-.013l-1.226-.015-5.115-.036h-.062v.064c0,.389,0,.8-.006,1.487v.007c1.841,18.845,7.646,76.095,14.583,143.751l.021.2h8.314l-.028-.252L248.2,213.792c-1.458-13.075-2.633-23.627-3.447-30.924-.411-3.626-.729-6.441-.947-8.363q-.166-1.413-.253-2.163c-.059-.485-.1-.726-.1-.726" transform="translate(-31.525 -22.852)" fill="#263238"/>
                <path id="Trazado_698313" data-name="Trazado 698313" d="M106.236,171.627H99.5v1.524l14.028,143.668h6.915Z" transform="translate(-13.255 -22.862)" fill="#263238"/>
                <path id="Trazado_698314" data-name="Trazado 698314" d="M240.063,172.408.087,172.665,0,166.332H240.063Z" transform="translate(0 -22.157)" fill="#263238"/>
                <path id="Trazado_698315" data-name="Trazado 698315" d="M36.863,171.627H43.6v1.524L29.568,316.819H22.653Z" transform="translate(-3.018 -22.862)" fill="#455a64"/>
                <path id="Trazado_698316" data-name="Trazado 698316" d="M36.513,173.789s-.016.257-.059.745-.111,1.217-.2,2.162c-.179,1.9-.444,4.7-.784,8.3-.692,7.2-1.692,17.628-2.931,30.541-2.506,25.809-5.977,61.566-9.844,101.4l-.187-.206h6.914l-.186.169c6.554-66.521,12.106-122.869,13.949-141.585v.005c0-.706,0-1.124.005-1.524l.053.053-5.082-.029-1.239-.013c-.274,0-.413-.01-.413-.01s.127-.007.394-.01l1.228-.012,5.111-.03H43.3v.053c0,.4,0,.818.005,1.524v.006c-1.81,18.719-7.259,75.077-13.692,141.611l-.016.169H22.3l.021-.206c3.931-39.876,7.46-75.673,10.007-101.512,1.285-12.892,2.322-23.3,3.04-30.489.362-3.579.643-6.357.835-8.249q.146-1.4.223-2.136c.051-.479.084-.718.084-.718" transform="translate(-2.971 -23.143)" fill="#263238"/>
                <path id="Trazado_698317" data-name="Trazado 698317" d="M150.2,172.263h-6.733v1.519L157.5,316.9h6.915Z" transform="translate(-19.111 -22.947)" fill="#455a64"/>
                <path id="Trazado_698318" data-name="Trazado 698318" d="M150.541,174.417s.016.256.059.743.111,1.213.2,2.153c.179,1.9.444,4.679.784,8.265.692,7.177,1.692,17.56,2.931,30.425,2.506,25.71,5.977,61.332,9.844,101.011l.187-.2h-6.914l.186.169c-6.554-66.269-12.106-122.4-13.949-141.048v.006c0-.7,0-1.121-.005-1.519l-.053.053,5.082-.03,1.239-.012c.274,0,.413-.01.413-.01s-.127-.007-.394-.01l-1.228-.012-5.111-.03h-.053v.053c0,.4,0,.815-.005,1.519v.005c1.81,18.648,7.258,74.793,13.692,141.073l.016.169h7.292l-.021-.205c-3.931-39.724-7.46-75.387-10.007-101.126-1.285-12.843-2.322-23.209-3.04-30.373-.362-3.566-.643-6.333-.835-8.219-.1-.929-.172-1.64-.223-2.127s-.084-.715-.084-.715" transform="translate(-19.149 -23.227)" fill="#263238"/>
                <path id="Trazado_698319" data-name="Trazado 698319" d="M242.707,173.355c0-.12-48.383-.217-108.053-.217-59.691,0-108.063.1-108.063.217s48.372.217,108.063.217c59.67,0,108.053-.1,108.053-.217" transform="translate(-3.542 -23.064)" fill="#263238"/>
                <path id="Trazado_698320" data-name="Trazado 698320" d="M101.963,114.99l52.71.428c1.71,0,3.344.822,3.6,2.512l5.761,38.417h27.15a1.583,1.583,0,1,1,0,3.166H104.47l-5.926-40.546a3.459,3.459,0,0,1,3.419-3.977" transform="translate(-13.122 -15.318)" fill="#e0e0e0"/>
                <path id="Trazado_698321" data-name="Trazado 698321" d="M101.954,114.987a2.79,2.79,0,0,0-.83.078,3.485,3.485,0,0,0-2.665,3.017,9.785,9.785,0,0,0,.194,2.168c.22,1.553.475,3.341.76,5.351,1.16,8.054,2.832,19.662,4.887,33.932l.021.14h.14l84.125.05h2.264a2.187,2.187,0,0,0,1.2-.228,1.8,1.8,0,0,0-.008-3.14,2.2,2.2,0,0,0-1.188-.223h-1.115l-8.811,0-16.9.006.2.174c-2.073-13.759-4.008-26.592-5.743-38.107a2.982,2.982,0,0,0-.975-2.007,3.923,3.923,0,0,0-2.015-.889,17.518,17.518,0,0,0-2.125-.075l-2.069-.014-7.935-.054-14.1-.089-20.077-.1-5.371-.01-1.387.007c-.311,0-.471.014-.471.014s.159.014.471.022l1.387.029,5.371.077,20.077.224,14.1.14,7.935.075,2.07.02a17.227,17.227,0,0,1,2.072.075,3.584,3.584,0,0,1,1.838.811,2.621,2.621,0,0,1,.857,1.8c1.718,11.516,3.633,24.353,5.686,38.115l.026.175h.177l16.9.006h9.926a1.773,1.773,0,0,1,.982.171,1.371,1.371,0,0,1,.006,2.4,1.767,1.767,0,0,1-.991.173h-2.264l-84.125.05.161.139c-2.115-14.262-3.836-25.862-5.029-33.912-.3-2.007-.569-3.793-.8-5.344a9.8,9.8,0,0,1-.215-2.136,3.375,3.375,0,0,1,.612-1.639,3.448,3.448,0,0,1,1.948-1.344,6.722,6.722,0,0,1,.819-.125" transform="translate(-13.113 -15.315)" fill="#263238"/>
                <path id="Trazado_698322" data-name="Trazado 698322" d="M138.272,139.6a3.3,3.3,0,1,1-3.3-3.3,3.3,3.3,0,0,1,3.3,3.3" transform="translate(-17.54 -18.157)" fill="#fff"/>
                <path id="Trazado_698323" data-name="Trazado 698323" d="M170.528,159.224c-.075.012-1.753-9.77-3.747-21.847S163.23,115.5,163.3,115.484s1.752,9.768,3.748,21.849,3.551,21.879,3.477,21.891" transform="translate(-21.753 -15.384)" fill="#263238"/>
              </g>
            </g>
          </g>
        </g>
      </g>
      <g id="Grupo_952391" data-name="Grupo 952391" transform="translate(358.251 3232.857)">
        <g id="Grupo_952388" data-name="Grupo 952388">
          <g id="Grupo_952387" data-name="Grupo 952387" clip-path="url(#clip-path-8)">
            <path id="Trazado_698470" data-name="Trazado 698470" d="M51.378,49.168c-.04.05-.376-.152-.75-.452s-.645-.583-.605-.634.377.152.751.452.645.583.6.634" transform="translate(-27.021 -25.971)" fill="#e0e0e0"/>
            <path id="Trazado_698471" data-name="Trazado 698471" d="M62.274,8.81a11.8,11.8,0,0,0-.348-4.242,4.181,4.181,0,0,0-2.892-2.889,4.2,4.2,0,0,0-4.123,2.038,11.74,11.74,0,0,0-1.465,4.622,163.217,163.217,0,0,0-2,33.55l6.527.915c2.866-11.712,3.781-21.948,4.3-33.994" transform="translate(-27.708 -0.873)" fill="#ebebeb"/>
            <path id="Trazado_698472" data-name="Trazado 698472" d="M60.522,1.644a.379.379,0,0,1-.029.1l-.108.3L59.95,3.171c-.091.246-.212.512-.309.816l-.317.989q-.172.532-.366,1.135L58.621,7.4a56.784,56.784,0,0,0-1.261,6.459c-.353,2.454-.585,5.173-.767,8.029-.334,5.718-.386,10.909-.533,14.662-.07,1.877-.134,3.4-.206,4.444q-.052.763-.082,1.206c-.011.126-.02.229-.027.314a.389.389,0,0,1-.017.106.362.362,0,0,1-.007-.108c0-.085,0-.188,0-.314.009-.3.022-.7.038-1.209.044-1.049.083-2.567.131-4.444.1-3.753.131-8.943.465-14.671.182-2.861.421-5.586.787-8.045a54.092,54.092,0,0,1,1.314-6.471l.354-1.294L59.2,4.934l.336-.985c.1-.3.231-.567.329-.811l.476-1.113.129-.287a.361.361,0,0,1,.051-.094" transform="translate(-30.102 -0.888)" fill="#e0e0e0"/>
            <path id="Trazado_698473" data-name="Trazado 698473" d="M65.682,1.652a4.668,4.668,0,0,1,.8,1.35,9.986,9.986,0,0,1,.595,4.222c-.173,3.606-.5,8.576-.925,14.062s-.91,10.448-1.3,14.034c-.193,1.793-.36,3.242-.482,4.243q-.093.727-.148,1.152c-.017.12-.032.217-.044.3a.346.346,0,0,1-.023.1.343.343,0,0,1,0-.1c.006-.082.013-.181.022-.3q.039-.427.1-1.156c.1-1.025.237-2.472.408-4.25.343-3.589.795-8.55,1.227-14.035s.778-10.455.993-14.049a10.216,10.216,0,0,0-.515-4.183,8.807,8.807,0,0,0-.713-1.384" transform="translate(-34.656 -0.892)" fill="#e0e0e0"/>
            <path id="Trazado_698474" data-name="Trazado 698474" d="M74.5,37.362a7.013,7.013,0,0,1-2.4-.859,7,7,0,0,1,2.4.859" transform="translate(-38.953 -19.712)" fill="#e0e0e0"/>
            <path id="Trazado_698475" data-name="Trazado 698475" d="M76.15,23.91a3.967,3.967,0,0,1-1.177.654,3.956,3.956,0,0,1-1.272.441,3.968,3.968,0,0,1,1.177-.654,3.952,3.952,0,0,1,1.272-.441" transform="translate(-39.814 -12.911)" fill="#e0e0e0"/>
            <path id="Trazado_698476" data-name="Trazado 698476" d="M75.875,11.879a4.069,4.069,0,0,1-1.93-.133,4.069,4.069,0,0,1,1.93.133" transform="translate(-39.946 -6.309)" fill="#e0e0e0"/>
            <path id="Trazado_698477" data-name="Trazado 698477" d="M62.216,2.532c-.055.034-.34-.322-.638-.8s-.5-.885-.441-.92.34.322.638.8.5.885.441.92" transform="translate(-33.022 -0.44)" fill="#e0e0e0"/>
            <path id="Trazado_698478" data-name="Trazado 698478" d="M56.482,11.527a3.718,3.718,0,0,1-1.849-.04,3.732,3.732,0,0,1,1.849.04" transform="translate(-29.513 -6.153)" fill="#e0e0e0"/>
            <path id="Trazado_698479" data-name="Trazado 698479" d="M52.988,25.073a2.267,2.267,0,0,1-.975-.268c-.515-.208-.912-.424-.888-.484a2.271,2.271,0,0,1,.975.268c.515.207.912.424.888.484" transform="translate(-27.618 -13.13)" fill="#e0e0e0"/>
            <path id="Trazado_698480" data-name="Trazado 698480" d="M52.8,37.948c.013.063-.359.194-.83.293s-.865.128-.878.065.359-.194.83-.293.865-.128.878-.065" transform="translate(-27.6 -20.482)" fill="#e0e0e0"/>
            <path id="Trazado_698481" data-name="Trazado 698481" d="M51.052,57.595c.011.063-.384.187-.882.276a1.9,1.9,0,0,1-.923.047c-.011-.063.383-.187.882-.276a1.9,1.9,0,0,1,.923-.047" transform="translate(-26.604 -31.094)" fill="#e0e0e0"/>
            <path id="Trazado_698482" data-name="Trazado 698482" d="M50.228,68.47c.03.057-.3.29-.735.521s-.814.371-.844.314.3-.29.735-.521.814-.372.844-.314" transform="translate(-26.28 -36.982)" fill="#e0e0e0"/>
            <path id="Trazado_698483" data-name="Trazado 698483" d="M59.665,78.582c-.056.032-.343-.364-.641-.884a2.626,2.626,0,0,1-.438-1c.056-.032.343.364.64.884a2.625,2.625,0,0,1,.439,1" transform="translate(-31.644 -41.432)" fill="#e0e0e0"/>
            <path id="Trazado_698484" data-name="Trazado 698484" d="M61.626,60.332c.045.046-.274.432-.714.863s-.832.742-.877.7.274-.433.714-.863.832-.743.877-.7" transform="translate(-32.43 -32.589)" fill="#e0e0e0"/>
            <path id="Trazado_698485" data-name="Trazado 698485" d="M61.572,48.134c-.047.044-.343-.2-.662-.543s-.538-.658-.491-.7.344.2.662.543.538.658.491.7" transform="translate(-32.635 -25.327)" fill="#e0e0e0"/>
            <path id="Trazado_698486" data-name="Trazado 698486" d="M63.083,35.88c.048.043-.218.419-.595.839s-.72.725-.768.683.218-.418.595-.839.72-.725.768-.683" transform="translate(-33.339 -19.381)" fill="#e0e0e0"/>
            <path id="Trazado_698487" data-name="Trazado 698487" d="M63.917,24.2c-.045.046-.417-.246-.83-.652s-.712-.773-.667-.819.417.247.83.652.712.772.667.818" transform="translate(-33.718 -12.274)" fill="#e0e0e0"/>
            <path id="Trazado_698488" data-name="Trazado 698488" d="M66.4,12.472a2.291,2.291,0,0,1-.417.926c-.286.479-.562.84-.617.806a2.285,2.285,0,0,1,.417-.926c.286-.479.562-.84.617-.807" transform="translate(-35.306 -6.736)" fill="#e0e0e0"/>
            <path id="Trazado_698489" data-name="Trazado 698489" d="M70.159,0a2.214,2.214,0,0,1-.368.928c-.26.481-.517.847-.574.816a2.2,2.2,0,0,1,.368-.927c.26-.481.517-.847.574-.817" transform="translate(-37.386 0)" fill="#e0e0e0"/>
            <path id="Trazado_698490" data-name="Trazado 698490" d="M73.936,5.647c.028.058-.233.241-.583.408s-.656.256-.684.2.233-.241.583-.408.656-.256.684-.2" transform="translate(-39.256 -3.041)" fill="#e0e0e0"/>
            <path id="Trazado_698491" data-name="Trazado 698491" d="M72.725,49.25a3.982,3.982,0,0,1-2.383-1.017,6.4,6.4,0,0,1,1.2.493,6.46,6.46,0,0,1,1.185.524" transform="translate(-37.999 -26.052)" fill="#e0e0e0"/>
            <path id="Trazado_698492" data-name="Trazado 698492" d="M71.717,59.9c.012.063-.381.192-.878.288a1.9,1.9,0,0,1-.922.059c-.012-.063.381-.192.878-.288a1.9,1.9,0,0,1,.922-.059" transform="translate(-37.77 -32.34)" fill="#e0e0e0"/>
            <path id="Trazado_698493" data-name="Trazado 698493" d="M69.838,73.806a3.7,3.7,0,0,1-1.617-2.039,7.636,7.636,0,0,1,.806,1.022,7.689,7.689,0,0,1,.811,1.018" transform="translate(-36.849 -38.768)" fill="#e0e0e0"/>
            <path id="Trazado_698494" data-name="Trazado 698494" d="M48.927,82.291c-.042-.049.223-.344.592-.66s.7-.532.744-.483-.223.344-.592.66-.7.532-.744.483" transform="translate(-26.429 -43.833)" fill="#e0e0e0"/>
            <path id="Trazado_698495" data-name="Trazado 698495" d="M36.376,44.744c-.425-1.326-1.222-2.873-2.614-2.893a2.313,2.313,0,0,0-1.958,1.31,4.836,4.836,0,0,0-.529,2.4,62.571,62.571,0,0,0,2.993,17.384h5.1a60.542,60.542,0,0,0-2.987-18.2" transform="translate(-16.894 -22.609)" fill="#ebebeb"/>
            <path id="Trazado_698496" data-name="Trazado 698496" d="M12.042,24.66a5.664,5.664,0,0,0-5.305-4.53c-2.252.395-3.126,2.612-3.393,4.883a16.161,16.161,0,0,0,1.134,6.709L11.185,52.7l6.339-.692c-2.007-9.369-3.159-18.054-5.483-27.35" transform="translate(-1.775 -10.874)" fill="#ebebeb"/>
            <path id="Trazado_698497" data-name="Trazado 698497" d="M35.685,41.852a5.441,5.441,0,0,0-.432.721,4.758,4.758,0,0,0-.239,2.253c.1.968.21,2.135.372,3.413s.4,2.683.683,4.146c.576,2.927,1.225,5.554,1.637,7.469.209.957.366,1.734.466,2.273l.106.622a.807.807,0,0,1,.022.22.8.8,0,0,1-.068-.21c-.04-.166-.09-.369-.149-.612l-.537-2.254c-.453-1.9-1.127-4.525-1.705-7.461-.287-1.468-.512-2.876-.668-4.164-.081-.643-.135-1.258-.187-1.832s-.109-1.1-.136-1.6a4.628,4.628,0,0,1,.32-2.3,2.016,2.016,0,0,1,.515-.683" transform="translate(-18.817 -22.609)" fill="#e0e0e0"/>
            <path id="Trazado_698498" data-name="Trazado 698498" d="M8.735,19.738a8.409,8.409,0,0,0-.766,1.029A7.241,7.241,0,0,0,7,24.084a15.351,15.351,0,0,0,.784,5.1L9.6,35.318l3.245,11.153.957,3.387.249.924a1.87,1.87,0,0,1,.072.326A1.778,1.778,0,0,1,14,50.8l-.291-.912-1.029-3.366L9.374,35.384,7.582,29.247a15.157,15.157,0,0,1-.742-5.173,7.108,7.108,0,0,1,1.052-3.355,3.911,3.911,0,0,1,.843-.981" transform="translate(-3.681 -10.663)" fill="#e0e0e0"/>
            <path id="Trazado_698499" data-name="Trazado 698499" d="M19.8,51.271a1.8,1.8,0,0,1-.143-.3c-.083-.2-.218-.5-.361-.892-.3-.779-.69-1.927-1.09-3.367s-.8-3.176-1.182-5.112c-.367-1.941-.771-4.071-1.194-6.306-.441-2.231-.932-4.343-1.5-6.227a34.662,34.662,0,0,0-1.848-4.884,25.889,25.889,0,0,0-1.709-3.08c-.218-.355-.416-.612-.534-.8a1.827,1.827,0,0,1-.177-.286,1.858,1.858,0,0,1,.215.258c.131.177.341.425.572.774a23.007,23.007,0,0,1,1.782,3.059A33.074,33.074,0,0,1,14.537,29a62.535,62.535,0,0,1,1.525,6.245l1.176,6.31c.371,1.936.749,3.67,1.13,5.111s.741,2.592,1.017,3.379c.13.4.251.7.32.905a1.838,1.838,0,0,1,.1.321" transform="translate(-5.436 -10.813)" fill="#e0e0e0"/>
            <path id="Trazado_698500" data-name="Trazado 698500" d="M4.25,43.031c.015.063-.33.2-.77.307s-.81.143-.825.08.33-.2.77-.307.81-.143.825-.08" transform="translate(-1.434 -23.229)" fill="#e0e0e0"/>
            <path id="Trazado_698501" data-name="Trazado 698501" d="M2.144,33.514a3.135,3.135,0,0,1-1.069.116A3.138,3.138,0,0,1,0,33.6a2.188,2.188,0,0,1,1.066-.2,2.19,2.19,0,0,1,1.078.117" transform="translate(0 -18.039)" fill="#e0e0e0"/>
            <path id="Trazado_698502" data-name="Trazado 698502" d="M4.582,23.672c-.042.049-.386-.175-.769-.5s-.66-.628-.618-.677.386.175.769.5.66.628.618.677" transform="translate(-1.723 -12.148)" fill="#e0e0e0"/>
            <path id="Trazado_698503" data-name="Trazado 698503" d="M10.192,17.106c.064.015.046.322.037.7s-.012.681-.077.692-.169-.3-.156-.7.135-.7.2-.688" transform="translate(-5.399 -9.241)" fill="#e0e0e0"/>
            <path id="Trazado_698504" data-name="Trazado 698504" d="M17.969,20.851c.053.037-.1.349-.346.7s-.485.6-.537.564.1-.349.346-.7.484-.6.537-.564" transform="translate(-9.224 -11.262)" fill="#e0e0e0"/>
            <path id="Trazado_698505" data-name="Trazado 698505" d="M22.768,30.524c.024.06-.3.25-.733.425s-.8.269-.821.209.3-.25.733-.425.8-.269.821-.209" transform="translate(-11.459 -16.48)" fill="#e0e0e0"/>
            <path id="Trazado_698506" data-name="Trazado 698506" d="M25.51,40.5a1.918,1.918,0,0,1-1.005.439,1.918,1.918,0,0,1-1.1.038,4.169,4.169,0,0,1,1.045-.265A4.172,4.172,0,0,1,25.51,40.5" transform="translate(-12.646 -21.869)" fill="#e0e0e0"/>
            <path id="Trazado_698507" data-name="Trazado 698507" d="M12.411,36.1c-.062-.019-.017-.336.1-.707s.261-.657.322-.638.017.336-.1.707-.26.657-.322.638" transform="translate(-6.69 -18.776)" fill="#e0e0e0"/>
            <path id="Trazado_698508" data-name="Trazado 698508" d="M14.594,48.067a2.2,2.2,0,0,1,.286-.953c.217-.5.442-.885.5-.86a2.187,2.187,0,0,1-.286.953c-.217.5-.442.886-.5.86" transform="translate(-7.876 -24.987)" fill="#e0e0e0"/>
            <path id="Trazado_698509" data-name="Trazado 698509" d="M7.169,52.939a2.306,2.306,0,0,1-.913-.2c-.486-.153-.878-.292-.864-.355a1.714,1.714,0,0,1,.934.133c.5.154.868.365.843.423" transform="translate(-2.912 -28.283)" fill="#e0e0e0"/>
            <path id="Trazado_698510" data-name="Trazado 698510" d="M10.756,63.819c.038.052-.234.31-.606.576s-.7.439-.742.386.234-.31.606-.576.7-.439.742-.386" transform="translate(-5.08 -34.471)" fill="#e0e0e0"/>
            <path id="Trazado_698511" data-name="Trazado 698511" d="M12.991,73.967c.015.063-.32.2-.75.3s-.79.139-.805.076.32-.2.75-.3.79-.138.805-.076" transform="translate(-6.177 -39.941)" fill="#e0e0e0"/>
            <path id="Trazado_698512" data-name="Trazado 698512" d="M26.526,49c.033.054-.255.283-.673.44s-.785.176-.8.114.316-.181.714-.332.722-.279.755-.222" transform="translate(-13.536 -26.462)" fill="#e0e0e0"/>
            <path id="Trazado_698513" data-name="Trazado 698513" d="M28.489,64.034c-.028.058-.37-.045-.764-.231s-.693-.383-.665-.442.37.045.765.231.692.383.665.442" transform="translate(-14.617 -34.219)" fill="#e0e0e0"/>
            <path id="Trazado_698514" data-name="Trazado 698514" d="M31.286,75.261a2.417,2.417,0,0,1-1.009-.27,2.417,2.417,0,0,1-.924-.487,2.417,2.417,0,0,1,1.009.27,2.416,2.416,0,0,1,.924.487" transform="translate(-15.856 -40.239)" fill="#e0e0e0"/>
            <path id="Trazado_698515" data-name="Trazado 698515" d="M15.359,83.409c-.032-.058.384-.338.864-.717s.852-.715.9-.67-.257.462-.757.853a2.1,2.1,0,0,1-1.008.534" transform="translate(-8.296 -44.307)" fill="#e0e0e0"/>
            <path id="Trazado_698516" data-name="Trazado 698516" d="M23.618,77.5c-.066.008-.156-.342-.315-.749s-.325-.727-.27-.766.319.242.488.682.16.828.1.833" transform="translate(-12.437 -41.046)" fill="#e0e0e0"/>
            <path id="Trazado_698517" data-name="Trazado 698517" d="M20.7,64.76c-.038.052-.3-.074-.595-.283s-.5-.42-.457-.473.3.074.594.283.5.42.458.472" transform="translate(-10.613 -34.57)" fill="#e0e0e0"/>
            <path id="Trazado_698518" data-name="Trazado 698518" d="M41.293,44.3c.038.052-.221.308-.578.572s-.679.436-.717.384.221-.308.579-.572.679-.436.717-.384" transform="translate(-21.605 -23.927)" fill="#e0e0e0"/>
            <path id="Trazado_698519" data-name="Trazado 698519" d="M43.9,52.659c.006.063-.4.148-.9.092s-.88-.223-.861-.283.409,0,.886.051.871.074.876.139" transform="translate(-22.76 -28.33)" fill="#e0e0e0"/>
            <path id="Trazado_698520" data-name="Trazado 698520" d="M30.426,54.8c.014.062-.362.2-.847.228s-.875-.051-.87-.113.388-.087.854-.12.849-.059.863.005" transform="translate(-15.509 -29.582)" fill="#e0e0e0"/>
            <path id="Trazado_698521" data-name="Trazado 698521" d="M31.939,45.94c0,.062-.384.072-.8-.12s-.656-.485-.612-.528.33.145.709.316.71.266.7.332" transform="translate(-16.489 -24.462)" fill="#e0e0e0"/>
            <path id="Trazado_698522" data-name="Trazado 698522" d="M45.231,60.944c-.034.054-.423-.128-.868-.409s-.778-.552-.744-.606.423.128.868.409.778.552.744.606" transform="translate(-23.562 -32.369)" fill="#e0e0e0"/>
            <rect id="Rectángulo_344889" data-name="Rectángulo 344889" width="33.176" height="5.88" transform="translate(3.665 39.673)" fill="#e0e0e0"/>
            <path id="Trazado_698523" data-name="Trazado 698523" d="M13.361,96.538l4.034,17.572H37.168l4.414-17.572Z" transform="translate(-7.218 -52.151)" fill="#e0e0e0"/>
            <path id="Trazado_698524" data-name="Trazado 698524" d="M40.815,98.954c0,.064-7.484.117-16.712.117s-16.715-.052-16.715-.117,7.482-.117,16.715-.117,16.712.052,16.712.117" transform="translate(-3.991 -53.393)" fill="#ebebeb"/>
            <path id="Trazado_698525" data-name="Trazado 698525" d="M38.989,53.586c-.055.034-.281-.23-.506-.59s-.363-.68-.309-.714.281.23.506.59.363.68.309.714" transform="translate(-20.616 -28.242)" fill="#e0e0e0"/>
            <path id="Trazado_698526" data-name="Trazado 698526" d="M39.962,63.4c-.061-.02.017-.42.174-.893s.334-.84.395-.819-.017.42-.174.893-.334.84-.395.819" transform="translate(-21.577 -33.324)" fill="#e0e0e0"/>
            <path id="Trazado_698527" data-name="Trazado 698527" d="M42.441,74.01c-.058.028-.306-.369-.554-.887a2.418,2.418,0,0,1-.343-.987c.058-.028.306.369.554.886a2.417,2.417,0,0,1,.343.988" transform="translate(-22.436 -38.968)" fill="#e0e0e0"/>
            <path id="Trazado_698528" data-name="Trazado 698528" d="M35.879,83.464c-.049-.042.149-.35.442-.687s.57-.577.618-.534-.149.35-.442.687-.569.577-.618.534" transform="translate(-19.378 -44.426)" fill="#e0e0e0"/>
            <path id="Trazado_698529" data-name="Trazado 698529" d="M32.66,68.784c-.011.063-.331.06-.713-.007s-.684-.174-.672-.237.33-.06.713.007.684.174.673.237" transform="translate(-16.895 -37.001)" fill="#e0e0e0"/>
          </g>
        </g>
        <path id="Trazado_698530" data-name="Trazado 698530" d="M126.864,84.464l3.328,23.175H142.3l3.042-23.175Z" transform="translate(-68.533 -45.628)" fill="#455a64"/>
        <g id="Grupo_952390" data-name="Grupo 952390">
          <g id="Grupo_952389" data-name="Grupo 952389" clip-path="url(#clip-path-8)">
            <path id="Trazado_698531" data-name="Trazado 698531" d="M123.965,79.922a4.76,4.76,0,0,1,1.607-3.865h18.205c1,.756,1.3,2.223,1.438,3.865Z" transform="translate(-66.967 -41.087)" fill="#455a64"/>
            <path id="Trazado_698532" data-name="Trazado 698532" d="M130,73.4l1.539-2.262h12.617L145.5,73.4Z" transform="translate(-70.229 -38.429)" fill="#455a64"/>
            <path id="Trazado_698533" data-name="Trazado 698533" d="M146.354,75.75c0,.066-3.911.12-8.735.12s-8.736-.054-8.736-.12,3.91-.12,8.736-.12,8.735.053,8.735.12" transform="translate(-69.625 -40.856)" fill="#263238"/>
            <path id="Trazado_698534" data-name="Trazado 698534" d="M145.438,84.323c0,.066-4.715.12-10.531.12s-10.531-.053-10.531-.12,4.714-.12,10.531-.12,10.531.053,10.531.12" transform="translate(-67.189 -45.487)" fill="#263238"/>
            <path id="Trazado_698535" data-name="Trazado 698535" d="M128.5,95.845H145.54l-1,7.594H129.589Z" transform="translate(-69.416 -51.777)" fill="#263238"/>
          </g>
        </g>
      </g>
    </g>
  </g>
</svg>
