<svg xmlns="http://www.w3.org/2000/svg" xmlns:xlink="http://www.w3.org/1999/xlink" width="88.944" height="88.943" viewBox="0 0 88.944 88.943">
  <defs>
    <clipPath id="clip-path">
      <rect id="Rectángulo_344166" data-name="Rectángulo 344166" width="69.52" height="33.3" fill="none"/>
    </clipPath>
    <clipPath id="clip-path-2">
      <rect id="Rectángulo_344165" data-name="Rectángulo 344165" width="69.52" height="33.301" fill="none"/>
    </clipPath>
    <clipPath id="clip-path-3">
      <rect id="Rectángulo_344156" data-name="Rectángulo 344156" width="19.081" height="4.344" fill="none"/>
    </clipPath>
    <clipPath id="clip-path-4">
      <rect id="Rectángulo_344157" data-name="Rectángulo 344157" width="29.007" height="1.918" fill="none"/>
    </clipPath>
    <clipPath id="clip-path-5">
      <rect id="Rectángulo_344158" data-name="Rectángulo 344158" width="67.409" height="28.035" fill="none"/>
    </clipPath>
    <clipPath id="clip-path-6">
      <rect id="Rectángulo_344159" data-name="Rectángulo 344159" width="57.801" height="23.522" fill="none"/>
    </clipPath>
    <clipPath id="clip-path-7">
      <rect id="Rectángulo_344160" data-name="Rectángulo 344160" width="27.855" height="6.137" fill="none"/>
    </clipPath>
    <clipPath id="clip-path-8">
      <rect id="Rectángulo_344161" data-name="Rectángulo 344161" width="53.706" height="5.355" fill="none"/>
    </clipPath>
    <clipPath id="clip-path-9">
      <rect id="Rectángulo_344162" data-name="Rectángulo 344162" width="6.973" height="2.55" fill="none"/>
    </clipPath>
    <clipPath id="clip-path-10">
      <rect id="Rectángulo_344163" data-name="Rectángulo 344163" width="1.166" height="0.875" fill="none"/>
    </clipPath>
    <clipPath id="clip-path-11">
      <rect id="Rectángulo_344164" data-name="Rectángulo 344164" width="12.067" height="2.66" fill="none"/>
    </clipPath>
  </defs>
  <g id="Grupo_990595" data-name="Grupo 990595" transform="translate(-1282.72 -163.121)">
    <path id="Trazado_699220" data-name="Trazado 699220" d="M88.944,44.472A44.472,44.472,0,1,1,44.472,0,44.472,44.472,0,0,1,88.944,44.472" transform="translate(1282.72 163.121)" fill="#4db1f0"/>
    <g id="Grupo_990579" data-name="Grupo 990579" transform="translate(1291.573 195.808)">
      <g id="Grupo_895880" data-name="Grupo 895880" clip-path="url(#clip-path)">
        <g id="Grupo_895879" data-name="Grupo 895879" transform="translate(0 0)">
          <g id="Grupo_895878" data-name="Grupo 895878" clip-path="url(#clip-path-2)">
            <g id="Grupo_895853" data-name="Grupo 895853" transform="translate(25.244 28.957)" style="mix-blend-mode: multiply;isolation: isolate">
              <g id="Grupo_895852" data-name="Grupo 895852">
                <g id="Grupo_895851" data-name="Grupo 895851" clip-path="url(#clip-path-3)">
                  <path id="Trazado_691793" data-name="Trazado 691793" d="M36.536,42.621s9.994,4.229,19.081-.712c0,0-1.977,4.051-9.29,4.33s-9.791-3.618-9.791-3.618" transform="translate(-36.536 -41.909)" fill="#fad6be"/>
                </g>
              </g>
            </g>
            <path id="Trazado_691794" data-name="Trazado 691794" d="M63.6,1.029a.669.669,0,0,0-.469.192,67.54,67.54,0,0,0-9.984.276c-6.133.43-12.27.853-18.424,1.1C23.539,3.045,11.686,3.4.691,1.511A.646.646,0,0,0,0,2.04C.037,3.685,1.833,4.4,3.546,5.122c3.684,1.563,4,6.462,4.977,9.283.947,2.717,3.556,9.7,7.911,11.571,8.816,8.362,26.335,6.924,37.12.482A24.406,24.406,0,0,0,64.673,13.166,15.455,15.455,0,0,0,65.252,9.2c.106-2.2,1.066-3.893,1.6-5.983C67.275,1.6,65.25,1.2,63.6,1.029" transform="translate(0 -0.317)" fill="#ee7964"/>
            <g id="Grupo_895856" data-name="Grupo 895856" transform="translate(1.676 1.814)" style="mix-blend-mode: screen;isolation: isolate">
              <g id="Grupo_895855" data-name="Grupo 895855">
                <g id="Grupo_895854" data-name="Grupo 895854" clip-path="url(#clip-path-4)">
                  <path id="Trazado_691795" data-name="Trazado 691795" d="M31.331,3.637c-9.217.341-19.634.573-28.685-1.009-.124-.025-.315.169-.168.23C5.9,4.284,10.888,4.241,14.7,4.415a99.627,99.627,0,0,0,16.513-.5c.142-.02.339-.289.115-.279" transform="translate(-2.425 -2.626)" fill="#ee7964"/>
                </g>
              </g>
            </g>
            <g id="Grupo_895859" data-name="Grupo 895859" transform="translate(2.11 0)" style="mix-blend-mode: multiply;isolation: isolate">
              <g id="Grupo_895858" data-name="Grupo 895858" transform="translate(0 0)">
                <g id="Grupo_895857" data-name="Grupo 895857" clip-path="url(#clip-path-5)">
                  <path id="Trazado_691796" data-name="Trazado 691796" d="M69.1,2.163C67.805.594,65.938.164,63.877,0c0,.007-1.335.182-1.329.187.43.452,1.173.831.564.86-2.208.1-4.451.331-6.694.624-.962.177-1.93.35-2.9.464-.484.058-.969.1-1.449.151-2.221.332-4.433.677-6.6.963-4.763.632-9.54,1.269-14.348,1.681-9.377.806-18.93.994-28.067-1.018A8.487,8.487,0,0,1,4.99,5.03,13.762,13.762,0,0,1,7.766,8.239c1.515,2.5,2.655,5.105,4.076,7.632.407.719.826,1.439,1.264,2.154.511.6,1.039,1.19,1.633,1.767,5.2,5.072,12.658,8.031,21.049,8.234A37.784,37.784,0,0,0,56.05,22.313c3.263-2.024,4.408-5.179,6.2-7.942a48.388,48.388,0,0,0,3.08-5.463c.529-1.112,1.2-5.791,4.9-3.768a.718.718,0,0,0,.235.048A7.915,7.915,0,0,0,69.1,2.163" transform="translate(-3.054 0)" fill="#fad6be"/>
                </g>
              </g>
            </g>
            <path id="Trazado_691797" data-name="Trazado 691797" d="M63.22.36a12.356,12.356,0,0,0,1.6.918c.2.108.387.24.573.361-2.773.548-5.571,1.059-8.4,1.469-1.552.261-3.115.5-4.7.689-1.433.141-2.492.238-2.838.256h-.062A240.993,240.993,0,0,1,23.725,5.326c-3.243,0-17.191.737-21.241-1.635A4,4,0,0,0,4.14,5.11c.472.22.926.451,1.367.7A8.374,8.374,0,0,1,7.7,8.448q.971,1.881,2.038,3.744c.528.659,1.061,1.315,1.595,1.976.7.869,1.389,1.756,2.1,2.628a29.687,29.687,0,0,0,2.514,3.117,19.285,19.285,0,0,0,5.913,4.2c.055.03.106.064.162.09a.015.015,0,0,1,.008,0A34.859,34.859,0,0,0,36.19,27.087c20.137.251,26.4-14.338,30.76-24.336A4.768,4.768,0,0,0,69.5,3.766,8.538,8.538,0,0,0,63.22.36" transform="translate(-0.768 -0.111)" fill="#c4464a"/>
            <g id="Grupo_895862" data-name="Grupo 895862" transform="translate(7.343 2.502)" style="mix-blend-mode: multiply;isolation: isolate">
              <g id="Grupo_895861" data-name="Grupo 895861">
                <g id="Grupo_895860" data-name="Grupo 895860" clip-path="url(#clip-path-6)">
                  <path id="Trazado_691798" data-name="Trazado 691798" d="M57.554,20.638C51.1,26.58,40.261,28.7,29.574,25.955a21.217,21.217,0,0,1-7.715-3.721,50.993,50.993,0,0,1-6.476-7.694c-.277-.506-.542-1.008-.781-1.5-.9-1.882-1.847-4.251-3.974-5.776a135.357,135.357,0,0,0,14.109.044A258.008,258.008,0,0,0,57.029,5.186c1.548-.122,3.1-.267,4.638-.436a35.086,35.086,0,0,0,6.762-1.129c-2.992,5.9-5.235,11.829-10.875,17.017" transform="translate(-10.628 -3.621)" fill="#8c0c00"/>
                </g>
              </g>
            </g>
            <path id="Trazado_691799" data-name="Trazado 691799" d="M44.522,21.044a99.1,99.1,0,0,0-10.2.408,45.454,45.454,0,0,0-5.795.822c-1.432.333-4.347,1.269-5.548,2.5a34.623,34.623,0,0,0,2.7,2.847,21.211,21.211,0,0,0,7.715,3.721c10.687,2.749,21.523.625,27.98-5.317.687-.632,1.3-1.284,1.89-1.941-3.587-2.97-14.407-3.015-18.739-3.037" transform="translate(-7.102 -6.503)" fill="#ff7858"/>
            <path id="Trazado_691800" data-name="Trazado 691800" d="M60.235,28.408a81.016,81.016,0,0,1-23.622,1.131,73.328,73.328,0,0,1-11.288-1.957,2.54,2.54,0,0,0-.847.368c.532.575,1.067,1.141,1.661,1.688a21.217,21.217,0,0,0,7.715,3.722c10.232,2.634,20.591.783,27.123-4.593a1.007,1.007,0,0,1-.742-.359" transform="translate(-7.565 -8.524)" fill="#fff"/>
            <g id="Grupo_895865" data-name="Grupo 895865" transform="translate(25.556 19.884)" opacity="0.6" style="mix-blend-mode: multiply;isolation: isolate">
              <g id="Grupo_895864" data-name="Grupo 895864">
                <g id="Grupo_895863" data-name="Grupo 895863" clip-path="url(#clip-path-7)">
                  <path id="Trazado_691801" data-name="Trazado 691801" d="M64.1,28.778c-1.061.2-2.123.382-3.195.547-3.693,5.589-15.176,5.89-23.918,4.176.249.074.477.164.732.229,10.232,2.634,20.591.783,27.123-4.593a1.007,1.007,0,0,1-.742-.359" transform="translate(-36.988 -28.778)" fill="#b8a997"/>
                </g>
              </g>
            </g>
            <path id="Trazado_691802" data-name="Trazado 691802" d="M66.166,5.99a20.008,20.008,0,0,0,1.156-1.655c-1.486.289-3.057.458-4.732.636-1.54.169-3.089.314-4.638.436A257.876,257.876,0,0,1,25.66,7.527c-1.114.016-6.876.325-12.045.086a31.265,31.265,0,0,0,6.712,4.4,86.446,86.446,0,0,0,19.045,1.351A70.56,70.56,0,0,0,64.807,7.518c.476-.5.933-1,1.358-1.528" transform="translate(-4.208 -1.34)" fill="#fff"/>
            <g id="Grupo_895868" data-name="Grupo 895868" transform="translate(9.407 2.995)" opacity="0.6" style="mix-blend-mode: multiply;isolation: isolate">
              <g id="Grupo_895867" data-name="Grupo 895867">
                <g id="Grupo_895866" data-name="Grupo 895866" clip-path="url(#clip-path-8)">
                  <path id="Trazado_691803" data-name="Trazado 691803" d="M62.589,4.971c-1.54.169-3.09.314-4.638.436A257.876,257.876,0,0,1,25.66,7.527c-1.114.016-6.876.325-12.045.086.88.737,1.79,1.426,2.733,2.077a.815.815,0,0,1,.681-.551c3.5-.635,7.043-.414,10.605-.571,4.789-.211,9.536-.625,14.3-1.015C46.17,7.2,50.491,7.01,54.652,6.3a38.093,38.093,0,0,1,8.4-.8c.511.028.871.325.884.717a14.478,14.478,0,0,1-.078,1.688c.313-.131.633-.255.947-.392.475-.5.933-1,1.358-1.529a20.058,20.058,0,0,0,1.156-1.655c-1.486.289-3.057.458-4.732.636" transform="translate(-13.615 -4.335)" fill="#b8a997"/>
                </g>
              </g>
            </g>
            <g id="Grupo_895871" data-name="Grupo 895871" transform="translate(20.487 15.926)" style="mix-blend-mode: screen;isolation: isolate">
              <g id="Grupo_895870" data-name="Grupo 895870">
                <g id="Grupo_895869" data-name="Grupo 895869" clip-path="url(#clip-path-9)">
                  <path id="Trazado_691804" data-name="Trazado 691804" d="M36.512,23.731c-.374-.708-1.93-.684-2.73-.681a8.24,8.24,0,0,0-3.165.533,1.386,1.386,0,0,0-.553.467,1.267,1.267,0,0,0-.189.16c-1.073,1.262,2.018,1.4,2.932,1.389,1.166-.012,4.464-.461,3.7-1.868" transform="translate(-29.652 -23.049)" fill="#ef7874"/>
                </g>
              </g>
            </g>
            <g id="Grupo_895874" data-name="Grupo 895874" transform="translate(27.339 18.709)" style="mix-blend-mode: screen;isolation: isolate">
              <g id="Grupo_895873" data-name="Grupo 895873">
                <g id="Grupo_895872" data-name="Grupo 895872" clip-path="url(#clip-path-10)">
                  <path id="Trazado_691805" data-name="Trazado 691805" d="M40.421,27.077c-.567-.012-1.273.857-.539.875.562.014,1.272-.86.539-.875" transform="translate(-39.568 -27.077)" fill="#ef7874"/>
                </g>
              </g>
            </g>
            <g id="Grupo_895877" data-name="Grupo 895877" transform="translate(26.204 27.632)" style="mix-blend-mode: screen;isolation: isolate">
              <g id="Grupo_895876" data-name="Grupo 895876">
                <g id="Grupo_895875" data-name="Grupo 895875" clip-path="url(#clip-path-11)">
                  <path id="Trazado_691806" data-name="Trazado 691806" d="M49.725,41.252c-3.788-.426-7.479-.59-11.246-1.256-.266-.044-.724.237-.488.446C40.61,42.681,46.11,43.3,49.55,41.928c.274-.106.742-.612.176-.676" transform="translate(-37.926 -39.991)" fill="#ee7964"/>
                </g>
              </g>
            </g>
          </g>
        </g>
      </g>
    </g>
  </g>
</svg>
