<svg xmlns="http://www.w3.org/2000/svg" xmlns:xlink="http://www.w3.org/1999/xlink" width="141.364" height="141.364" viewBox="0 0 141.364 141.364">
  <defs>
    <filter id="Trazado_735090" x="0" y="0" width="141.364" height="141.364" filterUnits="userSpaceOnUse">
      <feOffset dy="3" input="SourceAlpha"/>
      <feGaussianBlur stdDeviation="3" result="blur"/>
      <feFlood flood-opacity="0.161"/>
      <feComposite operator="in" in2="blur"/>
      <feComposite in="SourceGraphic"/>
    </filter>
  </defs>
  <g id="Grupo_1013562" data-name="Grupo 1013562" transform="translate(-491.988 -3481.318)">
    <g transform="matrix(1, 0, 0, 1, 491.99, 3481.32)" filter="url(#Trazado_735090)">
      <path id="Trazado_735090-2" data-name="Trazado 735090" d="M61.682,0A61.682,61.682,0,1,1,0,61.682,61.682,61.682,0,0,1,61.682,0Z" transform="translate(9 6)" fill="#4db1f0"/>
    </g>
    <g id="ayudar" transform="translate(512.188 3504.265)">
      <path id="Trazado_699362" data-name="Trazado 699362" d="M38.532,28.671a19.941,19.941,0,0,0,2.016-8.739h0A13.583,13.583,0,0,0,38.267,12.4h0A3.139,3.139,0,0,0,35.655,11h0a3.139,3.139,0,0,0-3.139,3.139v4.893L28.5,27.065,32.516,36.7Z" transform="translate(16.678 0)" fill="#df9985"/>
      <path id="Trazado_699363" data-name="Trazado 699363" d="M1,37.065H9.032a54.712,54.712,0,0,0,15.727-2.309l8.37-2.511,3.594-6.288A9.836,9.836,0,0,1,45.264,21h0a9.82,9.82,0,0,1,4.4,1.039h0a5.39,5.39,0,0,0,2.41.567h8.5a3.557,3.557,0,0,1,2.516,1.043h0a7.409,7.409,0,0,1,2.166,5.24h0a7.413,7.413,0,0,1-.782,3.313l-.824,1.649.888,1.777a6.8,6.8,0,0,1,.718,3.043h0a6.8,6.8,0,0,1-.718,3.043l-.888,1.776h0a5.486,5.486,0,0,1,1.606,3.878v.276a5.469,5.469,0,0,1-.183,1.4l.183,8.9H44.765a16.454,16.454,0,0,1-11.636-4.82h0L10.984,58.957,1,61.162Z" transform="translate(0 6.065)" fill="#df9985"/>
      <path id="Trazado_699364" data-name="Trazado 699364" d="M14.086,48.31a7.52,7.52,0,0,1,3.338.787l6.485,3.245,9.219-2.426a16.453,16.453,0,0,0,11.636,4.819H53.03a9.462,9.462,0,0,0,1.555-1.285l.125-.127a22.008,22.008,0,0,1,10.4-5.917l-.029-1.354a5.473,5.473,0,0,0-1.428-2.562l.888-1.777a6.8,6.8,0,0,0,0-6.085l-.888-1.777.824-1.648a7.411,7.411,0,0,0-1.388-8.554,3.557,3.557,0,0,0-2.516-1.043h-8.5a5.39,5.39,0,0,1-2.41-.567,9.836,9.836,0,0,0-12.942,3.918l-3.589,6.288-8.371,2.511A54.71,54.71,0,0,1,9.032,37.065H1V57.949l6.614-1.46a6.612,6.612,0,0,1,6.472-8.178Z" transform="translate(0 6.064)" fill="#ffcdbe"/>
      <path id="Trazado_699365" data-name="Trazado 699365" d="M46.532,28H38.076a16.911,16.911,0,0,0-7.523,1.775l1.436,2.876a13.663,13.663,0,0,1,6.087-1.438h8.456l-.8-1.606Z" transform="translate(17.923 10.31)" fill="#df9985"/>
      <path id="Trazado_699366" data-name="Trazado 699366" d="M30.553,35.767l1.436,2.876A13.7,13.7,0,0,1,38.076,37.2h8.75a5.48,5.48,0,0,0-1.1-1.59l.8-1.606H38.076a16.926,16.926,0,0,0-7.523,1.767Z" transform="translate(17.923 13.949)" fill="#df9985"/>
      <path id="Trazado_699367" data-name="Trazado 699367" d="M30.553,40.767l1.436,2.876A13.7,13.7,0,0,1,38.076,42.2h9.157L47.175,39h-9.1A16.926,16.926,0,0,0,30.553,40.767Z" transform="translate(17.923 16.981)" fill="#df9985"/>
      <path id="Trazado_699368" data-name="Trazado 699368" d="M97.568,57.278l-4.76.866A145.563,145.563,0,0,1,66.774,60.49h0a29.678,29.678,0,0,0-5.829.577h0a53.07,53.07,0,0,1-10.4,1.03h0a18.584,18.584,0,0,1-8.317-1.964h0a18.6,18.6,0,0,0-5.256-1.709l-2.45-.408A82.591,82.591,0,0,1,8.639,49.1h0A5.059,5.059,0,0,1,6,44.66H6a5.056,5.056,0,0,1,5.054-5.054h0a5.867,5.867,0,0,1,2.62.618L28.49,47.639H44.7a11.186,11.186,0,0,0,8-3.374l.125-.129a20.32,20.32,0,0,1,14.683-6.1l.946.008a15.915,15.915,0,0,1,7.264,1.827l.079.042a11.117,11.117,0,0,0,4.8,1.271l.993.034a13.871,13.871,0,0,0,3.023-.333L97.568,38Z" transform="translate(3.032 16.375)" fill="#df9985"/>
      <path id="Trazado_699369" data-name="Trazado 699369" d="M80.974,41.213l-.993-.034a11.117,11.117,0,0,1-4.8-1.271l-.079-.042a15.915,15.915,0,0,0-7.256-1.828l-.946-.008a20.32,20.32,0,0,0-14.683,6.1l-.125.129a11.186,11.186,0,0,1-8,3.375H27.884L13.068,40.225a5.867,5.867,0,0,0-2.62-.618,5.014,5.014,0,0,0-2.668.778,5.023,5.023,0,0,0,1.86,7.109,82.591,82.591,0,0,0,25.89,8.917l2.45.408a18.6,18.6,0,0,1,5.256,1.709A18.582,18.582,0,0,0,51.55,60.49h0a53.057,53.057,0,0,0,10.394-1.029,29.671,29.671,0,0,1,5.83-.578,145.565,145.565,0,0,0,26.034-2.347l3.153-.574V38L84,40.88a13.87,13.87,0,0,1-3.023.333Z" transform="translate(3.639 16.375)" fill="#ffcdbe"/>
      <path id="Trazado_699370" data-name="Trazado 699370" d="M67.949,50.954a43.082,43.082,0,0,1-16.087,3.1H49.268a1.581,1.581,0,0,0-.389.048A52.233,52.233,0,0,1,36.218,55.66H35.131a1.928,1.928,0,0,1-.378-3.812L47.983,49.2a1.606,1.606,0,0,0,1.259-1.259,11.276,11.276,0,0,1,6.884-8.3l2.41-.853a15.835,15.835,0,0,0-4.636-.766l-.946-.008c-.209,0-.413.022-.62.027a14.458,14.458,0,0,0-5.986,8.207L34.119,48.7a5.141,5.141,0,0,0,1.012,10.175h1.091a55.419,55.419,0,0,0,13.243-1.606h2.4a46.328,46.328,0,0,0,17.279-3.327Z" transform="translate(17.597 16.386)" fill="#df9985"/>
      <path id="Trazado_699371" data-name="Trazado 699371" d="M31.836,21a9.8,9.8,0,0,0-5.171,1.541l-.2.271a9.317,9.317,0,0,0-1.854,5.555,7.033,7.033,0,0,0,1.152,3.878,7.033,7.033,0,0,0-1.152,3.878V36.4a7.038,7.038,0,0,0,1.07,3.749l-.5.5A7.473,7.473,0,0,0,23,45.9a7.37,7.37,0,0,0,2.175,5.25l.5.5a7.038,7.038,0,0,0-1.07,3.749c0,.349.018.7.051,1.075a16.525,16.525,0,0,0,3.473,1.137l-.19-.723a9.13,9.13,0,0,1-.122-1.489,3.856,3.856,0,0,1,1.136-2.742,1.606,1.606,0,0,0,0-2.272l-1.508-1.508A4.177,4.177,0,0,1,26.213,45.9a4.244,4.244,0,0,1,1.234-2.978l1.508-1.508a1.606,1.606,0,0,0,0-2.273A3.846,3.846,0,0,1,27.819,36.4v-.276a3.846,3.846,0,0,1,1.136-2.741,1.606,1.606,0,0,0,0-2.275,3.846,3.846,0,0,1-1.136-2.741,6.076,6.076,0,0,1,1.206-3.621Z" transform="translate(13.342 6.065)" fill="#df9985"/>
      <path id="Trazado_699372" data-name="Trazado 699372" d="M35.1,27.065H38.91a19.92,19.92,0,0,0,1.343-7.133A13.583,13.583,0,0,0,37.972,12.4a3.139,3.139,0,0,0-5.751,1.741v4.893L28.987,25.5a11.507,11.507,0,0,1,4.423,1.168,3.8,3.8,0,0,0,1.687.4Z" transform="translate(16.973 0)" fill="#ffcdbe"/>
    </g>
  </g>
</svg>
