<svg xmlns="http://www.w3.org/2000/svg" xmlns:xlink="http://www.w3.org/1999/xlink" width="141.364" height="141.364" viewBox="0 0 141.364 141.364">
  <defs>
    <filter id="Trazado_699373" x="0" y="0" width="141.364" height="141.364" filterUnits="userSpaceOnUse">
      <feOffset dy="3" input="SourceAlpha"/>
      <feGaussianBlur stdDeviation="3" result="blur"/>
      <feFlood flood-opacity="0.161"/>
      <feComposite operator="in" in2="blur"/>
      <feComposite in="SourceGraphic"/>
    </filter>
  </defs>
  <g id="Grupo_1013564" data-name="Grupo 1013564" transform="translate(3342 7762.682)">
    <g transform="matrix(1, 0, 0, 1, -3342, -7762.68)" filter="url(#Trazado_699373)">
      <path id="Trazado_699373-2" data-name="Trazado 699373" d="M61.682,0A61.682,61.682,0,1,1,0,61.682,61.682,61.682,0,0,1,61.682,0Z" transform="translate(9 6)" fill="#4db1f0"/>
    </g>
    <g id="hola" transform="translate(-3318.407 -7739.756)">
      <path id="Trazado_698782" data-name="Trazado 698782" d="M54.547,48.087A9.588,9.588,0,0,1,51.1,40.721v-1.1H34.025v1.1a9.588,9.588,0,0,1-3.451,7.366l6.3,6.3H48.251Z" transform="translate(12.075 15.897)" fill="#cf8c78"/>
      <path id="Trazado_698783" data-name="Trazado 698783" d="M54.876,47.62a9.572,9.572,0,0,1-3.427-6.9c-.186.114-.37.232-.569.339a16.31,16.31,0,0,1-13.889.956.666.666,0,0,0-.895.479l-.017.068a9.5,9.5,0,0,1-4.857,5.965l-1.423.755,4.074,5.7,3.743.623s2.852-.96,4.525-1.689h6.436Z" transform="translate(11.748 16.364)" fill="#f1b8a0"/>
      <path id="Trazado_698784" data-name="Trazado 698784" d="M66.677,10.574v3.35a141.363,141.363,0,0,1-1,16.786H25a141.364,141.364,0,0,1-1-16.786v-1.29Z" transform="translate(9.297 3.623)" fill="#4c4c4c"/>
      <path id="Trazado_698785" data-name="Trazado 698785" d="M28.69,24a5.69,5.69,0,1,0,0,11.381h.524" transform="translate(8.874 9.297)" fill="#cf8c78"/>
      <path id="Trazado_698786" data-name="Trazado 698786" d="M51.156,24a5.69,5.69,0,1,1,0,11.381h-.524" transform="translate(20.551 9.297)" fill="#cf8c78"/>
      <path id="Trazado_698787" data-name="Trazado 698787" d="M59.15,15.337l.085.172a18.067,18.067,0,0,1,1.906,8.079V34.968a17.64,17.64,0,0,1-9.073,15.419,16.447,16.447,0,0,1-16,.006A17.64,17.64,0,0,1,27,34.968V23.588A18.068,18.068,0,0,1,28.91,15.5l.312-.626" transform="translate(10.564 5.441)" fill="#cf8c78"/>
      <path id="Trazado_698788" data-name="Trazado 698788" d="M38.073,50.373a16.455,16.455,0,0,0,6.575,1.982,16.455,16.455,0,0,0,6.575-1.982A17.64,17.64,0,0,0,60.3,34.954V23.573a18.068,18.068,0,0,0-1.91-8.086l-.082-.165L31.2,14.91l-.292.585A18.067,18.067,0,0,0,29,23.573V34.954a17.64,17.64,0,0,0,9.073,15.419Z" transform="translate(11.409 5.455)" fill="#f1b8a0"/>
      <path id="Trazado_698789" data-name="Trazado 698789" d="M41.535,40.535A8.544,8.544,0,0,1,33,32h2.845a5.69,5.69,0,0,0,11.381,0h2.845a8.544,8.544,0,0,1-8.535,8.535Z" transform="translate(13.1 12.677)" fill="#cf8c78"/>
      <path id="Trazado_698790" data-name="Trazado 698790" d="M81.016,70.606V59.96A12.077,12.077,0,0,0,72.409,48.4L61.1,45l-.661.661a17.172,17.172,0,0,1-24.284,0L35.493,45,17,49.268V64.916l9.958,1.423v4.268Z" transform="translate(6.339 18.171)" fill="#0059bd"/>
      <path id="Trazado_698791" data-name="Trazado 698791" d="M68.571,48.393,57.261,45l-.661.661a17.172,17.172,0,0,1-24.285,0L31.655,45l-5.571,1.28A33.675,33.675,0,0,0,56.863,66.339H77.177V59.96a12.077,12.077,0,0,0-8.605-11.567Z" transform="translate(10.177 18.171)" fill="#006bda"/>
      <path id="Trazado_698792" data-name="Trazado 698792" d="M53,59h2.845v5.69H53Z" transform="translate(21.551 24.087)" fill="#004c9c"/>
      <path id="Trazado_698793" data-name="Trazado 698793" d="M13.381,6.268H11.958V2L2,9.113l9.958,7.113V11.958h.56a9.585,9.585,0,0,1,7.975,4.268l4.268-4.268a14.226,14.226,0,0,0-11.381-5.69Z" transform="translate(0)" fill="#a7d309"/>
      <path id="Trazado_698794" data-name="Trazado 698794" d="M13.381,6.268H11.958V2L2,9.113H14.132a10.281,10.281,0,0,1,8.678,4.8l1.952-1.95a14.226,14.226,0,0,0-11.381-5.69Z" transform="translate(0)" fill="#8cbe00"/>
      <path id="Trazado_698795" data-name="Trazado 698795" d="M38.274,15.015l-9.052-.142-.313.627A18.067,18.067,0,0,0,27,23.589V33.665c.367-.6.711-1.209,1.031-1.849l.209-.418,9.366-14.722a4.7,4.7,0,0,0,.667-1.66Z" transform="translate(10.564 5.44)" fill="#a0695f"/>
      <path id="Trazado_698796" data-name="Trazado 698796" d="M26.68,5.588a7.3,7.3,0,0,0,.077,12.725,39.936,39.936,0,0,0,19.395,5.026h4.275a22.417,22.417,0,0,0,10.023-2.366A14.6,14.6,0,0,0,68.522,7.914V4.845L66.656,6.712a3.34,3.34,0,0,1-2.363.979A12.2,12.2,0,0,1,58.828,6.4,41.69,41.69,0,0,0,40.189,2a27.222,27.222,0,0,0-13.51,3.588Z" transform="translate(8.874)" fill="#212121"/>
      <path id="Trazado_698797" data-name="Trazado 698797" d="M63.448,7.69A12.2,12.2,0,0,1,57.983,6.4,41.69,41.69,0,0,0,39.344,2,27.231,27.231,0,0,0,25.926,5.539a7.285,7.285,0,0,0,2.831,9.928,39.936,39.936,0,0,0,19.4,5.026h4.275a22.417,22.417,0,0,0,10.023-2.366,14.455,14.455,0,0,0,2.261-1.438,14.806,14.806,0,0,0,.886-1.265,14.6,14.6,0,0,0,2.08-7.511V4.845L65.811,6.712a3.34,3.34,0,0,1-2.363.979Z" transform="translate(9.719)" fill="#383838"/>
      <path id="Trazado_698798" data-name="Trazado 698798" d="M47.522,17.385a3.337,3.337,0,0,1-.541,1.835L37.564,34.029l-.242.484a21.694,21.694,0,0,1-12.561,10.9L16.226,65.326h7.113V79.551L12.214,78.072a11.79,11.79,0,0,1-9.2-16.459L13.381,38.3V37.173a19.169,19.169,0,0,1,8.533-15.945l5.465-7.641a5.522,5.522,0,0,1,4.5-2.319h2.561l.242-.413a5.037,5.037,0,0,1,4.31-2.433h2.091A3.47,3.47,0,0,1,43.895,7a2.216,2.216,0,0,1,2.2,2.2,2.157,2.157,0,0,1-.341,1.181l-1.75,2.8,1.977,1.323A3.438,3.438,0,0,1,47.522,17.385Z" transform="translate(0 2.113)" fill="#cf8c78"/>
      <path id="Trazado_698799" data-name="Trazado 698799" d="M46.761,15.251a3.383,3.383,0,0,0-.775-.737l-1.977-1.323,1.75-2.8A2.157,2.157,0,0,0,46.1,9.2a2.216,2.216,0,0,0-2.2-2.2,3.47,3.47,0,0,0-2.817,1.423H38.987a5.037,5.037,0,0,0-4.31,2.432l-.242.414H31.874a5.522,5.522,0,0,0-4.5,2.319l-5.463,7.639a19.171,19.171,0,0,0-8.535,15.947V38.3L3.01,61.613a11.79,11.79,0,0,0,9.2,16.459l11.125,1.479V65.326H13.381l8.535-19.916a21.694,21.694,0,0,0,12.561-10.9Z" transform="translate(0 2.113)" fill="#f1b8a0"/>
      <g id="Grupo_990295" data-name="Grupo 990295" transform="translate(20.732 10.535)">
        <path id="Trazado_698800" data-name="Trazado 698800" d="M17.535,28.711l-2.367-1.579a13.8,13.8,0,0,1,7.922-5.679l.734,2.748a10.954,10.954,0,0,0-6.289,4.51Z" transform="translate(-15.168 -2.315)" fill="#cf8c78"/>
        <path id="Trazado_698801" data-name="Trazado 698801" d="M23.873,16.692l3.571-5.961L26.223,10H24.565l-3.133,5.229Z" transform="translate(-12.521 -7.155)" fill="#cf8c78"/>
        <path id="Trazado_698802" data-name="Trazado 698802" d="M27.152,18.858l2.413,1.508,5-8-1.174-.785-1.215-.76Z" transform="translate(-10.104 -6.808)" fill="#cf8c78"/>
        <path id="Trazado_698803" data-name="Trazado 698803" d="M26.613,20.072,32.73,9.064a2.16,2.16,0,0,1,.142-.211L31.734,8h-1.67L24.126,18.689Z" transform="translate(-11.383 -8)" fill="#cf8c78"/>
        <path id="Trazado_698804" data-name="Trazado 698804" d="M23.268,31.646H20.423v-6.3a2.041,2.041,0,0,0-.212-.9A11.513,11.513,0,0,1,19,19.323a3.32,3.32,0,0,1,5.975-1.992l1.138,1.512a14.327,14.327,0,0,1,2.845,8.535H26.113a11.467,11.467,0,0,0-2.276-6.828L22.7,19.035a.494.494,0,0,0-.854.285,8.655,8.655,0,0,0,.91,3.855,4.9,4.9,0,0,1,.512,2.168Z" transform="translate(-13.549 -4.617)" fill="#cf8c78"/>
      </g>
    </g>
  </g>
</svg>
