<svg xmlns="http://www.w3.org/2000/svg" xmlns:xlink="http://www.w3.org/1999/xlink" width="141.364" height="141.364" viewBox="0 0 141.364 141.364">
  <defs>
    <filter id="Trazado_699374" x="0" y="0" width="141.364" height="141.364" filterUnits="userSpaceOnUse">
      <feOffset dy="3" input="SourceAlpha"/>
      <feGaussianBlur stdDeviation="3" result="blur"/>
      <feFlood flood-opacity="0.161"/>
      <feComposite operator="in" in2="blur"/>
      <feComposite in="SourceGraphic"/>
    </filter>
  </defs>
  <g id="Grupo_1013565" data-name="Grupo 1013565" transform="translate(3342 7380.682)">
    <g transform="matrix(1, 0, 0, 1, -3342, -7380.68)" filter="url(#Trazado_699374)">
      <path id="Trazado_699374-2" data-name="Trazado 699374" d="M61.682,0A61.682,61.682,0,1,1,0,61.682,61.682,61.682,0,0,1,61.682,0Z" transform="translate(9 6)" fill="#4db1f0"/>
    </g>
    <g id="terapia-del-lenguaje" transform="translate(-3316.369 -7387.54)">
      <path id="Trazado_734897" data-name="Trazado 734897" d="M53.719,46.321a1.265,1.265,0,0,1-.794-.28l-11.335-9.1-11.335,9.1a1.27,1.27,0,1,1-1.59-1.982L40.8,34.327a1.27,1.27,0,0,1,1.59,0l12.13,9.734a1.27,1.27,0,0,1-.8,2.261Z" transform="translate(-20.555 3.462)" fill="#4c4c4c"/>
      <path id="Trazado_734898" data-name="Trazado 734898" d="M.847,125.738H35.223a.847.847,0,0,0,.847-.847v-29.8a.847.847,0,0,0-.847-.847H.847A.847.847,0,0,0,0,95.093v29.8a.847.847,0,0,0,.847.847Z" transform="translate(3 -46.84)" fill="#089669"/>
      <path id="Trazado_734899" data-name="Trazado 734899" d="M191.856,94.246h-4.4a.847.847,0,0,1,.847.847v29.8a.847.847,0,0,1-.847.847h4.4a.847.847,0,0,0,.847-.847v-29.8A.847.847,0,0,0,191.856,94.246Z" transform="translate(-153.632 -46.84)" fill="#057a55"/>
      <path id="Trazado_734907" data-name="Trazado 734907" d="M231.727,346.957l-4.1.494a.58.58,0,0,1-.162.511l-4.337,4.44a6.541,6.541,0,0,0-1.862,4.571v15.744a.991.991,0,0,1-.991.991h4.755a.991.991,0,0,0,.991-.991V356.973a6.542,6.542,0,0,1,1.862-4.571l4.337-4.44A.594.594,0,0,0,231.727,346.957Z" transform="translate(-177.916 -259.292)" fill="#bedcf7"/>
      <path id="Trazado_734908" data-name="Trazado 734908" d="M74.216,144.857l-7.086-18.6a1.654,1.654,0,0,0-1.535-1.032h0a1.654,1.654,0,0,0-1.535,1.029l-.013.034-7.01,18.576a1.233,1.233,0,0,0,2.307.871l1.445-3.829h9.665l1.459,3.832a1.233,1.233,0,1,0,2.3-.878Zm-12.5-5.421,3.879-10.28,3.915,10.28Z" transform="translate(-44.591 -72.723)" fill="#f6f6f6"/>
      <path id="Trazado_734911" data-name="Trazado 734911" d="M95.068,25.923A2.878,2.878,0,1,1,92.19,28.8,2.878,2.878,0,0,1,95.068,25.923Z" transform="translate(-74.033 10.25)" fill="#212121"/>
      <g id="sordo" transform="translate(33.37 34.664)">
        <path id="Trazado_735008" data-name="Trazado 735008" d="M6,64.548V60.135a7.8,7.8,0,0,1,5.2-7.352L24.755,48A16.548,16.548,0,0,0,34,51.3l12.821-2.516,11.347,4a7.8,7.8,0,0,1,5.2,7.352v4.413Z" transform="translate(-6 2.748)" fill="#0059bd"/>
        <path id="Trazado_735009" data-name="Trazado 735009" d="M13.812,60.135a7.8,7.8,0,0,1,5.2-7.352L32.567,48a16.548,16.548,0,0,0,9.244,3.3l12.821-2.516,7.93,2.8A16.468,16.468,0,0,1,47.57,61.239H13.812Z" transform="translate(-13.812 2.748)" fill="#006bda"/>
        <path id="Trazado_735010" data-name="Trazado 735010" d="M22.413,19.651l-.7-.869A16.957,16.957,0,0,1,18,8.185,7.433,7.433,0,0,1,21.31,2a6.009,6.009,0,0,0,4.523,3.994l.52.1a16.226,16.226,0,0,0,3.184.316,16.557,16.557,0,0,0,7.4-1.748,4.341,4.341,0,0,1,6.153,2.829l.281,1.126H44a9.305,9.305,0,0,1,8.685,12.645l-3.655,9.5L41.991,44.474Z" transform="translate(-9.174 -2)" fill="#212121"/>
        <path id="Trazado_735011" data-name="Trazado 735011" d="M18.853,3.479a6,6,0,0,0,3.67,2.362l.52.1a16.226,16.226,0,0,0,3.184.316,16.557,16.557,0,0,0,7.4-1.748,4.341,4.341,0,0,1,6.153,2.829l.281,1.126h.624a9.306,9.306,0,0,1,8.685,12.645l-3.655,9.5-5.389,10.5L22.413,18.4l-.7-.869A16.957,16.957,0,0,1,18,6.929a7.432,7.432,0,0,1,.853-3.45Z" transform="translate(-5.865 -1.847)" fill="#383838"/>
        <path id="Trazado_735012" data-name="Trazado 735012" d="M20,35.6a25.031,25.031,0,0,0,.485,4.876l1.07,5.373A4.04,4.04,0,0,0,25.516,49.1h.21a23.291,23.291,0,0,0,5.406-.629v.011a8.561,8.561,0,0,1-2.9,3.188v.011a16.91,16.91,0,0,0,4.192,2.085,16.52,16.52,0,0,0,10.459,0,16.91,16.91,0,0,0,4.192-2.085v-.011a8.648,8.648,0,0,1-3.905-7.226,8.781,8.781,0,0,1,.165-1.7l.938-4.678a2.223,2.223,0,0,0,2.206,2.206,1.813,1.813,0,0,0,1.6-.982l2.063-4.126a7.139,7.139,0,0,0,.75-3.2,2.765,2.765,0,0,0-.794-1.931,2.845,2.845,0,0,0-1.269-.717,3.2,3.2,0,0,0-.662-.077,2.721,2.721,0,0,0-2.438,1.511l-1.456,2.9V26.558a47.568,47.568,0,0,0-.651-7.822,3.2,3.2,0,0,0-1.1-1.964,3.325,3.325,0,0,0-3.166-.607A39.484,39.484,0,0,1,26.8,18.206H22.206l-.563,3.354a39.758,39.758,0,0,0-.541,6.575l-.364,1.445A25.222,25.222,0,0,0,20,35.6Z" transform="translate(-8.968 -0.555)" fill="#cf8c78"/>
        <path id="Trazado_735013" data-name="Trazado 735013" d="M26.024,51.575v-.011a8.561,8.561,0,0,0,2.9-3.188v-.011a23.29,23.29,0,0,1-5.406.629h-.21a4.02,4.02,0,0,1-.6-.053,4.011,4.011,0,0,1-1.153-2.1l-1.069-5.365a24.833,24.833,0,0,1,.254-10.9l.364-1.444a39.758,39.758,0,0,1,.541-6.575,4.018,4.018,0,0,1,3.963-3.354H26.8A39.484,39.484,0,0,0,39.35,17.165,3.342,3.342,0,0,1,40.387,17c.094,0,.184.017.276.024a3.191,3.191,0,0,1,.75,1.608,47.568,47.568,0,0,1,.651,7.822v7.094l1.456-2.9a2.721,2.721,0,0,1,2.438-1.511,3.2,3.2,0,0,1,.662.077,2.845,2.845,0,0,1,1.269.717,2.765,2.765,0,0,1,.794,1.931,7.139,7.139,0,0,1-.75,3.2L45.87,39.186a1.813,1.813,0,0,1-1.6.982,2.223,2.223,0,0,1-2.206-2.206l-.938,4.678a8.781,8.781,0,0,0-.165,1.7,8.648,8.648,0,0,0,3.905,7.226v.011a16.91,16.91,0,0,1-4.192,2.085,16.52,16.52,0,0,1-10.459,0,17.161,17.161,0,0,1-2.019-.829l.033-.164c-.033.046-.066.088-.1.135A16.659,16.659,0,0,1,26.024,51.575Z" transform="translate(-6.761 -0.451)" fill="#f1b8a0"/>
        <path id="Trazado_735014" data-name="Trazado 735014" d="M40.826,34l2.206,3.31-5.516,3.31,1.1,2.206L32,41.722,34.206,35.1l1.1,2.206Z" transform="translate(-14.348 1.303)" fill="#a7d309"/>
        <path id="Trazado_735015" data-name="Trazado 735015" d="M35.224,35.1l1.1,2.206L41.844,34l1.083,1.625-9.909,6.1Z" transform="translate(-15.367 1.303)" fill="#8cbe00"/>
        <path id="Trazado_735016" data-name="Trazado 735016" d="M23.184,64.475V62.269A4.868,4.868,0,0,0,22.013,59.1l-2.481-2.894a12.321,12.321,0,0,1-2.6-5.075c.383.043.772.076,1.154.092l12.821-2.522,1.1.389V55.45l3.385,9.025Z" transform="translate(9.913 2.821)" fill="#004c9c"/>
        <path id="Trazado_735017" data-name="Trazado 735017" d="M24.691,45.668a3.32,3.32,0,0,1,2.778-2.6,4.811,4.811,0,0,1,2.373-1.078l-.286-1.142a6.178,6.178,0,0,0-1.625-2.872,3.739,3.739,0,0,1-1.1-2.663,3.31,3.31,0,0,1,5.957-1.986A22.9,22.9,0,0,1,35.2,37.34l-.149.3a1.813,1.813,0,0,1-1.6.982,2.223,2.223,0,0,1-2.206-2.206L30.3,41.091a8.782,8.782,0,0,0-.165,1.7,8.648,8.648,0,0,0,3.905,7.226v.011a16.91,16.91,0,0,1-4.192,2.085,16.052,16.052,0,0,1-7.071.735,12.281,12.281,0,0,1-.365-2.935,5.062,5.062,0,0,1,2.276-4.244Z" transform="translate(4.062 1.097)" fill="#cf8c78"/>
        <path id="Trazado_735018" data-name="Trazado 735018" d="M24.619,66.1V63.89a5.965,5.965,0,0,0-1.434-3.882l-2.48-2.894A11.224,11.224,0,0,1,18,49.809a3.991,3.991,0,0,1,2.206-3.57,2.206,2.206,0,0,1,2.207-2.206,3.768,3.768,0,0,1,2.663-1.1h.646l-.614-2.456a7.281,7.281,0,0,0-1.915-3.384,2.663,2.663,0,0,1-.78-1.883,2.206,2.206,0,0,1,3.972-1.324A21.844,21.844,0,0,1,30.1,41.694l.6,2.4a17.927,17.927,0,0,1,.535,4.347v8.826l3.31,8.826Z" transform="translate(9.58 1.2)" fill="#f1b8a0"/>
      </g>
      <path id="Trazado_734906" data-name="Trazado 734906" d="M65.5,348.75l14.863-1.793a.594.594,0,0,1,.5,1.005l-4.337,4.44a6.541,6.541,0,0,0-1.862,4.571v15.744a.991.991,0,0,1-.991.991H33.86a.991.991,0,0,1-.991-.991v-22.93a.991.991,0,0,1,.991-.991H64.712a6.536,6.536,0,0,0,.783-.047Z" transform="translate(-26.548 -259.292)" fill="#bedcf7"/>
      <g id="Grupo_1013499" data-name="Grupo 1013499" transform="translate(13.604 95.534)">
        <path id="Trazado_734909" data-name="Trazado 734909" d="M80.979,387.89a1.441,1.441,0,0,0-1.44,1.393,5.842,5.842,0,1,0,0,10.068,1.441,1.441,0,0,0,2.882-.049v-9.97A1.442,1.442,0,0,0,80.979,387.89Zm-4.4,9.384a2.957,2.957,0,1,1,2.957-2.957A2.961,2.961,0,0,1,76.579,397.274Z" transform="translate(-70.737 -387.89)" fill="#0681af"/>
        <path id="Trazado_734910" data-name="Trazado 734910" d="M161.771,387.89a1.441,1.441,0,0,0-1.44,1.393,5.842,5.842,0,1,0,0,10.068,1.442,1.442,0,0,0,2.882-.049v-9.97A1.442,1.442,0,0,0,161.771,387.89Zm-4.4,9.384a2.957,2.957,0,1,1,2.957-2.957A2.961,2.961,0,0,1,157.371,397.274Z" transform="translate(-135.992 -387.89)" fill="#0681af"/>
      </g>
    </g>
  </g>
</svg>
