<svg xmlns="http://www.w3.org/2000/svg" xmlns:xlink="http://www.w3.org/1999/xlink" width="73.356" height="73.356" viewBox="0 0 73.356 73.356">
  <defs>
    <clipPath id="clip-path">
      <path id="path3309" d="M0-682.665H73.356v73.356H0Z" transform="translate(0 682.665)"/>
    </clipPath>
  </defs>
  <g id="g3303" transform="translate(0 682.665)">
    <g id="g3305" transform="translate(0 -682.665)">
      <g id="g3307" clip-path="url(#clip-path)">
        <g id="g3313" transform="translate(34.202 36.856)">
          <path id="path3315" d="M-163.4-36.093h0c-.588-1.273.2-3,1.787-3.9a2.547,2.547,0,0,1,3.718.939l1.658,2.873c6.688-5.474,9.509,2.033,9.509,2.033s2.941,9.663-.5,16.086l.987,1.677a4.32,4.32,0,0,1-1.532,5.914L-155.2-6.1a4.32,4.32,0,0,1-5.883-1.48l-1.477-2.43s-5.667,2.816-12.674-9.452c-1.171-2.051-5.473-9.305-7.069-12.4a4.429,4.429,0,0,1-.751-2.549,2.711,2.711,0,0,1,1.6-2.3,2.8,2.8,0,0,1,3.739,1.213l3.007,4.79c.481-1.856,2.052-4.167,5.361-2.728,0,0,.011-.085.043-.228a3.9,3.9,0,0,1,5.9-2.421" transform="translate(183.067 40.438)" fill="#ffdab3"/>
        </g>
        <g id="g3317" transform="translate(1.321 1.435)">
          <path id="path3319" d="M-209.711-180.374V-186a3.417,3.417,0,0,0-3.653-3.1h-.024a4.019,4.019,0,0,0-2.4.765l0-10.65a3.417,3.417,0,0,0-3.653-3.1h-.024A3.406,3.406,0,0,0-223.12-199l0,1.223a3.414,3.414,0,0,0-2.8-1.412h-.022a3.229,3.229,0,0,0-3.349,3.1l.041,7.3a2.659,2.659,0,0,0-2.431-1.884,2.711,2.711,0,0,0-2.551,1.173,4.429,4.429,0,0,0-.646,2.577c-.194,3.476.035,9,0,11.364-.184,14.126,6.129,14.575,6.129,14.575l.04,2.844a4.32,4.32,0,0,0,4.32,4.26h8.614a4.32,4.32,0,0,0,4.32-4.32v-1.946c6.227-3.788,8.594-13.607,8.594-13.607s1.341-7.7-6.852-6.619" transform="translate(234.959 202.09)" fill="#ffdab3" fill-rule="evenodd"/>
        </g>
        <g id="g3321" transform="translate(0.137 0)">
          <path id="path3323" d="M-197.981-345.99a1.436,1.436,0,0,0-.784,1.279v2.261a2.888,2.888,0,0,1-2.885,2.885h-8.672a2.864,2.864,0,0,1-2.048-.854,2.865,2.865,0,0,1-.836-2.056l.023-2.746a1.435,1.435,0,0,0-.555-1.146,11.918,11.918,0,0,1-3.785-4.323c-.97-2.013-1.422-4.659-1.422-8.325l.011-12.884a1.469,1.469,0,0,1,.435-1.045,1.469,1.469,0,0,1,1.044-.432h0a1.543,1.543,0,0,1,1.539,1.541v7.19a1.436,1.436,0,0,0,1.436,1.435,1.436,1.436,0,0,0,1.435-1.435l0-15.56a1.654,1.654,0,0,1,.489-1.176,1.673,1.673,0,0,1,1.185-.486h0a1.678,1.678,0,0,1,1.675,1.667l-.011,15.511a1.435,1.435,0,0,0,1.434,1.437h0a1.436,1.436,0,0,0,1.436-1.434l.022-18.425a1.666,1.666,0,0,1,1.666-1.662h.021a1.671,1.671,0,0,1,1.672,1.668v13.913h0l-.009,4.433a4.851,4.851,0,0,0-1.443,3.408,5.107,5.107,0,0,0,1.18,3.2,4.432,4.432,0,0,0,1.992,1.4,11.646,11.646,0,0,0-1.677,1.667,1.435,1.435,0,0,0,.206,2.02,1.436,1.436,0,0,0,2.02-.206,11.243,11.243,0,0,1,5.2-3.324,1.436,1.436,0,0,0,1.068-1.569,1.436,1.436,0,0,0-1.422-1.257l-4.221-.007a1.33,1.33,0,0,1-.955-.554,2.256,2.256,0,0,1-.522-1.364,1.809,1.809,0,0,1,1.48-1.8h7.582a2.54,2.54,0,0,1,2.769,2.171c.455,1.992-.221,5.125-1.766,8.175-1.6,3.166-3.852,5.714-6.015,6.815m-.93-25.493h.021a1.666,1.666,0,0,1,1.662,1.665l-.008,3.8-3.31,0h-.039l.008-3.8a1.667,1.667,0,0,1,1.666-1.662m9.507,19.974c1.889-3.731,2.619-7.416,2-10.112a5.4,5.4,0,0,0-5.52-4.39h-.028l-1.415,0,.008-3.8a4.541,4.541,0,0,0-4.531-4.541h-.025a4.509,4.509,0,0,0-1.666.318V-383.1a4.545,4.545,0,0,0-4.541-4.541h-.025a4.506,4.506,0,0,0-3.2,1.324,4.511,4.511,0,0,0-1.162,1.977,4.51,4.51,0,0,0-1.841-.394h-.025a4.5,4.5,0,0,0-3.2,1.324,4.507,4.507,0,0,0-1.333,3.207l0,4.239a4.384,4.384,0,0,0-1.537-.279h-.006a4.321,4.321,0,0,0-3.072,1.27,4.322,4.322,0,0,0-1.278,3.075l-.011,12.886c0,4.115.542,7.157,1.707,9.573a14.079,14.079,0,0,0,4.05,4.9l-.017,2.045a5.716,5.716,0,0,0,1.668,4.1,5.716,5.716,0,0,0,4.087,1.7h8.672a5.762,5.762,0,0,0,5.756-5.756v-1.425a19.189,19.189,0,0,0,6.49-7.634" transform="translate(221.817 387.644)" fill="#e4b380"/>
        </g>
        <g id="g3325" transform="translate(32.766 35.637)">
          <path id="path3327" d="M-297.446-187.756a1.436,1.436,0,0,0-.027,1.5l1.147,1.949a2.866,2.866,0,0,1,.307,2.187,2.866,2.866,0,0,1-1.329,1.763l-7.474,4.4a2.864,2.864,0,0,1-2.2.3A2.865,2.865,0,0,1-308.784-177l-1.373-2.379a1.435,1.435,0,0,0-1.06-.706,11.92,11.92,0,0,1-5.455-1.806c-1.857-1.243-3.589-3.294-5.449-6.454l-8.06-13.717a1.469,1.469,0,0,1-.156-1.121,1.469,1.469,0,0,1,.683-.9,1.543,1.543,0,0,1,2.108.547l7.936,13.5a4.506,4.506,0,0,0,2.769,2.094,4.552,4.552,0,0,0,1.15.148,4.522,4.522,0,0,0,2.293-.628l.012-.007a4.506,4.506,0,0,0,2.094-2.769,4.543,4.543,0,0,0,.139-1.412,3.865,3.865,0,0,0,2.006-.513l2.906-1.707a10.266,10.266,0,0,0,.852,8.81,1.435,1.435,0,0,0,1.965.509,1.435,1.435,0,0,0,.509-1.965c-3.141-5.337,1.613-10.224,1.814-10.426a1.436,1.436,0,0,0,.124-1.894,1.435,1.435,0,0,0-1.864-.361l-7.76,4.559c-.6.35-1.763-.151-2.245-.908a1.872,1.872,0,0,1,.361-2.3l10.659-6.26a2.532,2.532,0,0,1,3.481.457c1.4,1.486,2.409,4.529,2.625,7.941.224,3.542-.421,6.878-1.727,8.925m-23.884-10.893a1.668,1.668,0,0,1,.6-2.281l.014-.008a1.667,1.667,0,0,1,2.276.594l4.2,7.152a1.654,1.654,0,0,1,.175,1.262,1.656,1.656,0,0,1-.773,1.019l-.012.007a1.667,1.667,0,0,1-2.278-.593Zm5.205-4.426a1.662,1.662,0,0,1,.772-1.022,1.67,1.67,0,0,1,1.87.118,1.658,1.658,0,0,1,.422.48l.738,1.257-1.615.949a3.842,3.842,0,0,0-1.12,1.005l-.89-1.517a1.663,1.663,0,0,1-.177-1.269m5.367-3.159a1.662,1.662,0,0,1,.772-1.022,1.67,1.67,0,0,1,1.87.118,1.655,1.655,0,0,1,.422.479l.74,1.262-2.894,1.7-.734-1.268a1.664,1.664,0,0,1-.176-1.269m16.183,19.242a19.19,19.19,0,0,0,1.721-9.871c-.264-4.173-1.5-7.72-3.4-9.731a5.4,5.4,0,0,0-6.984-.984l-.026.015-1.21.711-.741-1.262a4.508,4.508,0,0,0-1.153-1.305,4.529,4.529,0,0,0-5.067-.314,4.513,4.513,0,0,0-2.061,2.646,4.532,4.532,0,0,0-3.306.513,4.512,4.512,0,0,0-2.063,2.653,4.519,4.519,0,0,0-3.3.507l0,0-.012.007a4.512,4.512,0,0,0-1.281,1.125l-1.6-2.718a4.418,4.418,0,0,0-6.035-1.567,4.322,4.322,0,0,0-2.008,2.656,4.322,4.322,0,0,0,.458,3.3l8.061,13.718c4.071,6.916,7.53,8.815,12.3,9.551l1.023,1.772a5.716,5.716,0,0,0,3.518,2.689,5.8,5.8,0,0,0,1.477.193,5.72,5.72,0,0,0,2.909-.8l7.474-4.4a5.718,5.718,0,0,0,2.652-3.517,5.718,5.718,0,0,0-.612-4.362Z" transform="translate(333.256 210.361)" fill="#e4b380"/>
        </g>
        <g id="g3329" transform="translate(26.068 58.003)">
          <path id="path3331" d="M-134.436-75.206l-5.206-3.692a1.435,1.435,0,0,0-2,.34,1.435,1.435,0,0,0,.34,2l1.531,1.086h-3.121a4.863,4.863,0,0,1-4.857-4.857v-2.5a1.436,1.436,0,0,0-1.436-1.435,1.436,1.436,0,0,0-1.435,1.435v2.5a7.737,7.737,0,0,0,7.728,7.728h3.121l-1.531,1.086a1.436,1.436,0,0,0-.34,2,1.434,1.434,0,0,0,1.172.605,1.428,1.428,0,0,0,.829-.265l5.206-3.692a1.436,1.436,0,0,0,.605-1.171,1.436,1.436,0,0,0-.605-1.171" transform="translate(150.621 84.26)" fill="#12263f"/>
        </g>
        <g id="g3333" transform="translate(26.07 51.585)">
          <path id="path3335" d="M-11.9-23.8a1.433,1.433,0,0,0,1.433-1.433A1.433,1.433,0,0,0-11.9-26.667a1.433,1.433,0,0,0-1.433,1.433A1.433,1.433,0,0,0-11.9-23.8" transform="translate(13.333 26.667)" fill="#12263f"/>
        </g>
      </g>
    </g>
  </g>
</svg>
