<svg xmlns="http://www.w3.org/2000/svg" width="52.785" height="53.892" viewBox="0 0 52.785 53.892">
  <g id="interprete_1_" data-name="interprete (1)" transform="translate(-6.306 -10.396)">
    <path id="Trazado_698807" data-name="Trazado 698807" d="M57.127,82.8h-8.1a5.28,5.28,0,0,0-5.2,4.383.842.842,0,0,1-.831.7h-1.4a3.581,3.581,0,0,0-3.581,3.581v10.518H64.387V90.058a7.26,7.26,0,0,0-7.26-7.26Z" transform="translate(-27.724 -72.402)" fill="#3692bc"/>
    <path id="Trazado_698808" data-name="Trazado 698808" d="M32.994,348.383H13.956a13.614,13.614,0,0,0-7.65,12.241v7.256a1.047,1.047,0,0,0,1.047,1.047H39.6a1.047,1.047,0,0,0,1.047-1.047v-7.256A13.614,13.614,0,0,0,32.994,348.383Z" transform="translate(0 -304.639)" fill="#62dbfb"/>
    <path id="Trazado_698809" data-name="Trazado 698809" d="M207.037,348.383l-1.7.878a13.6,13.6,0,0,1,6.113,11.362v7.256a1.047,1.047,0,0,1-1.047,1.047h3.234a1.047,1.047,0,0,0,1.047-1.047v-7.256A13.614,13.614,0,0,0,207.037,348.383Z" transform="translate(-174.043 -304.639)" fill="#01c0fa"/>
    <path id="Trazado_698810" data-name="Trazado 698810" d="M67.232,338.824l3.655,5.515a.915.915,0,0,0,1.334.209l4.53-3.626,4.53,3.626a.915.915,0,0,0,1.334-.209l3.655-5.515a13.559,13.559,0,0,0-5.963-1.372H73.2A13.56,13.56,0,0,0,67.232,338.824Z" transform="translate(-53.276 -295.081)" fill="#d8ecfe"/>
    <path id="Trazado_698811" data-name="Trazado 698811" d="M145.609,337.452a13.552,13.552,0,0,1,8.257,2.79l.94-1.418a13.557,13.557,0,0,0-5.963-1.372h-3.233Z" transform="translate(-121.812 -295.081)" fill="#b3dafe"/>
    <g id="Grupo_990296" data-name="Grupo 990296" transform="translate(11.544 54.517)">
      <path id="Trazado_698812" data-name="Trazado 698812" d="M49.96,443.956v-8.8a.97.97,0,1,0-1.94,0v8.8Z" transform="translate(-48.02 -434.185)" fill="#01c0fa"/>
      <path id="Trazado_698813" data-name="Trazado 698813" d="M224.556,443.956v-8.8a.97.97,0,0,0-1.94,0v8.8Z" transform="translate(-200.693 -434.185)" fill="#01c0fa"/>
    </g>
    <path id="Trazado_698814" data-name="Trazado 698814" d="M112.035,274.082v8.294a3.893,3.893,0,1,0,7.787,0v-8.294Z" transform="translate(-92.454 -239.668)" fill="#ffb09e"/>
    <path id="Trazado_698815" data-name="Trazado 698815" d="M59.682,169.7a2.678,2.678,0,0,1-2.676,2.776H55.73a.9.9,0,0,0-.883.709,9.37,9.37,0,0,1-18.276,0,.9.9,0,0,0-.883-.709H34.409a2.679,2.679,0,0,1-2.676-2.777,2.719,2.719,0,0,1,2.74-2.578h1.867v-5.392a1.374,1.374,0,0,1,1.374-1.374H41.06a4.341,4.341,0,0,1,1.61.309,41.66,41.66,0,0,0,11.1,2.578,1.428,1.428,0,0,1,1.307,1.425v2.454h1.866a2.718,2.718,0,0,1,2.74,2.579Z" transform="translate(-22.233 -140.221)" fill="#ffcebf"/>
    <path id="Trazado_698819" data-name="Trazado 698819" d="M135.029,404.5h-.181a.97.97,0,1,1,0-1.94h.181a.97.97,0,0,1,0,1.94Z" transform="translate(-111.554 -352.01)" fill="#3692bc"/>
    <path id="Trazado_698820" data-name="Trazado 698820" d="M135.029,437.182h-.181a.97.97,0,1,1,0-1.94h.181a.97.97,0,1,1,0,1.94Z" transform="translate(-111.554 -380.592)" fill="#3692bc"/>
    <path id="Trazado_698821" data-name="Trazado 698821" d="M135.029,469.868h-.181a.97.97,0,0,1,0-1.94h.181a.97.97,0,0,1,0,1.94Z" transform="translate(-111.554 -409.174)" fill="#3692bc"/>
    <g id="Grupo_990714" data-name="Grupo 990714" transform="translate(-2.381 18.649)">
      <path id="Trazado_698805" data-name="Trazado 698805" d="M314.824,0H302.405a.94.94,0,0,0-.94.94V13.319a1.308,1.308,0,0,1-.22.726l-2.417,3.621a.478.478,0,0,0,.572.71l5.177-2.034a1.308,1.308,0,0,1,.478-.091h9.769a.94.94,0,0,0,.94-.94V.94a.94.94,0,0,0-.94-.94Z" transform="translate(-255.72)" fill="#fd9468"/>
      <path id="Trazado_698806" data-name="Trazado 698806" d="M455.673,0h-2.3a.94.94,0,0,1,.94.94V15.312a.94.94,0,0,1-.94.94h2.3a.94.94,0,0,0,.94-.94V.94a.94.94,0,0,0-.94-.94Z" transform="translate(-396.568 0)" fill="#fe7d43"/>
      <path id="Trazado_698822" data-name="Trazado 698822" d="M326.192,294.251v.817H313.244v3.946a4.35,4.35,0,0,0,1.3,3.106,1.069,1.069,0,0,1,.314.765v2l6.474,1.837,5.717-1.837v-1.4a1.046,1.046,0,0,1,.3-.732l2.356-2.4a2.42,2.42,0,0,0,.691-1.693v-7a1.3,1.3,0,0,0-1.861-1.169A4.207,4.207,0,0,0,326.192,294.251Z" transform="translate(-268.927 -264.463)" fill="#ffcebf"/>
      <path id="Trazado_698823" data-name="Trazado 698823" d="M446.324,290.442a4.207,4.207,0,0,0-.673.418,1.293,1.293,0,0,1,.249.752v7a2.412,2.412,0,0,1-.68,1.695l-2.35,2.41a1.044,1.044,0,0,0-.3.732v1.4h2.3v-1.409a1.042,1.042,0,0,1,.294-.732l2.35-2.41a2.412,2.412,0,0,0,.68-1.695v-7A1.3,1.3,0,0,0,446.324,290.442Z" transform="translate(-386.728 -264.43)" fill="#ffb09e"/>
      <path id="Trazado_698824" data-name="Trazado 698824" d="M331.4,453.457V457.9a.78.78,0,0,0,.78.78h10.63a.78.78,0,0,0,.78-.78v-4.438Z" transform="translate(-285.465 -413.037)" fill="#62dbfb"/>
      <path id="Trazado_698825" data-name="Trazado 698825" d="M434.44,453.457V457.9a.78.78,0,0,1-.78.78h2.3a.78.78,0,0,0,.78-.78v-4.438h-2.3Z" transform="translate(-378.609 -413.037)" fill="#01c0fa"/>
      <path id="Trazado_698826" data-name="Trazado 698826" d="M331.4,453.457V457.9a.78.78,0,0,0,.78.78h4.7a2.609,2.609,0,0,0,0-5.218Z" transform="translate(-285.465 -413.037)" fill="#01c0fa"/>
      <g id="Grupo_990298" data-name="Grupo 990298" transform="translate(44.318 26.953)">
        <path id="Trazado_698827" data-name="Trazado 698827" d="M314.135,313.2l-.891,3.317v.891a1.618,1.618,0,0,0,3.237,0V313.2a1.618,1.618,0,0,0-1.618-1.618C313.969,311.58,314.135,312.3,314.135,313.2Z" transform="translate(-313.244 -310.759)" fill="#ffb09e"/>
        <path id="Trazado_698828" data-name="Trazado 698828" d="M349.559,309.515v4.536a1.618,1.618,0,1,0,3.237,0v-4.536a1.618,1.618,0,0,0-3.237,0Z" transform="translate(-346.322 -307.404)" fill="#ffb09e"/>
        <path id="Trazado_698829" data-name="Trazado 698829" d="M385.874,303.99v5.029a1.618,1.618,0,0,0,3.237,0V303.99a1.618,1.618,0,0,0-3.237,0Z" transform="translate(-379.4 -302.371)" fill="#ffb09e"/>
        <path id="Trazado_698830" data-name="Trazado 698830" d="M422.189,303.99v5.029a1.618,1.618,0,0,0,3.237,0V303.99a1.618,1.618,0,0,0-3.237,0Z" transform="translate(-412.478 -302.371)" fill="#ffb09e"/>
      </g>
      <path id="Trazado_698831" data-name="Trazado 698831" d="M313.244,303.2v4.208a1.618,1.618,0,1,0,3.237,0V303.2a1.618,1.618,0,1,0-3.237,0Z" transform="translate(-268.927 -274.697)" fill="#ffcebf"/>
      <path id="Trazado_698832" data-name="Trazado 698832" d="M349.559,299.515v4.536a1.618,1.618,0,1,0,3.237,0v-4.536a1.618,1.618,0,0,0-3.237,0Z" transform="translate(-302.004 -271.343)" fill="#ffcebf"/>
      <path id="Trazado_698833" data-name="Trazado 698833" d="M385.874,293.989v5.029a1.618,1.618,0,1,0,3.237,0v-5.029a1.618,1.618,0,1,0-3.237,0Z" transform="translate(-335.083 -266.309)" fill="#ffcebf"/>
      <path id="Trazado_698834" data-name="Trazado 698834" d="M422.189,293.989v5.029a1.618,1.618,0,1,0,3.237,0v-5.029a1.618,1.618,0,1,0-3.237,0Z" transform="translate(-368.16 -266.309)" fill="#ffcebf"/>
      <path id="Trazado_698835" data-name="Trazado 698835" d="M324.114,301.58a1.609,1.609,0,0,0-.713.167,1.617,1.617,0,0,1,.905,1.451v4.208a1.617,1.617,0,0,1-.905,1.451,1.616,1.616,0,0,0,2.332-1.451V303.2A1.618,1.618,0,0,0,324.114,301.58Z" transform="translate(-278.178 -274.698)" fill="#ffb09e"/>
      <path id="Trazado_698836" data-name="Trazado 698836" d="M360.429,297.9a1.609,1.609,0,0,0-.713.167,1.617,1.617,0,0,1,.905,1.451v4.536a1.617,1.617,0,0,1-.905,1.451,1.616,1.616,0,0,0,2.332-1.451v-4.536A1.618,1.618,0,0,0,360.429,297.9Z" transform="translate(-311.256 -271.342)" fill="#ffb09e"/>
      <path id="Trazado_698837" data-name="Trazado 698837" d="M396.744,292.371a1.609,1.609,0,0,0-.713.167,1.617,1.617,0,0,1,.905,1.451v5.029a1.617,1.617,0,0,1-.905,1.451,1.616,1.616,0,0,0,2.332-1.451V293.99A1.618,1.618,0,0,0,396.744,292.371Z" transform="translate(-344.334 -266.31)" fill="#ffb09e"/>
      <path id="Trazado_698838" data-name="Trazado 698838" d="M433.059,292.371a1.609,1.609,0,0,0-.713.167,1.617,1.617,0,0,1,.905,1.451v5.029a1.617,1.617,0,0,1-.905,1.451,1.616,1.616,0,0,0,2.332-1.451V293.99A1.618,1.618,0,0,0,433.059,292.371Z" transform="translate(-377.412 -266.31)" fill="#ffb09e"/>
      <path id="Trazado_698839" data-name="Trazado 698839" d="M375.352,48.77l-2.867-7.526a.861.861,0,0,0-1.594,0l-.008.019-2.834,7.51a.689.689,0,1,0,1.289.486l.538-1.425h3.645l.543,1.427a.689.689,0,0,0,1.287-.49ZM370.4,46.456l1.294-3.43L373,46.456Z" transform="translate(-318.806 -37.08)" fill="#727997"/>
      <path id="Trazado_698840" data-name="Trazado 698840" d="M384.488,207.476l-1.844-1.6a.923.923,0,0,0-1.2,0l-1.844,1.6a.689.689,0,0,0,.9,1.041l.855-.741V210.8a.689.689,0,1,0,1.377,0v-3.023l.856.742a.689.689,0,0,0,.9-1.041Z" transform="translate(-329.147 -187.323)" fill="#727997"/>
    </g>
  </g>
</svg>
