<svg xmlns="http://www.w3.org/2000/svg" xmlns:xlink="http://www.w3.org/1999/xlink" width="141.364" height="141.364" viewBox="0 0 141.364 141.364">
  <defs>
    <filter id="Trazado_735019" x="0" y="0" width="141.364" height="141.364" filterUnits="userSpaceOnUse">
      <feOffset dy="3" input="SourceAlpha"/>
      <feGaussianBlur stdDeviation="3" result="blur"/>
      <feFlood flood-opacity="0.161"/>
      <feComposite operator="in" in2="blur"/>
      <feComposite in="SourceGraphic"/>
    </filter>
    <clipPath id="clip-path">
      <path id="path966" d="M0-682.665H83.683v83.683H0Z" transform="translate(0 682.665)"/>
    </clipPath>
    <filter id="path1012" x="77.56" y="77.156" width="38.982" height="24.281" filterUnits="userSpaceOnUse">
      <feOffset dy="3" input="SourceAlpha"/>
      <feGaussianBlur stdDeviation="3" result="blur-2"/>
      <feFlood flood-opacity="0.161"/>
      <feComposite operator="in" in2="blur-2"/>
      <feComposite in="SourceGraphic"/>
    </filter>
  </defs>
  <g id="Grupo_1013566" data-name="Grupo 1013566" transform="translate(3342 6996.682)">
    <g transform="matrix(1, 0, 0, 1, -3342, -6996.68)" filter="url(#Trazado_735019)">
      <path id="Trazado_735019-2" data-name="Trazado 735019" d="M61.682,0A61.682,61.682,0,1,1,0,61.682,61.682,61.682,0,0,1,61.682,0Z" transform="translate(9 6)" fill="#4db1f0"/>
    </g>
    <g id="g960" transform="translate(-3312.842 -6289.176)">
      <g id="g962" transform="translate(0 -681.665)">
        <g id="g964" transform="translate(0 0)" clip-path="url(#clip-path)">
          <g id="g970" transform="translate(1.226 1.226)">
            <path id="path972" d="M-159.592-424.222V-433.4c7.336-.816,12.964-5.535,14.671-13.433.731-3.382-4.587-4.579-5.4-1.177-.77,3.225-3.054,5.633-5.357,5.309-3.3-.464-4.836-4.42-4.751-8.693.108-5.427,3.81-7.06,5.679-6.779,2.664.4,3.7,2.629,4.833,3.868a2.756,2.756,0,0,0,4.447-3.249c-3.121-5.691-11.19-9.75-17.489-2.786,4-14.8,14.41-15.435,11.678-20.461-.853-1.4-2.771-1.661-4.558-.513-5.027,3.229-11.085,12.446-13.045,19.562a35.142,35.142,0,0,1,4.808-16.958,3.132,3.132,0,0,0-.813-4.22,2.966,2.966,0,0,0-4.356,1.083c-6.416,9.95-5.973,24.885-5.973,24.885s-.77-3.548-.592-11.438a3.052,3.052,0,0,0-2.679-3.294,3.049,3.049,0,0,0-3.374,3.134c-.124,9.515-.026,27.572,7.226,34.114v10.223Z" transform="translate(181.888 483.49)" fill="#ffc998"/>
          </g>
          <g id="g974" transform="translate(16.985 34.673)">
            <path id="path976" d="M-113.156-14.544a8.712,8.712,0,0,1-1.863,3.728A16.117,16.117,0,0,1-128.965.066V9.245h6.538V.066c7.336-.816,12.964-5.535,14.671-13.433.731-3.382-4.587-4.579-5.4-1.177" transform="translate(128.965 16.575)" fill="#f8bd87"/>
          </g>
          <g id="g978" transform="translate(3.007 63.874)">
            <path id="path980" d="M0-133.014V-150A1.6,1.6,0,0,1,1.6-151.6H23.917a1.6,1.6,0,0,1,1.6,1.592v16.991Z" transform="translate(0 151.597)" fill="#006bda"/>
          </g>
          <g id="g982" transform="translate(20.386 63.874)">
            <path id="path984" d="M-46.8,0h-6.538a1.6,1.6,0,0,1,1.6,1.592V18.583H-45.2V1.592A1.6,1.6,0,0,0-46.8,0" transform="translate(53.333)" fill="#0461c3"/>
          </g>
          <g id="g986" transform="translate(5.545 57.802)">
            <path id="path988" d="M-134.88,0h-17.248a1.6,1.6,0,0,0-1.6,1.6V6.072h20.439V1.6a1.6,1.6,0,0,0-1.6-1.6" transform="translate(153.724 0)" fill="#fbf9f9"/>
          </g>
          <g id="g990" transform="translate(17.851 57.802)">
            <path id="path992" d="M-46.8,0h-6.538a1.6,1.6,0,0,1,1.6,1.6V6.072H-45.2V1.6A1.6,1.6,0,0,0-46.8,0" transform="translate(53.333 0)" fill="#f6eeeb"/>
          </g>
          <g id="g994" transform="translate(43.312 3.183)">
            <path id="path996" d="M-55.833-164.07l4.061,8.814a.876.876,0,0,0,1.672-.368v-28.083a3.27,3.27,0,0,1,3.263-3.285,3.2,3.2,0,0,1,3.14,3.2v18.055a3.405,3.405,0,0,1,3.263-3.439,3.339,3.339,0,0,1,3.14,3.355,3.2,3.2,0,1,1,6.4.084h0a3.35,3.35,0,0,1,3.14-3.366,3.416,3.416,0,0,1,3.263,3.45v13.587a15.654,15.654,0,0,1-6.4,12.639v14.89H-46.976v-14.89a9.083,9.083,0,0,1-6.657-5.175l-9.848-20.748a1.749,1.749,0,0,1,1.511-2.458,6.4,6.4,0,0,1,6.137,3.736" transform="translate(63.634 186.992)" fill="#ffc998"/>
          </g>
          <g id="g998" transform="translate(69.651 21.074)">
            <path id="path1000" d="M-68.309,0a3.35,3.35,0,0,0-3.14,3.366,3.328,3.328,0,0,0-.98-2.35,3.608,3.608,0,0,1,.98,2.434V17.034a15.654,15.654,0,0,1-6.4,12.639v14.89h6.4V29.673a15.654,15.654,0,0,0,6.4-12.639V3.447A3.416,3.416,0,0,0-68.309,0" transform="translate(77.852 0.004)" fill="#f8bd87"/>
          </g>
          <g id="g1002" transform="translate(54.796 63.596)">
            <path id="path1004" d="M-187.483-135v-17.214a1.644,1.644,0,0,0-1.641-1.647h-22.91a1.644,1.644,0,0,0-1.641,1.647V-135Z" transform="translate(213.675 153.865)" fill="#0059bd"/>
          </g>
          <g id="g1006" transform="translate(72.81 63.596)">
            <path id="path1008" d="M-46.8,0h-6.538a1.644,1.644,0,0,1,1.641,1.647V18.861h6.538V1.647A1.644,1.644,0,0,0-46.8,0" transform="translate(53.333)" fill="#034590"/>
          </g>
          <g id="g1010" transform="translate(57.401 57.315)">
            <g transform="matrix(1, 0, 0, 1, -86.56, -83.16)" filter="url(#path1012)">
              <path id="path1012-2" data-name="path1012" d="M-11.769,0H5.925A1.644,1.644,0,0,1,7.569,1.644V6.281H-13.413V1.644A1.644,1.644,0,0,1-11.769,0" transform="translate(99.97 83.16)" fill="#fbf9f9"/>
            </g>
          </g>
          <g id="g1014" transform="translate(70.202 57.315)">
            <path id="path1016" d="M-46.8,0h-6.538a1.644,1.644,0,0,1,1.644,1.644V6.281h6.538V1.644A1.644,1.644,0,0,0-46.8,0" transform="translate(53.333)" fill="#f6eeeb"/>
          </g>
        </g>
      </g>
    </g>
  </g>
</svg>
