<svg xmlns="http://www.w3.org/2000/svg" width="146.772" height="146.772" viewBox="0 0 146.772 146.772">
  <g id="Grupo_990718" data-name="Grupo 990718" transform="translate(3446 8362)">
    <g id="Grupo_990716" data-name="Grupo 990716" transform="translate(-590 61)">
      <g id="Grupo_990715" data-name="Grupo 990715" transform="translate(6)">
        <g id="Grupo_990712" data-name="Grupo 990712" transform="translate(13.239 0.238)">
          <g id="lenguaje-de-senas" transform="translate(-2875.239 -8423.238)">
            <g id="Grupo_894019" data-name="Grupo 894019" transform="translate(0 0)">
              <g id="Grupo_894018" data-name="Grupo 894018" transform="translate(0)">
                <g id="Grupo_894017" data-name="Grupo 894017">
                  <g id="Grupo_894016" data-name="Grupo 894016">
                    <g id="Grupo_894015" data-name="Grupo 894015">
                      <g id="Grupo_894014" data-name="Grupo 894014">
                        <g id="Grupo_894013" data-name="Grupo 894013">
                          <g id="Grupo_894012" data-name="Grupo 894012">
                            <circle id="Elipse_4718" data-name="Elipse 4718" cx="73.386" cy="73.386" r="73.386" fill="#7584f2"/>
                          </g>
                        </g>
                      </g>
                    </g>
                  </g>
                </g>
              </g>
            </g>
            <path id="Trazado_688863" data-name="Trazado 688863" d="M199.6,171.422l-21.528-21.7-1-.651L147.94,162.366l-24.586-24.5-1.91,2.06-5.627-5.627-5.05,4.967L105.5,134,89.836,148.283,75.185,187.637l54.025,54.025A72.945,72.945,0,0,0,199.6,171.422Z" transform="translate(-53.438 -95.385)" fill="#4855b7"/>
            <g id="Grupo_894020" data-name="Grupo 894020" transform="translate(0.325 0.435)">
              <path id="Trazado_688864" data-name="Trazado 688864" fill="#ffcdbe"/>
            </g>
            <g id="Grupo_894025" data-name="Grupo 894025" transform="translate(12.088 37.668)">
              <g id="Grupo_894021" data-name="Grupo 894021">
                <path id="Trazado_688865" data-name="Trazado 688865" d="M72.723,168.235a10.072,10.072,0,0,0-12.5-1.215l-1.5-1.658a12.308,12.308,0,0,1,14.592.439,2.772,2.772,0,0,1,.349.332,37.035,37.035,0,0,0,4.374,3.054s3.981-4.292,5.607-5.987c3.935-4.1,6.306-4.873,8.659-4.873a6.616,6.616,0,0,1,6.2,4.328,3.281,3.281,0,1,0,6.157-2.272A13.19,13.19,0,0,0,92.3,151.764c-3.442,0-6.577,1.329-10.251,4.979l-.856-.962,17.467-15.554a3.462,3.462,0,0,0,.456-4.737,3.4,3.4,0,0,0-4.9-.4l-18.7,16.648-.711-.8,16.344-14.555a3.259,3.259,0,0,0,.429-4.459,3.2,3.2,0,0,0-4.617-.38L69.1,147.446l-.711-.8,12.545-11.171a2.775,2.775,0,0,0,.323-3.855,2.715,2.715,0,0,0-3.866-.26L65.02,142.377,54.842,151.44l-5.164,4.6.028.032a10.119,10.119,0,0,0-2.509,9.1.007.007,0,0,1,0,.007l-4.306,3.835a4.79,4.79,0,0,0-.392,6.762l8.447,9.486a4.792,4.792,0,0,0,6.765.391l3.959-3.526a.008.008,0,0,1,.008,0,8.732,8.732,0,0,0,4.452.722s12.573-.42,18.093-1.06c3.278-.38,10.379-1.753,13.5-5.81,3.976-5.17-2.345-6.913-5.265-4.933-5.4,3.658-12.879,1.565-14.874.57Z" transform="translate(-41.284 -130.673)" fill="#ffcdbe"/>
              </g>
              <g id="Grupo_894022" data-name="Grupo 894022" transform="translate(5.843 3.554)">
                <path id="Trazado_688866" data-name="Trazado 688866" d="M65.607,272.4a4.792,4.792,0,0,0,6.765.391l3.959-3.526a.007.007,0,0,1,.008,0,8.731,8.731,0,0,0,4.452.722s12.573-.42,18.093-1.06c3.278-.38,10.379-1.753,13.5-5.81,3.976-5.17-2.345-6.913-5.265-4.933-5.4,3.658-12.879,1.566-14.874.57l-4.858-3.375a10.067,10.067,0,0,0-10.723-2.134L61.791,268.112Z" transform="translate(-61.791 -221.366)" fill="#faa68e"/>
                <path id="Trazado_688867" data-name="Trazado 688867" d="M163.9,169.3a13.19,13.19,0,0,0-12.357-8.619c-3.442,0-6.577,1.329-10.251,4.979l-.856-.962L157.9,149.146a3.462,3.462,0,0,0,.456-4.737,3.4,3.4,0,0,0-4.9-.4l-10.909,9.714-18.407,18.407a12.254,12.254,0,0,1,8.417,2.592,2.774,2.774,0,0,1,.349.332,37.029,37.029,0,0,0,4.374,3.054s3.98-4.292,5.607-5.987c3.935-4.1,6.307-4.873,8.659-4.873a6.616,6.616,0,0,1,6.2,4.328A3.282,3.282,0,1,0,163.9,169.3Z" transform="translate(-106.374 -143.146)" fill="#faa68e"/>
              </g>
              <g id="Grupo_894023" data-name="Grupo 894023" transform="translate(58.779 15.231)">
                <path id="Trazado_688868" data-name="Trazado 688868" d="M279.719,202.753a10.072,10.072,0,0,0,12.5,1.215l1.5,1.658a12.308,12.308,0,0,1-14.592-.439,2.774,2.774,0,0,1-.349-.332,37.034,37.034,0,0,0-4.374-3.054s-3.981,4.292-5.607,5.987c-3.935,4.1-6.307,4.873-8.659,4.873a6.616,6.616,0,0,1-6.2-4.327,3.281,3.281,0,1,0-6.157,2.272,13.19,13.19,0,0,0,12.357,8.619c3.442,0,6.577-1.329,10.252-4.979l.856.962-17.467,15.554a3.462,3.462,0,0,0-.456,4.737,3.4,3.4,0,0,0,4.9.4l18.7-16.648.711.8L261.3,234.607a3.258,3.258,0,0,0-.429,4.459,3.2,3.2,0,0,0,4.617.38l17.858-15.9.711.8-12.545,11.171a2.775,2.775,0,0,0-.322,3.855,2.715,2.715,0,0,0,3.866.26l12.371-11.016,10.178-9.064,5.164-4.6-.028-.032a10.12,10.12,0,0,0,2.509-9.1.007.007,0,0,1,0-.007l4.306-3.835a4.79,4.79,0,0,0,.392-6.762l-8.447-9.486a4.792,4.792,0,0,0-6.764-.391l-3.959,3.526a.008.008,0,0,1-.008,0,8.732,8.732,0,0,0-4.452-.722s-12.573.42-18.093,1.06c-3.278.38-10.379,1.753-13.5,5.81-3.976,5.17,2.345,6.913,5.265,4.933,5.4-3.658,12.879-1.565,14.875-.57Z" transform="translate(-247.579 -184.127)" fill="#ffcdbe"/>
              </g>
              <g id="Grupo_894024" data-name="Grupo 894024" transform="translate(71.375 21.05)">
                <path id="Trazado_688869" data-name="Trazado 688869" d="M336.863,204.552l-15.022,15.022a9.939,9.939,0,0,0,1.993-1l1.5,1.659a12.237,12.237,0,0,1-6.316,2.163l-19.459,19.459,8.978-7.995.711.8-16.344,14.555a3.258,3.258,0,0,0-.429,4.459,3.2,3.2,0,0,0,4.617.38l17.858-15.9.711.8-12.545,11.172a2.774,2.774,0,0,0-.323,3.855,2.715,2.715,0,0,0,3.867.26l12.371-11.016,10.178-9.064,5.164-4.6-.028-.032a10.12,10.12,0,0,0,2.508-9.1.007.007,0,0,1,0-.007l4.306-3.835a4.79,4.79,0,0,0,.392-6.762Z" transform="translate(-291.786 -204.552)" fill="#faa68e"/>
              </g>
            </g>
          </g>
        </g>
      </g>
    </g>
  </g>
</svg>
