<svg xmlns="http://www.w3.org/2000/svg" xmlns:xlink="http://www.w3.org/1999/xlink" width="925" height="299" viewBox="0 0 925 299">
  <defs>
    <clipPath id="clip-path">
      <rect id="Rectángulo_344448" data-name="Rectángulo 344448" width="925" height="299" rx="10" transform="translate(495 1820)" fill="#ffa031" opacity="0.47"/>
    </clipPath>
    <clipPath id="clip-path-2">
      <rect id="Rectángulo_344447" data-name="Rectángulo 344447" width="899" height="343" rx="20" transform="translate(0 0.145)" fill="#fceae8"/>
    </clipPath>
    <clipPath id="clip-path-3">
      <path id="Trazado_696668" data-name="Trazado 696668" d="M163.462,0c-8.105.094-14.19,4.161-17.28,11.5-2.972,6.911-3.176,16.768,0,28.962,11.179,42.068,54.954,80.988,81.2,134.852,26.148,53.857,27.17,61.267,27.17,61.267l-2.351,18.5s-34.041-14.228-70.032-53.755C146.181,161.695,79.129,112.412,62.108,98.792s-41.832-23.064-57.925,0c-5.747,8.236-5.134,18.085-.818,28.557,7.783,18.8,27.783,39.629,45.315,57.114,27.375,27.022,88.688,83.317,104.687,95.925,16.093,12.693,52.076,41.561,59.867,60.363,5.849,14.017,16.1,35.46,17.744,70.921a253.609,253.609,0,0,1-1.95,41.772c-7.893,61.781-67.776,40.338-33.939,94.405,33.939,53.95,108.484,108.423,161.48,125.494C402.71,719.072,453.78,833.9,453.78,833.9s42.241,4.161,95.457-17.882c36.7-15.147,78.743-42.886,115.646-93.19a361.391,361.391,0,0,0,27.485-43.7C619.67,626.6,555.385,535.139,555.385,535.139c29.018-67.072,33.42-150.288,35.37-202.321-9.324-32.11-43.271-61.984-31.887-142.06,12.406-87.8-8.2-83.224-42.854-57.316-.928.717-1.847,1.426-2.665,2.135-33.121,27.341-52.493,92.169-31.376,161.983,0,0-.928,8.735-6.564,10.87C402.3,306.5,352.167,243.29,323.762,198.48c-28.5-44.717-80.992-138-119.648-176.211C188.792,7.028,174.727.132,164.051,0Z" transform="translate(0)" fill="none"/>
    </clipPath>
    <linearGradient id="linear-gradient" x1="0.168" y1="0.939" x2="0.176" y2="0.939" gradientUnits="objectBoundingBox">
      <stop offset="0" stop-color="#f8c5a1"/>
      <stop offset="0.699" stop-color="#f9bb9a"/>
      <stop offset="1" stop-color="#fab597"/>
    </linearGradient>
    <clipPath id="clip-path-4">
      <path id="Trazado_696669" data-name="Trazado 696669" d="M104.83,31.423c-.928.717-1.847,1.426-2.665,2.135,27.579-8.836,37.626-2.743,37.626,21.949,0,29.165-29.426,53.452-18.656,70.017C132,142.089,156.8,205.6,153.84,264.638c-2.877,59.038-1.95,78.86-17.948,120.617C119.8,427.12,114.98,458.63,59.924,494.6c93.3-10.059,127.03,21.038,152.148,46.042,17.744,17.578,33.632,57.815,41.628,80.17a361.378,361.378,0,0,0,27.485-43.7C208.487,524.579,144.2,433.12,144.2,433.12c29.018-67.072,33.42-150.288,35.37-202.321-9.324-32.11-43.271-61.984-31.887-142.06,7.767-54.948,2.6-73.718-10.849-73.718-8.035,0-19.041,6.709-32.005,16.4" transform="translate(-59.924 -15.021)" fill="none"/>
    </clipPath>
    <linearGradient id="linear-gradient-2" x1="-2.129" y1="1.184" x2="-2.094" y2="1.184" gradientUnits="objectBoundingBox">
      <stop offset="0" stop-color="#f7b08a"/>
      <stop offset="0.394" stop-color="#f0a582"/>
      <stop offset="1" stop-color="#e38c72"/>
    </linearGradient>
    <clipPath id="clip-path-5">
      <path id="Trazado_696670" data-name="Trazado 696670" d="M88.849,111.6c-3.082,2.54-9.953,4.472-19.175,5.891a253.609,253.609,0,0,1-1.95,41.772C59.831,221.044-.052,199.6,33.785,253.668c33.939,53.95,108.484,108.423,161.48,125.494,46.141,45.73,97.21,160.557,97.21,160.557s42.241,4.161,95.457-17.882c-56.6-6.4-93.405-27.443-116.071-70.734-27.988-53.452-20.614-105.072-20.614-105.072s-55.158,7.519-117.289-22.152-63.774-84.136-63.774-84.136,32.6-9.249,38.452-28.658c5.943-19.511,13.538-16.565,24.088-22.658,10.566-6.1,21.643-25.105,18.664-37-3.074-11.781-34.143-29.663-34.143-29.663l1.745-29.679-6.156,9.763s-2.555-21.755,6.871-58.54c-10.047,34.962-14.56,54.675-30.857,68.287" transform="translate(-23.508 -43.314)" fill="none"/>
    </clipPath>
    <linearGradient id="linear-gradient-3" x1="-0.416" y1="0.992" x2="-0.395" y2="0.992" xlink:href="#linear-gradient-2"/>
    <clipPath id="clip-path-6">
      <path id="Trazado_696671" data-name="Trazado 696671" d="M25.46,77.365c-3.388,5.384-12.516,19.721-8.105,31.907,1.848,5.283,7.178,15.755,16.1,26.531,7.893,9.545,18.554,19.2,32.092,25.5A77.36,77.36,0,0,0,87.8,167.6C128.8,162.015,153.1,137.728,153.1,99.829,119.573,103.787,50.783,54.5,50.783,54.5,36.011,59.179,28.935,72.082,25.46,77.365" transform="translate(-16.175 -54.504)" fill="none"/>
    </clipPath>
    <linearGradient id="linear-gradient-4" x1="-0.669" y1="2.511" x2="-0.621" y2="2.511" xlink:href="#linear-gradient"/>
    <clipPath id="clip-path-7">
      <path id="Trazado_696672" data-name="Trazado 696672" d="M35.874,0c-8.105.094-14.19,4.161-17.28,11.5,31.172-9.958,60.6,11.688,60.6,38.92,0,30.894,13.734,33.738,26.148,41.561s37.013,28.557,37.013,46.034c0,17.578,15.684.3,25.834,40.548s12.406,23.368,31.376,50c18.963,26.515,30.449,61.882,61.211,72.549,30.763,10.768,58.853,22.76,70.032,21.443,11.069-1.325,17.013-14.126,17.013-14.126C274.714,306.5,224.579,243.29,196.175,198.48c-28.5-44.717-80.992-138-119.648-176.211C61.2,7.028,47.14.132,36.464,0Z" transform="translate(-18.594)" fill="none"/>
    </clipPath>
    <linearGradient id="linear-gradient-5" x1="-0.444" y1="2.576" x2="-0.42" y2="2.576" xlink:href="#linear-gradient-2"/>
    <clipPath id="clip-path-8">
      <path id="Trazado_696673" data-name="Trazado 696673" d="M4.183,24.863C-1.564,33.1-.951,42.948,3.365,53.42,5.307,30.349,18.53,25.884,34.325,25.884c18.247,0,47.784,20.422,55.26,40.844,7.594,20.43,17.327,34.05,40.291,39.839,22.87,5.891,48.09,27.941,50.04,43.494s46.141,27.536,55.26,49.283c9.238,21.747,17.029-18.194,17.029-18.194s-34.041-14.228-70.032-53.755C146.181,87.766,79.129,38.483,62.108,24.863c-9.56-7.644-21.565-13.978-33.114-13.978-9.017,0-17.752,3.865-24.812,13.978" transform="translate(0 -10.885)" fill="none"/>
    </clipPath>
    <linearGradient id="linear-gradient-6" x1="0.006" y1="3.564" x2="0.037" y2="3.564" xlink:href="#linear-gradient-2"/>
    <clipPath id="clip-path-9">
      <path id="Trazado_696674" data-name="Trazado 696674" d="M25.46,77.365c-3.388,5.384-12.516,19.721-8.105,31.907,1.848,5.283,7.178,15.755,16.1,26.531,1.533-36.489,14.45-50.2,31.887-44.312,19.985,6.8,43.774,13.519,43.774,28.658,0,12.085-21.832,30.481-43.57,41.156A77.36,77.36,0,0,0,87.8,167.6C128.8,162.015,153.1,137.728,153.1,99.829,119.573,103.787,50.783,54.5,50.783,54.5,36.011,59.179,28.935,72.082,25.46,77.365" transform="translate(-16.175 -54.504)" fill="none"/>
    </clipPath>
    <linearGradient id="linear-gradient-7" x1="-0.884" y1="3.621" x2="-0.828" y2="3.621" xlink:href="#linear-gradient-2"/>
    <clipPath id="clip-path-10">
      <path id="Trazado_696675" data-name="Trazado 696675" d="M41.169,54.568S22.717,75,19.848,85.462c-1.541,5.283-1.234,14.836.613,24.287,1.737,9.451,5.126,18.6,9.945,23.375,7.382,7.309,39.167,28.853,66.235,40.751a106.255,106.255,0,0,0,22.351,7.41,70.285,70.285,0,0,0,45.622-7.722c8.821-4.87,15.181-11.275,17.634-18.085,2.665-7.215,4.308-15.856,1.541-23.679-3.483-9.755-14.041-18.085-38.554-20.329,0-17.267-32.194-26.718-32.194-26.718S118.473,60.669,91.209,43.9a126.977,126.977,0,0,0-50.04,10.667" transform="translate(-18.86 -43.901)" fill="none"/>
    </clipPath>
    <linearGradient id="linear-gradient-8" x1="-0.602" y1="2.45" x2="-0.565" y2="2.45" xlink:href="#linear-gradient"/>
    <clipPath id="clip-path-11">
      <path id="Trazado_696676" data-name="Trazado 696676" d="M41.169,54.568S22.717,75,19.848,85.462c-1.541,5.283-1.234,14.836.613,24.287C37.678,69.606,49.573,69.918,66.185,71.437c18.051,1.628,24.1,5.8,29.843,25.612,5.637,19.814,40.912,13.106,40.912,34.751,0,17.477-20.613,33.637-40.3,42.076a106.255,106.255,0,0,0,22.351,7.41,70.285,70.285,0,0,0,45.622-7.722c8.821-4.87,15.181-11.275,17.634-18.085,2.665-7.215,4.308-15.856,1.541-23.679-3.483-9.755-14.041-18.085-38.554-20.329,0-17.267-32.194-26.718-32.194-26.718S118.473,60.669,91.209,43.9a126.977,126.977,0,0,0-50.04,10.667" transform="translate(-18.86 -43.901)" fill="none"/>
    </clipPath>
    <linearGradient id="linear-gradient-9" x1="-0.878" y1="3.507" x2="-0.831" y2="3.507" xlink:href="#linear-gradient-2"/>
    <clipPath id="clip-path-12">
      <path id="Trazado_696677" data-name="Trazado 696677" d="M46.944,62.8S50.01,81.3,37.4,96.946c8.821-4.87,15.181-11.275,17.634-18.085C57.7,71.646,59.342,63,56.575,55.182a22.621,22.621,0,0,1-9.631,7.62" transform="translate(-37.4 -55.182)" fill="none"/>
    </clipPath>
    <linearGradient id="linear-gradient-10" x1="-6.473" y1="15.843" x2="-6.293" y2="15.843" xlink:href="#linear-gradient-2"/>
    <clipPath id="clip-path-13">
      <path id="Trazado_696678" data-name="Trazado 696678" d="M97.8,246.983A150.5,150.5,0,0,1,91.91,84.5a38.693,38.693,0,0,0-27,25.861,150.474,150.474,0,0,1,6.014-64.781A152.51,152.51,0,0,0,97.8,246.983" transform="translate(-44.585 -45.581)" fill="none"/>
    </clipPath>
    <linearGradient id="linear-gradient-11" x1="-2.662" y1="2.28" x2="-2.595" y2="2.28" xlink:href="#linear-gradient-2"/>
    <clipPath id="clip-path-14">
      <rect id="Rectángulo_344446" data-name="Rectángulo 344446" width="692.359" height="834.211" fill="none"/>
    </clipPath>
  </defs>
  <g id="Grupo_990677" data-name="Grupo 990677" transform="translate(-495 -1812)">
    <rect id="Rectángulo_4928" data-name="Rectángulo 4928" width="925" height="299" transform="translate(495 1812)" fill="#f9dce1" opacity="0.47"/>
    <g id="Enmascarar_grupo_98" data-name="Enmascarar grupo 98" transform="translate(0 -8)" clip-path="url(#clip-path)">
      <g id="Enmascarar_grupo_97" data-name="Enmascarar grupo 97" transform="translate(495 1819.854)" clip-path="url(#clip-path-2)">
        <g id="Grupo_951857" data-name="Grupo 951857" transform="translate(-132.791 -74.84)" opacity="0.07">
          <g id="Grupo_951834" data-name="Grupo 951834" transform="translate(0)">
            <g id="Grupo_951833" data-name="Grupo 951833" clip-path="url(#clip-path-3)">
              <path id="Trazado_699194" data-name="Trazado 699194" d="M0,0,1033.106,3.16l2.9,954.493L2.9,954.493Z" transform="matrix(0.367, -0.93, 0.93, 0.367, -290.003, 725.401)" fill="url(#linear-gradient)"/>
            </g>
          </g>
          <g id="Grupo_951836" data-name="Grupo 951836" transform="translate(471.107 117.04)">
            <g id="Grupo_951835" data-name="Grupo 951835" clip-path="url(#clip-path-4)">
              <rect id="Rectángulo_344436" data-name="Rectángulo 344436" width="221.261" height="605.787" transform="translate(0 0)" fill="url(#linear-gradient-2)"/>
            </g>
          </g>
          <g id="Grupo_951838" data-name="Grupo 951838" transform="translate(184.812 337.493)">
            <g id="Grupo_951837" data-name="Grupo 951837" clip-path="url(#clip-path-5)">
              <rect id="Rectángulo_344437" data-name="Rectángulo 344437" width="387.984" height="500.567" transform="translate(-23.56 0)" fill="url(#linear-gradient-3)"/>
            </g>
          </g>
          <g id="Grupo_951840" data-name="Grupo 951840" transform="translate(127.163 424.683)">
            <g id="Grupo_951839" data-name="Grupo 951839" clip-path="url(#clip-path-6)">
              <path id="Trazado_699195" data-name="Trazado 699195" d="M0,0,164.843.606l.646,176.711L.646,176.711Z" transform="translate(-50.029 88.898) rotate(-62.447)" fill="url(#linear-gradient-4)"/>
            </g>
          </g>
          <g id="Grupo_951842" data-name="Grupo 951842" transform="translate(146.181)">
            <g id="Grupo_951841" data-name="Grupo 951841" clip-path="url(#clip-path-7)">
              <rect id="Rectángulo_344439" data-name="Rectángulo 344439" width="329.226" height="323.873" transform="translate(0)" fill="url(#linear-gradient-5)"/>
            </g>
          </g>
          <g id="Grupo_951844" data-name="Grupo 951844" transform="translate(0 84.813)">
            <g id="Grupo_951843" data-name="Grupo 951843" clip-path="url(#clip-path-8)">
              <rect id="Rectángulo_344440" data-name="Rectángulo 344440" width="253.769" height="210.207" transform="translate(-1.564 0)" fill="url(#linear-gradient-6)"/>
            </g>
          </g>
          <g id="Grupo_951846" data-name="Grupo 951846" transform="translate(127.163 424.683)">
            <g id="Grupo_951845" data-name="Grupo 951845" clip-path="url(#clip-path-9)">
              <rect id="Rectángulo_344441" data-name="Rectángulo 344441" width="140.159" height="113.098" transform="translate(-3.23 0)" fill="url(#linear-gradient-7)"/>
            </g>
          </g>
          <g id="Grupo_951848" data-name="Grupo 951848" transform="translate(148.276 342.067)">
            <g id="Grupo_951847" data-name="Grupo 951847" clip-path="url(#clip-path-10)">
              <path id="Trazado_699196" data-name="Trazado 699196" d="M0,0,209.037.855l.887,217.635L.887,217.635Z" transform="translate(-65.201 98.778) rotate(-57.031)" fill="url(#linear-gradient-8)"/>
            </g>
          </g>
          <g id="Grupo_951850" data-name="Grupo 951850" transform="translate(148.276 342.067)">
            <g id="Grupo_951849" data-name="Grupo 951849" clip-path="url(#clip-path-11)">
              <rect id="Rectángulo_344443" data-name="Rectángulo 344443" width="168.249" height="140.338" transform="translate(-0.554 0)" fill="url(#linear-gradient-9)"/>
            </g>
          </g>
          <g id="Grupo_951852" data-name="Grupo 951852" transform="translate(294.029 429.966)">
            <g id="Grupo_951851" data-name="Grupo 951851" clip-path="url(#clip-path-12)">
              <path id="Trazado_699198" data-name="Trazado 699198" d="M0,0,43.356.031l.018,25.206L.018,25.206Z" transform="matrix(0.079, -0.997, 0.997, 0.079, -3.323, 41.503)" fill="url(#linear-gradient-10)"/>
            </g>
          </g>
          <g id="Grupo_951854" data-name="Grupo 951854" transform="translate(350.519 355.157)">
            <g id="Grupo_951853" data-name="Grupo 951853" clip-path="url(#clip-path-13)">
              <path id="Trazado_699197" data-name="Trazado 699197" d="M0,0,116.487.239l.438,212.311L.438,212.311Z" transform="matrix(0.972, -0.237, 0.237, 0.972, -63.967, 11.287)" fill="url(#linear-gradient-11)"/>
            </g>
          </g>
          <g id="Grupo_951856" data-name="Grupo 951856" transform="translate(0)">
            <g id="Grupo_951855" data-name="Grupo 951855" clip-path="url(#clip-path-14)">
              <path id="Trazado_696679" data-name="Trazado 696679" d="M61.26,41.021c2.068-1.636,4.3-3.015,6.494-4.527,2.343-1.2,4.67-2.47,7.083-3.576a62.969,62.969,0,0,1,15.322-4.6,52.187,52.187,0,0,1,16.109-.156c5.3.88,10.629,2.454,14.874,5.719a62.616,62.616,0,0,0-15.2-1.823,97.177,97.177,0,0,0-14.969,1.27,149.412,149.412,0,0,0-14.812,3.249Z" transform="translate(420.35 187.496)" fill="#e08172"/>
              <path id="Trazado_696680" data-name="Trazado 696680" d="M33.623,51.381c9.41-3.156,18.6-5.672,27.2-9.514a82.211,82.211,0,0,0,12.437-6.436,43.727,43.727,0,0,0,10.668-9.35c-1.171,4.9-4.544,9.031-8.247,12.428a45.134,45.134,0,0,1-12.807,8.018,62.994,62.994,0,0,1-14.4,4.169l-7.406.818c-2.5-.047-4.961.07-7.445-.132" transform="translate(230.712 177.136)" fill="#e08172"/>
              <path id="Trazado_696681" data-name="Trazado 696681" d="M29.627,43.108c7.083-3.958,13.86-7.34,20.181-11.508A83.977,83.977,0,0,0,67.261,16.842c-.747,4.028-2.972,7.613-5.5,10.815a39.749,39.749,0,0,1-9.135,8.181,45.229,45.229,0,0,1-11.054,5.189,42.089,42.089,0,0,1-11.942,2.08" transform="translate(203.293 114.387)" fill="#e08172"/>
              <path id="Trazado_696682" data-name="Trazado 696682" d="M24.8,29.923c4.112-5.548,9.623-9.6,15.385-12.973,5.865-3.226,12.083-5.9,18.97-6.81A104.225,104.225,0,0,1,42.732,21.352c-2.885,1.551-5.7,3.187-8.711,4.558A88.156,88.156,0,0,1,24.8,29.923" transform="translate(170.164 68.869)" fill="#e08172"/>
              <path id="Trazado_696683" data-name="Trazado 696683" d="M9.94,55.884c4.135-2.33,8.231-4.247,11.942-6.779a78.045,78.045,0,0,0,10.511-8.049A87.962,87.962,0,0,0,49.209,20.213,34.027,34.027,0,0,1,44.767,33.6a42.2,42.2,0,0,1-8.923,11.212A42.905,42.905,0,0,1,9.94,55.884" transform="translate(68.206 137.282)" fill="#e08172"/>
              <path id="Trazado_696684" data-name="Trazado 696684" d="M19.6,70.24c2.909-3.514,5.967-6.592,8.671-10,2.728-3.358,5.425-6.693,7.885-10.215,5.118-6.927,9.56-14.22,14.2-21.942a42.287,42.287,0,0,1-3.4,13.067A55.875,55.875,0,0,1,40.32,52.982C34.989,60.3,27.937,66.609,19.6,70.24" transform="translate(134.463 190.706)" fill="#e08172"/>
              <path id="Trazado_696685" data-name="Trazado 696685" d="M29.627,70.136c1.1-3.358,2.555-6.358,3.829-9.444l3.978-9.054c2.752-5.984,5.322-11.953,8.554-18.147A32.235,32.235,0,0,1,45.3,43.854,46.546,46.546,0,0,1,42.111,53.7c-2.893,6.249-6.879,12.14-12.484,16.433" transform="translate(203.293 227.463)" fill="#e08172"/>
              <path id="Trazado_696686" data-name="Trazado 696686" d="M20.848,85.9c-.645-7.87,1.918-15.934,6.384-22.557a38.653,38.653,0,0,1,8.09-8.8,30.731,30.731,0,0,1,10.393-5.774,132.837,132.837,0,0,0-14.23,17.407A95.748,95.748,0,0,0,25.8,75.6c-1.832,3.257-3.16,6.74-4.953,10.3" transform="translate(142.377 331.201)" fill="#e08172"/>
              <path id="Trazado_696687" data-name="Trazado 696687" d="M33.592,91.589c2.193-3.07,4.552-5.7,6.6-8.579,2.068-2.836,4.049-5.665,5.865-8.594a147.312,147.312,0,0,0,9.89-18.7,27.489,27.489,0,0,1-1.006,11.1A37.014,37.014,0,0,1,50.4,77.1c-4.057,6.319-9.827,11.7-16.808,14.493" transform="translate(230.499 378.41)" fill="#e08172"/>
              <path id="Trazado_696688" data-name="Trazado 696688" d="M26.672,98.721c2.649-2.906,5.244-5.485,7.539-8.353,2.233-2.906,4.544-5.68,6.572-8.719C45.021,75.7,48.8,69.462,53.174,63.042a37.34,37.34,0,0,1-2.7,11.259,48.865,48.865,0,0,1-5.487,10.254c-4.5,6.288-10.723,11.914-18.31,14.165" transform="translate(183.016 428.167)" fill="#e08172"/>
              <path id="Trazado_696689" data-name="Trazado 696689" d="M17.743,96.532c-.5-7.55,1.785-14.89,4.8-21.583,3.223-6.631,7.225-12.942,12.878-17.983a171.183,171.183,0,0,1-8.231,20.111c-3.1,6.467-6.038,12.771-9.442,19.456" transform="translate(121.268 386.893)" fill="#e08172"/>
              <path id="Trazado_696690" data-name="Trazado 696690" d="M46.422,111.839l14.159-7.168c4.6-2.5,9.269-4.808,13.805-7.387,9.206-4.94,18.2-10.192,27.744-15.116A77.083,77.083,0,0,1,90.322,93.006a104.4,104.4,0,0,1-13.467,8.727c-9.418,5.049-19.678,9-30.433,10.106" transform="translate(318.535 558.066)" fill="#e08172"/>
              <path id="Trazado_696691" data-name="Trazado 696691" d="M145.882,69.587c-3.608,8.15-9.536,15.2-16.006,21.373a132.52,132.52,0,0,1-21.415,16.254A165.606,165.606,0,0,1,59,127.48c16.085-7.675,31.871-15.334,46.746-24.575,14.8-9.249,29.238-19.316,40.134-33.318" transform="translate(404.856 472.619)" fill="#e08172"/>
            </g>
          </g>
        </g>
      </g>
    </g>
  </g>
</svg>
