<svg xmlns="http://www.w3.org/2000/svg" width="56.3" height="44.751" viewBox="0 0 56.3 44.751">
  <g id="camara-de-video" transform="translate(0 -52.553)">
    <g id="Grupo_952105" data-name="Grupo 952105" transform="translate(0.824 53.377)">
      <path id="Trazado_677959" data-name="Trazado 677959" d="M81.94,97.578a2.978,2.978,0,0,0-1.191,5.707l2.38,1.039a.366.366,0,0,1,.22.336v9.318H101.4v-16.4Z" transform="translate(-71.11 -93.455)" fill="#cac5cb"/>
      <path id="Trazado_677960" data-name="Trazado 677960" d="M86.593,104.433v-.526A1.318,1.318,0,0,0,85.8,102.7l-1.75-.764a3.036,3.036,0,0,1-1.844-2.65,2.965,2.965,0,0,1,.467-1.708H82a3.02,3.02,0,0,0-3.025,2.683,2.978,2.978,0,0,0,1.772,3.025l2.38,1.039a.366.366,0,0,1,.22.336v9.318H101.4V105.3H87.463A.87.87,0,0,1,86.593,104.433Z" transform="translate(-71.111 -93.454)" fill="#b3adb5"/>
      <path id="Trazado_677961" data-name="Trazado 677961" d="M267.839,99.912H271.2v13.9h-3.365Z" transform="translate(-239.234 -95.532)" fill="#a59ca6"/>
      <path id="Trazado_677962" data-name="Trazado 677962" d="M276.687,234.322l-.915.668-2.137,1.7h-9.853L262.5,247.179l11.137-.055,2.137,1.7.642.715h1.773V234.322Z" transform="translate(-234.479 -215.174)" fill="#cac5cb"/>
      <path id="Trazado_677963" data-name="Trazado 677963" d="M278.185,234.322h-1.5l-.916.668-1.648,1.307v6.761a1.526,1.526,0,0,1-1.518,1.526l-1.314.007a1,1,0,0,1-1.01-1v-6.9h-6.5L262.5,247.179l11.137-.055,2.137,1.7.642.715h1.773v-2.548H277l-.491-.426h1.677V234.322Z" transform="translate(-234.479 -215.174)" fill="#b3adb5"/>
      <path id="Trazado_677964" data-name="Trazado 677964" d="M389.2,243.315h-4.355a1.537,1.537,0,0,1-1.537-1.537V227.95a1.537,1.537,0,0,1,1.537-1.537H389.2Z" transform="translate(-342.02 -208.134)" fill="#cac5cb"/>
      <path id="Trazado_677965" data-name="Trazado 677965" d="M61.845,402.538H33.378v3.446a2.027,2.027,0,0,0,2.027,2.027H59.818a2.027,2.027,0,0,0,2.027-2.027Z" transform="translate(-30.535 -364.908)" fill="#cac5cb"/>
      <g id="Grupo_952104" data-name="Grupo 952104" transform="translate(0 0)">
        <path id="Trazado_677966" data-name="Trazado 677966" d="M39.353,213.121H9.8a2.3,2.3,0,0,1-2.3-2.3V190.19a2.3,2.3,0,0,1,2.3-2.3H39.353a2.3,2.3,0,0,1,2.3,2.3v20.631A2.3,2.3,0,0,1,39.353,213.121Z" transform="translate(-7.5 -173.843)" fill="#cac5cb"/>
        <path id="Trazado_677967" data-name="Trazado 677967" d="M12.644,210.126a2.3,2.3,0,0,1-2.3-2.3V189.648a2.3,2.3,0,0,1,.818-1.758H9.8a2.3,2.3,0,0,0-2.3,2.3v20.631a2.3,2.3,0,0,0,2.3,2.3H39.353a2.3,2.3,0,0,0,2.3-2.3v-.7Z" transform="translate(-7.5 -173.844)" fill="#b3adb5"/>
        <g id="Grupo_952103" data-name="Grupo 952103" transform="translate(3.684 17.532)">
          <path id="Trazado_677968" data-name="Trazado 677968" d="M57.395,229.785H42.387a1.354,1.354,0,0,1-1.355-1.354v-7.458a1.355,1.355,0,0,1,1.355-1.355H57.395a1.355,1.355,0,0,1,1.355,1.355v7.458A1.355,1.355,0,0,1,57.395,229.785Z" transform="translate(-41.032 -219.618)" fill="#f8f7f8"/>
          <circle id="Elipse_7672" data-name="Elipse 7672" cx="1.673" cy="1.673" r="1.673" transform="translate(0.778 14.212)" fill="#f8f7f8"/>
          <circle id="Elipse_7673" data-name="Elipse 7673" cx="1.673" cy="1.673" r="1.673" transform="translate(7.411 14.212)" fill="#f8f7f8"/>
        </g>
        <path id="Trazado_677969" data-name="Trazado 677969" d="M404.935,226.711v16.305c0,.1,0,.2.011.3h3.5v-16.9h-3.5C404.94,226.512,404.935,226.611,404.935,226.711Z" transform="translate(-361.267 -208.134)" fill="#b3adb5"/>
        <path id="Trazado_677970" data-name="Trazado 677970" d="M422.665,226.044h5.807a.8.8,0,0,0,.8-.8V221.6a.8.8,0,0,0-.265-.594l-.811-.727a.955.955,0,0,1-.317-.71v-1.55a.954.954,0,0,1,.267-.663l.9-.935a.8.8,0,0,0,.223-.554v-1.419a.8.8,0,0,0-.223-.554l-.9-.935a.955.955,0,0,1-.267-.663v-1.55a.954.954,0,0,1,.317-.71l.811-.727a.8.8,0,0,0,.265-.594v-3.643a.8.8,0,0,0-.8-.8h-5.807a2.73,2.73,0,0,0-2.73,2.73v16.305A2.73,2.73,0,0,0,422.665,226.044Z" transform="translate(-374.619 -188.431)" fill="#e1dee2"/>
        <path id="Trazado_677971" data-name="Trazado 677971" d="M425.337,224.244a2.73,2.73,0,0,1-2.731-2.73V205.208a2.724,2.724,0,0,1,.163-.93h-.105a2.73,2.73,0,0,0-2.73,2.73v16.305a2.73,2.73,0,0,0,2.73,2.73h5.807a.8.8,0,0,0,.8-.8v-1h-3.932Z" transform="translate(-374.618 -188.431)" fill="#cac5cb"/>
        <path id="Trazado_677972" data-name="Trazado 677972" d="M277.3,72.629l3.294,1.332a1.83,1.83,0,0,0,.685.133h14.947a3.307,3.307,0,0,0,0-6.614H281.279a1.83,1.83,0,0,0-.685.133L277.3,68.945,274.182,70.3v1.089Z" transform="translate(-244.881 -66.664)" fill="#b3adb5"/>
        <path id="Trazado_677973" data-name="Trazado 677973" d="M296.948,90.214H282a1.83,1.83,0,0,1-.685-.133l-3.294-1.332-2.484-.992-1.356.587v1.089l3.117,1.244,3.294,1.332a1.827,1.827,0,0,0,.685.133h14.947a3.306,3.306,0,0,0,3.3-3.169A3.3,3.3,0,0,1,296.948,90.214Z" transform="translate(-244.881 -84.714)" fill="#a59ca6"/>
        <path id="Trazado_677974" data-name="Trazado 677974" d="M226.229,76.678h-3.777a2.46,2.46,0,0,1-2.46-2.46v-.967a2.46,2.46,0,0,1,2.46-2.46h3.777Z" transform="translate(-196.645 -69.612)" fill="#a59ca6"/>
        <path id="Trazado_677975" data-name="Trazado 677975" d="M265.885,68.3a2.131,2.131,0,0,1-2.131-2.131V62.183a2.131,2.131,0,1,1,4.263,0v3.983A2.131,2.131,0,0,1,265.885,68.3Z" transform="translate(-235.598 -60.052)" fill="#cac5cb"/>
        <path id="Trazado_677976" data-name="Trazado 677976" d="M265.3,66.028V62.044a2.133,2.133,0,0,1,1.181-1.907,2.135,2.135,0,0,0-2.729,2.047v3.983a2.132,2.132,0,0,0,3.086,1.906A2.135,2.135,0,0,1,265.3,66.028Z" transform="translate(-235.598 -60.053)" fill="#b3adb5"/>
      </g>
    </g>
    <g id="Grupo_952106" data-name="Grupo 952106" transform="translate(0 52.553)">
      <path id="Trazado_677977" data-name="Trazado 677977" d="M50.72,212.117H35.711a2.181,2.181,0,0,0-2.178,2.179v7.458a2.181,2.181,0,0,0,2.178,2.178H50.72a2.181,2.181,0,0,0,2.179-2.178V214.3A2.181,2.181,0,0,0,50.72,212.117Zm.53,9.636a.531.531,0,0,1-.53.53H35.711a.531.531,0,0,1-.53-.53V214.3a.531.531,0,0,1,.53-.53H50.72a.531.531,0,0,1,.53.53v7.458Z" transform="translate(-29.849 -194.585)"/>
      <path id="Trazado_677978" data-name="Trazado 677978" d="M40.614,343.962a2.5,2.5,0,1,0,2.5-2.5A2.5,2.5,0,0,0,40.614,343.962Zm3.345,0a.849.849,0,1,1-.849-.849A.85.85,0,0,1,43.959,343.962Z" transform="translate(-36.152 -309.721)"/>
      <path id="Trazado_677979" data-name="Trazado 677979" d="M100.982,343.962a2.5,2.5,0,1,0,2.5-2.5A2.5,2.5,0,0,0,100.982,343.962Zm3.345,0a.849.849,0,1,1-.849-.849A.85.85,0,0,1,104.327,343.962Z" transform="translate(-89.887 -309.721)"/>
      <path id="Trazado_677980" data-name="Trazado 677980" d="M167.256,356.688H166a.824.824,0,1,0,0,1.648h1.253a.824.824,0,1,0,0-1.648Z" transform="translate(-147.03 -323.271)"/>
      <path id="Trazado_677981" data-name="Trazado 677981" d="M207.644,357.512a.824.824,0,0,0,.824.824h8.048a.824.824,0,1,0,0-1.648h-8.048A.824.824,0,0,0,207.644,357.512Z" transform="translate(-184.829 -323.271)"/>
      <path id="Trazado_677982" data-name="Trazado 677982" d="M231.4,233.484h5.254a.824.824,0,1,0,0-1.648H231.4a.824.824,0,1,0,0,1.648Z" transform="translate(-205.243 -212.137)"/>
      <path id="Trazado_677983" data-name="Trazado 677983" d="M231.4,271.491h5.254a.824.824,0,0,0,0-1.648H231.4a.824.824,0,0,0,0,1.648Z" transform="translate(-205.243 -245.968)"/>
      <path id="Trazado_677984" data-name="Trazado 677984" d="M54.678,68.4H52.953a.824.824,0,0,0,0,1.648h1.7v3.605l-.8.72a1.781,1.781,0,0,0-.591,1.324v1.55a1.77,1.77,0,0,0,.5,1.235l.894.927v1.4l-.895.928a1.77,1.77,0,0,0-.5,1.234v1.55a1.78,1.78,0,0,0,.591,1.324l.8.72v3.6H48.87a1.909,1.909,0,0,1-1.906-1.906V71.954a1.909,1.909,0,0,1,1.906-1.906h.571a.824.824,0,0,0,0-1.648H48.87A3.56,3.56,0,0,0,45.5,70.832H43.653a2.364,2.364,0,0,0-2.32,1.93l-1.642,1.3H35.8v-4.34a3.13,3.13,0,0,0-2.184-2.98V61.055a2.949,2.949,0,0,0,.274-.562l2.336.944a2.639,2.639,0,0,0,.994.193H52.169a4.131,4.131,0,0,0,0-8.262H50.416a.824.824,0,1,0,0,1.648h1.753a2.483,2.483,0,0,1,0,4.966H37.222a1,1,0,0,1-.377-.073l-2.779-1.123V56.214l2.779-1.123a1,1,0,0,1,.377-.073H46.9a.824.824,0,0,0,0-1.648H37.222a2.64,2.64,0,0,0-.994.193l-2.336.944a2.954,2.954,0,0,0-5.142-.774H26.631a3.288,3.288,0,0,0-3.266,2.943H11.654a3.8,3.8,0,0,0-1.521,7.287l2.106.919V66.6H3.125A3.128,3.128,0,0,0,0,69.724V83.365a.824.824,0,0,0,1.648,0V69.724a1.478,1.478,0,0,1,1.477-1.477H32.677a1.478,1.478,0,0,1,1.477,1.477V90.355a1.478,1.478,0,0,1-1.477,1.477H3.125a1.478,1.478,0,0,1-1.477-1.477V86.877a.824.824,0,1,0-1.648,0v3.478a3.129,3.129,0,0,0,2.843,3.112v.987A2.854,2.854,0,0,0,5.694,97.3H30.107a2.854,2.854,0,0,0,2.851-2.851v-.987A3.129,3.129,0,0,0,35.8,90.355V86.4l3.911-.231,1.62,1.285a2.364,2.364,0,0,0,2.32,1.93H45.5a3.56,3.56,0,0,0,3.372,2.432h5.807A1.624,1.624,0,0,0,56.3,90.192V86.549a1.624,1.624,0,0,0-.539-1.207l-.811-.728a.13.13,0,0,1-.043-.1v-1.55a.129.129,0,0,1,.036-.09l.9-.935a1.614,1.614,0,0,0,.454-1.126V79.4a1.614,1.614,0,0,0-.454-1.126l-.9-.935a.13.13,0,0,1-.037-.091V75.7a.131.131,0,0,1,.043-.1l.811-.727a1.624,1.624,0,0,0,.539-1.207V70.022A1.624,1.624,0,0,0,54.678,68.4ZM30.253,62.32a2.953,2.953,0,0,0,1.717,0V66.6H30.253V62.32ZM29.8,55.508a1.307,1.307,0,1,1,2.615,0v3.983A1.309,1.309,0,0,1,31.111,60.8h0A1.309,1.309,0,0,1,29.8,59.492ZM25,57.017a1.637,1.637,0,0,1,1.635-1.635h1.525v4.238H26.631A1.637,1.637,0,0,1,25,57.984ZM13.173,63.491l-2.38-1.039a2.154,2.154,0,0,1,.861-4.128H23.365a3.288,3.288,0,0,0,3.266,2.943H28.6V66.6H13.887V64.582a1.19,1.19,0,0,0-.714-1.091ZM31.311,94.453a1.2,1.2,0,0,1-1.2,1.2H5.694a1.2,1.2,0,0,1-1.2-1.2v-.974H31.311Zm8.62-9.95-4.128.244V75.712h4.177a.823.823,0,0,0,.512-.178l.8-.635V85.316l-.8-.635A.825.825,0,0,0,39.93,84.5Zm3.01,2.518V73.193a.714.714,0,0,1,.713-.713h1.663V87.734H43.653A.714.714,0,0,1,42.94,87.021Z" transform="translate(0 -52.553)"/>
    </g>
  </g>
</svg>
