<svg id="Grupo_82194" data-name="Grupo 82194" xmlns="http://www.w3.org/2000/svg" xmlns:xlink="http://www.w3.org/1999/xlink" width="81.282" height="93.228" viewBox="0 0 81.282 93.228">
  <defs>
    <clipPath id="clip-path">
      <rect id="Rectángulo_34575" data-name="Rectángulo 34575" width="81.282" height="93.228" fill="none"/>
    </clipPath>
  </defs>
  <g id="Grupo_82194-2" data-name="Grupo 82194" clip-path="url(#clip-path)">
    <path id="Trazado_114040" data-name="Trazado 114040" d="M77.955,7.6c-1.61,0-3.166,1.436-4.267,3.94-2.147,4.878-4.587,15.6-5.922,21.921,1.143,5.245.006,17.633-1.868,20.911a5.926,5.926,0,0,1-5.182,3.181,5.372,5.372,0,0,1-4.45-2.292,18.109,18.109,0,0,1-1.621-5.611A16.36,16.36,0,0,1,53.26,54.1a6.348,6.348,0,0,1-5.549,3.408h0a5.749,5.749,0,0,1-4.763-2.453c-1.657-2.414-3.468-15.147-2.717-22.84-.92-3.479-1.664-7.5-2.395-11.455-.81-4.382-1.647-8.912-2.692-12.464-1.353-4.6-3.831-6.239-5.7-6.239a3.653,3.653,0,0,0-2.652,1.192,7.841,7.841,0,0,0-1.776,5.773c.085,2.539.675,7.889,1.359,14.083,2.679,24.275,3.5,35.934.9,36.534-3.049.705-7.975-2.558-14.641-9.7A7.268,7.268,0,0,0,7.36,47.881c-2.243,0-4.119.843-4.9,2.2-.655,1.141-.5,2.61.459,4.249l.578.993C17.136,78.829,28.052,91.394,35.943,92.67a62.889,62.889,0,0,0,10.015.8c15.209,0,31.916-5.742,32.658-18.35.592-10.068,1.593-32.885,2.254-47.983.308-7.034.552-12.591.645-14.35a5.594,5.594,0,0,0-1.347-4.155A3.073,3.073,0,0,0,77.955,7.6M43.244,83.324a.455.455,0,0,1-.449.388.511.511,0,0,1-.069,0,.456.456,0,0,1-.382-.517A19.147,19.147,0,0,0,34.38,64.9a.455.455,0,1,1,.514-.751,20.074,20.074,0,0,1,8.35,19.175M66.456,61.309a59.589,59.589,0,0,1-13.389,2.94q-1.157.084-2.282.084a23.664,23.664,0,0,1-11.2-2.57.455.455,0,0,1,.43-.8A23.85,23.85,0,0,0,53,63.341a58.786,58.786,0,0,0,13.183-2.9.455.455,0,0,1,.273.868" transform="translate(-1.152 -1.149)" fill="#ffdcad"/>
    <path id="Trazado_114041" data-name="Trazado 114041" d="M76.8,5.544c-1.168,0-3.383.582-5.1,4.483-2.043,4.644-4.288,14.192-5.67,20.619-.032-.056-.063-.117-.1-.166-1.414-2.061-5.227-3.8-8.327-3.8a4.863,4.863,0,0,0-3.435,1.135,3.263,3.263,0,0,0-.635.935,2.811,2.811,0,0,0-.146-.252c-1.518-2.211-5.611-4.079-8.939-4.079a5.205,5.205,0,0,0-3.674,1.212,6.105,6.105,0,0,0-1.349,3.079c-.678-2.913-1.269-6.109-1.851-9.261-.814-4.4-1.656-8.958-2.713-12.555C33.595,2.577,31.138,0,28.293,0a4.6,4.6,0,0,0-3.306,1.469,8.725,8.725,0,0,0-2.031,6.436c.086,2.574.678,7.94,1.364,14.153.846,7.664,1.8,16.351,2.241,23.4.7,11.262-.413,12.1-.643,12.15a2.956,2.956,0,0,1-.666.072c-1.931,0-5.772-1.65-13.106-9.507a8.076,8.076,0,0,0-5.938-2.348c-2.567,0-4.747,1.018-5.687,2.656-.577,1-.965,2.714.463,5.16l.576.992c5.137,8.854,20.769,35.8,33.086,37.789a63.8,63.8,0,0,0,10.162.809c15.621,0,32.789-6.01,33.565-19.207.592-10.075,1.593-32.9,2.255-48,.308-7.033.552-12.587.644-14.342a6.5,6.5,0,0,0-1.6-4.829A3.969,3.969,0,0,0,76.8,5.544m3.561,6.091c-.093,1.759-.337,7.315-.645,14.35-.662,15.1-1.663,37.915-2.255,47.983-.741,12.608-17.449,18.35-32.657,18.35a62.9,62.9,0,0,1-10.016-.8C26.9,90.245,15.984,77.679,2.346,54.173l-.577-.993c-.956-1.639-1.115-3.108-.46-4.249.779-1.356,2.656-2.2,4.9-2.2a7.265,7.265,0,0,1,5.272,2.059c6.667,7.143,11.593,10.406,14.642,9.7,2.6-.6,1.78-12.259-.9-36.534-.684-6.194-1.274-11.544-1.358-14.083A7.845,7.845,0,0,1,25.64,2.1,3.654,3.654,0,0,1,28.293.91c1.868,0,4.345,1.639,5.7,6.239,1.045,3.552,1.882,8.082,2.691,12.464.731,3.955,1.475,7.976,2.4,11.455-.751,7.692,1.06,20.426,2.717,22.84a5.75,5.75,0,0,0,4.763,2.453h0a6.348,6.348,0,0,0,5.55-3.408,16.366,16.366,0,0,0,1.385-4.45,18.125,18.125,0,0,0,1.621,5.611,5.373,5.373,0,0,0,4.45,2.292h0a5.925,5.925,0,0,0,5.181-3.181c1.874-3.278,3.011-15.666,1.868-20.911,1.335-6.326,3.776-17.043,5.923-21.921,1.1-2.5,2.657-3.94,4.267-3.94A3.074,3.074,0,0,1,79.016,7.48a5.6,5.6,0,0,1,1.347,4.155M44.453,25.326c3.016,0,6.843,1.721,8.189,3.683,1.975,2.878,1.048,19.344-1.323,23.491a5.461,5.461,0,0,1-4.76,2.95,4.84,4.84,0,0,1-4.013-2.058c-1.875-2.732-4.446-23.942-1.139-27.107a4.336,4.336,0,0,1,3.046-.96m13.156,2.262c2.791,0,6.332,1.592,7.577,3.406,1.83,2.667.968,17.933-1.23,21.779A5.039,5.039,0,0,1,59.563,55.5a4.462,4.462,0,0,1-3.7-1.9c-.639-.932-1.366-4.185-1.878-8.068.752-5.48.9-12.235.011-15.563a3.606,3.606,0,0,1,.805-1.5,4,4,0,0,1,2.806-.882" transform="translate(0 0)" fill="#d79054"/>
    <path id="Trazado_114042" data-name="Trazado 114042" d="M122.166,80.373c.511,3.883,1.238,7.136,1.878,8.068a4.462,4.462,0,0,0,3.7,1.9,5.038,5.038,0,0,0,4.392-2.723c2.2-3.846,3.061-19.112,1.23-21.779-1.245-1.814-4.786-3.406-7.577-3.406a4,4,0,0,0-2.806.882,3.6,3.6,0,0,0-.805,1.5c.893,3.328.74,10.084-.011,15.563" transform="translate(-68.18 -34.841)" fill="#ffdcad"/>
    <path id="Trazado_114043" data-name="Trazado 114043" d="M92.824,85.378a4.84,4.84,0,0,0,4.013,2.058h0a5.462,5.462,0,0,0,4.76-2.95c2.371-4.148,3.3-20.614,1.323-23.492-1.347-1.962-5.173-3.683-8.189-3.683a4.335,4.335,0,0,0-3.046.96c-3.307,3.164-.736,24.374,1.139,27.107" transform="translate(-50.279 -31.985)" fill="#ffdcad"/>
    <path id="Trazado_114044" data-name="Trazado 114044" d="M75.454,142.463a.455.455,0,1,0-.514.751A19.147,19.147,0,0,1,82.9,161.5a.455.455,0,0,0,.382.517.5.5,0,0,0,.068,0,.455.455,0,0,0,.449-.388,20.074,20.074,0,0,0-8.35-19.175" transform="translate(-41.713 -79.463)" fill="#d79054"/>
    <path id="Trazado_114045" data-name="Trazado 114045" d="M113.266,134.145a58.791,58.791,0,0,1-13.183,2.9A23.852,23.852,0,0,1,87.1,134.664a.455.455,0,0,0-.43.8,23.666,23.666,0,0,0,11.2,2.57q1.124,0,2.282-.084a59.589,59.589,0,0,0,13.389-2.94.455.455,0,1,0-.273-.868" transform="translate(-48.236 -74.853)" fill="#d79054"/>
    <path id="Trazado_114046" data-name="Trazado 114046" d="M94.732,57.311a4.336,4.336,0,0,0-3.046.96c-3.307,3.165-.737,24.375,1.139,27.107a4.839,4.839,0,0,0,4.013,2.058h0a5.1,5.1,0,0,0,1.683-.294c-.068-.068-.136-.137-.2-.206-3.536-3.724-4.388-9.232-4.429-14.367a62.147,62.147,0,0,1,1.775-15.2,8.889,8.889,0,0,0-.932-.055" transform="translate(-50.279 -31.985)" fill="#fcca92"/>
    <path id="Trazado_114047" data-name="Trazado 114047" d="M127.7,62.647a9.29,9.29,0,0,0-1.907-.218,4,4,0,0,0-2.806.882,3.6,3.6,0,0,0-.805,1.5c.894,3.328.74,10.083-.011,15.563.512,3.883,1.238,7.136,1.878,8.068a4.462,4.462,0,0,0,3.7,1.9,4.707,4.707,0,0,0,2.486-.7c-.887-1.682-2.11-3.294-2.86-5.043a20.228,20.228,0,0,1-1.159-4.313,40.392,40.392,0,0,1-.9-9.5,16.962,16.962,0,0,1,2.385-8.129" transform="translate(-68.18 -34.841)" fill="#fcca92"/>
    <path id="Trazado_114048" data-name="Trazado 114048" d="M49.25,148.291c-.95-.748-2.05-1.3-2.955-2.1a3.687,3.687,0,0,1-1.43-3.167,10.184,10.184,0,0,1,1.059-2.37c1-2.272.114-4.876-.6-7.254s-1.152-5.233.476-7.106c1.823-2.1,5.092-1.758,7.857-1.487a24.266,24.266,0,0,0,11.569-1.236,6.846,6.846,0,0,0,2.986-2.071,3.221,3.221,0,0,0,.379-3.451,8.132,8.132,0,0,0-1.557-1.6,7.353,7.353,0,0,1-1.842-2.982,5.745,5.745,0,0,1-4.477,2.161,5.372,5.372,0,0,1-4.45-2.292,18.109,18.109,0,0,1-1.621-5.611,16.366,16.366,0,0,1-1.385,4.45,6.348,6.348,0,0,1-5.549,3.408h0a5.749,5.749,0,0,1-4.763-2.453,13.754,13.754,0,0,1-1.364-4.1c-.5,2.415-.872,4.9-2.181,6.98s-3.588,4.234-2.625,6.482c-1.244.384-2.3-1.419-3.583-1.217-1.31.205-1.389,2.107-.85,3.319.826,1.857,2.245,3.385,3.24,5.158s1.524,4.056.471,5.795c-1.242,2.052-4.094,2.43-6.454,2-7.18-1.3-12.333-7.578-16.024-13.872A89.251,89.251,0,0,1,5.7,106.129a4.727,4.727,0,0,0-3.239,2.032c-.655,1.141-.5,2.61.459,4.249l.578.993c13.637,23.506,24.553,36.072,32.445,37.348a62.889,62.889,0,0,0,10.015.8,60.794,60.794,0,0,0,6.222-.323,34.066,34.066,0,0,0-2.931-2.933M39.4,119.226a.455.455,0,0,1,.616-.186A23.846,23.846,0,0,0,53,121.421a58.761,58.761,0,0,0,13.183-2.9.455.455,0,0,1,.273.868,59.588,59.588,0,0,1-13.389,2.94q-1.157.084-2.282.084a23.664,23.664,0,0,1-11.2-2.57.455.455,0,0,1-.186-.616M43.244,141.4a.454.454,0,0,1-.449.387.507.507,0,0,1-.069,0,.455.455,0,0,1-.382-.518A19.146,19.146,0,0,0,34.38,122.98a.455.455,0,1,1,.514-.751,20.074,20.074,0,0,1,8.35,19.175" transform="translate(-1.152 -59.23)" fill="#fcca92"/>
    <path id="Trazado_114049" data-name="Trazado 114049" d="M144.31,14.633a2.635,2.635,0,0,0-.373-.03c-1.61,0-3.166,1.436-4.267,3.94-2.147,4.878-4.587,15.6-5.923,21.921,1.143,5.245.006,17.633-1.867,20.911a5.925,5.925,0,0,1-5.181,3.181,5.372,5.372,0,0,1-4.45-2.292,18.11,18.11,0,0,1-1.621-5.611q-.158.789-.334,1.491a16.6,16.6,0,0,0,1.851,5.146,19.338,19.338,0,0,0,4.839,5.244q.2.156.4.309c1.629-.429,3.229-.911,4.785-1.4a.455.455,0,0,1,.273.868c-1.332.419-2.7.829-4.086,1.209a6.563,6.563,0,0,0,1.975.874,3.546,3.546,0,0,0,3.53-.965,5.38,5.38,0,0,0,.856-3.307l.28-7.864a37.215,37.215,0,0,1,.392-4.9c.624-3.674,2.333-7.069,3.309-10.666,1.252-4.613,1.274-9.453,1.662-14.217s1.211-9.66,3.825-13.662c.04-.061.084-.123.131-.184" transform="translate(-67.135 -8.15)" fill="#fcca92"/>
    <path id="Trazado_114050" data-name="Trazado 114050" d="M56.253,59.66c-.089.021-.185.026-.278.04.087,0,.174-.01.26-.022,1.79-.239,2.849-2.1,3.45-3.805,2.848-8.056,1.7-16.906.527-25.369q-1.04-7.47-2.08-14.941c-.622-4.468-1.2-9.218.008-13.471a3.7,3.7,0,0,0-2.37,1.177A7.842,7.842,0,0,0,54,9.043c.084,2.54.675,7.889,1.358,14.083,2.679,24.275,3.5,35.934.9,36.534" transform="translate(-30.131 -1.168)" fill="#fcca92"/>
    <path id="Trazado_114051" data-name="Trazado 114051" d="M18.667,111.2a5.555,5.555,0,0,0-3.685-1.359.293.293,0,0,0-.077.572,8.723,8.723,0,0,1,3.5,1.716c.734.608,1.349,1.666,2.32,1.87a.188.188,0,0,0,.227-.228c-.149-1.077-1.461-1.971-2.281-2.572" transform="translate(-8.201 -61.294)" fill="#fff9df"/>
    <path id="Trazado_114052" data-name="Trazado 114052" d="M32.059,122.76a1.865,1.865,0,0,0-.778-.829,7.943,7.943,0,0,1-.945-.811.321.321,0,0,0-.5.388,5.238,5.238,0,0,0,.825,1.046,1.478,1.478,0,0,0,1.14.548c.159-.02.327-.159.26-.342" transform="translate(-16.623 -67.545)" fill="#fff9df"/>
    <path id="Trazado_114053" data-name="Trazado 114053" d="M66.662,5.9c-.167-.114-.3.123-.2.257a24.659,24.659,0,0,1,2.2,3.068c.639,1.135.846,2.42,1.442,3.548a.272.272,0,0,0,.5-.136c.113-2.415-2.043-5.433-3.951-6.736" transform="translate(-37.073 -3.275)" fill="#fff9df"/>
    <path id="Trazado_114054" data-name="Trazado 114054" d="M116.6,81.08a.214.214,0,0,0-.4.107c.358,3.5-.868,6.786-.675,10.247.025.438.7.575.8.108.713-3.331,1.724-7.2.277-10.462" transform="translate(-64.465 -45.192)" fill="#fff9df"/>
    <path id="Trazado_114055" data-name="Trazado 114055" d="M113.478,107.688a5.192,5.192,0,0,0-.811,3.427c.034.2.3.186.39.051a8.185,8.185,0,0,0,1.136-3.176.393.393,0,0,0-.715-.3" transform="translate(-62.849 -59.992)" fill="#fff9df"/>
    <path id="Trazado_114056" data-name="Trazado 114056" d="M143.82,90.178a.235.235,0,0,0-.453.125c.635,2.851.156,5.393-.129,8.237-.012.13.18.171.239.065,1.409-2.551,1.1-5.725.342-8.426" transform="translate(-79.94 -50.234)" fill="#fff9df"/>
    <path id="Trazado_114057" data-name="Trazado 114057" d="M177.97,30.709c.018-1.959-.014-3.917-.046-5.875a.128.128,0,0,0-.256,0c-.187,1.958-.369,3.914-.513,5.875-.123,1.675-.464,3.46.022,5.087a.193.193,0,0,0,.37,0c.613-1.59.407-3.4.423-5.087" transform="translate(-98.739 -13.791)" fill="#fff9df"/>
    <path id="Trazado_114058" data-name="Trazado 114058" d="M176.874,53.828c.006-.345-.493-.331-.526,0a5.517,5.517,0,0,0,.291,3.108c.077.156.274.059.291-.079a27.885,27.885,0,0,0-.057-3.029" transform="translate(-98.371 -29.899)" fill="#fff9df"/>
    <path id="Trazado_114059" data-name="Trazado 114059" d="M166.868,156.946a22.7,22.7,0,0,1-1.377,5.328c-.557,1.548-1.572,3.053-1.716,4.709a.308.308,0,0,0,.522.216c1.163-1.207,1.669-3.089,2.219-4.643a18.73,18.73,0,0,0,.992-5.61c.015-.42-.6-.4-.639,0" transform="translate(-91.4 -87.418)" fill="#fff9df"/>
    <path id="Trazado_114060" data-name="Trazado 114060" d="M158.036,184.149a8.591,8.591,0,0,0-1.358,1.378,4.026,4.026,0,0,0-1.008,1.653c-.033.226.141.49.4.4a3.836,3.836,0,0,0,1.429-1.231,8.758,8.758,0,0,0,1.192-1.694.421.421,0,0,0-.658-.508" transform="translate(-86.876 -102.713)" fill="#fff9df"/>
    <path id="Trazado_114061" data-name="Trazado 114061" d="M154.031,133.839a.208.208,0,0,0-.352-.146c-2.1,2.079-1.9,6.045-4.9,7.413-.1.044-.027.2.071.169a5.633,5.633,0,0,0,3.091-2.693c.888-1.307,2.18-3.089,2.091-4.743" transform="translate(-83.005 -74.579)" fill="#fcca92"/>
    <path id="Trazado_114062" data-name="Trazado 114062" d="M162.908,131.892c-.1-.326-.656-.278-.614.083a9.682,9.682,0,0,1,.06,1.29c-.009.462-.2.887-.018,1.331.042.1.173.2.282.115.754-.572.525-2.027.29-2.819" transform="translate(-90.555 -73.486)" fill="#fcca92"/>
    <path id="Trazado_114063" data-name="Trazado 114063" d="M165.315,76.622a21.318,21.318,0,0,0-.746,4.026c-.006.135.207.2.265.072a21.355,21.355,0,0,0,1.1-3.928c.091-.4-.522-.572-.617-.17" transform="translate(-91.844 -42.634)" fill="#fcca92"/>
    <path id="Trazado_114064" data-name="Trazado 114064" d="M58.184,167.983c-1.155-.363-2.441-.152-3.637-.4a8.516,8.516,0,0,1-3.961-2.055.121.121,0,0,0-.171.171c1.56,1.88,5.357,4.445,7.825,2.711a.237.237,0,0,0-.056-.429" transform="translate(-28.118 -92.361)" fill="#fcca92"/>
    <path id="Trazado_114065" data-name="Trazado 114065" d="M67.886,167.72a27.149,27.149,0,0,1-3.053.07.258.258,0,0,0-.181.437,2.7,2.7,0,0,0,3.46.038.322.322,0,0,0-.226-.546" transform="translate(-36.039 -93.603)" fill="#fcca92"/>
    <path id="Trazado_114066" data-name="Trazado 114066" d="M120.487,201.635a5.778,5.778,0,0,0-1.736-.262,11.314,11.314,0,0,0-2,.079c-.121.02-.125.192-.032.247a4.193,4.193,0,0,0,1.746.547,9.637,9.637,0,0,0,1.129.052,2.7,2.7,0,0,0,.928-.364c.136-.061.086-.263-.039-.3" transform="translate(-65.106 -112.38)" fill="#fcca92"/>
  </g>
</svg>
