<svg xmlns="http://www.w3.org/2000/svg" xmlns:xlink="http://www.w3.org/1999/xlink" width="148.459" height="133.459" viewBox="0 0 148.459 133.459">
  <defs>
    <clipPath id="clip-path">
      <rect id="Rectángulo_33848" data-name="Rectángulo 33848" width="133.459" height="133.459" fill="none"/>
    </clipPath>
    <clipPath id="clip-path-2">
      <rect id="Rectángulo_344186" data-name="Rectángulo 344186" width="148.459" height="88.447" fill="none"/>
    </clipPath>
    <clipPath id="clip-path-3">
      <rect id="Rectángulo_344185" data-name="Rectángulo 344185" width="148.459" height="88.448" fill="none"/>
    </clipPath>
    <clipPath id="clip-path-4">
      <rect id="Rectángulo_344167" data-name="Rectángulo 344167" width="8.961" height="7.419" fill="none"/>
    </clipPath>
    <clipPath id="clip-path-5">
      <rect id="Rectángulo_344168" data-name="Rectángulo 344168" width="55.527" height="34.793" fill="none"/>
    </clipPath>
    <clipPath id="clip-path-6">
      <rect id="Rectángulo_344169" data-name="Rectángulo 344169" width="68.859" height="16.601" fill="none"/>
    </clipPath>
    <clipPath id="clip-path-7">
      <rect id="Rectángulo_344170" data-name="Rectángulo 344170" width="91.933" height="51.255" fill="none"/>
    </clipPath>
    <clipPath id="clip-path-8">
      <rect id="Rectángulo_344171" data-name="Rectángulo 344171" width="90.902" height="50.77" fill="none"/>
    </clipPath>
    <clipPath id="clip-path-9">
      <rect id="Rectángulo_344172" data-name="Rectángulo 344172" width="89.247" height="49.159" fill="none"/>
    </clipPath>
    <clipPath id="clip-path-10">
      <rect id="Rectángulo_344173" data-name="Rectángulo 344173" width="143.268" height="52.346" fill="none"/>
    </clipPath>
    <clipPath id="clip-path-11">
      <rect id="Rectángulo_344174" data-name="Rectángulo 344174" width="143.66" height="52.346" fill="none"/>
    </clipPath>
    <clipPath id="clip-path-12">
      <rect id="Rectángulo_344175" data-name="Rectángulo 344175" width="141.271" height="50.602" fill="none"/>
    </clipPath>
    <clipPath id="clip-path-13">
      <rect id="Rectángulo_344176" data-name="Rectángulo 344176" width="139.367" height="49.231" fill="none"/>
    </clipPath>
    <clipPath id="clip-path-14">
      <rect id="Rectángulo_344177" data-name="Rectángulo 344177" width="138.299" height="50.332" fill="none"/>
    </clipPath>
    <clipPath id="clip-path-15">
      <rect id="Rectángulo_344178" data-name="Rectángulo 344178" width="47.358" height="48.781" fill="none"/>
    </clipPath>
    <clipPath id="clip-path-16">
      <rect id="Rectángulo_344179" data-name="Rectángulo 344179" width="80.872" height="51.234" fill="none"/>
    </clipPath>
    <clipPath id="clip-path-17">
      <rect id="Rectángulo_344180" data-name="Rectángulo 344180" width="85.678" height="58.332" fill="none"/>
    </clipPath>
    <clipPath id="clip-path-18">
      <rect id="Rectángulo_344181" data-name="Rectángulo 344181" width="43.118" height="48.321" fill="none"/>
    </clipPath>
    <clipPath id="clip-path-19">
      <rect id="Rectángulo_344182" data-name="Rectángulo 344182" width="18.688" height="31.708" fill="none"/>
    </clipPath>
    <clipPath id="clip-path-20">
      <rect id="Rectángulo_344183" data-name="Rectángulo 344183" width="12.777" height="27.803" fill="none"/>
    </clipPath>
    <clipPath id="clip-path-21">
      <rect id="Rectángulo_344184" data-name="Rectángulo 344184" width="16.317" height="33.839" fill="none"/>
    </clipPath>
  </defs>
  <g id="Grupo_990596" data-name="Grupo 990596" transform="translate(-919.001 -163.121)">
    <g id="Grupo_990578" data-name="Grupo 990578" transform="translate(0.001)">
      <g id="Grupo_156640" data-name="Grupo 156640" transform="translate(930 163.121)">
        <g id="Grupo_80333" data-name="Grupo 80333" transform="translate(0)" clip-path="url(#clip-path)">
          <path id="Trazado_113701" data-name="Trazado 113701" d="M133.459,66.729A66.73,66.73,0,1,1,66.73,0a66.729,66.729,0,0,1,66.73,66.729" fill="#4db1f0"/>
        </g>
      </g>
      <g id="Grupo_990372" data-name="Grupo 990372">
        <g id="Grupo_895940" data-name="Grupo 895940" transform="translate(919 184.627)">
          <g id="Grupo_895939" data-name="Grupo 895939" clip-path="url(#clip-path-2)">
            <g id="Grupo_895938" data-name="Grupo 895938" transform="translate(0 0)">
              <g id="Grupo_895937" data-name="Grupo 895937" clip-path="url(#clip-path-3)">
                <path id="Trazado_691807" data-name="Trazado 691807" d="M38.831,22.62S35.847,20.891,35,20.992c-.612.078-4.854,1.019-4.968,7.383L37.557,30.7s-.166-4.314,3.1-5.422Z" transform="translate(7.006 4.897)" fill="#002c60"/>
                <g id="Grupo_895885" data-name="Grupo 895885" transform="translate(37.036 28.177)" opacity="0.6" style="mix-blend-mode: multiply;isolation: isolate">
                  <g id="Grupo_895884" data-name="Grupo 895884">
                    <g id="Grupo_895883" data-name="Grupo 895883" clip-path="url(#clip-path-4)">
                      <path id="Trazado_691808" data-name="Trazado 691808" d="M38.99,25.927c-.879-.292-1.761-.567-2.6-.892a48.963,48.963,0,0,1-4.819-2.19,8.32,8.32,0,0,0-1.539,5.095l7.528,2.325a6.851,6.851,0,0,1,1.433-4.338" transform="translate(-30.03 -22.846)" fill="#005aaa"/>
                    </g>
                  </g>
                </g>
                <path id="Trazado_691809" data-name="Trazado 691809" d="M71.209,27.407,75.6,78.066l1.214,1.022,53.264-30.551a3.121,3.121,0,0,0,1.485-4.013L88.4,5.165Z" transform="translate(16.615 1.205)" fill="#4a0004"/>
                <path id="Trazado_691810" data-name="Trazado 691810" d="M71.493,26.721l3.823,50.67.782.851,53.886-30.6s2.464-1.365,1.353-3.278L88.684,4.479Z" transform="translate(16.681 1.045)" fill="#7c0e1d"/>
                <g id="Grupo_895888" data-name="Grupo 895888" transform="translate(92.779 44.494)" style="mix-blend-mode: screen;isolation: isolate">
                  <g id="Grupo_895887" data-name="Grupo 895887">
                    <g id="Grupo_895886" data-name="Grupo 895886" clip-path="url(#clip-path-5)">
                      <path id="Trazado_691811" data-name="Trazado 691811" d="M130.466,36.987l-.971-.911a4.013,4.013,0,0,1,.106,2.251,3.648,3.648,0,0,1-2.315,2.14c-1.243.554-52.06,30.4-52.06,30.4l53.885-30.6s2.464-1.365,1.354-3.278" transform="translate(-75.227 -36.076)" fill="#7c0e1d"/>
                    </g>
                  </g>
                </g>
                <path id="Trazado_691812" data-name="Trazado 691812" d="M60.72,32.964,93.428,73.607,36.921,81.758A2.886,2.886,0,0,1,34.3,80.325L.35,30.6s-1.357-1.449,1.272-1.941Z" transform="translate(0 6.688)" fill="#912131"/>
                <g id="Grupo_895891" data-name="Grupo 895891" transform="translate(23.92 70.87)" style="mix-blend-mode: screen;isolation: isolate">
                  <g id="Grupo_895890" data-name="Grupo 895890">
                    <g id="Grupo_895889" data-name="Grupo 895889" clip-path="url(#clip-path-6)">
                      <path id="Trazado_691813" data-name="Trazado 691813" d="M34.25,72.928a3.87,3.87,0,0,1-2.308-.218,21.781,21.781,0,0,1-2.32-2.824c-3.563-4-6.87-8.245-10.228-12.422l10.62,15.558a2.719,2.719,0,0,0,2.458,1.013l55.781-8.155Z" transform="translate(-19.395 -57.462)" fill="#7c0e1d"/>
                    </g>
                  </g>
                </g>
                <g id="Grupo_895894" data-name="Grupo 895894" transform="translate(0.535 34.763)" style="mix-blend-mode: multiply;isolation: isolate">
                  <g id="Grupo_895893" data-name="Grupo 895893">
                    <g id="Grupo_895892" data-name="Grupo 895892" clip-path="url(#clip-path-7)">
                      <path id="Trazado_691814" data-name="Trazado 691814" d="M36.956,79.112c2.1-.5,14.337-3.083,55.411-6.8L60.859,32.489l-59.1-4.3a2.754,2.754,0,0,0-1.33.529c.814,1.295,17.717,26.15,20.86,30.514,3,4.165,6.061,8.273,9.093,12.407,1.871,2.552,3.707,5.136,5.408,7.806.38-.126.768-.236,1.161-.329" transform="translate(-0.434 -28.186)" fill="#b62436"/>
                    </g>
                  </g>
                </g>
                <path id="Trazado_691815" data-name="Trazado 691815" d="M91.891,71.983s-35.034,2.423-56.682,7.011L.989,28.486l6.822-.261Z" transform="translate(0.231 6.586)" fill="#f6eee7"/>
                <g id="Grupo_895897" data-name="Grupo 895897" transform="translate(1.219 34.81)" opacity="0.9" style="mix-blend-mode: multiply;isolation: isolate">
                  <g id="Grupo_895896" data-name="Grupo 895896">
                    <g id="Grupo_895895" data-name="Grupo 895895" clip-path="url(#clip-path-8)">
                      <path id="Trazado_691816" data-name="Trazado 691816" d="M91.891,71.983s-35.034,2.423-56.682,7.011L.989,28.486l6.822-.261Z" transform="translate(-0.989 -28.224)" fill="#e1dad3"/>
                    </g>
                  </g>
                </g>
                <path id="Trazado_691817" data-name="Trazado 691817" d="M91.818,71.983s-42.231-.45-56.283,6.471L1.3,28.246l6.434-.021Z" transform="translate(0.304 6.586)" fill="#f6eee7"/>
                <g id="Grupo_895900" data-name="Grupo 895900" transform="translate(2.874 34.81)" opacity="0.5" style="mix-blend-mode: multiply;isolation: isolate">
                  <g id="Grupo_895899" data-name="Grupo 895899">
                    <g id="Grupo_895898" data-name="Grupo 895898" clip-path="url(#clip-path-9)">
                      <path id="Trazado_691818" data-name="Trazado 691818" d="M91.578,71.983s-38.363-3.894-55.629,5.4L2.331,28.242,7.5,28.225Z" transform="translate(-2.33 -28.224)" fill="#e1dad3"/>
                    </g>
                  </g>
                </g>
                <path id="Trazado_691819" data-name="Trazado 691819" d="M141.919,36.847,145.85,40.7A543.885,543.885,0,0,0,91.59,72.876C76.269,71.954,59.452,69.033,36,76.745,14.038,47.144,2.273,27.711,2.273,27.711L8.6,24.4l32,41.253s17.146-13.162,45.914-2.5c8.982-24.1,31.46-33.46,55.4-26.308" transform="translate(0.53 5.693)" fill="#f6eee7"/>
                <g id="Grupo_895903" data-name="Grupo 895903" transform="translate(2.805 30.091)" opacity="0.5" style="mix-blend-mode: multiply;isolation: isolate">
                  <g id="Grupo_895902" data-name="Grupo 895902">
                    <g id="Grupo_895901" data-name="Grupo 895901" clip-path="url(#clip-path-10)">
                      <path id="Trazado_691820" data-name="Trazado 691820" d="M100.07,66.641q3.184-2.312,6.447-4.507c4.347-2.933,8.787-5.724,13.277-8.425q3.371-2.026,6.773-4c2.231-1.294,4.45-2.647,6.74-3.833,3.97-2.057,8.241-3.476,12.235-5.48l-3.622-3.553c-23.944-7.152-46.421,2.21-55.4,26.308-28.769-10.666-45.915,2.5-45.915,2.5L8.6,24.4,2.274,27.709S14.039,47.143,36,76.744c23.452-7.712,40.268-4.79,55.591-3.868q1.5-1.025,3-2.024c1.727-1.521,3.625-2.863,5.482-4.212" transform="translate(-2.274 -24.398)" fill="#e1dad3"/>
                    </g>
                  </g>
                </g>
                <path id="Trazado_691821" data-name="Trazado 691821" d="M142.172,35.447l3.763,3.986A227.539,227.539,0,0,0,91.591,72.876C76.269,71.954,59.453,69.032,36,76.744,14.039,47.143,2.274,27.711,2.274,27.711L8.6,24.4l32,41.253s17.147-13.162,45.915-2.5c8.982-24.1,31.715-34.857,55.656-27.708" transform="translate(0.531 5.693)" fill="#f6eee7"/>
                <g id="Grupo_895906" data-name="Grupo 895906" transform="translate(2.805 30.091)" opacity="0.5" style="mix-blend-mode: multiply;isolation: isolate">
                  <g id="Grupo_895905" data-name="Grupo 895905">
                    <g id="Grupo_895904" data-name="Grupo 895904" clip-path="url(#clip-path-11)">
                      <path id="Trazado_691822" data-name="Trazado 691822" d="M142.172,35.447l3.763,3.986S120.8,46.9,91.591,72.876C76.269,71.954,59.453,69.032,36,76.744,14.039,47.143,2.274,27.711,2.274,27.711L8.6,24.4l32,41.253s17.147-13.162,45.915-2.5c8.982-24.1,31.715-34.857,55.656-27.708" transform="translate(-2.274 -24.398)" fill="#e1dad3"/>
                    </g>
                  </g>
                </g>
                <path id="Trazado_691823" data-name="Trazado 691823" d="M142.172,35.447l2.893,3.63s-26.8,8.409-53.474,33.8C76.269,71.954,59.453,69.032,36,76.744,14.039,47.143,2.274,27.711,2.274,27.711L8.6,24.4l32,41.253s17.147-13.162,45.915-2.5c8.982-24.1,31.715-34.857,55.656-27.708" transform="translate(0.531 5.693)" fill="#f6eee7"/>
                <g id="Grupo_895909" data-name="Grupo 895909" transform="translate(4.016 30.091)" opacity="0.5" style="mix-blend-mode: multiply;isolation: isolate">
                  <g id="Grupo_895908" data-name="Grupo 895908">
                    <g id="Grupo_895907" data-name="Grupo 895907" clip-path="url(#clip-path-12)">
                      <path id="Trazado_691824" data-name="Trazado 691824" d="M141.7,36.029l2.826,2.157S118.7,43.955,91.362,72.876C78.923,70.36,52.741,69.219,37.269,75,15.748,46.958,3.256,26.646,3.256,26.646L8.368,24.4l32,41.253s17.146-13.162,45.914-2.5c8.984-24.1,31.474-34.274,55.416-27.126" transform="translate(-3.256 -24.398)" fill="#e1dad3"/>
                    </g>
                  </g>
                </g>
                <g id="Grupo_895912" data-name="Grupo 895912" transform="translate(5.498 30.091)" opacity="0.5" style="mix-blend-mode: multiply;isolation: isolate">
                  <g id="Grupo_895911" data-name="Grupo 895911">
                    <g id="Grupo_895910" data-name="Grupo 895910" clip-path="url(#clip-path-13)">
                      <path id="Trazado_691825" data-name="Trazado 691825" d="M141.421,36.029c-23.941-7.148-46.432,3.028-55.416,27.126-28.769-10.666-45.914,2.5-45.914,2.5L8.088,24.4,4.457,26c1.281,1.907,2.491,3.863,3.679,5.827,1.346,2.237,28.72,40.446,29.807,41.8,20-6.143,41.178-3.176,53.139-.752.062-.072.127-.137.192-.207a28.071,28.071,0,0,1,3-3.5c1.589-1.6,3.3-3.08,4.9-4.673,1.86-1.856,3.753-3.672,5.7-5.438a86.133,86.133,0,0,1,11.961-9.113A105.135,105.135,0,0,1,130.1,42.883a75.22,75.22,0,0,1,7.185-2.8c2.178-.713,4.273-1.8,6.538-2.22Z" transform="translate(-4.458 -24.398)" fill="#e1dad3"/>
                    </g>
                  </g>
                </g>
                <path id="Trazado_691826" data-name="Trazado 691826" d="M142.423,35.73l2.234,2.052s-28.381,4.525-53.515,35.535c-18.932-6-38.055-4.472-53.233.041C19.416,49.306,4.2,25.132,4.2,25.132a16.7,16.7,0,0,1,6.94-2.622L39.617,64.284s25.6-8.816,49.66,4.238A52.5,52.5,0,0,1,142.423,35.73" transform="translate(0.98 5.252)" fill="#f6eee7"/>
                <g id="Grupo_895915" data-name="Grupo 895915" transform="translate(6.639 27.762)" opacity="0.5" style="mix-blend-mode: multiply;isolation: isolate">
                  <g id="Grupo_895914" data-name="Grupo 895914">
                    <g id="Grupo_895913" data-name="Grupo 895913" clip-path="url(#clip-path-14)">
                      <path id="Trazado_691827" data-name="Trazado 691827" d="M142.148,35.73A52.5,52.5,0,0,0,89,68.522c-24.062-13.054-49.66-4.238-49.66-4.238L10.866,22.51a16.007,16.007,0,0,0-5.483,1.761C6.737,26.357,37.416,71.1,37.671,71.452a72.146,72.146,0,0,1,7.582-2.363c2.6-.458,15.386-4.207,38.937,1.665a65.195,65.195,0,0,1,6.617,1.923l.443.165c.374-.456.75-.913,1.127-1.357a63.483,63.483,0,0,1,3.956-5.519c1.476-1.924,2.96-3.838,4.6-5.629a66.123,66.123,0,0,1,5.4-5.269,64.772,64.772,0,0,1,11.752-7.992,131.267,131.267,0,0,1,12.9-6.056,59.069,59.069,0,0,1,12.7-3.879Z" transform="translate(-5.383 -22.51)" fill="#c9c4be"/>
                    </g>
                  </g>
                </g>
                <path id="Trazado_691828" data-name="Trazado 691828" d="M5.432,22.99C18.847,43.565,38.2,70.581,38.2,70.581S66.34,60.512,90.854,73.812L59.243,33.855C45.963,23.49,22.84,16.277,5.432,22.99" transform="translate(1.267 4.757)" fill="#f6eee7"/>
                <g id="Grupo_895918" data-name="Grupo 895918" transform="translate(44.764 29.788)" opacity="0.5" style="mix-blend-mode: multiply;isolation: isolate">
                  <g id="Grupo_895917" data-name="Grupo 895917">
                    <g id="Grupo_895916" data-name="Grupo 895916" clip-path="url(#clip-path-15)">
                      <path id="Trazado_691829" data-name="Trazado 691829" d="M42.079,27.074a18.344,18.344,0,0,1,3.119,1.8,34.652,34.652,0,0,1,2.7,2.28,94.7,94.7,0,0,1,9.72,11.169c3.344,4.229,6.761,8.4,10.087,12.649,1.655,2.109,3.255,4.264,4.912,6.366,1.6,2.03,3.17,4.093,4.853,6.051,1.241,1.449,2.53,2.865,3.785,4.315.8.385,1.6.789,2.4,1.225L52.042,32.976A64.139,64.139,0,0,0,36.3,24.152a42.984,42.984,0,0,0,5.783,2.922" transform="translate(-36.295 -24.152)" fill="#e1dad3"/>
                    </g>
                  </g>
                </g>
                <g id="Grupo_895921" data-name="Grupo 895921" transform="translate(6.7 25.143)" opacity="0.5" style="mix-blend-mode: screen;isolation: isolate">
                  <g id="Grupo_895920" data-name="Grupo 895920">
                    <g id="Grupo_895919" data-name="Grupo 895919" clip-path="url(#clip-path-16)">
                      <path id="Trazado_691830" data-name="Trazado 691830" d="M80.652,68.371a51.75,51.75,0,0,0-11.747-3.686c-5.348-.909-10.756-.481-16.147-.546-1.334-.017-2.666-.06-4-.169a9.419,9.419,0,0,1-2.618-.52,10.98,10.98,0,0,1-3.96-2.75c-2.428-2.539-24.257-34.744-24.171-35.607s1.614-2.141,2.341-2.586a11.422,11.422,0,0,1,5.736-1.257,40.512,40.512,0,0,1,5.409.258c-8.891-1.744-18.083-1.593-26.068,1.484C18.847,43.565,38.2,70.581,38.2,70.581s24.8-8.87,48.107,1.04a35.072,35.072,0,0,0-5.651-3.25" transform="translate(-5.432 -20.386)" fill="#f6eee7"/>
                    </g>
                  </g>
                </g>
                <path id="Trazado_691831" data-name="Trazado 691831" d="M134.741,41.7C109.068,16.459,90.88,0,90.88,0S67.77,6.334,49.063,38.612L80.674,78.569c6.381-13.135,23.619-30.646,54.066-36.865" transform="translate(11.448 0)" fill="#f6eee7"/>
                <g id="Grupo_895924" data-name="Grupo 895924" transform="translate(60.51 20.237)" opacity="0.5" style="mix-blend-mode: multiply;isolation: isolate">
                  <g id="Grupo_895923" data-name="Grupo 895923">
                    <g id="Grupo_895922" data-name="Grupo 895922" clip-path="url(#clip-path-17)">
                      <path id="Trazado_691832" data-name="Trazado 691832" d="M127.622,36.881c-2.438.76-4.815,1.72-7.2,2.625-2.32.882-4.608,1.862-6.844,2.948a102.574,102.574,0,0,0-12.607,7.338c-3.619,2.438-7.372,5.624-12.032,5.02a13.659,13.659,0,0,1-5.982-2.637A53.42,53.42,0,0,1,77.68,47.9a75.255,75.255,0,0,1-9.52-10.787c-1.392-1.891-2.724-3.832-3.97-5.827a25.121,25.121,0,0,1-3.03-5.836,10.83,10.83,0,0,1,.09-6.519,19.085,19.085,0,0,1,1.067-2.522A109.12,109.12,0,0,0,49.063,34.783L80.674,74.741c6.38-13.135,23.618-30.646,54.065-36.865q-1.069-1.053-2.119-2.082a29.922,29.922,0,0,0-5,1.088" transform="translate(-49.063 -16.408)" fill="#e1dad3"/>
                    </g>
                  </g>
                </g>
                <g id="Grupo_895927" data-name="Grupo 895927" transform="translate(60.51 30.248)" opacity="0.8" style="mix-blend-mode: multiply;isolation: isolate">
                  <g id="Grupo_895926" data-name="Grupo 895926">
                    <g id="Grupo_895925" data-name="Grupo 895925" clip-path="url(#clip-path-18)">
                      <path id="Trazado_691833" data-name="Trazado 691833" d="M89.9,59.238a26.018,26.018,0,0,0-4.1,4.351c-.947,1.309-1.978,2.876-3.5,3.567-1.569.713-3.1-.64-4.117-1.708-.6-.627-1.122-1.315-1.686-1.973-.879-1.029-1.746-2.066-2.621-3.1-3.371-4.006-6.892-7.872-10.122-12-1.571-2.008-3.1-4.053-4.553-6.147C58,40.49,56.638,38.856,55.49,37.081A12.245,12.245,0,0,1,53.4,31.576a17.072,17.072,0,0,1,.54-5.4c.134-.553.284-1.1.448-1.649-1.8,2.575-3.579,5.354-5.325,8.363L80.674,72.845A56.4,56.4,0,0,1,92.181,57.414Q91,58.284,89.9,59.238" transform="translate(-49.063 -24.525)" fill="#e1dad3"/>
                    </g>
                  </g>
                </g>
                <g id="Grupo_895930" data-name="Grupo 895930" transform="translate(44.867 29.897)" style="mix-blend-mode: multiply;isolation: isolate">
                  <g id="Grupo_895929" data-name="Grupo 895929">
                    <g id="Grupo_895928" data-name="Grupo 895928" clip-path="url(#clip-path-19)">
                      <path id="Trazado_691834" data-name="Trazado 691834" d="M46.434,42.75A38.949,38.949,0,0,1,44.62,32.128c-.728-.495-1.469-.969-2.2-1.428-1.982-1.242-2.384-6.292-6.036-6.46.24.8.5,4.484.59,5.56.581,6.558,5.054,22.412,11.363,26.148l.747-4.066A12.618,12.618,0,0,0,55.067,54.7s-5.314-1.576-8.633-11.952" transform="translate(-36.379 -24.24)" fill="#e1dad3"/>
                    </g>
                  </g>
                </g>
                <path id="Trazado_691835" data-name="Trazado 691835" d="M34.161,20.964s3.907,1.133,4.491,7.692S43.7,51.071,50.015,54.8l.67-4.814a11.268,11.268,0,0,0,6.061,3.567S51.435,51.98,48.115,41.6s-.25-15.106-4.234-17.6-9.72-3.043-9.72-3.043" transform="translate(7.971 4.892)" fill="#005aaa"/>
                <g id="Grupo_895933" data-name="Grupo 895933" transform="translate(47.447 26.968)" opacity="0.6" style="mix-blend-mode: multiply;isolation: isolate">
                  <g id="Grupo_895932" data-name="Grupo 895932">
                    <g id="Grupo_895931" data-name="Grupo 895931" clip-path="url(#clip-path-20)">
                      <path id="Trazado_691836" data-name="Trazado 691836" d="M39.128,22.215c1.635,1,3.326,2.211,3.748,4.186a23.441,23.441,0,0,1,.39,3.749,34.966,34.966,0,0,0,.417,3.857q.34,1.924.856,3.807c.159.6.324,1.2.5,1.793a13.907,13.907,0,0,1,.475,1.712.082.082,0,0,1-.149.063,16.34,16.34,0,0,0-.985-1.408,45.243,45.243,0,0,0,1.878,4.309,8.97,8.97,0,0,1-.3-1.836c0-.1.137-.1.164-.022a17.116,17.116,0,0,0,3.447,5.539,23.464,23.464,0,0,0,1.674,1.706,26.233,26.233,0,0,1-4.138-8.276c-3.323-10.376-.25-15.106-4.235-17.6a18.931,18.931,0,0,0-4.4-1.93,6.612,6.612,0,0,1,.657.349" transform="translate(-38.471 -21.866)" fill="#005aaa"/>
                    </g>
                  </g>
                </g>
                <g id="Grupo_895936" data-name="Grupo 895936" transform="translate(42.131 25.856)" style="mix-blend-mode: screen;isolation: isolate">
                  <g id="Grupo_895935" data-name="Grupo 895935">
                    <g id="Grupo_895934" data-name="Grupo 895934" clip-path="url(#clip-path-21)">
                      <path id="Trazado_691837" data-name="Trazado 691837" d="M49.681,53.725a34.944,34.944,0,0,1-3.649-4.4,27.524,27.524,0,0,1-2.09-4.079,50.224,50.224,0,0,1-3.788-13.551,30.31,30.31,0,0,0-1.423-6.041,13.354,13.354,0,0,0-1.289-2.534,11.731,11.731,0,0,0-3.018-2.124c-.171-.021-.263-.03-.263-.03s3.907,1.132,4.491,7.692S43.7,51.072,50.015,54.8l.462-3.315c-.137-.528-.731.952-.8,2.237" transform="translate(-34.161 -20.964)" fill="#005aaa"/>
                    </g>
                  </g>
                </g>
              </g>
            </g>
          </g>
        </g>
        <g id="_15-Checked" data-name="15-Checked" transform="translate(956.642 117.417)">
          <circle id="Elipse_7683" data-name="Elipse 7683" cx="20.059" cy="20.059" r="20.059" transform="translate(32 61.458)" fill="#bfe5f9"/>
          <path id="Trazado_698895" data-name="Trazado 698895" d="M93.419,90.544l-.215-.367c-3.288-5.6-12.024-17.488-12.112-17.608l-.126-.171,2.976-2.942,9.422,6.579A107.982,107.982,0,0,1,108.44,59.963a55.14,55.14,0,0,1,6.546-4.947l.058-.035h5.049l-.482.429c-12.4,11.048-25.847,34.528-25.981,34.764Z" transform="translate(-43.402 4.477)" fill="#005b8b"/>
        </g>
      </g>
    </g>
  </g>
</svg>
