<svg xmlns="http://www.w3.org/2000/svg" xmlns:xlink="http://www.w3.org/1999/xlink" width="64" height="60" viewBox="0 0 64 60">
  <defs>
    <clipPath id="clip-path">
      <rect id="Rect치ngulo_345112" data-name="Rect치ngulo 345112" width="64" height="60" transform="translate(218.988 3640)" fill="#fff" opacity="0.38"/>
    </clipPath>
    <clipPath id="clip-path-2">
      <rect id="Rect치ngulo_345111" data-name="Rect치ngulo 345111" width="66.304" height="71.92" fill="none"/>
    </clipPath>
  </defs>
  <g id="Enmascarar_grupo_156" data-name="Enmascarar grupo 156" transform="translate(-218.988 -3640)" clip-path="url(#clip-path)">
    <g id="Grupo_990705" data-name="Grupo 990705" transform="translate(219.47 3627.868)">
      <g id="Grupo_990704" data-name="Grupo 990704" clip-path="url(#clip-path-2)">
        <path id="Trazado_699266" data-name="Trazado 699266" d="M305.788,56.143s-7.149-24.23-7.722-29.574,3.424-3.688,3.424-3.688-3.363-10.184-.931-12.6,4.625,2.088,4.625,2.088S305.92,0,308.513,0c4.829-.009,4.734,13.483,4.734,13.483s1.233-5.282,3.818-3.834c3.9,2.184-1.692,12.769-1.692,12.769s4.969,0,6.714,2.509c3.132,4.5-16.3,31.216-16.3,31.216" transform="matrix(0.809, -0.588, 0.588, 0.809, -227.546, 201.664)" fill="#50bfa5"/>
        <path id="Trazado_699267" data-name="Trazado 699267" d="M62.341,225.543s-25.83-4.319-31.449-8.9-.058-6.641-.058-6.641-12.976-6.652-12.826-11.175,6.6-2.224,6.6-2.224S13.671,184.14,16.26,181.773c4.821-4.41,17.461,8.55,17.461,8.55s-3.753-6.163.2-7.139c5.961-1.471,10.36,13.726,10.36,13.726s-1.118-6,2.993-5.2c7.375,1.434,15.067,33.835,15.067,33.835" transform="translate(-13.963 -159.192)" fill="#50bfa5"/>
        <path id="Trazado_699268" data-name="Trazado 699268" d="M50.187,191.709c-4.12-.745-2.992,5.2-2.992,5.2s-4.4-15.2-10.36-13.727c-3.953.975-.2,7.139-.2,7.139s-12.64-12.96-17.461-8.55l45.993,43.778c-.819-4.181-8.072-32.593-14.98-33.842" transform="translate(-16.877 -159.193)" fill="#3c8f7c"/>
        <path id="Trazado_699269" data-name="Trazado 699269" d="M55.726,427.147s-13.6-13.834-20.453-15.275-5.618,3.433-5.618,3.433S16.063,403.42,12.914,406.3s.257,5.66.257,5.66S1.85,409.954.229,413.669c-2.49,5.709,16.129,8.816,16.129,8.816s-7.8.541-5.993,4.12c2.729,5.4,45.361.542,45.361.542" transform="translate(0 -357.233)" fill="#355389"/>
        <path id="Trazado_699270" data-name="Trazado 699270" d="M1.914,413.231c1.621-3.715,12.942-1.709,12.942-1.709s-3.407-2.78-.257-5.66,16.318,7.389,16.318,7.389-3.105-5.935,3.745-4.494,22.749,17.952,22.749,17.952Z" transform="translate(-1.685 -356.795)" fill="#466eb6"/>
      </g>
    </g>
  </g>
</svg>
