<svg xmlns="http://www.w3.org/2000/svg" width="66" height="66" viewBox="0 0 66 66">
  <g id="come" transform="translate(-1 -2)">
    <path id="Trazado_698768" data-name="Trazado 698768" d="M63.639,38.948a12.543,12.543,0,0,1-1.32,5.594L60.091,49A17.719,17.719,0,0,0,58.4,59.375l.909,6.33H48.492V63.379a10.309,10.309,0,0,0-.747-3.863,20.017,20.017,0,0,1-1.417-7.379,16.318,16.318,0,0,1,.844-5.193,4.556,4.556,0,0,0,.238-1.471,4.62,4.62,0,0,0-.779-2.575L43.363,38a1.656,1.656,0,0,1,1.244-2.575L42.53,33.69a1.475,1.475,0,0,1,.941-2.608,2.822,2.822,0,0,1,.855.13A2.037,2.037,0,0,1,46.209,30h.1a8.678,8.678,0,0,1,2.175.27A18.47,18.47,0,0,1,52.885,32V31.98a1.648,1.648,0,0,1-.065-.454A1.523,1.523,0,0,1,54.345,30a5.991,5.991,0,0,1,4.6,2.153l3.516,4.22c.065.076.13.151.206.227A3.317,3.317,0,0,1,63.639,38.948Z" transform="translate(3.361 2.295)" fill="#cf8c78"/>
    <path id="Trazado_698769" data-name="Trazado 698769" d="M57.148,56.876A17.636,17.636,0,0,1,59.009,49l2.229-4.458a12.543,12.543,0,0,0,1.32-5.594,3.317,3.317,0,0,0-.974-2.348c-.076-.076-.141-.151-.206-.227l-3.516-4.22a6,6,0,0,0-3.876-2.107,1.521,1.521,0,0,0-1.166,1.479,1.648,1.648,0,0,0,.065.454V32a18.47,18.47,0,0,0-4.4-1.731A8.679,8.679,0,0,0,46.306,30h-.1a2.037,2.037,0,0,0-1.883,1.212,2.822,2.822,0,0,0-.855-.13,1.475,1.475,0,0,0-.941,2.608l2.077,1.731A1.656,1.656,0,0,0,43.363,38l3.268,4.9a4.62,4.62,0,0,1,.779,2.575,4.556,4.556,0,0,1-.238,1.471,16.318,16.318,0,0,0-.844,5.193,20.016,20.016,0,0,0,1.417,7.379,10.309,10.309,0,0,1,.747,3.863V65.7H58.23l-.909-6.329A17.643,17.643,0,0,1,57.148,56.876Z" transform="translate(3.361 2.295)" fill="#f1b8a0"/>
    <path id="Trazado_698770" data-name="Trazado 698770" d="M32.3,19.311l.682-.853A16.631,16.631,0,0,0,36.623,8.066,7.289,7.289,0,0,0,33.377,2a5.893,5.893,0,0,1-4.436,3.917l-.51.1a15.914,15.914,0,0,1-3.123.309,16.238,16.238,0,0,1-7.261-1.714,4.258,4.258,0,0,0-6.034,2.774l-.276,1.1h-.612a9.126,9.126,0,0,0-8.517,12.4l3.585,9.318,6.9,13.445Z" transform="translate(0.082 0)" fill="#212121"/>
    <path id="Trazado_698771" data-name="Trazado 698771" d="M32.541,3.479a5.884,5.884,0,0,1-3.6,2.316l-.51.1a15.914,15.914,0,0,1-3.123.309,16.238,16.238,0,0,1-7.261-1.714,4.258,4.258,0,0,0-6.034,2.774l-.276,1.1h-.612a9.126,9.126,0,0,0-8.517,12.4L6.193,30.09l5.285,10.3L29.049,18.108l.682-.853A16.631,16.631,0,0,0,33.377,6.862a7.289,7.289,0,0,0-.836-3.383Z" transform="translate(0.082 0.121)" fill="#383838"/>
    <path id="Trazado_698772" data-name="Trazado 698772" d="M34.3,35.227a24.548,24.548,0,0,1-.476,4.782l-1.05,5.269a3.962,3.962,0,0,1-3.884,3.181H28.68a22.842,22.842,0,0,1-5.3-.617v.011a8.4,8.4,0,0,0,2.846,3.127v.011a16.585,16.585,0,0,1-4.111,2.045,16.2,16.2,0,0,1-10.257,0,16.585,16.585,0,0,1-4.111-2.045V50.98a8.482,8.482,0,0,0,3.83-7.087,8.612,8.612,0,0,0-.162-1.666l-.92-4.588A2.18,2.18,0,0,1,8.328,39.8a1.778,1.778,0,0,1-1.569-.963L4.736,34.794A7,7,0,0,1,4,31.656a2.711,2.711,0,0,1,.779-1.893,2.79,2.79,0,0,1,1.244-.7,3.138,3.138,0,0,1,.649-.076,2.668,2.668,0,0,1,2.391,1.482l1.428,2.846V26.354a46.652,46.652,0,0,1,.638-7.671,3.138,3.138,0,0,1,1.082-1.926,3.261,3.261,0,0,1,3.105-.6,38.723,38.723,0,0,0,12.313,2h4.5l.552,3.289a38.991,38.991,0,0,1,.53,6.449l.357,1.417a24.736,24.736,0,0,1,.725,5.908Z" transform="translate(0.246 1.148)" fill="#cf8c78"/>
    <path id="Trazado_698773" data-name="Trazado 698773" d="M26.224,50.909V50.9a8.4,8.4,0,0,1-2.846-3.127V47.76a22.841,22.841,0,0,0,5.3.617h.206a3.943,3.943,0,0,0,.591-.052,3.934,3.934,0,0,0,1.131-2.056l1.048-5.262a24.549,24.549,0,0,0,.476-4.781,24.736,24.736,0,0,0-.725-5.908L31.049,28.9a38.992,38.992,0,0,0-.53-6.449,3.941,3.941,0,0,0-3.886-3.289H25.466a38.724,38.724,0,0,1-12.313-2A3.277,3.277,0,0,0,12.136,17c-.092,0-.181.016-.27.024A3.129,3.129,0,0,0,11.13,18.6a46.651,46.651,0,0,0-.638,7.671V33.23L9.064,30.384A2.668,2.668,0,0,0,6.672,28.9a3.137,3.137,0,0,0-.649.076,2.79,2.79,0,0,0-1.244.7A2.711,2.711,0,0,0,4,31.574a7,7,0,0,0,.736,3.138l2.023,4.047a1.778,1.778,0,0,0,1.569.963,2.18,2.18,0,0,0,2.164-2.164l.92,4.588a8.612,8.612,0,0,1,.162,1.666A8.482,8.482,0,0,1,7.744,50.9v.011a16.584,16.584,0,0,0,4.111,2.045,16.2,16.2,0,0,0,10.257,0,16.832,16.832,0,0,0,1.98-.813l-.032-.161c.032.045.065.087.1.132a16.338,16.338,0,0,0,2.067-1.2Z" transform="translate(0.246 1.23)" fill="#f1b8a0"/>
    <path id="Trazado_698774" data-name="Trazado 698774" d="M22.444,46.915a24.541,24.541,0,0,1-10.085-5.021l1.387-1.662a22.363,22.363,0,0,0,9.19,4.577Z" transform="translate(0.931 3.134)" fill="#cf8c78"/>
    <path id="Trazado_698775" data-name="Trazado 698775" d="M45.361,64.23V59.9a7.645,7.645,0,0,0-5.1-7.21L26.967,48A16.23,16.23,0,0,1,7.492,48L1,50.164V64.23Z" transform="translate(0 3.771)" fill="#0059bd"/>
    <path id="Trazado_698776" data-name="Trazado 698776" d="M35.656,38.246H34.574V35L27,40.41l7.574,5.41V42.574H35a7.29,7.29,0,0,1,6.065,3.246l3.246-3.246a10.82,10.82,0,0,0-8.656-4.328Z" transform="translate(2.131 2.705)" fill="#a7d309"/>
    <path id="Trazado_698777" data-name="Trazado 698777" d="M35.656,38.246H34.574V35L27,40.41h7.574a10.809,10.809,0,0,1,8.16,3.741l1.578-1.578a10.82,10.82,0,0,0-8.656-4.328Z" transform="translate(2.131 2.705)" fill="#8cbe00"/>
    <path id="Trazado_698778" data-name="Trazado 698778" d="M45.1,59.9a7.645,7.645,0,0,0-5.1-7.21L26.708,48A16.23,16.23,0,0,1,7.233,48L4.161,49.024a14.058,14.058,0,0,0,13.891,11.96H45.1Z" transform="translate(0.259 3.771)" fill="#006bda"/>
    <g id="Grupo_990293" data-name="Grupo 990293" transform="translate(47.277 32.647)">
      <path id="Trazado_698779" data-name="Trazado 698779" d="M44.145,32.337l2.39,1.19a20.5,20.5,0,0,1,8.449,7.822l1.854-1.112A22.641,22.641,0,0,0,47.5,31.6L45.14,30.421c-.074-.039-.159-.062-.238-.1a2.015,2.015,0,0,0-.728.866l-.3,1.042a1.407,1.407,0,0,1,.271.1Z" transform="translate(-43.762 -30.325)" fill="#cf8c78"/>
      <path id="Trazado_698780" data-name="Trazado 698780" d="M47.558,39.058l3.169,4.227,1.731-1.3-3.246-4.328a1.108,1.108,0,0,0-.173-.183l-3.884-3.235-.692.832-.691.831Z" transform="translate(-43.771 -30.004)" fill="#cf8c78"/>
      <path id="Trazado_698781" data-name="Trazado 698781" d="M53.669,34.225A17.1,17.1,0,0,1,58.222,39.4l.444.79,1.887-1.058-.449-.8A19.241,19.241,0,0,0,54.969,32.5a19.951,19.951,0,0,0-2.345-1.52l-.525.945-.526.947a17.664,17.664,0,0,1,2.095,1.358Z" transform="translate(-43.131 -30.272)" fill="#cf8c78"/>
    </g>
  </g>
</svg>
