<svg xmlns="http://www.w3.org/2000/svg" width="65.269" height="66.356" viewBox="0 0 65.269 66.356">
  <g id="hola" transform="translate(-2 -2)">
    <path id="Trazado_698782" data-name="Trazado 698782" d="M48.906,46.095a7.332,7.332,0,0,1-2.639-5.633V39.62H33.213v.842a7.332,7.332,0,0,1-2.639,5.632l4.814,4.817h8.7Z" transform="translate(2.509 3.304)" fill="#cf8c78"/>
    <path id="Trazado_698783" data-name="Trazado 698783" d="M48.975,46a7.32,7.32,0,0,1-2.621-5.273c-.143.087-.283.177-.435.259a12.472,12.472,0,0,1-10.62.731.509.509,0,0,0-.684.367l-.013.052a7.261,7.261,0,0,1-3.714,4.561l-1.088.578,3.116,4.357,2.862.476s2.181-.734,3.46-1.291h4.921Z" transform="translate(2.441 3.401)" fill="#f1b8a0"/>
    <path id="Trazado_698784" data-name="Trazado 698784" d="M56.634,10.574v2.562a108.1,108.1,0,0,1-.761,12.836H24.761A108.1,108.1,0,0,1,24,13.136v-.987Z" transform="translate(1.932 0.753)" fill="#4c4c4c"/>
    <path id="Trazado_698785" data-name="Trazado 698785" d="M27.351,24a4.351,4.351,0,1,0,0,8.7h.4" transform="translate(1.844 1.932)" fill="#cf8c78"/>
    <path id="Trazado_698786" data-name="Trazado 698786" d="M51.032,24a4.351,4.351,0,1,1,0,8.7h-.4" transform="translate(4.271 1.932)" fill="#cf8c78"/>
    <path id="Trazado_698787" data-name="Trazado 698787" d="M51.585,15.228l.065.132a13.815,13.815,0,0,1,1.458,6.178v8.7A13.489,13.489,0,0,1,46.17,42.031a12.576,12.576,0,0,1-12.231,0A13.489,13.489,0,0,1,27,30.24v-8.7a13.816,13.816,0,0,1,1.46-6.183l.239-.479" transform="translate(2.195 1.131)" fill="#cf8c78"/>
    <path id="Trazado_698788" data-name="Trazado 698788" d="M35.938,42.028a12.583,12.583,0,0,0,5.028,1.515,12.583,12.583,0,0,0,5.028-1.515,13.489,13.489,0,0,0,6.938-11.791v-8.7a13.816,13.816,0,0,0-1.46-6.183l-.063-.126L30.685,14.91l-.223.447A13.815,13.815,0,0,0,29,21.535v8.7a13.489,13.489,0,0,0,6.938,11.791Z" transform="translate(2.371 1.134)" fill="#f1b8a0"/>
    <path id="Trazado_698789" data-name="Trazado 698789" d="M39.527,38.527A6.533,6.533,0,0,1,33,32h2.176a4.351,4.351,0,0,0,8.7,0h2.176a6.533,6.533,0,0,1-6.527,6.527Z" transform="translate(2.722 2.634)" fill="#cf8c78"/>
    <path id="Trazado_698790" data-name="Trazado 698790" d="M65.952,64.581V56.439A9.235,9.235,0,0,0,59.37,47.6L50.722,45l-.506.506a13.131,13.131,0,0,1-18.569,0L31.142,45,17,48.263V60.229l7.615,1.088v3.263Z" transform="translate(1.317 3.776)" fill="#0059bd"/>
    <path id="Trazado_698791" data-name="Trazado 698791" d="M58.573,47.594,49.925,45l-.506.506a13.131,13.131,0,0,1-18.57,0l-.5-.506-4.26.979A25.751,25.751,0,0,0,49.62,61.317H65.154V56.439a9.235,9.235,0,0,0-6.58-8.845Z" transform="translate(2.115 3.776)" fill="#006bda"/>
    <path id="Trazado_698792" data-name="Trazado 698792" d="M53,59h2.176v4.351H53Z" transform="translate(4.479 5.005)" fill="#004c9c"/>
    <path id="Trazado_698793" data-name="Trazado 698793" d="M10.7,5.263H9.615V2L2,7.439l7.615,5.439V9.615h.429a7.33,7.33,0,0,1,6.1,3.263l3.263-3.263a10.878,10.878,0,0,0-8.7-4.351Z" transform="translate(0)" fill="#a7d309"/>
    <path id="Trazado_698794" data-name="Trazado 698794" d="M10.7,5.263H9.615V2L2,7.439h9.277a7.862,7.862,0,0,1,6.636,3.667l1.492-1.491a10.878,10.878,0,0,0-8.7-4.351Z" transform="translate(0)" fill="#8cbe00"/>
    <path id="Trazado_698795" data-name="Trazado 698795" d="M35.621,14.982,28.7,14.873l-.239.48A13.815,13.815,0,0,0,27,21.538v7.7c.281-.456.544-.925.789-1.414l.16-.32,7.162-11.258a3.6,3.6,0,0,0,.51-1.269Z" transform="translate(2.195 1.13)" fill="#a0695f"/>
    <path id="Trazado_698796" data-name="Trazado 698796" d="M25.814,4.743a5.584,5.584,0,0,0,.059,9.731A30.538,30.538,0,0,0,40.7,18.317h3.269a17.141,17.141,0,0,0,7.665-1.81A11.164,11.164,0,0,0,57.81,6.522V4.176L56.383,5.6a2.554,2.554,0,0,1-1.807.748A9.33,9.33,0,0,1,50.4,5.364,31.879,31.879,0,0,0,36.144,2,20.816,20.816,0,0,0,25.813,4.744Z" transform="translate(1.844)" fill="#212121"/>
    <path id="Trazado_698797" data-name="Trazado 698797" d="M54.4,6.351a9.33,9.33,0,0,1-4.179-.987A31.879,31.879,0,0,0,35.968,2a20.823,20.823,0,0,0-10.26,2.706A5.571,5.571,0,0,0,27.873,12.3,30.538,30.538,0,0,0,42.7,16.142h3.269a17.141,17.141,0,0,0,7.665-1.81,11.054,11.054,0,0,0,1.729-1.1,11.321,11.321,0,0,0,.678-.967,11.163,11.163,0,0,0,1.59-5.744V4.176L56.207,5.6a2.554,2.554,0,0,1-1.807.748Z" transform="translate(2.02)" fill="#383838"/>
    <path id="Trazado_698798" data-name="Trazado 698798" d="M36.81,14.941a2.552,2.552,0,0,1-.413,1.4L29.2,27.668l-.185.37a16.589,16.589,0,0,1-9.605,8.333L12.878,51.6h5.439V62.479L9.811,61.347A9.016,9.016,0,0,1,2.772,48.761L10.7,30.932v-.859a14.658,14.658,0,0,1,6.525-12.193l4.179-5.843a4.223,4.223,0,0,1,3.437-1.773H26.8l.185-.315a3.852,3.852,0,0,1,3.3-1.86h1.6A2.653,2.653,0,0,1,34.036,7a1.7,1.7,0,0,1,1.686,1.686,1.649,1.649,0,0,1-.261.9l-1.338,2.143,1.512,1.012a2.629,2.629,0,0,1,1.175,2.2Z" transform="translate(0 0.439)" fill="#cf8c78"/>
    <path id="Trazado_698799" data-name="Trazado 698799" d="M36.228,13.309a2.587,2.587,0,0,0-.593-.563l-1.512-1.012,1.338-2.143a1.649,1.649,0,0,0,.261-.905A1.7,1.7,0,0,0,34.036,7a2.653,2.653,0,0,0-2.154,1.088h-1.6a3.852,3.852,0,0,0-3.3,1.859l-.185.316H24.844a4.223,4.223,0,0,0-3.437,1.773l-4.177,5.842A14.659,14.659,0,0,0,10.7,30.073v.859L2.772,48.761A9.016,9.016,0,0,0,9.811,61.347l8.507,1.131V51.6H10.7l6.527-15.229a16.589,16.589,0,0,0,9.605-8.333Z" transform="translate(0 0.439)" fill="#f1b8a0"/>
    <g id="Grupo_990295" data-name="Grupo 990295" transform="translate(16.324 8.527)">
      <path id="Trazado_698800" data-name="Trazado 698800" d="M16.978,27,15.168,25.8a10.552,10.552,0,0,1,6.058-4.343l.561,2.1A8.376,8.376,0,0,0,16.978,27Z" transform="translate(-15.168 -6.819)" fill="#cf8c78"/>
      <path id="Trazado_698801" data-name="Trazado 698801" d="M23.3,15.117l2.73-4.558L25.1,10H23.827l-2.4,4Z" transform="translate(-14.618 -7.824)" fill="#cf8c78"/>
      <path id="Trazado_698802" data-name="Trazado 698802" d="M27.152,16.966,29,18.119,32.818,12l-.9-.6-.929-.581Z" transform="translate(-14.116 -7.752)" fill="#cf8c78"/>
      <path id="Trazado_698803" data-name="Trazado 698803" d="M26.028,17.231l4.678-8.418a1.651,1.651,0,0,1,.109-.161L29.944,8H28.667l-4.541,8.174Z" transform="translate(-14.381 -8)" fill="#cf8c78"/>
      <path id="Trazado_698804" data-name="Trazado 698804" d="M22.263,27.966H20.088v-4.82a1.561,1.561,0,0,0-.162-.688A8.8,8.8,0,0,1,19,18.542a2.539,2.539,0,0,1,4.569-1.523l.87,1.156A10.955,10.955,0,0,1,26.615,24.7H24.439A8.769,8.769,0,0,0,22.7,19.481l-.87-1.159a.377.377,0,0,0-.653.218,6.618,6.618,0,0,0,.7,2.948,3.75,3.75,0,0,1,.392,1.658Z" transform="translate(-14.831 -7.297)" fill="#cf8c78"/>
    </g>
  </g>
</svg>
