<svg xmlns="http://www.w3.org/2000/svg" xmlns:xlink="http://www.w3.org/1999/xlink" width="66" height="66" viewBox="0 0 66 66">
  <defs>
    <clipPath id="clip-path">
      <path id="path966" d="M0-682.665H66v66H0Z" transform="translate(0 682.665)"/>
    </clipPath>
    <filter id="path1012" x="36.272" y="39.205" width="34.549" height="22.954" filterUnits="userSpaceOnUse">
      <feOffset dy="3" input="SourceAlpha"/>
      <feGaussianBlur stdDeviation="3" result="blur"/>
      <feFlood flood-opacity="0.161"/>
      <feComposite operator="in" in2="blur"/>
      <feComposite in="SourceGraphic"/>
    </filter>
  </defs>
  <g id="g960" transform="translate(0 681.665)">
    <g id="g962" transform="translate(0 -682.665)">
      <g id="g964" transform="translate(0 1)" clip-path="url(#clip-path)">
        <g id="g970" transform="translate(0.967 0.967)">
          <path id="path972" d="M-164.3-436.746v-7.239a12.856,12.856,0,0,0,11.571-10.594c.577-2.667-3.618-3.611-4.259-.928-.607,2.544-2.409,4.443-4.225,4.187-2.6-.366-3.814-3.486-3.747-6.856.085-4.28,3-5.568,4.479-5.346,2.1.317,2.919,2.074,3.812,3.051a2.173,2.173,0,0,0,3.507-2.562c-2.462-4.488-8.825-7.69-13.793-2.2,3.156-11.676,11.365-12.173,9.21-16.137-.673-1.1-2.186-1.31-3.6-.4-3.965,2.547-8.743,9.816-10.289,15.428a27.716,27.716,0,0,1,3.792-13.375,2.47,2.47,0,0,0-.641-3.328,2.339,2.339,0,0,0-3.436.854c-5.06,7.848-4.711,19.627-4.711,19.627a43.377,43.377,0,0,1-.467-9.021,2.407,2.407,0,0,0-2.113-2.6,2.4,2.4,0,0,0-2.661,2.472c-.1,7.5-.021,21.746,5.7,26.906v8.063Z" transform="translate(181.888 483.49)" fill="#ffc998"/>
        </g>
        <g id="g974" transform="translate(13.396 27.347)">
          <path id="path976" d="M-116.5-14.973a6.871,6.871,0,0,1-1.469,2.94,12.712,12.712,0,0,1-11,8.583V3.789h5.156V-3.45a12.856,12.856,0,0,0,11.571-10.594c.577-2.667-3.618-3.611-4.259-.928" transform="translate(128.965 16.575)" fill="#f8bd87"/>
        </g>
        <g id="g978" transform="translate(2.372 50.377)">
          <path id="path980" d="M0-136.941v-13.4A1.258,1.258,0,0,1,1.261-151.6h17.6a1.258,1.258,0,0,1,1.261,1.256v13.4Z" transform="translate(0 151.597)" fill="#006bda"/>
        </g>
        <g id="g982" transform="translate(16.078 50.377)">
          <path id="path984" d="M-48.177,0h-5.156a1.258,1.258,0,0,1,1.261,1.256v13.4h5.156V1.256A1.258,1.258,0,0,0-48.177,0" transform="translate(53.333)" fill="#0461c3"/>
        </g>
        <g id="g986" transform="translate(4.373 45.588)">
          <path id="path988" d="M-138.862,0h-13.6a1.258,1.258,0,0,0-1.258,1.258v3.53h16.12V1.258A1.258,1.258,0,0,0-138.862,0" transform="translate(153.724)" fill="#fbf9f9"/>
        </g>
        <g id="g990" transform="translate(14.079 45.588)">
          <path id="path992" d="M-48.177,0h-5.156a1.258,1.258,0,0,1,1.258,1.258v3.53h5.156V1.258A1.258,1.258,0,0,0-48.177,0" transform="translate(53.333)" fill="#f6eeeb"/>
        </g>
        <g id="g994" transform="translate(34.16 2.511)">
          <path id="path996" d="M-57.481-168.914l3.2,6.952a.691.691,0,0,0,1.319-.29V-184.4a2.579,2.579,0,0,1,2.573-2.591,2.525,2.525,0,0,1,2.477,2.525v14.24a2.686,2.686,0,0,1,2.573-2.712,2.634,2.634,0,0,1,2.477,2.646,2.525,2.525,0,1,1,5.05.066h0a2.642,2.642,0,0,1,2.477-2.655,2.694,2.694,0,0,1,2.573,2.721v10.716a12.346,12.346,0,0,1-5.05,9.968v11.744H-50.5v-11.744a7.164,7.164,0,0,1-5.25-4.082l-7.767-16.364a1.38,1.38,0,0,1,1.191-1.939,5.052,5.052,0,0,1,4.84,2.946" transform="translate(63.634 186.992)" fill="#ffc998"/>
        </g>
        <g id="g998" transform="translate(54.933 16.621)">
          <path id="path1000" d="M-70.325,0A2.642,2.642,0,0,0-72.8,2.651,2.625,2.625,0,0,0-73.575.8a2.845,2.845,0,0,1,.773,1.92V13.434a12.346,12.346,0,0,1-5.05,9.968V35.145h5.05V23.4a12.346,12.346,0,0,0,5.05-9.968V2.717A2.694,2.694,0,0,0-70.325,0" transform="translate(77.852 0.004)" fill="#f8bd87"/>
        </g>
        <g id="g1002" transform="translate(43.218 50.158)">
          <path id="path1004" d="M-193.017-138.989v-13.577a1.3,1.3,0,0,0-1.294-1.3h-18.069a1.3,1.3,0,0,0-1.294,1.3v13.577Z" transform="translate(213.675 153.865)" fill="#0059bd"/>
        </g>
        <g id="g1006" transform="translate(57.425 50.158)">
          <path id="path1008" d="M-48.177,0h-5.156a1.3,1.3,0,0,1,1.294,1.3V14.876h5.156V1.3A1.3,1.3,0,0,0-48.177,0" transform="translate(53.333)" fill="#034590"/>
        </g>
        <g id="g1010" transform="translate(45.272 45.204)">
          <g transform="matrix(1, 0, 0, 1, -45.27, -45.2)" filter="url(#path1012)">
            <path id="path1012-2" data-name="path1012" d="M-12.116,0H1.839a1.3,1.3,0,0,1,1.3,1.3V4.954H-13.413V1.3a1.3,1.3,0,0,1,1.3-1.3" transform="translate(58.69 45.2)" fill="#fbf9f9"/>
          </g>
        </g>
        <g id="g1014" transform="translate(55.368 45.204)">
          <path id="path1016" d="M-48.177,0h-5.156a1.3,1.3,0,0,1,1.3,1.3V4.954h5.156V1.3a1.3,1.3,0,0,0-1.3-1.3" transform="translate(53.333)" fill="#f6eeeb"/>
        </g>
      </g>
    </g>
  </g>
</svg>
