<svg xmlns="http://www.w3.org/2000/svg" xmlns:xlink="http://www.w3.org/1999/xlink" width="240" height="216" viewBox="0 0 240 216">
  <defs>
    <clipPath id="clip-path">
      <rect id="Rectángulo_344453" data-name="Rectángulo 344453" width="240" height="181" transform="translate(1157 1900)" fill="#ffa031" opacity="0.38"/>
    </clipPath>
    <clipPath id="clip-path-2">
      <rect id="Rectángulo_344449" data-name="Rectángulo 344449" width="234" height="194.084" fill="none"/>
    </clipPath>
    <clipPath id="clip-path-3">
      <path id="Trazado_696693" data-name="Trazado 696693" d="M163.091,44.181S142.709,51.4,97.276,90.888c-14.751,9.279-32.17,2.762-47.7-3.754-12.183-5.113-23.2-10.227-30.855-7.71C1.31,83.04.041,112.968.041,112.968S0,113.72,0,115.091v.291c.03,15.932,4.95,105.106,111.713,97.369C237.4,201.711,229.754,102.777,229.754,102.777S232.3,49.7,192.813,40.36a38.554,38.554,0,0,0-9.124-1.07,47.366,47.366,0,0,0-20.6,4.891" transform="translate(0 -39.29)" fill="none"/>
    </clipPath>
    <clipPath id="clip-path-5">
      <rect id="Rectángulo_344451" data-name="Rectángulo 344451" width="169.998" height="141" fill="#ffaeb6"/>
    </clipPath>
    <clipPath id="clip-path-6">
      <path id="Trazado_696696" data-name="Trazado 696696" d="M118.484,42.844S103.677,48.088,70.67,76.776C59.953,83.517,47.3,78.783,36.018,74.048c-8.851-3.715-16.857-7.43-22.416-5.6C.952,71.074.03,92.816.03,92.816S0,93.362,0,94.358v.211c.022,11.575,3.6,76.358,81.158,70.738,91.308-8.02,85.756-79.895,85.756-79.895s1.851-38.559-26.837-45.346a28.009,28.009,0,0,0-6.628-.777,34.411,34.411,0,0,0-14.964,3.554" transform="translate(0 -39.29)" fill="#ffaeb6"/>
    </clipPath>
    <clipPath id="clip-path-8">
      <rect id="Rectángulo_344632" data-name="Rectángulo 344632" width="206" height="216" transform="translate(1174 1865)" fill="#ffa031" opacity="0.46"/>
    </clipPath>
    <clipPath id="clip-path-9">
      <rect id="Rectángulo_344488" data-name="Rectángulo 344488" width="250" height="250" fill="none"/>
    </clipPath>
    <filter id="Rectángulo_344460" x="27.432" y="175.323" width="48.693" height="29.679" filterUnits="userSpaceOnUse">
      <feOffset dy="3" input="SourceAlpha"/>
      <feGaussianBlur stdDeviation="3" result="blur"/>
      <feFlood flood-opacity="0.161"/>
      <feComposite operator="in" in2="blur"/>
      <feComposite in="SourceGraphic"/>
    </filter>
    <filter id="Trazado_696849" x="45.964" y="12.233" width="43.745" height="43.745" filterUnits="userSpaceOnUse">
      <feOffset dy="3" input="SourceAlpha"/>
      <feGaussianBlur stdDeviation="3" result="blur-2"/>
      <feFlood flood-opacity="0.161"/>
      <feComposite operator="in" in2="blur-2"/>
      <feComposite in="SourceGraphic"/>
    </filter>
    <filter id="Trazado_696855" x="8.221" y="54.055" width="56.635" height="56.635" filterUnits="userSpaceOnUse">
      <feOffset dy="3" input="SourceAlpha"/>
      <feGaussianBlur stdDeviation="3" result="blur-3"/>
      <feFlood flood-opacity="0.161"/>
      <feComposite operator="in" in2="blur-3"/>
      <feComposite in="SourceGraphic"/>
    </filter>
    <filter id="Trazado_696857" x="142.422" y="4.569" width="34.531" height="34.531" filterUnits="userSpaceOnUse">
      <feOffset dy="3" input="SourceAlpha"/>
      <feGaussianBlur stdDeviation="3" result="blur-4"/>
      <feFlood flood-opacity="0.161"/>
      <feComposite operator="in" in2="blur-4"/>
      <feComposite in="SourceGraphic"/>
    </filter>
    <filter id="Rectángulo_344473" x="126.911" y="0.302" width="26.534" height="26.534" filterUnits="userSpaceOnUse">
      <feOffset dy="3" input="SourceAlpha"/>
      <feGaussianBlur stdDeviation="3" result="blur-5"/>
      <feFlood flood-opacity="0.161"/>
      <feComposite operator="in" in2="blur-5"/>
      <feComposite in="SourceGraphic"/>
    </filter>
    <clipPath id="clip-path-12">
      <rect id="Rectángulo_344478" data-name="Rectángulo 344478" width="28.79" height="21.929" fill="none"/>
    </clipPath>
    <clipPath id="clip-path-13">
      <rect id="Rectángulo_344479" data-name="Rectángulo 344479" width="14.411" height="12.13" fill="none"/>
    </clipPath>
    <clipPath id="clip-path-14">
      <rect id="Rectángulo_344480" data-name="Rectángulo 344480" width="3.018" height="15.124" fill="none"/>
    </clipPath>
    <clipPath id="clip-path-15">
      <rect id="Rectángulo_344481" data-name="Rectángulo 344481" width="0.089" height="1.89" fill="none"/>
    </clipPath>
    <clipPath id="clip-path-16">
      <rect id="Rectángulo_344482" data-name="Rectángulo 344482" width="6.184" height="28.07" fill="none"/>
    </clipPath>
    <clipPath id="clip-path-17">
      <rect id="Rectángulo_344483" data-name="Rectángulo 344483" width="71.041" height="27.108" fill="none"/>
    </clipPath>
    <clipPath id="clip-path-18">
      <rect id="Rectángulo_344484" data-name="Rectángulo 344484" width="19.007" height="26.839" fill="none"/>
    </clipPath>
  </defs>
  <g id="Grupo_990684" data-name="Grupo 990684" transform="translate(-1157 -1857)">
    <g id="Enmascarar_grupo_99" data-name="Enmascarar grupo 99" transform="translate(0 -8)" clip-path="url(#clip-path)">
      <g id="Grupo_951864" data-name="Grupo 951864" transform="matrix(0.883, 0.469, -0.469, 0.883, 1333.974, -841.734)">
        <g id="Grupo_951859" data-name="Grupo 951859" transform="translate(1156 2427)">
          <g id="Grupo_951858" data-name="Grupo 951858" clip-path="url(#clip-path-2)">
            <path id="Trazado_696692" data-name="Trazado 696692" d="M18.723,79.424c15.71-3.4,52.227,28.024,78.552,11.464C142.709,51.4,163.09,44.181,163.09,44.181s14.012-7.643,29.723-3.821c39.489,9.341,36.941,62.417,36.941,62.417s7.643,98.934-118.041,109.973C-5.479,221.243.041,112.968.041,112.968S2.588,83.245,18.723,79.424" transform="translate(0 -22.607)" fill="#ffdae3"/>
          </g>
        </g>
        <g id="Grupo_951863" data-name="Grupo 951863" transform="translate(1156 2427)">
          <g id="Grupo_951862" data-name="Grupo 951862" clip-path="url(#clip-path-2)">
            <path id="Trazado_696694" data-name="Trazado 696694" d="M18.723,79.424c15.71-3.4,52.227,28.024,78.552,11.464C142.709,51.4,163.09,44.181,163.09,44.181s14.012-7.643,29.723-3.821c39.489,9.341,36.941,62.417,36.941,62.417s7.643,98.934-118.041,109.973C-5.479,221.243.041,112.968.041,112.968S2.588,83.245,18.723,79.424" transform="translate(0 -22.607)" fill="#ffdae3"/>
          </g>
        </g>
      </g>
      <g id="Grupo_951871" data-name="Grupo 951871" transform="matrix(0.616, -0.788, 0.788, 0.616, -1439.092, 1435.922)">
        <g id="Grupo_951866" data-name="Grupo 951866" transform="translate(1156 2427)">
          <g id="Grupo_951865" data-name="Grupo 951865" clip-path="url(#clip-path-5)">
            <path id="Trazado_696695" data-name="Trazado 696695" d="M13.6,68.447c11.414-2.468,37.942,20.359,57.068,8.329,33.007-28.688,47.813-33.932,47.813-33.932s10.18-5.553,21.593-2.776c28.688,6.786,26.837,45.346,26.837,45.346s5.553,71.874-85.756,79.895C-3.981,171.477.029,92.816.029,92.816S1.88,71.223,13.6,68.447" transform="translate(0 -27.17)" fill="#ffaeb6"/>
          </g>
        </g>
        <g id="Grupo_951870" data-name="Grupo 951870" transform="translate(1156 2427)">
          <g id="Grupo_951869" data-name="Grupo 951869" clip-path="url(#clip-path-5)">
            <path id="Trazado_696697" data-name="Trazado 696697" d="M13.6,68.447c11.414-2.468,37.942,20.359,57.068,8.329,33.007-28.688,47.813-33.932,47.813-33.932s10.18-5.553,21.593-2.776c28.688,6.786,26.837,45.346,26.837,45.346s5.553,71.874-85.756,79.895C-3.981,171.477.029,92.816.029,92.816S1.88,71.223,13.6,68.447" transform="translate(0 -27.17)" fill="#ffaeb6"/>
          </g>
        </g>
      </g>
    </g>
    <g id="Enmascarar_grupo_112" data-name="Enmascarar grupo 112" transform="translate(0 -8)" clip-path="url(#clip-path-8)">
      <g id="Grupo_952047" data-name="Grupo 952047" transform="translate(1146 1856)">
        <g id="Grupo_951916" data-name="Grupo 951916" clip-path="url(#clip-path-9)">
          <g id="Grupo_951890" data-name="Grupo 951890">
            <g id="Grupo_951889" data-name="Grupo 951889" clip-path="url(#clip-path-9)">
              <path id="Trazado_696828" data-name="Trazado 696828" d="M1261.188,1236.569a45.97,45.97,0,0,1,14.487,9.769,70.143,70.143,0,0,1,10.4,12.959,39.107,39.107,0,0,1-24.891-22.728" transform="translate(-1117.871 -1096.05)" fill="#f0f2f5"/>
              <path id="Trazado_696829" data-name="Trazado 696829" d="M1330.35,1449.757a26.358,26.358,0,0,1,11.307,3.132,26.549,26.549,0,0,1-22.858-1.079,26.356,26.356,0,0,1,11.551-2.052" transform="translate(-1168.935 -1284.985)" fill="#f0f2f5"/>
              <path id="Trazado_696830" data-name="Trazado 696830" d="M1505.063,1264.1a26.523,26.523,0,0,1-5.343,22.251,26.551,26.551,0,0,1,5.343-22.251" transform="translate(-1328.777 -1120.449)" fill="#f0f2f5"/>
              <path id="Trazado_696831" data-name="Trazado 696831" d="M1391.012,1607.411c-4.721-2.622-5.582-5.57-3.331-8.993a26.379,26.379,0,0,1,8.452-8.137,23.457,23.457,0,0,1-4.118,10.987c-1.885,2.65-2.187,4.6-1,6.144" transform="translate(-1228.937 -1409.567)" fill="#f0f2f5"/>
              <path id="Trazado_696832" data-name="Trazado 696832" d="M1361.9,1005.741c.109-.031.217-.062.327-.089l.56-.147c.187-.047.375-.09.563-.135l.282-.067.283-.06.566-.119q1.136-.223,2.283-.383a40.837,40.837,0,0,1,4.615-.335,32.363,32.363,0,0,1,4.571.223l-.1-.137q-1.546-2.046-3.193-4.012t-3.393-3.845q-.869-.943-1.768-1.858c-.6-.61-1.205-1.213-1.831-1.8.63.578,1.24,1.177,1.844,1.783s1.2,1.221,1.781,1.846q1.751,1.875,3.4,3.839t3.2,4.007q.431.569.855,1.143a13.536,13.536,0,0,1,.27-1.53q.186-.776.436-1.535c.171-.5.354-1,.56-1.494s.427-.974.676-1.444c-.111.241-.22.483-.323.728s-.205.49-.3.736c-.194.494-.378.991-.543,1.5s-.316,1.012-.451,1.525l-.1.386c-.031.129-.055.259-.084.389-.059.246-.094.5-.142.744.733.992,1.45,2,2.14,3.02.244.352.476.71.71,1.068s.473.713.7,1.077l.682,1.086.661,1.1c.109.184.222.366.329.551l.318.557.318.557c.106.186.214.37.314.559l.611,1.128.152.282.146.286.292.571c.4.757.758,1.533,1.13,2.3.182.387.352.779.528,1.169l.262.585c.087.2.166.394.248.592l.489,1.186.455,1.2.227.6.209.606.266.774h.051q-.047-1.577-.109-3.154-.158-4.052-.409-8.1t-.6-8.087q-.207-2.406-.453-4.808a7.391,7.391,0,0,1-1.589.8,12.265,12.265,0,0,1-7.408-.224,15.876,15.876,0,0,1,8.6-4.307l-.175-1.547-.247-2.012c-.018-.154-.039-.308-.058-.461a23.206,23.206,0,0,1-6.85,5.038,26.381,26.381,0,0,1,4.785-10.712,8.457,8.457,0,0,1,1.095-1.215l-.105-.678-.157-1-.168-1-.168-1c-.056-.333-.111-.667-.173-1l-.363-1.994c-.059-.333-.125-.664-.19-1l-.2-.994-.2-.995c-.066-.331-.14-.661-.209-.992l-.038-.177a23.471,23.471,0,0,1-10.005-6.109c-2.248-2.349-4.111-3.015-5.845-2.141,3.463-4.143,6.52-4.435,9.459-1.58a26.379,26.379,0,0,1,6.38,9.774l-.374-1.75q-.537-2.408-1.15-4.8l-.02.013.013-.043c-.259-1.015-.525-2.028-.805-3.038a70.144,70.144,0,0,1-8.73-14.141,45.971,45.971,0,0,1-4.357-16.921,39.106,39.106,0,0,1,13.086,31.062c.282,1,.551,2.006.813,3.012a47.4,47.4,0,0,1,4.537-10.062,30.728,30.728,0,0,1,7.734-8.752,26.139,26.139,0,0,1-12.258,18.863q.621,2.391,1.172,4.8l.428,1.982c.07.331.144.66.21.992l.2.994.2.994c.066.331.132.663.192,1l.366,1.994q.412,2.317.773,4.642c2.252-1.993,4.986-1.681,8.447,1.339-1.849-.592-3.586.357-5.438,3.029a21.968,21.968,0,0,1-2.031,2.5q.262,2.034.493,4.071a15.688,15.688,0,0,1,4.275-.067,16.741,16.741,0,0,1-3.884,3.764q.243,2.421.45,4.845.339,4.041.585,8.09c.226,3.749.4,7.5.492,11.256h.1l.055-.956.02-.349.01-.174.016-.174.064-.7.064-.7.032-.348.043-.347.172-1.388.022-.173.027-.173.054-.345.108-.691.108-.691.127-.687c.087-.458.166-.917.258-1.374l.29-1.368a94.621,94.621,0,0,1,3.077-10.747q.929-2.638,1.976-5.232t2.214-5.135c1.028-2.246,2.113-4.468,3.273-6.649a26.52,26.52,0,0,1-11.169-19.937,26.546,26.546,0,0,1,11.192,19.895q.875-1.643,1.81-3.253c-.469.8-.917,1.623-1.357,2.444-.152.284-.3.569-.45.854,0,.006,0,.012,0,.018h0l-.008-.006q-.421.8-.831,1.615-1.262,2.494-2.418,5.04-.878,1.933-1.692,3.893a33.122,33.122,0,0,1,4.36-1.4,42.035,42.035,0,0,1,4.539-.885q1.147-.148,2.3-.235l.577-.035.289-.017.289-.011c.193-.007.385-.016.578-.02l.578-.008c.193,0,.385,0,.578,0s.385,0,.578.008c.385.016.771.023,1.155.052.77.044,1.536.135,2.3.234a26.522,26.522,0,0,1,22.765,2.33c.163,0-6.609,3.651-11.637,3.167-6.284-.6-11.127-5.5-11.127-5.5-.765-.087-1.532-.166-2.3-.2-.384-.026-.77-.032-1.154-.046-.192-.005-.385,0-.578-.005s-.385,0-.578,0l-.577.011c-.192.006-.385.016-.577.023l-.288.012-.288.018-.576.038q-1.151.092-2.3.246a41.967,41.967,0,0,0-4.537.86c-.747.185-1.49.39-2.226.618s-1.442.459-2.145.736q-.258.62-.51,1.244-1.045,2.592-1.964,5.233a94.529,94.529,0,0,0-3.1,10.734l-.292,1.366c-.094.456-.174.915-.261,1.373l-.128.687-.109.69-.11.69-.055.345-.027.172-.023.173-.181,1.386-.045.346-.034.348-.068.7-.068.7-.017.174-.011.174-.022.349-.061.956s10.645-1.211,14.194,0,0,4.845,0,4.845v23.6h-28.443v-28.443h14.068l-.271-.771-.213-.6-.231-.6-.463-1.2-.5-1.182c-.084-.2-.163-.4-.25-.59l-.263-.584c-.177-.389-.348-.781-.531-1.167-.374-.769-.736-1.543-1.135-2.3l-.293-.57-.147-.285-.153-.282-.614-1.126c-.1-.189-.209-.373-.315-.558l-.319-.556-.319-.556c-.107-.185-.22-.366-.329-.55l-.663-1.1-.684-1.084c-.225-.363-.465-.717-.7-1.075s-.468-.715-.712-1.066c-.921-1.371-1.888-2.711-2.881-4.031-.751-.087-1.505-.131-2.26-.158-.77-.03-1.541-.034-2.311-.019-.8.016-1.6.058-2.4.122a16.327,16.327,0,0,0-1.247,1.273c-.3.336-.584.679-.858,1.034a13.269,13.269,0,0,1,6,9.7,13.258,13.258,0,0,1-6.029-9.667q-.142.184-.278.373c-.094.122-.182.249-.271.375s-.18.25-.263.38l-.252.387c-.043.064-.083.13-.122.2l-.12.2c-.325.524-.608,1.073-.888,1.623l.194-.421c.065-.14.128-.281.2-.417l.216-.41c.07-.138.153-.269.229-.4a17.153,17.153,0,0,1,1.018-1.551,17.353,17.353,0,0,1,1.179-1.432c.209-.228.425-.449.646-.666.207-.2.417-.389.637-.57q-1.1.089-2.2.235-1.145.155-2.281.37l-.566.116-.283.059-.281.065c-.187.044-.375.086-.562.131l-.56.144c-.1.025-.2.052-.3.08a13.255,13.255,0,0,1-10.965,3.136,13.272,13.272,0,0,1,10.927-3.173" transform="translate(-1197.451 -829.734)" fill="#f0f2f5"/>
              <path id="Trazado_696833" data-name="Trazado 696833" d="M1817.39,1112.249a39.106,39.106,0,0,1-17.765,28.644,70.144,70.144,0,0,1,6.484-15.3,45.971,45.971,0,0,1,11.281-13.343" transform="translate(-1595.122 -985.857)" fill="#f0f2f5"/>
              <path id="Trazado_696834" data-name="Trazado 696834" d="M1773.3,1356.123a26.522,26.522,0,0,1,21.7-7.26,26.55,26.55,0,0,1-21.7,7.26" transform="translate(-1571.789 -1195.402)" fill="#f0f2f5"/>
              <path id="Trazado_696835" data-name="Trazado 696835" d="M1793.985,1476.961a13.188,13.188,0,0,1,2.8-5.111c-.36-.266-.731-.518-1.107-.761a16.152,16.152,0,0,0-1.607-.916c.285.12.56.262.834.4s.54.3.8.465a17.338,17.338,0,0,1,1.524,1.058,17.115,17.115,0,0,1,1.4,1.215c.11.109.225.212.33.326l.319.336c.108.111.207.23.308.347l.3.352c-.419-.454-.841-.9-1.3-1.321l-.169-.157c-.056-.053-.112-.105-.171-.155l-.348-.3c-.115-.1-.238-.2-.356-.295s-.238-.2-.362-.287-.244-.19-.369-.283a13.257,13.257,0,0,1-3.171,10.943,13.188,13.188,0,0,1,.336-5.856" transform="translate(-1589.663 -1303.108)" fill="#f0f2f5"/>
              <path id="Trazado_696836" data-name="Trazado 696836" d="M1859.612,1524.888c.721-1.8-.1-3.6-2.637-5.639a23.459,23.459,0,0,1-6.953-9.451,26.38,26.38,0,0,1,10.348,5.53c3.1,2.682,3.071,5.753-.758,9.56" transform="translate(-1639.792 -1338.23)" fill="#f0f2f5"/>
              <rect id="Rectángulo_344450-2" data-name="Rectángulo 344450" width="28.36" height="13.604" transform="translate(75.344 211.564)" fill="#fff"/>
              <path id="Trazado_696994" data-name="Trazado 696994" d="M0,0H35.752V13.6H0Z" transform="translate(39.592 211.564)" fill="#e0e0e0"/>
              <rect id="Rectángulo_344452-2" data-name="Rectángulo 344452" width="29.273" height="1.118" transform="translate(75.344 211.564)" fill="#f0f2f5"/>
              <rect id="Rectángulo_344453-2" data-name="Rectángulo 344453" width="13.127" height="0.279" transform="translate(91.012 215.195)" fill="#f0f2f5"/>
              <rect id="Rectángulo_344454" data-name="Rectángulo 344454" width="29.273" height="1.118" transform="translate(75.344 224.05)" fill="#f0f2f5"/>
              <rect id="Rectángulo_344455" data-name="Rectángulo 344455" width="2.636" height="13.604" transform="translate(43.195 211.564)" fill="#fff"/>
              <rect id="Rectángulo_344456" data-name="Rectángulo 344456" width="0.659" height="13.604" transform="translate(70.544 211.564)" fill="#fff"/>
              <rect id="Rectángulo_344457" data-name="Rectángulo 344457" width="0.659" height="13.604" transform="translate(68.331 211.564)" fill="#fff"/>
              <path id="Trazado_696837" data-name="Trazado 696837" d="M866.294,1901.134h-2.96l-2.752-4.962h2.96Z" transform="translate(-762.788 -1680.698)" fill="#f0f2f5"/>
              <rect id="Rectángulo_344459" data-name="Rectángulo 344459" width="24.347" height="11.679" transform="translate(78.125 190.323)" fill="#fff"/>
              <g transform="matrix(1, 0, 0, 1, 11, 9)" filter="url(#Rectángulo_344460)">
                <rect id="Rectángulo_344460-2" data-name="Rectángulo 344460" width="30.694" height="11.679" transform="translate(36.43 181.32)" fill="#e0e0e0"/>
              </g>
              <rect id="Rectángulo_344461" data-name="Rectángulo 344461" width="25.131" height="0.96" transform="translate(78.125 190.323)" fill="#f0f2f5"/>
              <rect id="Rectángulo_344462" data-name="Rectángulo 344462" width="11.27" height="0.24" transform="translate(91.576 193.44)" fill="#f0f2f5"/>
              <rect id="Rectángulo_344463" data-name="Rectángulo 344463" width="25.131" height="0.96" transform="translate(78.125 201.043)" fill="#f0f2f5"/>
              <rect id="Rectángulo_344464" data-name="Rectángulo 344464" width="2.263" height="8.322" transform="translate(50.525 192.002)" fill="#fff"/>
              <rect id="Rectángulo_344465" data-name="Rectángulo 344465" width="15.168" height="8.322" transform="translate(58.146 192.002)" fill="#fff"/>
              <path id="Trazado_696844" data-name="Trazado 696844" d="M862.007,1708.645h-2.541l-2.362-4.26h2.542Z" transform="translate(-759.705 -1510.705)" fill="#f0f2f5"/>
              <path id="Trazado_696845" data-name="Trazado 696845" d="M498.2,1787.185H458.725a4.735,4.735,0,0,1-4.735-4.735v-.091a4.735,4.735,0,0,1,4.735-4.735H498.2Z" transform="translate(-402.4 -1575.62)" fill="#e0e0e0"/>
              <path id="Trazado_696846" data-name="Trazado 696846" d="M695.049,1792.526H679.111a4,4,0,0,1,0-7.99h15.938Z" transform="translate(-598.398 -1581.748)" fill="#fff"/>
              <rect id="Rectángulo_344466" data-name="Rectángulo 344466" width="20.574" height="0.786" transform="translate(76.718 202.003)" fill="#f0f2f5"/>
              <rect id="Rectángulo_344467" data-name="Rectángulo 344467" width="9.226" height="0.196" transform="translate(87.73 204.554)" fill="#f0f2f5"/>
              <rect id="Rectángulo_344468" data-name="Rectángulo 344468" width="20.574" height="0.786" transform="translate(76.718 210.779)" fill="#f0f2f5"/>
              <path id="Trazado_696847" data-name="Trazado 696847" d="M489.9,1798.008H472.892a3.189,3.189,0,0,1,0-6.379H489.9a4.07,4.07,0,0,0-.418.364,3.995,3.995,0,0,0,.42,6.015" transform="translate(-416.328 -1588.035)" fill="#fff"/>
              <path id="Trazado_696848" data-name="Trazado 696848" d="M613.026,1794.743a.211.211,0,0,1-.128-.043,4.542,4.542,0,0,1-.477-6.839,4.633,4.633,0,0,1,.475-.414.212.212,0,0,1,.257.339,4.216,4.216,0,0,0-.431.376,4.118,4.118,0,0,0,.433,6.2.212.212,0,0,1-.128.382" transform="translate(-541.649 -1584.29)" fill="#f0f2f5"/>
              <g transform="matrix(1, 0, 0, 1, 11, 9)" filter="url(#Trazado_696849)">
                <path id="Trazado_696849-2" data-name="Trazado 696849" d="M606.226,252.519a12.872,12.872,0,1,1-12.872-12.872,12.872,12.872,0,0,1,12.872,12.872" transform="translate(-525.52 -221.41)" fill="#fff"/>
              </g>
              <path id="Trazado_696850" data-name="Trazado 696850" d="M594.548,239.7a12.678,12.678,0,0,0-8.609,2.3l1.813,1.807a10,10,0,0,1,6.565-1.636,10.389,10.389,0,1,1-11.312,9.377,12.485,12.485,0,0,1,1.444-4.757l-1.7-1.7a13.6,13.6,0,0,0-2.211,6.226A12.872,12.872,0,1,0,594.548,239.7" transform="translate(-514.513 -212.41)" fill="#f0f2f5"/>
              <path id="Trazado_696851" data-name="Trazado 696851" d="M640.117,321.931l-4.768-4.4,1.6-1.729,3.113,2.874L647,311.789l1.658,1.671Z" transform="translate(-563.15 -276.358)" fill="#f0f2f5"/>
              <path id="Trazado_696852" data-name="Trazado 696852" d="M1605.351,657.872a17.668,17.668,0,1,1-17.668-17.668,17.668,17.668,0,0,1,17.668,17.668" transform="translate(-1391.604 -567.454)" fill="#fff"/>
              <path id="Trazado_696853" data-name="Trazado 696853" d="M1589.323,640.274a17.4,17.4,0,0,0-11.817,3.159l2.488,2.481a13.719,13.719,0,0,1,9.011-2.246,14.26,14.26,0,1,1-15.526,12.871,17.133,17.133,0,0,1,1.982-6.529l-2.34-2.334a18.661,18.661,0,0,0-3.035,8.545,17.668,17.668,0,1,0,19.236-15.947" transform="translate(-1391.599 -567.448)" fill="#f0f2f5"/>
              <path id="Trazado_696854" data-name="Trazado 696854" d="M1651.867,753.143l-6.545-6.043,2.192-2.374,4.273,3.945,9.522-9.449,2.276,2.293Z" transform="translate(-1458.354 -655.22)" fill="#f0f2f5"/>
              <g transform="matrix(1, 0, 0, 1, 11, 9)" filter="url(#Trazado_696855)">
                <path id="Trazado_696855-2" data-name="Trazado 696855" d="M286.979,627a19.318,19.318,0,1,1-19.318-19.318A19.318,19.318,0,0,1,286.979,627" transform="translate(-231.12 -547.63)" fill="#fff"/>
              </g>
              <path id="Trazado_696856" data-name="Trazado 696856" d="M326.239,724.545,318.069,717l2.656-2.877,5.416,5L338.15,707.21l2.758,2.779Z" transform="translate(-281.925 -626.845)" fill="#b0c0d2"/>
              <g transform="matrix(1, 0, 0, 1, 11, 9)" filter="url(#Trazado_696857)">
                <path id="Trazado_696857-2" data-name="Trazado 696857" d="M1445.842,180.474a8.265,8.265,0,1,1-8.266-8.265,8.265,8.265,0,0,1,8.266,8.265" transform="translate(-1277.89 -161.64)" fill="#fff"/>
              </g>
              <path id="Trazado_696858" data-name="Trazado 696858" d="M1462.641,222.211l-3.5-3.228,1.137-1.231,2.318,2.14,5.138-5.1,1.18,1.189Z" transform="translate(-1293.333 -190.386)" fill="#f0f2f5"/>
              <rect id="Rectángulo_344469" data-name="Rectángulo 344469" width="4.311" height="4.311" transform="translate(196.549 26.945) rotate(-22.387)" fill="#f0f2f5"/>
              <rect id="Rectángulo_344470" data-name="Rectángulo 344470" width="10.5" height="10.5" transform="translate(40.196 136.998) rotate(-69.244)" fill="#f0f2f5"/>
              <rect id="Rectángulo_344471" data-name="Rectángulo 344471" width="10.5" height="10.5" transform="matrix(0.354, -0.935, 0.935, 0.354, 208.385, 54.031)" fill="#f0f2f5"/>
              <rect id="Rectángulo_344472" data-name="Rectángulo 344472" width="6.618" height="6.618" transform="translate(45.49 46.861) rotate(-40.779)" fill="#f0f2f5"/>
              <g transform="matrix(1, 0, 0, 1, 11, 9)" filter="url(#Rectángulo_344473)">
                <rect id="Rectángulo_344473-2" data-name="Rectángulo 344473" width="6.618" height="6.618" transform="matrix(0.35, -0.94, 0.94, 0.35, 135.91, 12.49)" fill="#fff"/>
              </g>
              <rect id="Rectángulo_344474" data-name="Rectángulo 344474" width="6.618" height="6.618" transform="matrix(0.354, -0.935, 0.935, 0.354, 218.001, 113.156)" fill="#f0f2f5"/>
              <rect id="Rectángulo_344475" data-name="Rectángulo 344475" width="3.685" height="3.685" transform="translate(104.422 20.344) rotate(-12.141)" fill="#f0f2f5"/>
              <rect id="Rectángulo_344476" data-name="Rectángulo 344476" width="3.685" height="3.685" transform="translate(24.147 115.594) rotate(-12.141)" fill="#f0f2f5"/>
              <rect id="Rectángulo_344509" data-name="Rectángulo 344509" width="31" height="29" transform="translate(176 196)" fill="#fff"/>
            </g>
          </g>
          <g id="Grupo_951913" data-name="Grupo 951913">
            <g id="Grupo_951912" data-name="Grupo 951912" clip-path="url(#clip-path-9)">
              <path id="Trazado_696859" data-name="Trazado 696859" d="M708.924,961.76c.338-14.319,1.37-25.356,1.37-25.356a53.874,53.874,0,0,0,23.85-5.874c-.97-34.7-8.807-49.96-11.489-50.962-.507-3.751-9.434-6.842-14.368-10.715a4.213,4.213,0,0,0-3.915-1.829l-17.254,1.757s-8.89.4-14.336-.69c-1.83-.366-4.448-.7-5.537,1.139-10.315,3.75-21.511,4.088-23.859,7.376-11.463,1.845-17.058,24.887-23.7,39.148,0,0,7.126,6.364,14.589,6.1,0,0,.912,11.109,3.738,15.889l-2.388,20.623s-3.588,5.171-1.09,8.442l-3.464,26.839h88.206c-4.08-11.327-7.84-22.215-7.84-22.215,2.768-4.329-2.518-9.672-2.518-9.672" transform="translate(-549.271 -768.48)" fill="#455a64"/>
              <path id="Trazado_696860" data-name="Trazado 696860" d="M1031.132,729.188c-6.634,5.847-5.97,18.678,7.451,16.028,15.695-3.1,27.87-16.884,27.87-16.884s-10.381-2.343-9.594-19.183H1031.3Z" transform="translate(-910.316 -628.564)" fill="#ffc09d"/>
              <path id="Trazado_696861" data-name="Trazado 696861" d="M877.98,366.982s-6.144,4.294-4.216,9.151a3.406,3.406,0,0,1,.747-1.866s-.524,3.076,1.854,4.527c0,0-.959-3.55,2.194-5.234a3.093,3.093,0,0,0,3.407,1.663,2.238,2.238,0,0,1-1.88.779,5.926,5.926,0,0,0,5.589-.176,7.385,7.385,0,0,0,7.419.406l29.4.6c2.494-7.227,12.332-42.647-11.6-54.359,0,0-35.145,10.335-34.117,25.558s1.2,18.951,1.2,18.951" transform="translate(-774.141 -285.827)" fill="#1b1a2e"/>
              <path id="Trazado_696862" data-name="Trazado 696862" d="M988.669,375.317h0a18.189,18.189,0,0,0,18.556-17.814l.453-22.215a18.189,18.189,0,0,0-36.37-.742l-.453,22.215a18.189,18.189,0,0,0,17.814,18.556" transform="translate(-860.527 -280.736)" fill="#ffc09d"/>
              <path id="Trazado_696863" data-name="Trazado 696863" d="M1066.194,818.665l-.075,3.68c2.31.209,6.042.378,9.428-1.221-2.737.588-7.088-.885-9.353-2.459" transform="translate(-944.969 -725.635)" fill="#ff9b6c"/>
              <path id="Trazado_696864" data-name="Trazado 696864" d="M1024.636,542.321a1.637,1.637,0,1,0,1.67-1.6,1.637,1.637,0,0,0-1.67,1.6" transform="translate(-908.2 -479.272)" fill="#1b1a2e"/>
              <path id="Trazado_696865" data-name="Trazado 696865" d="M1006.169,534.246a4.808,4.808,0,0,1,3.394-1.253,3.349,3.349,0,0,1,.464.043l.231.029c.077.012.151.035.227.053.15.04.3.076.45.119s.288.114.431.174l.214.089.2.113.4.225c.255.171.5.36.739.545-.269-.148-.521-.319-.789-.459l-.409-.2-.2-.1-.214-.074c-.143-.048-.284-.1-.425-.149s-.292-.067-.438-.1c-.073-.015-.145-.038-.219-.048l-.223-.025a3.232,3.232,0,0,0-.446-.037,5.121,5.121,0,0,0-1.77.242c-.145.041-.283.1-.426.151s-.276.121-.412.188a5.151,5.151,0,0,0-.78.469" transform="translate(-891.832 -472.421)" fill="#1b1a2e"/>
              <path id="Trazado_696866" data-name="Trazado 696866" d="M1175.815,545.406a1.637,1.637,0,1,0,1.67-1.6,1.637,1.637,0,0,0-1.67,1.6" transform="translate(-1042.2 -482.006)" fill="#1b1a2e"/>
              <path id="Trazado_696867" data-name="Trazado 696867" d="M1157.348,537.331a4.808,4.808,0,0,1,3.394-1.253,3.35,3.35,0,0,1,.464.043l.231.029c.077.012.151.035.227.053.15.04.3.077.45.119s.288.114.431.174l.214.089.2.113.4.225c.255.171.5.36.739.545-.269-.148-.521-.319-.789-.459l-.409-.2-.2-.1-.214-.073c-.143-.048-.285-.1-.426-.149s-.292-.067-.438-.1c-.073-.015-.145-.038-.219-.048l-.223-.025a3.24,3.24,0,0,0-.446-.037,5.124,5.124,0,0,0-1.77.242c-.145.041-.283.1-.425.151s-.276.121-.411.188a5.153,5.153,0,0,0-.78.469" transform="translate(-1025.831 -475.156)" fill="#1b1a2e"/>
              <path id="Trazado_696868" data-name="Trazado 696868" d="M1086,617.186c-.072.706-.165,1.408-.262,2.109s-.205,1.4-.316,2.1a4.5,4.5,0,0,0-.1,1.034,2.957,2.957,0,0,0,.21,1,1.761,1.761,0,0,0,.613.8c.291.2.589.394.878.6-.314-.166-.62-.342-.931-.514a1.876,1.876,0,0,1-.7-.825,2.882,2.882,0,0,1-.259-1.056,4.545,4.545,0,0,1,.093-1.076c.116-.7.231-1.4.363-2.093s.262-1.392.416-2.085" transform="translate(-961.814 -547.051)" fill="#1b1a2e"/>
              <path id="Trazado_696869" data-name="Trazado 696869" d="M1094.468,698.321a3.524,3.524,0,0,1-.442,1.025,3.438,3.438,0,0,1-1.88,1.441,3.223,3.223,0,0,1-1.242.135,3.444,3.444,0,0,1-.6-.1,3.521,3.521,0,0,1-.551-.211,3.137,3.137,0,0,1-1.543-1.574c.5,0,.932.017,1.325.025.218,0,.421.006.615,0,.136,0,.265-.021.391-.021.123-.02.245-.023.357-.046a4.533,4.533,0,0,0,.652-.148,6.452,6.452,0,0,0,1.329-.606c.266-.151.534-.323.829-.514.25-.16.518-.335.815-.521a2.686,2.686,0,0,1-.053,1.118" transform="translate(-964.548 -617.975)" fill="#e43f5a"/>
              <path id="Trazado_696870" data-name="Trazado 696870" d="M1104.039,701.785a2.626,2.626,0,0,1-1.771,1.812,2.566,2.566,0,0,1-1.973-.185,2.738,2.738,0,0,1-.43-.292c.218,0,.421.007.615,0,.136,0,.265-.021.391-.02.122-.02.245-.023.357-.046a4.5,4.5,0,0,0,.652-.148,6.454,6.454,0,0,0,1.329-.606c.266-.151.534-.323.829-.514" transform="translate(-974.88 -622.037)" fill="#fff"/>
              <path id="Trazado_696871" data-name="Trazado 696871" d="M1006.988,486.965a2.407,2.407,0,0,1,.516-.948,3.737,3.737,0,0,1,.379-.376c.068-.057.14-.109.213-.162a1.793,1.793,0,0,1,.224-.15,3.742,3.742,0,0,1,2.093-.533,3.178,3.178,0,0,1,.547.06l.27.05c.089.021.174.052.26.082.171.059.341.123.5.2s.31.181.458.277c.075.046.147.1.218.15s.133.116.2.179c.128.121.248.249.363.378a3.028,3.028,0,0,1,.29.444,2.968,2.968,0,0,1,.224.491,6.971,6.971,0,0,1-1.014-.069c-.156-.011-.307-.023-.45-.043-.073-.007-.141-.02-.21-.032s-.143,0-.21-.013c-.137-.012-.27-.024-.4-.046-.131-.006-.259-.01-.383-.025-.063,0-.124-.019-.186-.02s-.123,0-.185,0l-.182-.013a.827.827,0,0,0-.181-.008c-.484-.028-.965-.011-1.5.007s-1.116.073-1.851.127" transform="translate(-892.557 -429.703)" fill="#1b1a2e"/>
              <path id="Trazado_696872" data-name="Trazado 696872" d="M1158.167,490.05a2.406,2.406,0,0,1,.516-.948,3.771,3.771,0,0,1,.379-.376c.068-.057.14-.109.213-.162a1.8,1.8,0,0,1,.224-.15,3.742,3.742,0,0,1,2.094-.533,3.174,3.174,0,0,1,.547.06l.27.05c.089.021.174.052.26.082.171.059.341.122.5.2s.31.181.458.277c.075.046.147.1.218.15s.133.116.2.179c.128.121.248.249.363.378a3.022,3.022,0,0,1,.29.444,2.983,2.983,0,0,1,.224.491,6.993,6.993,0,0,1-1.014-.069c-.156-.011-.307-.023-.45-.043-.073-.007-.142-.02-.21-.032s-.143,0-.21-.013c-.137-.012-.27-.024-.4-.046-.131-.006-.259-.01-.383-.025-.063,0-.124-.019-.186-.02s-.123,0-.184,0l-.182-.013a.829.829,0,0,0-.181-.008c-.484-.028-.965-.011-1.5.007s-1.116.073-1.851.127" transform="translate(-1026.557 -432.437)" fill="#1b1a2e"/>
              <path id="Trazado_696873" data-name="Trazado 696873" d="M914.336,261.9s-4.614-1.791-11.576,3.66-11.9,15.2-19.528,19.145c0,0-2.654,17.5,5.286,22.6,0,0-6.29,1.037-7.783-7.371,0,0-9.042-8.219,7.451-36.187,2.883-6.428,22.437-20.673,42.165-4.938,0,0,9.716,5.506,12.186,24.131,0,0,7.979,25.666-12.64,30.581,0,0-6.061,5.736-10.958,1.413,0,0,3.523-1.036,4.784-2.6,0,0-6.8,3.032-10.506.063,0,0,8.109-1.1,10.447-4.94,0,0-3.721,3.611-7.128-.344,0,0,14.7-.64,12.764-20.594,0,0-10.626,4.773-11.718-7.619-1.057-11.992-3.245-17-3.245-17" transform="translate(-778.459 -223.069)" fill="#1b1a2e"/>
              <path id="Trazado_696874" data-name="Trazado 696874" d="M865.168,394.062a9.032,9.032,0,0,1-3.33-3.776,11.44,11.44,0,0,1-1.121-4.96,19.076,19.076,0,0,1,.8-4.993,38.571,38.571,0,0,1,1.689-4.746l.518-1.151c.176-.38.359-.756.544-1.132.367-.752.732-1.505,1.11-2.252.749-1.5,1.495-3,2.274-4.477s1.578-2.953,2.4-4.412,1.653-2.913,2.554-4.33l.053.03c-1.438,3.024-2.9,6.033-4.429,9.011s-3.139,5.918-4.721,8.854a22.546,22.546,0,0,0-1.8,4.654c-.1.4-.176.814-.262,1.221l-.086.618c-.028.206-.061.411-.073.618a17.372,17.372,0,0,0-.064,2.475,16.824,16.824,0,0,0,.3,2.438,11.735,11.735,0,0,0,.74,2.335,11.456,11.456,0,0,0,1.229,2.128,11.682,11.682,0,0,0,.789.955,8.108,8.108,0,0,0,.916.841Z" transform="translate(-762.908 -317.171)" fill="#1b1a2e"/>
              <path id="Trazado_696875" data-name="Trazado 696875" d="M1195.518,341.633a27.928,27.928,0,0,1,1.318,4.307c.164.733.321,1.468.445,2.209.14.738.241,1.483.337,2.227s.15,1.494.2,2.243l.074,1.122c.018.375.03.75.055,1.123l.271,4.486c.028.375.046.746.084,1.115s.086.736.149,1.1a10.968,10.968,0,0,0,.555,2.116,5.688,5.688,0,0,0,1.077,1.828,4.6,4.6,0,0,0,1.707,1.179,6.7,6.7,0,0,0,2.083.438,12.754,12.754,0,0,0,2.19-.062,34.891,34.891,0,0,0,4.385-.825l.018.058a22.443,22.443,0,0,1-4.336,1.258,11.812,11.812,0,0,1-2.286.178,6.86,6.86,0,0,1-2.3-.439,5.246,5.246,0,0,1-1.051-.567,4.879,4.879,0,0,1-.879-.81,6.27,6.27,0,0,1-1.132-2.048,10.363,10.363,0,0,1-.465-2.246c-.074-.755-.071-1.517-.076-2.262a43.188,43.188,0,0,0-.228-4.476c-.036-.372-.086-.742-.129-1.113l-.157-1.11c-.094-.741-.236-1.475-.334-2.213-.441-2.948-.911-5.891-1.633-8.793Z" transform="translate(-1059.613 -302.811)" fill="#1b1a2e"/>
              <path id="Trazado_696876" data-name="Trazado 696876" d="M927.94,502.618a13.6,13.6,0,0,1-1.258,1.4,16.831,16.831,0,0,1-1.418,1.244,14.669,14.669,0,0,1-1.562,1.063,10.089,10.089,0,0,1-1.7.813c.515-.362,1.027-.715,1.53-1.079s1-.734,1.485-1.118.972-.769,1.457-1.159.966-.787,1.469-1.167" transform="translate(-817.226 -445.502)" fill="#1f4068"/>
              <path id="Trazado_696877" data-name="Trazado 696877" d="M1000.041,338.553a11.869,11.869,0,0,0-3.669.016,20.372,20.372,0,0,0-3.568.868,19.892,19.892,0,0,0-6.5,3.46c-.971.763-1.91,1.564-2.834,2.384s-1.824,1.667-2.74,2.5a55.193,55.193,0,0,1-5.747,4.723l-.025-.032c1.887-1.608,3.666-3.32,5.478-5.011q1.363-1.263,2.783-2.471a35.692,35.692,0,0,1,2.953-2.274c.254-.179.509-.356.772-.522l.391-.253q.192-.131.393-.25c.267-.159.526-.33.794-.487l.809-.461.4-.235.414-.214c.275-.145.548-.294.826-.435.566-.257,1.127-.534,1.716-.744a14.721,14.721,0,0,1,3.642-.861,9.582,9.582,0,0,1,3.719.259Z" transform="translate(-864.169 -299.757)" fill="#1f4068"/>
              <path id="Trazado_696878" data-name="Trazado 696878" d="M1215.063,578.962a16.241,16.241,0,0,0,6.254-2.392,12.376,12.376,0,0,0,2.606-2.132,11.886,11.886,0,0,0,1.871-2.809,20.558,20.558,0,0,0,1.8-6.469,40.764,40.764,0,0,0,.214-6.769l.041,0q.113.845.208,1.695c.044.567.075,1.137.105,1.707.013.57,0,1.142,0,1.713l-.059.856c-.026.285-.031.572-.074.855l-.121.851c-.022.142-.038.284-.064.425l-.091.42-.184.84-.237.827c-.04.138-.077.276-.12.413l-.147.4c-.1.268-.192.54-.307.8s-.236.523-.357.782-.272.5-.406.757a17.51,17.51,0,0,1-1.969,2.793,13.855,13.855,0,0,1-2.516,2.326,12.418,12.418,0,0,1-3.075,1.534,11.3,11.3,0,0,1-3.365.616Z" transform="translate(-1076.988 -494.934)" fill="#1f4068"/>
              <path id="Trazado_696879" data-name="Trazado 696879" d="M908.7,683.072a7.468,7.468,0,0,1-3.132.178,6.6,6.6,0,0,1-1.539-.428,6.172,6.172,0,0,1-1.387-.811,6.341,6.341,0,0,1-1.909-2.538,9.066,9.066,0,0,1-.7-3.059,12.759,12.759,0,0,0,.992,2.925c.108.232.244.447.37.667.063.11.142.21.212.315a3.051,3.051,0,0,0,.226.3,5.744,5.744,0,0,0,1.063,1.066,6.593,6.593,0,0,0,2.732,1.248,9.674,9.674,0,0,0,3.074.133" transform="translate(-797.751 -599.549)" fill="#1f4068"/>
              <path id="Trazado_696880" data-name="Trazado 696880" d="M919,496.147c-.151,1.209-.277,2.42-.363,3.633s-.16,2.427-.2,3.641a55.921,55.921,0,0,0,.211,7.272,33.041,33.041,0,0,0,.545,3.588,21.73,21.73,0,0,0,1.019,3.472,12.915,12.915,0,0,0,1.738,3.158,8.727,8.727,0,0,0,2.711,2.378,8.431,8.431,0,0,1-2.867-2.254,12.449,12.449,0,0,1-1.876-3.163,25,25,0,0,1-1.675-7.139,47.768,47.768,0,0,1-.122-7.326,54.508,54.508,0,0,1,.878-7.261" transform="translate(-813.711 -439.767)" fill="#1f4068"/>
              <path id="Trazado_696881" data-name="Trazado 696881" d="M1116.991,327.783a4.373,4.373,0,0,0-1.187-.515,6.044,6.044,0,0,0-1.26-.212,7.451,7.451,0,0,0-2.521.324,9.936,9.936,0,0,0-1.213.421l-.151.056-.146.07-.291.14-.585.278c-.373.218-.758.419-1.133.64s-.734.469-1.115.691c.325-.293.663-.574,1-.856.353-.262.722-.5,1.09-.751.19-.113.386-.216.582-.32l.294-.157.147-.078.153-.065a9.489,9.489,0,0,1,1.255-.459,6.61,6.61,0,0,1,2.661-.248,5.219,5.219,0,0,1,1.3.339,3.56,3.56,0,0,1,1.121.7" transform="translate(-981.55 -289.572)" fill="#1f4068"/>
              <path id="Trazado_696882" data-name="Trazado 696882" d="M1201.784,296.4a12.653,12.653,0,0,1,2.808-2.122,12.5,12.5,0,0,1,3.294-1.306,9.951,9.951,0,0,1,3.543-.2,9.082,9.082,0,0,1,3.341,1.108,12.264,12.264,0,0,0-1.665-.523c-.279-.078-.566-.118-.849-.172l-.429-.055a4.182,4.182,0,0,0-.429-.041,10.292,10.292,0,0,0-1.721.011,10.682,10.682,0,0,0-1.7.272,14.657,14.657,0,0,0-3.238,1.189q-.776.389-1.518.849a15.681,15.681,0,0,0-1.439.993" transform="translate(-1065.218 -259.437)" fill="#1f4068"/>
              <path id="Trazado_696883" data-name="Trazado 696883" d="M1235.06,336.131c-.262-.584-.5-1.179-.731-1.774s-.446-1.2-.661-1.8c-.419-1.209-.813-2.426-1.162-3.657s-.641-2.478-.921-3.725l-.848-3.74c-.28-1.246-.612-2.48-.926-3.716s-.655-2.463-1.053-3.667c-.2-.6-.407-1.2-.651-1.781a10.375,10.375,0,0,0-.851-1.674,4.288,4.288,0,0,0-1.273-1.328,2.846,2.846,0,0,0-.854-.348,3.276,3.276,0,0,0-.939-.06l-.005-.04a2.849,2.849,0,0,1,1.908.258,4.208,4.208,0,0,1,1.441,1.33,13.012,13.012,0,0,1,1.637,3.51c.2.611.368,1.232.53,1.852s.312,1.243.445,1.869c.28,1.249.485,2.513.734,3.765a73.491,73.491,0,0,0,1.975,7.394q1.071,3.673,2.244,7.319Z" transform="translate(-1085.072 -273.672)" fill="#1f4068"/>
              <path id="Trazado_696884" data-name="Trazado 696884" d="M1302.322,348.692a25.862,25.862,0,0,1,3.428,5.964,38.685,38.685,0,0,1,2.095,6.575c.113.565.213,1.132.32,1.7.05.284.112.565.151.85l.109.857c.067.572.148,1.142.2,1.714l.106,1.723.051.861v.863l-.01,1.724c0,.287-.02.574-.042.86l-.062.859q-.06.859-.132,1.715.006-.861.025-1.72l.016-.859c.007-.286.014-.572,0-.858l-.057-1.715-.026-.857-.074-.854-.144-1.707c-.063-.567-.154-1.132-.229-1.7l-.115-.848c-.04-.282-.1-.561-.154-.842-.109-.56-.211-1.121-.325-1.68a44.533,44.533,0,0,0-1.99-6.542l-.316-.8-.348-.782c-.119-.259-.225-.526-.355-.78l-.38-.768a24.583,24.583,0,0,0-1.737-2.958" transform="translate(-1154.331 -309.068)" fill="#1f4068"/>
              <path id="Trazado_696885" data-name="Trazado 696885" d="M1195.832,330.84a1.065,1.065,0,0,1,.854-.041,1.708,1.708,0,0,1,.712.511,3.4,3.4,0,0,1,.478.726,5.711,5.711,0,0,1,.331.795,16.218,16.218,0,0,1,.643,3.329c.133,1.114.245,2.231.428,3.338a33.358,33.358,0,0,0,.719,3.285,50.257,50.257,0,0,0,2.127,6.354,32.995,32.995,0,0,0,3.136,5.912l-.032.025a22.421,22.421,0,0,1-3.5-5.769,30.036,30.036,0,0,1-1.133-3.191c-.328-1.08-.59-2.177-.809-3.281s-.42-2.209-.634-3.313-.444-2.2-.634-3.313c-.093-.553-.168-1.114-.251-1.661a13.06,13.06,0,0,0-.356-1.62,4.8,4.8,0,0,0-.676-1.481,1.654,1.654,0,0,0-.6-.52,1.038,1.038,0,0,0-.784-.051Z" transform="translate(-1059.942 -293.146)" fill="#1f4068"/>
              <path id="Trazado_696886" data-name="Trazado 696886" d="M1108.074,292.674a5.385,5.385,0,0,0-2.7-2.352,7.462,7.462,0,0,0-3.557-.42,15.054,15.054,0,0,0-3.554.839c-1.157.41-2.289.9-3.41,1.431a20.224,20.224,0,0,1,3.3-1.728,15.723,15.723,0,0,1,1.774-.6,12.065,12.065,0,0,1,1.853-.342,8.4,8.4,0,0,1,1.894.018,6.4,6.4,0,0,1,1.828.517,5.354,5.354,0,0,1,1.55,1.083,5.194,5.194,0,0,1,.593.731,3.672,3.672,0,0,1,.43.828" transform="translate(-970.44 -256.561)" fill="#1f4068"/>
              <path id="Trazado_696887" data-name="Trazado 696887" d="M958.028,319.9a41.172,41.172,0,0,0-4.765,4.521c-.371.4-.742.807-1.093,1.228-.18.207-.349.423-.524.635s-.336.434-.495.658a20.513,20.513,0,0,0-1.689,2.824c-.122.245-.237.495-.355.741l-.337.749c-.235.5-.453,1.01-.71,1.5a28.083,28.083,0,0,1-1.659,2.879,21.507,21.507,0,0,1-2.064,2.608,11.7,11.7,0,0,1-2.546,2.126l-.021-.035a14.589,14.589,0,0,0,2.327-2.3,28.941,28.941,0,0,0,1.942-2.636c.293-.461.592-.918.867-1.391.29-.464.549-.946.813-1.425.137-.237.253-.485.38-.728l.376-.731c.125-.246.251-.494.381-.737s.268-.484.408-.723c.557-.956,1.16-1.88,1.779-2.793s1.26-1.815,1.966-2.669a22.155,22.155,0,0,1,2.33-2.363,17.856,17.856,0,0,1,2.666-1.969Z" transform="translate(-834.75 -283.518)" fill="#1f4068"/>
              <path id="Trazado_696888" data-name="Trazado 696888" d="M1283.659,299.31a6.912,6.912,0,0,1,2.4.727,8.54,8.54,0,0,1,2.049,1.479,16.244,16.244,0,0,1,2.994,4.051l.155.274.14.282.28.564.28.564.252.576c.164.386.335.768.492,1.156l.443,1.175c.072.2.148.391.217.588l.2.6.385,1.193c.123.4.226.8.339,1.206s.221.805.325,1.209c-.3-.781-.56-1.572-.854-2.352l-.447-1.166-.22-.584c-.076-.194-.159-.384-.238-.576l-.475-1.152c-.165-.381-.343-.756-.514-1.134l-.257-.567-.281-.555-.281-.554-.141-.277-.154-.269a17.838,17.838,0,0,0-2.858-4.021c-.146-.144-.288-.294-.438-.434l-.472-.4a4.866,4.866,0,0,0-.494-.368,4.5,4.5,0,0,0-.519-.333,7.408,7.408,0,0,0-2.3-.9" transform="translate(-1137.789 -265.297)" fill="#1f4068"/>
              <path id="Trazado_696889" data-name="Trazado 696889" d="M1389.872,459.809l1.243,3.387c.414,1.128.844,2.248,1.243,3.381s.819,2.262,1.326,3.352c.251.545.518,1.087.757,1.642l.18.416.164.423c.115.28.208.568.309.854a17.722,17.722,0,0,1,.786,3.549c.072.6.113,1.21.132,1.818s0,1.216-.047,1.821a25.362,25.362,0,0,1-.539,3.59c-.13.59-.278,1.174-.421,1.758s-.3,1.164-.4,1.756l-.04,0a15.9,15.9,0,0,1,.242-1.794c.108-.592.214-1.184.311-1.776a33.354,33.354,0,0,0,.418-3.559,23.956,23.956,0,0,0-.052-3.569,21.483,21.483,0,0,0-.649-3.514,17.905,17.905,0,0,0-.556-1.706c-.1-.283-.222-.556-.341-.832s-.246-.549-.369-.823c-.493-1.1-1.021-2.183-1.5-3.29s-.888-2.243-1.265-3.387-.71-2.3-.975-3.482Z" transform="translate(-1231.897 -407.558)" fill="#1f4068"/>
              <path id="Trazado_696890" data-name="Trazado 696890" d="M1327.108,311.444a22.065,22.065,0,0,1,2.723,2.907,24.573,24.573,0,0,1,2.225,3.311c.317.586.618,1.18.889,1.787.068.151.141.3.206.454l.189.461c.129.306.259.611.376.921l1.467,3.694c.494,1.23.962,2.469,1.418,3.712l1.361,3.73.669,1.867.336.933.349.927c.239.615.466,1.236.729,1.841a17.97,17.97,0,0,0,.849,1.787l-.034.022a13.489,13.489,0,0,1-1-1.723c-.3-.595-.574-1.2-.837-1.808-.523-1.22-1-2.456-1.466-3.7s-.884-2.5-1.314-3.75-.847-2.508-1.266-3.764-.865-2.5-1.38-3.721a26.942,26.942,0,0,0-1.83-3.5c-.679-1.128-1.4-2.228-2.183-3.29a35.679,35.679,0,0,0-2.5-3.068Z" transform="translate(-1176.275 -276.053)" fill="#1f4068"/>
              <path id="Trazado_696891" data-name="Trazado 696891" d="M1341.562,692.573a6.6,6.6,0,0,0,1.606-1.708,15.546,15.546,0,0,0,1.149-2.049c.34-.709.641-1.438.93-2.175s.557-1.483.824-2.237a14.479,14.479,0,0,1-.524,2.34,16.477,16.477,0,0,1-.863,2.246c-.178.361-.365.719-.571,1.065a9.78,9.78,0,0,1-.69,1,4.944,4.944,0,0,1-1.86,1.52" transform="translate(-1189.112 -606.631)" fill="#1f4068"/>
              <path id="Trazado_696892" data-name="Trazado 696892" d="M1359.7,685.811a2,2,0,0,0,.792.109,1.239,1.239,0,0,0,.653-.268,2.171,2.171,0,0,0,.275-.253c.086-.1.163-.2.248-.306s.159-.22.234-.338a3.98,3.98,0,0,1,.245-.352,3.478,3.478,0,0,1-.062.432,3.291,3.291,0,0,1-.142.417,1.3,1.3,0,0,1-.1.2,2.164,2.164,0,0,1-.12.193,1.705,1.705,0,0,1-.327.334,1.237,1.237,0,0,1-.909.26,1.186,1.186,0,0,1-.782-.425" transform="translate(-1205.192 -606.63)" fill="#1f4068"/>
              <path id="Trazado_696893" data-name="Trazado 696893" d="M1353.141,480.863a23.95,23.95,0,0,1,1.468,2.907,27.541,27.541,0,0,1,1.12,3.06c.3,1.045.534,2.107.761,3.167s.433,2.125.595,3.2a18.835,18.835,0,0,1,.232,3.258c0,.547-.046,1.093-.089,1.638l-.11.815c-.041.271-.105.539-.16.807a12.516,12.516,0,0,1-1.131,3.084,11.393,11.393,0,0,1-1.957,2.613l-.03-.027a14.219,14.219,0,0,0,1.7-2.729,14.471,14.471,0,0,0,.994-3.034,17.723,17.723,0,0,0,.4-3.178,26.121,26.121,0,0,0-.071-3.222,21.148,21.148,0,0,0-.5-3.2c-.256-1.05-.6-2.076-.955-3.094-.691-2.042-1.448-4.06-2.3-6.051Z" transform="translate(-1199.343 -426.219)" fill="#1f4068"/>
              <path id="Trazado_696894" data-name="Trazado 696894" d="M1278.317,643.862a12.108,12.108,0,0,0,2.137-1.55,16.678,16.678,0,0,0,1.83-1.89,19.122,19.122,0,0,0,2.744-4.462,22.606,22.606,0,0,0,.926-2.46c.119-.422.258-.839.354-1.268l.158-.64.135-.646a34.831,34.831,0,0,0,.629-5.252,25.213,25.213,0,0,1-.317,5.31l-.113.659-.145.652c-.088.437-.221.864-.332,1.3a21.96,21.96,0,0,1-.923,2.514,19.82,19.82,0,0,1-1.264,2.363,16.781,16.781,0,0,1-1.612,2.14,14.813,14.813,0,0,1-1.944,1.836,13.316,13.316,0,0,1-1.092.768,8.06,8.06,0,0,1-1.172.629" transform="translate(-1133.054 -554.593)" fill="#1f4068"/>
              <path id="Trazado_696895" data-name="Trazado 696895" d="M931.293,393.828c.083-.823.217-1.637.371-2.447s.335-1.614.534-2.414.427-1.594.692-2.376a16.551,16.551,0,0,1,.932-2.3c-.22.8-.422,1.591-.627,2.386l-.6,2.387c-.41,1.59-.809,3.183-1.3,4.761" transform="translate(-825.464 -340.625)" fill="#1f4068"/>
              <path id="Trazado_696896" data-name="Trazado 696896" d="M1194.01,267.464a2.139,2.139,0,0,0,.1-.986,1.976,1.976,0,0,0-.355-.88,2.9,2.9,0,0,0-.686-.667l-.412-.276c-.143-.085-.286-.17-.431-.251a15.035,15.035,0,0,0-1.824-.844q-.945-.363-1.929-.658a8.805,8.805,0,0,1,2.031.356,9.5,9.5,0,0,1,1.92.791c.151.088.3.18.447.272s.29.193.429.3a2.875,2.875,0,0,1,.721.8,2.018,2.018,0,0,1,.287,1.038,1.865,1.865,0,0,1-.3,1" transform="translate(-1053.419 -233.027)" fill="#1f4068"/>
              <path id="Trazado_696897" data-name="Trazado 696897" d="M1266.21,276.773a7.776,7.776,0,0,0-.2-1.168,4.511,4.511,0,0,0-.181-.539c-.066-.185-.158-.359-.237-.57a1.519,1.519,0,0,1,.81,1,1.665,1.665,0,0,1,.046.662,1.283,1.283,0,0,1-.235.612" transform="translate(-1121.772 -243.304)" fill="#1f4068"/>
              <path id="Trazado_696898" data-name="Trazado 696898" d="M1350.4,639.673a28.266,28.266,0,0,1-.609,4.445,23.031,23.031,0,0,1-1.349,4.3,13.56,13.56,0,0,1-1.077,2,7.635,7.635,0,0,1-1.511,1.708,4.3,4.3,0,0,1-4.288.8,4.779,4.779,0,0,0,2.194-.01,4.587,4.587,0,0,0,1.89-1.037,7.834,7.834,0,0,0,1.394-1.677,13.753,13.753,0,0,0,1.027-1.949,28.164,28.164,0,0,0,1.413-4.207q.277-1.079.506-2.173c.16-.728.289-1.462.411-2.2" transform="translate(-1189.112 -566.983)" fill="#1f4068"/>
              <path id="Trazado_696899" data-name="Trazado 696899" d="M921.617,733.758a3.268,3.268,0,0,1,.009,1.391c-.026.115-.048.231-.083.344l-.113.337c-.047.109-.1.216-.149.324s-.117.207-.175.311a3.706,3.706,0,0,1-.965,1.034,3.763,3.763,0,0,1-.6.366,4.98,4.98,0,0,1-.651.243c.179-.151.372-.269.545-.413a6.568,6.568,0,0,0,.5-.439c.076-.08.16-.151.233-.231l.213-.249a2.872,2.872,0,0,0,.2-.258,2.145,2.145,0,0,0,.181-.27,5.121,5.121,0,0,0,.558-1.179,6.925,6.925,0,0,0,.3-1.311" transform="translate(-814.472 -650.376)" fill="#1f4068"/>
              <path id="Trazado_696900" data-name="Trazado 696900" d="M983.536,763.381a3.194,3.194,0,0,1-.16.985,4.329,4.329,0,0,1-.406.915,3.707,3.707,0,0,1-.622.791,2.648,2.648,0,0,1-.833.557c.207-.267.413-.505.593-.766s.354-.519.512-.791.314-.546.463-.828Z" transform="translate(-869.979 -676.633)" fill="#1f4068"/>
              <path id="Trazado_696901" data-name="Trazado 696901" d="M1273.656,559.926l-.946-.019a3.384,3.384,0,0,1-3.314-3.452l.123-6.039a3.384,3.384,0,0,1,3.452-3.314l.946.019a3.384,3.384,0,0,1,3.314,3.452l-.123,6.039a3.384,3.384,0,0,1-3.452,3.314" transform="translate(-1125.146 -484.93)" fill="#ffc89f"/>
              <path id="Trazado_696902" data-name="Trazado 696902" d="M1299.163,578.716a1.626,1.626,0,0,1,1.139.433,2.488,2.488,0,0,1,.407.492,3.051,3.051,0,0,1,.268.578,3.631,3.631,0,0,1,.183,1.253,3.763,3.763,0,0,1-.263,1.25,2.711,2.711,0,0,1-.761,1.06,1.98,1.98,0,0,1-.589.354.754.754,0,0,1-.432.031.623.623,0,0,1-.373-.272,1.365,1.365,0,0,1-.185-.666,3.8,3.8,0,0,1,.017-.618,5.947,5.947,0,0,1,.25-1.175c0,.4,0,.793.036,1.179a4.377,4.377,0,0,0,.077.563,1.131,1.131,0,0,0,.179.448.131.131,0,0,0,.1.057.37.37,0,0,0,.147-.037,1.464,1.464,0,0,0,.4-.287,2.537,2.537,0,0,0,.573-.868,3.359,3.359,0,0,0,.243-1.049,3.656,3.656,0,0,0-.065-1.089,2.533,2.533,0,0,0-.434-.993,1.772,1.772,0,0,0-.915-.641" transform="translate(-1150.988 -512.952)" fill="#ff9b6c"/>
              <path id="Trazado_696903" data-name="Trazado 696903" d="M1293.532,575.221a1.612,1.612,0,0,1-.321-.688,1.722,1.722,0,0,1,0-.78,1.238,1.238,0,0,1,.177-.4.856.856,0,0,1,.365-.3.775.775,0,0,1,.806.131,1.191,1.191,0,0,0-.556.279,1.04,1.04,0,0,0-.2.443c-.047.184-.08.394-.118.614a5.618,5.618,0,0,1-.157.7" transform="translate(-1146.218 -507.878)" fill="#ff9b6c"/>
              <path id="Trazado_696904" data-name="Trazado 696904" d="M862.06,1088.562c.361.329.7.68,1.022,1.038.165.177.321.362.482.543l.467.555q.461.56.891,1.145c.287.39.565.787.817,1.206-.361-.329-.7-.679-1.023-1.037s-.643-.724-.949-1.1l-.453-.567c-.146-.193-.3-.382-.438-.579-.287-.39-.565-.787-.817-1.206" transform="translate(-764.099 -964.862)" fill="#fff"/>
              <path id="Trazado_696905" data-name="Trazado 696905" d="M1345.863,964.039c.361.329.7.68,1.022,1.038.165.177.321.362.482.543l.467.555q.461.56.891,1.145c.287.39.565.787.817,1.206-.361-.329-.7-.679-1.023-1.037s-.643-.723-.949-1.1l-.453-.567c-.146-.193-.3-.382-.438-.579-.287-.39-.565-.787-.817-1.206" transform="translate(-1192.924 -854.489)" fill="#fff"/>
              <path id="Trazado_696906" data-name="Trazado 696906" d="M1154.518,1202.763c-.329.361-.679.7-1.038,1.022-.177.166-.362.322-.543.482l-.555.467q-.56.461-1.145.891c-.39.287-.787.565-1.206.817.329-.361.679-.7,1.037-1.023s.724-.643,1.1-.949l.567-.453c.193-.146.382-.3.579-.438.39-.287.787-.565,1.206-.817" transform="translate(-1019.347 -1066.085)" fill="#fff"/>
              <path id="Trazado_696907" data-name="Trazado 696907" d="M1527.424,1122.728c-.329.361-.68.7-1.038,1.022-.177.165-.362.321-.543.482l-.555.467q-.56.461-1.145.891c-.39.287-.787.565-1.206.817.329-.361.679-.7,1.037-1.023s.723-.643,1.1-.949l.567-.453c.193-.146.382-.3.579-.438.39-.287.787-.565,1.206-.817" transform="translate(-1349.877 -995.145)" fill="#fff"/>
              <path id="Trazado_696908" data-name="Trazado 696908" d="M939.651,1355.35c.048-.486.128-.965.22-1.44.043-.238.1-.474.147-.711l.165-.706c.115-.469.245-.936.385-1.4s.293-.924.478-1.376c-.047.486-.128.965-.219,1.44s-.2.948-.312,1.417l-.183.7c-.067.232-.129.466-.2.7-.141.463-.292.924-.477,1.376" transform="translate(-832.872 -1196.341)" fill="#fff"/>
              <path id="Trazado_696909" data-name="Trazado 696909" d="M1047.289,1648.153c.361.329.7.68,1.022,1.038.165.177.322.362.482.543l.467.555q.461.56.891,1.145c.287.39.565.787.817,1.206-.362-.329-.7-.679-1.023-1.037s-.643-.723-.949-1.1l-.453-.567c-.146-.193-.3-.382-.438-.579-.287-.39-.565-.787-.817-1.206" transform="translate(-928.279 -1460.863)" fill="#fff"/>
              <path id="Trazado_696910" data-name="Trazado 696910" d="M1329.246,1742.613c-.329.361-.68.7-1.038,1.022-.177.165-.362.321-.543.482l-.555.467q-.56.461-1.145.891c-.39.287-.787.565-1.206.817.329-.361.679-.7,1.037-1.023s.723-.643,1.1-.949l.567-.453c.193-.146.382-.3.579-.438.39-.287.787-.565,1.206-.817" transform="translate(-1174.219 -1544.589)" fill="#fff"/>
              <path id="Trazado_696911" data-name="Trazado 696911" d="M796.393,1833.39c-.329.361-.68.7-1.038,1.022-.177.165-.362.322-.543.482l-.555.467q-.56.461-1.145.891c-.39.287-.787.565-1.206.817.329-.361.679-.7,1.037-1.023s.723-.643,1.1-.949l.567-.453c.193-.146.382-.3.579-.438.39-.287.787-.565,1.206-.817" transform="translate(-701.918 -1625.05)" fill="#fff"/>
              <path id="Trazado_696912" data-name="Trazado 696912" d="M1120.516,1916.026c.048-.486.128-.965.22-1.44.043-.238.1-.474.147-.711l.165-.706c.115-.47.245-.936.385-1.4s.293-.924.478-1.376c-.047.486-.128.965-.22,1.44s-.2.948-.312,1.417l-.183.7c-.067.232-.129.466-.2.7-.141.463-.293.924-.477,1.376" transform="translate(-993.185 -1693.304)" fill="#fff"/>
              <path id="Trazado_696913" data-name="Trazado 696913" d="M771.165,1594.026c.47-.135.944-.236,1.42-.326.237-.048.477-.084.715-.125l.718-.107c.479-.066.96-.117,1.442-.158s.967-.068,1.455-.063c-.47.135-.944.237-1.42.326s-.953.168-1.432.232l-.72.088c-.241.023-.481.052-.722.069-.483.04-.967.068-1.455.063" transform="translate(-683.533 -1412.196)" fill="#fff"/>
              <path id="Trazado_696914" data-name="Trazado 696914" d="M1429.8,1314.944c-.365-.325-.7-.671-1.035-1.025-.167-.175-.326-.358-.488-.537l-.474-.549q-.468-.554-.9-1.135c-.292-.386-.575-.78-.831-1.2.365.325.7.671,1.035,1.025s.651.716.962,1.087l.459.561c.149.191.3.378.445.573.292.386.575.78.832,1.2" transform="translate(-1264.018 -1161.581)" fill="#fff"/>
              <g id="Grupo_951893" data-name="Grupo 951893" transform="translate(131.201 197.143)" opacity="0.4" style="mix-blend-mode: multiply;isolation: isolate">
                <g id="Grupo_951892" data-name="Grupo 951892">
                  <g id="Grupo_951891" data-name="Grupo 951891" clip-path="url(#clip-path-12)">
                    <path id="Trazado_696915" data-name="Trazado 696915" d="M1154.572,1756.783s27.538-7.627,28.79-21.929c0,0-6.057,14.926-28.79,21.929" transform="translate(-1154.572 -1734.854)" fill="#a65b3c"/>
                  </g>
                </g>
              </g>
              <g id="Grupo_951896" data-name="Grupo 951896" transform="translate(86.401 192.201)" opacity="0.4" style="mix-blend-mode: multiply;isolation: isolate">
                <g id="Grupo_951895" data-name="Grupo 951895">
                  <g id="Grupo_951894" data-name="Grupo 951894" clip-path="url(#clip-path-13)">
                    <path id="Trazado_696916" data-name="Trazado 696916" d="M774.737,1703.494s-14.411-1.662-14.411-12.13a18.213,18.213,0,0,0,14.411,12.13" transform="translate(-760.326 -1691.364)" fill="#a65b3c"/>
                  </g>
                </g>
              </g>
              <g id="Grupo_951899" data-name="Grupo 951899" transform="translate(85.728 123.7)" opacity="0.4" style="mix-blend-mode: multiply;isolation: isolate">
                <g id="Grupo_951898" data-name="Grupo 951898">
                  <g id="Grupo_951897" data-name="Grupo 951897" clip-path="url(#clip-path-14)">
                    <path id="Trazado_696917" data-name="Trazado 696917" d="M757.2,1088.562s.962,5.12-1.07,15.124l-1.72-.506a29.93,29.93,0,0,0,2.79-14.618" transform="translate(-754.41 -1088.562)" fill="#a65b3c"/>
                  </g>
                </g>
              </g>
              <g id="Grupo_951902" data-name="Grupo 951902" transform="translate(153.519 138.517)" opacity="0.4" style="mix-blend-mode: multiply;isolation: isolate">
                <g id="Grupo_951901" data-name="Grupo 951901">
                  <g id="Grupo_951900" data-name="Grupo 951900" clip-path="url(#clip-path-15)">
                    <path id="Trazado_696918" data-name="Trazado 696918" d="M1350.966,1220.842q.039-.925.089-1.891s-.057.694-.089,1.891" transform="translate(-1350.967 -1218.952)" fill="#a65b3c"/>
                  </g>
                </g>
              </g>
              <g id="Grupo_951905" data-name="Grupo 951905" transform="translate(153.399 140.408)" opacity="0.4" style="mix-blend-mode: multiply;isolation: isolate">
                <g id="Grupo_951904" data-name="Grupo 951904">
                  <g id="Grupo_951903" data-name="Grupo 951903" clip-path="url(#clip-path-16)">
                    <path id="Trazado_696919" data-name="Trazado 696919" d="M1355.305,1261.2c-2.179.322-2.2-5.04-2.2-5.04-3.027-7.9-3.178-16.773-3.077-20.57-.129,3.071-.12,8.5-.12,8.5.461,20.134,6.184,19.569,6.184,19.569Z" transform="translate(-1349.909 -1235.588)" fill="#a65b3c"/>
                  </g>
                </g>
              </g>
              <g id="Grupo_951908" data-name="Grupo 951908" transform="translate(88.95 169.374)" opacity="0.4" style="mix-blend-mode: multiply;isolation: isolate">
                <g id="Grupo_951907" data-name="Grupo 951907">
                  <g id="Grupo_951906" data-name="Grupo 951906" clip-path="url(#clip-path-17)">
                    <path id="Trazado_696920" data-name="Trazado 696920" d="M853.8,1517.6s-20.173-4.268-35.709-14.279a35.7,35.7,0,0,0-15.342-5.453c-5.995-.674-14-2.517-19.989-7.375l33.636,6.3Z" transform="translate(-782.76 -1490.493)" fill="#a65b3c"/>
                  </g>
                </g>
              </g>
              <g id="Grupo_951911" data-name="Grupo 951911" transform="translate(81.805 198.329)" opacity="0.4" style="mix-blend-mode: multiply;isolation: isolate">
                <g id="Grupo_951910" data-name="Grupo 951910">
                  <g id="Grupo_951909" data-name="Grupo 951909" clip-path="url(#clip-path-18)">
                    <path id="Trazado_696921" data-name="Trazado 696921" d="M738.887,1772.138c-9.868-1.775-16.071-14.146-14.969-21.816.34-2.367,4.664-.651,4.664-.651a15.4,15.4,0,0,1-5.238-4.372l-3.464,26.839Z" transform="translate(-719.88 -1745.299)" fill="#a65b3c"/>
                  </g>
                </g>
              </g>
              <path id="Trazado_696923" data-name="Trazado 696923" d="M1154.3,885.563c-.434.658-.9,1.292-1.388,1.915s-.983,1.234-1.5,1.831q-1.548,1.791-3.25,3.442c-1.131,1.1-2.321,2.143-3.55,3.136s-2.5,1.935-3.815,2.809-2.678,1.679-4.076,2.416c-.347.188-.705.356-1.057.535l-.53.265c-.178.085-.359.164-.539.247-.36.163-.719.329-1.08.488l-1.1.443a40.377,40.377,0,0,1-9.132,2.427,44.02,44.02,0,0,0,4.605-1.052c.762-.2,1.5-.462,2.254-.7.373-.125.739-.271,1.108-.406l.553-.206c.185-.067.364-.15.546-.224l1.088-.456,1.073-.491c.178-.083.358-.162.535-.248l.527-.266c.35-.18.705-.348,1.05-.538,1.389-.739,2.734-1.557,4.048-2.422a54.705,54.705,0,0,0,7.37-5.881q1.716-1.622,3.288-3.39a42.775,42.775,0,0,0,2.971-3.673" transform="translate(-995.641 -784.931)" fill="#22323a"/>
              <path id="Trazado_696927" data-name="Trazado 696927" d="M1327.708,1243.064a11.961,11.961,0,0,1-1.1-1.824c-.077-.16-.157-.319-.229-.481l-.213-.489c-.131-.331-.26-.662-.372-1-.058-.168-.113-.337-.161-.509s-.1-.341-.147-.513c-.078-.347-.174-.69-.228-1.042a12.646,12.646,0,0,1-.213-2.117c.109.7.219,1.4.387,2.081.074.344.172.682.262,1.022l.152.5c.026.084.05.169.077.252l.086.249c.22.668.477,1.323.759,1.968s.588,1.281.935,1.9" transform="translate(-1174.476 -1094.738)" fill="#22323a"/>
              <g id="Grupo_990606" data-name="Grupo 990606">
                <path id="Trazado_696922" data-name="Trazado 696922" d="M1380.334,976.558a5.756,5.756,0,0,0-.978.028,9.418,9.418,0,0,0-.967.149,10.908,10.908,0,0,0-1.866.575,13.956,13.956,0,0,0-3.369,1.949,19.81,19.81,0,0,0-2.826,2.684c-.436.485-.827,1.006-1.225,1.521-.373.534-.76,1.059-1.1,1.617l-.264.411-.132.206-.123.211-.492.846-.123.211-.114.216-.227.433c-.15.29-.308.575-.451.869l-.419.885-.21.442c-.071.147-.13.3-.2.449l-.385.9c-.064.15-.132.3-.193.45l-.178.456c-.233.61-.486,1.213-.692,1.833l-.324.925-.161.463-.147.468-.3.934c-.1.312-.2.622-.287.938l-.54,1.886.482-1.9c.077-.318.173-.631.263-.946l.273-.943.139-.471.154-.466.309-.932c.2-.625.44-1.234.665-1.849a38.519,38.519,0,0,1,3.477-7.045c.344-.56.736-1.087,1.115-1.623.405-.517.8-1.041,1.244-1.528a18.768,18.768,0,0,1,2.877-2.687,14.033,14.033,0,0,1,3.433-1.914,11,11,0,0,1,1.894-.531,7.386,7.386,0,0,1,1.957-.118" transform="translate(-1207.273 -865.565)" fill="#22323a"/>
                <path id="Trazado_696924" data-name="Trazado 696924" d="M1005.251,893.739a15.655,15.655,0,0,0-1.287,1.933,16.819,16.819,0,0,0-1.015,2.083,13.5,13.5,0,0,0-1.028,4.482,11.827,11.827,0,0,0,.113,2.3,12.838,12.838,0,0,0,.594,2.227c.07.179.148.356.222.534l.112.267.131.258.263.516.3.5.147.25c.048.084.108.161.161.241l.329.479.082.12.09.114.18.228.358.459c-.253-.294-.521-.578-.759-.885l-.352-.466c-.057-.079-.121-.153-.173-.236l-.159-.245-.315-.493-.279-.514-.139-.258-.121-.267c-.08-.178-.164-.355-.239-.535a11.646,11.646,0,0,1-.635-2.257,11.382,11.382,0,0,1,.212-4.662,13.72,13.72,0,0,1,.747-2.219,15.189,15.189,0,0,1,2.462-3.949" transform="translate(-887.856 -792.178)" fill="#22323a"/>
                <path id="Trazado_696925" data-name="Trazado 696925" d="M1380.221,1390.875a45.861,45.861,0,0,1,6.427-1.936c1.091-.254,2.194-.46,3.3-.64.553-.092,1.108-.167,1.663-.244s1.113-.136,1.671-.186c1.117-.1,2.236-.167,3.358-.183l.42-.009c.14,0,.28,0,.42,0l.841.006c.56.02,1.121.031,1.68.078.56.032,1.117.092,1.675.149.279.027.556.072.834.107s.556.071.831.123l.828.145c.275.054.548.116.822.173l.411.088.407.1.812.211-.82-.178-.409-.09-.412-.075c-.275-.049-.549-.1-.825-.148l-.829-.12c-.276-.045-.553-.074-.831-.106s-.554-.069-.832-.091c-.557-.046-1.112-.1-1.67-.117s-1.115-.038-1.673-.056h-.837c-.139,0-.279,0-.418,0l-.418.011c-1.116.022-2.23.1-3.341.2a55.74,55.74,0,0,0-6.618,1.013q-1.64.344-3.257.787c-1.08.288-2.151.611-3.207.979" transform="translate(-1223.378 -1229.987)" fill="#22323a"/>
                <path id="Trazado_696926" data-name="Trazado 696926" d="M1350.373,1218.952c-.04.95-.059,1.9-.049,2.85,0,.475.011.95.016,1.424l.048,1.423c.083,1.9.23,3.791.468,5.674.061.47.112.942.181,1.412l.222,1.406.056.352.068.349.137.7c.094.465.173.933.288,1.394l.322,1.387c.117.46.254.914.379,1.372l.188.687c.069.227.148.451.221.677q.225.676.444,1.355a39.525,39.525,0,0,1-1.724-5.439,50.713,50.713,0,0,1-1.007-5.622c-.22-1.892-.371-3.792-.417-5.7a50.726,50.726,0,0,1,.159-5.7" transform="translate(-1196.765 -1080.435)" fill="#22323a"/>
                <path id="Trazado_696928" data-name="Trazado 696928" d="M1377.822,1416.6c.051.5.109,1,.18,1.495.038.247.075.494.124.738s.1.488.162.727a5.942,5.942,0,0,0,.221.706,3.71,3.71,0,0,0,.319.657,1.672,1.672,0,0,0,.492.522,1.247,1.247,0,0,0,.7.195,1.166,1.166,0,0,1-.755-.1,1.657,1.657,0,0,1-.583-.518,4.208,4.208,0,0,1-.614-1.407,8.8,8.8,0,0,1-.242-1.5,9.337,9.337,0,0,1,0-1.515" transform="translate(-1221.227 -1255.625)" fill="#22323a"/>
                <path id="Trazado_696929" data-name="Trazado 696929" d="M1129.016,1389.866a14.8,14.8,0,0,0,2.464.165,16.827,16.827,0,0,0,2.457-.188,16.633,16.633,0,0,0,2.4-.539,15.245,15.245,0,0,0,2.281-.91,14.765,14.765,0,0,0,3.97-2.865c.282-.3.575-.587.832-.908.131-.158.269-.311.4-.473l.37-.494.187-.246.173-.256.345-.513c.059-.084.113-.173.164-.262l.158-.266.32-.531c-.2.363-.38.734-.59,1.09l-.325.529-.163.264-.178.255-.36.507c-.123.167-.258.324-.386.487-.252.33-.54.629-.817.938-.068.079-.143.15-.218.223l-.223.218c-.15.144-.3.291-.458.422l-.475.4c-.163.128-.331.251-.5.377a14.106,14.106,0,0,1-2.125,1.3,15.562,15.562,0,0,1-9.7,1.269" transform="translate(-1000.719 -1224.583)" fill="#22323a"/>
                <path id="Trazado_696930" data-name="Trazado 696930" d="M1154.572,1756.783c1.515-.463,3.012-.98,4.494-1.537s2.953-1.142,4.4-1.776a65.557,65.557,0,0,0,8.422-4.351,34.355,34.355,0,0,0,7.372-5.9,18.112,18.112,0,0,0,2.724-3.854,13.459,13.459,0,0,0,.9-2.188,12.384,12.384,0,0,0,.478-2.32,12.54,12.54,0,0,1-1.276,4.558,18.209,18.209,0,0,1-2.693,3.921,27.537,27.537,0,0,1-3.481,3.249q-.932.742-1.912,1.421c-.652.453-1.314.892-1.989,1.309a63.234,63.234,0,0,1-8.473,4.318,74.381,74.381,0,0,1-8.965,3.153" transform="translate(-1023.371 -1537.712)" fill="#22323a"/>
                <path id="Trazado_696931" data-name="Trazado 696931" d="M774.714,1703.494a23.913,23.913,0,0,1-5.023-1.146,20.448,20.448,0,0,1-2.392-.982,17.489,17.489,0,0,1-2.244-1.291,13.293,13.293,0,0,1-1.982-1.672,11.682,11.682,0,0,1-.848-.984,9.57,9.57,0,0,1-.713-1.086,9.187,9.187,0,0,1-.558-1.172,8.866,8.866,0,0,1-.391-1.235,10.051,10.051,0,0,1-.26-2.563,10,10,0,0,0,1.36,4.883,10.515,10.515,0,0,0,1.558,2.013,13.137,13.137,0,0,0,1.963,1.629,19.989,19.989,0,0,0,4.565,2.3c.8.3,1.622.548,2.451.766a25.389,25.389,0,0,0,2.514.544" transform="translate(-673.902 -1499.164)" fill="#22323a"/>
                <path id="Trazado_696932" data-name="Trazado 696932" d="M755.606,1749.671a11.194,11.194,0,0,1-1.533-.8,14.248,14.248,0,0,1-1.418-.994,11.62,11.62,0,0,1-1.267-1.184,7.856,7.856,0,0,1-1.02-1.4,15.039,15.039,0,0,0,1.148,1.274c.1.1.209.194.311.293l.156.146.162.14c.108.092.212.19.322.28l.331.27c.444.357.9.7,1.372,1.023s.948.641,1.436.945" transform="translate(-665.099 -1546.97)" fill="#22323a"/>
                <path id="Trazado_696933" data-name="Trazado 696933" d="M1362.639,1793.214c.721-.485,1.417-1,2.1-1.535s1.342-1.093,1.973-1.682a20.788,20.788,0,0,0,1.787-1.872c.274-.334.538-.675.785-1.03a12.375,12.375,0,0,0,.681-1.106,9.589,9.589,0,0,1-.588,1.167,12.308,12.308,0,0,1-.74,1.081c-.266.347-.552.677-.846,1s-.608.627-.925.927a21.645,21.645,0,0,1-2.022,1.657,19.163,19.163,0,0,1-2.206,1.394" transform="translate(-1207.794 -1583.035)" fill="#22323a"/>
                <path id="Trazado_696934" data-name="Trazado 696934" d="M770.62,1088.562a15.926,15.926,0,0,1,.239,1.89c.028.317.036.635.054.952s.015.636.022.954c.012,1.272-.056,2.543-.161,3.81l-.089.949-.113.947-.059.473-.069.471-.144.942c-.1.627-.224,1.25-.339,1.875-.135.621-.267,1.242-.41,1.86.093-.628.2-1.253.3-1.88l.137-.941c.043-.314.1-.626.136-.941.074-.629.174-1.255.234-1.886l.106-.944.084-.946c.11-1.261.187-2.525.211-3.791l.006-.95c-.006-.316,0-.633-.017-.949-.014-.633-.052-1.266-.128-1.9" transform="translate(-682.101 -964.861)" fill="#22323a"/>
              </g>
              <path id="Trazado_696935" data-name="Trazado 696935" d="M620.355,610.328a16.922,16.922,0,0,1-.139-4.645.963.963,0,0,0-.957-1.055,3.557,3.557,0,0,0-.611.045,21.585,21.585,0,0,1,.114-2.851,1.69,1.69,0,0,0-.735-1.565l-3.525-2.383a1.7,1.7,0,0,0-1.6-.16,40.572,40.572,0,0,0-5.612,2.994.938.938,0,0,1-1.226-.2l-.319-.391a.938.938,0,0,1-.2-.776l1.4-7.075,1.859-6.555c1.577-3.378,1.174-5.176.432-6.123a1.215,1.215,0,0,0-2.1.372l-1.469,4.369L603.7,588.45l-2.059,4.62-.8-6.3c.444-2.581.19-4.1-.308-4.993a1.388,1.388,0,0,0-2.593.548l-.389,4.169-.125,6.052-.653,7.936-3.315-7.81c-.091-2.992-.784-4.445-1.542-5.132a1.2,1.2,0,0,0-1.978,1.008l.327,3.664,1.506,4.844.618,3.232a16.62,16.62,0,0,1,.151,5.289c-.743,5.657-1.117,10.643-1.281,13.244a14.863,14.863,0,0,1-.747,3.815l-.83,2.467a14.923,14.923,0,0,0-.732,3.593l-.126,1.641c-.025.318-.059.636-.1.951-2.58,17.848-8.242,23.392-8.083,49.642-1.111,6.942,3.91,8.377,3.91,8.377,12.96,5.457,18.712-6.72,18.712-6.72l-1.984-14.3a54.539,54.539,0,0,1,.686-16.144l-1.72-.506,1.344-20.68a9.285,9.285,0,0,1,1.518-4.515l.209-.317a9.471,9.471,0,0,1,3.872-3.321c2.287-1.083,4.085-2.924,6.848-4a2.936,2.936,0,0,0,1.478-1.255,31.969,31.969,0,0,1,4.32-5.461,1.982,1.982,0,0,0,.523-1.759m-4.906-.692a28.053,28.053,0,0,1-3.872,3.443,21.544,21.544,0,0,0-2.881-2.622,2.587,2.587,0,0,1-.495-3.555c.772-1.064,1.433-1.826,1.433-1.826a13.418,13.418,0,0,0,4.025-2.464l1.361.245a3.947,3.947,0,0,0,1.714,3.9,6.615,6.615,0,0,0-1.285,2.876" transform="translate(-514.514 -513.32)" fill="#ffc09d"/>
              <path id="Trazado_696936" data-name="Trazado 696936" d="M604.961,1314.473l-15.774-7.759a1.85,1.85,0,0,1-1.034-1.66,1.238,1.238,0,0,1,1.371-1.231l12.534,1.346a4.2,4.2,0,0,1,1.387.4l15.629,7.6a1.06,1.06,0,0,1,.6,1,1.171,1.171,0,0,1-1.192,1.12l-11.013-.206a5.923,5.923,0,0,1-2.5-.607" transform="translate(-521.318 -1155.655)" fill="#1f4168"/>
              <path id="Trazado_696937" data-name="Trazado 696937" d="M719.276,1326.966l1.966.925,1.961.936,3.913,1.888,3.9,1.912,1.947.964,1.941.975-1.966-.925-1.961-.936-3.913-1.888-3.9-1.912-1.947-.964Z" transform="translate(-637.54 -1176.174)" fill="#1b1a2e"/>
              <path id="Trazado_696938" data-name="Trazado 696938" d="M596.771,1311.613c1.167.1,2.333.216,3.5.332l3.5.362,3.492.388,1.745.2a5.781,5.781,0,0,1,.868.146,4.057,4.057,0,0,1,.821.313,4.367,4.367,0,0,0-.828-.284,5.756,5.756,0,0,0-.867-.119l-1.749-.172-3.5-.362-3.493-.388c-1.164-.134-2.327-.27-3.489-.419" transform="translate(-528.956 -1162.566)" fill="#1b1a2e"/>
              <path id="Trazado_696939" data-name="Trazado 696939" d="M763.162,1370.606s-.175,15.629-1.516,23.268c0,0,2.974,16.62-11.663,13.7,0,0-25.164-3.693-45.658-18.048a27.614,27.614,0,0,0-12.6-4.783,111.4,111.4,0,0,1-14.02-2.445,7.673,7.673,0,0,1-1.7-.663,58.426,58.426,0,0,0-6.879-3.141,7.544,7.544,0,0,1-1.642-.856,31.376,31.376,0,0,0-4.5-2.593,2.7,2.7,0,0,1-1.368-1.42l-1.95-4.685-1.354-.355a1.874,1.874,0,0,1-.722-.371,32.906,32.906,0,0,0-3.515-2.531,1,1,0,0,1,.24-1.813c1.154-.341,3.111-.251,6.306,1.508,0,0,8.4,2,11.93,4.315l6.023,1.332,3.764-.116a26.932,26.932,0,0,0-3.788-.746c-4.277-.683-6.552-2.643-5.275-4.96,1.569-2.849,6.844-.034,9.063.436,5.174,1.1,11.992-.286,16.392,6.981,0,0,12.146,11.734,40.588,10.994a52.185,52.185,0,0,0-1.481-9.876,54.115,54.115,0,0,1,25.313-3.138" transform="translate(-579.339 -1208.75)" fill="#ffc09d"/>
              <path id="Trazado_696940" data-name="Trazado 696940" d="M617.541,1330.428l2.81.229a2.84,2.84,0,0,1,1.122.333l2.462,1.333a.232.232,0,0,1-.133.435l-2.717-.266a2.839,2.839,0,0,1-1-.288l-2.669-1.339a.232.232,0,0,1,.123-.439" transform="translate(-547.143 -1179.242)" fill="#1b1a2e"/>
              <path id="Trazado_696941" data-name="Trazado 696941" d="M706.947,1409.63a14.355,14.355,0,0,1,1.728.769,13.509,13.509,0,0,1,1.62.982c.129.091.254.188.378.287s.247.2.367.3.236.2.362.3a3.165,3.165,0,0,0,.4.243,6.3,6.3,0,0,0,.878.33l.9.294q1.8.584,3.53,1.345a20.5,20.5,0,0,1,3.309,1.824l-.012.019c-1.106-.6-2.245-1.121-3.395-1.622-.575-.249-1.15-.5-1.73-.739l-1.745-.711c-.292-.115-.584-.232-.88-.338s-.6-.195-.885-.337a4.531,4.531,0,0,1-.805-.506c-.126-.093-.252-.185-.382-.272l-.194-.132-.2-.127a36.413,36.413,0,0,0-3.25-1.886Z" transform="translate(-626.604 -1249.445)" fill="#ff9b6c"/>
              <path id="Trazado_696942" data-name="Trazado 696942" d="M834.873,1474.756a2.269,2.269,0,0,1-1.052-.139,2.542,2.542,0,0,1-.905-.588c-.24-.258-.479-.5-.736-.731s-.521-.455-.792-.68a4.8,4.8,0,0,1,.905.544c.143.1.277.221.409.338s.256.251.375.37a2.985,2.985,0,0,0,.814.585,3.433,3.433,0,0,0,.982.3" transform="translate(-736.912 -1305.274)" fill="#ff9b6c"/>
              <path id="Trazado_696943" data-name="Trazado 696943" d="M906.5,1427.05a3.621,3.621,0,0,1,1.089.256c.087.036.175.07.26.11l.253.126a5.389,5.389,0,0,1,.479.3l.115.083.109.09c.072.061.147.118.215.183a4.289,4.289,0,0,1,.385.414,3.863,3.863,0,0,1,.584.955,8.687,8.687,0,0,0-.716-.836,5.87,5.87,0,0,0-.825-.7,6.441,6.441,0,0,0-.93-.561,7.431,7.431,0,0,0-1.018-.418" transform="translate(-803.487 -1264.885)" fill="#ff9b6c"/>
              <path id="Trazado_696944" data-name="Trazado 696944" d="M764.822,701.8a13.58,13.58,0,0,1,.176,1.449c.038.485.049.973.046,1.46,0,.244-.014.488-.027.731-.008.122-.021.243-.031.365l-.017.182-.026.182a4.882,4.882,0,0,1-.369,1.416,8.257,8.257,0,0,0,.193-1.434c.03-.481.047-.963.05-1.445.015-.966,0-1.933.006-2.906" transform="translate(-677.69 -622.05)" fill="#ff9b6c"/>
              <path id="Trazado_696945" data-name="Trazado 696945" d="M723.712,754.613c-.347,0-.692.005-1.036.03s-.687.051-1.029.091a14.188,14.188,0,0,0-2.021.381,10.137,10.137,0,0,0-.978.308,9.189,9.189,0,0,0-.943.4,8.193,8.193,0,0,0-1.718,1.132c.119-.125.234-.258.365-.371.064-.058.127-.12.194-.175l.2-.166a6.678,6.678,0,0,1,.874-.577,8.544,8.544,0,0,1,1.945-.774c.338-.087.68-.162,1.024-.219s.691-.1,1.039-.119a10.165,10.165,0,0,1,2.081.055" transform="translate(-634.625 -668.788)" fill="#ff9b6c"/>
              <path id="Trazado_696946" data-name="Trazado 696946" d="M773.707,853.374a10.27,10.27,0,0,0-1.067,1.656c-.075.146-.153.29-.22.439s-.145.294-.2.447-.128.3-.188.453l-.165.462c-.059.152-.1.312-.149.467l-.072.235c-.025.078-.039.159-.061.238l-.12.476-.094.482c-.032.161-.065.322-.083.485l-.068.489c-.047.326-.057.656-.1.986-.007-.165-.011-.331-.013-.5l0-.249,0-.125.006-.124a9.85,9.85,0,0,1,.088-.993,10.106,10.106,0,0,1,.456-1.944,9.732,9.732,0,0,1,.837-1.814,7.148,7.148,0,0,1,1.221-1.569" transform="translate(-683.475 -756.4)" fill="#ff9b6c"/>
              <path id="Trazado_696947" data-name="Trazado 696947" d="M808.712,800.7a7.545,7.545,0,0,0,.027,1.546q.045.382.122.758l.086.374c.034.123.073.245.109.368s.08.243.123.363.083.242.139.357l.154.352c.054.116.118.227.175.342.111.232.255.446.387.668.061.115.145.214.216.322s.147.214.22.323q-.136-.14-.269-.284a3.509,3.509,0,0,1-.258-.3,6.052,6.052,0,0,1-.45-.645,6.295,6.295,0,0,1-.93-2.989,4.9,4.9,0,0,1,.149-1.56" transform="translate(-716.674 -709.714)" fill="#ff9b6c"/>
              <path id="Trazado_696948" data-name="Trazado 696948" d="M854.16,877.88a5.337,5.337,0,0,1,.678,1.087,6.341,6.341,0,0,1,.434,1.213,5.036,5.036,0,0,1,.143,1.284l-.018.323c-.01.107-.033.213-.049.319l-.029.158c-.012.052-.029.1-.044.155q-.046.154-.1.305c.011-.107.022-.213.035-.317.005-.052.015-.1.019-.157l.005-.158c0-.105.013-.209.011-.314l-.011-.313c0-.1-.019-.208-.027-.311a2.922,2.922,0,0,0-.04-.31l-.051-.308-.07-.3a9.773,9.773,0,0,0-.376-1.2c-.152-.391-.323-.777-.516-1.157" transform="translate(-757.096 -778.121)" fill="#ff9b6c"/>
              <path id="Trazado_696949" data-name="Trazado 696949" d="M888.3,847.931a6.276,6.276,0,0,0,.179.708,4.154,4.154,0,0,0,.274.656,3.183,3.183,0,0,0,.386.592,5.158,5.158,0,0,0,.5.526,1.957,1.957,0,0,1-.632-.406,2.358,2.358,0,0,1-.257-.283,3.022,3.022,0,0,1-.2-.325,2.53,2.53,0,0,1-.244-.719,2.1,2.1,0,0,1-.007-.75" transform="translate(-787.33 -751.575)" fill="#ff9b6c"/>
              <path id="Trazado_696950" data-name="Trazado 696950" d="M901.454,803.91a2.841,2.841,0,0,0-.554.441,6.334,6.334,0,0,0-.473.52c-.154.178-.294.368-.442.555-.069.1-.144.19-.217.286s-.145.192-.227.284c.037-.116.084-.229.131-.342s.107-.219.165-.326.127-.208.194-.311.142-.2.222-.293a3.055,3.055,0,0,1,.533-.509,1.5,1.5,0,0,1,.668-.307" transform="translate(-797.32 -712.557)" fill="#ff9b6c"/>
              <path id="Trazado_696951" data-name="Trazado 696951" d="M856.472,765.462a7.411,7.411,0,0,0,.283.721,4.217,4.217,0,0,0,.372.655l.111.15c.039.048.084.091.124.139a1.116,1.116,0,0,0,.131.132,1.536,1.536,0,0,0,.14.123c.049.038.1.074.15.114s.108.064.162.1l.082.051.087.04c.059.027.117.056.177.087-.065-.007-.131-.016-.2-.027l-.1-.017-.1-.031c-.063-.023-.127-.044-.19-.07s-.118-.065-.178-.1a2.046,2.046,0,0,1-.589-.557,2.676,2.676,0,0,1-.352-.723,2.386,2.386,0,0,1-.118-.784" transform="translate(-759.145 -678.478)" fill="#ff9b6c"/>
              <path id="Trazado_696952" data-name="Trazado 696952" d="M693.024,965.258a11.467,11.467,0,0,1-1.68-.022,15.117,15.117,0,0,1-1.667-.228,12.555,12.555,0,0,1-1.628-.431,9.024,9.024,0,0,1-1.537-.681c.529.186,1.053.367,1.589.511.133.04.269.069.4.105s.268.071.4.1l.405.093.408.081c1.089.215,2.19.361,3.3.473" transform="translate(-608.499 -854.362)" fill="#ff9b6c"/>
              <path id="Trazado_696953" data-name="Trazado 696953" d="M753.849,1217.2q.068,1.535.108,3.069c.029,1.023.046,2.046.065,3.069s.028,2.046.033,3.069,0,2.047-.013,3.071q-.107-1.533-.164-3.067c-.041-1.023-.064-2.046-.083-3.069s-.022-2.047-.015-3.071.027-2.047.069-3.071" transform="translate(-668.12 -1078.882)" fill="#ff9b6c"/>
              <path id="Trazado_696954" data-name="Trazado 696954" d="M1407.922,1538.657a5.691,5.691,0,0,1,.878-.016c.293.014.585.04.876.081a11.44,11.44,0,0,1,1.719.381,13.845,13.845,0,0,1,1.652.616,15.912,15.912,0,0,1,1.563.817c.507.3.989.636,1.463.982.231.182.467.356.69.548l.338.282.326.3a20.016,20.016,0,0,1,2.374,2.584,27.87,27.87,0,0,0-2.492-2.451,19.875,19.875,0,0,0-2.815-2.046,15.822,15.822,0,0,0-3.152-1.459,12.925,12.925,0,0,0-1.684-.44,8.646,8.646,0,0,0-1.736-.175" transform="translate(-1247.931 -1363.787)" fill="#ff9b6c"/>
              <path id="Trazado_696955" data-name="Trazado 696955" d="M730.011,827.755a8.3,8.3,0,0,0-.434-3.043c-.086-.243-.166-.488-.256-.73s-.18-.483-.28-.722l-.585-1.439c-.193-.481-.384-.964-.563-1.452s-.345-.981-.5-1.476a25.44,25.44,0,0,1-.725-3.029c.269,1,.561,2,.894,2.974s.716,1.94,1.107,2.9.788,1.921,1.08,2.925a8.724,8.724,0,0,1,.3,1.536,6.551,6.551,0,0,1-.035,1.558" transform="translate(-644.09 -723.151)" fill="#ff9b6c"/>
              <path id="Trazado_696956" data-name="Trazado 696956" d="M659.2,1370.178c-.363-.069-.723-.152-1.085-.227l-.27-.061a1.991,1.991,0,0,1-.274-.082,1.919,1.919,0,0,1-.5-.285q-.867-.683-1.763-1.326c-.3-.216-.6-.426-.9-.634-.152-.1-.3-.208-.457-.309l-.23-.152c-.077-.052-.152-.1-.233-.162a1.051,1.051,0,0,1-.349-.476,1.077,1.077,0,0,1-.038-.58,1.044,1.044,0,0,1,.267-.5.974.974,0,0,1,.484-.273,1.033,1.033,0,0,0-.439.313.959.959,0,0,0-.2.482.932.932,0,0,0,.383.895c.065.048.151.1.229.143l.236.146c.157.1.313.2.469.3q.464.305.916.628c.6.434,1.185.888,1.743,1.374a1.862,1.862,0,0,0,.695.378l.265.079c.352.112.706.216,1.057.334" transform="translate(-578.864 -1209.982)" fill="#ff9b6c"/>
              <path id="Trazado_696957" data-name="Trazado 696957" d="M712.289,1416.853c-.7-.347-1.4-.673-2.115-.986a2.728,2.728,0,0,1-.944-.74,2.784,2.784,0,0,1-.327-.51c-.091-.185-.157-.362-.235-.541-.3-.719-.592-1.439-.874-2.164s-.557-1.453-.815-2.188q.509,1.052.979,2.12c.316.711.619,1.427.92,2.145.075.178.145.366.225.53a2.765,2.765,0,0,0,.3.474,2.664,2.664,0,0,0,.855.716c.345.169.7.349,1.035.54s.675.39,1,.6" transform="translate(-626.64 -1249.527)" fill="#ff9b6c"/>
            </g>
          </g>
          <path id="Trazado_696963" data-name="Trazado 696963" d="M0,0H192.034V.341H0Z" transform="translate(28.983 224.998)" fill="#14122c"/>
          <g id="Grupo_951915" data-name="Grupo 951915">
            <g id="Grupo_951914" data-name="Grupo 951914" clip-path="url(#clip-path-9)">
              <path id="Trazado_696958" data-name="Trazado 696958" d="M1508.163,400.332a10.839,10.839,0,0,0-18.243,10.906l-3.567,3.372,5.754.281a10.837,10.837,0,1,0,16.056-14.56" transform="translate(-1317.449 -351.686)" fill="#fff"/>
              <path id="Trazado_696959" data-name="Trazado 696959" d="M1486.353,527.428q.426-.442.865-.871c.292-.287.588-.569.884-.851s.6-.56.9-.835.608-.548.918-.815q-.426.442-.865.871c-.292.287-.588.569-.884.851s-.6.56-.9.835-.608.548-.918.815" transform="translate(-1317.449 -464.504)" fill="#1b1a2e"/>
              <path id="Trazado_696960" data-name="Trazado 696960" d="M1492.108,554.01q-.721-.006-1.44-.032c-.48-.016-.959-.037-1.439-.06s-.959-.05-1.438-.081-.958-.066-1.437-.108q.721.007,1.44.032c.48.016.96.037,1.439.059s.959.05,1.438.081.958.066,1.437.109" transform="translate(-1317.45 -490.805)" fill="#1b1a2e"/>
              <path id="Trazado_696961" data-name="Trazado 696961" d="M1512.764,410.759a10.857,10.857,0,0,1-.635-3.918,10.874,10.874,0,0,1,14.031-10.139,10.76,10.76,0,0,1,3.54,1.841,11.12,11.12,0,0,1,1.458,1.374,10.637,10.637,0,0,1,1.186,1.616,10.871,10.871,0,0,1-17.393,12.879,10.842,10.842,0,0,0,10.9,3.12,10.863,10.863,0,0,0,6.223-4.631,10.676,10.676,0,0,0,1.463-3.66,10.795,10.795,0,0,0-1.322-7.633,10.558,10.558,0,0,0-1.168-1.6,10.977,10.977,0,0,0-1.437-1.359,10.622,10.622,0,0,0-3.492-1.823,10.814,10.814,0,0,0-13.956,10.012,10.838,10.838,0,0,0,.6,3.917" transform="translate(-1340.293 -351.207)" fill="#1b1a2e"/>
              <path id="Trazado_696962" data-name="Trazado 696962" d="M1576.765,474.519l-2.588-2.587.791-.791,1.8,1.8,4.1-4.1.791.791Z" transform="translate(-1395.293 -415.563)" fill="#1f4068"/>
            </g>
          </g>
        </g>
      </g>
    </g>
  </g>
</svg>
