<svg id="apoyo_2_" data-name="apoyo (2)" xmlns="http://www.w3.org/2000/svg" width="72.824" height="72.824" viewBox="0 0 72.824 72.824">
  <path id="Trazado_676805" data-name="Trazado 676805" d="M344.9,8.533H329.122a4.855,4.855,0,0,0-4.855,4.855V25.525a4.855,4.855,0,0,0,4.855,4.855h3.641v6.069l6.069-6.069H344.9a4.855,4.855,0,0,0,4.855-4.855V13.388A4.855,4.855,0,0,0,344.9,8.533Z" transform="translate(-278.145 -7.319)" fill="#f0e4d6"/>
  <path id="Trazado_676806" data-name="Trazado 676806" d="M357.5,13.466c-5.009,11.941-14.861,17.48-21.437,19.932a4.809,4.809,0,0,0,3.178,1.214h3.641V40.68l6.069-6.069h6.069a4.855,4.855,0,0,0,4.855-4.855V17.619A4.837,4.837,0,0,0,357.5,13.466Z" transform="translate(-288.261 -11.551)" fill="#ebdcca"/>
  <path id="Trazado_676807" data-name="Trazado 676807" d="M58.3,285.093l12.137-23.061h-9.71l-6.069,10.924v-9.71a7.282,7.282,0,0,0-7.282-7.282H40.089a3.641,3.641,0,0,1-3.641-3.641v-4.855h-9.71v4.855a3.641,3.641,0,0,1-3.641,3.641H15.814a7.282,7.282,0,0,0-7.282,7.282v21.847Z" transform="translate(-7.318 -212.269)" fill="#fec9a3"/>
  <g id="Grupo_951647" data-name="Grupo 951647" transform="translate(6.069 54.504)">
    <path id="Trazado_676808" data-name="Trazado 676808" d="M47.481,401.518H45.054v-3.227a12.1,12.1,0,0,1-.5-13.695l.887-1.4,2.05,1.3-.887,1.4a9.669,9.669,0,0,0,.613,11.222,1.212,1.212,0,0,1,.266.758v3.641Z" transform="translate(-42.669 -383.198)" fill="#f5b789"/>
    <path id="Trazado_676809" data-name="Trazado 676809" d="M267.208,401.518H264.78v-3.641a1.213,1.213,0,0,1,.266-.759,9.667,9.667,0,0,0,.613-11.221l-.887-1.4,2.05-1.3.887,1.4a12.1,12.1,0,0,1-.5,13.695Z" transform="translate(-233.181 -383.198)" fill="#f5b789"/>
  </g>
  <path id="Trazado_676810" data-name="Trazado 676810" d="M85.185,37.663V25.525A16.992,16.992,0,0,0,68.192,8.533h0A16.992,16.992,0,0,0,51.2,25.525V37.663a7.282,7.282,0,0,0,7.282,7.282H77.9A7.282,7.282,0,0,0,85.185,37.663Z" transform="translate(-43.918 -7.319)" fill="#645e39"/>
  <path id="Trazado_676811" data-name="Trazado 676811" d="M141.389,8.533a17,17,0,0,0-4.855.712,16.994,16.994,0,0,1,12.137,16.28V37.663a7.282,7.282,0,0,1-7.282,7.282h9.71a7.282,7.282,0,0,0,7.282-7.282V25.525A16.992,16.992,0,0,0,141.389,8.533Z" transform="translate(-117.114 -7.319)" fill="#4f4a26"/>
  <path id="Trazado_676812" data-name="Trazado 676812" d="M386.391,305.949H375.467a7.282,7.282,0,0,1,7.283-7.282h10.924A7.282,7.282,0,0,1,386.391,305.949Z" transform="translate(-322.063 -256.186)" fill="#fec9a3"/>
  <g id="Grupo_951648" data-name="Grupo 951648" transform="translate(50.977 6.069)">
    <rect id="Rectángulo_337407" data-name="Rectángulo 337407" width="8.496" height="2.428" transform="translate(0)" fill="#ccbfb0"/>
    <rect id="Rectángulo_337408" data-name="Rectángulo 337408" width="4.855" height="2.428" transform="translate(10.924)" fill="#ccbfb0"/>
    <rect id="Rectángulo_337409" data-name="Rectángulo 337409" width="15.779" height="2.428" transform="translate(0 4.855)" fill="#ccbfb0"/>
    <rect id="Rectángulo_337410" data-name="Rectángulo 337410" width="8.496" height="2.428" transform="translate(0 9.71)" fill="#ccbfb0"/>
  </g>
  <path id="Trazado_676813" data-name="Trazado 676813" d="M146.25,252.384v-4.917h-9.716v4.917a10.836,10.836,0,0,0,9.722,0Z" transform="translate(-117.114 -212.269)" fill="#f7c097"/>
  <path id="Trazado_676814" data-name="Trazado 676814" d="M93.867,92.7v5.226a10.924,10.924,0,0,0,21.847,0v-9.71a10.865,10.865,0,0,0-1.307-5.183Z" transform="translate(-80.516 -71.22)" fill="#fec9a3"/>
  <rect id="Rectángulo_337411" data-name="Rectángulo 337411" width="16.992" height="13.351" transform="translate(15.779 50.977)" fill="#13c6cc"/>
  <path id="Trazado_676815" data-name="Trazado 676815" d="M60.724,313.269l-6.069,10.924v-9.71a7.282,7.282,0,0,0-7.282-7.282H43.489L31.594,322.978,20.306,307.2H15.815a7.282,7.282,0,0,0-7.282,7.282V336.33H58.3l12.137-23.061Z" transform="translate(-7.319 -263.506)" fill="#a19e9e"/>
  <path id="Trazado_676816" data-name="Trazado 676816" d="M180.66,313.547h-9.71l-6.069,10.924v-9.71a7.282,7.282,0,0,0-6.483-7.236c-2.185,16.955-12.369,25.149-21.362,29.084h31.485Z" transform="translate(-117.546 -263.784)" fill="#afafaf"/>
  <g id="Grupo_951649" data-name="Grupo 951649" transform="translate(6.069 54.504)">
    <path id="Trazado_676817" data-name="Trazado 676817" d="M47.481,401.518H45.054v-3.227a12.1,12.1,0,0,1-.5-13.695l.887-1.4,2.05,1.3-.887,1.4a9.669,9.669,0,0,0,.613,11.222,1.212,1.212,0,0,1,.266.758v3.641Z" transform="translate(-42.669 -383.198)" fill="#3685ba"/>
    <path id="Trazado_676818" data-name="Trazado 676818" d="M267.208,401.518H264.78v-3.641a1.213,1.213,0,0,1,.266-.759,9.667,9.667,0,0,0,.613-11.221l-.887-1.4,2.05-1.3.887,1.4a12.1,12.1,0,0,1-.5,13.695Z" transform="translate(-233.181 -383.198)" fill="#3685ba"/>
  </g>
  <path id="Trazado_676819" data-name="Trazado 676819" d="M181.591,97.921v-9.71a10.865,10.865,0,0,0-1.307-5.183L177.2,84.478a16.918,16.918,0,0,1,.746,4.947v12.137a7.282,7.282,0,0,1-7.282,7.282,10.923,10.923,0,0,0,10.924-10.924Z" transform="translate(-146.392 -71.219)" fill="#f7c097"/>
  <path id="Trazado_676820" data-name="Trazado 676820" d="M70.582,37.626H69.368v2.428h1.214a8.505,8.505,0,0,0,8.5-8.5V18.206a18.206,18.206,0,0,0-36.412,0V31.557a8.505,8.505,0,0,0,8.5,8.5h1.214V37.626H51.162a6.076,6.076,0,0,1-6.069-6.069V18.206a15.779,15.779,0,0,1,31.557,0V31.557A6.075,6.075,0,0,1,70.582,37.626Z" transform="translate(-36.597 0)"/>
  <path id="Trazado_676821" data-name="Trazado 676821" d="M47.489,384.5l-2.05-1.3-.887,1.4a12.1,12.1,0,0,0,.5,13.695v3.227H47.48v-3.641a1.213,1.213,0,0,0-.266-.759A9.669,9.669,0,0,1,46.6,385.9Z" transform="translate(-36.599 -328.694)"/>
  <path id="Trazado_676822" data-name="Trazado 676822" d="M337.58,0H321.8a6.076,6.076,0,0,0-6.069,6.069V18.206a6.076,6.076,0,0,0,6.069,6.069h2.428V29.13a1.214,1.214,0,0,0,.749,1.122,1.214,1.214,0,0,0,1.323-.263l5.713-5.713h5.566a6.076,6.076,0,0,0,6.069-6.069V6.069A6.076,6.076,0,0,0,337.58,0Zm3.641,18.206a3.641,3.641,0,0,1-3.641,3.641h-6.069a1.211,1.211,0,0,0-.858.356l-4,4V23.061a1.214,1.214,0,0,0-1.214-1.214H321.8a3.641,3.641,0,0,1-3.641-3.641V6.069A3.641,3.641,0,0,1,321.8,2.428H337.58a3.641,3.641,0,0,1,3.641,3.641Z" transform="translate(-270.825 0)"/>
  <rect id="Rectángulo_337412" data-name="Rectángulo 337412" width="8.496" height="2.428" transform="translate(50.977 6.069)"/>
  <rect id="Rectángulo_337413" data-name="Rectángulo 337413" width="4.855" height="2.428" transform="translate(61.9 6.069)"/>
  <rect id="Rectángulo_337414" data-name="Rectángulo 337414" width="15.779" height="2.428" transform="translate(50.977 10.924)"/>
  <rect id="Rectángulo_337415" data-name="Rectángulo 337415" width="8.496" height="2.428" transform="translate(50.977 15.778)"/>
  <path id="Trazado_676823" data-name="Trazado 676823" d="M264.78,397.877v3.641h2.427v-3.227a12.1,12.1,0,0,0,.5-13.695l-.887-1.4-2.05,1.3.887,1.4a9.668,9.668,0,0,1-.613,11.221A1.212,1.212,0,0,0,264.78,397.877Z" transform="translate(-227.112 -328.694)"/>
  <path id="Trazado_676824" data-name="Trazado 676824" d="M2.428,114.884A6.076,6.076,0,0,1,8.5,108.815h3.862l10.93,15.271a1.212,1.212,0,0,0,.971.507h.016a1.213,1.213,0,0,0,.971-.485l11.531-15.293h3.277a6.076,6.076,0,0,1,6.069,6.069v9.71a1.214,1.214,0,0,0,2.275.589l5.722-10.3h6.958L49.243,136.731H52l11.839-21.847h.485a8.505,8.505,0,0,0,8.5-8.5,1.214,1.214,0,0,0-1.214-1.214H60.687a8.5,8.5,0,0,0-8.479,8.15L48.55,119.91v-5.026a8.505,8.505,0,0,0-8.5-8.5H35.617l-.033-.025-.022.025H32.771a2.427,2.427,0,0,1-2.428-2.428V101.1a12.138,12.138,0,0,0,6.069-10.5V80.9a12.157,12.157,0,0,0-1.456-5.76,1.214,1.214,0,0,0-1.578-.522L12.834,84.283a1.215,1.215,0,0,0-.7,1.1v5.228a12.138,12.138,0,0,0,6.069,10.5v2.856a2.427,2.427,0,0,1-2.428,2.428H8.5a8.505,8.505,0,0,0-8.5,8.5v21.847H2.428ZM60.687,107.6h9.588a6.078,6.078,0,0,1-5.947,4.855H54.74A6.078,6.078,0,0,1,60.687,107.6ZM24.3,121.331,20.555,116.1h7.69ZM14.565,90.609V86.152l18.741-8.819a9.715,9.715,0,0,1,.678,3.566v9.71a9.71,9.71,0,1,1-19.42,0Zm1.214,18.206a4.855,4.855,0,0,0,4.855-4.855v-1.773a12.121,12.121,0,0,0,7.282,0v1.773a4.855,4.855,0,0,0,4.855,4.855h.971l-3.661,4.855H18.813l-3.475-4.855Z" transform="translate(0 -63.907)"/>
</svg>
