<svg xmlns="http://www.w3.org/2000/svg" xmlns:xlink="http://www.w3.org/1999/xlink" width="246.012" height="193" viewBox="0 0 246.012 193">
  <defs>
    <clipPath id="clip-path">
      <rect id="Rectángulo_344620" data-name="Rectángulo 344620" width="240" height="181" transform="translate(1157 1900)" fill="#ffa031" opacity="0.38"/>
    </clipPath>
    <clipPath id="clip-path-2">
      <rect id="Rectángulo_344616" data-name="Rectángulo 344616" width="234" height="194.084" fill="none"/>
    </clipPath>
    <clipPath id="clip-path-3">
      <path id="Trazado_697463" data-name="Trazado 697463" d="M163.091,44.181S142.709,51.4,97.276,90.888c-14.751,9.279-32.17,2.762-47.7-3.754-12.183-5.113-23.2-10.227-30.855-7.71C1.31,83.04.041,112.968.041,112.968S0,113.72,0,115.091v.291c.03,15.932,4.95,105.106,111.713,97.369C237.4,201.711,229.754,102.777,229.754,102.777S232.3,49.7,192.813,40.36a38.554,38.554,0,0,0-9.124-1.07,47.366,47.366,0,0,0-20.6,4.891" transform="translate(0 -39.29)" fill="none"/>
    </clipPath>
    <clipPath id="clip-path-5">
      <rect id="Rectángulo_344618" data-name="Rectángulo 344618" width="169.998" height="141" fill="#ffaeb6"/>
    </clipPath>
    <clipPath id="clip-path-6">
      <path id="Trazado_697466" data-name="Trazado 697466" d="M118.484,42.844S103.677,48.088,70.67,76.776C59.953,83.517,47.3,78.783,36.018,74.048c-8.851-3.715-16.857-7.43-22.416-5.6C.952,71.074.03,92.816.03,92.816S0,93.362,0,94.358v.211c.022,11.575,3.6,76.358,81.158,70.738,91.308-8.02,85.756-79.895,85.756-79.895s1.851-38.559-26.837-45.346a28.009,28.009,0,0,0-6.628-.777,34.411,34.411,0,0,0-14.964,3.554" transform="translate(0 -39.29)" fill="#ffaeb6"/>
    </clipPath>
    <clipPath id="clip-path-8">
      <rect id="Rectángulo_344631" data-name="Rectángulo 344631" width="107.012" height="178.115" fill="none"/>
    </clipPath>
    <clipPath id="clip-path-9">
      <rect id="Rectángulo_344628" data-name="Rectángulo 344628" width="205" height="193" transform="translate(1175 2957)" fill="#ffa031" stroke="#707070" stroke-width="1" opacity="0.54"/>
    </clipPath>
    <clipPath id="clip-path-10">
      <rect id="Rectángulo_344624" data-name="Rectángulo 344624" width="115.15" height="350.556" fill="none"/>
    </clipPath>
    <clipPath id="clip-path-13">
      <rect id="Rectángulo_344622" data-name="Rectángulo 344622" width="54" height="20.606" fill="none"/>
    </clipPath>
    <clipPath id="clip-path-14">
      <rect id="Rectángulo_344627" data-name="Rectángulo 344627" width="142.96" height="364.626" fill="none"/>
    </clipPath>
    <clipPath id="clip-path-16">
      <rect id="Rectángulo_344625" data-name="Rectángulo 344625" width="2.625" height="2.702" fill="none"/>
    </clipPath>
    <clipPath id="clip-path-17">
      <rect id="Rectángulo_344629" data-name="Rectángulo 344629" width="40.349" height="38.956" fill="none"/>
    </clipPath>
  </defs>
  <g id="Grupo_952267" data-name="Grupo 952267" transform="translate(-1157 -2957)">
    <g id="Enmascarar_grupo_110" data-name="Enmascarar grupo 110" transform="translate(0 1069)" clip-path="url(#clip-path)">
      <g id="Grupo_952165" data-name="Grupo 952165" transform="matrix(0.883, 0.469, -0.469, 0.883, 1333.974, -841.734)">
        <g id="Grupo_952160" data-name="Grupo 952160" transform="translate(1156 2427)">
          <g id="Grupo_952159" data-name="Grupo 952159" clip-path="url(#clip-path-2)">
            <path id="Trazado_697462" data-name="Trazado 697462" d="M18.723,79.424c15.71-3.4,52.227,28.024,78.552,11.464C142.709,51.4,163.09,44.181,163.09,44.181s14.012-7.643,29.723-3.821c39.489,9.341,36.941,62.417,36.941,62.417s7.643,98.934-118.041,109.973C-5.479,221.243.041,112.968.041,112.968S2.588,83.245,18.723,79.424" transform="translate(0 -22.607)" fill="#ffdae3"/>
          </g>
        </g>
        <g id="Grupo_952164" data-name="Grupo 952164" transform="translate(1156 2427)">
          <g id="Grupo_952163" data-name="Grupo 952163" clip-path="url(#clip-path-2)">
            <path id="Trazado_697464" data-name="Trazado 697464" d="M18.723,79.424c15.71-3.4,52.227,28.024,78.552,11.464C142.709,51.4,163.09,44.181,163.09,44.181s14.012-7.643,29.723-3.821c39.489,9.341,36.941,62.417,36.941,62.417s7.643,98.934-118.041,109.973C-5.479,221.243.041,112.968.041,112.968S2.588,83.245,18.723,79.424" transform="translate(0 -22.607)" fill="#ffdae3"/>
          </g>
        </g>
      </g>
      <g id="Grupo_952172" data-name="Grupo 952172" transform="matrix(0.616, -0.788, 0.788, 0.616, -1439.092, 1435.922)">
        <g id="Grupo_952167" data-name="Grupo 952167" transform="translate(1156 2427)">
          <g id="Grupo_952166" data-name="Grupo 952166" clip-path="url(#clip-path-5)">
            <path id="Trazado_697465" data-name="Trazado 697465" d="M13.6,68.447c11.414-2.468,37.942,20.359,57.068,8.329,33.007-28.688,47.813-33.932,47.813-33.932s10.18-5.553,21.593-2.776c28.688,6.786,26.837,45.346,26.837,45.346s5.553,71.874-85.756,79.895C-3.981,171.477.029,92.816.029,92.816S1.88,71.223,13.6,68.447" transform="translate(0 -27.17)" fill="#ffaeb6"/>
          </g>
        </g>
        <g id="Grupo_952171" data-name="Grupo 952171" transform="translate(1156 2427)">
          <g id="Grupo_952170" data-name="Grupo 952170" clip-path="url(#clip-path-5)">
            <path id="Trazado_697467" data-name="Trazado 697467" d="M13.6,68.447c11.414-2.468,37.942,20.359,57.068,8.329,33.007-28.688,47.813-33.932,47.813-33.932s10.18-5.553,21.593-2.776c28.688,6.786,26.837,45.346,26.837,45.346s5.553,71.874-85.756,79.895C-3.981,171.477.029,92.816.029,92.816S1.88,71.223,13.6,68.447" transform="translate(0 -27.17)" fill="#ffaeb6"/>
          </g>
        </g>
      </g>
    </g>
    <path id="Trazado_697588" data-name="Trazado 697588" d="M0,0H192.034V.341H0Z" transform="translate(1174.983 3148.998)" fill="#14122c"/>
    <g id="Grupo_952193" data-name="Grupo 952193" transform="translate(1296 2971.885)">
      <rect id="Rectángulo_344630" data-name="Rectángulo 344630" width="13.997" height="48.117" transform="translate(44.623 129.998)" fill="#ebebeb"/>
      <g id="Grupo_952192" data-name="Grupo 952192">
        <g id="Grupo_952191" data-name="Grupo 952191" clip-path="url(#clip-path-8)">
          <path id="Trazado_697594" data-name="Trazado 697594" d="M104.7,129.84s-.69-.458.826-2.444-.826-3.055-.826-3.055c-6.616,3.819-15.847,0-15.847,0s10.885-3.36,12.264-6.567c1.029-2.4-.787-2.661-1.771-2.642,1.111-.116,3.517-.51,4.25-1.788.966-1.68-2.823-3.666-2.823-3.666a2.962,2.962,0,0,0,0-2.6c-.621-1.68-14.815-4.124-14.815-4.124,4.134.458,5.65-3.666,5.65-3.666s7.028.153,8.681-2.6-1.1-3.513-5.788-5.8-15.02-10.844-15.02-10.844,6.477-.612,8.268-2.139.138-1.833.138-1.833c7.718.764,5.1-3.36,5.1-3.36A34.5,34.5,0,0,1,77.136,62.483s4.823-1.07,7.3-3.361-2.068-2.9-2.068-2.9,9.1-1.223,3.859-4.583c-3.979-2.554-10.348-5.99-12.326-7.022,2.169.8,7.09-.157,7.09-.157,5.788-2.6,0-6.415,0-6.415C74.243,34.226,64.321,24.6,64.321,24.6s4.961,2.6,7.441,1.833-2.755-3.819-2.755-3.819,2.617.764,3.72,0-2.895-4.276-2.895-4.276C63.893,14.482,56.57,4.351,53.506,0,50.443,4.351,43.12,14.482,37.179,18.342c0,0-4,3.512-2.894,4.276s3.721,0,3.721,0-5.236,3.055-2.756,3.819S42.692,24.6,42.692,24.6s-9.922,9.622-16.675,13.44c0,0-5.788,3.819,0,6.415,0,0,4.921.954,7.091.157-1.979,1.032-8.347,4.468-12.327,7.022-5.237,3.36,3.858,4.583,3.858,4.583s-4.548.611-2.067,2.9,7.3,3.361,7.3,3.361A34.5,34.5,0,0,1,14.028,72.716s-2.618,4.124,5.1,3.36c0,0-1.654.306.138,1.833s8.268,2.139,8.268,2.139S17.2,88.6,12.512,90.892s-7.441,3.054-5.788,5.8,8.682,2.6,8.682,2.6,1.516,4.124,5.65,3.666c0,0-14.195,2.444-14.814,4.124a2.954,2.954,0,0,0,0,2.6s-3.79,1.986-2.825,3.666c.734,1.278,3.14,1.672,4.251,1.788-.985-.019-2.8.246-1.771,2.642,1.379,3.207,12.264,6.567,12.264,6.567s-9.231,3.819-15.847,0c0,0-2.342,1.069-.826,3.055s.826,2.444.826,2.444-3.445-2.6-1.928,1.374,9.508,6.415,9.508,6.415-4.548.764-3.17,3.208,7.166,5.346,13.505,5.957,14.883-1.68,14.883-1.68-5.787,3.054-1.791,4.734,8.544-2.138,8.544-2.138-.827,3.909,2.48,2.566a22.565,22.565,0,0,0,6.064-3.94s1.032,5.76,3.1,4.382c2.066,1.378,3.1-4.382,3.1-4.382a22.565,22.565,0,0,0,6.064,3.94c3.307,1.343,2.479-2.566,2.479-2.566s4.549,3.819,8.544,2.138-1.791-4.734-1.791-4.734,8.543,2.291,14.883,1.68,12.127-3.513,13.5-5.957-3.169-3.208-3.169-3.208,7.992-2.443,9.508-6.415-1.928-1.374-1.928-1.374" fill="#e0e0e0"/>
          <path id="Trazado_697595" data-name="Trazado 697595" d="M73.642,38.508c-.075-.034-.147-.067-.216-.1a.8.8,0,0,1,.216.1"/>
        </g>
      </g>
    </g>
    <g id="Grupo_952191-2" data-name="Grupo 952191">
      <g id="Enmascarar_grupo_111" data-name="Enmascarar grupo 111" clip-path="url(#clip-path-9)">
        <g id="Grupo_952173" data-name="Grupo 952173" transform="translate(1176.388 2961.063)">
          <g id="Grupo_952181" data-name="Grupo 952181" clip-path="url(#clip-path-10)">
            <g id="Grupo_952175" data-name="Grupo 952175">
              <g id="Grupo_952174" data-name="Grupo 952174" clip-path="url(#clip-path-10)">
                <path id="Trazado_697468" data-name="Trazado 697468" d="M86.8,39.685,93.638,40.9a20.781,20.781,0,1,0-3.852-6.363l-.007-.009Z" transform="translate(-14.81 -1.088)" fill="#fafafa"/>
                <path id="Trazado_697469" data-name="Trazado 697469" d="M86.8,39.663s.057-.109.182-.33l.558-.988,2.2-3.863a.051.051,0,0,1,.07-.019.048.048,0,0,1,.017.015l.007.01-.09.047A20.793,20.793,0,0,1,88.5,24.478a20.577,20.577,0,0,1,.655-3.168c.156-.537.371-1.068.558-1.617a12.428,12.428,0,0,1,.7-1.626,20.666,20.666,0,0,1,4.474-6.136A20.98,20.98,0,0,1,111.03,6.322a21.292,21.292,0,0,1,9.143,3.1,19.911,19.911,0,0,1,2.053,1.448,11.907,11.907,0,0,1,.952.835c.305.293.64.558.923.877a20.95,20.95,0,0,1,1.656,1.96c.253.348.517.69.761,1.046l.667,1.115a20.877,20.877,0,0,1,1.039,18.722,20.824,20.824,0,0,1-19.693,12.491,22.833,22.833,0,0,1-3.42-.37,27.694,27.694,0,0,1-3.093-.868A20.628,20.628,0,0,1,93.6,40.916l.032.017-5.1-.942-1.3-.243c-.289-.055-.43-.085-.43-.085s.158.022.454.072l1.317.221,5.079.869a.058.058,0,0,1,.032.018,20.621,20.621,0,0,0,8.4,5.671,27.452,27.452,0,0,0,3.07.849,22.691,22.691,0,0,0,3.391.356A20.666,20.666,0,0,0,128,35.324a20.646,20.646,0,0,0-1.036-18.5l-.659-1.1c-.242-.352-.5-.689-.752-1.033a20.707,20.707,0,0,0-1.636-1.937c-.279-.314-.61-.576-.912-.867a11.643,11.643,0,0,0-.941-.825,19.593,19.593,0,0,0-2.027-1.431,21.083,21.083,0,0,0-9.033-3.067,20.791,20.791,0,0,0-15.975,5.523,20.517,20.517,0,0,0-4.449,6.065,12.387,12.387,0,0,0-.7,1.608c-.187.544-.4,1.069-.559,1.6a20.515,20.515,0,0,0-.663,3.139,20.83,20.83,0,0,0,1.169,10,.05.05,0,0,1-.029.066.053.053,0,0,1-.061-.018l-.007-.009.086,0-2.235,3.8L87,39.323c-.133.223-.207.34-.207.34" transform="translate(-14.81 -1.066)" fill="#263238"/>
                <path id="Trazado_697470" data-name="Trazado 697470" d="M121.4,31.683a2.107,2.107,0,1,1,2.107,2.107,2.106,2.106,0,0,1-2.107-2.107" transform="translate(-20.715 -5.047)" fill="#263238"/>
                <path id="Trazado_697471" data-name="Trazado 697471" d="M111.233,31.683a2.107,2.107,0,1,1,2.107,2.107,2.106,2.106,0,0,1-2.107-2.107" transform="translate(-18.98 -5.047)" fill="#263238"/>
                <path id="Trazado_697472" data-name="Trazado 697472" d="M101.034,32.736a2.107,2.107,0,1,1,2.878.771,2.107,2.107,0,0,1-2.878-.771" transform="translate(-17.192 -5.047)" fill="#263238"/>
              </g>
            </g>
            <g id="Grupo_952180" data-name="Grupo 952180">
              <g id="Grupo_952179" data-name="Grupo 952179" clip-path="url(#clip-path-10)">
                <path id="Trazado_697473" data-name="Trazado 697473" d="M33.455,375.06l1.268,19.632-5.3,16.974A2.214,2.214,0,0,0,32.985,414c3.435-3.011,16.019-14.147,15.965-15.73-.062-1.833.354-22.793.354-22.793Z" transform="translate(-5.003 -63.998)" fill="#263238"/>
                <path id="Trazado_697474" data-name="Trazado 697474" d="M31.366,418.954l18-17.669-.041.914a3.335,3.335,0,0,1-.886,2.123C47,405.871,42.917,410.06,33.4,418.474a2.214,2.214,0,0,1-2.034.479" transform="translate(-5.352 -68.473)" fill="#455a64"/>
                <path id="Trazado_697475" data-name="Trazado 697475" d="M36.945,410.948c-.125.054-.561-1.1-1.817-1.764a6.741,6.741,0,0,0-2.463-.587c-.017-.054.265-.209.773-.258a3.532,3.532,0,0,1,3.311,1.819c.231.454.251.775.2.79" transform="translate(-5.574 -69.674)" fill="#fff"/>
                <path id="Trazado_697476" data-name="Trazado 697476" d="M35,414.546c-.107.089-.768-.644-1.87-1.014a18.083,18.083,0,0,0-2.095-.367,2.455,2.455,0,0,1,2.252-.081c1.253.429,1.828,1.409,1.713,1.462" transform="translate(-5.295 -70.452)" fill="#fff"/>
                <path id="Trazado_697477" data-name="Trazado 697477" d="M40.253,406.606a22.185,22.185,0,0,0-2.78-1.76,22.1,22.1,0,0,0-3.167-.891,4.9,4.9,0,0,1,3.361.457,4.9,4.9,0,0,1,2.587,2.194" transform="translate(-5.854 -68.908)" fill="#fff"/>
                <path id="Trazado_697478" data-name="Trazado 697478" d="M41.158,399.058c-.063.127-1.233-.425-2.783-.551-1.548-.148-2.795.192-2.836.056a4.279,4.279,0,0,1,2.878-.528,4.283,4.283,0,0,1,2.74,1.023" transform="translate(-6.064 -67.914)" fill="#fff"/>
                <path id="Trazado_697479" data-name="Trazado 697479" d="M93.624,370.013l-.645,19.027s19.123,7.046,19.345,10.574l-36.936.073L75.177,370Z" transform="translate(-12.828 -63.134)" fill="#263238"/>
                <path id="Trazado_697480" data-name="Trazado 697480" d="M82.645,391.041a1.508,1.508,0,0,0-1.039,1.723,1.449,1.449,0,0,0,1.7,1.045,1.59,1.59,0,0,0,1.091-1.83,1.5,1.5,0,0,0-1.888-.892" transform="translate(-13.919 -66.714)" fill="#e0e0e0"/>
                <path id="Trazado_697481" data-name="Trazado 697481" d="M75.431,405.179l.1-2.993,35.377,1.049s1.646.712,1.462,1.871Z" transform="translate(-12.871 -68.626)" fill="#455a64"/>
                <path id="Trazado_697482" data-name="Trazado 697482" d="M96.67,392.695c-.006.18-.907.264-1.794.845-.9.559-1.357,1.341-1.524,1.27-.166-.034.1-1.113,1.186-1.8s2.17-.483,2.131-.317" transform="translate(-15.921 -66.979)" fill="#fff"/>
                <path id="Trazado_697483" data-name="Trazado 697483" d="M101.534,394.636c.041.174-.739.483-1.35,1.247-.634.746-.786,1.571-.966,1.563-.169.029-.3-1.028.482-1.963s1.83-1.019,1.835-.848" transform="translate(-16.908 -67.326)" fill="#fff"/>
                <path id="Trazado_697484" data-name="Trazado 697484" d="M104.656,399.6c-.164.039-.416-.862.045-1.85s1.3-1.383,1.38-1.233c.1.148-.444.678-.81,1.5-.386.809-.435,1.569-.615,1.587" transform="translate(-17.821 -67.653)" fill="#fff"/>
                <path id="Trazado_697485" data-name="Trazado 697485" d="M96.17,387.348c-.075.165-.9-.083-1.922-.012-1.021.051-1.814.395-1.908.24-.105-.13.668-.8,1.87-.866s2.048.5,1.96.638" transform="translate(-15.755 -65.985)" fill="#fff"/>
                <path id="Trazado_697486" data-name="Trazado 697486" d="M85.316,212.1,82.852,194.59l-67.405-3.072-2.058,20.821,7.259,62.819c.946,5.3.345,30.016,1.339,36.646.248,1.651,7.388,46.987,7.388,46.987H47.609s1.054-44.8,1.2-48.516.857-28.74.857-35.12c0-7.748,3.359-47.691,3.359-47.691l4.678,54s-.385,16.363-.032,19.829c.616,6.051,5.291,56.088,5.291,56.088l20.472.408s4.264-58.374,4.391-69.639c.146-13.016-2.546-75.2-2.512-76.056" transform="translate(-2.285 -32.679)" fill="#263238"/>
                <path id="Trazado_697487" data-name="Trazado 697487" d="M79.616,77.507S90.455,80.37,94.353,93.583c2.81,9.528,8.013,23.1,8.013,23.1L84.8,119.635Z" transform="translate(-13.585 -13.225)" fill="#455a64"/>
                <path id="Trazado_697488" data-name="Trazado 697488" d="M9.56,79.115s8.03-3.853,17.5-7.151h3.018l18.239,1.148a112.4,112.4,0,0,1,18.1,3.45s5.209,33.964,6.231,40.7c1.1,7.278,2.208,14.769,2.208,14.769l5.858,39.121c1.855,2.413,1.375,4.911,1.108,7.4C61.393,187.5,38.679,189.157,12.6,178.9a3.994,3.994,0,0,1,.134-4.075c.266-7.961.867-25.268,1.228-30.6,0,0-2.874-16.178-4.971-22.386-2.5-7.41-6.7-19.329-6.7-25.445,0-5.634,7.269-17.285,7.269-17.285" transform="translate(-0.391 -12.279)" fill="#455a64"/>
                <g id="Grupo_952178" data-name="Grupo 952178" transform="translate(23.016 119.133)" opacity="0.3">
                  <g id="Grupo_952177" data-name="Grupo 952177">
                    <g id="Grupo_952176" data-name="Grupo 952176" clip-path="url(#clip-path-13)">
                      <path id="Trazado_697489" data-name="Trazado 697489" d="M27.751,158.667s6.65,5.809,10.864,5.575,15.566-9.6,15.566-9.6,17.729,6.556,21.68,6.673,5.89.025,5.89.025v-9.281l-26.284-8.416L31.36,147.206Z" transform="translate(-27.751 -143.643)"/>
                    </g>
                  </g>
                </g>
                <path id="Trazado_697490" data-name="Trazado 697490" d="M81.754,90.981c.118-.017,1.706,9.85,3.546,22.038s3.237,22.086,3.119,22.1-1.705-9.848-3.546-22.04S81.636,91,81.754,90.981" transform="translate(-13.949 -15.524)" fill="#263238"/>
                <path id="Trazado_697491" data-name="Trazado 697491" d="M16.756,140.783c-.167.061-3.163,1.107-3.352,2.9s1.676,3.592,1.676,3.592a2.676,2.676,0,0,0,.343,4.065s-1.64,3.214,2.9,4.158c0,0-.479,3.12,2.408,3.781s4.375-.9,4.587-1.228a.85.85,0,0,0,0-1.135l5.384-.662s12-1.323,13.328-2.552-.662-12.354-2.93-12.936-20.8-1.283-24.343.013" transform="translate(-2.285 -23.897)" fill="#ffc09d"/>
                <path id="Trazado_697492" data-name="Trazado 697492" d="M22.544,155.106c.041.121-.9.475-1.779,1.3s-1.313,1.725-1.431,1.675a2.974,2.974,0,0,1,1.138-1.992,2.971,2.971,0,0,1,2.073-.984" transform="translate(-3.295 -26.461)" fill="#ff9b6c"/>
                <path id="Trazado_697493" data-name="Trazado 697493" d="M19.357,151.23c.046.129-.857.458-1.861.965s-1.6,1.228-1.708,1.154c-.1-.049.4-.975,1.505-1.535a3.934,3.934,0,0,1,2.063-.584" transform="translate(-2.692 -25.8)" fill="#ff9b6c"/>
                <path id="Trazado_697494" data-name="Trazado 697494" d="M18.024,146.706c.034.12-.7.41-1.477.964s-1.3,1.141-1.4,1.068c-.1-.057.3-.824,1.154-1.422s1.705-.722,1.727-.61" transform="translate(-2.582 -25.027)" fill="#ff9b6c"/>
                <path id="Trazado_697495" data-name="Trazado 697495" d="M102.85,124.922c-.127.025,3.644,12.62,3.644,12.62l-16.646,4.126-1.416-7.23-.874-6.987Z" transform="translate(-14.94 -21.316)" fill="#ffc09d"/>
                <path id="Trazado_697496" data-name="Trazado 697496" d="M47.438,134.132c.571.285,35.429,1.833,35.429,1.833s12.877-.483,16.237,1.383c0,0,4.328,12-.79,16.932-4.215,4.062-8.392,3.963-13.76,3.159-6.07-.908-32.989-10.7-32.989-10.7Z" transform="translate(-8.095 -22.887)" fill="#ffc09d"/>
                <path id="Trazado_697497" data-name="Trazado 697497" d="M102,138.272a50.575,50.575,0,0,0-6.231-1.689,50.7,50.7,0,0,0-6.442-.437,6.473,6.473,0,0,1,1.9-.262A21.612,21.612,0,0,1,100.3,137.4a6.489,6.489,0,0,1,1.708.868" transform="translate(-15.243 -23.182)" fill="#ff9b6c"/>
                <path id="Trazado_697498" data-name="Trazado 697498" d="M76.428,102.408A23.546,23.546,0,0,0,78.17,99.5c.476-1.093.587-5.1,1.756-6.233s4.783-4.522,6.156-5.821,1.811-2.124,2.657-1.261a3.344,3.344,0,0,1,.2,3.887c-.78,1.429-3.482,3.867-3.087,5.287s.357,2.758,2.812,2.737,9.242-2.058,12.559-2.846c4.658-1.106,5.734.394,5.734.394s2.321-.548,2.8.494-1.155,2.409-1.874,2.982-.143,2.878-5.29,5.974c-.675.406.875,1.571-4.23,3.826-2.91,1.286-4.882,2.578-8.222,3.2-7.077,1.309-10.141,5.38-10.141,5.38-.16.008-10.075-9.594-8.236-11.149l4.656-3.935" transform="translate(-12.208 -14.645)" fill="#ffc09d"/>
                <path id="Trazado_697499" data-name="Trazado 697499" d="M112,97.484c.009-.012.177.127.185.488a1.605,1.605,0,0,1-.766,1.187,30.576,30.576,0,0,1-4.09,1.917,38.989,38.989,0,0,1-4.268,1.418,7.111,7.111,0,0,1-1.831.361c-.032-.124,2.7-.891,5.941-2.18,1.608-.646,3.1-1.268,4.076-1.768a1.526,1.526,0,0,0,.77-.948c.046-.29-.057-.459-.017-.474" transform="translate(-17.273 -16.634)" fill="#ff9b6c"/>
                <path id="Trazado_697500" data-name="Trazado 697500" d="M112.784,102.1a7.113,7.113,0,0,1-1.529,1.134,33.676,33.676,0,0,1-8.336,3.8,7.132,7.132,0,0,1-1.859.411c-.036-.127,2.745-.936,5.978-2.419s5.674-3.037,5.746-2.927" transform="translate(-17.244 -17.42)" fill="#ff9b6c"/>
                <path id="Trazado_697501" data-name="Trazado 697501" d="M102.519,111.669a13.585,13.585,0,0,1,2.624-1.43,13.376,13.376,0,0,1,2.742-1.188,8.692,8.692,0,0,1-2.552,1.577,8.612,8.612,0,0,1-2.814,1.042" transform="translate(-17.493 -18.606)" fill="#ff9b6c"/>
                <path id="Trazado_697502" data-name="Trazado 697502" d="M14.721,132.082S24.657,152.791,33.295,154s15.2-8.2,18.263-11.661c3.925-4.442,23.217-25.834,23.217-25.834L64.563,108.22,38.314,126.877l-5.019-8.292Z" transform="translate(-2.512 -18.466)" fill="#ffc09d"/>
                <path id="Trazado_697503" data-name="Trazado 697503" d="M28.22,156.309a3.835,3.835,0,0,1-.831-.443,6.194,6.194,0,0,1-.873-.676,10.1,10.1,0,0,1-1.057-1.011,44.913,44.913,0,0,1-5.05-6.743c-1.757-2.782-3.2-5.388-4.195-7.3-.5-.955-.883-1.737-1.14-2.281a3.709,3.709,0,0,1-.353-.869,4.061,4.061,0,0,1,.5.79q.515.906,1.26,2.213c1.064,1.867,2.541,4.441,4.29,7.211a54.661,54.661,0,0,0,4.91,6.767,10.954,10.954,0,0,0,1,1.038,7.206,7.206,0,0,0,.809.721,4.088,4.088,0,0,1,.733.579" transform="translate(-2.511 -23.375)" fill="#ff9b6c"/>
                <path id="Trazado_697504" data-name="Trazado 697504" d="M67.486,136.4a3.875,3.875,0,0,1-.509.785c-.355.486-.887,1.176-1.573,2-1.364,1.66-3.322,3.891-5.533,6.308s-4.257,4.566-5.756,6.1c-.75.769-1.363,1.383-1.8,1.8a3.839,3.839,0,0,1-.7.618,3.925,3.925,0,0,1,.581-.733l1.694-1.894,5.66-6.185c2.209-2.414,4.2-4.609,5.62-6.214l1.674-1.908a3.874,3.874,0,0,1,.641-.681" transform="translate(-8.807 -23.274)" fill="#ff9b6c"/>
                <path id="Trazado_697505" data-name="Trazado 697505" d="M22.624,96.425c5.554,10.341,11.792,21.13,11.792,21.13L10.994,130.692S1.8,109.91,1.722,109.354c0,0-3.26-12.746-.27-19.868a21.09,21.09,0,0,1,7.75-8.9" transform="translate(-0.032 -13.751)" fill="#455a64"/>
                <path id="Trazado_697506" data-name="Trazado 697506" d="M9.169,80.586s-.038.036-.12.1c-.1.069-.218.154-.367.262-.321.233-.793.586-1.38,1.077a22.091,22.091,0,0,0-4.366,4.888,15.388,15.388,0,0,0-1.913,4.2,22.372,22.372,0,0,0-.681,5.38,52.691,52.691,0,0,0,1.539,12.815l0,.022c.246.668.6,1.474.914,2.218q.491,1.141,1,2.306l2.078,4.757,4.411,10.017.875,1.98-.3-.1L34.3,117.4l-.069.249-8.5-15.382-2.345-4.3-.6-1.137a2.513,2.513,0,0,1-.191-.4,2.8,2.8,0,0,1,.24.373l.652,1.112,2.43,4.254,8.627,15.3.09.159-.158.089L11.067,130.88l-.207.116-.1-.216L9.889,128.8c-1.509-3.435-2.983-6.788-4.4-10.022q-1.055-2.427-2.068-4.763-.5-1.168-.99-2.31c-.322-.785-.642-1.469-.935-2.324l0,.022A52.36,52.36,0,0,1,.011,96.482a22.506,22.506,0,0,1,.735-5.45,15.521,15.521,0,0,1,1.99-4.255,21.276,21.276,0,0,1,4.486-4.855c.6-.479,1.089-.815,1.423-1.033.158-.1.283-.174.386-.236a.567.567,0,0,1,.139-.068" transform="translate(0 -13.751)" fill="#263238"/>
                <path id="Trazado_697507" data-name="Trazado 697507" d="M39.468,142.626a5.682,5.682,0,0,1-.225-1.854,15.916,15.916,0,0,1,2.381-8.611,5.686,5.686,0,0,1,1.145-1.475,28.1,28.1,0,0,0-2.536,5.725,28.1,28.1,0,0,0-.766,6.214" transform="translate(-6.696 -22.299)" fill="#ff9b6c"/>
                <path id="Trazado_697508" data-name="Trazado 697508" d="M19.321,55.737c.993-.872,2.4-1.114,3.41-1.966a4.937,4.937,0,0,0,1.555-3.553,13.5,13.5,0,0,0-.567-3.949L34.512,60.121a14.134,14.134,0,0,1-3.125,4.164,5.07,5.07,0,0,1-4.824,1.1,3.316,3.316,0,0,1-1.973-4.23,3.979,3.979,0,0,1-5.383-.013,3.883,3.883,0,0,1,.114-5.4" transform="translate(-3.101 -7.895)" fill="#263238"/>
                <path id="Trazado_697509" data-name="Trazado 697509" d="M55.862,8.908c2.616,1.955,3.048,3.9,3.152,4.945.031.306-.02.7-.306.79a.711.711,0,0,1-.429-.041l-8.755-2.719" transform="translate(-8.45 -1.52)" fill="#263238"/>
                <path id="Trazado_697510" data-name="Trazado 697510" d="M26.579,45.189a72.5,72.5,0,0,1-5.263-11.157,25.589,25.589,0,0,1-1.37-12.194c.1-.619,1.14-4.845,1.751-4.9.436-.043.031,3.786.32,4.122a21.523,21.523,0,0,1,4.64,11.7,57.218,57.218,0,0,1-.078,12.432" transform="translate(-3.361 -2.889)" fill="#263238"/>
                <path id="Trazado_697511" data-name="Trazado 697511" d="M61.035,43.317c-.6-4.766-2.626-14.479-4.556-23.247A18.164,18.164,0,0,0,36.238,5.791l-.93.135C25.365,7.978,21.514,17.756,23.8,27.859l6.841,33.914.633.621c4.392,4.309,9.479,6.633,14.929,6.495a7.725,7.725,0,0,0,7.5-7.215c.049-.108-.864-5.555-.843-5.559,0,0,9.427-2.929,8.179-12.8" transform="translate(-3.952 -0.956)" fill="#ffc09d"/>
                <path id="Trazado_697512" data-name="Trazado 697512" d="M56.277,66.1A23.042,23.042,0,0,1,43.2,64.127s4.046,6.968,13.539,4.688Z" transform="translate(-7.372 -10.942)" fill="#ff9b6c"/>
                <path id="Trazado_697513" data-name="Trazado 697513" d="M60.633,34.407a1.417,1.417,0,0,1-1.13,1.611,1.329,1.329,0,0,1-1.594-1.062,1.417,1.417,0,0,1,1.129-1.612,1.331,1.331,0,0,1,1.6,1.063" transform="translate(-9.878 -5.685)" fill="#263238"/>
                <path id="Trazado_697514" data-name="Trazado 697514" d="M60.47,28.417c-.145.208-1.3-.43-2.778-.211-1.482.2-2.461,1.133-2.647.971-.09-.07.037-.427.462-.848a3.78,3.78,0,0,1,2.088-1,3.592,3.592,0,0,1,2.243.4c.505.291.706.6.633.7" transform="translate(-9.388 -4.656)" fill="#263238"/>
                <path id="Trazado_697515" data-name="Trazado 697515" d="M45.241,36.62a1.418,1.418,0,0,1-1.13,1.611,1.331,1.331,0,0,1-1.595-1.062,1.419,1.419,0,0,1,1.13-1.612,1.331,1.331,0,0,1,1.6,1.063" transform="translate(-7.251 -6.062)" fill="#263238"/>
                <path id="Trazado_697516" data-name="Trazado 697516" d="M43.024,31.377c-.145.209-1.3-.429-2.778-.211-1.481.2-2.461,1.135-2.647.972-.09-.071.036-.426.463-.848a3.786,3.786,0,0,1,2.088-1,3.6,3.6,0,0,1,2.243.4c.5.292.7.6.633.694" transform="translate(-6.411 -5.162)" fill="#263238"/>
                <path id="Trazado_697517" data-name="Trazado 697517" d="M52,42.131a9.7,9.7,0,0,1,2.344-.792c.373-.095.72-.223.747-.5a2.014,2.014,0,0,0-.411-1.109l-1.527-2.782c-2.135-3.965-3.737-7.248-3.58-7.335s2.015,3.058,4.149,7.023q.776,1.469,1.482,2.806a2.3,2.3,0,0,1,.407,1.489.976.976,0,0,1-.543.655,2.558,2.558,0,0,1-.63.185A9.51,9.51,0,0,1,52,42.131" transform="translate(-8.456 -5.053)" fill="#263238"/>
                <path id="Trazado_697518" data-name="Trazado 697518" d="M42.528,25.581c-.148.416-1.641.217-3.4.433-1.759.179-3.175.7-3.407.331-.1-.179.143-.57.716-.972a5.835,5.835,0,0,1,5.183-.581c.644.265.969.592.9.79" transform="translate(-6.092 -4.169)" fill="#263238"/>
                <path id="Trazado_697519" data-name="Trazado 697519" d="M60.179,25.423c-.255.392-1.513.23-2.962.445-1.456.172-2.637.659-2.973.346-.151-.154-.011-.529.474-.94a4.653,4.653,0,0,1,2.318-.948,4.547,4.547,0,0,1,2.465.31c.565.271.787.6.678.786" transform="translate(-9.246 -4.143)" fill="#263238"/>
                <path id="Trazado_697520" data-name="Trazado 697520" d="M24.886,41.078c-.174-.049-6.9-1.042-5.755,5.662s7.493,4.146,7.473,3.952-1.718-9.614-1.718-9.614" transform="translate(-3.242 -6.996)" fill="#ffc09d"/>
                <path id="Trazado_697521" data-name="Trazado 697521" d="M24.526,49.006c-.032-.017-.1.1-.278.227a1.143,1.143,0,0,1-.851.17,2.922,2.922,0,0,1-1.751-2.36,3.993,3.993,0,0,1,.034-1.728,1.368,1.368,0,0,1,.707-1.05.583.583,0,0,1,.729.2c.119.172.1.313.138.318.021.013.122-.138.022-.406a.747.747,0,0,0-.33-.373.853.853,0,0,0-.661-.058A1.656,1.656,0,0,0,21.269,45.2a4.107,4.107,0,0,0-.077,1.94c.273,1.343,1.165,2.486,2.161,2.6a1.225,1.225,0,0,0,1.014-.364c.175-.2.184-.357.159-.366" transform="translate(-3.602 -7.492)" fill="#ff9b6c"/>
                <path id="Trazado_697522" data-name="Trazado 697522" d="M49.737,9.572c.952-.8-2.859-3.708-5.68-4.427C39.793,4.059,33.58,4.063,30.14,5.8,26,7.883,22.766,10.786,21.3,15.264a27.328,27.328,0,0,0-.476,13.984,8.218,8.218,0,0,0,1.658,3.916c1.18,1.308,2.62,1.794,3.392,3.966a3.791,3.791,0,0,0,1.047,1.916c1.432,1.078,2.678-.421,3.132-1.775.969-2.892.566-6.052.153-9.079A20.263,20.263,0,0,0,28.651,21.9c-.521-1.055-1.225-2.013-1.688-3.1a4.168,4.168,0,0,1-.136-3.429,4.311,4.311,0,0,1,.433-.65,6.868,6.868,0,0,1,6.539-2.59c3.927.642,10.582,1.451,12-.137a10.514,10.514,0,0,0,2.385-3.59Z" transform="translate(-3.438 -0.751)" fill="#263238"/>
                <path id="Trazado_697523" data-name="Trazado 697523" d="M18.532,34.654c-.144-.091-.334-.08-.472-.172-9.084-6.074-4.241-14.467-4.541-16.717C13.1,14.646,10.2,19.235,9,15.25,7.412,9.972,12.627,6.61,19.138,2.992,21.865,1.476,28.929-.155,35.41.013c5.783.149,10.223,3.5,12.886,6.209a4.753,4.753,0,0,1,1.833.935c1.31,1.672,1,2.516,1,2.516S37.656,5.444,28.885,15.965,23.3,33.541,20.6,34.143Z" transform="translate(-1.487 0)" fill="#455a64"/>
                <path id="Trazado_697524" data-name="Trazado 697524" d="M23.175,8.627a3.547,3.547,0,0,1-.5.337c-.165.1-.366.226-.589.386s-.488.325-.759.542a18.949,18.949,0,0,0-1.845,1.578,20.824,20.824,0,0,0-1.963,2.242,21.031,21.031,0,0,0-1.592,2.531,19.493,19.493,0,0,0-1,2.238c-.132.323-.22.629-.309.892s-.157.493-.207.683a3.591,3.591,0,0,1-.185.582,3.771,3.771,0,0,1,.112-.6c.04-.193.095-.428.177-.7s.159-.578.284-.907a17.514,17.514,0,0,1,.969-2.275,17.968,17.968,0,0,1,3.59-4.82,17.009,17.009,0,0,1,1.888-1.56c.277-.211.548-.372.78-.522s.437-.269.609-.359a3.529,3.529,0,0,1,.538-.27" transform="translate(-2.427 -1.472)" fill="#263238"/>
                <path id="Trazado_697525" data-name="Trazado 697525" d="M50.638,7.45a.567.567,0,0,1-.123-.02l-.354-.077c-.31-.075-.771-.167-1.364-.284s-1.325-.228-2.18-.308a22.026,22.026,0,0,0-2.909-.112,22.328,22.328,0,0,0-7.4,1.476,23.278,23.278,0,0,0-7.837,4.946,22.855,22.855,0,0,0-3.126,3.711,24.359,24.359,0,0,0-2.145,4,34.051,34.051,0,0,0-2.1,7.429c-.37,2.176-.533,3.959-.639,5.19-.048.607-.085,1.082-.112,1.42-.012.153-.023.275-.031.369a.624.624,0,0,1-.017.125.609.609,0,0,1,0-.126c0-.095.007-.216.012-.371.012-.326.034-.805.075-1.423.084-1.233.226-3.021.581-5.208a33.549,33.549,0,0,1,2.072-7.478,24.229,24.229,0,0,1,2.152-4.04,22.9,22.9,0,0,1,3.15-3.745,23.289,23.289,0,0,1,7.907-4.972A22.16,22.16,0,0,1,43.7,6.51a21.3,21.3,0,0,1,2.923.142c.857.09,1.587.227,2.183.342s1.052.233,1.359.321l.35.1a.564.564,0,0,1,.118.039" transform="translate(-3.463 -1.11)" fill="#263238"/>
                <path id="Trazado_697526" data-name="Trazado 697526" d="M24.2,36.7a2.975,2.975,0,0,1-1.81.11,3.008,3.008,0,0,1-1.638-.8,9.516,9.516,0,0,0,1.674.6A9.514,9.514,0,0,0,24.2,36.7" transform="translate(-3.542 -6.145)" fill="#263238"/>
                <path id="Trazado_697527" data-name="Trazado 697527" d="M26.952,28.451a1.761,1.761,0,0,1-.7-.027,5.058,5.058,0,0,1-1.6-.557,5.183,5.183,0,0,1-1.343-1.056,1.852,1.852,0,0,1-.41-.581,9.281,9.281,0,0,0,1.844,1.462,9.088,9.088,0,0,0,2.213.757" transform="translate(-3.906 -4.476)" fill="#263238"/>
                <path id="Trazado_697528" data-name="Trazado 697528" d="M32.655,18.162a16.806,16.806,0,0,0-1.548-1.621,16.534,16.534,0,0,0-1.861-1.232,4.707,4.707,0,0,1,1.984,1.079,4.844,4.844,0,0,1,1.426,1.774" transform="translate(-4.99 -2.611)" fill="#263238"/>
                <path id="Trazado_697529" data-name="Trazado 697529" d="M39.4,13.039a19.576,19.576,0,0,0-.947-1.83,19.423,19.423,0,0,0-1.291-1.594A4.329,4.329,0,0,1,38.611,11.1a4.453,4.453,0,0,1,.786,1.939" transform="translate(-6.34 -1.64)" fill="#263238"/>
                <path id="Trazado_697530" data-name="Trazado 697530" d="M50.148,10.272a5.739,5.739,0,0,0-.436-2,5.628,5.628,0,0,0-1.255-1.6,1.313,1.313,0,0,1,.524.322,3.544,3.544,0,0,1,.9,1.193,3.635,3.635,0,0,1,.345,1.467,1.356,1.356,0,0,1-.083.618" transform="translate(-8.268 -1.138)" fill="#263238"/>
                <path id="Trazado_697531" data-name="Trazado 697531" d="M57.167,10.744a13.141,13.141,0,0,0-.115-1.6,12.852,12.852,0,0,0-.5-1.526A2.78,2.78,0,0,1,57.242,9.1a2.82,2.82,0,0,1-.075,1.643" transform="translate(-9.649 -1.299)" fill="#263238"/>
                <path id="Trazado_697532" data-name="Trazado 697532" d="M52.718,48.933c-.1,0-4.456-1.705-4.456-1.705s-1.263,2.52.265,3.678,3.383.427,3.679-.263a11.311,11.311,0,0,0,.512-1.71" transform="translate(-8.151 -8.059)" fill="#ff9b6c"/>
                <path id="Trazado_697533" data-name="Trazado 697533" d="M51.681,51.073c.021.013-.139.24-.57.368a3.917,3.917,0,0,1-1.82.034h0l-.009,0a2.7,2.7,0,0,1-1.5-1.054,2.764,2.764,0,0,1-.226-2.126,5.038,5.038,0,0,1,.471-1.222l.087-.16.173.067a32.726,32.726,0,0,1,4.544,1.968,32.676,32.676,0,0,1-4.7-1.573l.26-.093a4.91,4.91,0,0,0-.418,1.114,2.073,2.073,0,0,0,1.412,2.754l-.013,0a4.4,4.4,0,0,0,1.7.111c.4-.061.588-.216.615-.18" transform="translate(-8.095 -8.004)" fill="#263238"/>
              </g>
            </g>
          </g>
        </g>
        <g id="Grupo_952174-2" data-name="Grupo 952174" transform="translate(1234.651 2956.917)">
          <g id="Grupo_952188" data-name="Grupo 952188" transform="translate(0)" clip-path="url(#clip-path-14)">
            <g id="Grupo_952187" data-name="Grupo 952187">
              <g id="Grupo_952186" data-name="Grupo 952186" clip-path="url(#clip-path-14)">
                <path id="Trazado_697534" data-name="Trazado 697534" d="M89.967,378.121l.918,19.107S72.065,404.592,71.9,408.14l36.553-.478-.228-29.831Z" transform="translate(-12.268 -64.471)" fill="#263238"/>
                <path id="Trazado_697535" data-name="Trazado 697535" d="M108.032,399.089a1.517,1.517,0,0,1,1.054,1.716,1.435,1.435,0,0,1-1.666,1.076,1.6,1.6,0,0,1-1.106-1.823,1.483,1.483,0,0,1,1.855-.924" transform="translate(-18.132 -68.088)" fill="#e0e0e0"/>
                <path id="Trazado_697536" data-name="Trazado 697536" d="M108.446,413.182l-.139-3.006-34.994,1.582s-1.618.741-1.419,1.9Z" transform="translate(-12.265 -69.99)" fill="#455a64"/>
                <path id="Trazado_697537" data-name="Trazado 697537" d="M94.075,400.964c.008.182.9.251,1.787.823.9.548,1.363,1.327,1.526,1.253.164-.037-.115-1.117-1.2-1.79s-2.154-.452-2.113-.286" transform="translate(-16.052 -68.388)" fill="#fff"/>
                <path id="Trazado_697538" data-name="Trazado 697538" d="M89.477,402.985c-.038.176.738.474,1.354,1.232.638.741.8,1.568.979,1.557.168.027.278-1.037-.506-1.965s-1.826-1-1.828-.824" transform="translate(-15.267 -68.75)" fill="#fff"/>
                <path id="Trazado_697539" data-name="Trazado 697539" d="M86.621,408.013c.162.036.4-.872-.072-1.859s-1.31-1.371-1.384-1.218c-.1.15.45.675.824,1.491.393.807.454,1.57.632,1.586" transform="translate(-14.53 -69.09)" fill="#fff"/>
                <path id="Trazado_697540" data-name="Trazado 697540" d="M94.395,395.582c.077.164.892-.1,1.9-.04,1.011.036,1.8.369,1.891.212.1-.133-.673-.794-1.864-.843s-2.02.529-1.93.67" transform="translate(-16.106 -67.385)" fill="#fff"/>
                <path id="Trazado_697541" data-name="Trazado 697541" d="M145.27,385.883l1.98,23.056-3.614,18.695a2.367,2.367,0,0,0,2,2.81,2.3,2.3,0,0,0,2.009-.745c3.258-3.606,15.177-16.933,14.939-18.613-.275-1.944-.5-24.461-.5-24.461Z" transform="translate(-24.502 -65.845)" fill="#263238"/>
                <path id="Trazado_697542" data-name="Trazado 697542" d="M146.055,435.308l16.85-20.916.061.979a3.606,3.606,0,0,1-.686,2.364c-1.335,1.817-5.131,6.754-14.148,16.825a2.313,2.313,0,0,1-2.078.748" transform="translate(-24.922 -70.709)" fill="#455a64"/>
                <g id="Grupo_952185" data-name="Grupo 952185" transform="translate(132.337 336.265)" opacity="0.6">
                  <g id="Grupo_952184" data-name="Grupo 952184">
                    <g id="Grupo_952183" data-name="Grupo 952183" clip-path="url(#clip-path-16)">
                      <path id="Trazado_697543" data-name="Trazado 697543" d="M160.071,405.72a1.45,1.45,0,0,0-.268,1.9,1.345,1.345,0,0,0,1.848.286,1.53,1.53,0,0,0,.273-2.009,1.394,1.394,0,0,0-1.954-.081" transform="translate(-159.564 -405.448)" fill="#fff"/>
                    </g>
                  </g>
                </g>
                <path id="Trazado_697544" data-name="Trazado 697544" d="M150.575,426.535a7.136,7.136,0,0,0-2.108-1.666,7.012,7.012,0,0,0-2.651-.338c-.023-.056.254-.254.781-.365a3.6,3.6,0,0,1,2.062.233,3.649,3.649,0,0,1,1.619,1.318c.3.457.352.8.3.819" transform="translate(-24.881 -72.366)" fill="#fff"/>
                <path id="Trazado_697545" data-name="Trazado 697545" d="M148.948,430.591a18.893,18.893,0,0,0-2.078-.862,18.612,18.612,0,0,0-2.24-.146,2.563,2.563,0,0,1,2.353-.35c1.363.311,2.079,1.288,1.965,1.358" transform="translate(-24.678 -73.225)" fill="#fff"/>
                <path id="Trazado_697546" data-name="Trazado 697546" d="M153.544,421.529a23.156,23.156,0,0,0-3.118-1.55A22.962,22.962,0,0,0,147,419.4a5.1,5.1,0,0,1,3.578.1,5.179,5.179,0,0,1,2.965,2.034" transform="translate(-25.083 -71.521)" fill="#fff"/>
                <path id="Trazado_697547" data-name="Trazado 697547" d="M153.635,413.347c-.052.142-1.342-.309-2.982-.262-1.64.023-2.91.53-2.967.39a5.721,5.721,0,0,1,5.949-.128" transform="translate(-25.2 -70.399)" fill="#fff"/>
                <path id="Trazado_697548" data-name="Trazado 697548" d="M153.114,405.144a11.267,11.267,0,0,0-3.1-.357,11.34,11.34,0,0,0-2.967.966c-.04-.046.19-.353.7-.694a5.026,5.026,0,0,1,4.554-.457c.561.235.846.489.815.542" transform="translate(-25.091 -68.98)" fill="#fff"/>
                <path id="Trazado_697549" data-name="Trazado 697549" d="M149.8,402.377a2.017,2.017,0,0,1-.086-.872,6.157,6.157,0,0,1,.539-2.332,2.7,2.7,0,0,1,1.056-1.359.928.928,0,0,1,1.069.143,1.564,1.564,0,0,1,.425,1.019,3.338,3.338,0,0,1-2.691,3.283,3.807,3.807,0,0,1-3.882-1.785,1.369,1.369,0,0,1-.134-1.116.921.921,0,0,1,.931-.556,3.236,3.236,0,0,1,1.548.693,6.712,6.712,0,0,1,1.666,1.694,2.067,2.067,0,0,1,.4.775,10.722,10.722,0,0,0-2.262-2.17,3.033,3.033,0,0,0-1.365-.571.489.489,0,0,0-.508.3.936.936,0,0,0,.13.728,3.4,3.4,0,0,0,3.383,1.509,2.9,2.9,0,0,0,2.324-2.754,1.133,1.133,0,0,0-.267-.725.5.5,0,0,0-.589-.087,2.427,2.427,0,0,0-.915,1.134,9.125,9.125,0,0,0-.772,3.049" transform="translate(-24.918 -67.862)" fill="#fff"/>
                <path id="Trazado_697550" data-name="Trazado 697550" d="M72.576,188.713a83.383,83.383,0,0,0-1.767,24.169c.39,5.136,17.461,147.231,17.461,147.231H111.32l-6.479-133.549,1.888.416s12.582,56.958,13.609,66.181c.922,8.289,12.222,73.443,12.222,73.443l21.746-.245-8.09-84.1-7.833-76.43-2.947-22.248Z" transform="translate(-12.045 -31.325)" fill="#263238"/>
                <path id="Trazado_697551" data-name="Trazado 697551" d="M113.222,67.54l.493-40.455c.45-10.059-5.028-18.706-15.1-18.878l-.931.038A18,18,0,0,0,80.439,25.523c-.343,8.721-.608,18.361-.357,23.022C80.6,58.195,90.317,59.3,90.317,59.3c.022,0,.06,5.874.055,8.709L88.1,74.63,96.048,72.7Z" transform="translate(-13.648 -1.4)" fill="#ae7461"/>
                <path id="Trazado_697552" data-name="Trazado 697552" d="M92.443,68.937A23.344,23.344,0,0,0,104.859,64.7s-2.724,7.383-12.393,6.912Z" transform="translate(-15.774 -11.04)" fill="#6f4439"/>
                <path id="Trazado_697553" data-name="Trazado 697553" d="M84.249,38.86A1.38,1.38,0,0,0,85.636,40.2,1.319,1.319,0,0,0,87,38.894a1.38,1.38,0,0,0-1.385-1.337,1.321,1.321,0,0,0-1.371,1.3" transform="translate(-14.376 -6.408)" fill="#263238"/>
                <path id="Trazado_697554" data-name="Trazado 697554" d="M83.215,33.8c.178.173,1.191-.644,2.675-.7,1.481-.079,2.6.639,2.754.451.076-.084-.111-.4-.6-.727a3.785,3.785,0,0,0-2.214-.584,3.636,3.636,0,0,0-2.12.783c-.442.368-.583.7-.5.777" transform="translate(-14.195 -5.501)" fill="#263238"/>
                <path id="Trazado_697555" data-name="Trazado 697555" d="M100.334,38.86a1.38,1.38,0,0,0,1.387,1.336,1.32,1.32,0,0,0,1.37-1.3,1.381,1.381,0,0,0-1.386-1.337,1.321,1.321,0,0,0-1.371,1.3" transform="translate(-17.12 -6.408)" fill="#263238"/>
                <path id="Trazado_697556" data-name="Trazado 697556" d="M100.766,33.492c.178.173,1.193-.643,2.676-.7,1.48-.078,2.6.64,2.755.451.075-.083-.111-.4-.6-.726a3.777,3.777,0,0,0-2.214-.584,3.638,3.638,0,0,0-2.12.782c-.44.369-.582.7-.5.777" transform="translate(-17.19 -5.448)" fill="#263238"/>
                <path id="Trazado_697557" data-name="Trazado 697557" d="M94.135,45.275a9.841,9.841,0,0,0-2.428-.335c-.381-.023-.742-.084-.816-.34a1.925,1.925,0,0,1,.206-1.133q.478-1.4,1-2.931c1.387-4.172,2.374-7.6,2.205-7.649s-1.429,3.283-2.815,7.454q-.5,1.543-.954,2.946a2.2,2.2,0,0,0-.135,1.5.953.953,0,0,0,.646.528,2.617,2.617,0,0,0,.647.063,9.682,9.682,0,0,0,2.442-.1" transform="translate(-15.41 -5.611)" fill="#263238"/>
                <path id="Trazado_697558" data-name="Trazado 697558" d="M99.957,27.89c.217.371,1.64-.087,3.391-.2,1.749-.145,3.223.1,3.385-.3.07-.189-.24-.518-.87-.8a5.907,5.907,0,0,0-5.162.377c-.582.37-.841.741-.744.917" transform="translate(-17.053 -4.466)" fill="#263238"/>
                <path id="Trazado_697559" data-name="Trazado 697559" d="M82.911,28.535c.317.329,1.516-.053,2.969-.108,1.451-.1,2.69.156,2.964-.2.119-.174-.084-.508-.629-.812a4.674,4.674,0,0,0-2.43-.488,4.609,4.609,0,0,0-2.351.74c-.5.36-.663.712-.523.872" transform="translate(-14.139 -4.593)" fill="#263238"/>
                <path id="Trazado_697560" data-name="Trazado 697560" d="M120.06,39.545c.162-.078,6.552-2.236,6.614,4.372s-6.586,5.308-6.6,5.119-.015-9.491-.015-9.491" transform="translate(-20.486 -6.68)" fill="#ae7461"/>
                <path id="Trazado_697561" data-name="Trazado 697561" d="M122.483,46.951c.029-.022.116.08.311.167a1.151,1.151,0,0,0,.861.01,2.85,2.85,0,0,0,1.295-2.569,3.8,3.8,0,0,0-.338-1.645,1.328,1.328,0,0,0-.874-.875.585.585,0,0,0-.676.322c-.087.186-.044.317-.079.328-.018.017-.143-.109-.092-.382a.728.728,0,0,1,.256-.416.866.866,0,0,1,.634-.175,1.62,1.62,0,0,1,1.213,1.013,3.914,3.914,0,0,1,.416,1.839,2.989,2.989,0,0,1-1.653,2.87,1.233,1.233,0,0,1-1.054-.165c-.207-.162-.243-.309-.22-.321" transform="translate(-20.899 -7.117)" fill="#6f4439"/>
                <path id="Trazado_697562" data-name="Trazado 697562" d="M64.441,15.428a1.56,1.56,0,0,1,.724-.923,4.823,4.823,0,0,1,2.468-.429,13.92,13.92,0,0,0,6.029-1.587,6.891,6.891,0,0,1-1.791-1.228A4.148,4.148,0,0,1,70.63,7.149a.925.925,0,0,1,.511-.638c.428-.136.809.281,1.112.612A3.571,3.571,0,0,0,75.63,8.508a5.853,5.853,0,0,0,2.5-.771c.028-.03.054-.063.083-.093.339-.359.67-.7,1-1.033l0,0v0c2.459-2.494,4.577-4.227,6.768-5.138A22.46,22.46,0,0,1,97.96.393c3.375.844,6.427,3.539,6.934,6.981,1.869-1.616,4.7-1.636,7.009-.738l.057-.026c2.569.883,4.054,3.57,4.839,6.171.044.142.08.286.122.43a10.132,10.132,0,0,0,3.481,3.324c.249.141.534.314.568.6s-.2.518-.43.686a5.111,5.111,0,0,1-2.063.884,11.484,11.484,0,0,0,.869,1.789c.294.486.644,1.068.4,1.58a1.08,1.08,0,0,1-1.125.5,3.168,3.168,0,0,1-1.2-.525l.88,2.04a6.041,6.041,0,0,1-2.785-.154c-.517,2.447-.874,6.971-1.484,8.632-1.752.051-2.181-.135-3.064.168-1.14.393-.68,2.413-2.176,1.855-.761-.284-1.957-3.145-2.22-3.914a37.725,37.725,0,0,1-1.815-15.955,12.124,12.124,0,0,0-3.777-2.661l.115.1c-2.713-.908-5.78-1.8-8.329-.5-1.978,1.007-3.123,3.084-4.592,4.747A13.832,13.832,0,0,1,78.024,21.5c-.346,2.922-.4,7.694-.516,10.418l-2.386-5.423,0,.022c-.192-.318-.351-.638-.5-.959l-.052-.1v-.012a17.141,17.141,0,0,0-.783-1.54l-.027.024a1.7,1.7,0,0,1-2.511-2.247,3.869,3.869,0,0,1,.814-.836,2.692,2.692,0,0,1-2.556.694,2.112,2.112,0,0,1-1.517-2.071,1.8,1.8,0,0,1,1.055-1.452A6.058,6.058,0,0,1,65.58,17.3c-.685-.381-1.361-1.012-1.139-1.871" transform="translate(-10.988 0)" fill="#263238"/>
                <path id="Trazado_697563" data-name="Trazado 697563" d="M109.57,10.271a8.327,8.327,0,0,1,.98.877,6.942,6.942,0,0,1,1.521,3.194,12.258,12.258,0,0,1,.275,2.455c.013.891-.047,1.845-.1,2.851a25.409,25.409,0,0,0-.036,3.173,11.064,11.064,0,0,0,.237,1.67,3.479,3.479,0,0,0,.7,1.615,1.46,1.46,0,0,0,1.37.444,2.173,2.173,0,0,0,1.22-.707,5.007,5.007,0,0,0,.9-2.47l-.2.027a8.117,8.117,0,0,0,1.2,2.013,2.885,2.885,0,0,0,1.893,1,1.853,1.853,0,0,0,1-.187,1.607,1.607,0,0,0,.67-.675,1.655,1.655,0,0,0,.2-.859,1.205,1.205,0,0,0-.319-.749l-.1.093a6.233,6.233,0,0,0,2.095,1.535,5.575,5.575,0,0,0,.647.243,1.016,1.016,0,0,0,.231.054,1.323,1.323,0,0,0-.219-.09c-.145-.057-.36-.141-.628-.274a6.431,6.431,0,0,1-2.024-1.558l-.1.092a1.24,1.24,0,0,1,.08,1.436,1.452,1.452,0,0,1-.605.6,1.693,1.693,0,0,1-.9.158,2.7,2.7,0,0,1-1.757-.954,7.982,7.982,0,0,1-1.156-1.971L116.488,23l-.061.335a4.841,4.841,0,0,1-.86,2.36,1.96,1.96,0,0,1-1.092.634,1.232,1.232,0,0,1-1.164-.376,3.3,3.3,0,0,1-.648-1.511,11.081,11.081,0,0,1-.236-1.636,25.884,25.884,0,0,1,.024-3.146c.051-1.006.1-1.965.083-2.866a12.177,12.177,0,0,0-.307-2.487,6.836,6.836,0,0,0-1.612-3.218,3.926,3.926,0,0,0-1.045-.817" transform="translate(-18.696 -1.753)" fill="#455a64"/>
                <path id="Trazado_697564" data-name="Trazado 697564" d="M73.622,18.919s.024.025.078.066l.244.173a3.214,3.214,0,0,0,.413.258,5.241,5.241,0,0,0,.591.3,8.589,8.589,0,0,0,4.148.7,10.961,10.961,0,0,0,5.813-2.223,18.977,18.977,0,0,0,4.949-5.837c.69-1.179,1.25-2.386,1.869-3.5a12.819,12.819,0,0,1,2.127-2.969,6.609,6.609,0,0,1,2.768-1.723,4.71,4.71,0,0,1,1.467-.186,5.2,5.2,0,0,1,1.349.243,5.6,5.6,0,0,1,3.138,2.594,6.744,6.744,0,0,1,.516,1.445.359.359,0,0,0-.009-.1c-.013-.08-.03-.177-.049-.3a4.917,4.917,0,0,0-.38-1.088,5.526,5.526,0,0,0-1.1-1.456,5.647,5.647,0,0,0-2.066-1.25A5.351,5.351,0,0,0,98.1,3.8a4.9,4.9,0,0,0-1.527.181,6.754,6.754,0,0,0-2.862,1.755,12.885,12.885,0,0,0-2.175,3.01c-.628,1.124-1.188,2.328-1.872,3.5a18.994,18.994,0,0,1-4.878,5.783,10.9,10.9,0,0,1-5.7,2.229,8.7,8.7,0,0,1-4.1-.619,13.678,13.678,0,0,1-1.362-.719" transform="translate(-12.562 -0.648)" fill="#455a64"/>
                <path id="Trazado_697565" data-name="Trazado 697565" d="M72.5,16.915a1.5,1.5,0,0,0,.35.238,7.491,7.491,0,0,0,1.033.51,9.969,9.969,0,0,0,1.632.515,10.532,10.532,0,0,0,4.175.086,9.949,9.949,0,0,0,1.652-.448A7.493,7.493,0,0,0,82.4,17.35a1.571,1.571,0,0,0,.359-.222c-.02-.038-.551.242-1.465.538a11.313,11.313,0,0,1-1.636.393,11.257,11.257,0,0,1-4.1-.084,11.513,11.513,0,0,1-1.618-.461c-.9-.333-1.42-.636-1.441-.6" transform="translate(-12.371 -2.886)" fill="#455a64"/>
                <path id="Trazado_697566" data-name="Trazado 697566" d="M95.09,51.6c.115,0,5.21-1.994,5.21-1.994s1.476,2.946-.31,4.3-3.955.5-4.3-.308a13.146,13.146,0,0,1-.6-2" transform="translate(-16.226 -8.464)" fill="#6f4439"/>
                <path id="Trazado_697567" data-name="Trazado 697567" d="M96.2,54.109a5.893,5.893,0,0,0,.716.226,5.1,5.1,0,0,0,1.993-.118l-.013,0a2.453,2.453,0,0,0,1.677-3.256,5.788,5.788,0,0,0-.493-1.311l.26.093c-1.546.581-2.906,1.074-3.884,1.409a7.179,7.179,0,0,1-1.594.464,7.2,7.2,0,0,1,1.5-.721c.952-.4,2.292-.947,3.831-1.548l.173-.067.087.16a5.873,5.873,0,0,1,.546,1.421,3.2,3.2,0,0,1-.259,2.459A3.139,3.139,0,0,1,99,54.547l-.008,0,0,0a4.609,4.609,0,0,1-2.117-.027c-.5-.144-.691-.4-.67-.415" transform="translate(-16.186 -8.41)" fill="#263238"/>
                <path id="Trazado_697568" data-name="Trazado 697568" d="M39.62,146.3l17.438,10.943c6.284,3.317,10.831.917,12.345-4.4l-.159-19.47s-11.067-5.893-12.757-6.149c-.561-.085-1.4,11.31-1.4,11.31L38.3,133.84l-4.242,8.581Z" transform="translate(-5.811 -21.71)" fill="#ae7461"/>
                <path id="Trazado_697569" data-name="Trazado 697569" d="M32.3,129.029c-.108-.188-4.8-7.638-7.453-10.431s-2.723-5.845-4.608-6.1S18,114.9,18.909,117.62s3.351,4.119,2.652,5.1-15.81-1.572-15.81-1.572-1.955-2-3.491-.322c0,0-2.437-.58-2.25,1.313.2,2.026,4.624,2.108,4.624,2.108l2.193,3.92,5.1,1.884a7,7,0,0,0,1.83,3.63,14.142,14.142,0,0,0,2.848,2.335c.209.038,4.747,2.831,7.051,3.39s5.376,1.047,5.376,1.047l4.189-8.378a5.91,5.91,0,0,0-.926-3.044" transform="translate(0 -19.193)" fill="#ae7461"/>
                <path id="Trazado_697570" data-name="Trazado 697570" d="M14.323,131.443a8.573,8.573,0,0,1-.573-3.492c.183-1.6,1.693-8.691,2.379-8.829s1.876-.549,2.2,1.373-.778,6.464-.778,6.571a10.039,10.039,0,0,1,.836,3.081" transform="translate(-2.341 -20.304)" fill="#ae7461"/>
                <path id="Trazado_697571" data-name="Trazado 697571" d="M18.356,130.1c-.036,0-.07-.357-.227-.983A9.708,9.708,0,0,0,17.774,128c-.082-.214-.176-.438-.284-.676l-.083-.188a.429.429,0,0,1,0-.278c.027-.137.052-.277.08-.419a40.516,40.516,0,0,0,.612-4.02A6.737,6.737,0,0,0,18,120.1a1.261,1.261,0,0,0-.612-.859,1.917,1.917,0,0,0-1.159.032c-.08-.036-.178.172-.27.352a6.31,6.31,0,0,0-.236.586c-.142.4-.265.805-.379,1.205-.231.8-.425,1.582-.6,2.328-.352,1.492-.649,2.849-.838,3.986a7.228,7.228,0,0,0,.17,2.685,9.267,9.267,0,0,1,.226.984,3.059,3.059,0,0,1-.389-.94,6.708,6.708,0,0,1-.309-2.77c.154-1.165.419-2.526.752-4.035.17-.753.359-1.541.586-2.353.114-.406.236-.818.382-1.234.073-.207.153-.416.25-.626a2.14,2.14,0,0,1,.177-.32.8.8,0,0,1,.15-.172.584.584,0,0,1,.164-.081l.08-.017a2.274,2.274,0,0,1,1.422,0,1.67,1.67,0,0,1,.845,1.135,6.968,6.968,0,0,1,.085,2.476,34.4,34.4,0,0,1-.709,4.046c-.034.141-.066.279-.1.414-.014.094-.035.083-.015.121l.071.18c.1.244.186.479.26.7a8.158,8.158,0,0,1,.29,1.164,2.907,2.907,0,0,1,.063,1.018" transform="translate(-2.313 -20.259)" fill="#6f4439"/>
                <path id="Trazado_697572" data-name="Trazado 697572" d="M31.633,134.577a17.594,17.594,0,0,0-2.32-.59,6.373,6.373,0,0,0-2.637.241,6.722,6.722,0,0,0-2.843,1.762l-.361.375.007-.511c.02-1.35.041-2.818.064-4.353v0l0-.017c.012-.149.026-.31.039-.471a6.974,6.974,0,0,0-.236-2.6,1.408,1.408,0,0,0-1.749-.946.953.953,0,0,0-.408.265.983.983,0,0,0-.174.451c-.082.363-.143.73-.2,1.081-.107.7-.208,1.358-.3,1.968-.168,1.14-.309,2.1-.421,2.858a4.264,4.264,0,0,1-.217,1.041,6.13,6.13,0,0,1,.051-1.061c.056-.68.148-1.664.285-2.877.069-.607.148-1.271.25-1.984.052-.357.105-.724.185-1.108.017-.1.048-.2.072-.3a.987.987,0,0,1,.173-.321,1.351,1.351,0,0,1,.574-.391,1.716,1.716,0,0,1,1.363.1,1.945,1.945,0,0,1,.916,1.072,7.208,7.208,0,0,1,.271,2.776c-.014.17-.029.339-.042.5l0-.022c-.032,1.535-.064,3-.092,4.353l-.353-.136a6.9,6.9,0,0,1,3.05-1.823,6.377,6.377,0,0,1,2.768-.16,5.449,5.449,0,0,1,1.007.248,3.941,3.941,0,0,1,.715.278,2.364,2.364,0,0,1,.564.309" transform="translate(-3.39 -21.669)" fill="#6f4439"/>
                <path id="Trazado_697573" data-name="Trazado 697573" d="M11.8,127.054a19.492,19.492,0,0,1-3.007-1.043l-.051-.02L8.7,125.93a12.36,12.36,0,0,0-1.275-1.623,16.7,16.7,0,0,0-1.705-1.692,3,3,0,0,0-1.566-.709,1.621,1.621,0,0,0-1.324.564l0-.22c.693,1.03,1.264,1.9,1.654,2.52a4.341,4.341,0,0,1,.562,1.01A4.408,4.408,0,0,1,4.3,124.9c-.444-.581-1.059-1.421-1.781-2.431l-.081-.113.082-.107a1.985,1.985,0,0,1,1.658-.761,3.347,3.347,0,0,1,1.81.788,15.092,15.092,0,0,1,1.747,1.761,11.027,11.027,0,0,1,1.276,1.734l-.089-.081a19.414,19.414,0,0,1,2.875,1.366" transform="translate(-0.416 -20.729)" fill="#6f4439"/>
                <path id="Trazado_697574" data-name="Trazado 697574" d="M68.048,88.3c-2.881,2.13-5.216,5.1-5.954,10.552L57.636,125.4l12.694,3.6,4.395-30.18Z" transform="translate(-9.835 -15.066)" fill="#f9a21b"/>
                <path id="Trazado_697575" data-name="Trazado 697575" d="M84.317,77.742,70.1,85.659c-1.194,7.929.6,52.686.6,52.686l-.663,42.916c19.926,9.861,42.891,6.254,67.245-1.684a9.771,9.771,0,0,0-.51-4.915l-3.9-37.621s1.009-29.073,1.009-29.617,2.179-27.6,2.179-27.6L112.673,72.84s-9.917,8.229-17.827,8.624c-6.823.341-6.462-5.787-6.462-5.787Z" transform="translate(-11.892 -12.429)" fill="#f9a21b"/>
                <path id="Trazado_697576" data-name="Trazado 697576" d="M69.658,101.057a7.534,7.534,0,0,1,.085,1.3c.018.913.041,2.1.07,3.539.037,3.064.087,7.153.142,11.675.064,4.559.163,8.684.268,11.67.051,1.433.093,2.623.126,3.536a7.586,7.586,0,0,1,0,1.3,7.526,7.526,0,0,1-.171-1.29c-.08-.833-.176-2.039-.263-3.532-.184-2.986-.33-7.115-.395-11.678s-.049-8.691-.015-11.68c.027-1.436.049-2.627.066-3.54a7.494,7.494,0,0,1,.084-1.3" transform="translate(-11.855 -17.244)" fill="#263238"/>
                <path id="Trazado_697577" data-name="Trazado 697577" d="M112.615,158.935c-.3.76-7.607,4.652-7.607,4.652h-3.332s-2.138-2.954-2.012-3.395,1.383-5.281-.377-5.029-2.955,3.385-3.206,4.207a4.019,4.019,0,0,0,.314,2.142s-3.017-3.709-5.092-2.766-1.068,2.263-1.068,2.263l6.035,5.218s-4.086-.5-4.024,2.452l3.647,1.7,5.945,1.008a4.352,4.352,0,0,0,2.147-.177l1.454-.5a32.131,32.131,0,0,0,5.479-1.086,12.544,12.544,0,0,0,3.994-2.961l7.637-8.418s1.068-4.338-1.383-5.532-1.635-.063-2.452-1.2-3.984-2.525-4.149.881c-.129,2.638,1.006,3.269,1.194,3.269s-1.949.252-3.143,3.269" transform="translate(-15.355 -25.638)" fill="#ae7461"/>
                <path id="Trazado_697578" data-name="Trazado 697578" d="M103.346,165.781a12.366,12.366,0,0,1-3.188-.428l-.04-.008-.034-.022-.092-.059c-1.539-.987-2.7-2-2.533-2.158.036-.007.3.2.809.526l1.96,1.27.09.058-.074-.03a12.375,12.375,0,0,1,3.1.851" transform="translate(-16.627 -27.831)" fill="#6f4439"/>
                <path id="Trazado_697579" data-name="Trazado 697579" d="M114.886,165.656c0,.043-.248.064-.647.213a3.736,3.736,0,0,0-1.417,1.02l.014-.019-1.134,1.85-.039.063-.078.026a12.027,12.027,0,0,0-1.208.475,8.613,8.613,0,0,0-1.953,1.176,1.519,1.519,0,0,0-.351,2.51c.2.222.326.333.309.359s-.178-.041-.425-.238a1.865,1.865,0,0,1-.7-1.155,1.524,1.524,0,0,1,.2-.958,3.712,3.712,0,0,1,.7-.819,8.111,8.111,0,0,1,2.035-1.268,10.673,10.673,0,0,1,1.265-.485l-.117.089,1.193-1.813.009-.014,0,0a3.454,3.454,0,0,1,1.626-.985c.449-.1.708-.051.707-.022" transform="translate(-18.3 -28.26)" fill="#6f4439"/>
                <path id="Trazado_697580" data-name="Trazado 697580" d="M121.059,156.776c.035-.056.217,0,.508.05a7.716,7.716,0,0,0,1.163.088,5.818,5.818,0,0,1,1.71.061c.026.113-.731.38-1.716.372a3.271,3.271,0,0,1-1.245-.228c-.306-.136-.45-.3-.42-.342" transform="translate(-20.656 -26.747)" fill="#6f4439"/>
                <path id="Trazado_697581" data-name="Trazado 697581" d="M126.8,154.039s3.934-1.076,7.989-2.316l9.028-3.239-2.8-16.233,18.963-6.639s3.264,23.71,2.464,29.745c-.784,5.9-4.074,7.306-8.683,8.806s-38.353-.173-38.825.554,4.6-6.671,4.6-6.671Z" transform="translate(-19.606 -21.434)" fill="#ae7461"/>
                <path id="Trazado_697582" data-name="Trazado 697582" d="M120.872,167.9a8.7,8.7,0,0,1-4.46,4.139c-.063-.11,1.091-.843,2.31-1.983s2.045-2.227,2.151-2.156" transform="translate(-19.863 -28.649)" fill="#6f4439"/>
                <path id="Trazado_697583" data-name="Trazado 697583" d="M158.132,156.312a24.567,24.567,0,0,0-3.925-2.263,24.582,24.582,0,0,0-4.4-1.084,9.957,9.957,0,0,1,8.324,3.346" transform="translate(-25.562 -26.086)" fill="#6f4439"/>
                <path id="Trazado_697584" data-name="Trazado 697584" d="M106.537,168.156c.019.059-.789.378-2.044,1.008l-1.026.519-.575.292-.155.075-.086.038a.349.349,0,0,1-.152.026l-.343-.034-3.025-.316-1.566-.177a12.265,12.265,0,0,0-1.441-.122,4.312,4.312,0,0,0-2.294.487,2.173,2.173,0,0,0-.976,1.2c-.117.363-.121.583-.152.584s-.085-.222-.011-.627a2.219,2.219,0,0,1,.974-1.412,4.413,4.413,0,0,1,2.46-.628,11.134,11.134,0,0,1,1.473.1l1.557.168,3,.35.343.041c-.022.024.153-.058.23-.091l.58-.271,1.055-.474a7.808,7.808,0,0,1,2.173-.731" transform="translate(-15.81 -28.692)" fill="#6f4439"/>
                <path id="Trazado_697585" data-name="Trazado 697585" d="M148.367,81.266c.545.182,6.878,2.048,10.327,11.126s8.009,32.8,8.009,32.8l-21.627,4.368-3.245-29.39Z" transform="translate(-24.201 -13.867)" fill="#f9a21b"/>
                <path id="Trazado_697586" data-name="Trazado 697586" d="M140.235,106.966a5.062,5.062,0,0,1,.2,1.053c.11.768.25,1.734.415,2.886.346,2.436.848,5.8,1.491,9.495s1.311,7.032,1.81,9.441l.586,2.856a5.155,5.155,0,0,1,.167,1.06,5.106,5.106,0,0,1-.33-1.021c-.187-.663-.434-1.63-.722-2.828-.576-2.4-1.29-5.727-1.937-9.433s-1.1-7.082-1.368-9.531c-.135-1.225-.23-2.218-.279-2.905a5.09,5.09,0,0,1-.035-1.072" transform="translate(-23.926 -18.252)" fill="#263238"/>
                <path id="Trazado_697587" data-name="Trazado 697587" d="M147.368,84.27a20.173,20.173,0,0,0-4.892,4.429,20.228,20.228,0,0,0-2.822,5.966,5.827,5.827,0,0,1,.336-1.949,13.78,13.78,0,0,1,5.611-7.561,5.737,5.737,0,0,1,1.768-.886" transform="translate(-23.827 -14.379)" fill="#263238"/>
              </g>
            </g>
          </g>
        </g>
      </g>
      <g id="Grupo_952190" data-name="Grupo 952190" transform="translate(1354.876 2990.983) rotate(47)">
        <g id="Grupo_952189" data-name="Grupo 952189" transform="translate(0 0)" clip-path="url(#clip-path-17)">
          <path id="Trazado_697589" data-name="Trazado 697589" d="M.138,31.279l6.395,1.138a19.428,19.428,0,1,0-3.6-5.948l-.006-.009Z" transform="translate(-0.138 -0.042)" fill="#fafafa"/>
          <path id="Trazado_697590" data-name="Trazado 697590" d="M0,31.237s.053-.1.169-.308l.522-.924,2.054-3.611a.047.047,0,0,1,.065-.018.045.045,0,0,1,.015.014l.006.009-.084.045a19.314,19.314,0,0,1-.542-12.363c.146-.5.346-1,.522-1.512a11.578,11.578,0,0,1,.653-1.519A19.3,19.3,0,0,1,7.565,5.314,19.614,19.614,0,0,1,22.653.071,19.921,19.921,0,0,1,31.2,2.965a18.418,18.418,0,0,1,1.919,1.353,11.12,11.12,0,0,1,.89.78c.285.274.6.522.863.82A19.711,19.711,0,0,1,36.42,7.751c.236.325.483.645.711.977l.623,1.042a19.514,19.514,0,0,1,.971,17.5A19.465,19.465,0,0,1,20.317,38.948a21.425,21.425,0,0,1-3.2-.346,26,26,0,0,1-2.891-.812,19.275,19.275,0,0,1-7.872-5.381l.029.016-4.772-.881L.4,31.317c-.271-.051-.4-.08-.4-.08s.147.021.425.067l1.231.208,4.748.813a.054.054,0,0,1,.029.016,19.272,19.272,0,0,0,7.849,5.3,25.926,25.926,0,0,0,2.87.794,21.287,21.287,0,0,0,3.169.333,19.318,19.318,0,0,0,18.2-11.588,19.3,19.3,0,0,0-.969-17.294l-.615-1.03c-.226-.329-.47-.645-.7-.966A19.351,19.351,0,0,0,34.7,6.081c-.261-.294-.571-.539-.853-.81a10.873,10.873,0,0,0-.879-.772,18.257,18.257,0,0,0-1.895-1.337A19.715,19.715,0,0,0,22.633.295,19.431,19.431,0,0,0,7.7,5.457a19.169,19.169,0,0,0-4.159,5.67,11.493,11.493,0,0,0-.652,1.5c-.176.508-.376,1-.523,1.5a19.25,19.25,0,0,0-.62,2.935A19.474,19.474,0,0,0,2.839,26.41a.047.047,0,0,1-.027.062.05.05,0,0,1-.057-.017l-.006-.009.08,0L.74,30l-.547.924c-.124.209-.193.318-.193.318" transform="translate(-0.001 0)" fill="#263238"/>
          <path id="Trazado_697591" data-name="Trazado 697591" d="M13.486,27.421a1.969,1.969,0,1,1,1.969,1.969,1.97,1.97,0,0,1-1.969-1.969" transform="translate(-4.344 6.805) rotate(-47)" fill="#263238"/>
          <path id="Trazado_697592" data-name="Trazado 697592" d="M24.577,27.421a1.97,1.97,0,1,1,1.969,1.969,1.97,1.97,0,0,1-1.969-1.969" transform="translate(-17.284 20.68) rotate(-47)" fill="#263238"/>
          <path id="Trazado_697593" data-name="Trazado 697593" d="M36.275,28.406a1.969,1.969,0,1,1,2.69.721,1.969,1.969,0,0,1-2.69-.721" transform="translate(-30.624 34.985) rotate(-47)" fill="#263238"/>
        </g>
      </g>
    </g>
  </g>
</svg>
