<svg xmlns="http://www.w3.org/2000/svg" xmlns:xlink="http://www.w3.org/1999/xlink" width="630" height="296" viewBox="0 0 630 296">
  <defs>
    <clipPath id="clip-path">
      <rect id="Rectángulo_344927" data-name="Rectángulo 344927" width="630" height="296" transform="translate(179.988 1912)" fill="#fff" opacity="0.49"/>
    </clipPath>
    <clipPath id="clip-path-2">
      <rect id="Rectángulo_343924" data-name="Rectángulo 343924" width="704.165" height="276.477" fill="none"/>
    </clipPath>
    <clipPath id="clip-path-4">
      <rect id="Rectángulo_343921" data-name="Rectángulo 343921" width="55.256" height="16.302" fill="none"/>
    </clipPath>
    <clipPath id="clip-path-5">
      <rect id="Rectángulo_343922" data-name="Rectángulo 343922" width="32.949" height="12.741" fill="none"/>
    </clipPath>
  </defs>
  <g id="Enmascarar_grupo_125" data-name="Enmascarar grupo 125" transform="translate(-179.988 -1912)" clip-path="url(#clip-path)">
    <g id="Grupo_895350" data-name="Grupo 895350" transform="translate(136 1931.601)">
      <g id="Grupo_895349" data-name="Grupo 895349" clip-path="url(#clip-path-2)">
        <g id="Grupo_895348" data-name="Grupo 895348">
          <g id="Grupo_895347" data-name="Grupo 895347" clip-path="url(#clip-path-2)">
            <path id="Trazado_690690" data-name="Trazado 690690" d="M856.677,257.611a4.853,4.853,0,0,0-.656.058,21.755,21.755,0,0,0-.906-2.332h0a16.294,16.294,0,0,0-1.985-3.326l-.06-.077c-.127-.158-.255-.31-.386-.458l-.122-.138c-.122-.134-.246-.266-.372-.392-.052-.052-.1-.1-.158-.152-.122-.117-.244-.233-.368-.342-.058-.05-.117-.1-.175-.143q-.332-.274-.675-.506c-.077-.053-.154-.11-.232-.158s-.189-.11-.284-.163-.214-.123-.323-.178c-.092-.047-.185-.088-.279-.13-.115-.052-.231-.1-.348-.148-.09-.035-.18-.067-.272-.1-.125-.042-.251-.08-.378-.114-.086-.023-.171-.047-.258-.066-.142-.032-.286-.056-.43-.077-.073-.011-.145-.025-.218-.034a5.661,5.661,0,0,0-1.622.042c-.106.017-.208.051-.314.074a6.173,6.173,0,0,0-.622.158c-.124.041-.244.1-.366.145-.181.072-.362.142-.539.23-.129.064-.254.142-.38.214-.165.1-.331.189-.492.3-.128.087-.253.184-.379.279l0,0L843,242.814a17.671,17.671,0,0,0,10.463-8.4c3.666-6.8,2.155-16.106-7.145-17.089a15.073,15.073,0,0,0-14.035,6.34V183.807l.015-.037v-3.956l1.069-2.638v-1.124h0l0-.007H810.754l-7.816,19.237h0v.729h1.206v1.89h-1.206v1.941H775.508V169.553H737.57l-16.4,29.3h.007v1.16h2.633v27.064c-.144-.191-.3-.371-.452-.547-.081-6.39-3.72-11.761-8.482-12.243a7,7,0,0,0-4.361,1.024V197.263l2.573-4.766H681.09L674.175,205.3v-9.986h-.064l1.523-2.822H643.642l-11.185,20.717H644.24V216.3H637.1v1.288h-3.09v19.744h-2.678v18.027h2.678v16.883H759.5v-.021h61.228v.021h44.3c0-.021,0-.041,0-.063,0-8.044-3.739-14.564-8.351-14.564" transform="translate(-186.771 -50.16)" fill="#addde0"/>
            <path id="Trazado_690691" data-name="Trazado 690691" d="M370.788,110.317h-1.81v-6.2H319.192v6.2h-1.3V224.779h63.3l-7.173-114.461Z" transform="translate(-94.043 -30.801)" fill="#addde0"/>
            <path id="Trazado_690692" data-name="Trazado 690692" d="M710.166,130.934h-1.072v-5.428H679.6v5.428h-.772V231.107h37.5l-4.249-100.173Z" transform="translate(-200.821 -37.129)" fill="#addde0"/>
            <path id="Trazado_690693" data-name="Trazado 690693" d="M577.924,200.652h-.443V91.308h-6.04V82.166l.425-2.385h-39L526.832,115h2.223l-.508,9.926h-.71v75.73h-.277v1.168h50.365Z" transform="translate(-155.855 -23.602)" fill="#addde0"/>
            <path id="Trazado_690694" data-name="Trazado 690694" d="M807.872,236.44h-.423V117.759h-5.757v-9.922l.4-2.589H764.916l-5.75,38.222h2.119l-.485,10.774h-.676v82.2h-.264v1.268h48.011Z" transform="translate(-224.588 -31.136)" fill="#addde0"/>
            <path id="Trazado_690695" data-name="Trazado 690695" d="M567.511,257.611a4.859,4.859,0,0,0-.656.058,21.626,21.626,0,0,0-.9-2.332h0a16.306,16.306,0,0,0-1.985-3.326l-.06-.077c-.127-.158-.256-.31-.386-.458l-.122-.138c-.122-.134-.246-.266-.372-.392-.052-.052-.105-.1-.158-.152-.122-.117-.244-.233-.368-.342-.058-.05-.117-.1-.175-.143q-.332-.274-.675-.506c-.077-.053-.154-.11-.232-.158s-.189-.11-.284-.163-.214-.123-.322-.178c-.092-.047-.185-.088-.279-.13-.116-.052-.231-.1-.348-.148-.09-.035-.18-.067-.272-.1-.125-.042-.251-.08-.377-.114-.086-.023-.171-.047-.258-.066-.142-.032-.287-.056-.43-.077-.073-.011-.145-.025-.218-.034a5.661,5.661,0,0,0-1.622.042c-.106.017-.209.051-.314.074a6.214,6.214,0,0,0-.622.158c-.124.041-.244.1-.366.145-.181.072-.362.142-.539.23-.129.064-.254.142-.38.214-.165.1-.331.189-.492.3-.128.087-.253.184-.379.279l0,0-.076-7.263a17.669,17.669,0,0,0,10.462-8.4c3.667-6.8,2.156-16.106-7.144-17.089a15.075,15.075,0,0,0-14.036,6.34V183.807l.016-.037v-3.956l1.069-2.638v-1.124h0l0-.007H521.588l-7.817,19.237h0v.729h1.206v1.89h-1.206v1.941H486.343V169.553H448.4L432,198.848h.007v1.16h2.633v27.064c-.145-.191-.3-.371-.453-.547-.08-6.39-3.719-11.761-8.482-12.243a7.006,7.006,0,0,0-4.362,1.024V197.263l2.573-4.766H391.924L385.009,205.3v-9.986h-.065l1.524-2.822H354.476l-11.185,20.717h11.783V216.3h-7.135v1.288h-3.09v19.744h-2.678v18.027h2.678v16.883H470.335v-.021h61.228v.021h44.3c0-.021,0-.041,0-.063,0-8.044-3.739-14.564-8.351-14.564" transform="translate(-101.226 -50.16)" fill="#addde0"/>
            <path id="Trazado_690696" data-name="Trazado 690696" d="M19.67,276.445c0,.019,0,.037,0,.057h44.3v-.019H125.2v.019H250.683V261.288h2.678V245.042h-2.678V227.25h-3.09v-1.16h-7.135v-2.779H252.24l-11.186-18.669H209.063l1.523,2.543h-.064v9l-6.915-11.542H171.615l2.573,4.295V225.2a7.627,7.627,0,0,0-4.361-.922c-4.763.435-8.4,5.275-8.482,11.034-.155.158-.308.32-.452.493V211.411h2.632v-1.045h.008l-16.4-26.4H109.189v27.3H81.76v-1.749H80.554v-1.7H81.76v-.657h0l-7.817-17.336H51.331l0,.006h0v1.013l1.068,2.377v3.565l.015.034v35.921a15.758,15.758,0,0,0-14.035-5.714c-9.3.886-10.812,9.27-7.145,15.4A17.456,17.456,0,0,0,41.7,249.985l-.076,6.546h0c-.127-.087-.251-.174-.38-.252-.161-.1-.326-.183-.492-.269-.126-.065-.251-.135-.38-.193-.178-.08-.359-.143-.54-.207-.123-.044-.243-.094-.365-.132-.2-.061-.414-.1-.623-.142-.1-.021-.208-.051-.313-.067a6.61,6.61,0,0,0-.962-.073c-.222,0-.442.014-.661.036-.072.007-.144.02-.218.03-.144.019-.288.041-.43.07-.087.018-.172.039-.258.059-.127.031-.253.065-.378.1-.091.027-.181.057-.272.088-.117.041-.232.087-.348.134-.093.038-.187.075-.278.117-.109.049-.215.106-.323.161s-.191.094-.284.147c-.078.044-.154.1-.232.143q-.343.209-.675.456c-.058.044-.118.084-.175.129-.124.1-.246.2-.368.308-.053.046-.106.09-.157.137-.127.113-.249.231-.373.353-.042.041-.082.082-.123.124-.13.134-.26.27-.385.413-.021.023-.041.046-.061.07a14.527,14.527,0,0,0-1.986,3h0a18.477,18.477,0,0,0-.906,2.1,5.32,5.32,0,0,0-.656-.052c-4.612,0-8.351,5.876-8.351,13.125" transform="translate(-5.819 -54.423)" fill="#addde0"/>
            <rect id="Rectángulo_343912" data-name="Rectángulo 343912" width="1.467" height="63.955" transform="translate(502.891 158.653)" fill="#f2ffff"/>
            <path id="Trazado_690697" data-name="Trazado 690697" d="M724.689,222.122l-9.169,2.3v1.323l9.169-2.3Z" transform="translate(-211.676 -65.711)" fill="#f2ffff"/>
            <path id="Trazado_690698" data-name="Trazado 690698" d="M702.083,222.122l9.169,2.3v1.323l-9.169-2.3Z" transform="translate(-207.701 -65.711)" fill="#f2ffff"/>
            <rect id="Rectángulo_343913" data-name="Rectángulo 343913" width="1.467" height="63.955" transform="translate(603.431 158.653)" fill="#f2ffff"/>
            <path id="Trazado_690699" data-name="Trazado 690699" d="M867.467,222.122l-9.169,2.3v1.323l9.169-2.3Z" transform="translate(-253.915 -65.711)" fill="#f2ffff"/>
            <path id="Trazado_690700" data-name="Trazado 690700" d="M844.861,222.122l9.169,2.3v1.323l-9.169-2.3Z" transform="translate(-249.939 -65.711)" fill="#f2ffff"/>
            <rect id="Rectángulo_343914" data-name="Rectángulo 343914" width="1.467" height="63.955" transform="translate(662.991 158.653)" fill="#f2ffff"/>
            <path id="Trazado_690701" data-name="Trazado 690701" d="M952.051,222.122l-9.169,2.3v1.323l9.169-2.3Z" transform="translate(-278.937 -65.711)" fill="#f2ffff"/>
            <path id="Trazado_690702" data-name="Trazado 690702" d="M929.444,222.122l9.169,2.3v1.323l-9.169-2.3Z" transform="translate(-274.962 -65.711)" fill="#f2ffff"/>
            <rect id="Rectángulo_343915" data-name="Rectángulo 343915" width="1.467" height="63.955" transform="translate(402.475 158.653)" fill="#f2ffff"/>
            <path id="Trazado_690703" data-name="Trazado 690703" d="M582.085,222.122l-9.169,2.3v1.323l9.169-2.3Z" transform="translate(-169.489 -65.711)" fill="#f2ffff"/>
            <path id="Trazado_690704" data-name="Trazado 690704" d="M559.479,222.122l9.169,2.3v1.323l-9.169-2.3Z" transform="translate(-165.514 -65.711)" fill="#f2ffff"/>
            <rect id="Rectángulo_343916" data-name="Rectángulo 343916" width="1.467" height="63.955" transform="translate(300.738 158.653)" fill="#f2ffff"/>
            <path id="Trazado_690705" data-name="Trazado 690705" d="M437.606,222.122l-9.169,2.3v1.323l9.169-2.3Z" transform="translate(-126.747 -65.711)" fill="#f2ffff"/>
            <path id="Trazado_690706" data-name="Trazado 690706" d="M415,222.122l9.169,2.3v1.323l-9.169-2.3Z" transform="translate(-122.772 -65.711)" fill="#f2ffff"/>
            <rect id="Rectángulo_343917" data-name="Rectángulo 343917" width="1.467" height="63.955" transform="translate(200.394 158.653)" fill="#f2ffff"/>
            <path id="Trazado_690707" data-name="Trazado 690707" d="M295.106,222.122l-9.169,2.3v1.323l9.169-2.3Z" transform="translate(-84.59 -65.711)" fill="#f2ffff"/>
            <path id="Trazado_690708" data-name="Trazado 690708" d="M272.5,222.122l9.169,2.3v1.323l-9.169-2.3Z" transform="translate(-80.615 -65.711)" fill="#f2ffff"/>
            <rect id="Rectángulo_343918" data-name="Rectángulo 343918" width="1.467" height="63.955" transform="translate(99.17 158.653)" fill="#f2ffff"/>
            <path id="Trazado_690709" data-name="Trazado 690709" d="M151.356,222.122l-9.169,2.3v1.323l9.169-2.3Z" transform="translate(-42.064 -65.711)" fill="#f2ffff"/>
            <path id="Trazado_690710" data-name="Trazado 690710" d="M128.75,222.122l9.169,2.3v1.323l-9.169-2.3Z" transform="translate(-38.089 -65.711)" fill="#f2ffff"/>
            <rect id="Rectángulo_343919" data-name="Rectángulo 343919" width="704.165" height="5.59" transform="translate(0 220.716)" fill="#f2ffff"/>
            <rect id="Rectángulo_343920" data-name="Rectángulo 343920" width="704.165" height="51.756" transform="translate(0 224.721)" fill="#d8cb59"/>
            <path id="Trazado_690711" data-name="Trazado 690711" d="M346.7,319.131,0,344.184v11.472L366.46,319.131Z" transform="translate(0 -94.41)" fill="#c8bf54"/>
            <path id="Trazado_690712" data-name="Trazado 690712" d="M164.558,319.131,0,329.108v4.549l184.314-14.525Z" transform="translate(0 -94.41)" fill="#c8bf54"/>
            <path id="Trazado_690713" data-name="Trazado 690713" d="M638.432,370.887H487.917l330.732-51.756H838.4Z" transform="translate(-144.343 -94.41)" fill="#c8bf54"/>
            <path id="Trazado_690714" data-name="Trazado 690714" d="M700.644,324.631c-245.7,9.715-478.436,9.063-700.644,0v22.533c283.976-6.266,537.663-8.768,700.644,0Z" transform="translate(0 -96.037)" fill="#af8137"/>
            <path id="Trazado_690715" data-name="Trazado 690715" d="M593.388,350.179c0-.849-19.385-1.536-43.3-1.536s-43.3.688-43.3,1.536,19.386,1.536,43.3,1.536,43.3-.688,43.3-1.536" transform="translate(-149.927 -103.141)" fill="#af8137"/>
            <path id="Trazado_690716" data-name="Trazado 690716" d="M685.579,359.452c0-.849-19.385-1.536-43.3-1.536s-43.3.688-43.3,1.536,19.385,1.536,43.3,1.536,43.3-.688,43.3-1.536" transform="translate(-177.2 -105.884)" fill="#af8137"/>
            <path id="Trazado_690717" data-name="Trazado 690717" d="M777.542,366.543c0-.849-14.856-1.537-33.182-1.537s-33.183.688-33.183,1.537,14.857,1.536,33.183,1.536,33.182-.688,33.182-1.536" transform="translate(-210.391 -107.982)" fill="#af8137"/>
            <path id="Trazado_690718" data-name="Trazado 690718" d="M479.57,68.88c1.42.987,5.167,7.818,6.882,11.839l-8.64,6.313c-5.711-4.676-6.92-13.1-5.621-14.083s5.959-5.057,7.379-4.069" transform="translate(-139.55 -20.332)" fill="#e79b69"/>
            <path id="Trazado_690719" data-name="Trazado 690719" d="M492.515,68.988c.163.665-2.243,5.139-1.656,11.952l-5.844-1.419c.076-3.03,3.59-11.108,4.655-11.784a2.009,2.009,0,0,1,2.845,1.251" transform="translate(-143.484 -19.962)" fill="#edb984"/>
            <path id="Trazado_690720" data-name="Trazado 690720" d="M482.213,58.042c.27.646,1.486,7.315,3.312,13.157l-5.1-2.475s-1.412-9.639-.824-10.748a1.488,1.488,0,0,1,2.609.066" transform="translate(-141.841 -16.932)" fill="#edb984"/>
            <path id="Trazado_690721" data-name="Trazado 690721" d="M478.092,68.129c.63.246,4.655,5.9,1.917,7.882-1.289.933-3.117-2.1-3.117-2.1s-1.483-3.4-1.222-4.531a2.03,2.03,0,0,1,2.422-1.248" transform="translate(-140.711 -20.133)" fill="#edb984"/>
            <path id="Trazado_690722" data-name="Trazado 690722" d="M472.892,80.256c-4.607-5.988.31-11.049.939-9.9s3.306,4.821,2.988,6.442c-.406,2.071-3.927,3.454-3.927,3.454" transform="translate(-139.321 -20.766)" fill="#edb984"/>
            <path id="Trazado_690723" data-name="Trazado 690723" d="M534.757,61.225c-9.7,9.259-11.77,21.064-26.293,47.221-1.231,2.216,5.328,22.292,11.368,22.524s30.25-30.163,30.25-30.163Z" transform="translate(-150.377 -18.112)" fill="#e8e4d4"/>
            <path id="Trazado_690724" data-name="Trazado 690724" d="M536.9,69.066c-.133,6-2.227,13.7-6.183,21.4-6.519,12.7-15.912,21.193-22.372,20.784-.431,3.745,5.762,21.818,11.493,22.037,6.04.232,30.25-30.162,30.25-30.162Z" transform="translate(-150.379 -20.432)" fill="#ddd6c0"/>
            <path id="Trazado_690725" data-name="Trazado 690725" d="M502.661,108.057c-3.257,17.522,8.682,36.34,15.525,38.518,8.542,2.719,11.262-32.627,1.219-38.561-11.842-7-16.744.044-16.744.044" transform="translate(-148.542 -31.037)" fill="#a03d59"/>
            <path id="Trazado_690726" data-name="Trazado 690726" d="M542.118,141.26c-9.194,47.221,5,145.364,5,145.364l32.5-128.7Z" transform="translate(-159.461 -41.79)" fill="#544e5e"/>
            <path id="Trazado_690727" data-name="Trazado 690727" d="M561.722,157.856,550.255,290.232c.118.844.184,1.3.184,1.3l32.5-128.7Z" transform="translate(-162.785 -46.699)" fill="#474251"/>
            <path id="Trazado_690728" data-name="Trazado 690728" d="M596.452,164.693l-44.737-5.682,1.144,31.48,6.165,6.019s16.74,65.738,28.058,95.366c0,0,11.737-103.573,9.37-127.183" transform="translate(-163.217 -47.041)" fill="#544e5e"/>
            <path id="Trazado_690729" data-name="Trazado 690729" d="M596.833,166.9l-57.712,7.264-.077,12.572c15.112-4.21,30.237-2.006,45.445,3.181l-1.567,103.2c.138.367.275.734.412,1.091,0,0,15.866-103.7,13.5-127.31" transform="translate(-159.468 -49.375)" fill="#474251"/>
            <path id="Trazado_690730" data-name="Trazado 690730" d="M538.356,146.812c7.77-2.137,22.231-3.148,35.069-2.661,10.8.41,27.942-71.295,8.789-87.5-15.1-12.772-32.012-2.424-38.581,1.389a4.927,4.927,0,0,0-2.41,4.83c4.2,38.381-3.482,66.276-2.869,83.94" transform="translate(-159.254 -14.929)" fill="#e8e4d4"/>
            <path id="Trazado_690731" data-name="Trazado 690731" d="M596.74,59.092c-2.849-2.41-7.042,6.473-9.138,29.253-1.249,13.571,4.495,48.132-.049,58.23,10.443.455,20.945,1.968,24.408,4.643,0,0,3.931-75.923-15.221-92.126" transform="translate(-173.779 -17.368)" fill="#ddd6c0"/>
            <g id="Grupo_895343" data-name="Grupo 895343" transform="translate(382.624 79.526)" opacity="0.76" style="mix-blend-mode: multiply;isolation: isolate">
              <g id="Grupo_895342" data-name="Grupo 895342">
                <g id="Grupo_895341" data-name="Grupo 895341" clip-path="url(#clip-path-4)">
                  <path id="Trazado_690732" data-name="Trazado 690732" d="M598.628,129.239c-.186-3.065-.423-6.184-.717-9.306-11.309-2.772-37.913-8.606-54.088-6.576q-.16,4.452-.451,8.637c22.488-.722,45.7,4.693,55.256,7.245" transform="translate(-543.372 -112.937)" fill="#a03d59"/>
                </g>
              </g>
            </g>
            <path id="Trazado_690733" data-name="Trazado 690733" d="M474.939,86.42c17.213,42.087,34.948,48.317,34.948,48.317,5.6-.071,8.473-28.017.465-34.42-4.486-3.588-25.677-18.055-25.677-18.055Z" transform="translate(-140.504 -24.336)" fill="#edb984"/>
            <path id="Trazado_690734" data-name="Trazado 690734" d="M548.426,349.058h-8.777a49.025,49.025,0,0,1,5.862-2.734c3.716-1.124,2.915,2.734,2.915,2.734" transform="translate(-159.647 -102.394)" fill="#eae3d3"/>
            <path id="Trazado_690735" data-name="Trazado 690735" d="M604.274,348.964h-5.039s.527-2.217,1.285-2.84c1.544-1.265,3.754,2.84,3.754,2.84" transform="translate(-177.275 -102.324)" fill="#eae3d3"/>
            <path id="Trazado_690736" data-name="Trazado 690736" d="M557.427,212.521,546.291,207.2l10.006,1.265,9.447-5.343Z" transform="translate(-161.612 -60.089)" fill="#474251"/>
            <path id="Trazado_690737" data-name="Trazado 690737" d="M511.813,103.564c.939,9.57-2.07,12.559-5.071,13.486-3.912,1.208-13.2.669-31.247-29.221l-.556.238c17.213,42.087,35.02,50.773,35.02,50.773,5.223-.067,8.008-26.532,1.853-35.277" transform="translate(-140.504 -25.983)" fill="#e79b69"/>
            <path id="Trazado_690738" data-name="Trazado 690738" d="M584.965,58.886c-8.627,10.267-9.4,22.252-20.987,49.875-.982,2.341,7.69,21.645,13.706,21.227s26.75-33.3,26.75-33.3Z" transform="translate(-166.822 -17.421)" fill="#e8e4d4"/>
            <path id="Trazado_690739" data-name="Trazado 690739" d="M585.993,55.563c.515,6,.957,21.5-2.135,29.6-5.1,13.354-13.5,22.826-19.948,23.11-.023,3.779,8.069,21.124,13.776,20.728,6.017-.416,26.751-33.3,26.751-33.3,3.813-22.616-5.352-38.7-18.443-40.142" transform="translate(-166.824 -16.437)" fill="#ddd6c0"/>
            <path id="Trazado_690740" data-name="Trazado 690740" d="M556.344,109.808C555,127.619,568.875,145.09,575.9,146.528c8.765,1.793,7.651-33.721-2.95-38.559-12.5-5.7-16.6,1.839-16.6,1.839" transform="translate(-164.559 -31.31)" fill="#a03d59"/>
            <path id="Trazado_690741" data-name="Trazado 690741" d="M526.367,91.16c21.613,40.094,39.875,44.4,39.875,44.4,5.545-.672,5.382-28.828-3.251-34.35-4.838-3.094-27.416-15.24-27.416-15.24Z" transform="translate(-155.718 -25.434)" fill="#edb984"/>
            <path id="Trazado_690742" data-name="Trazado 690742" d="M564.613,104.7c1.964,9.436-.7,12.738-3.575,13.983-3.75,1.624-13.024,2.082-34.144-25.769l-.527.3c21.613,40.094,40.213,46.842,40.213,46.842,5.173-.627,5.081-27.3-1.967-35.353" transform="translate(-155.718 -27.488)" fill="#e79b69"/>
            <path id="Trazado_690743" data-name="Trazado 690743" d="M589.653,57.007c-22.171-13.135-32.016-4.781-38.576-1.225a5.516,5.516,0,0,0,1.267,3.752c4.31,5.34,18.265,5.521,31.168.4a48.626,48.626,0,0,0,6.141-2.931" transform="translate(-163.027 -14.755)" fill="#ddd6c0"/>
            <path id="Trazado_690744" data-name="Trazado 690744" d="M539.8,23.2c-9.739-15.373-4.373-20.974.175-22.147s16.669-2.475,19,2.736,5.05,28.048,5.05,28.048L557.6,24.9h-4.835l-3.91-11.725Z" transform="translate(-158.077 0)" fill="#77383b"/>
            <path id="Trazado_690745" data-name="Trazado 690745" d="M560.245,27.379,551.03,39.248l2.2,9.917c4.231,6.121,12.088,1.784,18.783-5.288Z" transform="translate(-163.014 -8.1)" fill="#d27558"/>
            <path id="Trazado_690746" data-name="Trazado 690746" d="M546.323,41.893c-5.726-14.352-5.622-25.092-4-28.641s9.337-4.784,13.595-1.08S559.733,31,559.961,34.393s-13.638,7.5-13.638,7.5" transform="translate(-160.154 -2.936)" fill="#edb984"/>
            <path id="Trazado_690747" data-name="Trazado 690747" d="M564.03,25.367l-4.907.8s-7.879-17.616-1.061-17.56,5.968,16.757,5.968,16.757" transform="translate(-164.272 -2.547)" fill="#77383b"/>
            <path id="Trazado_690748" data-name="Trazado 690748" d="M566.722,26.87c.125-2.221-.715-4.021-1.876-4.021s-2.2,1.8-2.327,4.021.715,4.021,1.876,4.021,2.2-1.8,2.327-4.021" transform="translate(-166.409 -6.76)" fill="#edb984"/>
            <path id="Trazado_690749" data-name="Trazado 690749" d="M566.818,28.207c.157-1.309-.27-2.371-.954-2.371S564.5,26.9,564.34,28.207s.27,2.371.955,2.371,1.366-1.062,1.523-2.371" transform="translate(-166.942 -7.643)" fill="#d27558"/>
            <path id="Trazado_690750" data-name="Trazado 690750" d="M566.177,30.64c.112-.932-.192-1.687-.68-1.687s-.972.756-1.084,1.687.193,1.687.68,1.687.972-.756,1.084-1.687" transform="translate(-166.966 -8.565)" fill="#edb984"/>
            <path id="Trazado_690751" data-name="Trazado 690751" d="M528.49,73.006c1.544.775,6.234,7.013,8.512,10.755l-7.6,7.516c-6.314-3.814-8.734-12-7.6-13.164s5.141-5.882,6.685-5.107" transform="translate(-154.288 -21.573)" fill="#edb984"/>
            <path id="Trazado_690752" data-name="Trazado 690752" d="M540.686,69.044c.258.636-1.472,6.1.1,12.772l-5.5-3.552c-.425-1.829,1.458-9.225,2.41-10.051a2,2,0,0,1,2.988.83" transform="translate(-158.339 -20.061)" fill="#edb984"/>
            <path id="Trazado_690753" data-name="Trazado 690753" d="M528.522,61.686A72.614,72.614,0,0,1,532.1,72.308l-4.188-.806s-2.389-8.313-1.933-9.406a1.544,1.544,0,0,1,2.544-.411" transform="translate(-155.585 -18.1)" fill="#edb984"/>
            <path id="Trazado_690754" data-name="Trazado 690754" d="M517.841,66.526c.665.068,4.533,4.541,8.059,8.77l-4.2.873s-5.779-6.617-5.83-7.78a2.02,2.02,0,0,1,1.973-1.863" transform="translate(-152.612 -19.68)" fill="#edb984"/>
            <path id="Trazado_690755" data-name="Trazado 690755" d="M523.131,86.691c-5.669-4.477-3.2-9.853-2.146-9.058s7.939,4.885,7.894,5.087-5.748,3.971-5.748,3.971" transform="translate(-153.697 -22.943)" fill="#edb984"/>
            <path id="Trazado_690756" data-name="Trazado 690756" d="M551.722,28.779c-.117-.808.248-1.494.816-1.534s1.132.587,1.253,1.4-.248,1.508-.823,1.541-1.129-.6-1.246-1.408" transform="translate(-163.212 -8.059)" fill="#5a4949"/>
            <path id="Trazado_690757" data-name="Trazado 690757" d="M542.917,30.36c-.1-.817.234-1.507.756-1.543s1.039.6,1.146,1.42-.234,1.52-.762,1.551-1.036-.609-1.14-1.428" transform="translate(-160.608 -8.525)" fill="#5a4949"/>
            <path id="Trazado_690758" data-name="Trazado 690758" d="M550.3,21.122l4.1.585a.979.979,0,0,1,.824,1.077l-.119,1.037a.905.905,0,0,1-1.041.8l-4.106-.634a.958.958,0,0,1-.785-1.063l.12-1.011a.89.89,0,0,1,1-.8" transform="translate(-162.465 -6.246)" fill="#77383b"/>
            <path id="Trazado_690759" data-name="Trazado 690759" d="M539.534,23.467l3.081-.936a.738.738,0,0,1,.886.625l.212.92a.865.865,0,0,1-.5,1.049l-3.1.916a.729.729,0,0,1-.866-.631l-.2-.91a.864.864,0,0,1,.495-1.033" transform="translate(-159.459 -6.658)" fill="#77383b"/>
            <path id="Trazado_690760" data-name="Trazado 690760" d="M548.118,31.646s.172.162.415.425c-.439,1.779-.728,4.682,1.763,3.5,0,.072.02.145.013.216-4.086,2.674-2.652-2.976-2.191-4.14" transform="translate(-161.968 -9.362)" fill="#d27558"/>
            <path id="Trazado_690761" data-name="Trazado 690761" d="M550.585,41.077a3.791,3.791,0,0,0,3.392-3.276s1.119,1.233-.651,2.678-2.741.6-2.741.6" transform="translate(-162.882 -11.183)" fill="#d27558"/>
            <path id="Trazado_690762" data-name="Trazado 690762" d="M556.666,42.144c-.1-.236-.553-.277-1.02-.093s-.768.526-.671.762.553.277,1.02.093.768-.526.671-.762" transform="translate(-164.176 -12.406)" fill="#d27558"/>
            <path id="Trazado_690763" data-name="Trazado 690763" d="M613.606,116.585c-9.35-17.426-3.062-31.565,8.628-33.381s22.912,7.516,22.086,15.975c0,0,6.967-1.684,11.539,9.395s-1.675,18.913-1.675,18.913,13.543,2.56,8.067,13.319-21.781,15.963-30.236,9.341a17.708,17.708,0,0,1-6.872-16.006s-8.173,1.289-11.017-5.133a17.573,17.573,0,0,1-.521-12.424" transform="translate(-180.19 -24.547)" fill="#77383b"/>
            <path id="Trazado_690764" data-name="Trazado 690764" d="M635.255,305.3s-13.523-59.843-12.619-65.286c1.11-6.686,23.968-42.57,23.968-42.57l-2.014-15.6,22.643-1.441a73.844,73.844,0,0,1,.326,27.782C664.751,222.752,638.6,247.14,638.6,247.14Z" transform="translate(-184.185 -53.372)" fill="#563740"/>
            <path id="Trazado_690765" data-name="Trazado 690765" d="M671.486,181.155l-5.057-.3-17.718,1.128,7.166,18.61-5.335,6.858,4.652,5.041s-17.446,23.944-18.556,30.63c-.668,4.022,1.683,37.587,3.113,55.79l4.52-52.207s26.01-23.452,28.819-38.011c2.454-12.718-1.039-24.787-1.6-27.541" transform="translate(-188.305 -53.504)" fill="#472c35"/>
            <path id="Trazado_690766" data-name="Trazado 690766" d="M682.03,305.163s-24.621-52.8-24.969-58.327c-.428-6.787,4.714-37.815,4.714-37.815l-6.171-1.616-2.043-22.382,22.323-5.09s13.028,9.532,13.581,24.4-16.825,44.281-16.825,44.281Z" transform="translate(-193.346 -53.231)" fill="#563740"/>
            <path id="Trazado_690767" data-name="Trazado 690767" d="M691.132,203.851c-.552-14.867-15.249-23.917-15.249-23.917l-22.324,5.09,1.263,13.214-1.232,2.517s20.92,1.242,23.372,7.785c2.638,7.037-9.892,39.608-9.892,39.608l13.767,54.447c.754,1.63,1.192,2.569,1.192,2.569l-7.794-56.387s17.449-30.059,16.9-44.926" transform="translate(-193.346 -53.231)" fill="#472c35"/>
            <path id="Trazado_690768" data-name="Trazado 690768" d="M631.725,148.04c14.719,11.155,15.827,36.836,15.827,36.836s15.083,1.5,34.493-5.581c-8.921-17.006-33.536-46.252-42.071-48.355-9.382-2.312-8.249,17.1-8.249,17.1" transform="translate(-186.874 -38.68)" fill="#b54b66"/>
            <path id="Trazado_690769" data-name="Trazado 690769" d="M647.876,162.308c7.761-1.313,17.518,5.548,21.79,15.323a24.511,24.511,0,0,1,1.566,4.907,96.7,96.7,0,0,0,10.812-3.243c-8.92-17.006-33.536-46.253-42.071-48.356-9.382-2.311-8.249,17.1-8.249,17.1,5.492,4.162,9.087,10.347,11.439,16.465a9.417,9.417,0,0,1,4.712-2.2" transform="translate(-186.874 -38.68)" fill="#a03755"/>
            <path id="Trazado_690770" data-name="Trazado 690770" d="M622.27,133.549c-2.943,4.905-6.144,22.2-9.283,18.386-3.54-4.3-.654-22.781-.654-22.781l-1.744-.654c-4.687,14.171-7.848,27.469-.763,31.283s16.241-7.412,16.241-7.412Z" transform="translate(-179.18 -38.015)" fill="#a03755"/>
            <path id="Trazado_690771" data-name="Trazado 690771" d="M629.3,134.076c-1.41,13.378.606,27.2,2.062,28.174s17.145-1.791,17.792-4.4-7.148-25.929-10.028-26.953-9.583.873-9.826,3.176" transform="translate(-186.028 -38.641)" fill="#b54b66"/>
            <path id="Trazado_690772" data-name="Trazado 690772" d="M641.414,131.225c-2.22,7.719-4.012,15.508-4.167,24.7-.025,1.512,2.4,5.625-1.565,6.676,4.756-.277,14.984-2.473,15.5-4.567.629-2.532-6.714-24.624-9.772-26.808" transform="translate(-188.057 -38.821)" fill="#a03755"/>
            <path id="Trazado_690773" data-name="Trazado 690773" d="M632.09,134.886c-7.368,5.669-16.025,25.446-21.71,24.143s-10.231-32.108-10.231-32.108l-1.47.423s-3.062,34.5,8.981,40.006,29.494-25.169,30.044-28.23-1.86-7.125-5.615-4.235" transform="translate(-177.007 -37.548)" fill="#b54b66"/>
            <path id="Trazado_690774" data-name="Trazado 690774" d="M637.69,142.422a8.525,8.525,0,0,0-.7-4.182c-3.516,7.5-18.09,33.424-28.866,28.493-7.115-3.255-9.577-17.929-9.793-28.65-.282,10.739.4,29.783,8.959,33.7,12.044,5.511,29.85-26.3,30.4-29.36" transform="translate(-176.993 -40.849)" fill="#a03755"/>
            <path id="Trazado_690775" data-name="Trazado 690775" d="M639.06,358.294h-9.026a51.534,51.534,0,0,1,6.09-2.819c3.846-1.159,2.936,2.819,2.936,2.819" transform="translate(-186.386 -105.099)" fill="#eae3d3"/>
            <path id="Trazado_690776" data-name="Trazado 690776" d="M696.883,358.17H691.7s0-2.333.624-2.987c1.276-1.332,4.558,2.987,4.558,2.987" transform="translate(-204.629 -105)" fill="#eae3d3"/>
            <path id="Trazado_690777" data-name="Trazado 690777" d="M644.2,135.93c-.917-1-1.489-2.316-2.591-2.793a4.734,4.734,0,0,0-2.593-2.236c-2.1-.746-6.228.064-8.406,1.449a2.561,2.561,0,0,0-1.041.881c-.006.007-.009.014-.015.021-.041.057-.083.109-.122.172a13.036,13.036,0,0,0-.989,1.965,16.468,16.468,0,0,0,4.014,8.983s7.357-9.249,11.743-8.442" transform="translate(-185.915 -38.641)" fill="#a03755"/>
            <path id="Trazado_690778" data-name="Trazado 690778" d="M629.8,125.243l-2.426-11.725,6.186-8.184,4.367,17.955-5.58,5.5Z" transform="translate(-185.599 -31.161)" fill="#d27558"/>
            <path id="Trazado_690779" data-name="Trazado 690779" d="M622.393,121.013c-7.8-10.731-4.3-23.016-1.24-25.972,3.241-3.129,11.978,1.521,12.2,8.17.519,15.778-10.956,17.8-10.956,17.8" transform="translate(-182.725 -27.821)" fill="#edb984"/>
            <path id="Trazado_690780" data-name="Trazado 690780" d="M630.341,91.167c-4.6,3.053-2.6,11.193,5.193,18.929,7.775,7.715,8.979-9.378,5.083-13.811-3.919-4.461-10.277-5.117-10.277-5.117" transform="translate(-185.755 -26.97)" fill="#77383b"/>
            <g id="Grupo_895346" data-name="Grupo 895346" transform="translate(459.366 129.368)" style="mix-blend-mode: overlay;isolation: isolate">
              <g id="Grupo_895345" data-name="Grupo 895345">
                <g id="Grupo_895344" data-name="Grupo 895344" clip-path="url(#clip-path-5)">
                  <path id="Trazado_690781" data-name="Trazado 690781" d="M685.567,191.27c-.621-1.018-1.284-2.062-1.973-3.123-7.273,3.2-18.442,7.1-30.354,7.522.117.744.214,1.438.295,2.071,12.7.4,24.532-3.355,32.032-6.47" transform="translate(-652.618 -185.028)" fill="#eae3d3"/>
                  <path id="Trazado_690782" data-name="Trazado 690782" d="M681.251,183.718a84.4,84.4,0,0,1-28.895,7.184c.07.346.139.691.2,1.025,11.684-.356,22.359-4.043,29.4-7.166q-.35-.519-.708-1.042" transform="translate(-652.356 -183.718)" fill="#eae3d3"/>
                </g>
              </g>
            </g>
            <path id="Trazado_690783" data-name="Trazado 690783" d="M599.206,126.334c-.71-2.02-.8-4.393-1.484-4.767s-3.142,1.1-1.974,2.969a23.2,23.2,0,0,0,2.6,3.353Z" transform="translate(-176.151 -35.946)" fill="#edb984"/>
            <path id="Trazado_690784" data-name="Trazado 690784" d="M600.388,125.129c-.33-2.291.994-6.123.567-6.381-.406-.244-2.267,4.129-2.1,4.854.175.752,1.664,2.45,1.531,1.527" transform="translate(-177.16 -35.127)" fill="#edb984"/>
            <path id="Trazado_690785" data-name="Trazado 690785" d="M599.667,122.9c-2.17-3.181-1.733-6.563-2.028-6.832s-1.012,2.336-.18,4.474,2.208,2.358,2.208,2.358" transform="translate(-176.634 -34.332)" fill="#edb984"/>
            <path id="Trazado_690786" data-name="Trazado 690786" d="M598.4,123.707c-2.438-2.934-2.549-6.91-2.932-7.19s-.5,2.823.6,4.851a5.044,5.044,0,0,0,2.329,2.339" transform="translate(-176.08 -34.465)" fill="#edb984"/>
            <path id="Trazado_690787" data-name="Trazado 690787" d="M597.27,125.515c-2.549-3.265-2.739-6.345-2.99-6.5s-.351,2.022.552,3.827a5.486,5.486,0,0,0,2.438,2.668" transform="translate(-175.759 -35.208)" fill="#edb984"/>
            <path id="Trazado_690788" data-name="Trazado 690788" d="M628.428,111.5c-.029-.947.257-1.72.638-1.723s.711.766.736,1.712-.26,1.7-.637,1.708-.708-.754-.736-1.7" transform="translate(-185.911 -32.476)" fill="#5a4949"/>
            <path id="Trazado_690789" data-name="Trazado 690789" d="M618.239,111.579c-.046-.953.23-1.731.615-1.733s.732.77.775,1.722-.233,1.715-.615,1.719-.729-.759-.775-1.708" transform="translate(-182.895 -32.496)" fill="#5a4949"/>
            <path id="Trazado_690790" data-name="Trazado 690790" d="M626.055,104.883l3.106.644a.846.846,0,0,1,.635.877l-.057.8a.611.611,0,0,1-.736.589l-3.09-.632a.856.856,0,0,1-.646-.877l.049-.808a.611.611,0,0,1,.739-.6" transform="translate(-184.975 -31.024)" fill="#872d2d"/>
            <path id="Trazado_690791" data-name="Trazado 690791" d="M617.25,105.727l2.16-.986c.266-.122.562.1.661.5l.2.782a.813.813,0,0,1-.3.929l-2.148.979c-.264.12-.56-.1-.662-.49l-.2-.779a.81.81,0,0,1,.294-.933" transform="translate(-182.507 -30.976)" fill="#872d2d"/>
            <path id="Trazado_690792" data-name="Trazado 690792" d="M623.375,113.735s.086.176.2.452c-.63,1.251-1.36,3.393.537,3.21-.013.056-.014.117-.032.17-3.231.851-1.238-3.06-.707-3.832" transform="translate(-184.092 -33.647)" fill="#d27558"/>
            <path id="Trazado_690793" data-name="Trazado 690793" d="M622.228,121.39l4.822-.409s-.452,3.274-2.452,3.18-2.37-2.771-2.37-2.771" transform="translate(-184.077 -35.79)" fill="#2d171a"/>
            <path id="Trazado_690794" data-name="Trazado 690794" d="M626.507,122.258a5.71,5.71,0,0,0,.278-1.062l-4.021.342a4,4,0,0,0,.47,1.321Z" transform="translate(-184.235 -35.854)" fill="#faf0db"/>
            <path id="Trazado_690795" data-name="Trazado 690795" d="M629.868,113.05c-.07-1.186-.66-2.115-1.316-2.076s-1.13,1.032-1.06,2.217.66,2.115,1.315,2.076,1.131-1.032,1.061-2.217" transform="translate(-185.632 -32.83)" fill="#edb984"/>
            <path id="Trazado_690796" data-name="Trazado 690796" d="M620.425,113.153c-.07-1.186-.66-2.115-1.316-2.076s-1.13,1.032-1.06,2.217.66,2.115,1.315,2.076,1.131-1.032,1.06-2.217" transform="translate(-182.838 -32.86)" fill="#edb984"/>
            <path id="Trazado_690797" data-name="Trazado 690797" d="M639.619,112.468c.68-1.882.358-3.831-.719-4.353s-2.5.58-3.182,2.461-.359,3.83.719,4.353,2.5-.58,3.182-2.461" transform="translate(-187.962 -31.946)" fill="#edb984"/>
            <path id="Trazado_690798" data-name="Trazado 690798" d="M639.194,113.471c.432-1.2.228-2.436-.458-2.769s-1.591.368-2.024,1.565-.228,2.436.458,2.769,1.591-.369,2.024-1.565" transform="translate(-188.295 -32.725)" fill="#d27558"/>
            <path id="Trazado_690799" data-name="Trazado 690799" d="M638.629,114.9c.292-.807.154-1.643-.308-1.867s-1.073.249-1.365,1.056-.154,1.642.308,1.867,1.073-.249,1.365-1.056" transform="translate(-188.389 -33.423)" fill="#edb984"/>
            <path id="Trazado_690800" data-name="Trazado 690800" d="M613.548,128.665c.757-2,2.217-3.875,1.932-4.6s-3.115-1.178-3.423,1a23.244,23.244,0,0,0-.169,4.238Z" transform="translate(-181.009 -36.524)" fill="#edb984"/>
            <path id="Trazado_690801" data-name="Trazado 690801" d="M614.624,128.668c1.221-1.966,4.7-4.048,4.541-4.519-.153-.448-4.393,1.7-4.729,2.365-.35.689-.3,2.946.189,2.154" transform="translate(-181.704 -36.709)" fill="#edb984"/>
            <path id="Trazado_690802" data-name="Trazado 690802" d="M615.7,126.084c.385-3.831,2.9-6.138,2.843-6.535s-2.278,1.137-3.016,3.31.173,3.225.173,3.225" transform="translate(-182.01 -35.349)" fill="#edb984"/>
            <path id="Trazado_690803" data-name="Trazado 690803" d="M614.332,125.8c.021-3.815,2.494-6.93,2.382-7.39s-2.2,1.84-2.661,4.1a5.044,5.044,0,0,0,.279,3.288" transform="translate(-181.619 -35.014)" fill="#edb984"/>
            <path id="Trazado_690804" data-name="Trazado 690804" d="M612.5,126.445c.15-4.14,1.987-6.619,1.891-6.9s-1.569,1.322-2.04,3.285a5.489,5.489,0,0,0,.149,3.611" transform="translate(-181.094 -35.358)" fill="#edb984"/>
            <path id="Trazado_690805" data-name="Trazado 690805" d="M614.083,129.958l-.582,3.27-3.27-.582,1.146-2.4Z" transform="translate(-180.528 -38.446)" fill="#e8e4d4"/>
            <path id="Trazado_690806" data-name="Trazado 690806" d="M600.01,127.116l.957,3.181-3.181.956-.061-2.657Z" transform="translate(-176.828 -37.605)" fill="#e8e4d4"/>
            <path id="Trazado_690807" data-name="Trazado 690807" d="M398.1,349.087c0-.849-19.385-1.536-43.3-1.536s-43.3.688-43.3,1.536,19.385,1.536,43.3,1.536,43.3-.688,43.3-1.536" transform="translate(-92.152 -102.818)" fill="#af8137"/>
            <path id="Trazado_690808" data-name="Trazado 690808" d="M282.993,357.269c0-.849-19.385-1.537-43.3-1.537s-43.3.688-43.3,1.537,19.386,1.536,43.3,1.536,43.3-.688,43.3-1.536" transform="translate(-58.101 -105.238)" fill="#af8137"/>
            <path id="Trazado_690809" data-name="Trazado 690809" d="M350.122,10.834c-6.583-6.766-11.886,1.463-11.886,1.463-3.841-.915-16.275,9.875-19.384,22.309s8.6,22.859,24.687,16.641l3.292-.914c7.314-3.657,1.646-7.836,6.583-17.007S356.7,17.6,350.122,10.834" transform="translate(-94.179 -2.415)" fill="#874232"/>
            <path id="Trazado_690810" data-name="Trazado 690810" d="M354.677,68.872c7.591,6.587,22.944,27.074,26.5,27.782,3.625.721,8.053-1.863,7.335-5.443-.7-3.5-22.255-26.507-26.878-28.989-4.457-2.393-10.974,3.169-6.962,6.65" transform="translate(-104.555 -18.236)" fill="#e8e4d4"/>
            <path id="Trazado_690811" data-name="Trazado 690811" d="M388.632,90.661c-.161-.8-1.428-2.64-3.329-5.014a7.156,7.156,0,0,1-4.271.542c-3.127-.622-6.162-16.537-21.938-26.408-3.234,1-7.135,6.083-4.3,8.541,7.592,6.587,22.945,27.074,26.5,27.782,3.626.721,8.054-1.863,7.335-5.443" transform="translate(-104.671 -17.685)" fill="#dbd4bd"/>
            <path id="Trazado_690812" data-name="Trazado 690812" d="M397.711,94.742c-2.955-.925-6.924,1.22-8.865,4.79s-1.119,7.216,1.836,8.141,6.925-1.219,8.865-4.79,1.119-7.216-1.836-8.142" transform="translate(-114.723 -27.964)" fill="#b54b66"/>
            <path id="Trazado_690813" data-name="Trazado 690813" d="M391.455,87.9c7.87-17.394,25.792-34.83,25.792-34.83l.948.691s-13.381,29.926-18.855,36.4a16.566,16.566,0,0,1-2.424,2.369c-3.352,2.622-7.237-.706-5.46-4.633" transform="translate(-115.674 -15.701)" fill="#edb984"/>
            <path id="Trazado_690814" data-name="Trazado 690814" d="M400.96,83.737A16.538,16.538,0,0,1,398.439,86a3.5,3.5,0,0,1-5.357-.968c-.578,1.108-1.124,2.221-1.627,3.334-1.777,3.927,2.107,7.256,5.46,4.633a16.567,16.567,0,0,0,2.424-2.37c5.1-6.034,17.054-32.4,18.668-35.987-4.656,9.017-13.027,24.717-17.047,29.091" transform="translate(-115.674 -16.166)" fill="#e79b69"/>
            <path id="Trazado_690815" data-name="Trazado 690815" d="M359.87,135.259l22.175,3.61c10.224,24.854-2.157,81.6-15.622,146.412h-1.668s-18.286-89.5-17.966-112.259c.372-26.3,13.081-37.763,13.081-37.763" transform="translate(-102.591 -40.014)" fill="#563740"/>
            <path id="Trazado_690816" data-name="Trazado 690816" d="M372.071,184.627l7.332,3.513-6.271,109.82h.7l7.5-109.82,5.716-3.7c-4.607,1.589-9.713,1.214-14.987.185" transform="translate(-110.072 -54.564)" fill="#492e37"/>
            <path id="Trazado_690817" data-name="Trazado 690817" d="M357.528,193.3c1.731-27.416,14.866-38.35,14.866-38.35l12.5-5.076a47.138,47.138,0,0,0-2.847-11.008l-22.175-3.61s-12.709,11.46-13.081,37.763c-.321,22.76,17.966,112.259,17.966,112.259h1.454c-3.936-29.395-9.68-76.155-8.681-91.977" transform="translate(-102.591 -40.014)" fill="#492e37"/>
            <path id="Trazado_690818" data-name="Trazado 690818" d="M386.8,131.662s-21.011,5.478-34.519.063c7.713-28.235,5.552-36.712.806-56.1l10.124-.156s18.151,27.394,23.588,56.19" transform="translate(-104.216 -22.327)" fill="#e8e4d4"/>
            <path id="Trazado_690819" data-name="Trazado 690819" d="M365.394,134.086c-.32-1.065-.62-2.152-.892-3.263-3.966-16.168-1.164-30.75,6.258-32.57a7.655,7.655,0,0,1,5.159.694,189.7,189.7,0,0,0-12.711-23.476l-10.125.156c4.746,19.385,6.907,27.862-.806,56.1a38.676,38.676,0,0,0,13.116,2.363" transform="translate(-104.216 -22.327)" fill="#dbd4bd"/>
            <path id="Trazado_690820" data-name="Trazado 690820" d="M376.671,84.388s-3.845,2.536-13.388,4.21a5.383,5.383,0,0,1-5.922-3.23l-8.07-21.189a3.249,3.249,0,0,1,2.8-4.371l3.412-.433a3.97,3.97,0,0,1,2.943.8,62.378,62.378,0,0,1,18.224,24.215" transform="translate(-103.268 -17.556)" fill="#e8e4d4"/>
            <path id="Trazado_690821" data-name="Trazado 690821" d="M368.438,87.351a6.336,6.336,0,0,1-6.216-3L350.259,62.519a4.642,4.642,0,0,1-.373-.881,3.111,3.111,0,0,0-.593,3.219l7.855,22.737a5.382,5.382,0,0,0,5.922,3.23c4.6-.806,8.355-3.337,10.8-4.319-1.6.38-3.41.561-5.428.845" transform="translate(-103.27 -18.235)" fill="#dbd4bd"/>
            <path id="Trazado_690822" data-name="Trazado 690822" d="M343.662,65.381c-1.392,11.632-9.66,36.462-8.242,39.594s6.58,6.423,9.059,4.152,8.279-28.525,7.939-34.686-7.977-15.579-8.757-9.06" transform="translate(-99.181 -18.69)" fill="#e8e4d4"/>
            <path id="Trazado_690823" data-name="Trazado 690823" d="M338.959,98.083c-1.366-2.349,4.36-22.249,5.894-34.824-.6.177-1.034.835-1.191,2.146C342.271,77.037,334,101.867,335.421,105s6.58,6.423,9.06,4.152c.929-.851,2.326-5.076,3.69-10.348-1.482,1.753-8,1.367-9.212-.72" transform="translate(-99.181 -18.714)" fill="#dbd4bd"/>
            <path id="Trazado_690824" data-name="Trazado 690824" d="M339.286,125.3c2.9.533,5.972-1.634,7.188-4.728,1.2-3.043.384-6.453-2.08-7.82-2.85-1.58-6.844.07-8.519,4-1.712,4.019.038,7.925,3.412,8.544" transform="translate(-99.166 -33.18)" fill="#b54b66"/>
            <path id="Trazado_690825" data-name="Trazado 690825" d="M363.285,348.532h9.894s.32-2.636-1.025-3.708c-2.738-2.181-8.868,3.708-8.868,3.708" transform="translate(-107.472 -101.868)" fill="#eae3d3"/>
            <path id="Trazado_690826" data-name="Trazado 690826" d="M381.752,348.223h-7.14s-.822-3.1-.09-4.357c1.487-2.563,7.23,4.357,7.23,4.357" transform="translate(-110.707 -101.559)" fill="#eae3d3"/>
            <path id="Trazado_690827" data-name="Trazado 690827" d="M364.208,66.779a2.394,2.394,0,0,0,.234-1.583,29.259,29.259,0,0,0-4.523-3.655,4.7,4.7,0,0,0-.528-.239c-.45-.38-.907-.758-1.377-1.129a3.973,3.973,0,0,0-2.943-.8l-3.412.433A3.422,3.422,0,0,0,349.01,61.6c-.5.154-.973.663-1.4,1.625.578.376,1.171.747,1.794,1.1,6.735,3.864,13.361,4.959,14.8,2.448" transform="translate(-102.836 -17.556)" fill="#dbd4bd"/>
            <path id="Trazado_690828" data-name="Trazado 690828" d="M357.725,53.976l-4.2-12.086-5.97-3.312,3.41,15.876,7.094,2.574Z" transform="translate(-102.819 -11.413)" fill="#d27558"/>
            <path id="Trazado_690829" data-name="Trazado 690829" d="M361.547,45.527c2.467-10.024-.15-23.482-3.81-24.869-7.2-2.727-11.178,4.191-10.8,9.82.937,13.834,14.607,15.049,14.607,15.049" transform="translate(-102.629 -5.93)" fill="#edb984"/>
            <path id="Trazado_690830" data-name="Trazado 690830" d="M347.655,15.089c5.505,2.6,5.042,12.581-2.618,22.934-7.671,10.369-9.627-11.728-6.475-16.6,3.131-4.838,9.094-6.338,9.094-6.338" transform="translate(-99.732 -4.464)" fill="#874232"/>
            <path id="Trazado_690831" data-name="Trazado 690831" d="M346.07,39.671c-.959-1.682-.965-3.624-.016-4.338s2.5.071,3.457,1.753.965,3.625.015,4.338-2.5-.071-3.457-1.753" transform="translate(-102.166 -10.374)" fill="#edb984"/>
            <path id="Trazado_690832" data-name="Trazado 690832" d="M347.042,39.7c-.663-1.163-.668-2.506-.011-3s1.727.049,2.391,1.212.667,2.506.01,3-1.727-.049-2.39-1.213" transform="translate(-102.519 -10.804)" fill="#d27558"/>
            <path id="Trazado_690833" data-name="Trazado 690833" d="M348.378,41.607c-.467-.806-.475-1.729-.018-2.061s1.2.051,1.672.857.475,1.729.018,2.062-1.206-.051-1.672-.858" transform="translate(-102.957 -11.663)" fill="#edb984"/>
            <path id="Trazado_690834" data-name="Trazado 690834" d="M427.237,53.223c2.2-1.125,4.052-3.118,5-2.826s2.232,3.789-.3,4.368a26.039,26.039,0,0,1-5.027.59Z" transform="translate(-126.296 -14.901)" fill="#edb984"/>
            <path id="Trazado_690835" data-name="Trazado 690835" d="M427.476,51.166c2.03-1.7,3.6-6.239,4.209-6.08.577.151-.877,5.644-1.582,6.124-.731.5-3.445.641-2.627-.044" transform="translate(-126.417 -13.337)" fill="#edb984"/>
            <path id="Trazado_690836" data-name="Trazado 690836" d="M429.328,50.459c4.483-.824,6.581-4.169,7.069-4.138s-.76,2.95-3.164,4.066a4.022,4.022,0,0,1-3.905.072" transform="translate(-127.01 -13.703)" fill="#edb984"/>
            <path id="Trazado_690837" data-name="Trazado 690837" d="M429.6,52.414c4.56-.367,7.634-3.738,8.215-3.637s-1.621,2.913-4.206,3.691a6.083,6.083,0,0,1-4.009-.054" transform="translate(-127.091 -14.429)" fill="#edb984"/>
            <path id="Trazado_690838" data-name="Trazado 690838" d="M429.587,55.042c4.914-.556,7.4-3.074,7.753-2.979s-1.167,2.08-3.392,2.843a6.5,6.5,0,0,1-4.361.136" transform="translate(-127.087 -15.401)" fill="#edb984"/>
            <path id="Trazado_690839" data-name="Trazado 690839" d="M358.525,35.24c-.059-1.09-.65-1.936-1.321-1.889s-1.173.975-1.113,2.072.656,1.939,1.329,1.886,1.163-.979,1.1-2.068" transform="translate(-105.343 -9.866)" fill="#473939"/>
            <path id="Trazado_690840" data-name="Trazado 690840" d="M367.649,33.846c-.057-.9-.57-1.608-1.148-1.588s-1,.769-.946,1.671.576,1.611,1.154,1.585,1-.772.94-1.668" transform="translate(-108.142 -9.543)" fill="#473939"/>
            <path id="Trazado_690841" data-name="Trazado 690841" d="M353.116,31.79l-.151-.213a.853.853,0,0,1,.223-1.181l3.194-2.28a.859.859,0,0,1,1.206.176l.093.132Z" transform="translate(-104.376 -8.267)" fill="#7f4138"/>
            <path id="Trazado_690842" data-name="Trazado 690842" d="M363.127,36.591s-.1.219-.231.561c1.029,1.508,2.3,4.1-.384,4,.025.068.034.144.065.208,4.612.846,1.383-3.841.551-4.765" transform="translate(-107.244 -10.825)" fill="#d27558"/>
            <path id="Trazado_690843" data-name="Trazado 690843" d="M363.077,46.689c-1.051.1-1.951-.7-2.531-1.993l-.538.161c.569,1.453,1.536,2.353,2.659,2.246a1.837,1.837,0,0,0,1.3-.755,1.812,1.812,0,0,1-.891.342" transform="translate(-106.503 -13.223)" fill="#d27558"/>
            <path id="Trazado_690844" data-name="Trazado 690844" d="M363.738,28.147l.018-.134a.49.49,0,0,1,.7-.44l2.764,1.22a1,1,0,0,1,.53,1l-.018.136Z" transform="translate(-107.606 -8.143)" fill="#7f4138"/>
            <path id="Trazado_690845" data-name="Trazado 690845" d="M362.371,49.555c.035-.173-.274-.38-.69-.464s-.782-.013-.816.159.274.38.69.464.782.013.816-.159" transform="translate(-106.756 -14.512)" fill="#d27558"/>
            <path id="Trazado_690846" data-name="Trazado 690846" d="M338.036,108.593c6.565-15.458,23.027-30.24,23.027-30.24l1.015.7s-10.974,25.747-15.96,31.375a13.171,13.171,0,0,1-1.842,1.733c-3.212,2.464-7.8.114-6.24-3.566" transform="translate(-99.91 -23.18)" fill="#edb984"/>
            <path id="Trazado_690847" data-name="Trazado 690847" d="M345.159,107.816a19.588,19.588,0,0,1-2.1,2.039c-1.895,1.574-4.01,1.533-5.325.544a4.065,4.065,0,0,0,6.509,3.008,13.156,13.156,0,0,0,1.841-1.732c4.987-5.628,16-32.391,16-32.391l-.212-.146c-3.71,7.246-12.433,23.882-16.713,28.679" transform="translate(-99.915 -23.411)" fill="#e79b69"/>
            <path id="Trazado_690848" data-name="Trazado 690848" d="M366.967,81.123c.705-2.464.575-5.409,1.42-5.828s4.147,1.592,2.838,3.833a23.74,23.74,0,0,1-2.994,3.99Z" transform="translate(-108.562 -22.259)" fill="#edb984"/>
            <path id="Trazado_690849" data-name="Trazado 690849" d="M365.979,79.541c.192-2.827-1.9-7.688-1.377-7.979.5-.275,3.331,5.3,3.188,6.186-.149.924-1.887,2.932-1.81,1.793" transform="translate(-107.837 -21.168)" fill="#edb984"/>
            <path id="Trazado_690850" data-name="Trazado 690850" d="M366.744,76.867c2.463-3.805,1.558-8.044,1.909-8.358s1.537,2.978.686,5.578-2.595,2.779-2.595,2.779" transform="translate(-108.496 -20.261)" fill="#edb984"/>
            <path id="Trazado_690851" data-name="Trazado 690851" d="M368.143,77.966c2.833-3.48,2.57-8.418,3.033-8.739s.928,3.548-.282,5.993a5.262,5.262,0,0,1-2.752,2.746" transform="translate(-108.91 -20.474)" fill="#edb984"/>
            <path id="Trazado_690852" data-name="Trazado 690852" d="M369.768,80.3c2.941-3.883,2.872-7.7,3.179-7.872s.657,2.54-.32,4.723a5.7,5.7,0,0,1-2.858,3.149" transform="translate(-109.39 -21.424)" fill="#edb984"/>
            <path id="Trazado_690853" data-name="Trazado 690853" d="M303.162,78.538c1.348.973,1.947,1.417,3.323,2.462l3.979,1.375,3.174,2.326s-1.51,7.282-6.286,10.358l-8.569-3.375c-.052-7.159,4.379-13.145,4.379-13.145" transform="translate(-88.391 -23.234)" fill="#e79b69"/>
            <path id="Trazado_690854" data-name="Trazado 690854" d="M311.6,87.909c-1.915-1.037-3.345-6.77-7.73-6.667a9,9,0,0,0-1.265.122,22.646,22.646,0,0,1,1.691-2.826c1.348.973,1.947,1.417,3.322,2.462l3.98,1.375,3.174,2.325s-1.51,7.282-6.286,10.358l-2.633-3.471c2.474-1.282,5.723-.949,5.747-3.679" transform="translate(-89.52 -23.234)" fill="#edaa72"/>
            <path id="Trazado_690855" data-name="Trazado 690855" d="M317.714,85.042a76.381,76.381,0,0,0,3.137-10.875c-.075-.463-2.226-1.419-2.479-1.212a51.706,51.706,0,0,0-3.891,8.177c-.049,1.154,2.158,3.624,3.234,3.91" transform="translate(-93.034 -21.574)" fill="#edb984"/>
            <path id="Trazado_690856" data-name="Trazado 690856" d="M309.348,79.035c-.5,1.367-1.926,4.607-1.829,5.006.117.482,2.539,1.77,3.219,1.322a24.592,24.592,0,0,0,2.373-4.9,6.178,6.178,0,0,0-3.764-1.43" transform="translate(-90.974 -23.378)" fill="#edb984"/>
            <path id="Trazado_690857" data-name="Trazado 690857" d="M311.051,86.092c.094,0,.187-.011.28-.018a4.545,4.545,0,0,1-.593.947c-.681.447-3.1-.841-3.219-1.322a3.349,3.349,0,0,1,.284-1.073,3.865,3.865,0,0,0,3.248,1.467" transform="translate(-90.973 -25.035)" fill="#edaa72"/>
            <path id="Trazado_690858" data-name="Trazado 690858" d="M303.587,78.246c-.5,1.365-1.92,4.62-1.832,5,.106.455,2.428,1.489,3.092,1A26.852,26.852,0,0,0,307.2,79.3a5.432,5.432,0,0,0-3.616-1.053" transform="translate(-89.269 -23.135)" fill="#edb984"/>
            <path id="Trazado_690859" data-name="Trazado 690859" d="M303.815,82.9a5.939,5.939,0,0,0,2.034.674,10.591,10.591,0,0,1-1,1.789c-.663.492-2.986-.542-3.092-1a10.7,10.7,0,0,1,.794-2.377,6.061,6.061,0,0,0,1.267.911" transform="translate(-89.268 -24.254)" fill="#edaa72"/>
            <path id="Trazado_690860" data-name="Trazado 690860" d="M297.322,95.418l11.131,3.091a9.135,9.135,0,0,0-1.528,5.79l-10.724.253Z" transform="translate(-87.627 -28.228)" fill="#edb984"/>
            <path id="Trazado_690861" data-name="Trazado 690861" d="M296.2,104.769l.875-8.619c1.633,8.063,8.611,6.028,10.748,3.66a9.365,9.365,0,0,0-.9,4.706Z" transform="translate(-87.627 -28.445)" fill="#edb984"/>
            <path id="Trazado_690862" data-name="Trazado 690862" d="M305.8,96.887c1.378-.826,5.464-1.96,6.14-1.514.657.433.145,1.91-.7,2.925-1.128,1.356-3.427,2.347-4.809,1.71-1.466-.677-2.513-1.992-.63-3.121" transform="translate(-90.167 -28.185)" fill="#edb984"/>
            <path id="Trazado_690863" data-name="Trazado 690863" d="M299.467,83.857l3.2,3.421-.813,2.058c2.554,2.374,1.436,8.018-2.781,7.146-3.541-.732-2.779-7.354-2.772-8.1s2.667-4.548,3.167-4.528" transform="translate(-87.634 -24.808)" fill="#edb984"/>
            <path id="Trazado_690864" data-name="Trazado 690864" d="M296.3,88.385c.006-.746,2.667-4.548,3.167-4.528l3.2,3.421-.813,2.058c.083.078.162.159.238.244a3.185,3.185,0,0,0-3.6-.732c-1.627.8-2.207,3.063-1.294,5.045a3.616,3.616,0,0,0,4.323,2.248,3.309,3.309,0,0,1-2.45.342c-3.542-.732-2.78-7.354-2.773-8.1" transform="translate(-87.634 -24.808)" fill="#edaa72"/>
            <path id="Trazado_690865" data-name="Trazado 690865" d="M302.923,83.667c2.564,3.018,6.061,2.446,6.377,2.57a1.736,1.736,0,0,1-.019,2.3c-2.548,2.473-6.556-.214-6.556-.214s-2.738-2.6-2.677-3.983c.031-.687,1.727-1.271,2.874-.673" transform="translate(-88.765 -24.678)" fill="#edb984"/>
            <path id="Trazado_690866" data-name="Trazado 690866" d="M298.973,103.592c1.83,14.552-2.827,41.136-6.174,44.113s-21.328-3.248-23.633-8.992,19.748-39.087,19.748-39.087Z" transform="translate(-79.579 -29.473)" fill="#edb984"/>
            <path id="Trazado_690867" data-name="Trazado 690867" d="M271.484,131.542c4.5,2.418,9.056,3.816,10.825,2.712,3-1.871,16.668-29,16.668-29,1.83,14.552-2.827,41.136-6.174,44.113s-21.328-3.248-23.633-8.992c-.576-1.436.451-4.719,2.314-8.837" transform="translate(-79.582 -31.139)" fill="#e79b69"/>
            <path id="Trazado_690868" data-name="Trazado 690868" d="M210.339,35.6a10.41,10.41,0,0,1-.356-10.141c2.746-5.726,9.307-3.459,9.307-3.459A11.709,11.709,0,0,1,230.5,19.975c6.442,2.268,5.368,7.637,5.368,7.637,1.312.835,3.7,6.085-.241,11.1l-15.036,19.8S207.95,50.275,207.236,44.19s3.1-8.589,3.1-8.589" transform="translate(-61.281 -5.714)" fill="#7c4735"/>
            <path id="Trazado_690869" data-name="Trazado 690869" d="M274.094,310.249h-1.909l-26.708-93.172,42.952-10.78s6.672,49.037-14.335,103.952" transform="translate(-72.621 -61.03)" fill="#6a6ac7"/>
            <path id="Trazado_690870" data-name="Trazado 690870" d="M261.107,216.035c12.69,15.339,12.9,55.641,12.524,97.095h-1.446l-26.708-93.172Z" transform="translate(-72.621 -63.911)" fill="#5656b7"/>
            <path id="Trazado_690871" data-name="Trazado 690871" d="M224.481,310.79h-1.909l-2.846-97.744,52.177-4.894s-8.934,48.416-47.422,102.638" transform="translate(-65.003 -61.579)" fill="#6a6ac7"/>
            <path id="Trazado_690872" data-name="Trazado 690872" d="M228.593,229.305l-4.755,77.952H222.57l-2.846-97.744,60.174-13.3a84.436,84.436,0,0,1,1.779,22.016c-11.883.744-31.722,5.573-53.086,11.08" transform="translate(-65.002 -58.045)" fill="#5656b7"/>
            <path id="Trazado_690873" data-name="Trazado 690873" d="M278.912,177.545c-23.624,8.347-65.144,15.5-65.144,15.5s-18.12-80.415-7.141-96.161,23.413-13.755,31.134-10.576c23.726,9.772,39.05,47.819,41.151,91.239" transform="translate(-60.082 -24.881)" fill="#f7e4bc"/>
            <path id="Trazado_690874" data-name="Trazado 690874" d="M240.792,86.308c1.039.428,2.055.929,3.062,1.463-2.177,3.246-10.2,5.658-19.786,5.656a49.317,49.317,0,0,1-10.727-1.121c9.986-10.7,20.584-8.827,27.452-6" transform="translate(-63.113 -24.883)" fill="#ecd3a4"/>
            <path id="Trazado_690875" data-name="Trazado 690875" d="M206.627,101.82c4.432-6.356,12.955,17.528,26.494,51.345,6.449,16.109,19.471,26.922,29.724,34.194-22.676,6.075-49.078,10.622-49.078,10.622s-18.12-80.415-7.141-96.161" transform="translate(-60.083 -29.818)" fill="#ecd3a4"/>
            <path id="Trazado_690876" data-name="Trazado 690876" d="M241.426,86.307a36.228,36.228,0,0,1,6.113,3.265c1.033,4.358.412,10.593-1.173,13.761-12.191-1.157-23.242-7.352-30.883-12.557,9.532-8.992,19.421-7.156,25.944-4.469" transform="translate(-63.747 -24.881)" fill="#b1405c"/>
            <path id="Trazado_690877" data-name="Trazado 690877" d="M242.547,86.308c.825.339,1.636.721,2.44,1.128,2.088,2.586,1.777,9.578.241,12.648-10.873-1.032-20.524-7.512-25.955-11.537,8.675-6.4,17.359-4.676,23.274-2.239" transform="translate(-64.869 -24.883)" fill="#edb984"/>
            <path id="Trazado_690878" data-name="Trazado 690878" d="M226.537,93.414a85.149,85.149,0,0,1-7.264-4.867c8.675-6.4,17.359-4.675,23.274-2.239.825.34,1.636.721,2.44,1.128a4.288,4.288,0,0,1,.412.632c-2.391,3.015-9.884,5.234-18.862,5.346" transform="translate(-64.869 -24.883)" fill="#e79b69"/>
            <path id="Trazado_690879" data-name="Trazado 690879" d="M242.664,79.279l-2.178-10.508-16.94-7.519L221.957,80.52c13.7,4.455,19.637,3.353,20.707-1.241" transform="translate(-65.663 -18.12)" fill="#d27558"/>
            <path id="Trazado_690880" data-name="Trazado 690880" d="M245.317,68.326c-7.214,1.625-17.576-3.024-18.981-4.707s-5.347-17.732-4.043-21.568,14.313-6.434,16.292-4.786c6.128,5.1,8.509,22,6.733,31.061" transform="translate(-65.685 -10.875)" fill="#edb984"/>
            <path id="Trazado_690881" data-name="Trazado 690881" d="M204.862,100.635c-13.728,21.845-12.887,51.65,4.866,66.189l17.6-22.842c-6.505-5.339-8.71-19.509-8.231-31.121.43-10.417-11.454-16.649-14.234-12.226" transform="translate(-57.804 -29.345)" fill="#f7e4bc"/>
            <path id="Trazado_690882" data-name="Trazado 690882" d="M204.862,99.5c.332-.528,2.465-3.771,3.808-4.091,2.6-.619,2.43,4.555,1.484,7.057-7.08,18.727-4.907,40.067,7.661,52.726l-8.087,10.5c-17.753-14.54-18.593-44.344-4.866-66.189" transform="translate(-57.804 -28.21)" fill="#ecd3a4"/>
            <path id="Trazado_690883" data-name="Trazado 690883" d="M282.01,355.609h8.839s-5.445-4.028-7.5-3.779-1.344,3.777-1.344,3.777" transform="translate(-83.394 -104.081)" fill="#ecd3a4"/>
            <path id="Trazado_690884" data-name="Trazado 690884" d="M225.575,355.545h-7.829s3.055-4.162,4.981-3.9,2.848,3.906,2.848,3.906" transform="translate(-64.417 -104.024)" fill="#ecd3a4"/>
            <path id="Trazado_690885" data-name="Trazado 690885" d="M228.253,157.952c-9.468-3.073-21.241.38-24.059,11.768s13.431,25.338,21.879,13.183,2.179-24.951,2.179-24.951" transform="translate(-60.312 -46.412)" fill="#b1405c"/>
            <path id="Trazado_690886" data-name="Trazado 690886" d="M254.673,156.067c-9.546,11.134-27.9,25.964-32.316,26.693-10.475,1.729-19.25-15.294-9.222-23.544,4.78-3.933,37.624-13.894,37.624-13.894Z" transform="translate(-61.747 -42.991)" fill="#edb984"/>
            <path id="Trazado_690887" data-name="Trazado 690887" d="M212.123,164.669c1.831,3.433,4.9,5.973,8.713,6.185,3.854.213,33.84-10.272,33.84-10.272-9.546,11.134-27.9,25.964-32.316,26.694-10.094,1.665-18.6-14.076-10.236-22.607" transform="translate(-61.749 -47.506)" fill="#e79b69"/>
            <path id="Trazado_690888" data-name="Trazado 690888" d="M276.719,254.135l8.83-5.885L278,250.424l-8.444-2.432Z" transform="translate(-79.744 -73.365)" fill="#5656b7"/>
            <path id="Trazado_690889" data-name="Trazado 690889" d="M222.389,52.854l5.5.321s-.637-16,2.882-17.4-3.134-6.014-8.509-1.985.125,19.066.125,19.066" transform="translate(-65.056 -9.518)" fill="#7c4735"/>
            <path id="Trazado_690890" data-name="Trazado 690890" d="M220.47,59.629c-1.379-2.1-1.529-4.432-.334-5.219s3.282.273,4.662,2.369,1.529,4.432.334,5.219-3.283-.273-4.662-2.369" transform="translate(-64.885 -16.02)" fill="#edb984"/>
            <path id="Trazado_690891" data-name="Trazado 690891" d="M221.364,59.909c-.891-1.353-.987-2.862-.215-3.371s2.12.177,3.01,1.53.988,2.863.215,3.371-2.12-.177-3.01-1.53" transform="translate(-65.269 -16.676)" fill="#d27558"/>
            <path id="Trazado_690892" data-name="Trazado 690892" d="M223.283,61.709c-.534-.81-.592-1.713-.129-2.017s1.27.1,1.8.915.592,1.713.13,2.017-1.271-.1-1.8-.915" transform="translate(-65.924 -17.629)" fill="#edb984"/>
            <path id="Trazado_690893" data-name="Trazado 690893" d="M245.417,54.468c-.152-.995-.767-1.735-1.376-1.655s-.977.953-.826,1.948.768,1.736,1.376,1.655.978-.953.826-1.948" transform="translate(-71.941 -15.622)" fill="#5a4949"/>
            <path id="Trazado_690894" data-name="Trazado 690894" d="M243.561,46.978l-3.879,1.05a.581.581,0,0,0-.42.725l.356,1.178a.623.623,0,0,0,.762.406l3.879-1.05a.58.58,0,0,0,.42-.725l-.356-1.178a.624.624,0,0,0-.762-.406" transform="translate(-70.775 -13.891)" fill="#7c4735"/>
            <path id="Trazado_690895" data-name="Trazado 690895" d="M251.688,52.373c-.288-.964-.742-1.689-1.015-1.62s-.26.907.028,1.871.742,1.689,1.014,1.62.261-.908-.027-1.872" transform="translate(-74.1 -15.013)" fill="#5a4949"/>
            <path id="Trazado_690896" data-name="Trazado 690896" d="M251.885,46l-2,.254c-.168.021-.274.3-.237.624l.141,1.22c.037.323.2.568.372.547l2-.254c.168-.021.274-.3.237-.625l-.141-1.22c-.037-.323-.2-.568-.372-.547" transform="translate(-73.853 -13.607)" fill="#7c4735"/>
            <path id="Trazado_690897" data-name="Trazado 690897" d="M249.494,55.575c2.707,2.348,4.157,4.012,3.784,5.182a2.115,2.115,0,0,1-1.73,1.2l.022.065s2.438,0,2.914-1.16-1.482-2.822-4.99-5.284" transform="translate(-73.809 -16.441)" fill="#d27558"/>
            <path id="Trazado_690898" data-name="Trazado 690898" d="M251.457,67.33l-5.733.288s-.865,3.629,2.817,3.8c2.786.13,2.916-4.089,2.916-4.089" transform="translate(-72.668 -19.919)" fill="#3e2d34"/>
            <path id="Trazado_690899" data-name="Trazado 690899" d="M251.231,67.711l-4.746.239s-.716,3,2.332,3.147c2.307.107,2.414-3.386,2.414-3.386" transform="translate(-72.897 -20.031)" fill="#f9eddb"/>
            <path id="Trazado_690900" data-name="Trazado 690900" d="M283.541,149.214,281.4,150.7l-1.394-.617.513-1.726Z" transform="translate(-82.835 -43.888)" fill="#edb984"/>
            <path id="Trazado_690901" data-name="Trazado 690901" d="M275.566,148.282l1.676,3.766s-7,5.25-13.272,3.4l-4.176-10.293c1.439-1.28,1.588-4.314,3.321-4.146,3.741.363,5.253-1.2,7.355-1.633,1.721-.356,5.1,8.911,5.1,8.911" transform="translate(-76.856 -41.228)" fill="#edb984"/>
            <path id="Trazado_690902" data-name="Trazado 690902" d="M273.249,152.262c.683-1.706,3.943-.427,3.943-.427l1.676,3.766s-7,5.251-13.272,3.4l-.3-3.705c2.773-.8,8.616,2.064,7.957-3.029" transform="translate(-78.483 -44.782)" fill="#edb984"/>
            <path id="Trazado_690903" data-name="Trazado 690903" d="M268.8,140.854c1.755-.381,2.91-1.189,4.331-1.484,1.72-.356,5.1,8.912,5.1,8.912l1.676,3.766a22.741,22.741,0,0,1-6.461,3.178c1.865-1.969,1.855-11.509-4.643-14.372" transform="translate(-79.522 -41.228)" fill="#edb984"/>
            <path id="Trazado_690904" data-name="Trazado 690904" d="M280.092,143.789c-.7-.069-6.105,2.419-6.414,2.847-.374.517.456,3.591,1.486,3.746.455.068,6.012-1.71,6.688-2.744.4-.615-1.1-3.783-1.759-3.849" transform="translate(-80.936 -42.538)" fill="#edb984"/>
            <path id="Trazado_690905" data-name="Trazado 690905" d="M276.479,137.948c-.608-.306-5.631,2.2-5.878,2.617-.3.5.736,3.5,1.7,3.653.426.067,5.338-1.84,5.876-2.814.343-.622-.3-2.752-1.7-3.456" transform="translate(-80.038 -40.802)" fill="#edb984"/>
            <path id="Trazado_690906" data-name="Trazado 690906" d="M260.625,144.607l3.917,12.635-7.047,2.416-5.075-9.591Z" transform="translate(-74.675 -42.78)" fill="#edb984"/>
            <path id="Trazado_690907" data-name="Trazado 690907" d="M265.738,157.911c-.261-.05-.524-.106-.787-.173-4.58-1.173-7.7-4.618-6.976-7.694.449-1.9,2.257-3.207,4.65-3.661l3.53,11.386Z" transform="translate(-76.287 -43.305)" fill="#edb984"/>
            <path id="Trazado_690908" data-name="Trazado 690908" d="M267.661,157.113c1.251.5,3.42,2.3,3.513,3.083.09.757-1.811.883-2.891.89a3.974,3.974,0,0,1-3.553-2.64c-.38-1.508,1.221-2.023,2.931-1.333" transform="translate(-78.3 -46.39)" fill="#edb984"/>
            <path id="Trazado_690909" data-name="Trazado 690909" d="M259.967,136l4.247,1.61-.548,2.217c3.2,3.25.736,11.948-4.167,11.046-1.783-.328-5.012-3.829-3.657-5.555,1.622-2.067,1.447-5.028,1.594-5.441A22.19,22.19,0,0,1,259.967,136" transform="translate(-75.591 -40.234)" fill="#edb984"/>
            <path id="Trazado_690910" data-name="Trazado 690910" d="M264.214,137.611l-.54,2.186a2.489,2.489,0,0,0-1.251-.307c-2.088.049-4.014,2.593-4.3,5.684s1.17,5.557,3.259,5.507c.066,0,.132-.013.2-.019a3.616,3.616,0,0,1-2.079.213c-1.783-.328-5.012-3.829-3.657-5.555,1.622-2.067,1.447-5.028,1.593-5.441A22.227,22.227,0,0,1,259.967,136Z" transform="translate(-75.591 -40.234)" fill="#edb984"/>
            <path id="Trazado_690911" data-name="Trazado 690911" d="M260.9,134.324c2.331-3.119.752-6.61.789-6.957a1.787,1.787,0,0,1,2.363-.446c3.416,2.138,1.948,7.681,1.5,8.543,0,0-5.474,2.632-4.65-1.14" transform="translate(-77.158 -37.471)" fill="#edb984"/>
            <path id="Trazado_690912" data-name="Trazado 690912" d="M282.049,155.627a89.612,89.612,0,0,0,9.325-3.755c.5-.488.1-3.293-.851-3.572a68.832,68.832,0,0,0-8.91,2.546c-1.784,1.241-1.755,5.13.436,4.781" transform="translate(-82.933 -43.871)" fill="#edb984"/>
            <path id="Trazado_690913" data-name="Trazado 690913" d="M657.432,64.875c.107-.232,1.371-2.819,1.371-2.819s-.163-2.183,2.777-2.341l-3.408-2.841a10.629,10.629,0,0,0-3.741,3.456,17.558,17.558,0,0,0,.861,5.211,4.121,4.121,0,0,0,2.14-.667" transform="translate(-193.593 -16.826)" fill="#e79b69"/>
            <path id="Trazado_690914" data-name="Trazado 690914" d="M649.636,55.719c1.017-.694,5.246-.22,5.246-.22l2.258,3.08-1.007,1.908s-3.874-1.774-4.565-1.577-2.309,2.47-2.865,3.019c-.84.832-3.062,1.789-3.352,1.61a4.115,4.115,0,0,1-.765-2.216c.211-.353,2.015-1.477,2.224-1.713s1.813-3.2,2.826-3.891" transform="translate(-190.684 -16.372)" fill="#edaa72"/>
            <path id="Trazado_690915" data-name="Trazado 690915" d="M655.656,53.8c-4.167-3.153-7.526-5.561-7.711-5.965s.968-2.331,1.27-2.307a52.9,52.9,0,0,1,7.389,4.559c.639.88-.273,2.9-.949,3.712" transform="translate(-191.679 -13.468)" fill="#edb984"/>
            <path id="Trazado_690916" data-name="Trazado 690916" d="M669.225,67.992l-9.253,3,1.284,5.978,10.022-2.036Z" transform="translate(-195.243 -20.115)" fill="#edaa72"/>
            <path id="Trazado_690917" data-name="Trazado 690917" d="M657.676,60.511c3.928-1.055,1.41-4.534.527-5.2l.868-3.8s5.759,3.595,7.231,5.719a20.215,20.215,0,0,1,2.271,6.044,5.58,5.58,0,0,1-3.849,5.685Z" transform="translate(-194.564 -15.24)" fill="#edb984"/>
            <path id="Trazado_690918" data-name="Trazado 690918" d="M659.8,61.53c.863-.974.36-2.689-.94-4.014a3.963,3.963,0,0,0-.783-.625l0,.013c.884.663,3.128,4.089-.834,5.252l.418.078a2.494,2.494,0,0,0,2.142-.7" transform="translate(-194.434 -16.831)" fill="#edaa72"/>
            <path id="Trazado_690919" data-name="Trazado 690919" d="M652.2,68.022l-1.321-3.2a14.119,14.119,0,0,1,6.381-.326c4.44.98,9.327,4.593,6.11,7.8-2.09,2.082-7.075-1.456-7.41-2.1a4.369,4.369,0,0,0-3.76-2.167" transform="translate(-192.554 -19.011)" fill="#edb984"/>
            <path id="Trazado_690920" data-name="Trazado 690920" d="M664.285,69.293a3.018,3.018,0,0,1-.9,2.538c-1.539,1.345-4.506.47-6.627-1.956-1.618-1.85-4.221-3.511-1.815-5.611a15.448,15.448,0,0,0-4.066.556l1.321,3.2a4.369,4.369,0,0,1,3.76,2.167c.336.644,5.32,4.182,7.41,2.1a2.86,2.86,0,0,0,.912-3" transform="translate(-192.554 -19.011)" fill="#edaa72"/>
            <path id="Trazado_690921" data-name="Trazado 690921" d="M651.219,65.341a1.556,1.556,0,0,1-.579,2.869,9.078,9.078,0,0,0-3.776,1.756c-.265.1-1.328-.735-1.314-1.421.058-2.97,4.033-3.534,4.033-3.534a3.093,3.093,0,0,1,1.635.33" transform="translate(-190.976 -19.23)" fill="#edb984"/>
            <path id="Trazado_690922" data-name="Trazado 690922" d="M750.767,28.89c-3.011-10.1-15.234-15.119-20.939-8.814s-.418,14.411-.418,14.411Z" transform="translate(-215.125 -5.115)" fill="#904930"/>
            <path id="Trazado_690923" data-name="Trazado 690923" d="M738.233,72.575C714.672,64.883,683.7,92.152,683.7,92.152L679.534,123.6Z" transform="translate(-201.03 -21.066)" fill="#f0dcb6"/>
            <path id="Trazado_690924" data-name="Trazado 690924" d="M740.558,83.592C717,75.9,685.682,103.379,685.682,103.379l-.482,26.453Z" transform="translate(-202.706 -24.328)" fill="#e2ca9f"/>
            <path id="Trazado_690925" data-name="Trazado 690925" d="M678.983,101.24c5.877,1.689,9.385,11.157,7.835,21.149s-7.571,16.721-13.448,15.033-9.385-11.158-7.835-21.149,7.57-16.722,13.447-15.033" transform="translate(-196.78 -29.873)" fill="#d75c74"/>
            <path id="Trazado_690926" data-name="Trazado 690926" d="M665.895,67.2s20.308,25.969,13.4,49.634l-4.549,7.449c-10.536-2.2-15.672-11.405-16.164-16.126s2-34.082,2-34.082Z" transform="translate(-194.812 -19.881)" fill="#edb984"/>
            <path id="Trazado_690927" data-name="Trazado 690927" d="M664.559,87.362c3.121,12.858,8.924,21.942,12.961,20.289,1.258-.515,2.2-2.013,2.8-4.22a39.444,39.444,0,0,1-1.022,16.3l-4.55,7.449c-10.535-2.2-15.672-11.405-16.164-16.126s2-34.082,2-34.082a61.168,61.168,0,0,1,3.976,10.395" transform="translate(-194.812 -22.77)" fill="#e79b69"/>
            <path id="Trazado_690928" data-name="Trazado 690928" d="M703.793,181.425l53.26,10.217s-3.91,64.38-21.35,119.614h-1.431S694.8,252.839,693.66,245.513c-2.115-13.54,10.133-64.088,10.133-64.088" transform="translate(-205.136 -53.672)" fill="#7b9bc2"/>
            <path id="Trazado_690929" data-name="Trazado 690929" d="M728.937,244.907s6.832,42.033,14.809,83.722l-.249.171-18.659-59.7Z" transform="translate(-214.433 -72.452)" fill="#658bab"/>
            <path id="Trazado_690930" data-name="Trazado 690930" d="M717.49,204.045c-8.5-2.607-15.808,1.612-19.455,10.237,2.678-16.039,5.634-34.427,5.634-34.427l56.293,11.264s-5.452,64.44-22.892,119.674h-.8c2.755-11.536,18.978-95.166-18.776-106.747" transform="translate(-206.503 -53.207)" fill="#658bab"/>
            <path id="Trazado_690931" data-name="Trazado 690931" d="M760.5,171.972c-33.349.711-57.349-18.951-57.349-18.951s-8.237-63.261,11.722-76.291,28.342-8.53,41.48,3.553,4.147,91.688,4.147,91.688" transform="translate(-207.518 -20.369)" fill="#f0dcb6"/>
            <path id="Trazado_690932" data-name="Trazado 690932" d="M766.536,125.483c-3.422-36.371,4.878-43.686,8.174-40.655,13.138,12.083,4.147,91.688,4.147,91.688a86.081,86.081,0,0,1-15.334-1.055c3.033-18.41,4.754-31.472,3.013-49.977" transform="translate(-225.877 -24.913)" fill="#e2ca9f"/>
            <path id="Trazado_690933" data-name="Trazado 690933" d="M764.754,74.238c31.422,11.151,53.988,61.248,47.152,70.255l-30.533-8.578c-5.261-6.639-13.1-15.313-15.688-22.947-6.651-19.605-.932-38.73-.932-38.73" transform="translate(-225.565 -21.962)" fill="#f0dcb6"/>
            <path id="Trazado_690934" data-name="Trazado 690934" d="M764.924,124.388c12.343,17.412,28.753,26.648,37.248,21.327,3.777-2.367,5.428-7.218,5.114-13.343,5.871,12.226,8.128,23.109,5.281,26.86l-30.533-8.578c-5.261-6.639-13.18-15.4-16.207-23.359-.41-1.078-.78-2.157-1.128-3.234.076.108.149.218.225.326" transform="translate(-226.225 -36.702)" fill="#e2ca9f"/>
            <path id="Trazado_690935" data-name="Trazado 690935" d="M748.527,365.363h-8.408s6.1-4.832,7.156-4.349,1.252,4.349,1.252,4.349" transform="translate(-218.953 -106.79)" fill="#f0dcb6"/>
            <path id="Trazado_690936" data-name="Trazado 690936" d="M750.394,365.528h9.839s-6.166-4.4-7.5-3.957-2.334,3.957-2.334,3.957" transform="translate(-221.993 -106.956)" fill="#f0dcb6"/>
            <path id="Trazado_690937" data-name="Trazado 690937" d="M787.205,162.727c.124-6.183,8.267-11.194,18.188-11.194s17.862,5.012,17.737,11.194-8.267,11.194-18.189,11.194-17.861-5.012-17.736-11.194" transform="translate(-232.883 -44.829)" fill="#d75c74"/>
            <path id="Trazado_690938" data-name="Trazado 690938" d="M781.547,198.112c12.969-9,32.763-23.47,35.136-31.319,3.372-11.155-21.313-13.9-29.157-6.562-4.74,4.432-12.019,27.457-12.019,27.457Z" transform="translate(-229.422 -46.193)" fill="#edb984"/>
            <path id="Trazado_690939" data-name="Trazado 690939" d="M792.225,189.91c11.236-9.1,14.529-17.934,10.555-22.647-2.741-3.253-9.461-2.567-17.054,1.156,1.657-3.684,3.36-6.822,4.823-8.189,7.845-7.334,32.529-4.593,29.157,6.563-2.372,7.849-20.552,21.321-33.52,30.323,0,0,4.063-5.606,6.039-7.206" transform="translate(-232.445 -46.192)" fill="#e79b69"/>
            <path id="Trazado_690940" data-name="Trazado 690940" d="M740.537,84.356c-8.632,0-15.793-5.211-19.426-8.27a28.481,28.481,0,0,1,5.5-2.886c11.422-6.1,18.748-5.342,26.35-.386a47.374,47.374,0,0,1,7.1,3.326c-3.29,3.03-10.946,8.216-19.526,8.216" transform="translate(-213.33 -20.372)" fill="#e2ca9f"/>
            <path id="Trazado_690941" data-name="Trazado 690941" d="M729.265,73.076c9.456-4.993,16.1-5.254,22.442-2.31-.844,4.9-5.433,8.574-11.2,8.574a13.01,13.01,0,0,1-11.241-6.264" transform="translate(-215.742 -20.373)" fill="#624952"/>
            <path id="Trazado_690942" data-name="Trazado 690942" d="M749.216,64.553l-1.949-12.438-14.894,4.146.164,10.543c-.039,2.434,12.282,11.183,16.679-2.251" transform="translate(-216.662 -15.417)" fill="#d27558"/>
            <path id="Trazado_690943" data-name="Trazado 690943" d="M745.943,45.541c1.467-9.006-.977-15.173-2-16.92-1.6-2.724-10.9-4.462-13.124-1.737s-4.164,15.8-2.595,27.622c.441,3.317,11.818,3.324,13.714,1.844,2.733-2.132,3.485-7.61,4.006-10.808" transform="translate(-215.266 -7.548)" fill="#edb984"/>
            <path id="Trazado_690944" data-name="Trazado 690944" d="M724.088,204.251l5.089,2.235-.039,3.3-5.089-2.235Z" transform="translate(-214.199 -60.424)" fill="#e2ca9f"/>
            <path id="Trazado_690945" data-name="Trazado 690945" d="M752.92,51.3l-1.274-5.319-3.267-4.031s-4.073-21.166,5.826-16.02S752.92,51.3,752.92,51.3" transform="translate(-221.151 -7.433)" fill="#904930"/>
            <path id="Trazado_690946" data-name="Trazado 690946" d="M739.973,43.1c-.02-.845.385-1.522.9-1.513s.956.7.976,1.546-.384,1.522-.9,1.513-.956-.7-.976-1.546" transform="translate(-218.91 -12.303)" fill="#5a4949"/>
            <path id="Trazado_690947" data-name="Trazado 690947" d="M740.283,37.482l3.392.5a.525.525,0,0,1,.457.565l-.124,1.017a.492.492,0,0,1-.576.412l-3.392-.5a.525.525,0,0,1-.457-.565l.124-1.017a.492.492,0,0,1,.576-.412" transform="translate(-218.793 -11.087)" fill="#904930"/>
            <path id="Trazado_690948" data-name="Trazado 690948" d="M728.533,41.829c-.02-.845.385-1.522.9-1.513s.956.7.976,1.546-.385,1.522-.9,1.513-.956-.7-.976-1.546" transform="translate(-215.525 -11.927)" fill="#5a4949"/>
            <path id="Trazado_690949" data-name="Trazado 690949" d="M726.375,36.429l3.389.013a.534.534,0,0,1,.536.5l.042,1.032a.481.481,0,0,1-.5.494l-3.389-.014a.533.533,0,0,1-.536-.5l-.041-1.032a.48.48,0,0,1,.5-.494" transform="translate(-214.74 -10.777)" fill="#904930"/>
            <path id="Trazado_690950" data-name="Trazado 690950" d="M734.475,42.679c-1.072,2.747-1.482,4.529-.733,5.288a1.85,1.85,0,0,0,1.772.3l.01.057s-1.815.867-2.639.149-.033-2.675,1.591-5.793" transform="translate(-216.716 -12.626)" fill="#d27558"/>
            <path id="Trazado_690951" data-name="Trazado 690951" d="M732.49,55.4l7.782-.9s.488,2.7-2.939,3.86-4.843-2.96-4.843-2.96" transform="translate(-216.696 -16.124)" fill="#3e2d34"/>
            <path id="Trazado_690952" data-name="Trazado 690952" d="M733.266,55.682l6.692-.775s.42,2.324-2.527,3.319-4.165-2.545-4.165-2.545" transform="translate(-216.926 -16.243)" fill="#f9eddb"/>
            <path id="Trazado_690953" data-name="Trazado 690953" d="M751.23,46.731c1.085-2.155,2.9-3.4,4.044-2.781s1.2,2.869.113,5.025-2.9,3.4-4.044,2.781-1.2-2.869-.113-5.025" transform="translate(-222.009 -12.955)" fill="#edb984"/>
            <path id="Trazado_690954" data-name="Trazado 690954" d="M752.648,47.963c.685-1.357,1.824-2.14,2.543-1.749s.748,1.808.063,3.165-1.824,2.14-2.544,1.749-.747-1.808-.062-3.165" transform="translate(-222.513 -13.642)" fill="#d27558"/>
            <path id="Trazado_690955" data-name="Trazado 690955" d="M751.69,49.426c.475-.938,1.261-1.478,1.755-1.207s.509,1.252.033,2.189-1.26,1.479-1.755,1.207-.508-1.251-.033-2.189" transform="translate(-222.273 -14.244)" fill="#edb984"/>
            <path id="Trazado_690956" data-name="Trazado 690956" d="M762.7,206.486c.881-.777,3.716-3.888,7.645-3.484l1.141-4.267c-3.466.244-8.427,2.073-10.678,5.162-1.558,2.139.992,3.381,1.892,2.589" transform="translate(-224.928 -58.793)" fill="#edb984"/>
            <path id="Trazado_690957" data-name="Trazado 690957" d="M782,205.749l-9.451-7.378a12.377,12.377,0,0,0-7.3,4.921,21.915,21.915,0,0,1-1,6.858c-1.094,2.959,14.835,7.264,17.753-4.4" transform="translate(-226.075 -58.685)" fill="#edb984"/>
            <path id="Trazado_690958" data-name="Trazado 690958" d="M757.405,217.431a10.549,10.549,0,0,0,5.489-6.178l2.4,2.685c-.328,1.707-3.012,4.288-4.835,5.374s-3.925-1.354-3.057-1.881" transform="translate(-224.007 -62.496)" fill="#edb984"/>
            <path id="Trazado_690959" data-name="Trazado 690959" d="M765.17,218.827a10.564,10.564,0,0,0,5.347-6.306l2.458,2.634c-.292,1.715-2.732,3.855-4.528,4.982s-4.134-.763-3.277-1.31" transform="translate(-226.31 -62.871)" fill="#edb984"/>
            <path id="Trazado_690960" data-name="Trazado 690960" d="M772.581,219.581c.957-.656,4.674-2.707,6.232-7.136l2.383,2.534c-.458,1.83-3.238,4.31-5.245,5.666s-4.326-.407-3.37-1.063" transform="translate(-228.491 -62.849)" fill="#edb984"/>
          </g>
        </g>
      </g>
    </g>
  </g>
</svg>
