<svg xmlns="http://www.w3.org/2000/svg" xmlns:xlink="http://www.w3.org/1999/xlink" width="350" height="301.538" viewBox="0 0 350 301.538">
  <defs>
    <clipPath id="clip-path">
      <rect id="Rectángulo_33768" data-name="Rectángulo 33768" width="349.51" height="274.126" fill="none" stroke="#707070" stroke-width="1"/>
    </clipPath>
    <clipPath id="clip-path-2">
      <rect id="Rectángulo_33845" data-name="Rectángulo 33845" width="349.51" height="239.704" transform="translate(0 0)" fill="none"/>
    </clipPath>
    <clipPath id="clip-path-3">
      <rect id="Rectángulo_33841" data-name="Rectángulo 33841" width="301.619" height="246.715" fill="none"/>
    </clipPath>
    <clipPath id="clip-path-4">
      <rect id="Rectángulo_344431" data-name="Rectángulo 344431" width="211.469" height="301.538" transform="translate(0 0)" fill="#ffa031" opacity="0.53"/>
    </clipPath>
    <clipPath id="clip-path-5">
      <rect id="Rectángulo_344430" data-name="Rectángulo 344430" width="257.485" height="310.35" fill="none"/>
    </clipPath>
  </defs>
  <g id="Grupo_990645" data-name="Grupo 990645" transform="translate(-621 -1118)">
    <g id="Grupo_990643" data-name="Grupo 990643" transform="translate(621 1118)">
      <g id="Grupo_951800" data-name="Grupo 951800" transform="translate(0 6.853)">
        <g id="Grupo_951798" data-name="Grupo 951798" transform="translate(0.489 16.27)">
          <g id="Grupo_80327" data-name="Grupo 80327" transform="translate(0 0)" clip-path="url(#clip-path-2)">
            <path id="Trazado_113636" data-name="Trazado 113636" d="M209.94,253.988a104.97,104.97,0,1,1-104.97-104.97,104.97,104.97,0,0,1,104.97,104.97" transform="translate(0 -119.254)" fill="#4db1f0"/>
            <path id="Sustracción_2" data-name="Sustracción 2" d="M76.061,152.125a76.683,76.683,0,0,1-15.329-1.545,75.653,75.653,0,0,1-27.2-11.446A76.27,76.27,0,0,1,5.977,105.668,75.607,75.607,0,0,1,1.545,91.392a76.808,76.808,0,0,1,0-30.659,75.658,75.658,0,0,1,11.445-27.2A76.272,76.272,0,0,1,46.455,5.977,75.673,75.673,0,0,1,60.732,1.545a76.806,76.806,0,0,1,30.658,0,75.656,75.656,0,0,1,27.2,11.445,76.28,76.28,0,0,1,27.557,33.466,75.64,75.64,0,0,1,4.432,14.278,76.808,76.808,0,0,1,0,30.659,75.674,75.674,0,0,1-11.445,27.2,76.291,76.291,0,0,1-33.465,27.558A75.7,75.7,0,0,1,91.39,150.58,76.685,76.685,0,0,1,76.061,152.125ZM76.061,15a61.064,61.064,0,1,0,61.065,61.064A61.133,61.133,0,0,0,76.061,15Z" transform="translate(197.387 87.579)" fill="#ffa031" stroke="rgba(0,0,0,0)" stroke-miterlimit="10" stroke-width="1"/>
            <path id="Trazado_113639" data-name="Trazado 113639" d="M625.5,670.581a37.117,37.117,0,1,1-37.117-37.117A37.117,37.117,0,0,1,625.5,670.581" transform="translate(-441.158 -506.939)" fill="#fff"/>
            <path id="Trazado_113640" data-name="Trazado 113640" d="M1471.616,263.988a2.346,2.346,0,1,1-2.346-2.346,2.346,2.346,0,0,1,2.346,2.346" transform="translate(-1173.927 -209.383)" fill="#f9e8dc"/>
            <path id="Trazado_113641" data-name="Trazado 113641" d="M1523.291,263.988a2.346,2.346,0,1,1-2.346-2.346,2.346,2.346,0,0,1,2.346,2.346" transform="translate(-1215.281 -209.383)" fill="#f9e8dc"/>
            <path id="Trazado_113642" data-name="Trazado 113642" d="M1574.966,263.988a2.346,2.346,0,1,1-2.346-2.346,2.346,2.346,0,0,1,2.346,2.346" transform="translate(-1256.635 -209.383)" fill="#f9e8dc"/>
            <path id="Trazado_113643" data-name="Trazado 113643" d="M1626.641,263.988a2.346,2.346,0,1,1-2.346-2.346,2.346,2.346,0,0,1,2.346,2.346" transform="translate(-1297.989 -209.383)" fill="#f9e8dc"/>
            <path id="Trazado_113644" data-name="Trazado 113644" d="M1678.316,263.988a2.346,2.346,0,1,1-2.346-2.346,2.346,2.346,0,0,1,2.346,2.346" transform="translate(-1339.342 -209.383)" fill="#f9e8dc"/>
            <path id="Trazado_113645" data-name="Trazado 113645" d="M1471.616,313.314a2.346,2.346,0,1,1-2.346-2.346,2.346,2.346,0,0,1,2.346,2.346" transform="translate(-1173.927 -248.857)" fill="#f9e8dc"/>
            <path id="Trazado_113646" data-name="Trazado 113646" d="M1523.291,313.314a2.346,2.346,0,1,1-2.346-2.346,2.346,2.346,0,0,1,2.346,2.346" transform="translate(-1215.281 -248.857)" fill="#f9e8dc"/>
            <path id="Trazado_113647" data-name="Trazado 113647" d="M1574.966,313.314a2.346,2.346,0,1,1-2.346-2.346,2.346,2.346,0,0,1,2.346,2.346" transform="translate(-1256.635 -248.857)" fill="#f9e8dc"/>
            <path id="Trazado_113648" data-name="Trazado 113648" d="M1626.641,313.314a2.346,2.346,0,1,1-2.346-2.346,2.346,2.346,0,0,1,2.346,2.346" transform="translate(-1297.989 -248.857)" fill="#f9e8dc"/>
            <path id="Trazado_113649" data-name="Trazado 113649" d="M1678.316,313.314a2.346,2.346,0,1,1-2.346-2.346,2.346,2.346,0,0,1,2.346,2.346" transform="translate(-1339.342 -248.857)" fill="#f9e8dc"/>
            <path id="Trazado_113650" data-name="Trazado 113650" d="M1471.616,362.64a2.346,2.346,0,1,1-2.346-2.346,2.346,2.346,0,0,1,2.346,2.346" transform="translate(-1173.927 -288.331)" fill="#f9e8dc"/>
            <path id="Trazado_113651" data-name="Trazado 113651" d="M1523.291,362.64a2.346,2.346,0,1,1-2.346-2.346,2.346,2.346,0,0,1,2.346,2.346" transform="translate(-1215.281 -288.331)" fill="#f9e8dc"/>
            <path id="Trazado_113652" data-name="Trazado 113652" d="M1574.966,362.64a2.346,2.346,0,1,1-2.346-2.346,2.346,2.346,0,0,1,2.346,2.346" transform="translate(-1256.635 -288.331)" fill="#f9e8dc"/>
            <path id="Trazado_113653" data-name="Trazado 113653" d="M1626.641,362.64a2.346,2.346,0,1,1-2.346-2.346,2.346,2.346,0,0,1,2.346,2.346" transform="translate(-1297.989 -288.331)" fill="#f9e8dc"/>
            <path id="Trazado_113654" data-name="Trazado 113654" d="M1678.316,362.64a2.346,2.346,0,1,1-2.346-2.346,2.346,2.346,0,0,1,2.346,2.346" transform="translate(-1339.342 -288.331)" fill="#f9e8dc"/>
            <path id="Trazado_113655" data-name="Trazado 113655" d="M1471.616,411.967a2.346,2.346,0,1,1-2.346-2.346,2.346,2.346,0,0,1,2.346,2.346" transform="translate(-1173.927 -327.806)" fill="#f9e8dc"/>
            <path id="Trazado_113656" data-name="Trazado 113656" d="M1523.291,411.967a2.346,2.346,0,1,1-2.346-2.346,2.346,2.346,0,0,1,2.346,2.346" transform="translate(-1215.281 -327.806)" fill="#f9e8dc"/>
            <path id="Trazado_113657" data-name="Trazado 113657" d="M1574.966,411.967a2.346,2.346,0,1,1-2.346-2.346,2.346,2.346,0,0,1,2.346,2.346" transform="translate(-1256.635 -327.806)" fill="#f9e8dc"/>
            <path id="Trazado_113658" data-name="Trazado 113658" d="M1626.641,411.967a2.346,2.346,0,1,1-2.346-2.346,2.346,2.346,0,0,1,2.346,2.346" transform="translate(-1297.989 -327.806)" fill="#f9e8dc"/>
            <path id="Trazado_113659" data-name="Trazado 113659" d="M1678.316,411.967a2.346,2.346,0,1,1-2.346-2.346,2.346,2.346,0,0,1,2.346,2.346" transform="translate(-1339.342 -327.806)" fill="#f9e8dc"/>
            <path id="Trazado_113660" data-name="Trazado 113660" d="M1471.616,461.293a2.346,2.346,0,1,1-2.346-2.346,2.346,2.346,0,0,1,2.346,2.346" transform="translate(-1173.927 -367.279)" fill="#f9e8dc"/>
            <path id="Trazado_113661" data-name="Trazado 113661" d="M1523.291,461.293a2.346,2.346,0,1,1-2.346-2.346,2.346,2.346,0,0,1,2.346,2.346" transform="translate(-1215.281 -367.279)" fill="#f9e8dc"/>
            <path id="Trazado_113662" data-name="Trazado 113662" d="M1574.966,461.293a2.346,2.346,0,1,1-2.346-2.346,2.346,2.346,0,0,1,2.346,2.346" transform="translate(-1256.635 -367.279)" fill="#f9e8dc"/>
            <path id="Trazado_113663" data-name="Trazado 113663" d="M1626.641,461.293a2.346,2.346,0,1,1-2.346-2.346,2.346,2.346,0,0,1,2.346,2.346" transform="translate(-1297.989 -367.279)" fill="#f9e8dc"/>
            <path id="Trazado_113664" data-name="Trazado 113664" d="M1678.316,461.293a2.346,2.346,0,1,1-2.346-2.346,2.346,2.346,0,0,1,2.346,2.346" transform="translate(-1339.342 -367.279)" fill="#f9e8dc"/>
            <path id="Trazado_113665" data-name="Trazado 113665" d="M128.168,380.474a2.346,2.346,0,1,1-2.346-2.346,2.346,2.346,0,0,1,2.346,2.346" transform="translate(-98.813 -302.603)" fill="#fff"/>
            <path id="Trazado_113666" data-name="Trazado 113666" d="M179.843,380.474a2.346,2.346,0,1,1-2.346-2.346,2.346,2.346,0,0,1,2.346,2.346" transform="translate(-140.167 -302.603)" fill="#fff"/>
            <path id="Trazado_113667" data-name="Trazado 113667" d="M231.518,380.474a2.346,2.346,0,1,1-2.346-2.346,2.346,2.346,0,0,1,2.346,2.346" transform="translate(-181.521 -302.603)" fill="#fff"/>
            <path id="Trazado_113668" data-name="Trazado 113668" d="M283.193,380.474a2.346,2.346,0,1,1-2.346-2.346,2.346,2.346,0,0,1,2.346,2.346" transform="translate(-222.875 -302.603)" fill="#fff"/>
            <path id="Trazado_113669" data-name="Trazado 113669" d="M334.868,380.474a2.346,2.346,0,1,1-2.346-2.346,2.346,2.346,0,0,1,2.346,2.346" transform="translate(-264.228 -302.603)" fill="#fff"/>
            <path id="Trazado_113670" data-name="Trazado 113670" d="M128.168,429.8a2.346,2.346,0,1,1-2.346-2.346,2.346,2.346,0,0,1,2.346,2.346" transform="translate(-98.813 -342.077)" fill="#fff"/>
            <path id="Trazado_113671" data-name="Trazado 113671" d="M179.843,429.8a2.346,2.346,0,1,1-2.346-2.346,2.346,2.346,0,0,1,2.346,2.346" transform="translate(-140.167 -342.077)" fill="#fff"/>
            <path id="Trazado_113672" data-name="Trazado 113672" d="M231.518,429.8a2.346,2.346,0,1,1-2.346-2.346,2.346,2.346,0,0,1,2.346,2.346" transform="translate(-181.521 -342.077)" fill="#fff"/>
            <path id="Trazado_113673" data-name="Trazado 113673" d="M283.193,429.8a2.346,2.346,0,1,1-2.346-2.346,2.346,2.346,0,0,1,2.346,2.346" transform="translate(-222.875 -342.077)" fill="#fff"/>
            <path id="Trazado_113674" data-name="Trazado 113674" d="M334.868,429.8a2.346,2.346,0,1,1-2.346-2.346,2.346,2.346,0,0,1,2.346,2.346" transform="translate(-264.228 -342.077)" fill="#fff"/>
            <path id="Trazado_113675" data-name="Trazado 113675" d="M128.168,479.126a2.346,2.346,0,1,1-2.346-2.345,2.346,2.346,0,0,1,2.346,2.345" transform="translate(-98.813 -381.551)" fill="#fff"/>
            <path id="Trazado_113676" data-name="Trazado 113676" d="M179.843,479.126a2.346,2.346,0,1,1-2.346-2.345,2.346,2.346,0,0,1,2.346,2.345" transform="translate(-140.167 -381.551)" fill="#fff"/>
            <path id="Trazado_113677" data-name="Trazado 113677" d="M231.518,479.126a2.346,2.346,0,1,1-2.346-2.345,2.346,2.346,0,0,1,2.346,2.345" transform="translate(-181.521 -381.551)" fill="#fff"/>
            <path id="Trazado_113678" data-name="Trazado 113678" d="M283.193,479.126a2.346,2.346,0,1,1-2.346-2.345,2.346,2.346,0,0,1,2.346,2.345" transform="translate(-222.875 -381.551)" fill="#fff"/>
            <path id="Trazado_113679" data-name="Trazado 113679" d="M334.868,479.126a2.346,2.346,0,1,1-2.346-2.345,2.346,2.346,0,0,1,2.346,2.345" transform="translate(-264.228 -381.551)" fill="#fff"/>
            <path id="Trazado_113680" data-name="Trazado 113680" d="M128.168,528.453a2.346,2.346,0,1,1-2.346-2.346,2.346,2.346,0,0,1,2.346,2.346" transform="translate(-98.813 -421.025)" fill="#fff"/>
            <path id="Trazado_113681" data-name="Trazado 113681" d="M179.843,528.453a2.346,2.346,0,1,1-2.346-2.346,2.346,2.346,0,0,1,2.346,2.346" transform="translate(-140.167 -421.025)" fill="#fff"/>
            <path id="Trazado_113682" data-name="Trazado 113682" d="M231.518,528.453a2.346,2.346,0,1,1-2.346-2.346,2.346,2.346,0,0,1,2.346,2.346" transform="translate(-181.521 -421.025)" fill="#fff"/>
            <path id="Trazado_113683" data-name="Trazado 113683" d="M283.193,528.453a2.346,2.346,0,1,1-2.346-2.346,2.346,2.346,0,0,1,2.346,2.346" transform="translate(-222.875 -421.025)" fill="#fff"/>
            <path id="Trazado_113684" data-name="Trazado 113684" d="M334.868,528.453a2.346,2.346,0,1,1-2.346-2.346,2.346,2.346,0,0,1,2.346,2.346" transform="translate(-264.228 -421.025)" fill="#fff"/>
            <path id="Trazado_113685" data-name="Trazado 113685" d="M128.168,577.779a2.346,2.346,0,1,1-2.346-2.346,2.346,2.346,0,0,1,2.346,2.346" transform="translate(-98.813 -460.499)" fill="#fff"/>
            <path id="Trazado_113686" data-name="Trazado 113686" d="M179.843,577.779a2.346,2.346,0,1,1-2.346-2.346,2.346,2.346,0,0,1,2.346,2.346" transform="translate(-140.167 -460.499)" fill="#fff"/>
            <path id="Trazado_113687" data-name="Trazado 113687" d="M231.518,577.779a2.346,2.346,0,1,1-2.346-2.346,2.346,2.346,0,0,1,2.346,2.346" transform="translate(-181.521 -460.499)" fill="#fff"/>
            <path id="Trazado_113688" data-name="Trazado 113688" d="M283.193,577.779a2.346,2.346,0,1,1-2.346-2.346,2.346,2.346,0,0,1,2.346,2.346" transform="translate(-222.875 -460.499)" fill="#fff"/>
            <path id="Trazado_113689" data-name="Trazado 113689" d="M334.868,577.779a2.346,2.346,0,1,1-2.346-2.346,2.346,2.346,0,0,1,2.346,2.346" transform="translate(-264.228 -460.499)" fill="#fff"/>
            <rect id="Rectángulo_33843" data-name="Rectángulo 33843" width="41.208" height="9.639" transform="translate(172.819 38.56)" fill="#f9e8dc"/>
            <rect id="Rectángulo_33844" data-name="Rectángulo 33844" width="41.634" height="17.708" transform="translate(19.336 13.091)" fill="#f9e8dc"/>
            <path id="Trazado_113690" data-name="Trazado 113690" d="M177.225,0H204.6a4.711,4.711,0,0,1,4.711,4.711V14.1a4.711,4.711,0,0,1-4.711,4.711H177.225a4.711,4.711,0,0,1-4.711-4.711V4.713A4.711,4.711,0,0,1,177.225,0" transform="translate(-138.057 -0.002)" fill="#eb9ba8"/>
            <path id="Trazado_113691" data-name="Trazado 113691" d="M210.249,37.923a2.288,2.288,0,1,1-2.288-2.288,2.288,2.288,0,0,1,2.288,2.288" transform="translate(-164.593 -28.518)" fill="#fff"/>
            <path id="Trazado_113692" data-name="Trazado 113692" d="M257.741,37.923a2.288,2.288,0,1,1-2.288-2.288,2.288,2.288,0,0,1,2.288,2.288" transform="translate(-202.599 -28.518)" fill="#fff"/>
            <path id="Trazado_113693" data-name="Trazado 113693" d="M305.233,37.923a2.288,2.288,0,1,1-2.288-2.288,2.288,2.288,0,0,1,2.288,2.288" transform="translate(-240.605 -28.518)" fill="#fff"/>
          </g>
        </g>
        <g id="Grupo_951799" data-name="Grupo 951799" transform="translate(37.145 37.088)" opacity="0.251">
          <g id="Grupo_80323" data-name="Grupo 80323" transform="translate(0 0)" clip-path="url(#clip-path-3)">
            <path id="Trazado_113615" data-name="Trazado 113615" d="M192.731,242.833c-2.849-.216-5.756-.34-8.733-.318-15.752.117-31.159,4.355-47.009,4.192-33.582-.347-68.144-3.827-97.168-25.336C-24.481,173.718-3.4,71.642,49.9,29.735,78.226,7.468,113.506.659,147.307.029c43.512-.811,99.323,12.952,130.5,49.582,21.72,25.521,27.121,84.98,22.044,118.672-4.041,26.818-19.21,52.107-38.371,66.828-23.9,18.358-44.157,9.588-68.747,7.722" transform="translate(0 0.004)" fill="#f1c6bd"/>
          </g>
        </g>
      </g>
      <g id="Enmascarar_grupo_95" data-name="Enmascarar grupo 95" transform="translate(69.51)" clip-path="url(#clip-path-4)">
        <g id="Grupo_951832" data-name="Grupo 951832" transform="translate(0 3.916)">
          <g id="Grupo_951831" data-name="Grupo 951831" clip-path="url(#clip-path-5)">
            <path id="Trazado_696624" data-name="Trazado 696624" d="M339.523,319.546s24.746,9.129,28.254,38.944l18.989,85.154c-11.912,6.474-33.014-14.984-38-27.59-9.939-25.116-21.644-65.778-9.239-96.508" transform="translate(-190.801 -182.453)" fill="#d67913"/>
            <path id="Trazado_696625" data-name="Trazado 696625" d="M77.659,319.546s-24.746,9.129-28.254,38.944L30.417,443.644c11.912,6.474,33.014-14.984,38-27.59,9.939-25.116,21.644-65.778,9.239-96.508" transform="translate(-17.367 -182.453)" fill="#d67913"/>
            <path id="Trazado_696626" data-name="Trazado 696626" d="M156.567,477.791c23.86,0,45.737-2.783,62.806-7.413q-7.067-83.266-18.413-166.089a92.838,92.838,0,0,0-82.125-2.8l-6.193,2.8-2.431,18.729c-8.22,46.924-14.5,98.678-18.818,146.7,17.39,5.026,40.2,8.076,65.174,8.076" transform="translate(-52.183 -167.442)" fill="#f9a21b"/>
            <path id="Trazado_696628" data-name="Trazado 696628" d="M235.8,290.639c0,5.121-11.554,9.272-25.808,9.272s-25.807-4.151-25.807-9.272,11.554-9.272,25.807-9.272,25.808,4.151,25.808,9.272" transform="translate(-105.163 -160.654)" fill="#ffca7b"/>
            <path id="Trazado_696629" data-name="Trazado 696629" d="M231.619,212.854q-11.974.652-24.32.523a189.3,189.3,0,0,1-4.555,34.823q-.2.839-.414,1.658a78.279,78.279,0,0,0,37.144.154c-2.208-9.949-4.3-22.068-6.249-37.093-.534-.018-1.07-.041-1.606-.065" transform="translate(-115.526 -121.535)" fill="#fcba89"/>
            <path id="Trazado_696630" data-name="Trazado 696630" d="M235.285,212.854q-11.974.652-24.32.523a223.838,223.838,0,0,1-2.215,22.768c9.446,1.06,19.53.027,27.855-3.67a23.4,23.4,0,0,0,2.91-1.545c-.894-5.466-1.774-11.445-2.626-18.011-.534-.018-1.07-.041-1.606-.065" transform="translate(-119.192 -121.535)" fill="#f2ae7a"/>
            <path id="Trazado_696631" data-name="Trazado 696631" d="M149.806,163.208c-.087-.127-.175-.252-.257-.382-1.015-1.606-9.119-13.911-16.166-8.794-6.391,4.641-4.825,17.029,6.719,20.365a8.325,8.325,0,0,0,10.669-7.506,5.937,5.937,0,0,0-.965-3.684" transform="translate(-74.03 -87.242)" fill="#fcba89"/>
            <path id="Trazado_696632" data-name="Trazado 696632" d="M150.758,184.322a3,3,0,0,0,2.814-4.271c-1.652-3.527-4.95-8.166-10.063-4.951-6.181,3.885,1.22,9.045,7.249,9.222" transform="translate(-80.61 -99.36)" fill="#f2ae7a"/>
            <path id="Trazado_696633" data-name="Trazado 696633" d="M143.712,178.585l1.312-.509a6.718,6.718,0,0,1,9.115,5.488c.024.219.028.347.028.347a11.409,11.409,0,0,0-1.234-1.712c-2.326-1.57-5.644.579-5.644.579.517-2.214,1.705-2.83,2.642-2.948a11.586,11.586,0,0,0-6.218-1.245" transform="translate(-82.056 -101.414)" fill="#12263f"/>
            <path id="Trazado_696634" data-name="Trazado 696634" d="M321.4,158.706c.082-.13.166-.258.244-.391.956-1.641,8.615-14.229,15.84-9.367,6.552,4.41,5.431,16.845-5.986,20.593a8.326,8.326,0,0,1-10.931-7.12,5.939,5.939,0,0,1,.833-3.716" transform="translate(-183.021 -84.412)" fill="#fcba89"/>
            <path id="Trazado_696635" data-name="Trazado 696635" d="M332.125,179.761a3,3,0,0,1-2.965-4.168c1.524-3.584,4.654-8.338,9.879-5.308,6.316,3.662-.9,9.083-6.914,9.476" transform="translate(-187.803 -96.678)" fill="#f2ae7a"/>
            <path id="Trazado_696636" data-name="Trazado 696636" d="M341.879,173.683l-1.329-.462a6.718,6.718,0,0,0-8.912,5.81c-.017.22-.015.348-.015.348a11.437,11.437,0,0,1,1.172-1.755c2.268-1.652,5.661.376,5.661.376-.6-2.194-1.806-2.767-2.746-2.851a11.585,11.585,0,0,1,6.169-1.466" transform="translate(-189.348 -98.69)" fill="#12263f"/>
            <path id="Trazado_696637" data-name="Trazado 696637" d="M236.066,93.639c.557,7.722,1.375,35.8-15.069,45.31-19.141,11.072-46.978,4.18-50.953-12.822-1.763-7.543-4-19.561-3.828-30.244,1.669-28.63,28.535-36.707,41.377-35.269,21.076,2.36,31.25,20.221,28.473,33.025" transform="translate(-94.9 -34.519)" fill="#fcba89"/>
            <path id="Trazado_696638" data-name="Trazado 696638" d="M180,81.078c-2.665-6.2-10.892-4.321-15.347-1.442a20.049,20.049,0,0,0-2.847,2.241c-.014,10.865-.721,21.788.9,32.465a11.426,11.426,0,0,1,.311,1.621.925.925,0,0,0,.392.667l.657,2.684a.911.911,0,0,0,1.743,0,59.376,59.376,0,0,0,2.443-12.512c.083-1,.042-2.028.171-3.019a3.819,3.819,0,0,1,2-3.323,26.1,26.1,0,0,0,3.833-2.932c4-3.8,8.177-10.793,5.745-16.451" transform="translate(-92.295 -43.937)" fill="#06060d"/>
            <path id="Trazado_696639" data-name="Trazado 696639" d="M294.92,81.078c2.665-6.2,10.892-4.321,15.347-1.442a20.048,20.048,0,0,1,2.847,2.241c.014,10.865.721,21.788-.9,32.465a11.422,11.422,0,0,0-.311,1.621.925.925,0,0,1-.392.667q-.329,1.342-.657,2.684a.911.911,0,0,1-1.743,0A59.374,59.374,0,0,1,306.67,106.8c-.083-1-.042-2.028-.171-3.019a3.82,3.82,0,0,0-2-3.323,26.093,26.093,0,0,1-3.833-2.932c-4-3.8-8.177-10.793-5.745-16.451" transform="translate(-167.981 -43.937)" fill="#06060d"/>
            <path id="Trazado_696640" data-name="Trazado 696640" d="M298.162,200.78a16.56,16.56,0,0,0-18.382,20.879,38.256,38.256,0,0,0,5.709-2.692c6.685-3.866,10.517-10.8,12.673-18.188" transform="translate(-159.392 -114.538)" fill="#f2ae7a"/>
            <path id="Trazado_696641" data-name="Trazado 696641" d="M174.013,207.765c-.05,0-.1.008-.149.011.187.859.372,1.678.553,2.449,1.786,7.644,8.4,13.242,16.872,16.085a16.553,16.553,0,0,0-17.276-18.545" transform="translate(-99.272 -118.616)" fill="#f2ae7a"/>
            <path id="Trazado_696642" data-name="Trazado 696642" d="M246.1,166.19l-1.986-.063.358-11.291a1.363,1.363,0,0,0-2.723-.086l-.4,12.6a1.265,1.265,0,0,0,1.14,1.338,1.388,1.388,0,0,0,.573.136l2.951.094a1.363,1.363,0,0,0,.086-2.723" transform="translate(-137.805 -87.631)" fill="#12263f"/>
            <path id="Trazado_696643" data-name="Trazado 696643" d="M282.823,109.366c-4.06-3.062-10.634-5.022-14.509-.513-2.813,3.273-1.744,8.475,2.337,9.674,4.007,2.239,9.491,3.21,13.628,1.522a5,5,0,0,0,3.273-4.241c.088-2.7-2.8-4.99-4.729-6.442" transform="translate(-152.303 -60.636)" fill="#1b1a2e"/>
            <path id="Trazado_696644" data-name="Trazado 696644" d="M190.738,112.976a5.007,5.007,0,0,0,3,4.441c4.022,1.946,9.556,1.325,13.7-.656,4.148-.937,5.545-6.061,2.945-9.507-3.581-4.745-10.267-3.206-14.513-.408-2.013,1.327-5.045,3.433-5.128,6.129" transform="translate(-108.906 -59.499)" fill="#1b1a2e"/>
            <path id="Trazado_696645" data-name="Trazado 696645" d="M207.047,152.7a7.351,7.351,0,0,0-13.079.712c-.7,1.58,1.632,2.961,2.341,1.368,1.617-3.63,6.227-4.238,8.4-.712.913,1.484,3.258.124,2.341-1.368" transform="translate(-110.677 -85.097)" fill="#12263f"/>
            <path id="Trazado_696646" data-name="Trazado 696646" d="M270.4,152.7a7.351,7.351,0,0,1,13.079.712c.7,1.58-1.632,2.961-2.341,1.368-1.617-3.63-6.227-4.238-8.4-.712-.913,1.484-3.258.124-2.341-1.368" transform="translate(-154.271 -85.097)" fill="#12263f"/>
            <path id="Trazado_696647" data-name="Trazado 696647" d="M221.22,30.664c5.063-3.9,4.342-11.015-1.761-13.855a7.946,7.946,0,0,0-3.234-9.872,8.874,8.874,0,0,0-9.378.461C205.589,3.414,201.271.516,196.364.812c-2.1.127-4.915.84-6.262,2.361a2.594,2.594,0,0,0-.257.35A15.354,15.354,0,0,0,178.537.077a14.327,14.327,0,0,0-10.7,6.38,13.158,13.158,0,0,0-9.626-3.2c-3.075.356-5.829,2.125-6.806,4.666a4.479,4.479,0,0,0-4.323,1.467,3.991,3.991,0,0,0-.467.669c-3.642-1.918-8.886-3.5-12.1-.157-2.907,3.02-.569,7.092,1.751,9.946-3.555.3-6.816,2.439-7.891,5.455-1.164,3.266.687,6.93,3.958,8.73a22.434,22.434,0,0,0,2.811.982c1.605.635,1.247,1.749,1.484,3.012a6.378,6.378,0,0,0,2.761,4,8.067,8.067,0,0,0,9.655-.753,7.956,7.956,0,0,0,7.8,2.481,7.152,7.152,0,0,0,2.276-.923c.4-.248.952-.868,1.383-.948a2.59,2.59,0,0,1,2.227.983,7.2,7.2,0,0,0,4.983,1.775,13.793,13.793,0,0,0,6.214-1.808c1.339-.692,2.79-1.927,4.406-1.23,1.122.484,2.01,1.321,3.15,1.81,2.674,1.146,6.8.719,7.638-1.9,1.867,1.287,3.968,2.485,6.413,2.438a5.666,5.666,0,0,0,4.55-2.091c1.421,1.227,3.182,2.369,5.27,2.116a3.844,3.844,0,0,0,3.127-2.032c1.539,1.018,3.4,1.877,5.306,1.2a2.955,2.955,0,0,0,2.188-2.679c2.8.253,5.673-.965,6.874-3.261a5.3,5.3,0,0,0-1.622-6.554" transform="translate(-73.094 0)" fill="#1b1a2e"/>
            <path id="Trazado_696648" data-name="Trazado 696648" d="M34.492,468.087A69.177,69.177,0,0,1,25.3,466.3c-2.893-.81-7.369-2.121-11.561-3.524-4.6-1.54-9.644,1.95-10.6,7.528-2.38,13.928-5.344,36.98-.671,45.951,8.285,15.9,25.267,14.41,34.17-4.447,3.855-8.165,7.241-22.32,6.849-32.337-.231-5.9-4.125-10.765-9-11.383" transform="translate(0 -264.025)" fill="#f9a21b"/>
            <path id="Trazado_696649" data-name="Trazado 696649" d="M48.781,426.451l1.15,17.493s-13.015,16.528-25.963,1.549l5.91-21.825Z" transform="translate(-13.685 -241.904)" fill="#fcba89"/>
            <path id="Trazado_696650" data-name="Trazado 696650" d="M12.711,465.059c-.228-1.253.784-2.549.927-3.787a35.764,35.764,0,0,0-.144-4.424c-.017-2.377,1.254-6.472,3.58-7.519.024-.011,2.985-.54,3.009-.549-.439,2.454-2.014,5.5-1.124,6.894,4.535,7.12,16.87,8.427,21.087,1.564a1.875,1.875,0,0,0,.728-1.5,9.8,9.8,0,0,0,.542-2.418c.021,0,.043,0,.064.007,1.817-1.181,5.257,4.354,4.718,6.159-.413,1.383-1.526,2.135-1.051,3.7a8.385,8.385,0,0,1,.617,3.05,7.328,7.328,0,0,1-3.065,5.154c-4.4,3.235-11.079,1.648-15.673.747a41.7,41.7,0,0,1-8.383-2.406c-1.762-.755-5.415-2.362-5.833-4.666" transform="translate(-7.239 -256.243)" fill="#ffca7b"/>
            <path id="Trazado_696651" data-name="Trazado 696651" d="M64.027,333.716c-1.7-3.979-5.959-10.705-11.2-9.351a4.042,4.042,0,0,0-2.859,5.322c.39,1.37,1.064,2.656,1.472,4.026a25.967,25.967,0,0,1,.975,5,26.4,26.4,0,0,1-1.094,10.376c-1.04,3.293-3.085,6.282-2.419,9.869a1.036,1.036,0,0,0,1.892.293,1.129,1.129,0,0,0,.284-.056c2.972-1.012,5.487-2.961,8.06-4.706,2.221-1.506,4.784-2.939,6.139-5.353,2.579-4.594.67-10.926-1.247-15.424" transform="translate(-27.845 -185.104)" fill="#f2ae7a"/>
            <path id="Trazado_696652" data-name="Trazado 696652" d="M106.7,380.4a3.085,3.085,0,0,0-1.635-2.709,6.162,6.162,0,0,0,2.681-2.83c1.626-3.889-2.536-6.369-5.854-6.936a6.081,6.081,0,0,0-2.028-5.02c-2.536-2.37-6.357-2.418-9.62-2.5a99.945,99.945,0,0,0-23.1,2.137c-7.425,1.574-15.409,3.728-21.821,7.921a21.243,21.243,0,0,0-3.4,2.765c-3.738,5.727-5.776,13.142-3.044,19.6,2.668,6.306,9.087,9.765,15.418,11.394a1.463,1.463,0,0,1,.365.151,48.047,48.047,0,0,0,17-1.83c4-1.106,7.961-2.4,11.877-3.781,3.729-1.311,7.727-2.589,11.121-4.656,2.465-1.5,4.99-4.152,4.062-7.288l-.007-.019a29.632,29.632,0,0,0,4.838-2.247c1.547-.914,3.161-2.183,3.137-4.155" transform="translate(-21.484 -205.769)" fill="#fcba89"/>
            <path id="Trazado_696653" data-name="Trazado 696653" d="M112.962,382.272q17.121-2.662,34.391-4.157a10.657,10.657,0,0,0-3.018-1.006,5.939,5.939,0,0,0,.019-.647q-15.837,1.461-31.561,3.9c-1.215.189-1.054,2.1.169,1.91" transform="translate(-63.926 -214.951)" fill="#d9905b"/>
            <path id="Trazado_696654" data-name="Trazado 696654" d="M124.237,406.246q14.672-4.994,29.623-9.089l-.006,0a6.256,6.256,0,0,0,2.614-2.689q-16.527,4.417-32.728,9.93c-1.164.4-.674,2.251.5,1.852" transform="translate(-70.273 -225.23)" fill="#d9905b"/>
            <path id="Trazado_696655" data-name="Trazado 696655" d="M148.98,417.209c0-.006,0-.012-.007-.019a29.6,29.6,0,0,0,4.838-2.247,9.809,9.809,0,0,0,1.833-1.344q-14.953,6.4-29.475,13.733c-1.1.554-.354,2.323.75,1.765q11-5.558,22.251-10.576a4.657,4.657,0,0,0-.19-1.312" transform="translate(-71.732 -236.155)" fill="#d9905b"/>
            <path id="Trazado_696656" data-name="Trazado 696656" d="M92.012,407.582a6.365,6.365,0,0,0-.328-5.723c-1.224-2.083-5-3.829-4.2-6.584.616-2.1.965-3.5-.013-5.622-.824-1.79-5.213-6.455-1.772-7.735,1.737-.647.457-3.225-1.263-2.584a4.677,4.677,0,0,0-2.845,4.984c.313,2.976,3.146,4.784,3.649,7.609.26,1.465-.789,2.587-.843,4.013a5.515,5.515,0,0,0,.982,3.123c1.641,2.583,5.374,3.993,3.9,7.619-.7,1.714,2.037,2.612,2.732.9" transform="translate(-46.57 -216.532)" fill="#d9905b"/>
            <path id="Trazado_696657" data-name="Trazado 696657" d="M394.772,468.087a69.18,69.18,0,0,0,9.192-1.787c2.893-.81,7.369-2.121,11.561-3.524,4.6-1.54,9.644,1.95,10.6,7.528,2.38,13.928,5.344,36.98.671,45.951-8.285,15.9-25.267,14.41-34.17-4.447-3.855-8.165-7.242-22.32-6.849-32.337.231-5.9,4.125-10.765,9-11.383" transform="translate(-220.25 -264.025)" fill="#f9a21b"/>
            <path id="Trazado_696658" data-name="Trazado 696658" d="M403.851,426.451l-1.15,17.493s13.015,16.528,25.963,1.549l-5.91-21.825Z" transform="translate(-229.933 -241.904)" fill="#fcba89"/>
            <path id="Trazado_696659" data-name="Trazado 696659" d="M429.92,465.059c.227-1.253-.785-2.549-.927-3.787a35.768,35.768,0,0,1,.143-4.424c.018-2.377-1.254-6.472-3.58-7.519-.024-.011-2.985-.54-3.009-.549.439,2.454,2.014,5.5,1.124,6.894-4.536,7.12-16.87,8.427-21.087,1.564a1.873,1.873,0,0,1-.728-1.5,9.787,9.787,0,0,1-.542-2.418c-.021,0-.043,0-.064.007-1.817-1.181-5.257,4.354-4.718,6.159.413,1.383,1.526,2.135,1.051,3.7a8.386,8.386,0,0,0-.617,3.05,7.329,7.329,0,0,0,3.065,5.154c4.4,3.235,11.079,1.648,15.673.747a41.687,41.687,0,0,0,8.383-2.406c1.763-.755,5.416-2.362,5.834-4.666" transform="translate(-226.378 -256.243)" fill="#ffca7b"/>
            <path id="Trazado_696660" data-name="Trazado 696660" d="M398.28,349.14c1.355,2.414,3.918,3.847,6.139,5.353,2.573,1.745,5.088,3.694,8.06,4.706a1.13,1.13,0,0,0,.284.056,1.036,1.036,0,0,0,1.892-.293c.665-3.587-1.379-6.576-2.419-9.869a26.4,26.4,0,0,1-1.094-10.376,25.969,25.969,0,0,1,.975-5c.408-1.371,1.082-2.657,1.472-4.026a4.042,4.042,0,0,0-2.859-5.322c-5.245-1.355-9.508,5.372-11.2,9.351-1.917,4.5-3.826,10.829-1.247,15.424" transform="translate(-226.694 -185.104)" fill="#f2ae7a"/>
            <path id="Trazado_696661" data-name="Trazado 696661" d="M286.68,380.4a3.085,3.085,0,0,1,1.635-2.709,6.164,6.164,0,0,1-2.681-2.83c-1.626-3.889,2.536-6.369,5.854-6.936a6.081,6.081,0,0,1,2.028-5.02c2.535-2.37,6.357-2.418,9.62-2.5a99.943,99.943,0,0,1,23.1,2.137c7.425,1.574,15.409,3.728,21.821,7.921a21.245,21.245,0,0,1,3.4,2.765c3.738,5.727,5.776,13.142,3.044,19.6-2.668,6.306-9.087,9.765-15.418,11.394a1.465,1.465,0,0,0-.365.151,48.047,48.047,0,0,1-17-1.83c-4-1.106-7.961-2.4-11.877-3.781-3.729-1.311-7.727-2.589-11.121-4.656-2.465-1.5-4.99-4.152-4.062-7.288,0-.007,0-.013.007-.019a29.631,29.631,0,0,1-4.838-2.247c-1.547-.914-3.161-2.183-3.137-4.155" transform="translate(-162.882 -205.769)" fill="#fcba89"/>
            <path id="Trazado_696662" data-name="Trazado 696662" d="M327.12,382.272q-17.122-2.662-34.391-4.157a10.66,10.66,0,0,1,3.019-1.006,5.834,5.834,0,0,1-.02-.647q15.837,1.461,31.561,3.9c1.215.189,1.054,2.1-.169,1.91" transform="translate(-167.141 -214.951)" fill="#d9905b"/>
            <path id="Trazado_696663" data-name="Trazado 696663" d="M318.506,406.246q-14.672-4.994-29.623-9.089l.006,0a6.256,6.256,0,0,1-2.614-2.689q16.527,4.417,32.728,9.93c1.164.4.674,2.251-.5,1.852" transform="translate(-163.456 -225.23)" fill="#d9905b"/>
            <path id="Trazado_696664" data-name="Trazado 696664" d="M298.259,417.209c0-.006,0-.012.007-.019a29.582,29.582,0,0,1-4.838-2.247A9.808,9.808,0,0,1,291.6,413.6q14.953,6.4,29.475,13.733c1.1.554.354,2.323-.75,1.765q-11-5.558-22.251-10.576a4.655,4.655,0,0,1,.19-1.312" transform="translate(-166.494 -236.155)" fill="#d9905b"/>
            <path id="Trazado_696665" data-name="Trazado 696665" d="M380.569,407.582a6.365,6.365,0,0,1,.328-5.723c1.224-2.083,5.005-3.829,4.2-6.584-.615-2.1-.965-3.5.013-5.622.824-1.79,5.213-6.455,1.772-7.735-1.737-.647-.457-3.225,1.263-2.584a4.677,4.677,0,0,1,2.845,4.984c-.313,2.976-3.146,4.784-3.649,7.609-.26,1.465.789,2.587.843,4.013a5.515,5.515,0,0,1-.982,3.123c-1.641,2.583-5.374,3.993-3.9,7.619.7,1.714-2.037,2.612-2.732.9" transform="translate(-216.997 -216.532)" fill="#d9905b"/>
            <path id="Trazado_696667" data-name="Trazado 696667" d="M244.53,204.874a10.114,10.114,0,0,1-14.369,1.7c-1.281-1.025-3.114.785-1.82,1.82a12.746,12.746,0,0,0,18.412-2.226c1.011-1.31-1.224-2.593-2.223-1.3" transform="translate(-130.125 -116.671)" fill="#12263f"/>
          </g>
        </g>
      </g>
    </g>
  </g>
</svg>
