<svg xmlns="http://www.w3.org/2000/svg" width="516" height="171" viewBox="0 0 516 171">
  <g id="Grupo_990685" data-name="Grupo 990685" transform="translate(-864.988 -2259)">
    <rect id="Rectángulo_344928" data-name="Rectángulo 344928" width="516" height="171" rx="10" transform="translate(864.988 2259)" fill="#fff8f9"/>
    <g id="Grupo_990281" data-name="Grupo 990281" transform="translate(-7.846 -33.83)">
      <g id="Grupo_990279" data-name="Grupo 990279" transform="translate(0.08 -309.091)">
        <path id="Trazado_698651" data-name="Trazado 698651" d="M333.191,371.019s1.622-18.245.811-23.11-.406-7.3-2.028-20.677-2.838-24.326-2.028-25.948,8.515-6.081,8.515-6.081.811-2.838,3.243-3.649l10.947-3.649.811,1.622s.406-2.838,1.622-3.649,9.325-3.649,9.325-3.649,2.838.406,3.244,4.055c0,0,.811-4.055,3.243-4.055s7.7-.406,8.514.811S379,299.662,379,299.662s5.271.811,5.271,2.433,6.081,17.433,5.676,21.083-14.6,9.73-21.082,14.6-7.7,4.46-7.7,4.46c-.408,18.355.79,18.4,1.622,28.381Z" transform="translate(747.26 2340.637)" fill="#eebc94"/>
        <path id="Trazado_698652" data-name="Trazado 698652" d="M335.871,306.75l3.01,9.7s0,6.022,3.346,9.032,16.392,1.338,19.069,1.673S372,319.129,372,319.129s8.029.335,9.367,0-4.014-3.012-4.014-3.012-8.364-1-10.706-4.015-1.338-8.362-1.338-8.362l8.7-2.008L372,286.678l-1.58,1.627s2.249,11.086,2.249,12.758-9.367,1.674-9.367,3.011,1.672,8.364,3.345,10.036c0,0-2.341,1.338-4.014,1,0,0-5.353,4.683-8.365,6.021a3.694,3.694,0,0,1-4.683-1.338,24.955,24.955,0,0,1-5.687,1c-2.342,0-6.356-13.717-8.029-14.051" transform="translate(744.491 2338.615)" fill="#cd845f"/>
        <path id="Trazado_698653" data-name="Trazado 698653" d="M345.335,305.973c2.787,8.978,6.731,17.528,9.927,26.357.056.156.57,0,.518-.139-3.2-8.829-7.14-17.38-9.927-26.357-.048-.154-.565-.01-.518.139" transform="translate(740.255 2330.065)" fill="#cd845f"/>
        <path id="Trazado_698654" data-name="Trazado 698654" d="M372.611,295.432c3.111,10.05,5.82,20.221,8.216,30.465.036.154.556.022.518-.139-2.4-10.244-5.1-20.415-8.216-30.466-.049-.157-.565-.013-.518.139" transform="translate(728.04 2334.787)" fill="#cd845f"/>
        <path id="Trazado_698655" data-name="Trazado 698655" d="M402.114,313.949a18.257,18.257,0,0,1,13.839,1.2c.133.071.555-.142.489-.178a18.99,18.99,0,0,0-14.508-1.14c-.349.119-.02.189.18.121" transform="translate(714.975 2326.873)" fill="#cd845f"/>
        <path id="Trazado_698656" data-name="Trazado 698656" d="M429.133,348.675c-4.3,1.256-8.014-1.467-11.373-3.777-.116-.08-.553.13-.489.174,3.586,2.467,7.374,5.076,11.9,3.753.3-.086.263-.239-.04-.15" transform="translate(708.041 2312.55)" fill="#cd845f"/>
        <path id="Trazado_698657" data-name="Trazado 698657" d="M416.009,344.985c.511,3.5,1.44,7.824,4.508,10,.178.127.638-.124.4-.291-3-2.131-3.891-6.422-4.391-9.851-.033-.228-.553-.1-.518.139" transform="translate(708.604 2312.618)" fill="#cd845f"/>
        <path id="Trazado_698658" data-name="Trazado 698658" d="M373.185,354.865c-4.427,3.825-8.259,10.429-5.188,16.192.087.163.587-.01.518-.139-3.03-5.688.7-12.2,5.08-15.986.219-.189-.293-.169-.411-.068" transform="translate(730.6 2308.112)" fill="#cd845f"/>
        <path id="Trazado_698659" data-name="Trazado 698659" d="M407.744,338.582c-.028-.007.025.136.084.16s.2-.071.264-.076a5.014,5.014,0,0,0,.879-.245c.76-.213,1.52-.431,2.273-.669a12.453,12.453,0,0,0,3.388-1.406c.23-.159-.289-.146-.41-.062a15.274,15.274,0,0,1-4.438,1.661,9.372,9.372,0,0,0-2.375.7c-.1.065-.154.156,0,.193l.014,0c.147.036.605-.19.324-.259" transform="translate(712.497 2316.427)" fill="#cd845f"/>
        <path id="Trazado_698660" data-name="Trazado 698660" d="M393.621,325.948s6.365,1.373,8.861-3.245-8.861-4.368-10.983-4.992C391.5,317.711,392.623,324.076,393.621,325.948Z" transform="translate(719.579 2324.717)" fill="none" stroke="#cd845f" stroke-width="1"/>
        <path id="Trazado_698661" data-name="Trazado 698661" d="M350.965,390.24c6.454-.01,12.9-.373,19.345-.624.191-.008.549-.306.2-.293-6.447.251-12.891.614-19.344.625-.194,0-.551.293-.2.293" transform="translate(737.797 2292.646)" fill="#cd845f"/>
        <path id="Trazado_698662" data-name="Trazado 698662" d="M358.5,391.811c3.925-.057,7.672-1.287,11.506-1.975.25-.045.425-.362.068-.3-3.787.68-7.5,1.913-11.375,1.97-.2,0-.548.309-.2.3" transform="translate(734.424 2292.554)" fill="#cd845f"/>
        <path id="Trazado_698663" data-name="Trazado 698663" d="M349.6,347.14a7.943,7.943,0,0,0,3.857-1.277c.3-.179.026-.459-.23-.307a7.336,7.336,0,0,1-3.581,1.2c-.3.008-.4.39-.046.381" transform="translate(738.444 2312.266)" fill="#cd845f"/>
        <path id="Trazado_698664" data-name="Trazado 698664" d="M365.384,340.675a100.844,100.844,0,0,0,10.6-4.157c.326-.145.035-.392-.222-.278a99.536,99.536,0,0,1-10.47,4.108c-.31.1-.229.426.088.327" transform="translate(731.401 2316.432)" fill="#cd845f"/>
        <path id="Trazado_698665" data-name="Trazado 698665" d="M363.566,345.138c2.881-1.215,5.851-2.182,8.322-4.164.274-.22-.15-.352-.335-.2-2.437,1.955-5.368,2.9-8.206,4.1-.329.139-.035.377.22.269" transform="translate(732.252 2314.418)" fill="#cd845f"/>
        <path id="Trazado_698666" data-name="Trazado 698666" d="M427.182,323.334a5.786,5.786,0,0,1-.62-2.685c.006-.076-.506-.019-.518.139a5.787,5.787,0,0,0,.62,2.686c.053.128.56-.039.518-.139" transform="translate(704.113 2323.416)" fill="#cd845f"/>
        <path id="Trazado_698667" data-name="Trazado 698667" d="M423.829,314.78c1.631,2.828.431,6.76.391,9.836,0,.241.519.145.521-.054.041-3.138,1.235-7.1-.435-10-.1-.171-.6,0-.478.214" transform="translate(705.109 2326.156)" fill="#cd845f"/>
        <path id="Trazado_698668" data-name="Trazado 698668" d="M352.81,299.649a49.426,49.426,0,0,1,8.422-4.311c.313-.134-.173-.13-.3-.075a49.988,49.988,0,0,0-8.52,4.365c-.214.145.3.086.4.02" transform="translate(737.107 2334.786)" fill="#cd845f"/>
        <path id="Trazado_698669" data-name="Trazado 698669" d="M378.284,289.733c1.213-1.851,3.623-2.635,5.715-2.955.258-.039.421-.366.064-.311-2.294.351-4.934,1.209-6.266,3.242-.138.211.385.179.486.024" transform="translate(725.726 2338.712)" fill="#cd845f"/>
        <path id="Trazado_698670" data-name="Trazado 698670" d="M411.439,284.895h-.826a.29.29,0,0,0-.284.218c-.012.137.135.184.244.184h.826a.29.29,0,0,0,.284-.218c.012-.137-.135-.184-.243-.184" transform="translate(711.146 2339.413)" fill="#cd845f"/>
      </g>
      <g id="Grupo_990280" data-name="Grupo 990280" transform="translate(-108.235 -265.092)">
        <path id="Trazado_698671" data-name="Trazado 698671" d="M206.824,332.361V303.92s-3.047-18.791-7.618-30.473-3.556-10.665-2.033-15.744,4.571-27.933,4.571-32,4.14-16.423,6.6-30.473,6.094,4.063,6.094,10.157a98.21,98.21,0,0,1-3.047,21.331c-.856,3.137,1.015,20.315,1.015,20.315s5.587-12.188,9.65-14.728,8.126,1.524,8.126,1.524,2.031,14.728,2.031,16.252,5.079,1.524,5.079,1.524,4.571,0,6.6,2.031-1.523,10.665-3.555,10.665h-2.031s-.508,5.079-2.54,7.111a6.325,6.325,0,0,0-1.523,5.079s5.079,12.188,3.555,19.3a24,24,0,0,1-5.587,11.173l2.032,25.394Z" transform="translate(807.181 2381.902)" fill="#eebc94"/>
        <path id="Trazado_698672" data-name="Trazado 698672" d="M268.1,324.558s-4.645,8.065-5.3,9.282c-.925,1.719-.318,2.693,2.841-1.718s2.46-7.564,2.46-7.564" transform="translate(777.392 2321.65)" fill="#cd845f"/>
        <path id="Trazado_698673" data-name="Trazado 698673" d="M256.095,342.658c1.641,4.811,1.809,10.228,1.613,15.258-.221,5.656-1.038,11.613-3.487,16.775-1.2,2.539-2.931,5.013-5.509,6.292-.322.16-.026.322.2.208,4.491-2.23,6.57-7.467,7.75-12.042a56.811,56.811,0,0,0,1.441-18.384,33.442,33.442,0,0,0-1.492-8.248c-.061-.178-.576-.03-.518.139" transform="translate(783.588 2313.644)" fill="#cd845f"/>
        <path id="Trazado_698674" data-name="Trazado 698674" d="M210.5,314.543c5.122,2.375,10.443.52,14.957-2.311,5.341-3.35,9.722-8.075,15.175-11.241.3-.174-.166-.19-.309-.108-4.628,2.687-8.487,6.533-12.818,9.645-4.823,3.465-10.7,6.521-16.585,3.791-.128-.059-.6.139-.42.224" transform="translate(800.656 2332.275)" fill="#cd845f"/>
        <path id="Trazado_698675" data-name="Trazado 698675" d="M214.86,310.388c5.178.8,10.369,1.687,15.118,4.007.151.074.626-.146.412-.25-4.777-2.335-10-3.234-15.213-4.038-.164-.025-.609.236-.318.281" transform="translate(798.729 2328.123)" fill="#cd845f"/>
        <path id="Trazado_698676" data-name="Trazado 698676" d="M218.3,256.193c-1.675.647-3.518,1.156-5.244.391-.182-.081-.646.172-.405.279,1.938.86,3.974.329,5.868-.4.334-.129.035-.365-.219-.267" transform="translate(799.706 2352.277)" fill="#cd845f"/>
        <path id="Trazado_698677" data-name="Trazado 698677" d="M224.759,226.817c-.643.312-1.341.481-1.985.793-.088.043-.134.1-.055.169s.291-.022.365-.057c.643-.313,1.341-.481,1.985-.794.088-.043.134-.1.055-.168s-.291.022-.365.057" transform="translate(795.184 2365.459)" fill="#cd845f"/>
        <path id="Trazado_698678" data-name="Trazado 698678" d="M241.108,275.677c-2.207,4.673-.889,10.731-.01,15.582.045.249.565.116.518-.139-.868-4.792-2.189-10.762-.01-15.377.128-.272-.4-.284-.5-.067" transform="translate(787.472 2343.609)" fill="#cd845f"/>
        <path id="Trazado_698679" data-name="Trazado 698679" d="M226,295.873c-1.306,2.047,1.289,4.365,2.929,5.206,2.225,1.142,4.778.894,6.287-1.223.138-.194-.383-.157-.484-.015-1.643,2.3-4.452,1.84-6.471.3-1.181-.9-2.763-2.713-1.777-4.257.131-.2-.389-.162-.484-.015" transform="translate(793.854 2334.553)" fill="#cd845f"/>
        <path id="Trazado_698680" data-name="Trazado 698680" d="M239.077,303.662c-1.912,1.532-3.787,3.635-3.9,6.2-.01.246.514.156.522-.051.105-2.459,1.872-4.481,3.709-5.952.274-.22-.151-.347-.334-.2" transform="translate(789.585 2331.037)" fill="#cd845f"/>
        <path id="Trazado_698681" data-name="Trazado 698681" d="M260.184,299.584a2.592,2.592,0,0,1-1.034,2.618c-.3.177.162.211.313.123a2.824,2.824,0,0,0,1.24-2.88c-.011-.141-.532-.039-.518.139" transform="translate(778.895 2332.927)" fill="#cd845f"/>
        <path id="Trazado_698682" data-name="Trazado 698682" d="M270.022,304.258c1.931,1.7,2.344,4.116,2.543,6.558.007.082.529-.008.518-.139-.2-2.459-.633-4.888-2.572-6.592-.1-.087-.557.114-.49.172" transform="translate(773.984 2330.828)" fill="#cd845f"/>
        <path id="Trazado_698683" data-name="Trazado 698683" d="M269.079,320.18c-1.334,1.909-2.3,4.1-3.451,6.125-1.176,2.062-2.373,4.114-3.416,6.248-.116.237.4.2.487.026,1.043-2.134,2.24-4.186,3.416-6.248,1.155-2.024,2.116-4.215,3.45-6.125.144-.207-.38-.18-.487-.027" transform="translate(777.486 2323.666)" fill="#cd845f"/>
        <path id="Trazado_698684" data-name="Trazado 698684" d="M252.142,306.461c-.4.268-1.041-.015-1.474-.07-.258-.033-.527.338-.178.382.692.088,1.362.356,2-.07.292-.195-.131-.385-.345-.242" transform="translate(782.803 2329.787)" fill="#cd845f"/>
        <path id="Trazado_698685" data-name="Trazado 698685" d="M251.91,268.374a19.411,19.411,0,0,0-6.428-1.021c-.3,0-.395.385-.044.388a18.654,18.654,0,0,1,6.174.989c.227.081.607-.245.3-.356" transform="translate(785.091 2347.27)" fill="#cd845f"/>
        <path id="Trazado_698686" data-name="Trazado 698686" d="M246.562,302.941a7.078,7.078,0,0,0,6.8.095c.308-.17.03-.452-.231-.309a6.42,6.42,0,0,1-6.169-.087c-.2-.115-.652.155-.4.3" transform="translate(784.521 2331.479)" fill="#cd845f"/>
        <path id="Trazado_698687" data-name="Trazado 698687" d="M221.245,293.677a9.737,9.737,0,0,1-4.76,2.375c-.31.087-.24.366.075.278a10.48,10.48,0,0,0,5.1-2.555c.209-.226-.294-.234-.419-.1" transform="translate(798.046 2335.521)" fill="#cd845f"/>
        <path id="Trazado_698688" data-name="Trazado 698688" d="M207.866,295.5c1.866,1.068,3.935.749,5.877.064.344-.121.027-.255-.195-.177a6.115,6.115,0,0,1-5.264-.119c-.129-.073-.609.123-.418.232" transform="translate(801.837 2334.774)" fill="#cd845f"/>
        <path id="Trazado_698689" data-name="Trazado 698689" d="M212.214,255.493c1.077.239,2.173.117,3.257.287.242.038.532-.3.184-.358-1.042-.163-2.1-.033-3.137-.262-.209-.046-.613.265-.3.333" transform="translate(799.92 2352.732)" fill="#cd845f"/>
        <path id="Trazado_698690" data-name="Trazado 698690" d="M217.261,225.04c2.111,1.014,3.777,1.589,5.963.489.3-.153-.179-.114-.3-.055-1.993,1-3.425.236-5.178-.606-.133-.064-.535.151-.49.172" transform="translate(797.611 2366.301)" fill="#cd845f"/>
        <path id="Trazado_698691" data-name="Trazado 698691" d="M230.21,338.579c1.983,3.477,7.253,7.95,10.689,3.679a.735.735,0,0,0-.51.1c-3.126,3.886-7.99-.986-9.66-3.914-.068-.119-.554.077-.518.139" transform="translate(791.812 2315.451)" fill="#cd845f"/>
      </g>
      <g id="Grupo_990276" data-name="Grupo 990276" transform="translate(263.124 -190.933)">
        <g id="Grupo_990275" data-name="Grupo 990275">
          <path id="Trazado_698746" data-name="Trazado 698746" d="M108.942,98.538s-9.379-22.4-6.253-31.783c0,0,4.69-4.69,6.253-3.648s5.731,7.3,6.773,20.321-3.647,22.926-6.773,15.11" transform="translate(849.205 2438.806)" fill="#cd845f"/>
          <path id="Trazado_698747" data-name="Trazado 698747" d="M90.472,183.543S89.95,166.607,87.345,164s-31.9-20.111-33.867-21.363c-5.731-3.648,2.605-10.42,4.69-41.161.335-4.931,11.462-17.714,13.547-20.84s5.731-4.169,7.815-5.731,2.606,1.563,1.563,3.647,3.648-5.731,5.732-4.169.521,7.294.521,7.294,4.688.522,4.168,4.69-5.21,12.5-7.815,19.8a44.7,44.7,0,0,0-2.6,13.547s0-3.646,5.731-10.941l-.521-5.21,6.773-15.11s3.647,15.11,9.378,21.883,11.984,26.573,11.463,36.994,3.126,35.951,3.126,35.951Z" transform="translate(871.844 2433.781)" fill="#eebc94"/>
          <path id="Trazado_698748" data-name="Trazado 698748" d="M94.744,87.5s-7.59,14.431-11.235,19.759S73.416,133.05,70.332,138.1s-3.084.56,0-3.084,8.69-22.71,11.214-27.2c0,0,5.327-8.691,7.009-12.336s5.928-9.8,6.188-7.983" transform="translate(864.446 2427.962)" fill="#cd845f"/>
          <path id="Trazado_698749" data-name="Trazado 698749" d="M84.227,80.653s-13.674,12.791-16.758,18.4S61.021,122.6,58.5,127.087c0,0,6.167-20.746,7.289-27.476s7.289-9.252,10.653-12.055,8.972-8.691,8.972-8.691Z" transform="translate(868.709 2431.682)" fill="#cd845f"/>
          <path id="Trazado_698750" data-name="Trazado 698750" d="M105.718,134.055s2.243,3.925,1.682,6.448c0,0,12.055-.28,13.177-8.411s-7.009-9.252-7.009-9.252,3.925.28,4.766-1.121a6.028,6.028,0,0,0,.841-2.8s-5.607,2.524-6.448,2.8,3.084-.28,2.242-12.9l-4.486,8.972.621,6.5s-4.827,7.8-5.387,9.766" transform="translate(847.563 2418.266)" fill="#cd845f"/>
          <path id="Trazado_698751" data-name="Trazado 698751" d="M106.408,162.6a10.276,10.276,0,0,1-4.151,8.591c-.221.178.293.154.41.061a10.506,10.506,0,0,0,4.26-8.791c-.007-.14-.528-.041-.518.139" transform="translate(849.137 2394.271)" fill="#cd845f"/>
          <path id="Trazado_698752" data-name="Trazado 698752" d="M110.494,164.705c5.095.039,10.3,1.763,14.858,3.935,4.44,2.116,9.44,5.209,11.335,10,.076.193.589.04.518-.139-1.915-4.838-6.954-7.979-11.444-10.119-4.627-2.2-9.9-3.946-15.071-3.986-.208,0-.546.31-.2.313" transform="translate(845.491 2393.379)" fill="#cd845f"/>
          <path id="Trazado_698753" data-name="Trazado 698753" d="M143.8,221.509c3.008-1.774,6.123-3.261,8.727-5.633.1-.087-.377-.032-.467.05-2.582,2.352-5.673,3.824-8.654,5.582-.21.124.3.053.393,0" transform="translate(830.708 2370.342)" fill="#cd845f"/>
          <path id="Trazado_698754" data-name="Trazado 698754" d="M133.857,228.772c4.332.8,8.647-1.583,12.26-3.681.3-.177.027-.447-.228-.3-3.5,2.033-7.657,4.388-11.851,3.609-.252-.046-.527.307-.181.371" transform="translate(835.034 2366.349)" fill="#cd845f"/>
          <path id="Trazado_698755" data-name="Trazado 698755" d="M70.5,113.137a8.5,8.5,0,0,0-3.611.731c-.216.123.3.067.4.012a7.18,7.18,0,0,1,2.989-.538c.134-.013.563-.238.225-.2" transform="translate(864.976 2416.334)" fill="#cd845f"/>
          <path id="Trazado_698756" data-name="Trazado 698756" d="M72.693,109.782a1.6,1.6,0,0,0-1,.364.138.138,0,0,0,.063.236.381.381,0,0,0,.367-.1.91.91,0,0,1,.521-.144c.108,0,.274-.081.288-.2s-.14-.158-.236-.156" transform="translate(862.822 2417.836)" fill="#cd845f"/>
          <path id="Trazado_698757" data-name="Trazado 698757" d="M73.2,125.079c2.33.075,4.44,1.079,6.668,1.642.182.046.612-.225.313-.3-2.268-.573-4.417-1.582-6.786-1.659-.213-.007-.546.307-.2.318" transform="translate(862.195 2411.127)" fill="#cd845f"/>
          <path id="Trazado_698758" data-name="Trazado 698758" d="M95.008,127.487a5.479,5.479,0,0,1,2.336-.341c.2,0,.549-.3.2-.3a6.43,6.43,0,0,0-2.742.421c-.327.151-.029.326.206.218" transform="translate(852.516 2410.192)" fill="#cd845f"/>
          <path id="Trazado_698759" data-name="Trazado 698759" d="M79.172,121.983a15.342,15.342,0,0,0,2.351-.131c.246-.038.431-.337.072-.282a14.616,14.616,0,0,1-2.219.123c-.192,0-.552.289-.2.289" transform="translate(859.517 2412.56)" fill="#cd845f"/>
          <path id="Trazado_698760" data-name="Trazado 698760" d="M109.92,92.964s-3.808,6.727-1.269,5.712,5.839-5.585,5.839-7.615S111.443,89.917,109.92,92.964Z" transform="translate(846.64 2426.71)" fill="none" stroke="#cd845f" stroke-width="1"/>
          <path id="Trazado_698761" data-name="Trazado 698761" d="M103.945,76.584s-5.965,6.6-4.442,7.109,4.569-1.016,6.981-4.951S105.6,74.933,103.945,76.584Z" transform="translate(850.458 2433.189)" fill="none" stroke="#cd845f" stroke-width="1"/>
        </g>
        <path id="Trazado_698762" data-name="Trazado 698762" d="M97.941,75.5s1.379.959.109,1.848-3.681,1.776-4.823,2.665-.507-1.269.381-1.9" transform="translate(853.432 2433.189)" fill="none" stroke="#cd845f" stroke-width="1"/>
      </g>
      <g id="Grupo_990274" data-name="Grupo 990274" transform="translate(35.79 -291.505)">
        <path id="Trazado_698692" data-name="Trazado 698692" d="M74.194,366.519l-2.839-28.383s5.677-3.784,8.042-2.838S99.265,358,96.9,361.315s-22.706,5.2-22.706,5.2" transform="translate(862.952 2316.909)" fill="#eebc94"/>
        <path id="Trazado_698693" data-name="Trazado 698693" d="M77.067,338.084s-2.75,20.732-.634,23.27S89.549,365.8,89.549,365.8s4.653-4.865,5.288-6.135.882-6.262.882-6.262-2.348-7.6-12.714.227c0,0-.437-8.773-1.495-11.524s-.91,4.888.359,10.389c0,0-3.321-13.773-4.8-14.408" transform="translate(861.036 2315.594)" fill="#cd845f"/>
        <path id="Trazado_698694" data-name="Trazado 698694" d="M137.145,360.137s-29.329-2.838-35.006-4.258-33.96-26.34-41.056-29.652-.426-59.508-2.791-70.861S67.28,253,68.7,264.354s-1.091,47.06.8,48.952c0,0,5.873,2.973,7.292,2.973s6.3-3.614,7.719-4.087-.821-5.036-4.132-10.713.473-22.706,4.257-26.017,5.956,1.293,5.956,5.55,1.14,24.251,3.506,29.455,10.773,8.621,17.5,30.748h26.017Z" transform="translate(869.064 2354.984)" fill="#eebc94"/>
        <path id="Trazado_698695" data-name="Trazado 698695" d="M155.313,415.1s.667,5.148,1.975,6.758,7.928-2.444-1.975-6.758" transform="translate(825.352 2281.104)" fill="#cd845f"/>
        <path id="Trazado_698696" data-name="Trazado 698696" d="M113.348,343.634a11.6,11.6,0,0,0-5.335-.6c-2.819.4,3.825.6,5.335.6" transform="translate(846.843 2313.421)" fill="#cd845f"/>
        <path id="Trazado_698697" data-name="Trazado 698697" d="M111.819,301.942a35.7,35.7,0,0,1-.705,7.953c-.8,2.818-6.342-2.819-4.63-8.859S111.92,297.615,111.819,301.942Z" transform="translate(847.366 2333.771)" fill="none" stroke="#cd845f" stroke-width="1"/>
        <path id="Trazado_698698" data-name="Trazado 698698" d="M96.355,362.007s-6.625,7.523-11.7,9.85,9.639-7.6,11.7-9.85" transform="translate(857.471 2304.88)" fill="#cd845f"/>
      </g>
      <g id="Grupo_990278" data-name="Grupo 990278" transform="translate(223.405 -171.86)">
        <path id="Trazado_698699" data-name="Trazado 698699" d="M301.815,165.845s28.757-4.182,31.893-6.274,14.117-13.071,30.848-10.979,0-8.366-6.274-9.412-25.619,7.32-25.619,7.32,6.8-20.391,6.8-24.051,2.092-39.736,2.092-46.533-2.614-10.979-6.274-7.319-3.66,26.142-5.228,32.939a55.682,55.682,0,0,1-4.706,12.548s-3.137-6.8-5.228-7.843-8.366,1.046-8.366,1.046l-3.137,6.274s-5.228-.522-8.366,1.046l-.522,3.137s-1.569-1.045-5.751-.523-4.706,12.548-4.706,12.548-9.412,10.98-7.843,21.959l-6.274,32.416h25.62s-2.092-14.64,1.045-18.3" transform="translate(771.685 2436.887)" fill="#eebc94"/>
        <path id="Trazado_698700" data-name="Trazado 698700" d="M320.592,149.418s-3.529,11.987-3.529,15.4a4.882,4.882,0,0,0,2.654,4.55s-7.583-3.034-9.1-4.172-1.9.38-1.9.38-2.654,2.275-5.688,1.9.379,3.034,6.067,2.275a87.573,87.573,0,0,0,7.963,3.792c3.792,1.517,3.792-1.137,3.792-1.137s5.688,1.137,8.721.759.379-7.205.379-7.205.759-5.308,1.137-6.446,3.034-3.033,3.792-6.067-.758,3.034-4.171,3.413l-2.275,11s-11.132-1.365-10.753-4.019,3.057-12.451,4.076-16.527Z" transform="translate(759.705 2401.031)" fill="#cd845f"/>
        <path id="Trazado_698701" data-name="Trazado 698701" d="M351.384,180.479c6.67.027,14.642,1.57,20.542-2.426.208-.141-.3-.07-.4-.008-5.647,3.825-13.4,2.256-19.809,2.23-.107,0-.585.2-.338.2" transform="translate(737.575 2387.298)" fill="#cd845f"/>
        <path id="Trazado_698702" data-name="Trazado 698702" d="M365.524,189.4a43.144,43.144,0,0,0-15.208-2.344c-.108,0-.586.207-.337.208a42.729,42.729,0,0,1,15.056,2.312.7.7,0,0,0,.489-.175" transform="translate(738.205 2383.228)" fill="#cd845f"/>
        <path id="Trazado_698703" data-name="Trazado 698703" d="M368.134,171.513c-4.528,3.928-11.6,4.222-17.264,4.972-.289.038-.4.433-.044.387,5.807-.769,13.01-1.086,17.654-5.115.265-.23-.146-.417-.346-.244" transform="translate(737.894 2390.221)" fill="#cd845f"/>
        <path id="Trazado_698704" data-name="Trazado 698704" d="M380.778,151.669c-3.4-.052-6.684-1.111-10.088-1.165-.118,0-.59.22-.333.224,3.4.053,6.685,1.112,10.088,1.165.119,0,.59-.22.333-.224" transform="translate(729.082 2399.599)" fill="#cd845f"/>
        <path id="Trazado_698705" data-name="Trazado 698705" d="M384.217,117.1a14.384,14.384,0,0,0-5.947-1.181c-.3,0-.393.389-.043.393a13.775,13.775,0,0,1,5.693,1.147c.224.105.6-.218.3-.359" transform="translate(725.624 2415.086)" fill="#cd845f"/>
        <path id="Trazado_698706" data-name="Trazado 698706" d="M381.986,90.558a1.032,1.032,0,0,1,.819-.259c.093,0,.3-.039.345-.129s-.046-.107-.128-.107a2.072,2.072,0,0,0-1.51.518c-.089.084.077.108.128.107a.544.544,0,0,0,.346-.13" transform="translate(724.063 2426.666)" fill="#cd845f"/>
        <path id="Trazado_698707" data-name="Trazado 698707" d="M355.392,148.477c-.068,4.074-1.886,7.716-2.716,11.639-.051.238.478.168.523-.046.831-3.924,2.649-7.566,2.717-11.64,0-.255-.52-.167-.523.047" transform="translate(736.967 2400.598)" fill="#cd845f"/>
        <path id="Trazado_698708" data-name="Trazado 698708" d="M317.451,159.73c-1.164,4.6-2.66,9.177-2.717,13.968,0,.253.521.164.523-.048.056-4.791,1.553-9.366,2.716-13.968.058-.23-.47-.162-.522.048" transform="translate(753.958 2395.553)" fill="#cd845f"/>
        <path id="Trazado_698709" data-name="Trazado 698709" d="M301.99,182.216a3.241,3.241,0,0,1-1.5-1.489c-.1-.19-.6-.028-.518.139a3.488,3.488,0,0,0,1.607,1.615c.164.084.636-.149.409-.265" transform="translate(760.572 2386.103)" fill="#cd845f"/>
        <path id="Trazado_698710" data-name="Trazado 698710" d="M324.06,191.324c-4.275,2.211-6.9,6.693-8.678,11a46.116,46.116,0,0,0-3.452,15.1c-.009.182.507.072.515-.076a46.443,46.443,0,0,1,3.054-14.1c1.743-4.546,4.377-9.476,8.872-11.8.308-.159-.162-.2-.312-.118" transform="translate(755.213 2381.336)" fill="#cd845f"/>
        <path id="Trazado_698711" data-name="Trazado 698711" d="M323.726,178.207a21.838,21.838,0,0,0-5.043-.135c-.246.035-.432.331-.073.28a21.329,21.329,0,0,1,4.913.142c.195.018.551-.257.2-.288" transform="translate(752.312 2387.299)" fill="#cd845f"/>
        <path id="Trazado_698712" data-name="Trazado 698712" d="M341.267,176.39c-3.8.089-7.539-.788-11.338-.83-.3,0-.4.38-.045.384,3.8.041,7.531.92,11.338.83.3-.007.4-.393.045-.384" transform="translate(747.272 2388.378)" fill="#cd845f"/>
        <path id="Trazado_698713" data-name="Trazado 698713" d="M342.452,172.549a81.686,81.686,0,0,0-10.022-.279c-.3,0-.391.4-.04.4a80.6,80.6,0,0,1,9.888.275c.269.033.522-.356.174-.4" transform="translate(746.152 2389.86)" fill="#cd845f"/>
        <path id="Trazado_698714" data-name="Trazado 698714" d="M307.512,176.188h.415a.4.4,0,0,0,.342-.145c.057-.1-.049-.165-.144-.165h-.415a.4.4,0,0,0-.341.145c-.057.1.049.165.144.165" transform="translate(757.263 2388.234)" fill="#cd845f"/>
        <path id="Trazado_698715" data-name="Trazado 698715" d="M414.888,197.473c-2.82.743-5.262,2.459-5.62,5.543-.022.183.5.086.516-.073.334-2.875,2.493-4.537,5.165-5.242.308-.081.249-.31-.061-.229" transform="translate(711.622 2378.572)" fill="#cd845f"/>
        <path id="Trazado_698716" data-name="Trazado 698716" d="M372.79,209.861a22.283,22.283,0,0,1-8.445.016c-.227-.055-.613.278-.3.354a22.881,22.881,0,0,0,8.7.016c.287-.042.4-.437.044-.386" transform="translate(731.926 2373.019)" fill="#cd845f"/>
        <path id="Trazado_698717" data-name="Trazado 698717" d="M365.213,216.526c.194-1.821,2.224-2.9,3.681-3.649,1.422-.726,2.922-1.271,4.372-1.934.311-.142-.169-.151-.3-.089-1.746.8-3.558,1.435-5.228,2.4-1.271.731-2.863,1.761-3.034,3.36-.016.149.5.049.513-.085" transform="translate(731.581 2372.588)" fill="#cd845f"/>
        <path id="Trazado_698718" data-name="Trazado 698718" d="M294.725,235.641c5.153,1.676,10.576,2.15,15.806,3.513.2.052.612-.242.306-.322-5.23-1.363-10.653-1.837-15.806-3.513-.2-.065-.61.224-.306.322" transform="translate(762.966 2361.619)" fill="#cd845f"/>
        <path id="Trazado_698719" data-name="Trazado 698719" d="M288.531,236.211a34.563,34.563,0,0,0,17.237,2.732c.26-.033.424-.353.065-.309a33.893,33.893,0,0,1-16.892-2.685c-.165-.07-.635.167-.41.262" transform="translate(765.719 2361.338)" fill="#cd845f"/>
      </g>
      <g id="Grupo_990277" data-name="Grupo 990277" transform="translate(1055.7 2378.5)">
        <path id="Trazado_698720" data-name="Trazado 698720" d="M261.105,55.261s-11.8,18.046-15.964,22.211S215.99,85.8,205.579,94.824s-47.2-3.47-47.2-8.329c0,0-15.27-6.247-15.964-9.717s6.247-5.553,14.576-1.388c0,0-15.27-5.553-18.046-9.023s4.858-6.941,13.188-2.082c0,0,0-4.165,5.553-4.165s23.6,2.082,28.457,2.776a35.869,35.869,0,0,1,11.106-6.941c6.941-2.776,15.964-11.8,22.211-15.27s22.21,8.329,22.21,8.329l19.087-23.252Z" transform="translate(-138.366 -25.763)" fill="#eebc94"/>
        <path id="Trazado_698721" data-name="Trazado 698721" d="M253.757,82.433s-2.947-.369-4.053-1.475l-.737,2.58s-5.529,2.211-7.371,3.317-9.684,1.149-12.951.759c0,0,8.9,2.559,10.739,2.559s2.211-1.844,4.791-2.58c0,0,5.9-5.16,7.371-3.317Z" transform="translate(-180.867 -50.482)" fill="#cd845f"/>
        <path id="Trazado_698722" data-name="Trazado 698722" d="M220.825,82.195c-3.071-2.286-6.787-3.949-10.649-2.864-3.095.869-5.595,3.145-7.64,5.533-4.756,5.552-7.8,12.314-11.739,18.422-.467.725-.948,1.441-1.452,2.14a5.952,5.952,0,0,0-1.294,2.094c-.5,2.375.709,5.295,2.253,7.04.137.155-.376.115-.479,0a9.691,9.691,0,0,1-2.372-6c-.054-1.8,1.03-2.756,1.99-4.156,2.318-3.379,4.256-7.006,6.338-10.53a61.122,61.122,0,0,1,6.629-9.616c2.156-2.43,4.824-4.67,8.083-5.348,3.912-.814,7.666.929,10.742,3.219.228.17-.289.157-.411.067" transform="translate(-125.657 -49.473)" fill="#cd845f"/>
        <path id="Trazado_698723" data-name="Trazado 698723" d="M318.861,100.192s-2.936.42-3.984,0a137.508,137.508,0,0,0-16.817-5.22s-.17-.861.669-.652,11.534,3.146,14.89,4.824c0,0,3.565,1.468,5.243,1.049" transform="translate(-284.291 -56.45)" fill="#cd845f"/>
        <path id="Trazado_698724" data-name="Trazado 698724" d="M274.5,115.616s3.146,1.678,4.4,1.678a74.392,74.392,0,0,1,9.856,1.887c1.049.419,9.438-1.888,11.116-1.049l-.21-1.049s-8.808.839-9.857,1.468c0,0-6.292-1.468-8.808-1.887s-5.243-.21-6.5-1.049" transform="translate(-252.3 -66.003)" fill="#cd845f"/>
        <path id="Trazado_698725" data-name="Trazado 698725" d="M268.42,130.433a9.129,9.129,0,0,1,6.5.629c3.565,1.677,8.179.839,11.534,1.677s10.486,0,10.486,0l-.42-1.258s-4.614,1.468-7.55.839-7.969-.42-11.745-1.678-6.082-1.678-8.808-.21" transform="translate(-246.013 -72.222)" fill="#cd845f"/>
        <path id="Trazado_698726" data-name="Trazado 698726" d="M278.426,95.2s-1.781,4.532-1.781,5.989-2.751.647-3.723.162,2.1-.324,3.4-2.1,1.295-4.694,2.1-4.047" transform="translate(-229.881 -56.817)" fill="#cd845f"/>
        <path id="Trazado_698727" data-name="Trazado 698727" d="M275.484,114.618a10.778,10.778,0,0,0,.162,3.067c.324.817-.809.17-1.132-.639a1.907,1.907,0,0,1,.97-2.428" transform="translate(-228.073 -65.556)" fill="#cd845f"/>
        <path id="Trazado_698728" data-name="Trazado 698728" d="M268.013,131.33a5.3,5.3,0,0,0,.971,2.1c.648.648-.971.809-1.78,0s.162-3.4.809-2.1" transform="translate(-217.364 -72.881)" fill="#cd845f"/>
        <path id="Trazado_698729" data-name="Trazado 698729" d="M249.115,95.8c-.4,2.188.726,4.17,1.925,5.911.136.2-.384.16-.484.015-1.229-1.784-2.365-3.829-1.96-6.066.033-.182.554-.056.518.139" transform="translate(-189.142 -57.026)" fill="#cd845f"/>
        <path id="Trazado_698730" data-name="Trazado 698730" d="M224.737,74.131c-2.611,4.886,4.447,4.455,7.282,5.514.342.128.025.245-.192.163-2.851-1.065-10.338-.708-7.608-5.816.081-.151.578.027.518.139" transform="translate(-156.509 -47.336)" fill="#cd845f"/>
        <path id="Trazado_698731" data-name="Trazado 698731" d="M239.033,83.826a3.846,3.846,0,0,0-1.851-2.94c-.289-.2.136-.373.342-.23a4.24,4.24,0,0,1,2.034,3.211c.01.266-.516.188-.525-.041" transform="translate(-171.327 -50.323)" fill="#cd845f"/>
        <path id="Trazado_698732" data-name="Trazado 698732" d="M250.214,83.509c.543,2,1.561,3.826,2.1,5.827.03.109-.475.043-.511-.091-.542-2-1.561-3.826-2.1-5.827-.029-.109.476-.043.512.091" transform="translate(-191.054 -51.56)" fill="#cd845f"/>
        <path id="Trazado_698733" data-name="Trazado 698733" d="M292.068,90.733c-1.566,1.923-1.862,4.368-2.527,6.678-.05.174-.568.034-.519-.139.671-2.335.983-4.8,2.563-6.74.108-.133.607.047.482.2" transform="translate(-252.535 -54.749)" fill="#cd845f"/>
        <path id="Trazado_698734" data-name="Trazado 698734" d="M306.435,106.637a16.618,16.618,0,0,1-1.388,4.4c-.072.149-.575-.023-.518-.139a16.626,16.626,0,0,0,1.388-4.4c.024-.137.546-.018.518.139" transform="translate(-275.443 -61.893)" fill="#cd845f"/>
        <path id="Trazado_698735" data-name="Trazado 698735" d="M292.9,121.331a13.3,13.3,0,0,0,.227,2.987c.021.09-.482.023-.51-.1a13.473,13.473,0,0,1-.236-3.029c0-.064.518,0,.518.139" transform="translate(-255.431 -68.489)" fill="#cd845f"/>
        <path id="Trazado_698736" data-name="Trazado 698736" d="M318.1,118.281a4.979,4.979,0,0,1,.011-1.217c.133-.464.515-.911.685-1.37l.463.2c-1.528.869-1.867,3.061-2.49,4.562-.083.2-.6.047-.518-.139.649-1.565,1-3.782,2.6-4.692.11-.063.535.01.463.2a10.524,10.524,0,0,1-.483,1.014,3.1,3.1,0,0,0-.21,1.489c0,.238-.521.139-.521-.055" transform="translate(-294.802 -65.999)" fill="#cd845f"/>
        <path id="Trazado_698737" data-name="Trazado 698737" d="M300.441,133.828a11.264,11.264,0,0,1,.463,3.933c0,.221-.519.114-.519-.062a11.277,11.277,0,0,0-.463-3.933c-.065-.178.454-.115.519.062" transform="translate(-267.366 -74.083)" fill="#cd845f"/>
        <path id="Trazado_698738" data-name="Trazado 698738" d="M284.083,136.66q.348,1.041.694,2.082c.094.282-.423.275-.5.058l-.694-2.082c-.094-.282.423-.275.5-.058" transform="translate(-242.229 -75.356)" fill="#cd845f"/>
        <path id="Trazado_698739" data-name="Trazado 698739" d="M264.069,139.008a11.555,11.555,0,0,1-4.76-5.217c-.126-.273.4-.287.5-.068a10.97,10.97,0,0,0,4.5,4.963c.3.175.028.473-.234.322" transform="translate(-208.467 -74.044)" fill="#cd845f"/>
        <path id="Trazado_698740" data-name="Trazado 698740" d="M273.812,93.679c-3.183,2.549-3.57,7.818-2.76,11.51.035.162-.481.08-.516-.076-.822-3.748-.434-9.043,2.792-11.626.128-.1.6.1.484.192" transform="translate(-223.866 -56.08)" fill="#cd845f"/>
        <path id="Trazado_698741" data-name="Trazado 698741" d="M272.789,120c.131,1.091.954,1.739,1.321,2.712.1.265-.417.236-.491.042-.379-1-1.218-1.68-1.353-2.8-.029-.244.5-.164.523.049" transform="translate(-225.318 -67.876)" fill="#cd845f"/>
        <path id="Trazado_698742" data-name="Trazado 698742" d="M295.1,94.018a7.688,7.688,0,0,0-.459,3.883c.038.264-.492.2-.526-.038a7.894,7.894,0,0,1,.467-3.984c.089-.236.606-.091.518.139" transform="translate(-258.321 -56.214)" fill="#cd845f"/>
        <path id="Trazado_698743" data-name="Trazado 698743" d="M310.25,103.74a5.189,5.189,0,0,0-1.837,2.992c-.021.095-.543-.03-.518-.139a5.254,5.254,0,0,1,1.865-3.024c.105-.083.549.124.49.171" transform="translate(-281.123 -60.599)" fill="#cd845f"/>
        <path id="Trazado_698744" data-name="Trazado 698744" d="M328.286,114.367c-3.15-1.145-6.549-2.576-9.94-2.648-.1,0-.582-.2-.34-.2,3.575.076,7.138,1.541,10.455,2.746.347.126.018.171-.175.1" transform="translate(-305.027 -64.169)" fill="#cd845f"/>
        <path id="Trazado_698745" data-name="Trazado 698745" d="M293.95,105.506c-3.881-.024-7.739-.6-11.619-.624-.111,0-.586-.214-.336-.213,3.881.024,7.739.6,11.619.624.111,0,.586.215.336.213" transform="translate(-250.551 -61.101)" fill="#cd845f"/>
      </g>
    </g>
  </g>
</svg>
